<svg width="1012" height="168" viewBox="0 0 1012 168" fill="none" xmlns="http://www.w3.org/2000/svg">
<path d="M252.78 29.74C234.79 29.8 219.85 39.77 213.34 56.73C207.25 72.57 207.28 90.74 213.82 106.48C220.44 122.44 234.57 132.03 252.28 132.29C270.57 132.55 285.58 122.48 292.29 105.95C298.75 90.03 298.65 71.65 292.13 55.77C285.34 39.25 270.37 29.67 252.78 29.74ZM280.12 94.1C279.07 108.58 268.2 118.45 253.26 118.6C238.5 118.75 226.95 109.29 225.92 94.67C225.3 85.93 225.36 76.75 225.83 67.95C226.64 52.63 238.89 43.14 253.56 43.42C267.67 43.68 278.96 52.99 280.08 67.55C280.75 76.25 280.75 85.39 280.12 94.1ZM995 77.43C980.76 72.49 966.74 73.93 958.58 67.12C954.11 63.39 954.12 56.96 956.08 51.84C961.21 38.46 989.65 40.36 999.4 54.82L1009.66 45.61C997.55 29.53 975.33 26.4 957.8 32.72C946.58 36.76 940.22 46.38 939.88 57.9C939.53 69.83 946.01 79.33 957.51 83.49C974.49 89.64 994.8 85.76 996.64 101.37C997.5 108.6 993.6 115.23 986.42 117.46C971.48 122.1 956.77 116.7 947.11 104.09L936 112.97C949.23 131.25 972.03 136.48 992.63 129.26C1005.42 124.77 1011.9 113.55 1011.59 100.85C1011.33 89.95 1005.49 81.07 995 77.43ZM453.19 4.79L438.05 4.84L437.97 31.89L422.02 32.03L422.08 45.55L437.97 45.83L438.06 115.53C438.07 123.27 444 129.53 451.79 129.93C458.99 130.31 465.38 130.24 472.96 130.2L472.93 116.55L453.27 116.46L453.24 45.75L474.45 45.59L474.51 32.04L453.28 31.82L453.19 4.79ZM499.3 32.19H514.53V129.51H499.3V32.19ZM499.3 0H514.53V16.46H499.3V0ZM893.75 29.69C880.29 29.67 869.42 36.2 864.09 49.34C859.55 37.08 849.59 31.3 837.82 29.99C824.14 28.46 813.34 34.69 807.66 47.61L806.96 32.16L792.02 32.33L792 129.94L807.21 130.03L807.28 61.07C807.29 55.03 811.27 49.53 816.6 46.85C824.2 43.04 833.75 41.95 841.47 46.27C847.63 49.71 851.02 57.57 851.06 64.84L851.35 129.91L866.49 129.87L866.61 60.27C866.61 54.89 870.38 49.94 874.33 47.6C882.64 42.65 893.57 41.55 901.92 46.98C907.39 50.53 910.33 58.29 910.35 64.97L910.58 129.88L925.77 129.93V64.84C925.78 59.7 924.62 54.36 923.29 49.7C918.77 36.54 907.37 29.7 893.75 29.69ZM644.81 29.72C631.13 29.27 619.82 35.61 614.38 49.33C609.7 36.49 598.71 30.34 585.8 29.82C573.28 29.32 564.06 35.63 558.95 47.48L558.31 32.24H543.32L543.29 129.99L558.21 130.03L558.29 62.1C558.29 56.19 561.23 50.6 566.37 47.55C574.22 42.89 584.98 41.66 592.96 46.85C598.83 50.67 601.54 58.72 601.57 65.86L601.8 129.92H616.75L616.8 61.26C616.8 52.96 622.72 47.1 629.86 44.99C637.38 42.76 645.89 42.4 652.36 47.57C657.03 51.3 659.83 58.47 659.86 64.87L660.1 129.99L674.98 129.84L675.05 66.88C675.05 60.06 674.08 53.4 671.67 47.3C666.92 36.04 656.8 30.12 644.81 29.72ZM361.84 30.07C350.86 31.43 342.73 37.02 337.9 47.35L337.32 32.15L321.77 32.46V167.64L337.48 167.52L337.64 114.18C343.66 125.34 352.59 131.47 364.76 132.15C381.93 133.1 396.56 123.79 403.05 107.66C409.25 90.7 409.5 71.72 403.15 54.75C396.59 37.23 380.08 27.82 361.84 30.07ZM377.09 115.17C363.3 122.25 340.08 118.32 337.5 100.89L337.59 60.75C337.62 48.3 359.81 37.95 377.07 46.79C385.23 50.98 390.13 59.68 390.68 68.81C391.7 85.75 393.41 106.79 377.09 115.17ZM732.76 29.72C715.09 29.92 700.38 39.71 693.96 56.38C687.93 72.02 687.88 89.81 693.89 105.54C700.71 123.39 716.94 133.2 735.81 132.28C751.36 131.52 765.72 123.72 771.81 109.42L760.95 101.74C755.46 113.16 745.19 119.25 732.22 118.53C713.49 117.48 704.13 102.04 705.65 84.85L775.45 84.8C775.77 74.93 775.16 65.71 772.03 56.86C765.97 39.74 750.78 29.52 732.76 29.72ZM758.83 73.08L705.98 73.13C704.73 62.63 710.35 51.42 719.06 46.45C728.92 40.82 741.5 41.35 749.92 48.62C756.97 54.7 759.46 63.61 758.83 73.08ZM71.3 81.19C65.42 76.25 56.88 71.9 48.87 71.87L0 71.66L0.1 103.04L46.21 103.07L46.37 148.97L81.8 148.9L81.74 105.76C80.69 96.7 78.63 87.35 71.3 81.19ZM122.28 46.61L122.2 0.55H87.73L87.94 43.95C88.04 64.95 103.4 77.13 123.67 78.12L167.53 78.09L167.43 46.7L122.28 46.61Z" fill="white"/>
</svg>
