<svg width="1160" height="384" viewBox="0 0 1160 384" fill="none" xmlns="http://www.w3.org/2000/svg">
<g clip-path="url(#clip0_457_4)">
<mask id="mask0_457_4" style="mask-type:luminance" maskUnits="userSpaceOnUse" x="0" y="0" width="1160" height="384">
<path d="M1160 0H0V384H1160V0Z" fill="white"/>
</mask>
<g mask="url(#mask0_457_4)">
<path d="M385.348 192C385.348 298.041 299.389 384 193.348 384C87.3069 384 1.34766 298.028 1.34766 192C1.34766 85.9719 87.3069 0 193.348 0C299.389 0 385.348 85.9591 385.348 192ZM380.737 192.013C380.737 88.6085 296.911 4.78688 193.501 4.78688C90.0918 4.78688 6.26583 88.6085 6.26583 192.013C6.26583 295.417 90.0918 379.239 193.501 379.239C296.911 379.239 380.737 295.417 380.737 192.013Z" fill="black"/>
<path d="M375.218 191.987C375.218 292.409 293.806 373.812 193.386 373.812C92.9662 373.812 11.5547 292.409 11.5547 191.987C11.5547 91.5647 92.9662 10.1621 193.386 10.1621C293.806 10.1621 375.218 91.5647 375.218 191.987ZM111.055 251.593C120.393 247.535 119.652 241.801 121.696 250.441C123.088 249.289 122.922 247.574 123.829 247.011C125.005 246.281 127.444 245.782 128.275 247.062C129.667 249.212 130.408 251.311 132.759 251.58C133.372 251.657 134.062 252.118 134.126 252.758C134.253 254.754 131.673 255.471 130.996 257.506L129.859 260.847C129.284 262.536 126.921 261.128 124.992 262.472C130.625 264.149 135.722 266.376 140.257 270.983C141.918 264.827 128.594 264.123 133.295 258.146C134.023 257.224 135.876 257.276 138.124 257.724C138.622 256.034 137.753 254.434 137.868 252.847C138.29 252.604 138.712 252.182 139.146 251.99C139.746 251.772 140.513 251.772 141.011 251.618C141.586 251.452 142.263 249.558 141.611 248.867C134.93 241.597 134.611 246.089 124.749 244.656C123.28 240.688 122.462 236.592 120.125 233.392C117.838 233.546 118.196 236.413 118.068 237.475C117.889 238.934 123.855 242.288 121.964 243.952C117.532 247.83 121.402 241.942 111.77 246.384C109.522 247.42 111.515 249.417 111.068 251.554C110.135 251.964 109.011 253.154 108.066 252.553C104.144 250.044 85.9914 226.673 83.181 219.672C74.3155 197.619 71.9139 203.161 69.193 177.946C70.3427 177.332 73.0892 175.655 73.3958 176.308C73.8046 177.166 73.6385 178.51 74.6094 180.238C74.9926 178.817 76.7938 177.089 76.8577 175.86C75.8229 174.401 75.2992 173.108 75.2098 171.79C75.0692 169.678 76.5255 169.345 78.3778 169.947L82.0058 171.099C78.1607 161.282 82.8233 163.88 79.9108 154.486C77.8924 157.212 76.7938 156.47 75.6569 156.111C73.664 155.484 73.5363 153.846 74.1112 152.655C75.9123 148.931 82.274 153.193 80.3068 147.382C79.0549 147.753 75.9123 147.536 74.4561 147.613C72.6165 149.814 71.3135 156.226 73.8684 158.146C75.3119 159.234 78.0201 158.287 78.6589 159.593C79.2465 160.796 79.4126 162.485 79.0549 164.136C78.7866 165.352 76.781 164.507 74.7882 164.93C73.2553 163.445 75.7846 160.284 71.9267 159.132L74.3794 172.968C72.195 174.286 69.3591 173.864 66.3954 173.339C66.7658 172.34 69.1802 169.985 68.5159 169.077C65.003 164.546 66.4337 160.335 67.1235 155.548L70.0872 135.095C71.1858 127.569 71.8118 120.939 75.3886 114.245C79.6297 106.31 81.7119 96.5435 88.0736 89.5168C98.076 78.4839 91.2289 79.7126 112.831 63.2785C113.904 62.4594 113.393 59.5924 115.296 60.1811C115.909 60.3731 116.688 61.0643 117.417 61.4099C117.8 66.9135 113.29 67.6302 113.699 68.3982C113.98 68.9358 114.964 70.2925 115.551 70.2029C115.104 70.2669 120.125 63.8673 119.869 64.4561C120.508 62.9074 118.643 61.973 117.404 61.3971C117.225 58.85 119.665 57.2629 121.53 55.3047C128.224 48.3035 137.319 45.2445 145.814 41.2512C152.431 38.1538 158.129 34.9924 165.768 34.2373C169.332 33.8789 174.148 29.8856 177.546 31.8822C180.535 33.7509 181.199 38.4738 183.345 40.7136C184.508 38.5378 184.968 37.2707 185.747 37.1683C186.718 37.0403 188.851 36.9379 188.813 37.7954C188.775 38.5634 189.298 41.7632 188.532 41.8784C184.917 42.4031 181.761 42.5183 178.644 43.5294C177.559 41.8144 177.559 39.8817 177.137 36.9763C174.097 38.0386 171.963 38.5378 168.387 38.6274C169.996 40.5728 170.839 42.7999 172.704 43.8366C174.11 44.6174 176.984 44.067 178.644 43.5294C187.293 57.1477 165.116 42.6335 162.728 52.7704L164.899 56.9558C166.049 59.1828 157.043 61.973 154.284 62.8178C155.689 59.042 152.482 56.4182 152.457 53.7176C152.431 50.3642 152.304 50.0314 150.03 48.3419C148.458 47.1772 145.303 47.2156 145.725 50.0314C146.185 53.1416 150.847 55.1895 149.263 58.6964C146.402 58.4277 145.623 55.0871 142.582 53.9992C140.781 54.9207 139.197 55.983 137.447 57.3013C139.938 59.5412 140.385 61.5635 140.832 63.7393C144.69 62.3698 148.075 62.2674 149.263 58.6964C150.336 58.9652 151.601 59.3492 152.521 60.0788C154.041 61.3075 152.674 62.3314 151.946 63.4193C151.116 64.648 149.979 64.2769 148.343 64.712C144.409 65.7616 139.861 72.3787 138.878 71.2524L136.936 69.0126C136.259 70.4589 136.808 72.4171 135.914 73.6586C135.429 74.337 134.292 73.6202 132.835 74.3882C132.478 76.948 130.664 78.7655 128.3 77.9208C124.672 76.6281 128.556 67.2207 123.727 68.411C122.054 68.8206 120.917 72.2763 118.502 72.1995C120.585 73.5307 122.526 72.5963 122.603 74.6954C122.641 75.7961 122.296 76.3465 121.287 77.3704C120.227 78.4583 118.592 78.2919 118.081 76.628L116.893 72.7627C115.705 74.0682 115.13 75.6681 113.648 76.2825C111.259 77.268 98.6509 69.3709 108.666 76.8584C113.508 80.4806 102.304 82.0805 103.352 86.9186C98.9702 90.1056 99.8772 82.682 94.9591 88.2625C93.9882 89.3632 98.4593 97.0939 99.5195 95.8524L101.282 100.166C101.627 101.024 104.668 99.4105 104.629 100.396C104.565 102.022 104.885 103.558 104.463 105.516C103.084 106.476 101.448 103.302 99.7239 101.856C97.6417 102.982 99.5706 105.03 100.056 106.271C100.567 107.59 102.458 107.142 104.08 108.652C96.7347 113.848 102.7 121.912 96.4281 120.107C95.4573 119.826 94.3842 118.853 93.6177 117.394C91.8293 119.582 92.1742 121.976 90.9351 122.449C89.8237 122.872 81.4309 123.345 80.971 121.438L79.7191 116.178C78.9016 119.058 78.1223 121.528 77.8157 125.38C76.7171 122.488 89.7599 127.185 88.0864 125.764C89.1339 126.66 89.7982 127.825 89.3 129.476C89.0317 130.359 87.9203 131.639 86.7834 131.588C84.0241 128.119 79.387 133.508 77.1898 126.392C75.9123 128.695 76.7427 131.23 76.6277 133.93C80.6261 133.61 83.296 131.422 86.7706 131.575C88.3163 133.508 92.2253 132.215 93.0812 135.057C93.7327 137.22 92.9918 138.999 91.9443 139.92C91.0117 140.739 89.1595 141.008 88.0098 139.946C86.9622 138.986 87.2305 137.322 86.1064 135.351C85.3016 136.9 84.484 142.058 86.5151 142.851C88.904 143.798 92.2509 141.853 91.8804 144.899C91.676 146.563 92.8896 149.66 90.0281 149.532C88.7251 149.468 87.2944 149.046 85.672 148.06C85.4293 150.966 85.0461 153.078 85.9531 155.958C87.1922 154.166 90.7946 151.695 91.6505 154.14C92.3147 156.034 92.0848 158.748 91.2928 159.554C90.3858 160.488 87.2816 159.349 85.7359 157.289C83.6281 159.004 85.2888 162.626 86.1447 164.315C86.9495 165.096 89.696 162.357 91.2417 163.496C90.6796 163.087 95.8277 175.745 90.7563 176.052C86.2213 176.321 88.4696 170.011 84.9567 168.155C84.4712 172.968 88.5718 177.601 86.2213 182.247C85.391 183.885 81.8525 181.812 81.7886 180.43C81.7247 178.804 82.1335 177.23 81.1115 174.836C79.0549 178.279 80.69 181.901 82.8872 185.319C84.3818 190.016 77.4325 186.202 76.6277 188.365C76.2828 189.287 76.3339 191.347 77.2409 191.232L89.3638 185.639C88.2269 183.015 87.8565 181.607 89.7343 181.005C91.6122 180.404 92.1359 179.406 93.2856 180.673C96.1343 183.809 93.0684 185.46 93.4517 188.135C92.7108 182.81 100.58 200.499 99.5579 200.473C98.2676 200.742 96.4792 200.025 95.0868 200.575C93.9115 201.036 94.3076 203.737 94.5758 204.837C94.8058 205.836 96.211 207.461 98.3571 206.617C96.888 204.748 97.3223 202.854 99.5579 200.473C100.823 200.563 102.266 200.921 102.803 201.727C103.595 202.918 104.144 209.023 102.547 209.215L98.0505 209.752C100.529 211.339 100.107 213.695 102.011 216.779C104.157 213.439 104.693 211.647 107.823 211.659C110.697 211.659 109.931 215.486 111.042 217.048C108.73 216.933 106.545 217.521 104.284 219.237C107.133 221.246 106.392 224.663 109.42 224.945C110.608 222.564 108.449 221.566 108.538 220.171C108.615 218.981 110.161 218.315 111.042 217.048C116.51 220.696 118.873 227.466 123.842 232.228C124.545 232.906 127.611 230.807 128.466 232.1C128.901 232.752 129.31 234.455 129.961 235.031L136.706 240.906C137.817 241.878 140.755 239.907 141.88 241.622C142.429 242.454 143.055 244.502 143.745 245.219L149.583 251.247C152.559 254.319 157.86 252.821 162.127 254.114C169.46 248.815 147.015 214.091 143.298 208.908C141.292 206.105 135.748 206.105 136.118 200.627C136.463 195.622 132.695 191.603 130.753 187.315C129.08 183.629 130.996 179.009 129.821 175.297C129.092 173.019 125.03 168.59 126.435 166.504C130.587 160.412 127.828 155.586 128.007 149.264C128.198 142.429 132.107 134.954 129.987 127.889C128.16 121.784 133.947 120.619 135.492 117.931C140.64 108.946 147.82 102.943 155.689 96.9659C161.092 92.8702 163.762 90.8863 170.941 89.6064C176.703 88.5825 183.256 82.5285 190.844 86.509C194.165 88.2625 198.496 85.8434 201.958 85.8946C232.578 86.3938 263.211 117.867 256.952 139.69C254.742 147.421 258.83 157.519 255.444 164.827C252.468 171.278 254.486 197.491 246.694 203.199L238.518 209.202C238.416 209.279 216.7 239.933 227.468 251.682C226.038 250.377 241.814 246.32 239.361 246.256C238.723 246.243 246.911 252.873 246.094 251.132C246.707 252.45 246.502 254.114 246.324 255.317C243.59 255.164 243.015 256.277 243.015 258.799C243.015 261.32 243.654 262.011 246.796 262.421C246.017 265.032 243.832 264.929 243.884 266.939C247.345 266.683 248.099 263.842 250.169 262.306C246.106 261.064 245.876 258.172 246.324 255.33C248.316 255.445 250.066 256.047 252.442 256.764C253.005 254.895 252.634 253.82 252.711 252.77C254.218 251.951 255.879 251.401 257.348 250.134C257.987 251.734 258.676 252.22 259.098 252.77C259.149 253.244 259.034 255.586 259.864 255.164C268.819 250.556 277.698 246.204 283.497 238.819C283.855 238.358 284.264 237.808 284.711 237.45C287.662 235.031 289.552 231.37 291.162 227.185C287.917 229.092 286.627 231.869 283.344 231.089C282.973 230.461 283.293 229.578 282.539 229.399C281.888 229.258 280.048 230.116 279.601 229.732C276.739 227.274 274.223 226.404 271.017 225.239C267.9 226.007 275.769 215.141 278.962 217.585C280.597 218.827 281.658 219.275 283.114 218.865C284.864 218.366 285.554 217.137 285.797 215.768C290.6 215.333 290.51 206.975 294.138 208.127C295.314 208.498 295.901 211.211 296.923 211.979C299.759 212.363 300.768 211.25 298.034 209.957C297.83 207.973 300.117 207.141 300.679 205.106C298.533 204.326 296.795 204.71 295.71 203.993C294.228 202.994 295.186 201.241 294.496 199.116C292.069 201.689 291.545 204.518 290.383 207.692C289.757 209.42 286.41 207.333 285.848 206.169C284.813 204.018 287.623 203.097 288.377 201.484C289.654 198.771 289.322 195.161 291.839 192.282C297.472 185.844 292.759 175.719 298.712 181.825C299.708 182.836 298.967 184.743 301.024 186.65C301.956 182.554 303.208 177.755 303.195 173.352C302.058 170.805 301.062 170.677 301.1 173.454C301.215 175.105 301.662 177.025 300.551 177.435C294.751 179.534 298.149 166.491 297.575 159.887C299.478 158.901 302.672 160.552 303.821 158.863C301.995 157.749 300.372 158.517 299.312 158.377C298.456 158.261 298.124 155.138 298.993 154.946C301.65 154.332 304.077 153.193 306.3 151.964C306.9 152.86 309.71 152.873 309.953 154.601C310.605 159.26 310.03 164.84 307.82 168.437C307.296 169.294 303.591 168.642 303.719 167.797C303.885 166.734 303.796 165.019 303.566 162.447C301.381 163.266 301.752 165.928 302.033 167.579C302.429 169.87 306.581 169.845 308.305 170.293C310.758 172.968 306.926 178.458 308.893 182.042C311.754 175.297 310.247 168.526 312.061 162.165C314.207 162.204 316.072 162.152 316.391 161.372C316.851 160.232 316.366 158.671 316.532 156.38C315.535 155.343 314.335 156.981 312.189 157.34C309.442 154.754 310.298 133.137 310.796 132.868C311.78 132.33 313.517 133.687 315.191 134.148C315.293 130.961 314.309 128.657 313.249 126.251C310.566 127.607 309.033 127.518 305.98 128.055C309.57 130.513 307.935 133.405 307.884 136.759C307.845 138.947 309.557 151.196 308.203 151.849C307.756 152.067 306.772 151.708 306.312 151.951C301.777 145.257 306.031 146.781 303.425 142.595C302.582 141.239 299.095 142.134 298.418 140.867C296.655 137.578 296.846 133.239 296.629 129.515C296.182 121.809 288.658 120.824 289.795 118.43C290.28 117.419 291.711 115.41 292.925 115.243C295.032 114.949 298.392 127.889 300.589 119.301C302.493 118.61 305.099 119.045 305.15 116.971C305.188 115.077 304.383 113.029 302.518 112.364C302.11 112.069 301.803 111.276 301.215 111.122C301.611 110.457 301.982 109.765 302.11 109.036C302.327 107.858 300.845 107.526 300.181 107.103C300.436 104.556 297.281 102.969 296.297 101.062C294.981 98.5146 297.37 98.0666 299.235 98.2714C300.781 98.4378 302.148 98.6298 301.522 101.676C301.177 103.366 306.006 101.241 304.728 99.5001C303.706 98.0922 301.445 96.6331 301.752 94.3165C299.299 95.0972 297.306 98.7962 295.224 97.9002C292.375 96.6843 293.282 93.3565 292.248 90.3615C290.561 91.8462 289.68 94.8156 290.319 96.4283C290.97 97.721 293.18 98.1306 293.5 99.1673C293.819 100.204 293.602 102.995 291.737 103.007C289.514 103.007 288.786 99.2569 287.521 97.1451C285.733 98.6938 283.855 99.3721 283.344 100.921C281.083 100.678 279.92 99.1673 278.681 96.4155C274.785 87.7889 265.166 82.2341 260.26 75.7577C272.09 70.3309 254.103 73.7354 275.245 62.6258C271.783 60.5907 269.42 59.8228 266.763 58.8116C265.051 53.5896 264.323 57.6725 256.083 50.697C254.767 52.4121 256.76 53.5256 256.556 54.9847C254.154 56.239 250.169 55.5991 250.169 58.8116C248.457 60.3731 245.685 60.7955 244.893 63.6369C246.873 64.3537 249.466 63.5089 250.028 64.6096C250.501 65.5312 250.539 68.3726 249.555 68.9486C248.291 69.6781 236.934 63.2145 235.21 61.7042C232.808 59.6052 226.344 62.4466 223.623 58.2613C222.231 56.1238 226.651 54.2679 228.222 53.3208C223.623 47.3692 212.65 54.7031 217.492 47.2796C218.577 45.6157 220.366 46.678 222.716 46.6908C225.067 46.7036 226.076 40.7392 223.1 39.2033C221.247 41.1488 224.454 43.5423 223.24 44.2078C221.362 45.2317 217.607 45.3469 217.044 44.003C216.291 42.1983 217.773 39.6257 219.676 38.9474C217.134 37.4115 214.86 39.1265 213.148 38.3842C208.601 36.4131 203.491 35.7988 197.729 35.85C198.598 37.3859 199.16 37.8466 199.505 39.7537C200.246 38.8194 200.668 38.0002 201.472 37.5139C201.779 37.3219 209.814 37.5906 209.354 40.1889C209.188 41.136 208.703 42.8255 207.336 43.4271C206.339 43.8622 204.781 42.2751 203.785 41.0336C199.352 44.4382 199.237 50.5178 196.848 54.7031C196.03 56.1366 191.521 54.8823 192.518 53.0136C193.195 51.7465 192.249 49.4939 196.03 49.8906C198.56 44.131 192.019 49.7754 189.528 48.5083C188.519 47.9964 188.545 45.0909 189.03 44.1182C189.605 43.0047 192.326 43.4655 194.357 43.7598L196.427 36.2211C193.731 35.2484 191.087 36.1571 187.74 35.7604C187.548 33.8917 187.395 32.791 187.88 30.2695C193.667 32.6886 199.352 30.6919 205.305 31.1911C208.856 31.4855 211.718 33.2645 215.614 32.2406C219.702 31.1783 223.726 35.978 226.842 35.9652C237.139 35.914 252.66 44.067 262.56 48.7259C276.906 55.4711 276.573 58.3381 284.442 66.6319C287.47 69.8189 291.085 71.4444 293.806 75.1945C306.555 92.7422 314.245 104.159 319.444 126.008C319.777 127.403 321.31 128.286 321.169 129.63C321.08 130.513 319.215 131.46 319.419 132.19L322.268 134.122C323.124 134.698 322.357 136.413 322.306 137.898L321.322 173.684C321.118 181.236 307.692 217.79 304.69 220.465C302.02 222.833 301.215 225.073 299.197 227.902L292.874 236.784C285.784 246.729 275.679 253.077 265.306 258.76L250.181 270.548L353.591 270.676C378.897 216.6 377.99 155.983 348.072 103.635C329.115 70.4589 299.644 43.3887 263.876 28.3625C182.694 -5.76005 89.8876 22.2957 43.0309 96.6331C9.81733 149.417 6.20216 214.232 33.6417 270.779L128.735 270.459C126.09 268.616 124.711 268.705 123.369 267.95C122.526 267.477 123.306 266.056 123.446 264.366C122.105 264.533 120.968 265.288 119.908 264.891C118.553 264.379 118.081 262.024 116.867 261.192C112.958 258.53 110.122 255.983 111.055 251.58V251.593ZM156.366 50.185C159.266 47.5228 160.862 48.3803 164.554 47.9068C162.28 46.2045 160.594 43.2095 158.525 42.8255C156.174 42.3903 153.607 43.7726 151.818 44.2206C153.722 45.2957 155.919 44.7838 156.736 46.742C157.081 47.5612 155.344 48.6107 156.366 50.1978V50.185ZM248.904 54.4343C249.262 53.9224 248.853 52.3481 248.15 52.7576C245.531 54.2807 243.909 52.668 242.581 50.2106C241.546 48.2907 244.228 48.1883 246.17 45.5389C242.197 45.1165 239.131 45.3085 236.257 43.555C235.159 44.323 235.861 45.7565 236.551 46.3197C236.909 46.614 237.892 46.2557 238.735 46.3837C240.792 46.7036 241.904 48.5851 241.009 50.1978L238.799 54.1911C242.325 53.1416 246.975 57.1733 248.891 54.4215L248.904 54.4343ZM137.294 66.1967C137.83 63.8929 136.872 60.7827 135.326 57.9925L129.999 65.0448C129.961 67.1439 136.527 69.4605 137.294 66.1967ZM288.632 90.0672C290.37 87.2257 291.737 85.6002 295.02 83.9108C292.797 82.9508 290.817 78.8039 288.901 79.9302L285.26 82.0677C283.919 82.8612 277.889 71.0348 275.615 72.0716C274.325 76.1929 278.643 76.3977 279.499 78.8551C277.621 81.5941 275.143 83.1556 274.146 86.1634C283.408 87.5713 274.785 93.6765 281.262 90.5023C286.039 88.1601 276.663 86.7906 278.324 82.4901C279.639 79.0855 285.988 83.7956 288.645 90.0799L288.632 90.0672ZM211.424 130.538C212.382 126.712 209.61 126.315 209.405 124.318C215.154 120.005 215.959 113.836 214.975 107.474C214.413 103.814 218.003 99.3465 213.966 95.8268C209.316 97.1451 214.732 110.687 208.434 111.532C207.553 109.151 209.137 106.041 207.246 105.145L202.827 103.071C205.203 100.524 208.971 97.6187 207.77 93.7277C207.476 92.7934 204.436 93.1773 204.232 93.9581C204.091 94.5085 204.321 95.9164 203.823 96.6459C196.503 107.41 210.389 108.319 206.161 115.115C203.491 111.941 201.242 110.226 198.074 108.639C197.691 110.623 197.742 111.839 197.985 113.708C202.022 113.08 204.474 115.192 205.88 118.2C214.937 115.192 202.89 127.505 211.436 130.538H211.424ZM189.183 97.0427C193.08 99.0905 192.403 103.379 194.779 107.487C195.124 104.889 196.695 99.3977 194.255 97.1067C191.457 94.4701 185.287 93.5357 182.234 95.5452C179.947 97.0555 182.119 102.252 184.01 102.611C186.118 103.007 187.51 102.879 188.494 105.017L189.196 97.0299L189.183 97.0427ZM172.436 106.066C174.697 104.991 176.371 104.467 176.192 102.828C175.962 100.793 176.741 99.3337 175.668 97.1323C172.973 99.2441 171.938 102.201 172.436 106.066ZM90.3986 110.316C97.003 105.145 88.9167 106.028 87.5115 98.3354C85.3143 101.74 86.0169 104.607 84.4329 108.242L90.3858 110.329L90.3986 110.316ZM166.049 118.162C160.696 106.182 163.903 105.427 170.009 98.5914C164.209 96.0443 157.464 109.778 160.466 114.527C161.501 116.152 163.277 120.171 166.049 118.162ZM228.056 112.658C230.419 108.767 230.394 106.348 232.195 104.108C229.385 103.148 228.273 100.422 225.693 99.7945C221.886 98.873 219.433 102.508 218.539 105.734C217.824 108.281 218.692 112.837 222.269 113.452C220.353 107.526 220.545 102.649 225.948 100.998C225.833 105.516 225.412 109.369 228.056 112.658ZM181.072 127.735C172.27 113.324 189.784 112.748 181.532 107.346C180.739 110.482 179.207 111.775 176.153 112.901C178.082 116.677 175.745 119.301 175.029 123.128C174.646 125.227 178.926 127.799 181.072 127.723V127.735ZM236.551 130.27L237.892 119.326C238.416 115.039 239.029 109.727 235.376 107.705C234.686 107.321 232.604 110.393 233.92 110.585C234.418 110.661 235.861 110.316 235.951 111.084C236.755 117.995 235.389 124.126 236.551 130.27ZM148.854 116.331C151.294 113.72 152.304 112.504 152.406 110.303C150.477 109.676 149.468 111.749 148.65 112.568C147.551 113.669 147.654 115.832 148.854 116.331ZM87.1794 114.706C84.0369 114.514 83.3726 113.17 82.4529 111.135C81.2265 112.031 81.597 113.938 81.8269 115.602C81.9419 116.434 83.9986 116.127 85.4165 117.01C87.7287 118.738 89.2872 116.421 87.1922 114.706H87.1794ZM201.638 120.76L199.518 131.038C195.353 128.606 195.456 124.523 195.021 120.67C192.16 118.315 192.403 114.936 190.282 112.325L194.319 136.157C197.282 134.468 198.739 131.601 199.607 132.868L202.022 136.336C202.788 137.437 204.692 133.905 204.244 132.394C203.925 131.332 202.507 130.257 201.868 128.811C200.642 126.008 204.998 123.55 201.638 120.786V120.76ZM173.088 133.239C170.635 129.809 170.558 126.724 171.861 123.486C172.244 120.632 173.126 118.046 171.67 114.898C167.211 126.289 169.013 114.642 166.815 130.743C171.887 132.228 175.246 135.978 180.28 138.128C182.196 137.412 181.135 133.981 179.449 132.714C177.865 131.524 176.141 132.036 173.075 133.226L173.088 133.239ZM239.298 137.796C241.686 139.613 248.227 114.847 243.207 114.732C241.265 120.722 241.431 127.172 240.831 133.341C239.489 133.738 238.327 132.945 237.867 133.201C237.279 133.533 237.1 134.583 237.445 134.826C237.854 135.108 238.697 135.914 239.31 137.808L239.298 137.796ZM220.8 134.212C220.046 129.655 218.539 127.543 220.149 124.433C221.567 121.489 220.059 118.878 217.057 117.586C217.032 121.489 217.172 124.408 215.882 127.915C216.802 130.628 217.99 132.906 220.8 134.212ZM188.059 134.071C190.857 132.074 185.134 118.776 185.709 118.917C184.61 118.661 182.643 118.661 182.605 119.493C182.17 128.145 185.913 118.917 188.072 134.071H188.059ZM153.888 124.587C154.118 126.699 152.342 128.171 153.492 130.462C156.302 128.593 157.592 125.15 156.034 122.961C154.245 120.44 151.154 119.621 148.637 120.12C145.993 120.645 144.549 124.305 146.07 126.545C147.385 124.254 148.599 123.192 150.183 122.821C151.473 122.513 153.632 122.437 153.875 124.587H153.888ZM231.748 129.028C232.693 124.907 232.489 123 231.965 119.979C229.27 122.974 229.461 126.2 231.748 129.028ZM164.043 124.152C164.286 123.269 153.006 116.511 165.627 137.066C165.64 131.908 162.766 128.785 164.043 124.152ZM145.52 127.799H144.243V139.92H145.52V127.799ZM140.628 135.325C140.819 132.01 139.516 131.652 138.367 129.092C137.741 131.716 135.518 133.226 135.224 136.81C137.025 135.62 138.354 135.287 140.628 135.325ZM234.814 143.798C237.892 140.253 235.197 137.706 233.996 135.325C233.613 138.576 232.476 141.111 234.814 143.798ZM232.936 145.475C231.569 146.781 231.262 148.79 230.407 149.276C229.717 149.66 228.529 146.87 227.43 147.241C217.198 150.748 219.663 140.291 212.177 140.778C211.781 141.443 212.701 142.736 212.382 143.197C211.641 144.259 211.117 144.643 210.466 143.837C206.697 139.178 200.233 145.718 197.027 145.552C196.056 144.387 195.341 138.768 192.569 140.765C190.295 142.39 190.423 147.305 186.373 148.188C186.59 144.733 185.76 141.981 182.745 140.547C182.183 142.16 182.898 145.168 181.25 145.501C177.303 146.307 174.467 143.21 171.58 141.981C170.686 143.299 170.047 145.539 169.14 145.36C164.401 143.325 160.594 141.328 158.716 136.26C151.971 156.022 139.261 137.476 142.518 167.95C139.963 170.152 136.821 170.485 132.516 171.547C139.12 182.298 128.454 174.696 139.657 197.632C144.575 188.736 129.527 176.897 145.341 176.539L145.699 195.417C145.955 209.202 165.896 246.896 187.765 248.803C217.709 251.414 232.553 216.523 240.192 193.152C242.172 187.098 241.341 181.133 240.153 174.926C238.071 164.034 244.688 160.028 232.936 145.501V145.475ZM250.807 137.501C248.419 131.665 245.378 144.579 245.212 142.467C245.263 143.094 246.413 144.067 247.473 144.413C247.371 141.379 248.802 140.215 250.807 137.488V137.501ZM82.8489 142.429C80.0129 141.29 78.4289 139.587 75.0692 140.445C77.2153 143.133 79.8213 145.091 82.8489 142.429ZM135.48 164.226C137.677 156.111 137.191 149.379 137.881 141.738C136.118 130.769 132.618 172.34 135.48 164.226ZM246.886 172.609C248.329 168.654 250.424 165.557 251.535 160.872C247.167 163.291 245.25 167.579 246.886 172.609ZM245.25 177.806C244.982 186.036 242.759 194.304 240.294 202.418C248.444 200.166 252.736 175.31 245.25 177.806ZM83.3982 207.564C84.4968 203.622 83.1427 202.086 80.8944 199.283C80.0129 201.702 80.1024 205.157 83.3982 207.564ZM99.9794 228.401C98.6509 229.591 97.7439 232.023 99.3279 233.802C99.1618 236.579 99.8261 237.207 102.7 238.563C103.505 238.947 103.991 235.082 105.102 235.171C108.487 235.466 111.068 236.899 113.175 233.085C113.508 232.484 114.938 232.317 114.9 231.754C114.836 230.653 115.296 228.926 114.236 228.631C111.093 227.761 110.633 230.794 107.836 231.268C106.622 231.473 97.5523 220.491 97.4756 216.114C95.6361 217.995 93.2473 221.067 91.165 219.262C89.2105 217.56 90.0026 213.874 86.6684 213.298C88.7124 222.68 92.3275 221.374 93.7455 227.454C94.9846 225.534 94.4353 223.691 96.1726 223.409C97.1307 223.255 98.8808 223.307 100.158 224.574C101.001 225.406 100.963 226.89 99.9666 228.401H99.9794ZM299.785 215.947C297.766 216.971 296.054 216.894 294.47 214.872C293.768 215.461 291.877 215.384 291.328 216.28C289.923 218.597 292.631 222.155 295.186 221.988C296.987 221.873 299.733 220.094 299.785 215.947ZM111.745 238.806C108.398 236.093 105.83 244.374 106.098 241.968C106.035 242.569 107.325 243.747 107.925 243.785C106.954 243.721 112.997 239.818 111.757 238.806H111.745ZM211.168 256.597C205.714 256.175 199.939 267.182 194.894 263.586C187.139 258.069 180.931 250.722 170.916 248.598C174.173 260.002 171.708 270.702 166.751 280.916L227.532 280.864C216.597 271.38 217.108 257.058 211.181 256.597H211.168ZM239.349 255.1C240.447 255.509 240.511 250.594 238.761 250.454C237.752 250.377 236.564 250.953 234.341 251.67C235.542 252.924 237.547 253.679 239.349 255.1ZM160.53 280.596C166.228 272.775 168.77 263.189 166.509 254.025C165.346 264.661 160.811 272.916 154.322 280.57C156.149 281.044 159.202 281.568 160.53 280.608V280.596ZM240.473 275.041C230.573 270.369 227.89 262.446 223.726 255.215C221.541 262.843 228.414 276.193 235.542 277.101C237.139 277.306 240.051 276.282 240.46 275.054L240.473 275.041ZM153.108 270.228C150.285 269.166 149.072 267.886 148.51 265.019C145.852 266.069 146.415 267.643 145.303 270.139C147.692 271.124 150.081 271.111 153.108 270.228ZM40.8593 277.114C40.2205 277.114 39.4285 277.025 38.9814 277.242C37.8828 277.805 37.9595 279.329 38.7131 280.493L47.3742 293.74C53.0205 302.393 60.0848 309.509 66.9575 318.033C70.5726 314.04 74.2389 310.75 79.2593 307.397C77.9052 305.951 75.4397 303.442 76.8704 301.906C79.3359 299.27 82.4656 303.25 84.3052 303.327C87.8692 302.777 92.8513 299.91 95.6361 297.708C95.7766 294.944 95.5595 293.036 98.0249 291.539C102.33 288.941 94.6652 300.153 117.672 289.824C116.446 287.981 113.916 286.419 115.398 284.858C116.292 283.911 118.528 282.17 119.895 282.784C122.092 283.757 122.156 285.946 121.249 288.506C128.3 285.869 134.343 283.603 140.359 280.34C138.456 279.469 137.37 279.124 137.907 277.242C140.487 276.41 143.246 278.522 145.597 275.988L40.8593 277.127V277.114ZM329.038 300.434C330.162 300.358 331.772 303.34 333.088 302.047C338.593 296.607 330.124 297.811 333.688 293.676C336.562 290.336 340.152 295.635 340.765 293.024C341.621 289.427 336.971 287.238 338.811 284.819C339.654 283.719 340.957 281.812 342.847 282.503C343.856 282.874 344.636 284.871 345.274 284.576C346.092 284.205 346.935 283.309 347.178 282.682C348.468 279.393 337.214 279.623 346.973 276.052L259.009 276.09C266.66 278.087 274.529 277.153 281.824 277.281C283.28 285.255 269.943 276.014 271.566 281.338C272.447 284.218 277.135 282.528 279.039 284.051C283.702 287.802 288.479 293.075 294.24 294.252C295.301 293.804 296.731 292.102 297.971 292.192C299.337 292.294 300.321 293.164 301.088 294.368C301.599 295.174 299.184 297.836 300.027 298.642C306.146 304.492 313.287 310.93 320.441 315.384C334.429 309.445 322.127 300.895 329.051 300.422L329.038 300.434ZM271.962 315.397C273.533 314.744 275.04 313.259 276.573 313.144C280.891 312.824 286.32 322.41 287.176 316.51C287.317 315.525 284.953 315.102 284.8 314.373C284.609 313.477 284.251 311.774 285.286 311.557C289.552 310.661 291.852 316.651 291.839 317.291C291.813 318.814 290.536 320.03 289.693 321.335C291.456 323.025 294.138 320.529 296.118 321.745C300.615 324.535 305.916 323.921 311.741 325.713C313.849 324.049 314.91 321.681 316.302 319.646C298.788 300.754 275.13 289.888 250.973 279.495C251.433 283.309 254.205 287.392 257.041 289.337C259.162 288.634 261.563 286.189 264.348 287.699C267.133 289.209 268.666 290.758 268.078 294.214C266.775 301.932 257.565 299.334 258.306 303.417C258.549 304.735 261.04 305.836 260.337 307.013C259.379 308.626 257.501 309.842 255.611 308.587C253.579 307.231 253.362 305.144 252.238 302.495C248.406 308.613 250.948 307.947 252.213 310.853C254.627 316.433 249.568 320.183 246.081 324.202C245.864 325.546 248.431 325.93 248.866 325.137C249.211 324.522 250.284 322.59 251.587 323.102C254.039 324.062 252.775 328.298 250.756 329.322C248.214 330.615 245.531 331.267 243.296 329.168C241.367 327.351 240.32 324.062 242.019 321.131C243.718 318.2 247.805 317.444 249.032 313.822C248.61 312.798 246.17 312.197 245.531 311.518C244.126 310.021 247.026 309.419 247.703 307.755C242.913 307.218 240 310.264 235.912 311.07L236.283 344.95C253.477 328.912 259.89 325.009 281.99 321.233C280.687 319.595 279.703 318.507 278.63 317.956C276.778 316.996 276.05 319.966 274.274 320.26C272.498 320.555 271.476 317.598 271.936 315.358L271.962 315.397ZM201.064 288.403C209.878 288.826 217.939 289.145 224.952 284.935H156.813C163.29 288.237 170.252 286.778 177.508 287.456C185.147 288.16 192.492 289.337 201.064 288.403ZM142.442 291.859L145.444 285.703L123.612 294.521C130.395 295.059 135.837 292.422 142.442 291.859ZM245.544 293.817C246.783 292.307 243.513 288.045 241.648 287.546C240 287.11 235.81 288.134 235.963 289.76C237.19 292.998 242.542 297.452 245.531 293.804L245.544 293.817ZM163.379 330.704C164.771 331.114 166.304 333.277 168.042 332.995C169.511 332.752 172.538 330.461 172.87 328.874C173.203 327.287 170.29 325.009 170.443 322.935L169.217 329.463C168.898 331.165 165.346 330.832 163.379 330.692C159.151 326.66 167.339 327.082 170.239 318.417C170.967 316.267 173.203 312.146 175.489 314.539C179.36 318.609 177.15 325.124 175.234 329.002C176.409 330.666 178.836 332.368 178.862 333.968C178.926 337.001 177.597 338.166 175.425 338.448C172.474 338.832 170.328 338.115 169.191 334.467C167.965 336.157 166.189 336.758 164.452 337.795C166.394 339.805 169.064 339.139 169.498 340.585C170.047 342.39 170.149 344.527 169.753 346.012C169.242 346.268 168.246 346.972 167.607 347.113C166.266 344.668 163.277 343.439 162.459 341.136C162.114 340.176 163.583 339.229 163.264 338.87C156.941 331.536 161.833 357.647 160.007 349.954L160.709 352.936C160.875 353.628 158.895 355.573 158.486 354.216C155.625 344.681 154.118 336.413 150.988 328.298C151.601 334.416 151.741 357.301 146.67 357.838C147.296 349.916 146.491 343.222 145.508 335.85C144.831 330.756 146.9 325.649 143.31 321.681L138.839 348.969C134.458 340.675 137.038 332.253 137.741 322.769C132.056 331.139 130.063 340.521 122.82 348.854C123.242 339.613 126.103 330.653 130.651 322.295C132.605 318.712 135.697 315.755 135.658 311.096C128.85 315.115 129.463 322.462 123.076 327.748C124.634 306.911 137.447 309.189 133.436 298.937C115.462 306.232 106.686 321.463 89.1467 329.604C85.7998 326.801 83.0533 324.1 79.6425 319.991L95.7255 315.422C103.173 313.31 111.144 310.443 115.845 303.929C107.478 304.696 103.262 311.838 95.1379 309.88L120.035 296.07C107.171 299.679 95.1634 304.389 84.4712 311.851L71.1475 321.143C111.732 361.102 170.443 376.551 225.552 367.412C227.341 356.136 231.837 354.383 230.981 342.185C231.339 341.328 232.885 339.83 231.837 338.448C231.199 337.603 229.972 337.142 228.337 337.539L224.671 333.418C223.227 331.792 228.516 331.216 229.717 330.039L224.53 328.848C222.755 328.439 223.879 325.444 222.857 322.871C221.682 324.561 221.337 326.634 221.158 328.695C223.534 330.538 224.262 333.277 222.729 335.709C221.694 337.347 219.088 338.294 217.223 337.462C214.349 336.17 213.021 332.906 215.422 330.372C216.201 329.54 218.961 328.81 218.105 327.62C217.249 326.429 217.057 325.085 216.035 324.177C215.358 326.788 215.435 328.9 213.557 329.245C211.679 329.591 209.725 329.552 208.013 329.399C205.075 324.087 209.124 329.655 212.088 321.399C212.497 320.273 214.847 321.783 215.282 320.913C217.262 316.843 215.524 313.515 214.566 310.226C212.791 307.986 224.032 305.58 224.837 309.522C225.271 311.672 222.704 311.416 221.899 312.849C219.076 317.905 227.175 319.159 227.2 324.906C227.2 325.764 230.534 326.058 230.624 325.252C231.071 321.489 231.773 316.932 230.33 313.323C229.64 312.171 226.268 312.274 225.782 310.891C225.143 309.099 227.749 307.717 228.452 306.181C226.306 303.583 223.33 300.626 222.052 297.491C221.694 296.62 222.474 295.161 221.924 294.419C221.273 293.536 219.702 293.126 218.36 293.638C213.583 295.468 209.099 294.79 204.155 294.931C185.798 295.468 168.182 294.432 150.311 290.016C149.327 289.773 148.535 291.347 147.96 292.012C154.488 295.596 150.898 301.548 151.933 304.479C152.521 306.156 156.455 304.248 159.534 305.733C160.492 306.194 161.246 307.947 160.773 309.509C159.406 314.053 149.928 307.755 148.791 309.291C152.304 316.779 156.621 322.564 157.196 330.436C159.598 331.447 161.603 330.167 163.366 330.692L163.379 330.704ZM262.381 294.892C267.44 290.592 255.406 293.996 255.317 294.329C255.163 294.867 254.895 296.953 255.598 297.247C257.808 298.194 260.184 296.761 262.381 294.892ZM139.363 296.838C137 298.054 137.128 303.314 138.66 304.927C140.577 306.949 144.435 306.77 146.581 305.503C149.314 303.903 148.177 299.794 147.04 297.708C145.827 295.481 141.905 295.532 139.363 296.838ZM91.7271 323.908C94.397 321.335 97.0924 320.951 98.3826 317.88C94.7291 318.75 91.4716 319.223 88.3419 321.067C87.09 321.809 89.9004 325.661 91.7271 323.895V323.908ZM280.533 335.965C280.891 332.035 282.335 329.668 284.877 326.993C280.214 326.865 277.11 327.94 273.52 328.784L280.533 335.965ZM302.569 328.541C297.434 328.068 293.538 326.25 288.288 327.082L291.749 329.45C293.065 330.346 292.082 332.739 292.363 335.21C300.104 333.738 292.222 331.165 302.582 328.541H302.569ZM266.456 339.613C266.89 335.21 266.52 333.29 268.015 330.781C264.821 330.346 261.308 332.125 260.005 334.326C260.708 336.771 264.297 338.243 266.469 339.625L266.456 339.613ZM290.919 339.229C288.62 336.502 287.789 335.005 286.589 331.882L282.015 340.752C285.464 341.276 287.649 340.112 290.932 339.229H290.919ZM260.043 350.095C266.903 344.822 272.588 343.939 279.716 341.622C276.254 340.56 274.811 338.013 272.767 334.314C270.659 336.221 273.725 344.092 266.124 344.719C263.607 344.924 262.739 342.774 259.992 340.099C258.6 343.606 258.357 347.318 260.03 350.095H260.043ZM253.439 345.859C254.397 341.865 253.03 339.945 253.924 337.014C249.939 339.6 246.387 340.649 243.615 344.745C247.409 343.171 250.743 345.718 253.439 345.859ZM244.739 356.226C243.04 351.861 242.823 349.263 242.019 346.012C239.732 350.569 235.925 352.399 234.89 357.391C238.569 356.917 241.329 355.637 244.727 356.213L244.739 356.226ZM280.585 347.522C273.175 347.394 267.171 352.092 261.908 356.149C269.56 354.472 274.236 350.479 280.585 347.522ZM257.935 351.388L247.435 349.89C249.159 351.746 250.015 354.498 251.893 355.829C253.848 355.842 256.53 353.32 257.935 351.388ZM245.493 362.689C238.199 356.482 237.215 367.195 232.885 360.091C232.387 361.64 231.25 362.817 231.007 365.249C235.938 364.929 239.604 364.622 245.493 362.689Z" fill="black"/>
<path d="M259.098 252.86C258.676 252.31 257.999 251.823 257.348 250.223C255.879 251.49 254.218 252.041 252.71 252.86C251.203 253.679 249.951 254.69 248.712 253.602C247.652 252.668 248.188 249.942 247.422 249.43C245.033 247.83 244.241 246.563 245.263 244.438C246.285 242.313 249.491 241.61 250.092 243.645C250.564 245.206 248.699 246.627 250.641 248.022C252.021 245.424 254.754 243.235 256.53 241.392C257.807 240.816 260.26 240.688 261.895 239.152C263.237 237.885 265.459 238.947 266.635 240.611C267.248 241.482 264.961 242.109 264.629 243.747C266.75 244.681 268.768 245.808 269.087 247.19C269.087 247.177 261.359 254.396 259.085 252.886L259.098 252.86Z" fill="black"/>
<path d="M231.02 342.198C223.7 340.764 221.567 360.885 216.559 351.375C214.656 347.753 215.307 341.507 219.574 339.702C221.26 338.985 221.771 343.03 222.934 343.478C223.393 341.635 223.176 338.806 224.952 338.371L228.388 337.539C230.023 337.142 231.237 337.603 231.889 338.448C232.936 339.83 231.39 341.328 231.033 342.185L231.02 342.198Z" fill="black"/>
<path d="M300.181 107.193C300.832 107.615 302.314 107.948 302.11 109.126C301.982 109.855 301.612 110.546 301.216 111.212C301.292 114.424 301.152 114.501 298.661 112.492C294.42 108.87 287.368 118.495 287.636 113.349C287.879 108.818 285.401 104.569 283.344 101.011C285.375 98.7577 287.483 99.5641 289.655 103.417C292.35 103.84 293.436 104.3 292.9 104.787C295.084 102.112 297.511 102.918 300.181 107.206V107.193Z" fill="black"/>
<path d="M283.343 231.165C287.112 231.101 287.559 233.226 284.697 237.539C284.25 237.911 283.841 238.461 283.484 238.909C282.245 238.167 280.903 237.642 279.511 237.309C277.876 239.152 277.122 238.525 278.233 236.272C278.208 234.749 278.208 232.676 279.485 231.754C280.507 231.025 282.219 230.897 283.33 231.165H283.343Z" fill="black"/>
<path d="M139.133 252.002C138.699 252.194 138.278 252.604 137.856 252.86C136.681 253.551 135.276 253.525 134.126 252.77C134.062 252.13 133.372 251.657 132.759 251.593C132.848 250.146 132.503 248.483 132.938 246.55C137.051 245.424 138.163 249.135 139.146 252.015L139.133 252.002Z" fill="black"/>
<path d="M99.3267 233.802C97.7426 232.01 98.6496 229.591 99.9782 228.401C102.393 227.812 105.293 230.807 104.347 233.239C103.325 235.901 100.681 234.659 99.3267 233.802Z" fill="black"/>
<path d="M301.215 111.212C301.815 111.365 302.109 112.159 302.518 112.453C302.198 113.823 303.348 117.023 301.636 117.471C299.222 118.111 297.05 117.739 297.306 115.807C297.433 114.834 297.88 113.477 298.66 112.479C299.337 111.762 300.257 111.391 301.215 111.199V111.212Z" fill="black"/>
<path d="M355.352 239.587C357.626 236.439 353.206 232.727 352.376 229.668C351.852 227.748 353.922 225.163 352.976 223.742C352.146 222.5 349.923 219.441 348.608 220.414C345.963 222.347 344.533 222.935 342.604 221.067C341.288 219.8 340.253 218.597 338.81 215.512C338.133 219.211 333.15 218.597 331.451 220.452C326.316 226.02 332.18 245.283 327.351 248.252C324.055 250.274 318.485 248.956 314.449 248.367C317.221 244.4 321.347 246.14 324.119 243.811C325.396 235.133 320.261 213.349 333.112 215.589C332.461 212.799 328.948 214.142 327.261 212.747C325.562 210.84 327.67 207.141 326.367 204.684C324.962 202.034 321.334 202.905 319.418 204.466C318.192 191.514 333.994 202.79 340.343 197.708C341.032 199.398 341.007 201.433 340.7 202.316C339.972 204.377 331.809 202.956 331.72 206.22C331.656 208.511 332.09 209.637 335.003 210.367C335.808 210.572 337.979 212.824 338.477 211.288C339.627 207.717 340.406 206.399 343.434 204.927C345.963 203.698 347.611 206.617 350.383 206.412C352.951 206.22 355.123 202.943 357.46 204.927C359.619 206.757 361.293 209.624 359.019 212.568L354.995 209.394C354.905 212.645 354.331 215.422 355.186 218.136C356.528 219.185 359.734 218.046 360.577 217.086C364.129 221.592 358.048 224.356 357.984 227.172C357.907 230.769 361.906 235.031 359.657 239.024C358.252 241.52 355.352 245.641 351.162 245.398C349.885 242.045 353.743 241.853 355.365 239.6L355.352 239.587ZM344.405 216.856C348.39 216.664 347.931 209.74 346.053 209.599C342.629 209.317 342.271 216.958 344.405 216.856Z" fill="black"/>
<path d="M46.4419 205.03C45.3306 204.684 44.8323 207.897 43.9892 208.14C45.7649 207.641 35.8519 205.247 36.8994 206.348C35.3665 204.761 35.8264 202.726 35.6603 199.564C34.1529 197.478 28.1361 210.955 25.9389 206.617C24.3294 203.417 26.5777 199.935 26.6288 196.672C26.731 189.978 29.8479 185.485 34.4084 181.21C36.2735 179.457 31.8407 176.475 32.0451 175.003C32.786 169.806 43.3888 178.433 38.1896 169.192C35.6986 167.861 33.3864 170.997 30.3078 171.137C26.6671 171.304 25.5174 166.875 25.7729 164.456C26.1561 160.706 30.7294 157.557 33.1693 160.885C33.808 161.756 31.6619 163.266 31.087 163.573C30.4739 163.893 30.295 166.555 31.8024 166.107C34.6639 165.275 35.622 161.999 38.5601 160.463C42.2391 163.56 40.7701 168.027 40.5018 172.865C44.0787 174.58 48.0898 174.772 52.4076 175.233C50.402 179.252 46.5569 179.508 41.2044 178.471C40.6296 184.538 40.5401 190.336 41.2427 196.851C43.5294 193.766 41.0256 190.195 42.5202 186.816C42.8779 186.01 45.8799 186.33 45.982 187.175C46.1609 188.493 45.1262 190.234 46.7613 191.578C46.7485 189.607 50.6575 184.602 53.2124 187.047C57.8495 191.475 57.6068 201.126 54.4132 206.22C52.6248 209.061 48.2815 205.605 46.4292 205.042L46.4419 205.03ZM34.2551 195.366C34.6383 191.795 34.6 190.17 34.3062 187.712C31.8535 188.711 31.8024 190.349 31.8918 192.243C31.9685 194.009 31.3936 196.134 34.2551 195.366ZM52.3565 192.883H49.8016V201.817H52.3565V192.883Z" fill="black"/>
<path d="M63.2536 258.095C68.4528 261.986 75.4659 264.482 81.1633 261.243C82.4791 260.501 82.0959 256.38 80.9462 255.689C79.6304 254.908 77.4332 254.69 74.3546 253.871C75.1338 250.556 79.5027 251.145 82.0576 251.964C85.0085 252.924 86.9246 255.906 86.9246 258.556C86.9246 262.37 84.8552 264.917 81.4444 266.657C73.141 270.907 62.717 262.242 55.7166 257.365C53.4428 256.713 49.1506 259.528 46.1997 257.468C43.7981 255.791 43.8875 250.403 45.9186 248.508C48.4097 246.192 52.8168 245.603 55.8188 247.766C56.4448 246.217 56.6364 244.515 55.4995 244.029C54.1582 243.44 47.7965 242.851 47.2983 241.955C46.5957 240.662 47.9114 238.576 48.2691 236.938C41.6009 233.623 38.7011 226.097 40.8855 218.584C42.3929 213.4 45.7781 207.449 52.2803 208.46C55.7294 208.997 58.3609 214.565 56.9558 217.074C54.5286 215.422 52.6891 211.634 49.6232 211.762C45.8803 216.882 44.8073 224.459 49.0867 230.129C50.7346 227.287 48.9717 222.552 52.1909 221.003C54.0304 220.12 55.4611 221.63 54.9502 223.563C54.6308 224.74 54.7969 225.841 55.0268 226.622C55.6272 228.708 62.0272 226.161 62.4871 228.004C64.3649 235.466 55.4101 234.66 52.8041 239.267C55.9083 240.778 58.7697 239.728 59.9833 242.109C63.9306 249.852 55.6144 252.399 63.2536 258.12V258.095ZM50.4408 249.033L47.2472 252.22L51.0795 256.047L54.2731 252.86L50.4408 249.033Z" fill="black"/>
<path d="M347.599 148.176C342.196 145.565 349.273 155.561 347.676 158.236C346.526 160.156 345.594 164.175 342.643 163.228C340.791 162.626 340.318 160.028 338.108 159.618C336.269 161.359 331.925 163.752 329.971 161.858C326.867 158.85 331.044 155.996 332.347 154.012C334.34 150.966 333.254 146.281 337.61 144.976C345.441 142.621 336.447 137.258 340.216 134.404C341.212 133.649 343.588 132.074 344.764 133.636C347.395 137.105 347.088 140.509 345.607 144.592C350.359 144.49 349.886 140.189 351.112 136.644C356.759 135.978 355.379 160.847 353.003 163.765C347.357 158.441 351.904 150.275 347.561 148.176H347.599Z" fill="black"/>
<path d="M334.723 190.925C333.458 187.213 335.643 184.295 333.624 181.364C332.372 185.907 334.403 190.694 330.763 194.854C326.47 196.62 327.595 171.79 329.702 171.022C332.794 171.508 334.582 174.324 336.179 177.614L343.537 170.561C345.964 173.467 345.939 176.526 345.913 179.93C347.344 180.263 348.34 180.314 349.707 179.828C349.937 176.628 348.966 171.713 352.185 169.985C356.542 167.656 354.625 191.949 354.549 192.537C354.447 193.382 351.572 192.883 350.997 192.384C348.481 190.157 352.479 188.698 350.448 185.203C349.937 184.307 347.484 182.823 347.255 184.973C347.012 187.251 347.331 188.851 346.603 190.349C346.105 191.373 343.294 192.448 342.387 191.181C341.072 188.032 343.805 184.039 340.165 181.223C338.274 182.554 341.148 188.211 338.261 191.053C337.597 191.718 335.208 192.307 334.736 190.912L334.723 190.925Z" fill="black"/>
<path d="M45.2661 134.058C52.7008 134.148 52.6625 158.466 45.2661 158.556C36.8605 158.658 37.0266 144.822 40.0158 137.271C41.0122 134.762 43.2477 134.02 45.2661 134.045V134.058ZM45.7387 146.87C46.122 143.299 46.0837 141.674 45.7898 139.216C43.3371 140.215 43.2861 141.853 43.3755 143.747C43.4521 145.513 42.8773 147.638 45.7387 146.87Z" fill="black"/>
<path d="M99.5697 95.8909C98.586 95.0461 97.4108 92.3839 98.7138 91.36C99.8252 90.4768 101.371 90.8352 102.316 90.3488C103.402 89.7857 103.696 88.2882 103.402 86.9571C104.181 86.3811 106.289 86.8675 107.464 87.2387C108.346 87.5202 108.537 89.1585 109.598 90.3616C111.386 88.8769 111.335 86.5987 111.948 84.858C109.585 83.9621 107.464 84.346 109.125 83.1301C109.342 82.9765 112.165 80.1351 112.331 79.8919C115.704 75.1307 115.793 99.3211 107.86 99.8458C105.523 99.9994 104.858 97.5932 104.398 94.867C102.482 94.867 101.154 96.1085 99.5697 95.9037V95.8909Z" fill="black"/>
<path d="M213.149 38.4609C214.72 40.3936 216.112 41.6991 215.461 42.659L213.762 45.1293C215.001 46.7164 215.078 47.3947 214.643 48.4059C213.915 50.1337 212.625 50.3769 210.734 49.7114C209.559 49.289 208.46 48.777 207.477 48.8282C205.343 48.9306 205.535 54.8182 203.478 54.959C201.69 55.087 199.991 55.8038 198.535 53.7943C201.677 51.3881 201.754 48.4827 201.869 44.9757L210.402 44.6429C210.773 41.8783 210.594 38.8705 213.136 38.4609H213.149Z" fill="black"/>
<path d="M179.424 55.7533C178.491 56.534 176.652 56.5852 175.527 56.2524C174.48 55.9453 174.659 53.2574 174.978 51.8879C175.566 49.3793 181.276 53.411 182.515 51.9391C185.313 48.573 178.836 48.6881 181.825 44.7844C182.758 43.5557 186.641 42.6086 186.335 44.6308L185.607 49.5841C186.948 50.1089 188.557 50.0577 188.762 50.8256C188.992 51.6575 189.171 53.7182 188.838 54.4606C187.702 57.0332 183.397 52.4127 179.436 55.7533H179.424Z" fill="black"/>
<path d="M262.93 65.2629C262.675 67.8611 263.633 70.4849 262.24 73.3903C259.788 72.2384 259.008 70.8177 257.59 70.3697C256.338 70.6641 255.994 70.2417 256.556 69.0898C252.366 66.9523 250.207 62.7542 250.168 58.8761C251.599 57.1866 253.707 58.2617 255.342 59.5288C257.156 60.9239 255.087 65.8004 257.22 66.5428C257.859 66.7604 258.881 66.274 259.34 65.634C260.848 63.5734 261.819 65.0837 262.93 65.2501V65.2629Z" fill="black"/>
<path d="M49.3788 123.908C49.2766 127.774 45.342 129.809 41.0626 128.964C38.7504 128.503 36.9875 127.607 36.9492 125.854C36.9109 123.908 36.7704 121.745 38.2778 120.696C39.5041 119.838 42.7105 119.646 43.1831 120.721L40.8326 125.073C43.5792 125.79 44.8438 124.548 49.3915 123.921L49.3788 123.908Z" fill="black"/>
<path d="M337.061 232.944C336.806 236.349 334.059 235.171 333.076 234.403C331.594 233.252 329.793 220.708 335.094 221.617C338.3 222.167 337.368 228.951 337.061 232.944Z" fill="black"/>
<path d="M275.118 232.317C274.849 237.373 267.555 234.698 264.809 231.242C263.723 229.886 266.725 226.097 268.411 226.596C270.327 227.159 273.879 230.359 275.118 232.317Z" fill="black"/>
<path d="M218.744 54.1915C219.178 55.2027 218.207 57.5577 217.492 57.5449C217.083 57.5449 211.335 55.8426 210.619 55.6634C209.495 55.3947 208.371 52.3357 209.738 51.6829C212.459 50.3774 217.581 51.4397 218.744 54.1915Z" fill="black"/>
<path d="M302.467 143.76C302.76 146.397 302.952 150.659 301.304 152.732C300.755 153.423 299.056 153.628 298.826 152.758C296.693 144.976 300.18 152.144 298.762 143.402C299.835 142.762 302.364 142.826 302.479 143.76H302.467Z" fill="black"/>
<path d="M123.024 83.7187C122.27 84.8451 121.785 86.4578 120.571 86.9313C119.115 87.4945 118.106 85.5874 116.764 84.4227C115.755 83.5523 120.507 77.9591 122.589 79.879C123.739 80.9413 124.276 81.8629 123.024 83.7187Z" fill="black"/>
<path d="M278.248 236.272L279.525 237.309C279.589 238.806 279.793 240.649 278.35 242.083C277.315 243.12 275.539 242.121 274.147 241.456C272.397 243.491 271.579 242.685 273.048 240.253C273.151 239.05 273.457 237.616 274.466 236.938C275.59 236.183 276.996 236.221 278.235 236.272H278.248Z" fill="black"/>
<path d="M273.048 240.253C273.073 240.918 273.623 241.213 274.146 241.456C274.466 243.03 274.619 245.168 272.498 246.422C271.17 247.216 270.276 245.245 268.653 244.08C267.478 243.235 268.372 241.482 269.611 240.227C270.442 239.383 271.694 239.306 273.048 240.24V240.253Z" fill="black"/>
<path d="M285.809 215.857C284.072 217.342 282.258 217.624 280.789 216.587C278.834 215.205 279.78 214.117 280.457 212.376C281.223 210.379 282.858 210.098 284.672 211.327C286.116 212.299 285.886 214.13 285.809 215.857Z" fill="black"/>
<path d="M262.931 65.2628C263.033 64.162 262.509 62.5366 263.161 61.1926C263.684 60.1303 265.371 59.2984 266.763 58.876C267.338 60.7319 270.123 62.0118 269.254 63.3685C267.977 65.3652 265.626 65.6723 262.943 65.25L262.931 65.2628Z" fill="black"/>
<path d="M256.543 69.0902C256.811 69.231 256.951 69.871 257.577 70.3701C257.948 72.4052 256.747 74.4915 254.626 74.2739C252.94 74.0947 251.803 72.8788 250.219 71.0101C251.535 68.783 254.141 68.8982 256.53 69.103L256.543 69.0902Z" fill="black"/>
<path d="M359.492 162.6C361.179 164.507 359.096 166.248 358.087 167.426C357.078 168.603 354.6 169.435 353.795 168.091L355.519 163.548C356.005 162.255 358.483 161.461 359.492 162.6Z" fill="black"/>
<path d="M170.009 51.8752C171.248 51.376 173.65 52.4383 173.599 53.4623C173.535 54.7422 173.995 57.6476 172.883 57.5964C171.069 57.5068 168.629 58.0956 168.553 56.9308C168.451 55.3949 167.595 52.8607 169.996 51.8752H170.009Z" fill="black"/>
<path d="M259.098 236.272C259.06 235.223 258.6 232.829 259.762 232.561C260.925 232.292 263.288 231.908 264.093 233.06C264.77 234.02 264.31 235.94 263.007 236.848C262.177 237.437 260.848 237.539 259.098 236.26V236.272Z" fill="black"/>
<path d="M259.097 236.272C259.174 238.333 257.322 239.498 256.543 241.379C254.946 241.136 253.937 239.613 253.873 238.192C253.822 236.989 254.729 235.709 255.955 235.095C256.747 234.698 258.331 235.722 259.097 236.272Z" fill="black"/>
<path d="M183.793 36.375C185.295 36.375 186.514 35.1602 186.514 33.6616C186.514 32.163 185.295 30.9482 183.793 30.9482C182.29 30.9482 181.072 32.163 181.072 33.6616C181.072 35.1602 182.29 36.375 183.793 36.375Z" fill="black"/>
<path d="M93.4524 122.475L97.0165 124.612L93.9762 129.681L90.4121 127.531L93.4524 122.475Z" fill="black"/>
<path d="M218.334 189.645C219.79 191.386 222.358 189.299 224.785 190.95C217.21 198.169 207.029 186.227 197.844 183.591C199.006 180.813 198.444 177.204 200.118 174.811C203.682 169.704 209.711 168.923 215.843 168.411C221.975 167.899 229.818 171.918 229.001 178.407C228.745 180.429 225.781 181.735 226.254 185.05C226.625 187.571 220.442 188.186 218.334 189.658V189.645ZM214.578 183.527C211.461 182.004 209.009 180.212 207.693 176.257C207.105 176.59 205.215 177.895 205.419 178.817C207.246 182.029 210.503 184.756 214.578 183.527Z" fill="black"/>
<path d="M202.904 237.296C195.904 235.082 186.489 237.949 185.326 234.455C186.821 233.52 186.795 230.653 186.68 228.977C189.631 227.21 194.665 230.794 197.411 226.89C195.137 223.742 178.467 230.794 177.47 225.367C176.474 219.94 177.764 224.651 188.788 220.747C187.204 216.817 187.473 216.587 190.283 213.733C186.361 211.698 183.244 212.427 178.965 211.288C178.965 207.666 180.638 202.406 183.104 200.921C186.463 200.908 183.832 205.055 184.394 206.181C187.37 212.21 200.745 208.14 202.891 203.494C205.318 202.508 205.906 207.282 205.663 208.831C204.897 213.797 194.256 210.495 191.267 215.64C191.113 218.264 192.34 219.198 193.413 216.613C194.716 215.205 195.559 216.677 196.057 217.253C196.67 217.957 196.989 219.851 196.44 220.465C195.635 221.361 193.068 220.222 191.42 221.668C196.287 224.19 200.962 219.237 206.749 221.54C207.694 221.912 208.576 223.921 207.976 225.342C207.656 226.11 202.47 226.404 200.502 230.845C199.647 232.791 201.754 233.29 202.904 237.334V237.296Z" fill="black"/>
<path d="M168.668 193.613L177.508 186.522C171.964 187.469 164.708 189.965 160.697 185.255C158.461 182.618 158.589 178.126 153.492 176.347C159.828 170.446 167.774 166.786 175.72 169.397C177.853 170.101 180.74 173.416 182.631 175.003C185.658 177.55 183.257 183.079 182.49 186.33C180.651 192.115 176.001 195.712 168.655 193.613H168.668Z" fill="black"/>
<path d="M187.216 197.67C183.319 188.723 191.814 175.374 184.06 169.717C169.587 159.132 155.305 174.26 151.217 167.208L168.82 158.735C174.901 160.066 184.226 161.436 188.736 167.195C193.028 172.686 191.431 191.872 187.216 197.657V197.67Z" fill="black"/>
<path d="M234.992 173.748C207.897 150.761 202.877 179.674 195.289 167.886C199.479 164.507 204.818 162.715 210.375 160.744C221.042 156.981 232.156 162.523 234.979 173.748H234.992Z" fill="black"/>
<path d="M120.84 325.149L111.643 343.785C106.073 340.675 100.682 337.795 94.9727 333.418C103.978 324.087 112.729 316.024 124.251 309.342C126.218 315.089 123.204 320.362 120.84 325.149ZM110.033 335.913C113.15 328.989 118.119 325.085 118.95 317.777C112.665 321.975 108.015 326.34 102.867 332.023C105.409 333.686 106.584 335.478 110.033 335.913Z" fill="black"/>
<path d="M207.336 355.804C204.27 359.349 202.086 358.671 200.642 357.851C198.113 356.418 199.723 353.896 198.726 351.042C197.27 352.22 197.845 353.935 197.117 354.933C196.388 355.932 194.064 357.032 193.22 355.932C190.768 352.719 190.346 343.299 193.425 342.236C198.535 340.483 199.582 353.244 207.336 355.804Z" fill="black"/>
<path d="M193.591 334.39C194.153 337.526 189.184 338.857 187.076 338.486C184.764 338.077 180.88 337.616 180.139 334.723C179.769 333.29 182.196 332.074 182.464 331.306C177.367 330.704 177.623 321.502 180.446 321.067C181.762 324.497 182.388 327.121 186.501 327.057C186.335 329.156 184.38 329.079 183.831 330.653C187.242 330.768 192.748 329.693 193.604 334.39H193.591Z" fill="black"/>
<path d="M208.052 329.437C208.946 331.063 212.753 330.82 213.225 333.098C213.672 335.261 210.479 335.709 210.99 337.322C212.931 338.243 214.975 338.077 215.601 339.178C216.342 340.496 214.835 342.121 214.566 344.054C214.63 346.857 211.846 346.819 211.577 343.977C210.772 342.416 208.958 342.121 208.371 341.149C207.604 339.907 209.38 338.768 208.958 336.963C205.573 337.616 199.595 337.142 199.735 333.827C199.914 329.629 205.331 329.194 208.064 329.45L208.052 329.437Z" fill="black"/>
<path d="M179.079 303.852C171.529 299.909 174.646 304.888 171.069 299.41C169.894 297.618 167.39 302.879 166.534 302.431C165.806 302.06 164.72 301.202 164.631 300.537C164.529 299.807 165.257 298.156 165.895 297.452C169.293 293.612 173.841 297.798 177.086 297.836C179.717 297.874 182.132 295.442 184.891 297.337C186.948 298.745 187.676 304.133 184.508 303.698C183.23 303.519 183.064 300.933 182.502 300.498C181.634 299.807 179.705 299.525 179.079 303.852Z" fill="black"/>
<path d="M169.766 346.025C171.388 344.502 171.465 341.456 174.339 339.74C177.66 342.185 179.755 352.808 175.246 354.344C170.736 355.88 169.063 348.661 169.778 346.025H169.766Z" fill="black"/>
<path d="M188.877 361.23C189.49 365.134 184.38 366.452 181.876 366.516C179.628 366.567 173.816 364.904 175.08 361.333C177.048 357.224 186.232 358.363 188.877 361.23Z" fill="black"/>
<path d="M214.054 361.025C215.855 364.212 210.49 366.542 208.523 366.35C206.057 366.107 201.676 365.851 200.053 362.344C202.71 358.811 211.346 356.239 214.054 361.013V361.025Z" fill="black"/>
<path d="M191.84 358.338C193.603 356.507 197.487 357.173 198.483 358.722C199.658 360.565 199.786 364.392 197.908 365.812C196.414 366.939 193.335 366.926 191.432 365.838C189.528 364.75 189.515 360.757 191.84 358.338Z" fill="black"/>
<path d="M222.089 297.529C222.089 301.599 222.217 303.993 219.879 305.311C218.972 303.161 218.525 301.049 216.558 301.407C215.626 301.573 214.68 303.954 213.02 303.89C211.206 303.826 211.461 299.001 212.368 297.926C215.281 296.761 219.202 297.9 222.102 297.529H222.089Z" fill="black"/>
<path d="M208.459 304.543C207.45 304.645 206.99 302.572 206.594 301.97C206.173 301.317 204.435 300.921 203.63 301.42C202.826 301.919 203.426 304.044 202.302 304.978C200.871 306.168 199.76 303.25 199.53 301.957C199.236 300.396 201.497 298.438 203.286 297.913C205.828 297.17 208.434 296.748 209.66 299.039C210.426 300.46 211.921 304.172 208.459 304.53V304.543Z" fill="black"/>
<path d="M211.769 311.083C211.08 315.128 202.508 315.397 201.678 311.736C200.949 308.523 204.731 307.973 206.225 307.819C207.72 307.666 212.306 308.011 211.769 311.07V311.083Z" fill="black"/>
<path d="M162.638 302.034C159.764 300.716 160.301 298.54 158.295 297.158C157.554 298.783 154.463 301.356 153.684 299.794C151.742 295.916 156.009 293.74 158.346 294.124C163.175 294.931 165.015 296.211 162.638 302.034Z" fill="black"/>
<path d="M196.529 303.89C195.367 303.967 194.881 301.906 194.255 301.574C192.837 300.831 191.381 301.433 190.908 303.685C189.797 305.656 188.545 305.298 188.916 302.853C187.907 301.19 187.37 299.615 188.188 298.719C189.989 296.748 196.031 297.03 197.296 298.745C198.088 299.82 198.778 303.724 196.529 303.89Z" fill="black"/>
<path d="M173.164 308.626C174.033 309.944 173.688 311.531 173.522 312.184C173.254 313.259 166.841 313.464 165.206 311.621C164.133 310.418 164.12 307.781 166.368 306.808C168.425 305.925 171.708 306.424 173.152 308.626H173.164Z" fill="black"/>
<path d="M186.437 310.392C186.974 313.131 183.486 313.886 181.928 313.95C180.254 314.027 176.55 312.568 176.614 310.776C176.703 308.523 179.041 307.32 180.612 307.525C182.592 307.794 185.837 307.372 186.437 310.392Z" fill="black"/>
<path d="M199.94 311.032C197.372 315.665 192.467 314.833 189.03 312.043C188.072 310.648 191.355 308.714 192.735 308.253C194.868 307.537 197.87 307.691 199.94 311.032Z" fill="black"/>
<path d="M186.156 340.995C185.224 342.531 182.069 345.039 180.433 347.138C177.994 347.945 178.006 342.096 179.399 339.881C180.459 338.192 185.722 338.192 186.169 341.008L186.156 340.995Z" fill="black"/>
<path d="M190.307 353.077C190.831 356.623 188.863 358.376 186.832 358.479C185.35 358.555 181.544 357.467 182.783 355.42C183.409 354.396 185.67 355.01 186.347 354.357C188.365 352.412 186.794 348.764 189.54 349.839C190.447 350.197 190.013 351.17 190.307 353.077Z" fill="black"/>
<path d="M57.6577 293.216C59.2928 291.449 61.7583 292.204 63.2146 293.535C64.5431 294.751 63.2912 296.134 62.4864 298.028C62.001 299.18 59.0245 299.359 57.7216 298.258C56.789 297.465 55.716 295.315 57.6577 293.228V293.216Z" fill="black"/>
<path d="M74.406 297.836C72.9753 299.103 71.4935 299.193 70.216 298.271C68.5553 297.068 68.7853 295.775 70.1266 293.51C71.123 291.833 74.8404 291.475 76.5521 294.393C77.2292 295.545 75.543 296.838 74.406 297.836Z" fill="black"/>
<path d="M92.1491 282.861C93.3499 282.183 95.7131 283.885 96.4413 284.832C97.5143 286.227 95.0616 288.096 94.1036 288.954C92.5195 290.361 91.6636 289.03 90.5267 287.994C88.6872 286.33 89.3131 284.474 92.1618 282.861H92.1491Z" fill="black"/>
<path d="M70.8538 285.293C71.0965 287.405 68.9632 288.877 67.8263 289.389C66.8043 289.849 64.2111 288.851 63.8662 287.507C63.2658 285.165 64.952 283.923 65.974 283.629C67.4941 283.207 70.5855 282.925 70.8538 285.28V285.293Z" fill="black"/>
<path d="M78.0711 283.911C79.1186 283.309 82.0312 283.117 82.721 283.988C83.4492 284.909 83.7813 287.738 81.5458 288.774C80.2811 289.363 79.6679 290.208 77.7773 288.07C76.7298 286.88 75.9632 285.127 78.0582 283.911H78.0711Z" fill="black"/>
<path d="M52.6754 283.77C53.544 283.245 56.4566 283.258 57.1975 283.962C58.0534 284.755 58.0406 287.712 56.1117 288.723C55.0769 289.261 53.7356 290.515 52.5732 287.904C52.0877 286.816 50.146 285.28 52.6626 283.77H52.6754Z" fill="black"/>
<path d="M105.92 289.465C107.642 289.465 109.037 288.067 109.037 286.342C109.037 284.618 107.642 283.219 105.92 283.219C104.199 283.219 102.803 284.618 102.803 286.342C102.803 288.067 104.199 289.465 105.92 289.465Z" fill="black"/>
<path d="M83.0415 298.374C82.6966 295.251 82.8754 294.086 84.204 292.998C85.0598 292.307 87.7552 291.654 88.0107 293.395C88.3173 295.379 88.2407 296.671 87.4998 297.567C86.5672 298.706 84.9321 299.577 83.0287 298.374H83.0415Z" fill="black"/>
<path d="M64.1726 302.124C64.9646 300.524 67.5323 301.292 68.8608 301.829C70.3938 302.444 69.9595 303.928 68.8608 305.541C68.3499 306.283 67.5323 308.408 66.4209 307.128C65.3096 305.848 62.8313 304.876 64.1854 302.124H64.1726Z" fill="black"/>
<path d="M62.5627 277.114H56.5332V280.941H62.5627V277.114Z" fill="black"/>
<path d="M70.0622 277.191C70.8287 279.495 68.7976 281.005 67.0347 281.005C65.2718 281.005 63.4834 279.649 63.8538 277.255C65.77 276.974 66.8942 277.089 70.0622 277.191Z" fill="black"/>
<path d="M54.7439 277.191C55.5104 279.495 53.4793 281.005 51.7164 281.005C49.9535 281.005 48.1651 279.649 48.5355 277.255C50.4517 276.974 51.5759 277.089 54.7439 277.191Z" fill="black"/>
<path d="M40.8599 277.114C42.8399 277.434 45.6119 276.436 46.9022 277.485C48.1157 279.623 45.0754 281.722 42.9165 280.864C41.6774 280.378 40.4 278.842 40.8471 277.114H40.8599Z" fill="black"/>
<path d="M99.4177 277.191C100.184 279.495 98.153 281.005 96.3901 281.005C94.6273 281.005 92.8389 279.649 93.2093 277.255C95.1255 276.974 96.2496 277.089 99.4177 277.191Z" fill="black"/>
<path d="M114.401 277.626C115.96 278.317 113.814 280.532 112.894 280.903C111.591 281.428 108.436 280.66 108.755 278.343C108.972 276.794 112.064 276.59 114.401 277.626Z" fill="black"/>
<path d="M122.309 277.972C123.306 279.649 117.212 282.439 116.241 280.097C115.616 278.573 116.318 277.012 116.867 277.127C117.889 277.345 120.24 276.334 122.309 277.972Z" fill="black"/>
<path d="M85.5312 278.381C87.4475 277.537 90.1045 276.193 91.5735 277.575C92.9021 278.817 90.3729 281.274 88.7633 281.031C87.5242 280.852 85.9529 280.007 85.5312 278.381Z" fill="black"/>
<path d="M107.043 278.164C107.771 279.444 104.565 280.288 103.837 280.839C103.032 281.44 101.027 280.007 100.516 277.818C102.342 276.961 105.229 276.013 107.043 278.164Z" fill="black"/>
<path d="M130.139 279.175C126.115 281.671 123.943 281.261 123.841 280.288C123.714 279.008 123.356 277.255 124.889 277.089C127.686 276.781 129.373 277.332 130.139 279.175Z" fill="black"/>
<path d="M135.965 277.562C137.639 278.407 135.786 279.981 135.186 280.468C134.547 280.98 132.644 281.312 132.031 280.852C131.328 280.327 131.124 278.292 131.584 277.665C132.069 276.986 134.023 276.59 135.978 277.575L135.965 277.562Z" fill="black"/>
<path d="M75.9898 277.562C77.6504 278.407 75.8237 279.981 75.2233 280.455C74.4824 281.031 72.694 281.3 72.068 280.852C71.276 280.276 71.1866 278.305 71.6081 277.678C72.068 276.961 74.0608 276.577 76.0025 277.575L75.9898 277.562Z" fill="black"/>
<path d="M85.5308 278.381C83.934 279.252 83.1292 280.314 82.1966 280.877C81.3408 281.389 78.7348 279.738 79.2713 278.113C79.9739 275.962 84.3172 277.012 85.5436 278.381H85.5308Z" fill="black"/>
<path d="M273.137 307.743C273.175 311.07 272.409 313.195 271.962 315.397C267.631 317.534 263.824 318.302 259.047 317.931C259.123 320.503 260.759 321.719 260.363 324.292C257.935 324.612 255.994 322.846 255.202 321.284C254.652 320.196 253.886 318.2 255.163 316.689C258.28 312.978 263.467 312.709 267.631 312.683C268.423 311.851 268.385 309.24 267.274 308.997C265.69 310.303 263.403 310.879 262.994 309.624C262.624 308.498 262.713 306.821 263.876 306.028C267.069 303.852 270.748 305.516 273.137 307.73V307.743Z" fill="black"/>
<path d="M296.106 321.77C292.261 317.406 293.512 312.952 294.611 308.715L290.472 307.615C289.144 307.256 289.565 305.861 290.332 305.119C291.175 304.312 291.954 303.66 293.653 303.736C296.936 303.89 297.83 306.732 298.443 308.741C299.133 311.032 298.648 313.08 296.974 315.576C297.83 317.15 299.759 317.163 299.938 315.729C300.219 313.477 300.194 312.683 301.841 312.722C303.489 312.76 303.898 313.195 303.885 315.435C303.885 318.136 303.093 320.196 301.19 321.156C299.619 321.95 297.83 321.898 296.118 321.77H296.106Z" fill="black"/>
<path d="M273.138 307.743C273.138 306.885 274.39 305.336 275.22 305.247C276.204 305.144 277.685 306.412 278.72 307.589C282.834 302.444 273.751 304.85 272.499 298.937C272.116 297.145 273.304 292.742 275.437 292.576C279.717 292.243 276.689 297.004 277.468 298.335C278.886 300.742 282.936 301.305 283.255 303.609C283.741 306.962 283.204 310.635 279.333 311.467C276.689 312.043 275.067 309.547 273.112 307.743H273.138Z" fill="black"/>
<path d="M334.225 277.102C333.433 285.421 330.865 276.82 316.289 280.711C314.986 281.057 313.339 278.689 314.105 277.166L334.225 277.114V277.102Z" fill="black"/>
<path d="M315.496 282.9C317.566 282.08 319.328 284.282 319.265 285.549C319.188 287.392 318.511 289.453 317.067 289.837C315.062 290.374 313.248 289.235 312.762 287.84C312.239 286.342 313.158 283.808 315.483 282.9H315.496Z" fill="black"/>
<path d="M312.623 297.798C309.902 299.09 308.203 299.641 307.296 297.145C306.772 295.711 306.07 295.033 308.599 293.267C309.979 292.307 311.486 291.936 312.751 292.985C314.015 294.035 315.114 296.62 312.623 297.798Z" fill="black"/>
<path d="M328.846 289.696C327.364 290.067 325.997 289.12 325.537 287.866C324.924 286.214 326.01 284.32 327.901 282.925C328.999 282.119 331.503 283.271 331.835 284.397C332.461 286.509 331.656 288.992 328.846 289.683V289.696Z" fill="black"/>
<path d="M289.615 281.76L294.687 284.807L290.969 291.001L285.898 287.955L289.615 281.76Z" fill="black"/>
<path d="M302.915 282.656C304.729 282.682 306.786 283.872 306.454 285.459C306.058 287.341 304.665 288.608 303.695 289.338C301.778 290.758 300.322 288.787 299.952 287.558C299.39 285.69 300.079 282.605 302.915 282.656Z" fill="black"/>
<path d="M319.215 305.708C316.469 307.871 315.332 307.474 313.825 305.912C312.24 304.261 313.454 302.917 315.23 301.215C316.801 299.692 317.785 300.806 318.743 301.049C321.119 301.663 321.08 304.236 319.215 305.708Z" fill="black"/>
<path d="M323.212 298.399C325.061 298.399 326.559 296.898 326.559 295.046C326.559 293.194 325.061 291.693 323.212 291.693C321.364 291.693 319.865 293.194 319.865 295.046C319.865 296.898 321.364 298.399 323.212 298.399Z" fill="black"/>
<path d="M289.565 277.191C290.331 279.495 288.3 281.005 286.537 281.005C284.774 281.005 282.986 279.649 283.356 277.255C285.272 276.974 286.397 277.089 289.565 277.191Z" fill="black"/>
<path d="M312.534 277.178C313.313 279.508 311.282 280.954 309.506 281.018C307.948 281.082 305.508 279.38 306.619 277.434C307.641 276.577 309.66 277.255 312.534 277.178Z" fill="black"/>
<path d="M304.881 277.178C305.66 279.508 303.629 280.954 301.853 281.018C300.295 281.082 297.855 279.38 298.966 277.434C299.975 276.577 302.006 277.255 304.868 277.178H304.881Z" fill="black"/>
<path d="M297.218 277.14C297.614 279.521 295.991 281.018 294.203 281.031C292.644 281.044 290.153 279.367 291.354 277.447C292.287 276.526 294.331 277.306 297.218 277.14Z" fill="black"/>
<path d="M341.889 277.178C342.668 279.508 340.637 280.941 338.861 281.018C337.316 281.082 334.825 279.354 336 277.46C336.933 276.538 339.04 277.281 341.876 277.178H341.889Z" fill="black"/>
<path d="M256.541 55.062C260.042 54.7548 262.29 56.5211 261.613 59.1705C261.089 61.1927 258.062 60.2456 257.116 58.9785C256.299 57.8778 256.516 56.5083 256.541 55.0747V55.062Z" fill="black"/>
<path d="M142.288 304.133C139.005 304.274 138.533 302.841 139.21 300.767C139.58 299.654 141.049 298.694 142.965 298.655C144.715 298.617 146.299 299.577 146.708 300.78C147.334 302.649 145.073 304.005 142.288 304.121V304.133Z" fill="black"/>
<path d="M502.783 93.9994L478.895 93.6454C476.353 98.794 476.171 104.147 473.286 108.834C472.202 110.593 467.032 109.939 465.348 108.866L486.297 54.4087C488.817 53.6257 491.896 53.6471 494.545 54.4302L516.866 109.338C514.56 110.035 511.836 109.445 508.232 109.81C506.151 104.897 504.338 100.489 502.772 93.9994H502.783ZM499.779 86.8557L490.276 62.6787L481.234 86.7699C487.873 87.5207 493.977 87.3384 499.779 86.8664V86.8557Z" fill="black"/>
<path d="M595.438 109.725C591.009 103.751 583.232 86.1594 575.938 86.1594H564.128V109.511C561.436 109.8 559.312 109.854 556.609 109.478V54.0127L586.31 54.2916C594.72 54.3667 600.405 61.1457 600.759 68.4717C601.166 76.8704 596.2 83.4027 587.115 84.3895C588.885 87.7147 591.309 88.4548 592.811 90.6751L605.328 109.296C601.778 110.09 599.332 109.5 595.449 109.714L595.438 109.725ZM593.089 69.5551C593.089 65.6614 589.947 61.6284 585.56 61.6069L564.139 61.4997V78.7153C572.634 77.7714 593.122 82.4052 593.089 69.5444V69.5551Z" fill="black"/>
<path d="M652.568 54.0703H645.07V109.686H652.568V54.0703Z" fill="black"/>
<path d="M737.083 94.8288C735.807 105.984 724.758 110.95 714.922 110.693C703.134 110.382 692.924 103.334 692.312 91.2784C695.069 91.3213 697.385 91.3856 699.992 90.1628C700.828 98.6902 706.47 103.613 714.901 103.088C719.202 102.82 723.643 103.528 727.183 99.9881C729.435 97.7463 730.186 90.9673 727 88.9722C716.456 82.3756 695.155 84.8748 694.565 68.721C694.404 64.3232 697.397 59.3248 700.776 57.1474C707.855 52.5887 715.17 52.0953 722.807 54.4014C730.434 56.6969 736.022 62.5212 735.185 70.8234C733.029 70.6517 729.768 71.896 728.298 70.3836C726.55 68.5923 727 64.881 724.694 63.2292C716.896 57.63 703.714 60.1614 703.102 66.254C702.094 76.4439 708.841 74.052 724.769 79.2864C731.248 81.4102 738.016 86.7626 737.094 94.8502L737.083 94.8288Z" fill="black"/>
<path d="M803.961 109.343C800.968 110.105 798.415 109.708 795.337 109.536V61.6214C789.459 61.1066 784.182 62.2221 778.379 61.1709C776.459 60.8169 776.394 54.4348 778.422 54.4134L821.992 53.9629C822.314 56.8482 822.26 58.8219 822.035 61.5356L803.907 61.5892L803.961 109.343Z" fill="black"/>
<path d="M912.007 96.9793C907.802 105.368 899.039 109.916 891.209 110.527C881.973 111.235 872.448 107.545 867.407 99.8647C857.357 84.569 861.508 62.8269 877.458 55.7046C886.886 51.4892 897.634 52.3151 905.914 59.3945C916.33 68.2973 918.432 84.2043 912.018 96.99L912.007 96.9793ZM901.034 99.382C906.901 93.7185 908.36 85.6631 907.523 77.9509C906.268 66.3665 896.99 58.9976 886.114 60.3813C874.443 61.8615 869.81 71.4186 870.003 82.7563C870.164 92.8068 875.184 102.557 886.532 103.115C891.541 103.362 897.29 102.997 901.034 99.382Z" fill="black"/>
<path d="M982.312 109.329C979.32 110.101 976.777 109.694 973.688 109.544L973.71 61.5971L955.614 61.5435C955.346 58.8512 955.282 56.8454 955.657 53.9707L999.206 54.4212C1001.21 54.4427 1001.16 60.8355 999.238 61.1788C993.435 62.23 988.169 61.1144 982.259 61.6186L982.312 109.34V109.329Z" fill="black"/>
<path d="M1075.42 103.258C1076.25 105.478 1075.89 107.43 1075.63 109.758L1040.44 109.736V54.357C1043.36 53.8422 1045.77 53.7993 1048.87 54.7861L1049.04 103.301L1075.42 103.258Z" fill="black"/>
<path d="M1154.16 85.1014H1124.29V103.283H1158.39C1158.73 105.61 1158.74 107.38 1158.39 109.718H1115.68L1115.85 54.2741L1156.27 54.0381C1156.62 56.8055 1156.6 58.8757 1156.29 61.5894H1124.32V77.6252H1154.16C1154.45 80.0064 1154.45 81.7012 1154.19 85.1121L1154.16 85.1014Z" fill="black"/>
<path d="M501.968 129.729C504.392 128.956 506.676 129.321 509.497 129.546L509.133 167.528C509.036 177.697 500.938 184.111 491.552 185.452C479.442 187.179 466.067 181.472 465.884 168.322L465.348 129.568C468.234 129.182 470.314 129.203 472.889 129.536L473.307 164.418C473.339 167.475 474.069 171.99 476.321 174.221C481.963 179.81 492.067 179.928 498.074 174.801C500.723 172.548 501.506 167.721 501.549 164.428L501.957 129.718L501.968 129.729Z" fill="black"/>
<path d="M587.664 184.93C585.186 185.605 581.625 185.777 579.298 185.048L551.356 143.462L551.195 185.176C548.535 185.498 546.39 185.53 543.697 185.155L543.729 129.904C546.218 129.85 549.876 128.874 551.763 130.129L578.944 170.514L579.105 129.818C582.129 129.582 584.618 129.561 587.664 129.818V184.908V184.93Z" fill="black"/>
<path d="M629.361 129.699H621.863V185.314H629.361V129.699Z" fill="black"/>
<path d="M706.297 130.135C709.257 129.116 711.831 129.631 714.716 129.867L692.899 184.849C690.732 185.815 687.536 185.568 684.876 184.882L663.562 130.049C665.805 129.298 668.615 129.459 671.811 129.92L688.587 177.341L706.297 130.135Z" fill="black"/>
<path d="M787.402 159.711H757.551V177.827L790.555 178.235C792.411 178.257 792.443 183.802 790.909 185.078L749.141 185.25L748.916 129.763H789.504C789.869 132.091 789.858 133.861 789.515 136.188H757.561V153.297H787.38C787.692 155.302 787.691 156.675 787.402 159.711Z" fill="black"/>
<path d="M866.506 184.993C861.668 179.876 859.18 173.569 855.018 168.249C847.595 158.756 848.539 160.784 834.842 160.655L834.52 184.607C831.592 185.529 829.114 185.486 826.207 185.014V129.602L857.474 129.645C865.358 129.645 871.343 137.626 871.161 144.994C870.957 153.114 864.157 159.228 856.283 159.872C864.553 164.86 870.507 177.27 875.526 185.057C872.866 185.003 869.284 185.915 866.516 185.003L866.506 184.993ZM855.533 152.921C861.003 152.846 863.02 148.03 862.923 144.04C862.623 132.155 844.034 137.089 834.82 135.984V153.189L855.533 152.921Z" fill="black"/>
<path d="M948.255 181.489C943.053 186.08 935.609 186.691 929.323 186.144C918.372 185.189 909.845 178.013 909.727 167.083C911.636 166.054 915.401 165.635 916.892 167.212C918.715 169.143 918.19 172.768 920.324 174.592C926.631 179.987 935.856 180.942 943.107 176.705C945.938 175.042 946.893 171.191 946.271 168.628C943.986 159.382 927.65 161.913 918.211 155.445C914.425 152.85 911.614 148.366 911.668 144.504C911.732 140.085 913.663 135.677 917.6 132.995C926.202 127.139 938.087 127.267 946.325 133.424C950.561 136.589 952.664 140.858 951.999 145.92C949.414 146.242 947.29 146.285 944.608 145.877C944.276 139.141 939.192 135.848 932.767 136.363C929.463 136.631 926.224 135.859 923.499 137.79C920.775 139.721 919.616 141.523 919.713 144.462C920.088 155.756 950.99 148.988 954.144 167.137C955.109 172.672 952.793 177.499 948.266 181.499L948.255 181.489Z" fill="black"/>
<path d="M997.195 183.81C994.868 186.159 991.682 185.397 988.561 185V129.781C991.628 129.502 994.095 129.502 997.152 129.781L997.195 183.81Z" fill="black"/>
<path d="M1058.32 183.794C1055.96 186.122 1052.83 185.36 1049.69 184.974L1049.71 136.073L1031.63 136.019C1031.34 133.724 1031.28 131.933 1031.67 129.605H1076.3C1076.68 131.933 1076.63 133.724 1076.34 136.019L1058.26 136.073L1058.32 183.794Z" fill="black"/>
<path d="M1161.11 130.047L1138.77 161.85L1138.82 185.169C1136.2 185.437 1133.73 185.588 1131.6 185.051L1130.78 161.872L1110.77 130.015C1113.72 129.232 1116.35 129.8 1119.67 129.8L1135.26 154.342L1151.9 129.865C1154.82 129.618 1157.23 129.35 1161.12 130.047H1161.11Z" fill="black"/>
<path d="M465.483 236.551C463.959 218.649 475.415 203.707 493.285 204.33C508.935 204.866 518.663 217.351 518.975 232.937C519.275 247.953 509.267 260.675 494.486 261.855C479.319 263.067 466.802 252.061 465.483 236.541V236.551ZM491.794 254.593C499.013 254.668 505.223 252.104 508.634 245.132C512.346 237.538 512.217 227.691 507.894 220.151C504.794 214.755 499.485 211.816 494.315 211.473C488.598 211.087 482.301 212.642 478.129 217.48C472.53 223.969 472.422 235.039 474.997 242.966C477.571 250.903 484.146 254.507 491.794 254.593Z" fill="black"/>
<path d="M560.783 228.746C563.11 230.805 562.928 234.077 561.04 236.233L535.512 236.319V260.753C532.809 261.043 530.674 261.107 527.982 260.721V205.288L565.363 205.266C565.653 207.98 565.642 210.071 565.374 212.775H535.523V228.81L560.783 228.746Z" fill="black"/>
<path d="M618.31 260.579C615.318 261.351 612.775 260.944 609.686 260.794L609.708 212.847L591.613 212.793C591.344 210.101 591.28 208.095 591.655 205.221L635.204 205.671C637.21 205.693 637.156 212.086 635.236 212.429C629.433 213.48 624.167 212.364 618.257 212.869L618.31 260.59V260.579Z" fill="black"/>
<path d="M688.792 260.519C686.218 261.442 683.933 260.916 681.252 260.809L681.23 235.259H653.395L653.374 260.841C650.306 261.045 647.861 261.109 644.793 260.809V205.558C647.678 205.043 650.199 205.011 653.084 205.965L653.417 227.793H681.219L681.241 205.472C683.922 205.193 686.068 205.129 688.749 205.504L688.781 260.53L688.792 260.519Z" fill="black"/>
<path d="M735.355 236.341H705.482V254.522H738.519C738.862 256.849 738.873 258.619 738.509 260.958H696.891V205.32L737.457 205.299C737.811 208.002 737.79 210.104 737.468 212.807H705.504V228.843H735.344C735.634 231.224 735.634 232.919 735.366 236.33L735.355 236.341Z" fill="black"/>
<path d="M785.054 257.487C776.923 263.226 766.079 263.022 757.219 259.161C751.073 256.479 747.48 250.247 746.879 243.189C749.174 242.095 751.566 242.278 754.28 241.645C755.235 251.009 762.142 255.278 770.831 254.345C774.188 253.98 777.309 254.613 780.087 252.317C782.093 250.666 784.925 247.383 783.413 243.575C779.744 234.351 762.014 238.041 752.435 228.612C748.574 224.815 748.348 218.54 750.612 213.596C752.693 209.048 757.798 206.184 763.236 204.961C774.799 202.365 789.559 207.524 789.655 220.868C788.958 222.702 783.445 223.013 782.372 221.318C780.495 218.358 780.441 214.55 776.698 212.931C771.024 210.463 763.944 210.775 758.828 214.464C756.683 216.009 756.672 219.13 756.972 221.318C757.305 223.753 759.772 225.287 762.625 226.07L780.988 231.133C786.695 232.71 790.406 237.419 791.071 242.213C791.865 247.973 790.395 253.712 785.054 257.487Z" fill="black"/>
<path d="M838.009 257.029C831.337 262.521 823.142 262.553 815.227 261.051C805.841 259.282 799.652 252.299 799.373 242.667C802.076 242.591 803.996 242.077 806.678 241.701C807.664 250.572 813.521 255.034 821.984 254.433C826.468 254.122 831.241 254.573 834.437 250.647C836.132 248.566 836.357 245.327 835.435 242.559C832.603 234.032 803.706 238.333 801.593 221.461C800.95 216.344 803.363 211.174 807.9 208.096C812.438 205.017 818.906 203.923 824.515 204.513C833.504 205.457 842.3 211.357 841.871 220.914C841.785 222.769 835.617 222.984 834.78 221.332C833.611 219.015 833.311 215.679 830.983 214.135C825.674 210.606 817.897 210.241 812.652 213.834C810.41 215.368 808.812 218.232 809.273 220.324C811.805 231.758 840.433 224.453 843.855 242.763C844.831 247.987 842.675 253.178 837.998 257.04L838.009 257.029Z" fill="black"/>
<path d="M889.202 244.857L866.323 244.964C863.952 250.177 862.107 255.154 860.638 260.818C857.785 261.139 855.35 261.236 852.186 260.678L873.424 206.189C875.065 204.784 880.128 204.698 881.715 206.114L903.961 260.657C901.044 260.957 896.785 261.815 895.016 260.26L889.191 244.857H889.202ZM886.778 237.938L877.532 212.71C875.065 221.559 871.922 229.54 868.103 238.453C874.925 238.217 880.9 239.226 886.778 237.928V237.938Z" fill="black"/>
<path d="M947.04 254.485C947.887 256.705 947.513 258.657 947.255 260.985L912.062 260.964V205.509C914.776 205.187 916.856 205.198 919.581 205.509L919.56 254.549L947.029 254.506L947.04 254.485Z" fill="black"/>
<path d="M1004.23 250.792C997.464 261.207 984.013 264.06 973.233 260.274C962.11 256.369 955.556 245.225 955.663 232.868C955.771 220.908 961.756 210.171 972.557 206.127C983.359 202.084 996.488 205.066 1003.77 215.17C1011.09 225.328 1011.45 239.69 1004.23 250.792ZM985.364 254.331C996.37 253.291 1001.61 243.723 1001.1 233.984C1000.75 227.194 1000.39 219.964 994.664 215.674C988.936 211.383 982.64 210.225 976.161 212.66C959.986 218.752 961.488 239.164 968.202 248.593C971.774 253.613 978.575 254.975 985.364 254.342V254.331Z" fill="black"/>
<path d="M1062.69 260.696C1059.64 261.619 1057.13 260.868 1053.74 261.158L1026.44 220.012L1026.14 260.965C1023.14 261.136 1020.69 261.34 1017.56 260.836L1017.76 206.797C1019.1 204.995 1025.15 204.308 1026.45 206.25L1053.81 247.192L1054.08 205.66C1056.92 205.167 1059.39 205.134 1062.48 206.1L1062.7 260.696H1062.69Z" fill="black"/>
<path d="M1079.47 260.571C1076.45 261.386 1073.87 260.957 1070.8 260.796V205.545C1073.71 205.052 1076.15 205.009 1079.25 205.974L1079.47 260.571Z" fill="black"/>
<path d="M1109.5 227.88L1133.51 260.713C1130.38 261.218 1126.99 261.11 1123.24 260.842L1103.92 233.651C1101.04 236.751 1097.27 239.046 1095.58 242.211C1094.07 248.271 1095.76 254.546 1094.97 260.831C1092.49 261.153 1090.23 261.196 1087.57 260.81V205.527C1090.26 205.194 1092.41 205.248 1095.07 205.495L1095.24 232.364L1122.24 205.72C1124.86 204.754 1128.57 205.237 1132.03 205.827C1125.09 215.073 1118.82 217.798 1109.5 227.87V227.88Z" fill="black"/>
<path d="M1150.28 260.571C1147.25 261.386 1144.68 260.957 1141.61 260.796V205.545C1144.52 205.052 1146.95 205.009 1150.05 205.974L1150.28 260.571Z" fill="black"/>
<path d="M468.021 320.946V290.182H480.158C482.491 290.182 484.479 290.628 486.122 291.519C487.764 292.4 489.016 293.627 489.877 295.199C490.748 296.761 491.184 298.564 491.184 300.607C491.184 302.65 490.743 304.452 489.862 306.015C488.981 307.577 487.704 308.794 486.031 309.665C484.369 310.536 482.356 310.972 479.993 310.972H472.257V305.759H478.941C480.193 305.759 481.225 305.544 482.036 305.113C482.857 304.673 483.468 304.067 483.868 303.296C484.279 302.515 484.484 301.618 484.484 300.607C484.484 299.586 484.279 298.694 483.868 297.933C483.468 297.162 482.857 296.566 482.036 296.146C481.215 295.715 480.173 295.5 478.911 295.5H474.525V320.946H468.021ZM524.525 305.564C524.525 308.919 523.889 311.773 522.617 314.126C521.355 316.479 519.633 318.277 517.45 319.519C515.277 320.751 512.833 321.366 510.119 321.366C507.385 321.366 504.932 320.746 502.759 319.504C500.586 318.262 498.868 316.464 497.606 314.111C496.345 311.758 495.714 308.909 495.714 305.564C495.714 302.209 496.345 299.355 497.606 297.002C498.868 294.648 500.586 292.856 502.759 291.624C504.932 290.382 507.385 289.762 510.119 289.762C512.833 289.762 515.277 290.382 517.45 291.624C519.633 292.856 521.355 294.648 522.617 297.002C523.889 299.355 524.525 302.209 524.525 305.564ZM517.931 305.564C517.931 303.391 517.605 301.558 516.954 300.066C516.313 298.574 515.408 297.442 514.236 296.671C513.064 295.9 511.691 295.515 510.119 295.515C508.547 295.515 507.175 295.9 506.003 296.671C504.832 297.442 503.92 298.574 503.269 300.066C502.629 301.558 502.308 303.391 502.308 305.564C502.308 307.737 502.629 309.57 503.269 311.062C503.92 312.554 504.832 313.686 506.003 314.457C507.175 315.228 508.547 315.613 510.119 315.613C511.691 315.613 513.064 315.228 514.236 314.457C515.408 313.686 516.313 312.554 516.954 311.062C517.605 309.57 517.931 307.737 517.931 305.564ZM535.957 320.946L527.155 290.182H534.259L539.353 311.557H539.607L545.225 290.182H551.309L556.913 311.603H557.182L562.275 290.182H569.379L560.577 320.946H554.238L548.38 300.832H548.139L542.296 320.946H535.957ZM573.706 320.946V290.182H594.436V295.545H580.211V302.875H593.369V308.238H580.211V315.583H594.496V320.946H573.706ZM600.453 320.946V290.182H612.59C614.914 290.182 616.896 290.598 618.539 291.429C620.191 292.25 621.448 293.417 622.309 294.929C623.18 296.431 623.616 298.199 623.616 300.231C623.616 302.274 623.175 304.032 622.294 305.504C621.413 306.966 620.137 308.088 618.465 308.869C616.802 309.65 614.789 310.04 612.426 310.04H604.298V304.813H611.374C612.616 304.813 613.647 304.643 614.468 304.302C615.289 303.962 615.901 303.451 616.301 302.77C616.712 302.089 616.916 301.243 616.916 300.231C616.916 299.21 616.712 298.349 616.301 297.648C615.901 296.947 615.284 296.416 614.453 296.055C613.632 295.685 612.595 295.5 611.343 295.5H606.957V320.946H600.453ZM617.067 306.946L624.712 320.946H617.533L610.052 306.946H617.067ZM656.383 299.03C656.263 297.818 655.747 296.877 654.836 296.206C653.925 295.535 652.688 295.199 651.126 295.199C650.064 295.199 649.168 295.349 648.437 295.65C647.706 295.94 647.145 296.346 646.755 296.867C646.374 297.387 646.184 297.978 646.184 298.639C646.164 299.19 646.28 299.671 646.53 300.081C646.791 300.492 647.145 300.847 647.596 301.148C648.046 301.438 648.567 301.693 649.158 301.914C649.749 302.124 650.38 302.304 651.051 302.455L653.815 303.116C655.156 303.416 656.388 303.817 657.51 304.317C658.631 304.818 659.603 305.434 660.424 306.165C661.245 306.896 661.881 307.757 662.332 308.748C662.792 309.74 663.028 310.877 663.038 312.158C663.028 314.041 662.547 315.673 661.596 317.055C660.654 318.427 659.292 319.494 657.51 320.255C655.737 321.006 653.599 321.381 651.096 321.381C648.612 321.381 646.449 321.001 644.606 320.24C642.774 319.479 641.342 318.352 640.31 316.86C639.289 315.358 638.753 313.5 638.703 311.287H644.997C645.067 312.319 645.363 313.18 645.883 313.871C646.414 314.552 647.12 315.067 648.001 315.418C648.893 315.758 649.899 315.929 651.021 315.929C652.122 315.929 653.078 315.768 653.89 315.448C654.711 315.128 655.347 314.682 655.797 314.111C656.248 313.54 656.473 312.884 656.473 312.143C656.473 311.452 656.268 310.872 655.857 310.401C655.457 309.93 654.866 309.53 654.085 309.199C653.314 308.869 652.367 308.568 651.246 308.298L647.896 307.457C645.302 306.826 643.255 305.839 641.752 304.497C640.25 303.156 639.504 301.348 639.514 299.075C639.504 297.212 640 295.585 641.001 294.193C642.013 292.801 643.401 291.714 645.163 290.933C646.926 290.152 648.928 289.762 651.171 289.762C653.454 289.762 655.448 290.152 657.15 290.933C658.863 291.714 660.194 292.801 661.145 294.193C662.096 295.585 662.587 297.197 662.617 299.03H656.383ZM666.456 290.182H673.741L680.757 303.431H681.057L688.072 290.182H695.357L684.137 310.07V320.946H677.677V310.07L666.456 290.182ZM716.444 299.03C716.324 297.818 715.808 296.877 714.897 296.206C713.986 295.535 712.749 295.199 711.187 295.199C710.125 295.199 709.23 295.349 708.499 295.65C707.768 295.94 707.206 296.346 706.816 296.867C706.435 297.387 706.245 297.978 706.245 298.639C706.225 299.19 706.34 299.671 706.59 300.081C706.851 300.492 707.207 300.847 707.658 301.148C708.108 301.438 708.628 301.693 709.219 301.914C709.81 302.124 710.441 302.304 711.112 302.455L713.876 303.116C715.217 303.416 716.45 303.817 717.572 304.317C718.693 304.818 719.665 305.434 720.486 306.165C721.307 306.896 721.942 307.757 722.393 308.748C722.853 309.74 723.089 310.877 723.099 312.158C723.089 314.041 722.609 315.673 721.658 317.055C720.716 318.427 719.354 319.494 717.572 320.255C715.799 321.006 713.661 321.381 711.158 321.381C708.674 321.381 706.51 321.001 704.668 320.24C702.835 319.479 701.403 318.352 700.371 316.86C699.35 315.358 698.814 313.5 698.764 311.287H705.059C705.129 312.319 705.424 313.18 705.944 313.871C706.475 314.552 707.181 315.067 708.062 315.418C708.954 315.758 709.96 315.929 711.082 315.929C712.183 315.929 713.141 315.768 713.952 315.448C714.773 315.128 715.408 314.682 715.858 314.111C716.309 313.54 716.534 312.884 716.534 312.143C716.534 311.452 716.329 310.872 715.918 310.401C715.518 309.93 714.927 309.53 714.146 309.199C713.375 308.869 712.429 308.568 711.307 308.298L707.957 307.457C705.363 306.826 703.317 305.839 701.814 304.497C700.312 303.156 699.565 301.348 699.575 299.075C699.565 297.212 700.061 295.585 701.062 294.193C702.074 292.801 703.461 291.714 705.223 290.933C706.986 290.152 708.989 289.762 711.232 289.762C713.515 289.762 715.508 290.152 717.21 290.933C718.923 291.714 720.255 292.801 721.206 294.193C722.157 295.585 722.648 297.197 722.678 299.03H716.444ZM727.148 295.545V290.182H752.414V295.545H742.995V320.946H736.566V295.545H727.148ZM757.421 320.946V290.182H778.15V295.545H763.926V302.875H777.085V308.238H763.926V315.583H778.21V320.946H757.421ZM784.168 290.182H792.189L800.661 310.851H801.021L809.493 290.182H817.514V320.946H811.206V300.922H810.95L802.989 320.796H798.693L790.731 300.847H790.476V320.946H784.168V290.182ZM840.408 299.03C840.288 297.818 839.772 296.877 838.861 296.206C837.949 295.535 836.713 295.199 835.151 295.199C834.089 295.199 833.193 295.349 832.462 295.65C831.731 295.94 831.171 296.346 830.78 296.867C830.4 297.387 830.21 297.978 830.21 298.639C830.189 299.19 830.304 299.671 830.554 300.081C830.814 300.492 831.17 300.847 831.621 301.148C832.071 301.438 832.593 301.693 833.184 301.914C833.775 302.124 834.404 302.304 835.075 302.455L837.84 303.116C839.182 303.416 840.413 303.817 841.535 304.317C842.656 304.818 843.628 305.434 844.449 306.165C845.27 306.896 845.906 307.757 846.356 308.748C846.817 309.74 847.052 310.877 847.062 312.158C847.052 314.041 846.572 315.673 845.62 317.055C844.679 318.427 843.317 319.494 841.535 320.255C839.762 321.006 837.624 321.381 835.12 321.381C832.637 321.381 830.475 321.001 828.632 320.24C826.8 319.479 825.367 318.352 824.335 316.86C823.314 315.358 822.778 313.5 822.728 311.287H829.022C829.092 312.319 829.387 313.18 829.908 313.871C830.439 314.552 831.145 315.067 832.026 315.418C832.917 315.758 833.925 315.929 835.046 315.929C836.148 315.929 837.103 315.768 837.914 315.448C838.736 315.128 839.372 314.682 839.822 314.111C840.273 313.54 840.499 312.884 840.499 312.143C840.499 311.452 840.293 310.872 839.882 310.401C839.482 309.93 838.892 309.53 838.111 309.199C837.34 308.869 836.392 308.568 835.271 308.298L831.921 307.457C829.327 306.826 827.279 305.839 825.777 304.497C824.275 303.156 823.529 301.348 823.539 299.075C823.529 297.212 824.025 295.585 825.026 294.193C826.038 292.801 827.425 291.714 829.187 290.933C830.95 290.152 832.953 289.762 835.197 289.762C837.48 289.762 839.472 290.152 841.174 290.933C842.886 291.714 844.219 292.801 845.171 294.193C846.122 295.585 846.612 297.197 846.642 299.03H840.408ZM862.921 320.946V290.182H869.424V315.583H882.612V320.946H862.921ZM893.853 320.946H886.883L897.504 290.182H905.885L916.491 320.946H909.52L901.814 297.212H901.574L893.853 320.946ZM893.418 308.854H909.882V313.931H893.418V308.854ZM921.039 320.946V290.182H933.357C935.62 290.182 937.507 290.518 939.02 291.189C940.532 291.86 941.668 292.791 942.429 293.983C943.19 295.164 943.572 296.526 943.572 298.068C943.572 299.27 943.331 300.327 942.85 301.238C942.369 302.139 941.708 302.88 940.867 303.461C940.036 304.032 939.085 304.437 938.013 304.678V304.978C939.185 305.028 940.281 305.359 941.303 305.97C942.334 306.58 943.17 307.437 943.811 308.538C944.452 309.63 944.773 310.932 944.773 312.444C944.773 314.076 944.367 315.533 943.556 316.815C942.755 318.087 941.568 319.093 939.996 319.834C938.424 320.575 936.487 320.946 934.184 320.946H921.039ZM927.543 315.628H932.846C934.658 315.628 935.98 315.283 936.811 314.592C937.643 313.891 938.059 312.959 938.059 311.798C938.059 310.947 937.853 310.196 937.442 309.545C937.032 308.894 936.446 308.383 935.685 308.012C934.934 307.642 934.038 307.457 932.996 307.457H927.543V315.628ZM927.543 303.055H932.366C933.257 303.055 934.048 302.9 934.738 302.59C935.439 302.269 935.991 301.819 936.392 301.238C936.802 300.657 937.007 299.961 937.007 299.15C937.007 298.038 936.611 297.142 935.82 296.461C935.039 295.78 933.928 295.44 932.486 295.44H927.543V303.055ZM978.121 305.564C978.121 308.919 977.485 311.773 976.213 314.126C974.952 316.479 973.229 318.277 971.046 319.519C968.873 320.751 966.43 321.366 963.716 321.366C960.982 321.366 958.528 320.746 956.355 319.504C954.182 318.262 952.465 316.464 951.203 314.111C949.941 311.758 949.31 308.909 949.31 305.564C949.31 302.209 949.941 299.355 951.203 297.002C952.465 294.648 954.182 292.856 956.355 291.624C958.528 290.382 960.982 289.762 963.716 289.762C966.43 289.762 968.873 290.382 971.046 291.624C973.229 292.856 974.952 294.648 976.213 297.002C977.485 299.355 978.121 302.209 978.121 305.564ZM971.527 305.564C971.527 303.391 971.202 301.558 970.551 300.066C969.91 298.574 969.003 297.442 967.831 296.671C966.66 295.9 965.288 295.515 963.716 295.515C962.143 295.515 960.771 295.9 959.6 296.671C958.428 297.442 957.517 298.574 956.866 300.066C956.225 301.558 955.905 303.391 955.905 305.564C955.905 307.737 956.225 309.57 956.866 311.062C957.517 312.554 958.428 313.686 959.6 314.457C960.771 315.228 962.143 315.613 963.716 315.613C965.288 315.613 966.66 315.228 967.831 314.457C969.003 313.686 969.91 312.554 970.551 311.062C971.202 309.57 971.527 307.737 971.527 305.564ZM983.786 320.946V290.182H995.922C998.246 290.182 1000.23 290.598 1001.87 291.429C1003.52 292.25 1004.78 293.417 1005.64 294.929C1006.51 296.431 1006.95 298.199 1006.95 300.231C1006.95 302.274 1006.51 304.032 1005.63 305.504C1004.75 306.966 1003.47 308.088 1001.8 308.869C1000.13 309.65 998.12 310.04 995.757 310.04H987.631V304.813H994.706C995.947 304.813 996.98 304.643 997.801 304.302C998.622 303.962 999.232 303.451 999.633 302.77C1000.04 302.089 1000.25 301.243 1000.25 300.231C1000.25 299.21 1000.04 298.349 999.633 297.648C999.232 296.947 998.617 296.416 997.786 296.055C996.965 295.685 995.928 295.5 994.677 295.5H990.289V320.946H983.786ZM1000.4 306.946L1008.05 320.946H1000.87L993.385 306.946H1000.4ZM1017.69 320.946H1010.72L1021.34 290.182H1029.73L1040.33 320.946H1033.36L1025.66 297.212H1025.41L1017.69 320.946ZM1017.26 308.854H1033.72V313.931H1017.26V308.854ZM1039.95 295.545V290.182H1065.21V295.545H1055.8V320.946H1049.37V295.545H1039.95ZM1097.09 305.564C1097.09 308.919 1096.45 311.773 1095.18 314.126C1093.92 316.479 1092.2 318.277 1090.01 319.519C1087.84 320.751 1085.4 321.366 1082.68 321.366C1079.95 321.366 1077.49 320.746 1075.32 319.504C1073.15 318.262 1071.43 316.464 1070.17 314.111C1068.91 311.758 1068.28 308.909 1068.28 305.564C1068.28 302.209 1068.91 299.355 1070.17 297.002C1071.43 294.648 1073.15 292.856 1075.32 291.624C1077.49 290.382 1079.95 289.762 1082.68 289.762C1085.4 289.762 1087.84 290.382 1090.01 291.624C1092.2 292.856 1093.92 294.648 1095.18 297.002C1096.45 299.355 1097.09 302.209 1097.09 305.564ZM1090.49 305.564C1090.49 303.391 1090.17 301.558 1089.52 300.066C1088.88 298.574 1087.97 297.442 1086.8 296.671C1085.63 295.9 1084.25 295.515 1082.68 295.515C1081.11 295.515 1079.74 295.9 1078.57 296.671C1077.39 297.442 1076.48 298.574 1075.83 300.066C1075.19 301.558 1074.87 303.391 1074.87 305.564C1074.87 307.737 1075.19 309.57 1075.83 311.062C1076.48 312.554 1077.39 313.686 1078.57 314.457C1079.74 315.228 1081.11 315.613 1082.68 315.613C1084.25 315.613 1085.63 315.228 1086.8 314.457C1087.97 313.686 1088.88 312.554 1089.52 311.062C1090.17 309.57 1090.49 307.737 1090.49 305.564ZM1102.75 320.946V290.182H1114.89C1117.21 290.182 1119.19 290.598 1120.84 291.429C1122.49 292.25 1123.75 293.417 1124.61 294.929C1125.48 296.431 1125.91 298.199 1125.91 300.231C1125.91 302.274 1125.47 304.032 1124.59 305.504C1123.71 306.966 1122.43 308.088 1120.76 308.869C1119.1 309.65 1117.09 310.04 1114.72 310.04H1106.6V304.813H1113.67C1114.91 304.813 1115.95 304.643 1116.77 304.302C1117.59 303.962 1118.2 303.451 1118.6 302.77C1119.01 302.089 1119.21 301.243 1119.21 300.231C1119.21 299.21 1119.01 298.349 1118.6 297.648C1118.2 296.947 1117.58 296.416 1116.75 296.055C1115.93 295.685 1114.89 295.5 1113.64 295.5H1109.26V320.946H1102.75ZM1119.37 306.946L1127.01 320.946H1119.83L1112.35 306.946H1119.37ZM1128.27 290.182H1135.56L1142.57 303.431H1142.87L1149.89 290.182H1157.17L1145.95 310.07V320.946H1139.49V310.07L1128.27 290.182Z" fill="black"/>
</g>
</g>
<defs>
<clipPath id="clip0_457_4">
<rect width="1160" height="384" fill="white"/>
</clipPath>
</defs>
</svg>
