<svg width="844" height="168" viewBox="0 0 844 168" fill="none" xmlns="http://www.w3.org/2000/svg">
<g clip-path="url(#clip0_68_675)">
<path d="M212.12 61.7198H205.31L204.06 45.5298C201.23 42.1598 197.54 39.4398 193 37.3598C188.46 35.2898 183.21 34.2498 177.25 34.2498C165.34 34.2498 155.86 38.5798 148.83 47.2498C141.8 55.9198 138.28 67.1098 138.28 80.8298V82.3698C138.28 96.0898 141.76 107.31 148.72 116.02C155.68 124.74 164.82 129.09 176.15 129.09C182.16 129.09 187.61 128.04 192.52 125.94C197.43 123.84 201.27 121.13 204.06 117.81L205.31 101.62H212.12V120.37C208.8 124.96 203.95 128.79 197.58 131.87C191.21 134.95 184.07 136.48 176.16 136.48C162.49 136.48 151.31 131.41 142.62 121.28C133.93 111.15 129.58 98.1698 129.58 82.3498V80.9598C129.58 65.0898 133.91 52.0898 142.58 41.9598C151.25 31.8298 162.59 26.7598 176.6 26.7598C184.51 26.7598 191.58 28.3098 197.8 31.4098C204.02 34.5098 208.8 38.3598 212.12 42.9498V61.6998V61.7198Z" fill="#111111"/>
<path d="M219.37 27.2202V20.7002H240.02V69.2602C242.66 64.5202 246.17 60.8402 250.57 58.2002C254.97 55.5602 260.09 54.2402 265.95 54.2402C274.3 54.2402 280.71 56.8302 285.18 62.0002C289.65 67.1802 291.88 75.2102 291.88 86.1002V127.56L303.82 128.51V134.96H271.15V128.51L283.09 127.56V85.9602C283.09 77.3702 281.39 71.2002 278 67.4702C274.61 63.7302 269.93 61.8702 263.97 61.8702C258.01 61.8702 252.95 63.4402 248.92 66.5902C244.89 69.7402 241.93 73.9302 240.02 79.1502V127.56L251.96 128.51V134.96H219.37V128.51L231.31 127.56V28.1702L219.37 27.2202Z" fill="#111111"/>
<path d="M342.19 136.5C332.23 136.5 323.98 132.85 317.43 125.55C310.89 118.25 307.62 108.96 307.62 97.6802V93.6502C307.62 82.3202 310.88 72.9202 317.4 65.4502C323.92 57.9802 331.79 54.2402 341.02 54.2402C350.74 54.2402 358.38 57.3202 363.94 63.4702C369.5 69.6202 372.29 77.8302 372.29 88.0802V95.5502H316.33V97.6702C316.33 106.56 318.71 114.02 323.47 120.05C328.23 126.08 334.47 129.09 342.18 129.09C347.6 129.09 352.24 128.33 356.1 126.82C359.96 125.31 363.25 123.13 365.99 120.3L369.73 126.31C366.75 129.43 362.99 131.91 358.45 133.74C353.91 135.57 348.49 136.49 342.19 136.49V136.5ZM341.02 61.7202C334.57 61.7202 329.14 64.2002 324.72 69.1502C320.3 74.1102 317.73 80.3202 316.99 87.7902L317.14 88.1602H363.58V85.9602C363.58 79.0802 361.55 73.3102 357.5 68.6702C353.45 64.0302 347.95 61.7102 341.02 61.7102V61.7202Z" fill="#111111"/>
<path d="M415.81 129.1C421.62 129.1 426.75 127.44 431.19 124.12C435.63 120.8 437.86 116.19 437.86 110.28H445.62L445.77 110.72C446.01 118.04 443.1 124.17 437.02 129.1C430.94 134.03 423.87 136.5 415.82 136.5C405.08 136.5 396.75 132.8 390.84 125.4C384.93 118 381.98 108.49 381.98 96.8702V93.7902C381.98 82.2702 384.93 72.7902 390.84 65.3702C396.75 57.9502 405.05 54.2402 415.74 54.2402C421.84 54.2402 427.43 55.3902 432.51 57.6802C437.59 59.9802 441.71 63.1002 444.89 67.0602L445.26 84.3502H437.79L436.4 70.2902C434.06 67.6502 431.14 65.5702 427.65 64.0302C424.16 62.4902 420.19 61.7202 415.75 61.7202C407.25 61.7202 400.97 64.7602 396.89 70.8402C392.81 76.9202 390.77 84.5702 390.77 93.8002V96.8802C390.77 106.26 392.8 113.97 396.85 120.02C400.9 126.07 407.23 129.1 415.82 129.1H415.81Z" fill="#111111"/>
<path d="M453.53 27.2202V20.7002H474.18V88.8202H483.48L507.58 63.1102L507.43 62.7402L500.18 62.2302V55.7102H528.09V62.2302L518.86 63.1102L491.76 91.8902L522.59 127.71L531.38 128.52V134.97H503.55V128.52L511.9 128.01L484.36 96.3702H474.18V127.57L486.12 128.52V134.97H453.53V128.52L465.47 127.57V28.1802L453.53 27.2302V27.2202Z" fill="#111111"/>
<path d="M675.68 41.2101L666.89 42.3101L645.28 134.96H625.43L605.87 64.5701H605.43L585.87 134.96H566.02L544.27 42.3101L535.55 41.2101V28.3201H574.81V41.2101L565.07 42.8901L577.3 101.34L577.74 101.41L597.74 28.3101H613.49L633.63 101.41L634.07 101.34L646.23 42.8901L636.49 41.2101V28.3201H675.67V41.2101H675.68Z" fill="#111111"/>
<path d="M718.55 134.96C717.96 133.64 717.45 132.29 717.01 130.9C716.57 129.51 716.23 128.11 715.98 126.69C713.44 129.62 710.35 131.99 706.71 133.79C703.07 135.6 698.91 136.5 694.22 136.5C686.46 136.5 680.29 134.39 675.73 130.17C671.16 125.95 668.88 120.2 668.88 112.92C668.88 105.64 671.86 99.76 677.82 95.71C683.78 91.66 692.52 89.63 704.04 89.63H714.95V81.87C714.95 78.06 713.85 75.11 711.65 73.01C709.45 70.91 706.2 69.86 701.91 69.86C699.47 69.86 697.3 70.14 695.39 70.7C693.49 71.26 691.95 71.93 690.78 72.71L689.39 81.21H673.28L673.35 63.63C677.26 60.99 681.74 58.77 686.79 56.96C691.84 55.15 697.35 54.25 703.31 54.25C713.12 54.25 721.1 56.66 727.22 61.46C733.35 66.27 736.41 73.12 736.41 82V114.74C736.41 115.96 736.42 117.11 736.45 118.18C736.47 119.25 736.56 120.28 736.71 121.26L743.23 122.14V134.96H718.55ZM700.02 120.67C703.24 120.67 706.17 119.97 708.81 118.58C711.45 117.19 713.5 115.44 714.96 113.34V101.26H704.05C699.51 101.26 696.07 102.32 693.72 104.45C691.38 106.57 690.2 109.13 690.2 112.1C690.2 114.79 691.07 116.89 692.8 118.4C694.53 119.91 696.94 120.67 700.01 120.67H700.02Z" fill="#111111"/>
<path d="M826.16 69.3098H844V54.3098H826.16V36.2998H804.85V54.3098H776.21V36.2998H754.9V54.3098H743.25V69.3098H754.9V111.16C754.9 119.95 756.89 126.37 760.87 130.42C764.85 134.47 770.53 136.5 777.9 136.5C780.63 136.5 783.17 136.32 785.52 135.95C787.86 135.58 790.23 135.03 792.62 134.3L790.79 118.85C789.42 119.14 788.19 119.35 787.09 119.47C785.99 119.59 784.71 119.65 783.24 119.65C781.09 119.65 779.38 118.99 778.11 117.67C776.84 116.35 776.21 114.15 776.21 111.08V69.3098H804.85V111.16C804.85 119.95 806.84 126.37 810.82 130.42C814.8 134.47 820.48 136.5 827.85 136.5C830.58 136.5 833.12 136.32 835.47 135.95C837.81 135.58 840.18 135.03 842.57 134.3L840.74 118.85C839.37 119.14 838.14 119.35 837.04 119.47C835.94 119.59 834.66 119.65 833.19 119.65C831.04 119.65 829.33 118.99 828.06 117.67C826.79 116.35 826.16 114.15 826.16 111.08V69.3098Z" fill="#111111"/>
<path d="M55.92 139.51C25.09 139.51 0 114.43 0 83.5899C0 52.7499 25.08 27.6699 55.92 27.6699C86.76 27.6699 111.84 52.7499 111.84 83.5899C111.84 114.43 86.76 139.51 55.92 139.51ZM55.92 35.6799C29.5 35.6799 8 57.1799 8 83.5999C8 110.02 29.5 131.52 55.92 131.52C82.34 131.52 103.84 110.02 103.84 83.5999C103.84 57.1799 82.34 35.6799 55.92 35.6799Z" fill="#00AAE8"/>
<path d="M52.9402 91.29C44.3302 91.91 36.0202 92.51 27.3602 93.13C48.1602 62.61 70.8002 30.3 91.4502 0C91.5102 0.03 91.5702 0.07 91.6302 0.1C78.9502 24.78 68.2602 47.46 55.4702 72.35C64.3702 71.71 73.0202 71.09 81.9602 70.45C62.0402 102.16 40.2402 135.68 20.4402 167.2C20.3702 167.16 20.2902 167.13 20.2202 167.09C31.7602 141.24 41.3002 117.38 52.9502 91.29H52.9402Z" fill="#111111"/>
</g>
<defs>
<clipPath id="clip0_68_675">
<rect width="844" height="167.2" fill="white"/>
</clipPath>
</defs>
</svg>
