<svg width="264" height="79" viewBox="0 0 264 79" fill="none" xmlns="http://www.w3.org/2000/svg">
<path d="M8.88568 36.4735C6.75375 36.9575 1.39112 38.1148 0.148857 35.7149C-0.152484 35.1353 0.0955584 35.1068 0.103758 34.8871C0.109908 34.759 0.0873587 34.6207 0.103758 34.4966C0.146807 34.1855 0.271853 33.978 0.296452 33.9231C0.298502 33.917 0.300552 33.9129 0.300552 33.9109C0.833535 31.0778 1.51616 28.6189 2.46528 25.9058C3.07616 24.1568 2.85477 23.8171 4.43117 22.487C7.71107 19.717 11.4522 18.9848 15.5828 18.3218C26.7652 16.528 45.0424 16.9063 56.0362 19.7129C56.7885 19.9061 60.7183 21.1427 60.7121 21.9033C60.1914 22.4362 59.1952 22.485 58.451 22.5846C43.4865 24.5778 28.8397 24.0449 14.1192 28.3891C12.7519 28.7918 11.3661 29.5118 9.94549 29.8128L12.4054 30.1992C14.4328 30.2236 16.4458 30.2562 18.4486 29.9511C19.8877 29.7335 21.255 29.0847 22.735 29.225C22.7781 29.526 22.733 29.6826 22.5505 29.9206C22.3435 30.1911 20.0619 31.7998 19.6109 32.0805C16.5442 33.9943 12.4218 35.6742 8.88568 36.4735Z" fill="#FEFEFE"/>
<path d="M81.7772 37.5189C82.1606 40.7669 81.4513 44.6514 80.5924 47.7733C80.1783 49.2783 79.7048 50.761 79.2148 52.264C76.2855 61.2493 72.4418 66.6674 64.6521 72.179C56.5139 77.9387 45.1449 80.7169 35.3934 77.8756L33.7555 77.0621L39.9463 77.654C48.6216 77.7658 63.1782 73.1104 69.3751 66.9073C71.2057 65.0749 72.4685 60.9503 72.1302 58.4101C72.1036 58.2088 72.1774 57.9911 71.8392 58.1233C71.0089 58.4487 68.9754 60.0982 67.934 60.6941C62.309 63.8973 55.7267 66.5148 49.6015 68.6686C42.6973 71.0949 35.5574 72.7444 28.6388 75.1076C28.5179 75.9232 26.2015 76.2405 25.3835 76.2791C23.1122 76.3889 17.11 72.364 15.2569 70.8122C15.1441 70.7187 15.0683 70.6353 14.9965 70.556L14.8633 70.4218C14.8284 70.3892 14.6993 70.4543 14.6665 70.4218C13.6128 69.4964 12.6268 69.1018 13.5985 67.7005C15.4086 65.0911 28.5179 60.5476 32.0786 59.2887C43.1647 55.3696 55.1711 52.2579 65.8841 47.5313C66.1813 47.3991 66.4929 47.3482 66.62 46.9923C65.2978 45.6236 63.8178 44.4135 62.2906 43.2827C55.1281 47.8933 46.1063 51.1311 37.5684 52.0443C27.1178 53.1629 13.6149 51.0803 8.56589 40.7465C12.1533 41.6821 15.6013 43.1891 19.3157 43.6488C27.9132 44.7124 38.5626 41.7939 46.2252 37.9846C47.0862 37.5555 48.2957 36.9494 48.9086 36.2538C46.4384 35.3061 43.63 34.2485 41.0799 33.5753C39.4953 33.1584 29.7315 31.4114 29.3215 30.7931C29.1267 30.5002 29.2395 30.4941 29.4322 30.305C30.205 29.5423 34.678 28.3769 35.9141 28.1451C43.4763 26.7234 50.815 27.6407 58.1579 29.6155C59.7896 28.5823 61.3373 26.5892 62.4505 24.9906C65.1584 21.102 67.1715 16.7151 65.4434 11.9417C64.5701 9.53169 61.9708 6.45251 59.7322 5.20986C57.6967 4.0811 54.3286 2.78963 52.0573 2.28118C49.788 1.77273 46.6127 1.32733 44.2819 1.11174C42.3939 0.936835 40.3768 1.08734 38.5933 0.896159C38.4047 0.875821 37.8533 0.810739 37.8902 0.526007C41.7441 -0.187859 45.2987 -0.181757 49.1423 0.584987C50.2575 0.808705 51.225 1.22564 52.2541 1.5002C55.3208 2.32186 57.0571 2.80793 59.929 4.23363C69.6908 9.08222 78.1735 18.6431 73.9977 30.1992L71.1463 35.2776C74.0531 37.2606 75.8058 38.6314 77.6405 41.7207C78.0628 41.4197 79.4219 40.594 79.4198 40.0611C79.4157 39.4795 76.5151 36.9352 76.6565 35.8654C78.237 35.4973 81.5333 35.4505 81.7772 37.5189Z" fill="#FEFEFE"/>
<path d="M97.5166 55.876V64.9549H95.5487V59.488C94.8456 59.909 93.7653 62.9129 93.345 63.155C93.0498 63.3238 92.2114 63.2465 91.9101 63.0004C91.5247 62.6872 90.4956 60.4887 90.1348 59.8724C89.9852 59.6182 90.1676 59.3823 89.6469 59.488C89.7002 60.7124 90.1656 63.5739 89.815 64.6356C89.6285 65.1989 88.3821 64.8837 87.8737 64.9549C88.1013 63.8078 87.5765 56.1282 87.8737 55.7784C87.9967 55.634 89.3989 55.4997 89.7597 55.7641C90.5038 56.3072 92.1212 60.3768 92.6952 60.6595L95.4483 55.7763C95.7373 55.4265 97.5166 55.4997 97.5166 55.876Z" fill="#FEFEFE"/>
<path d="M102.25 64.2776C102.242 65.6077 99.2878 65.0159 99.2878 63.6858V58.5118H101.059V62.9048C101.059 63.3014 102.258 63.1082 102.25 64.2776Z" fill="#FEFEFE"/>
<path d="M88.2345 25.6455C88.0705 25.2367 87.6769 24.0144 87.6769 23.6605V17.1198H91.2192V23.6605C91.2192 24.3012 92.3672 25.7248 93.1872 25.5154L93.384 17.1198H96.7295V25.5154C97.6991 25.8875 98.8942 24.1629 98.8942 23.4653V17.1198H102.436V23.27C102.436 23.7683 101.983 25.3893 101.748 25.9058C100.823 27.9234 98.8081 28.5864 96.7295 28.8345V31.9585H93.4824C93.4619 31.9585 93.1872 31.6859 93.1872 31.6656V28.6393C91.0409 28.68 89.032 27.6631 88.2345 25.6455Z" fill="#FEFEFE"/>
<path d="M100.075 49.921V42.1112L97.0923 47.3503C96.9755 47.4235 95.315 47.4337 95.0547 47.3849C94.1752 47.2181 92.484 42.8596 91.6128 42.1112V49.921H88.0705V35.4729H91.8096L95.8439 42.8942L99.8782 35.4729H103.617V49.921H100.075Z" fill="#FEFEFE"/>
<path d="M107.207 61.1456L109.72 64.8552C109.226 64.9752 107.947 65.0912 107.553 64.8552C107.203 64.6437 106.145 62.4513 105.884 62.4289C105.739 62.4167 105.105 62.8967 105.032 63.1346C104.909 63.5373 105.071 64.8796 104.995 64.9529C104.923 65.0261 103.537 64.9 103.224 64.9529V58.5098H104.995V60.8527C106.588 59.6182 107.116 57.9708 109.521 58.5118C108.963 59.5612 107.957 60.2446 107.207 61.1435V61.1456Z" fill="#FEFEFE"/>
<path d="M113.356 58.3166C112.112 58.4325 110.708 59.5287 110.503 60.7571C110.187 62.6445 110.737 65.321 110.503 67.2978H112.274V64.3692C117.971 67.4849 119.387 57.7512 113.356 58.3166ZM112.723 62.9475C111.249 61.4852 113.434 58.8006 114.974 60.3239C116.415 61.7476 114.398 64.6071 112.723 62.9475Z" fill="#FEFEFE"/>
<path d="M107.947 31.9584H104.601V21.6105H107.947C107.986 21.6105 107.916 22.2633 107.949 22.3914C110.161 20.7013 113.846 21.0145 114.742 23.9473C114.791 24.1019 115.031 25.3364 115.031 25.4177V35.8634C114.523 35.9569 111.489 36.3494 111.489 35.7657V25.4177C111.489 25.2632 110.974 24.6734 110.78 24.5615C109.609 23.8883 107.947 25.0659 107.947 26.1987V31.9584Z" fill="#FEFEFE"/>
<path d="M111.79 39.3696C112.452 39.4205 115.113 40.0937 115.398 40.5797C115.613 40.9438 114.498 42.7702 114.107 42.8698C113.881 42.9268 111.963 42.1458 111.194 42.1539C110.728 42.158 109.253 42.402 109.609 43.0895C110.093 44.025 112.463 42.8739 112.67 43.966C113.256 47.0472 111.501 45.5951 109.906 46.1056C109.207 46.3273 109.093 46.8906 109.73 47.273C111.393 48.2716 113.678 46.4676 114.304 46.6262C114.56 46.6893 115.829 48.5889 115.732 48.7516C113.547 50.3156 110.536 50.7427 107.99 49.7807C105.468 48.8289 104.929 46.1422 107.356 44.747C104.115 41.0252 108.135 39.093 111.79 39.3696Z" fill="#FEFEFE"/>
<path d="M120.685 58.3633C116.872 59.0121 117.1 65.4694 122.214 64.9549C126.503 64.5217 125.992 57.4624 120.685 58.3633ZM121.618 63.4051C119.439 63.5007 119.391 60.1205 121.472 59.9192C123.555 59.7178 123.828 63.3095 121.618 63.4051Z" fill="#FEFEFE"/>
<path d="M116.015 39.573H125.461V42.3064H122.214C122.194 42.3064 121.919 42.579 121.919 42.5993V46.1137C121.919 47.4682 123.635 47.2933 124.475 46.7971C124.557 48.4465 126.281 49.2254 124.045 49.98C122.454 50.5149 120.168 50.3807 119.197 48.8146C119.002 48.4973 118.574 47.3869 118.574 47.09V42.3064H116.015V39.573Z" fill="#FEFEFE"/>
<path d="M130.529 25.074C129.994 21.9359 125.871 20.3841 123.229 22.0335C122.704 22.3609 121.72 23.6971 121.72 24.2463V28.5417C121.72 29.1477 120.742 28.4176 120.535 28.1552C118.873 26.0706 121.085 23.7317 121.72 21.8077C119.418 21.706 119.162 20.3353 117.702 22.603C115.152 26.5607 116.919 31.269 121.72 31.9584V36.0586H124.771C125.324 36.0586 124.955 32.534 125.076 31.9666C128.797 31.5375 131.181 28.8874 130.529 25.074ZM125.066 24.832C125.066 24.2483 126.624 24.0388 127.081 25.1757C127.702 26.7112 126.788 28.6942 125.066 28.8345V24.832Z" fill="#FEFEFE"/>
<path d="M132.349 58.5118V64.9549C131.535 64.9101 130.498 65.2966 130.576 64.1739C129.752 65.0301 129.178 65.1522 128.022 64.7597V67.2978H126.249V58.5118H128.02V62.5143C128.02 63.3055 129.684 63.4153 130.139 62.9577C130.646 62.4431 130.344 58.7498 130.578 58.5098C130.644 58.4406 132.04 58.5626 132.349 58.5118Z" fill="#FEFEFE"/>
<path d="M132.849 31.1693C132.724 31.0168 132.152 29.8108 132.152 29.7131V21.6105H135.498V28.1512C135.498 29.3369 136.949 28.8772 137.183 29.2128C137.408 29.5362 137.632 31.4378 137.14 31.7327C136.049 32.3855 133.686 32.2045 132.849 31.1693Z" fill="#FEFEFE"/>
<path d="M138.054 47.1876C137.941 47.0818 136.869 47.4926 136.683 46.4981C136.324 44.6067 137.166 41.5539 137.267 39.573H134.118C134.143 39.9228 134.151 40.3174 133.823 40.5452C131.31 38.1392 127.435 39.7052 126.499 42.8495C125.338 46.7503 127.893 51.1474 132.353 50.0247C132.819 49.9068 133.634 49.201 133.86 49.1644C134.18 49.1136 134.674 49.9902 135.41 50.1061C135.971 50.1935 137.853 50.2281 138.157 49.7278C138.224 49.62 138.148 47.275 138.054 47.1876ZM131.658 47.2059C129.106 47.2059 129.057 42.4712 131.654 42.4C134.262 42.3309 134.43 47.2059 131.658 47.2059Z" fill="#FEFEFE"/>
<path d="M135.887 60.7612C136.588 61.2432 138.253 60.0656 137.859 62.2215C135.248 61.8513 134.575 63.9156 137.675 63.3055C138.489 63.1468 138.985 62.2845 139.354 63.7834C139.561 64.6173 137.974 64.9101 137.376 64.963C136.213 65.0647 134.217 64.9752 133.68 63.7326C133.079 62.3455 134.51 61.7496 134.51 61.5381C134.508 61.3062 132.915 60.4948 134.21 59.0894C135.352 57.8488 138.044 58.2332 139.434 58.9064C138.827 60.9727 138.548 60.0127 137.173 59.8765C136.525 59.8134 134.903 60.088 135.887 60.7612Z" fill="#FEFEFE"/>
<path d="M147.5 58.5118H142.482C141.334 58.5118 140.075 60.4663 140.04 61.5564C139.866 67.066 149.489 65.4654 146.319 60.0758C147.679 60.2629 147.556 59.6121 147.5 58.5118ZM143.841 63.3868C141.592 63.6675 141.277 60.4419 143.32 60.1063C145.272 59.787 145.721 63.1529 143.841 63.3868Z" fill="#FEFEFE"/>
<path d="M149.456 29.2372C149.366 29.1579 148.798 29.3084 148.48 29.1315C147.469 28.564 148.669 22.8429 148.681 21.6105H145.532C145.497 21.7752 145.715 22.5745 145.241 22.3894C144.768 22.2043 144.345 21.6572 143.577 21.5006C136.205 20.0017 135.844 32.3733 142.648 32.1395C143.704 32.1028 145.284 31.0148 145.436 31.027C145.559 31.0371 146.055 31.6351 146.379 31.8018C147.418 32.3408 148.654 32.174 149.673 31.6351C149.741 31.3544 149.554 29.3247 149.456 29.2372ZM143.819 28.9871C140.526 29.7416 140.541 24.8706 142.722 24.3846C145.807 23.6971 145.702 28.5559 143.819 28.9871Z" fill="#FEFEFE"/>
<path d="M143.663 39.573C143.308 39.573 141.518 40.3296 141.137 40.5818C137.568 42.9329 138.341 48.7007 142.472 49.9312C147.551 51.4464 152.084 47.0594 149.075 42.3085C149.294 42.2414 150.846 42.3939 150.846 42.3064V39.573H143.663ZM145.196 47.1449C141.865 47.9014 141.375 42.9329 144.108 42.5383C146.963 42.1275 147.529 46.614 145.196 47.1449Z" fill="#FEFEFE"/>
<path d="M155.341 63.7183C155.185 63.275 154.445 63.4234 154.37 62.5164C154.322 61.9245 154.948 58.6786 154.782 58.5118C154.029 58.6379 152.76 58.0806 153.008 59.0996C147.527 55.2699 145.955 65.7949 151.522 64.9427C152.067 64.8573 152.834 64.2044 152.914 64.2044C153.078 64.2064 153.394 64.8105 153.738 64.9142C154.743 65.2132 155.768 64.9244 155.341 63.7183ZM151.639 63.3116C149.964 63.82 149.343 61.2778 150.311 60.3239C152.17 58.4874 153.861 62.6384 151.639 63.3116Z" fill="#FEFEFE"/>
<path d="M159.31 55.3899C158.615 56.7261 158.41 57.9281 156.555 57.5356C156.467 57.4501 157.08 55.4753 157.172 55.4143C157.451 55.2374 158.851 55.4835 159.31 55.3899Z" fill="#FEFEFE"/>
<path d="M159.113 64.4668C158.898 65.5813 156.358 64.778 156.358 63.881V58.5118H158.129V63.1977C158.129 63.3482 159.421 62.8662 159.113 64.4668Z" fill="#FEFEFE"/>
<path d="M154.39 31.9584H151.045V21.6105H154.39V25.1249C155.028 24.8523 157.776 21.6105 158.031 21.6105H162.065C161.622 22.4382 157.924 25.4462 157.924 26.0035L162.459 31.9584H158.129L155.472 28.0576C155.325 28.2549 154.39 29.0481 154.39 29.1274V31.9584Z" fill="#FEFEFE"/>
<path d="M154.685 53.8259H151.045C151.422 52.3982 155.099 47.5171 155.103 46.5042C155.103 46.2968 153.359 42.9695 153.213 42.7925C152.668 42.1254 152.389 42.2963 151.637 42.5017C151.629 40.6591 150.354 39.4815 153.121 39.3717C155.735 39.2679 156.702 43.0813 157.047 43.0834L158.916 39.573H162.655C162.221 40.7018 158.734 45.7212 158.769 46.4696C158.785 46.8642 160.29 49.8885 160.601 50.2993C161.473 51.4464 162.198 50.9196 162.44 51.1128C162.538 51.1921 162.825 53.2463 162.838 53.6144C159.437 54.973 157.781 52.87 156.85 49.921C156.356 50.342 154.972 53.8259 154.685 53.8259Z" fill="#FEFEFE"/>
<path d="M168.906 60.8039C169.432 64.1068 167.009 66.4558 164.234 63.9787C164.103 64.7535 163.037 64.9915 162.358 64.9732C159.929 64.902 159.486 62.1726 160.005 60.2731C160.066 60.0453 160.64 58.5931 160.72 58.5443C161.015 58.3633 162.206 58.6033 162.655 58.5138C162.079 59.3721 160.864 63.2384 162.567 63.4031C163.836 63.5251 163.365 61.0256 163.443 60.269H165.214C165.037 61.052 165.185 64.1739 166.597 63.3034C167.801 62.5591 166.69 59.5023 166.198 58.5138C168.02 58.1071 168.645 59.1769 168.906 60.8039Z" fill="#FEFEFE"/>
<path d="M168.658 20.8295H165.804L167.182 16.7293H171.117C170.951 17.3069 168.897 20.8295 168.658 20.8295Z" fill="#FEFEFE"/>
<path d="M167.598 21.2586C164.541 21.2586 162.065 23.7175 162.065 26.7499C162.065 29.7823 164.541 32.2391 167.598 32.2391C170.654 32.2391 173.133 29.7802 173.133 26.7499C173.133 23.7195 170.654 21.2586 167.598 21.2586ZM167.093 29.0196C164.88 28.6718 165.033 24.8544 167.122 24.3846C170.433 23.6382 170.705 29.585 167.093 29.0196Z" fill="#FEFEFE"/>
<path d="M173.254 41.0658C173.413 41.3424 173.873 42.7519 173.873 42.9898V53.8259H170.527V43.966C170.527 41.739 166.985 42.3573 166.985 43.5755V49.921H163.443V39.573H166.788C166.837 39.573 166.751 40.3947 166.79 40.5492C167.313 40.4801 167.581 40.0306 168.092 39.7927C169.853 38.973 172.22 39.2883 173.254 41.0658Z" fill="#FEFEFE"/>
<path d="M176.037 58.5138C175.75 59.4148 173.887 64.7393 173.35 64.9224C172.999 65.0423 172.062 65.0322 171.8 64.7658C171.169 62.8092 169.933 60.7246 169.352 58.7965C169.244 58.4325 169.408 58.5403 169.637 58.5118C169.902 58.4772 171.165 58.461 171.288 58.5382L172.788 62.4187C173.11 61.9469 173.932 58.6664 174.09 58.5321C174.248 58.3959 175.662 58.587 176.037 58.5138Z" fill="#FEFEFE"/>
<path d="M178.544 21.462C180.748 21.1223 183.026 21.5393 184.485 23.2965C184.522 23.5161 182.773 25.2713 182.601 25.2998C182.378 25.3384 181.496 24.5493 180.972 24.4273C178.971 23.9636 177.47 24.7934 177.821 26.9675C178.165 29.103 182.747 28.7003 183.671 31.1205C184.171 32.4344 183.921 33.8641 183.169 35.0315C181.806 37.1548 180.851 35.7983 179.19 34.7895C182.86 31.8385 177.86 31.7286 175.939 30.2012C172.675 27.602 174.34 22.1108 178.544 21.462Z" fill="#FEFEFE"/>
<path d="M179.383 49.921V53.8259H176.037V39.573H179.383V46.1137C179.383 46.6547 180.445 47.2425 181.035 47.1855C181.753 47.1164 182.728 46.1991 182.728 45.528V39.573H186.074V49.921H182.925C182.886 49.921 182.956 49.2682 182.923 49.14C181.882 50.1244 180.762 50.3786 179.383 49.921Z" fill="#FEFEFE"/>
<path d="M182.532 63.1977H187.058V64.9549H180.564V55.876C180.564 55.8556 180.838 55.5831 180.859 55.5831H186.566C186.988 55.5831 186.988 57.3403 186.566 57.3403H182.532V59.488H186.074V61.05H182.532V63.1977Z" fill="#FEFEFE"/>
<path d="M194.536 60.0738V64.9549H192.568V60.0738H190.6V64.9549H188.829V60.0738C187.382 60.3117 187.919 59.6467 187.845 58.5118H195.52C195.446 59.6467 195.983 60.3117 194.536 60.0738Z" fill="#FEFEFE"/>
<path d="M199.279 47.3015C198.966 46.8805 198.222 47.8221 198.076 46.311C197.859 44.0637 198.505 41.8183 198.47 39.573H195.518C195.469 39.573 195.342 40.3967 195.319 40.5492C192.994 38.43 189.452 39.3656 188.13 42.1031C186.264 45.9714 189.034 51.2125 193.753 50.0247C194.179 49.9169 195.184 49.1238 195.393 49.1583C195.637 49.201 196.041 49.9413 196.641 50.0756C197.08 50.1732 199.241 50.1854 199.427 49.8925C199.419 49.2865 199.61 47.7428 199.279 47.3015ZM193.054 47.1998C190.436 47.3096 190.262 42.5525 192.908 42.3471C195.821 42.1193 195.651 47.092 193.054 47.1998Z" fill="#FEFEFE"/>
<path d="M199.468 63.5129C200.142 65.8864 196.504 65.1644 196.504 63.2953V58.5118H198.472V63.1977C198.472 63.2485 199.405 63.2912 199.468 63.5129Z" fill="#FEFEFE"/>
<path d="M206.729 67.2877C204.57 67.9995 203.679 66.3684 203.193 64.5644C201.823 66.0023 202.375 67.8734 199.653 67.2958L202.018 62.7258L199.653 58.5138C200.22 58.6033 201.364 58.3328 201.819 58.6074C202.17 58.8189 202.787 60.8507 203.096 60.8507C204.183 59.2765 203.892 58.0623 206.344 58.5138C206.587 58.7294 204.193 62.2337 204.193 62.9048C204.193 63.1062 205.296 65.3576 205.464 65.5325C206.028 66.1182 206.948 65.6871 206.729 67.2877Z" fill="#FEFEFE"/>
<path d="M199.653 42.3064V39.573H209.295V42.3064H205.753V46.5042C205.753 47.5455 207.494 47.1327 208.113 46.7971C208.127 48.2085 209.847 49.2661 207.83 49.9291C206.747 50.2871 204.546 50.3074 203.601 49.6159C201.208 47.8689 202.744 43.0732 202.324 42.4875C202.043 42.097 200.206 42.4 199.653 42.3064Z" fill="#FEFEFE"/>
<path d="M212.754 64.178C212.092 65.2518 207.401 65.4796 206.977 63.6451C206.553 61.8086 207.967 61.6561 207.918 61.5381C207.815 61.3042 207.282 61.0846 207.172 60.7185C206.29 57.8081 210.981 57.9342 212.641 58.9043C212.155 60.9564 211.708 59.9294 210.382 59.8683C207.85 59.7504 209.222 61.3469 211.067 60.8547C211.286 62.9638 210.784 61.9022 209.482 62.3109C208.92 62.4859 208.516 63.0675 209.287 63.2933C210.505 63.6512 211.175 63.1997 212.245 62.8072C212.178 63.1712 212.895 63.9502 212.754 64.178Z" fill="#FEFEFE"/>
<path d="M212.948 50.1041C211.729 49.9169 210.673 48.4424 210.673 47.2852V39.573H213.92C213.941 39.573 214.215 39.8455 214.215 39.8659V46.6995C214.408 47.3808 215.73 47.1245 215.792 47.1855C215.876 47.271 216.021 49.4044 215.956 49.5956C215.718 50.2769 213.588 50.2017 212.948 50.1041Z" fill="#FEFEFE"/>
<path d="M216.534 63.4356C216.593 63.5048 216.808 64.6925 216.767 64.7495C216.011 65.2579 213.822 64.8715 213.822 63.881V58.5118H215.79V62.3191C215.79 62.3903 215.546 62.5774 215.613 62.8621C215.734 63.3746 216.413 63.2994 216.534 63.4356Z" fill="#FEFEFE"/>
<path d="M224.203 60.8039C223.678 57.7613 218.824 57.3668 217.745 60.1612C217.307 61.2961 217.139 65.6138 217.362 66.8097C217.516 67.6415 218.709 67.2022 219.33 67.2978V64.3692C222.239 66.045 224.762 64.0478 224.203 60.8039ZM221.568 63.1712C219.617 64.1922 218.627 61.4608 219.779 60.3239C221.456 58.6704 223.768 62.0201 221.568 63.1712Z" fill="#FEFEFE"/>
<path d="M221.199 39.573C216.271 39.573 214.4 47.5638 219.473 49.681C224.483 51.7738 229.875 47.2588 226.611 42.3085C226.831 42.2414 228.382 42.3939 228.382 42.3064V39.573H221.199ZM222.733 47.1449C219.439 47.8933 218.875 42.9898 221.644 42.5424C224.807 42.0319 224.912 46.6507 222.733 47.1449Z" fill="#FEFEFE"/>
<path d="M228.417 55.4204C228.712 55.2394 229.903 55.4794 230.352 55.3879C229.94 56.777 229.331 58.1579 227.597 57.7288C227.505 57.6474 228.313 55.4855 228.417 55.4204Z" fill="#FEFEFE"/>
<path d="M231.146 58.9938C231.312 59.185 231.73 60.1877 231.73 60.3666V67.2978H229.762V60.5619C229.762 59.7361 227.204 59.6528 227.204 61.1476V64.9549H225.433V58.5118C226.226 58.644 227.29 58.0684 227.3 59.0975C228.261 58.1925 230.231 57.9362 231.146 58.9938Z" fill="#FEFEFE"/>
<path d="M233.108 53.8259H229.762V39.573H233.108V45.9185C233.108 45.9754 233.597 46.7971 233.704 46.8886C234.612 47.6533 236.453 46.734 236.453 45.9185V39.573H239.798V49.921H236.847C236.806 49.921 236.701 49.26 236.648 49.14C235.629 50.2546 234.528 50.3379 233.108 49.921V53.8259Z" fill="#FEFEFE"/>
<path d="M240.19 58.5118H235.172C235.1 58.5118 234.042 59.1016 233.903 59.2053C231.908 60.7185 232.646 64.4729 235.219 64.9081C238.474 65.4572 240.846 63.0696 239.009 60.0758C240.387 59.8867 240.266 59.8989 240.19 58.5118ZM236.531 63.3868C234.288 63.6695 233.962 60.446 236.01 60.1063C237.964 59.7829 238.316 63.1631 236.531 63.3868Z" fill="#FEFEFE"/>
<path d="M246.662 63.9176C246.858 65.0952 241.334 65.7623 240.821 63.4478C240.514 62.0588 241.758 61.652 241.762 61.5381C241.762 61.4364 241.057 61.0358 240.977 60.5517C240.469 57.5132 246.198 58.0644 246.473 59.0304C246.524 59.2074 246.133 60.2121 246.075 60.2527C245.856 60.4093 243.902 59.4514 243.14 59.9721C242.853 60.1673 242.853 60.5659 243.14 60.7612C243.843 61.2432 245.505 60.0656 245.112 62.2215C241.752 61.7801 242.242 64.241 245.116 63.2994C245.485 63.1773 245.672 62.7685 246.094 62.8072C246.018 63.2404 246.621 63.6756 246.662 63.9176Z" fill="#FEFEFE"/>
<path d="M248.162 38.792H245.309L246.489 34.8871H250.425C250.261 35.4342 248.39 38.792 248.162 38.792Z" fill="#FEFEFE"/>
<path d="M247 39.3168C243.935 39.3168 241.453 41.7797 241.453 44.8182C241.453 47.8567 243.935 50.3217 247 50.3217C250.065 50.3217 252.545 47.8587 252.545 44.8182C252.545 41.7777 250.063 39.3168 247 39.3168ZM247.529 47.1469C244.532 47.8201 244.091 43.0284 246.233 42.5444C249.81 41.7349 249.753 46.6466 247.529 47.1469Z" fill="#FEFEFE"/>
<path d="M256.274 60.2263C256.961 62.4655 256.311 65.2518 253.472 64.961C252.807 64.8918 251.912 64.1617 251.733 64.1942C251.534 64.2288 251.215 64.7454 250.831 64.8674C247.879 65.8132 246.826 62.4025 247.578 60.0799C247.639 59.8866 248.22 58.5891 248.291 58.5443C248.58 58.3654 249.784 58.6013 250.229 58.5138C249.439 59.3477 248.447 63.5821 250.321 63.4072C251.358 63.3095 250.94 60.989 251.016 60.269H252.787C252.695 61.1415 252.588 64.479 254.181 63.1143C255.489 61.9957 253.597 58.6806 253.771 58.5118C254.187 58.5952 255.234 58.3715 255.511 58.5443C255.589 58.5931 256.208 60.0107 256.274 60.2263Z" fill="#FEFEFE"/>
<path d="M264 41.6231C263.543 41.9526 262.393 43.4861 261.938 43.4861C261.554 43.484 261.272 42.9125 260.929 42.7213C258.016 41.1126 255.282 44.804 258.65 46.5449C261.144 47.8364 263.553 47.4194 263.225 51.1982C263.149 52.0748 262.21 54.2103 261.319 54.3832C261.171 54.4116 258.726 53.0897 258.691 52.9453C258.748 52.4816 259.275 52.4145 259.568 52.0626C261.132 50.1854 257.875 49.742 256.653 49.1116C251.825 46.6283 253.213 40.1303 258.447 39.4286C260.796 39.1134 262.532 39.8293 264 41.6231Z" fill="#FEFEFE"/>
<path d="M263.414 58.5118C263.172 59.2969 261.257 64.8796 260.919 64.961C260.581 65.0423 259.4 65.022 259.183 64.7597L256.725 58.6074C257.071 58.4935 258.471 58.4142 258.664 58.5382C258.857 58.6623 259.927 62.677 260.263 62.4167C260.628 61.6154 261.128 58.6603 261.938 58.5118C262.383 58.4305 262.946 58.5606 263.414 58.5118Z" fill="#FEFEFE"/>
<path d="M79.2148 52.264C76.2855 61.2493 72.4418 66.6674 64.6521 72.179C64.1376 72.484 64.0453 71.9613 64.4102 71.5363C66.2141 70.1391 67.8684 68.5954 69.3751 66.9073C71.2057 65.0749 72.4685 60.9503 72.1302 58.4101C72.1036 58.2088 72.1774 57.9911 71.8392 58.1233C71.0089 58.4487 68.9754 60.0982 67.934 60.6941C62.309 63.8973 55.7267 66.5148 49.6015 68.6686C42.6973 71.0949 35.5574 72.7444 28.6388 75.1076L28.2596 74.9429C28.2166 73.2508 28.0936 71.5139 27.4991 69.9174C23.102 72.1118 19.3936 71.5627 14.9801 70.1472C14.8243 70.0964 14.7075 70.2387 14.6665 70.4218C13.6128 69.4964 12.6268 69.1018 13.5985 67.7005C15.4086 65.0911 28.5179 60.5476 32.0786 59.2887C43.1647 55.3696 55.1711 52.2579 65.8841 47.5313C66.1813 47.3991 66.4929 47.3482 66.62 46.9923C66.7902 46.9089 66.8496 46.9842 66.8168 47.1876C66.8906 47.1815 66.9644 47.1835 67.0341 47.1916C67.1981 47.212 67.3539 47.2689 67.5015 47.3523C68.1657 47.7245 70.0229 50.5698 70.4965 51.4057C71.5542 53.2748 72.1692 55.1459 72.5751 57.2264C74.5963 55.6035 76.5335 53.889 78.3867 52.085C78.7741 51.8064 79.0549 51.7677 79.2148 52.264Z" fill="#0966AE"/>
<path d="M14.1192 28.3891C12.7519 28.7918 11.3661 29.5118 9.94549 29.8128L12.4054 30.1992C14.4328 30.2236 16.4458 30.2562 18.4486 29.9511C19.8877 29.7335 21.255 29.0847 22.735 29.225C22.7781 29.526 22.733 29.6826 22.5505 29.9206C22.3435 30.1911 20.0619 31.7998 19.6109 32.0805C16.5442 33.9943 12.4218 35.6742 8.88568 36.4735C6.75375 36.9575 1.39112 38.1148 0.148857 35.7149C-0.152484 35.1353 0.0955584 35.1068 0.103758 34.8871C0.409198 34.0838 1.55716 32.9713 2.31154 32.5706C4.19133 31.57 6.14287 30.726 8.13335 29.9816C6.50775 29.524 5.0318 28.8 3.63989 27.8563C3.09461 27.4882 2.33204 26.5689 2.46528 25.9058C3.07616 24.1568 2.85477 23.8171 4.43117 22.487C7.71107 19.717 11.4522 18.9848 15.5828 18.3218C26.7652 16.528 45.0424 16.9063 56.0362 19.7129C56.7885 19.9061 60.7183 21.1427 60.7121 21.9033C60.1914 22.4362 59.1952 22.485 58.451 22.5846C43.4865 24.5778 28.8397 24.0449 14.1192 28.3891Z" fill="#51A7DF"/>
<path d="M62.2906 43.2827C55.1281 47.8933 46.1063 51.1311 37.5684 52.0443C27.1178 53.1629 13.6149 51.0803 8.56589 40.7465C12.1533 41.6821 15.6013 43.1891 19.3157 43.6488C27.9132 44.7124 38.5626 41.7939 46.2252 37.9846C47.0862 37.5555 48.2957 36.9494 48.9086 36.2538C49.1013 36.2213 49.296 36.1969 49.4887 36.1989C49.6773 36.201 49.8577 36.205 50.0176 36.266C54.0355 37.7934 58.1866 39.8577 61.6776 42.3573C61.817 42.4569 61.9195 42.6075 62.0241 42.7641C62.1307 42.9268 62.2147 43.1017 62.2906 43.2827Z" fill="#51A7DF"/>
<path d="M77.6405 41.7207C77.5892 41.8793 77.5318 42.0319 77.4498 42.1722C76.7447 43.3742 69.5186 46.5001 67.7311 47.2059L67.0341 47.1916L66.8168 47.1876C66.7533 47.1205 66.6836 47.0594 66.62 46.9923C65.2978 45.6236 63.8178 44.4135 62.2906 43.2827C58.1025 40.1852 53.7587 38.1127 48.9086 36.2538C46.4384 35.3061 43.63 34.2485 41.0799 33.5753C39.4953 33.1584 29.7315 31.4114 29.3215 30.7931C29.1267 30.5002 29.2395 30.4941 29.4322 30.305C30.205 29.5423 34.678 28.3769 35.9141 28.1451C43.4763 26.7234 50.815 27.6407 58.1579 29.6155L59.0394 29.4508C61.2041 30.0589 63.3545 30.7422 65.4106 31.6473C66.6159 32.1761 70.437 33.9434 70.9577 34.8363C71.0376 34.9725 71.095 35.1231 71.1463 35.2776C74.0531 37.2606 75.8058 38.6314 77.6405 41.7207Z" fill="#0966AE"/>
<path d="M73.9977 30.1992L71.1463 35.2776C66.905 32.3856 63.1228 30.9497 58.1579 29.6155C59.7896 28.5823 61.3373 26.5892 62.4505 24.9906C65.1584 21.102 67.1715 16.7151 65.4434 11.9417C64.5701 9.53169 61.9708 6.45251 59.7322 5.20986C59.2382 4.93529 59.3284 4.27634 59.929 4.23363C69.6908 9.08222 78.1735 18.6431 73.9977 30.1992Z" fill="#51A7DF"/>
<path d="M80.5924 47.7733C80.1783 49.2783 79.7048 50.761 79.2148 52.264C78.7659 52.1887 78.6142 52.4124 78.3211 52.6463C76.3039 54.2632 74.5881 56.6732 72.1323 57.9261C71.9355 53.7913 69.5781 50.1264 66.8168 47.1876C70.4309 45.5422 74.3913 44.0352 77.6405 41.7207L78.2719 42.0319C79.1718 43.6528 79.754 45.4263 80.0635 47.2486C80.74 46.9639 80.7359 47.1489 80.5924 47.7733Z" fill="#0966AE"/>
<path d="M69.3751 66.9073C68.4424 68.7296 66.5852 70.1472 65.0416 71.4915C64.9657 71.5566 64.2688 72.0895 64.6521 72.179C56.5139 77.9387 45.1449 80.7169 35.3934 77.8756L33.7555 77.0621L39.9463 77.654C48.6216 77.7658 63.1782 73.1104 69.3751 66.9073Z" fill="#51A7DF"/>
<path d="M28.6388 75.1076C28.5179 75.9232 26.2015 76.2405 25.3835 76.2791C23.1122 76.3889 17.11 72.364 15.2569 70.8122L14.9965 70.556L14.8633 70.4218C14.8284 70.3892 14.6993 70.4543 14.6665 70.4218C14.4861 70.2448 14.3406 69.897 14.0761 69.7384C14.0474 69.5879 14.2606 69.6164 14.3672 69.6448C15.6279 69.9723 16.8743 70.5214 18.1698 70.7533C21.4231 71.341 24.5943 70.918 27.5606 69.472C28.2924 69.5248 28.7557 74.3165 28.6388 75.1076Z" fill="#0966AE"/>
<path d="M80.5924 47.7733C80.6108 46.6974 80.0696 48.357 79.8073 48.1638C79.4711 45.7558 78.8807 43.8094 77.6405 41.7207C78.0628 41.4197 79.4219 40.594 79.4198 40.0611C79.4157 39.4795 76.5151 36.9352 76.6565 35.8654C78.237 35.4973 81.5333 35.4505 81.7772 37.5189C82.1606 40.7669 81.4513 44.6514 80.5924 47.7733Z" fill="#0966AE"/>
<path d="M9.35306 29.9084C7.04484 30.8521 4.70791 31.6798 2.52473 32.896L0.103758 34.8871C0.109908 34.759 0.0873587 34.6207 0.103758 34.4966L0.296452 33.9231C0.296452 33.9231 0.300552 33.9129 0.300552 33.9109C0.833535 31.0778 1.51616 28.6189 2.46528 25.9058L3.64194 27.3743C5.31879 28.6413 7.31953 29.4101 9.35306 29.9084Z" fill="#51A7DF"/>
<path d="M52.0573 2.28118C49.788 1.77273 46.6127 1.32733 44.2819 1.11174C42.3939 0.936835 40.3768 1.08734 38.5933 0.896159C38.4047 0.875821 37.8533 0.810739 37.8902 0.526007C41.7441 -0.187859 45.2987 -0.181757 49.1423 0.584987C50.2575 0.808705 51.225 1.22564 52.2541 1.5002C53.2032 2.00865 53.2422 2.52117 52.0573 2.28118Z" fill="#51A7DF"/>
<path d="M59.929 4.23363L59.7322 5.20986C57.6967 4.0811 54.3286 2.78963 52.0573 2.28118L52.6477 2.28118L52.2541 1.5002C55.3208 2.32186 57.0571 2.80793 59.929 4.23363Z" fill="#51A7DF"/>
<path d="M0.103758 34.4966L0.296452 33.9231C0.271853 33.978 0.146807 34.1855 0.103758 34.4966Z" fill="#51A7DF"/>
<path d="M15.2569 70.8122C15.1441 70.7187 15.0683 70.6353 14.9965 70.556L15.2569 70.8122Z" fill="#0966AE"/>
<path d="M97.5166 55.876V64.9549H95.5487V59.488C94.8456 59.909 93.7653 62.9129 93.345 63.155C93.0498 63.3238 92.2114 63.2465 91.9101 63.0004C91.5247 62.6872 90.4956 60.4887 90.1348 59.8724C89.9852 59.6182 90.1676 59.3823 89.6469 59.488C89.7002 60.7124 90.1656 63.5739 89.815 64.6356C89.6285 65.1989 88.3821 64.8837 87.8737 64.9549C88.1013 63.8078 87.5765 56.1282 87.8737 55.7784C87.9967 55.634 89.3989 55.4997 89.7597 55.7641C90.5038 56.3072 92.1212 60.3768 92.6952 60.6595L95.4483 55.7763C95.7373 55.4265 97.5166 55.4997 97.5166 55.876Z" fill="#0966AE"/>
<path d="M187.058 63.1977V64.9549H180.564V55.876C180.564 55.8556 180.838 55.5831 180.859 55.5831H186.566C186.988 55.5831 186.988 57.3403 186.566 57.3403H182.532V59.488H186.074V61.05H182.532V63.1977H187.058Z" fill="#0966AE"/>
<path d="M253.472 64.961C252.807 64.8918 251.912 64.1617 251.733 64.1942C251.534 64.2288 251.215 64.7454 250.831 64.8674C247.879 65.8132 246.826 62.4025 247.578 60.0799C247.639 59.8866 248.22 58.5891 248.291 58.5443C248.58 58.3654 249.784 58.6013 250.229 58.5138C249.439 59.3477 248.447 63.5821 250.321 63.4072C251.358 63.3095 250.94 60.989 251.016 60.269H252.787C252.695 61.1415 252.588 64.479 254.181 63.1143C255.489 61.9957 253.597 58.6806 253.771 58.5118C254.187 58.5952 255.234 58.3715 255.511 58.5443C255.589 58.5931 256.208 60.0107 256.274 60.2263C256.961 62.4655 256.311 65.2518 253.472 64.961Z" fill="#0966AE"/>
<path d="M164.234 63.9787C164.103 64.7535 163.037 64.9915 162.358 64.9732C159.929 64.902 159.486 62.1726 160.005 60.2731C160.066 60.0453 160.64 58.5931 160.72 58.5443C161.015 58.3633 162.206 58.6033 162.655 58.5138C162.079 59.3721 160.864 63.2384 162.567 63.4031C163.836 63.5251 163.365 61.0256 163.443 60.269H165.214C165.037 61.052 165.185 64.1739 166.597 63.3034C167.801 62.5591 166.69 59.5023 166.198 58.5138C168.02 58.1071 168.645 59.1769 168.906 60.8039C169.432 64.1068 167.009 66.4558 164.234 63.9787Z" fill="#0966AE"/>
<path d="M206.729 67.2877C204.57 67.9995 203.679 66.3684 203.193 64.5644C201.823 66.0023 202.375 67.8734 199.653 67.2958L202.018 62.7258L199.653 58.5138C200.22 58.6033 201.364 58.3328 201.819 58.6074C202.17 58.8189 202.787 60.8507 203.096 60.8507C204.183 59.2765 203.892 58.0623 206.344 58.5138C206.587 58.7294 204.193 62.2337 204.193 62.9048C204.193 63.1062 205.296 65.3576 205.464 65.5325C206.028 66.1182 206.948 65.6871 206.729 67.2877Z" fill="#0966AE"/>
<path d="M231.73 60.3666V67.2978H229.762V60.5619C229.762 59.7361 227.204 59.6528 227.204 61.1476V64.9549H225.433V58.5118C226.226 58.644 227.29 58.0684 227.3 59.0975C228.261 58.1925 230.231 57.9362 231.146 58.9938C231.312 59.185 231.73 60.1877 231.73 60.3666Z" fill="#0966AE"/>
<path d="M132.349 58.5118V64.9549C131.535 64.9101 130.498 65.2966 130.576 64.1739C129.752 65.0301 129.178 65.1522 128.022 64.7597V67.2978H126.249V58.5118H128.02V62.5143C128.02 63.3055 129.684 63.4153 130.139 62.9577C130.646 62.4431 130.344 58.7498 130.578 58.5098C130.644 58.4406 132.04 58.5626 132.349 58.5118Z" fill="#0966AE"/>
<path d="M194.536 60.0738V64.9549H192.568V60.0738H190.6V64.9549H188.829V60.0738C187.382 60.3117 187.919 59.6467 187.845 58.5118H195.52C195.446 59.6467 195.983 60.3117 194.536 60.0738Z" fill="#0966AE"/>
<path d="M109.72 64.8552C109.226 64.9752 107.947 65.0912 107.553 64.8552C107.203 64.6437 106.145 62.4513 105.884 62.4289C105.739 62.4167 105.105 62.8967 105.032 63.1346C104.909 63.5373 105.071 64.8796 104.995 64.9529C104.923 65.0261 103.537 64.9 103.224 64.9529V58.5098H104.995V60.8527C106.588 59.6182 107.116 57.9708 109.521 58.5118C108.963 59.5612 107.957 60.2446 107.207 61.1435L109.72 64.8532V64.8552Z" fill="#0966AE"/>
<path d="M139.354 63.7834C139.561 64.6173 137.974 64.9101 137.376 64.963C136.213 65.0647 134.217 64.9752 133.68 63.7326C133.079 62.3455 134.51 61.7496 134.51 61.5381C134.508 61.3062 132.915 60.4948 134.21 59.0894C135.352 57.8488 138.044 58.2332 139.434 58.9064C138.827 60.9727 138.548 60.0127 137.173 59.8765C136.525 59.8134 134.903 60.088 135.887 60.7612C136.588 61.2432 138.253 60.0656 137.859 62.2215C135.248 61.8513 134.575 63.9156 137.675 63.3055C138.489 63.1468 138.985 62.2845 139.354 63.7834Z" fill="#0966AE"/>
<path d="M212.754 64.178C212.092 65.2518 207.401 65.4796 206.977 63.6451C206.553 61.8086 207.967 61.6561 207.918 61.5381C207.815 61.3042 207.282 61.0846 207.172 60.7185C206.29 57.8081 210.981 57.9342 212.641 58.9043C212.155 60.9564 211.708 59.9294 210.382 59.8683C207.85 59.7504 209.222 61.3469 211.067 60.8547C211.286 62.9638 210.784 61.9022 209.482 62.3109C208.92 62.4859 208.516 63.0675 209.287 63.2933C210.505 63.6512 211.175 63.1997 212.245 62.8072C212.178 63.1712 212.895 63.9502 212.754 64.178Z" fill="#0966AE"/>
<path d="M240.821 63.4478C240.514 62.0588 241.758 61.652 241.762 61.5381C241.762 61.4364 241.057 61.0358 240.977 60.5517C240.469 57.5132 246.198 58.0644 246.473 59.0304C246.524 59.2074 246.133 60.2121 246.075 60.2527C245.856 60.4093 243.902 59.4514 243.14 59.9721C242.853 60.1673 242.853 60.5659 243.14 60.7612C243.843 61.2432 245.505 60.0656 245.112 62.2215C241.752 61.7801 242.242 64.241 245.116 63.2994C245.485 63.1773 245.672 62.7685 246.094 62.8072C246.018 63.2404 246.621 63.6756 246.662 63.9176C246.858 65.0952 241.334 65.7623 240.821 63.4478Z" fill="#0966AE"/>
<path d="M176.037 58.5138C175.75 59.4148 173.887 64.7393 173.35 64.9224C172.999 65.0423 172.062 65.0322 171.8 64.7658C171.169 62.8092 169.933 60.7246 169.352 58.7965C169.244 58.4325 169.408 58.5403 169.637 58.5118C169.902 58.4772 171.165 58.461 171.288 58.5382L172.788 62.4187C173.11 61.9469 173.932 58.6664 174.09 58.5321C174.248 58.3959 175.662 58.587 176.037 58.5138Z" fill="#0966AE"/>
<path d="M263.414 58.5118C263.172 59.2969 261.257 64.8796 260.919 64.961C260.581 65.0423 259.4 65.022 259.183 64.7597L256.725 58.6074C257.071 58.4935 258.471 58.4142 258.664 58.5382C258.857 58.6623 259.927 62.677 260.263 62.4167C260.628 61.6154 261.128 58.6603 261.938 58.5118C262.383 58.4305 262.946 58.5606 263.414 58.5118Z" fill="#0966AE"/>
<path d="M196.504 63.2953V58.5118H198.472V63.1977C198.472 63.2485 199.405 63.2912 199.468 63.5129C200.142 65.8864 196.504 65.1644 196.504 63.2953Z" fill="#0966AE"/>
<path d="M216.767 64.7495C216.011 65.2579 213.822 64.8715 213.822 63.881V58.5118H215.79V62.3191C215.79 62.3903 215.546 62.5774 215.613 62.8621C215.734 63.3746 216.413 63.2994 216.534 63.4356C216.593 63.5048 216.808 64.6925 216.767 64.7495Z" fill="#0966AE"/>
<path d="M102.25 64.2776C102.242 65.6077 99.2878 65.0159 99.2878 63.6858V58.5118H101.059V62.9048C101.059 63.3014 102.258 63.1082 102.25 64.2776Z" fill="#0966AE"/>
<path d="M159.113 64.4668C158.898 65.5813 156.358 64.778 156.358 63.881V58.5118H158.129V63.1977C158.129 63.3482 159.421 62.8662 159.113 64.4668Z" fill="#0966AE"/>
<path d="M230.352 55.3879C229.94 56.777 229.331 58.1579 227.597 57.7288C227.505 57.6474 228.313 55.4855 228.417 55.4204C228.712 55.2394 229.903 55.4794 230.352 55.3879Z" fill="#51A7DF"/>
<path d="M159.31 55.3899C158.615 56.7261 158.41 57.9281 156.555 57.5356C156.467 57.4501 157.08 55.4753 157.172 55.4143C157.451 55.2374 158.851 55.4835 159.31 55.3899Z" fill="#0966AE"/>
<path d="M224.203 60.8039C223.678 57.7613 218.824 57.3668 217.745 60.1612C217.307 61.2961 217.139 65.6138 217.362 66.8097C217.516 67.6415 218.709 67.2022 219.33 67.2978V64.3692C222.239 66.045 224.762 64.0478 224.203 60.8039ZM221.568 63.1712C219.617 64.1922 218.627 61.4608 219.779 60.3239C221.456 58.6704 223.768 62.0201 221.568 63.1712Z" fill="#0966AE"/>
<path d="M113.356 58.3166C112.112 58.4325 110.708 59.5287 110.503 60.7571C110.187 62.6445 110.737 65.321 110.503 67.2978H112.274V64.3692C117.971 67.4849 119.387 57.7512 113.356 58.3166ZM112.723 62.9475C111.249 61.4852 113.434 58.8006 114.974 60.3239C116.415 61.7476 114.398 64.6071 112.723 62.9475Z" fill="#0966AE"/>
<path d="M155.341 63.7183C155.185 63.275 154.445 63.4234 154.37 62.5164C154.322 61.9245 154.948 58.6786 154.782 58.5118C154.029 58.6379 152.76 58.0806 153.008 59.0996C147.527 55.2699 145.955 65.7949 151.522 64.9427C152.067 64.8573 152.834 64.2044 152.914 64.2044C153.078 64.2064 153.394 64.8105 153.738 64.9142C154.743 65.2132 155.768 64.9244 155.341 63.7183ZM151.639 63.3116C149.964 63.82 149.343 61.2778 150.311 60.3239C152.17 58.4874 153.861 62.6384 151.639 63.3116Z" fill="#0966AE"/>
<path d="M240.19 58.5118H235.172C235.1 58.5118 234.042 59.1016 233.903 59.2053C231.908 60.7185 232.646 64.4729 235.219 64.9081C238.474 65.4572 240.846 63.0696 239.009 60.0758C240.387 59.8867 240.266 59.8989 240.19 58.5118ZM236.531 63.3868C234.288 63.6695 233.962 60.446 236.01 60.1063C237.964 59.7829 238.316 63.1631 236.531 63.3868Z" fill="#0966AE"/>
<path d="M147.5 58.5118H142.482C141.334 58.5118 140.075 60.4663 140.04 61.5564C139.866 67.066 149.489 65.4654 146.319 60.0758C147.679 60.2629 147.556 59.6121 147.5 58.5118ZM143.841 63.3868C141.592 63.6675 141.277 60.4419 143.32 60.1063C145.272 59.787 145.721 63.1529 143.841 63.3868Z" fill="#0966AE"/>
<path d="M120.685 58.3633C116.872 59.0121 117.1 65.4694 122.214 64.9549C126.503 64.5217 125.992 57.4624 120.685 58.3633ZM121.618 63.4051C119.439 63.5007 119.391 60.1205 121.472 59.9192C123.555 59.7178 123.828 63.3095 121.618 63.4051Z" fill="#0966AE"/>
<path d="M102.436 17.1198V23.27C102.436 23.7683 101.983 25.3893 101.748 25.9058C100.823 27.9234 98.8081 28.5864 96.7295 28.8345V31.9585H93.4824C93.4619 31.9585 93.1872 31.6859 93.1872 31.6656V28.6393C91.0409 28.68 89.032 27.6631 88.2345 25.6455C88.0705 25.2367 87.6769 24.0144 87.6769 23.6605V17.1198H91.2192V23.6605C91.2192 24.3012 92.3672 25.7248 93.1872 25.5154L93.384 17.1198H96.7295V25.5154C97.6991 25.8875 98.8942 24.1629 98.8942 23.4653V17.1198H102.436Z" fill="#121212"/>
<path d="M115.031 25.4177V35.8634C114.523 35.9569 111.489 36.3494 111.489 35.7657V25.4177C111.489 25.2632 110.974 24.6734 110.78 24.5615C109.609 23.8883 107.947 25.0659 107.947 26.1987V31.9584H104.601V21.6105H107.947C107.986 21.6105 107.916 22.2633 107.949 22.3914C110.161 20.7013 113.846 21.0145 114.742 23.9473C114.791 24.1019 115.031 25.3364 115.031 25.4177Z" fill="#121212"/>
<path d="M162.459 31.9584H158.129L155.472 28.0576C155.325 28.2549 154.39 29.0481 154.39 29.1274V31.9584H151.045V21.6105H154.39V25.1249C155.028 24.8523 157.776 21.6105 158.031 21.6105H162.065C161.622 22.4382 157.924 25.4462 157.924 26.0035L162.459 31.9584Z" fill="#121212"/>
<path d="M183.671 31.1205C184.171 32.4344 183.921 33.8641 183.169 35.0315C181.806 37.1548 180.851 35.7983 179.19 34.7895C182.86 31.8385 177.86 31.7286 175.939 30.2012C172.675 27.602 174.34 22.1108 178.544 21.462C180.748 21.1223 183.026 21.5393 184.485 23.2965C184.522 23.5161 182.773 25.2713 182.601 25.2998C182.378 25.3384 181.496 24.5493 180.972 24.4273C178.971 23.9636 177.47 24.7934 177.821 26.9675C178.165 29.103 182.747 28.7003 183.671 31.1205Z" fill="#121212"/>
<path d="M137.14 31.7327C136.049 32.3855 133.686 32.2045 132.849 31.1693C132.724 31.0168 132.152 29.8108 132.152 29.7131V21.6105H135.498V28.1512C135.498 29.3369 136.949 28.8772 137.183 29.2128C137.408 29.5362 137.632 31.4378 137.14 31.7327Z" fill="#121212"/>
<path d="M171.117 16.7293C170.951 17.3069 168.897 20.8295 168.658 20.8295H165.804L167.182 16.7293H171.117Z" fill="#121212"/>
<path d="M167.598 21.2586C164.541 21.2586 162.065 23.7175 162.065 26.7499C162.065 29.7823 164.541 32.2391 167.598 32.2391C170.654 32.2391 173.133 29.7802 173.133 26.7499C173.133 23.7195 170.654 21.2586 167.598 21.2586ZM167.093 29.0196C164.88 28.6718 165.033 24.8544 167.122 24.3846C170.433 23.6382 170.705 29.585 167.093 29.0196Z" fill="#121212"/>
<path d="M130.529 25.074C129.994 21.9359 125.871 20.3841 123.229 22.0335C122.704 22.3609 121.72 23.6971 121.72 24.2463V28.5417C121.72 29.1477 120.742 28.4176 120.535 28.1552C118.873 26.0706 121.085 23.7317 121.72 21.8077C119.418 21.706 119.162 20.3353 117.702 22.603C115.152 26.5607 116.919 31.269 121.72 31.9584V36.0586H124.771C125.324 36.0586 124.955 32.534 125.076 31.9666C128.797 31.5375 131.181 28.8874 130.529 25.074ZM125.066 24.832C125.066 24.2483 126.624 24.0388 127.081 25.1757C127.702 26.7112 126.788 28.6942 125.066 28.8345V24.832Z" fill="#121212"/>
<path d="M149.456 29.2372C149.366 29.1579 148.798 29.3084 148.48 29.1315C147.469 28.564 148.669 22.8429 148.681 21.6105H145.532C145.497 21.7752 145.715 22.5745 145.241 22.3894C144.768 22.2043 144.345 21.6572 143.577 21.5006C136.205 20.0017 135.844 32.3733 142.648 32.1395C143.704 32.1028 145.284 31.0148 145.436 31.027C145.559 31.0371 146.055 31.6351 146.379 31.8018C147.418 32.3408 148.654 32.174 149.673 31.6351C149.741 31.3544 149.554 29.3247 149.456 29.2372ZM143.819 28.9871C140.526 29.7416 140.541 24.8706 142.722 24.3846C145.807 23.6971 145.702 28.5559 143.819 28.9871Z" fill="#121212"/>
<path d="M103.617 35.4729V49.921H100.075V42.1112L97.0923 47.3503C96.9755 47.4235 95.315 47.4337 95.0547 47.3849C94.1752 47.2181 92.484 42.8596 91.6128 42.1112V49.921H88.0705V35.4729H91.8096L95.8439 42.8942L99.8782 35.4729H103.617Z" fill="#121212"/>
<path d="M162.838 53.6144C159.437 54.973 157.781 52.87 156.85 49.921C156.356 50.342 154.972 53.8259 154.685 53.8259H151.045C151.422 52.3982 155.099 47.5171 155.103 46.5042C155.103 46.2968 153.359 42.9695 153.213 42.7925C152.668 42.1254 152.389 42.2963 151.637 42.5017C151.629 40.6591 150.354 39.4815 153.121 39.3717C155.735 39.2679 156.702 43.0813 157.047 43.0834L158.916 39.573H162.655C162.221 40.7018 158.734 45.7212 158.769 46.4696C158.785 46.8642 160.29 49.8885 160.601 50.2993C161.473 51.4464 162.198 50.9196 162.44 51.1128C162.538 51.1921 162.825 53.2463 162.838 53.6144Z" fill="#121212"/>
<path d="M186.074 39.573V49.921H182.925C182.886 49.921 182.956 49.2682 182.923 49.14C181.882 50.1244 180.762 50.3786 179.383 49.921V53.8259H176.037V39.573H179.383V46.1137C179.383 46.6547 180.445 47.2425 181.035 47.1855C181.753 47.1164 182.728 46.1991 182.728 45.528V39.573H186.074Z" fill="#121212"/>
<path d="M173.873 42.9898V53.8259H170.527V43.966C170.527 41.739 166.985 42.3573 166.985 43.5755V49.921H163.443V39.573H166.788C166.837 39.573 166.751 40.3947 166.79 40.5492C167.313 40.4801 167.581 40.0306 168.092 39.7927C169.853 38.973 172.22 39.2883 173.254 41.0658C173.413 41.3424 173.873 42.7519 173.873 42.9898Z" fill="#121212"/>
<path d="M239.798 39.573V49.921H236.847C236.806 49.921 236.701 49.26 236.648 49.14C235.629 50.2546 234.528 50.3379 233.108 49.921V53.8259H229.762V39.573H233.108V45.9185C233.108 45.9754 233.597 46.7971 233.704 46.8886C234.612 47.6533 236.453 46.734 236.453 45.9185V39.573H239.798Z" fill="#121212"/>
<path d="M258.65 46.5449C261.144 47.8364 263.553 47.4194 263.225 51.1982C263.149 52.0748 262.21 54.2103 261.319 54.3832C261.171 54.4116 258.726 53.0897 258.691 52.9453C258.748 52.4816 259.275 52.4145 259.568 52.0626C261.132 50.1854 257.875 49.742 256.653 49.1116C251.825 46.6283 253.213 40.1303 258.447 39.4286C260.796 39.1134 262.532 39.8293 264 41.6231C263.543 41.9526 262.393 43.4861 261.938 43.4861C261.554 43.484 261.272 42.9125 260.929 42.7213C258.016 41.1126 255.282 44.804 258.65 46.5449Z" fill="#121212"/>
<path d="M115.732 48.7516C113.547 50.3156 110.536 50.7427 107.99 49.7807C105.468 48.8289 104.929 46.1422 107.356 44.747C104.115 41.0252 108.135 39.093 111.79 39.3696C112.452 39.4205 115.113 40.0937 115.398 40.5797C115.613 40.9438 114.498 42.7702 114.107 42.8698C113.881 42.9268 111.963 42.1458 111.194 42.1539C110.728 42.158 109.253 42.402 109.609 43.0895C110.093 44.025 112.463 42.8739 112.67 43.966C113.256 47.0472 111.501 45.5951 109.906 46.1056C109.207 46.3273 109.093 46.8906 109.73 47.273C111.393 48.2716 113.678 46.4676 114.304 46.6262C114.56 46.6893 115.829 48.5889 115.732 48.7516Z" fill="#121212"/>
<path d="M205.753 42.3064V46.5042C205.753 47.5455 207.494 47.1327 208.113 46.7971C208.127 48.2085 209.847 49.2661 207.83 49.9291C206.747 50.2871 204.546 50.3074 203.601 49.6159C201.208 47.8689 202.744 43.0732 202.324 42.4875C202.043 42.097 200.206 42.4 199.653 42.3064V39.573H209.295V42.3064H205.753Z" fill="#121212"/>
<path d="M121.919 42.5993V46.1137C121.919 47.4682 123.635 47.2933 124.475 46.7971C124.557 48.4465 126.281 49.2254 124.045 49.98C122.454 50.5149 120.168 50.3807 119.197 48.8146C119.002 48.4973 118.574 47.3869 118.574 47.09V42.3064H116.015V39.573H125.461V42.3064H122.214C122.194 42.3064 121.919 42.579 121.919 42.5993Z" fill="#121212"/>
<path d="M215.956 49.5956C215.718 50.2769 213.588 50.2017 212.948 50.1041C211.729 49.9169 210.673 48.4424 210.673 47.2852V39.573H213.92C213.941 39.573 214.215 39.8455 214.215 39.8659V46.6995C214.408 47.3808 215.73 47.1245 215.792 47.1855C215.876 47.271 216.021 49.4044 215.956 49.5956Z" fill="#121212"/>
<path d="M250.425 34.8871C250.261 35.4342 248.39 38.792 248.162 38.792H245.309L246.489 34.8871H250.425Z" fill="#121212"/>
<path d="M247 39.3168C243.935 39.3168 241.453 41.7797 241.453 44.8182C241.453 47.8567 243.935 50.3217 247 50.3217C250.065 50.3217 252.545 47.8587 252.545 44.8182C252.545 41.7777 250.063 39.3168 247 39.3168ZM247.529 47.1469C244.532 47.8201 244.091 43.0284 246.233 42.5444C249.81 41.7349 249.753 46.6466 247.529 47.1469Z" fill="#121212"/>
<path d="M138.054 47.1876C137.941 47.0818 136.869 47.4926 136.683 46.4981C136.324 44.6067 137.166 41.5539 137.267 39.573H134.118C134.143 39.9228 134.151 40.3174 133.823 40.5452C131.31 38.1392 127.435 39.7052 126.499 42.8495C125.338 46.7503 127.893 51.1474 132.353 50.0247C132.819 49.9068 133.634 49.201 133.86 49.1644C134.18 49.1136 134.674 49.9902 135.41 50.1061C135.971 50.1935 137.853 50.2281 138.157 49.7278C138.224 49.62 138.148 47.275 138.054 47.1876ZM131.658 47.2059C129.106 47.2059 129.057 42.4712 131.654 42.4C134.262 42.3309 134.43 47.2059 131.658 47.2059Z" fill="#121212"/>
<path d="M143.663 39.573C143.308 39.573 141.518 40.3296 141.137 40.5818C137.568 42.9329 138.341 48.7007 142.472 49.9312C147.551 51.4464 152.084 47.0594 149.075 42.3085C149.294 42.2414 150.846 42.3939 150.846 42.3064V39.573H143.663ZM145.196 47.1449C141.865 47.9014 141.375 42.9329 144.108 42.5383C146.963 42.1275 147.529 46.614 145.196 47.1449Z" fill="#121212"/>
<path d="M221.199 39.573C216.271 39.573 214.4 47.5638 219.473 49.681C224.483 51.7738 229.875 47.2588 226.611 42.3085C226.831 42.2414 228.382 42.3939 228.382 42.3064V39.573H221.199ZM222.733 47.1449C219.439 47.8933 218.875 42.9898 221.644 42.5424C224.807 42.0319 224.912 46.6507 222.733 47.1449Z" fill="#121212"/>
<path d="M199.279 47.3015C198.966 46.8805 198.222 47.8221 198.076 46.311C197.859 44.0637 198.505 41.8183 198.47 39.573H195.518C195.469 39.573 195.342 40.3967 195.319 40.5492C192.994 38.43 189.452 39.3656 188.13 42.1031C186.264 45.9714 189.034 51.2125 193.753 50.0247C194.179 49.9169 195.184 49.1238 195.393 49.1583C195.637 49.201 196.041 49.9413 196.641 50.0756C197.08 50.1732 199.241 50.1854 199.427 49.8925C199.419 49.2865 199.61 47.7428 199.279 47.3015ZM193.054 47.1998C190.436 47.3096 190.262 42.5525 192.908 42.3471C195.821 42.1193 195.651 47.092 193.054 47.1998Z" fill="#121212"/>
</svg>
