<svg width="566" height="68" viewBox="0 0 566 68" fill="none" xmlns="http://www.w3.org/2000/svg">
<path d="M7.0084 32.9213H22.8464V39.0111H0V5.89844H22.27V11.9882H6.72022V18.6477H18.2395V24.3583H7.0084C6.98839 24.3583 6.72022 24.6223 6.72022 24.6422V32.6355C6.72022 32.6554 6.98839 32.9213 7.0084 32.9213Z" fill="#2871BE"/>
<path d="M53.8541 56.7107H48.957V49.2891H53.9502V50.621H50.494V52.1454L52.9936 52.2526L52.9896 53.4773H50.492L50.494 55.1883H53.8541C54.2564 55.1883 54.2564 56.7107 53.8541 56.7107Z" fill="#2871BE"/>
<path d="M60.0868 52.334H57.207V53.4753H60.0868V52.334Z" fill="#2871BE"/>
<path d="M58.6192 49.0859C56.4659 49.0859 54.7188 50.8168 54.7188 52.9506C54.7188 55.0844 56.4659 56.8173 58.6192 56.8173C60.7726 56.8173 62.5176 55.0864 62.5176 52.9506C62.5176 50.8148 60.7726 49.0859 58.6192 49.0859ZM59.0154 55.3623C55.4652 55.803 55.4572 50.785 58.317 50.4655C61.2629 50.138 61.9833 54.9931 59.0154 55.3623Z" fill="#2871BE"/>
<path d="M65.2753 52.5256V56.428C65.2753 56.7952 64.0485 56.7297 63.7383 56.7118V49.0996C65.6595 49.9392 66.7502 52.2973 68.5373 53.4764V49.2902H69.8821L70.0723 56.7138C69.716 56.7615 69.5059 56.7098 69.1997 56.5312C67.987 55.8266 66.6901 53.2838 65.2753 52.5256Z" fill="#2871BE"/>
<path d="M72.9581 49.2891C72.6739 50.3351 73.5385 56.2403 72.9701 56.6294C72.6779 56.8278 71.9875 56.6671 71.6133 56.7107V49.2891H72.9581Z" fill="#2871BE"/>
<path d="M71.4097 64.0256C71.4618 64.5655 73.9673 66.993 74.2995 67.7434C73.7132 67.6838 72.9207 67.8922 72.3823 67.6481C72.0621 67.5032 70.3791 65.1153 69.8808 64.6091C69.6966 64.4226 69.6306 64.2519 69.3084 64.3193V67.7453H67.7734V60.5142H69.3084V63.7497C69.7627 63.8688 69.6326 63.6326 69.7467 63.5055C70.9634 62.1558 71.7739 60.0061 73.9153 60.5162C73.6211 61.3697 71.3397 63.2931 71.4097 64.0256Z" fill="#2871BE"/>
<path d="M67.381 34.1599C65.7239 29.9737 64.7253 25.4977 63.0643 21.3095L56.352 38.8245C55.9618 39.2215 51.6731 39.0568 50.7865 39.3982C48.7493 39.5232 46.6479 39.2136 45.135 37.7507C42.4193 35.1226 40.7602 25.6307 38.9891 21.768C38.8871 21.5457 39.0812 21.4246 38.5889 21.5L31.9647 39.0091H25.1484C25.2365 38.36 25.5367 37.6752 25.7728 37.0579C28.4805 30.0035 31.8226 23.0344 34.4563 15.9799C35.4469 13.33 35.601 12.8457 34.3982 10.1442C32.8573 6.68248 30.3597 6.63087 26.8755 7.03778V1.32911C33.6798 0.0428699 37.6223 1.33109 40.2659 7.75236C43.4359 15.4479 45.6993 23.5604 48.7613 31.3036C49.1875 32.3219 50.8586 34.2512 51.7872 32.7784L59.6801 13.2228C58.9437 10.8508 58.3333 8.00841 55.6356 7.17077C54.0666 6.68446 52.8398 6.92464 51.2588 7.03778V1.32911C57.5028 0.0250055 61.9315 1.37873 64.4591 7.36728C67.8793 15.4718 69.9326 24.2253 73.5288 32.2524C74.4094 33.4176 75.426 33.358 76.7929 33.2985L76.5787 38.9893C71.5856 40.1921 69.1661 38.6657 67.381 34.1599Z" fill="#2871BE"/>
<path d="M74.6836 56.7082V49.2866C74.9938 49.2707 76.2206 49.2052 76.2206 49.5724V52.522C77.0071 52.129 78.3699 49.6419 78.9062 49.3798C79.3785 49.1496 80.111 49.3421 80.6333 49.2885L78.1378 52.8118L81.0216 56.611C78.6341 57.4486 77.8416 54.235 76.2206 53.0937V56.4244C76.2206 56.7916 74.9938 56.7261 74.6836 56.7082Z" fill="#2871BE"/>
<path d="M81.5659 67.4947C80.8355 66.5062 78.9843 60.8253 78.3359 60.4125C78.1918 60.3212 77.8696 60.2616 77.7635 60.3311C77.4273 60.5534 75.1179 66.8496 74.6836 67.7468C75.1019 67.6912 75.7242 67.854 76.0985 67.723C76.4627 67.596 76.3727 67.0362 76.5928 66.8814C76.7669 66.7603 79.5066 66.7266 79.6487 66.8199C79.7948 66.9171 79.7688 67.594 79.9029 67.7111C80.047 67.8381 81.708 68.1795 81.5659 67.4947ZM77.1792 65.4622L77.9476 63.1795C78.1798 63.0008 79.0403 65.1624 79.0964 65.4622H77.1792Z" fill="#2871BE"/>
<path d="M84.0917 60.5176H82.5547V67.7487H84.0917V60.5176Z" fill="#2871BE"/>
<path d="M84.9709 49.0781C82.8135 49.0781 81.0664 50.811 81.0664 52.9507C81.0664 55.0905 82.8135 56.8214 84.9709 56.8214C87.1282 56.8214 88.8773 55.0885 88.8773 52.9507C88.8773 50.813 87.1282 49.0781 84.9709 49.0781ZM84.4205 55.3346C81.8829 54.8186 82.075 50.7137 84.8168 50.4696C88.1989 50.1679 88.2689 56.1187 84.4205 55.3346Z" fill="#2871BE"/>
<path d="M91.2832 60.5222C91.1812 60.3078 90.915 60.2622 90.7169 60.3296C90.3306 60.4567 87.817 66.8343 87.5469 67.7473C87.9171 67.6739 88.8057 67.8744 89.0538 67.7176C89.1819 67.6382 89.1559 66.9692 89.5922 66.8263C89.8383 66.7469 92.4059 66.7211 92.516 66.8164C92.6061 66.8938 92.6061 67.6263 92.7541 67.7235C92.9903 67.8764 94.071 67.6679 94.4572 67.7454L91.2832 60.5222ZM90.0424 65.4627L90.8109 63.18C91.0791 62.9815 91.7655 65.2781 91.9616 65.4627H90.0424Z" fill="#2871BE"/>
<path d="M93.0115 10.4666H88.3086V0H96.1795C96.1915 0.645104 96.2136 1.27036 96.0935 1.91149C95.7793 3.58479 94.3644 7.34029 93.688 9.04138C93.4979 9.51975 93.3498 10.0735 93.0115 10.4666Z" fill="#2871BE"/>
<path d="M94.5883 52.8123C94.5583 52.2764 92.2128 50.216 92.3469 49.2891H97.7223V50.621H94.8425C94.9645 51.147 96.2954 52.4511 96.3154 52.8123C96.3334 53.1101 95.0066 54.7258 94.8425 55.1883H97.6262C97.9964 55.1883 97.9304 56.4031 97.9144 56.7107H92.3469C92.1928 55.7738 94.6183 53.388 94.5883 52.8123Z" fill="#2871BE"/>
<path d="M100.217 60.5147H101.752V67.9363L100.879 67.7557L96.9529 63.5596V67.7458H95.418V60.3241C95.7162 60.2725 95.8602 60.3539 96.0984 60.5047C97.4392 61.3642 98.688 63.8216 100.217 64.7009V60.5147Z" fill="#2871BE"/>
<path d="M100.603 52.8267C100.577 52.3126 98.3212 49.4146 98.4873 49.2915C100.825 48.7953 100.483 50.3614 101.749 51.5722C102.464 50.2503 102.794 48.8727 104.631 49.2915L102.55 52.9676C102.812 53.3885 105.025 56.5286 104.823 56.7112C102.824 57.1717 102.634 55.4766 101.655 54.242C100.599 55.4508 100.559 57.1797 98.4893 56.7112C98.1711 56.4274 100.637 53.4599 100.603 52.8267Z" fill="#2871BE"/>
<path d="M107.319 33.4933C107.181 33.3564 104.585 33.9419 103.951 32.1694C103.102 29.8053 104.015 25.5178 103.663 22.9255L104.245 14.2732H98.1992C97.5848 14.2732 98.2352 17.5325 97.6228 17.5047C97.4927 17.4987 96.358 16.0199 95.8617 15.6388C92.2674 12.8698 86.752 13.1716 83.0676 15.6408C74.9866 21.0577 76.1973 36.167 86.0535 39.063C89.2395 39.9979 93.0679 39.7994 95.7816 37.7589C96.2599 37.4016 97.3046 36.1015 97.6248 35.9705C97.947 35.8375 97.885 36.0975 97.953 36.2107C98.1871 36.6057 98.3152 37.092 98.5934 37.4791C100.377 39.9503 104.597 39.994 107.233 39.0233C107.231 38.3246 107.515 33.6898 107.319 33.4933ZM92.0053 33.4457C82.4453 34.7359 82.5913 21.1351 89.2215 20.0275C98.7515 18.4376 99.3239 32.4572 92.0053 33.4457Z" fill="#2871BE"/>
<path d="M108.279 63.5625H105.207V64.7038H108.279V63.5625Z" fill="#2871BE"/>
<path d="M106.768 60.2676C104.614 60.2676 102.867 61.9984 102.867 64.1342C102.867 66.27 104.614 68.0009 106.768 68.0009C108.921 68.0009 110.668 66.27 110.668 64.1342C110.668 61.9984 108.923 60.2676 106.768 60.2676ZM107.21 66.5956C103.764 67.0958 103.512 62.187 106.309 61.7027C109.697 61.1171 109.988 66.1926 107.21 66.5956Z" fill="#2871BE"/>
<path d="M110.968 56.7107H106.073C106.053 56.7107 105.785 56.4467 105.785 56.4269V49.2891H110.776V50.621H107.32V52.1434H110.008C110.38 54.1442 108.641 53.3304 107.32 53.4753C107.4 53.9676 107.04 55.2955 107.712 55.2994C109.211 55.3094 111.455 54.3745 110.968 56.7107Z" fill="#2871BE"/>
<path d="M113.351 63.1953C113.624 63.5764 115.421 63.2806 115.959 63.3699V64.7058C115.573 64.7693 113.55 64.6145 113.461 64.7038C113.385 64.7772 113.6 66.0833 113.269 66.4168H116.918V67.7487H111.734V60.5176H116.918C116.95 60.7875 116.968 61.8495 116.629 61.8495H113.461C113.391 61.8495 113.151 62.9908 113.351 63.1953Z" fill="#2871BE"/>
<path d="M115.487 49.8494C115.353 49.6131 115.045 49.0197 114.713 49.0991L111.543 56.7093H118.453C117.453 54.5675 116.646 51.876 115.487 49.8494ZM113.654 55.3774C113.446 55.1789 114.649 52.5647 114.901 52.1439C115.079 52.5568 116.346 54.9308 116.338 55.0936C116.31 55.5799 114.089 55.3159 113.654 55.3774Z" fill="#2871BE"/>
<path d="M119.414 56.7107V49.2891H120.949V56.4269C120.949 56.7941 119.724 56.7286 119.414 56.7107Z" fill="#2871BE"/>
<path d="M121.575 63.8465L124.408 67.6516C121.981 68.4991 121.268 65.2478 119.607 64.1323V67.7488H118.07V60.5177H119.607V63.7532C119.97 63.5567 120.288 63.1954 120.562 62.8917C120.878 62.5384 122.203 60.6348 122.335 60.5594C122.669 60.3669 123.752 60.607 124.214 60.5197L121.575 63.8465Z" fill="#2871BE"/>
<path d="M125.937 49.0996C123.792 49.0996 122.055 50.8225 122.055 52.9464C122.055 55.0703 123.792 56.7952 125.937 56.7952C128.082 56.7952 129.82 55.0723 129.82 52.9464C129.82 50.8205 128.08 49.0996 125.937 49.0996ZM126.227 55.3859C122.793 55.6916 122.777 50.5843 125.873 50.497C128.877 50.4116 129.137 55.1279 126.227 55.3859Z" fill="#2871BE"/>
<path d="M124.791 60.5176H131.127V61.8495H128.631V67.7487H127.095V61.8495H124.789L124.791 60.5176Z" fill="#2871BE"/>
<path d="M133.428 60.5176H131.891V67.7487H133.428V60.5176Z" fill="#2871BE"/>
<path d="M131.029 16.5534C128.337 13.3874 125.175 10.537 122.675 7.23211H133.81V1.52344H110.388C110.404 2.41864 110.182 3.28407 110.886 3.9788L119.986 13.8003C120.07 14.1972 119.826 14.0603 119.565 14.1357C114.08 15.7296 109.695 18.6594 109.067 24.8583C107.378 41.5576 130.963 44.7216 135.055 30.0668C136.578 24.6182 134.469 20.6006 131.029 16.5534ZM123.326 33.2824C113.822 34.386 113.3 20.5451 121.483 19.8484C130.428 19.0881 130.943 32.3991 123.326 33.2824Z" fill="#2871BE"/>
<path d="M136.303 49.0988C135.791 49.0492 135.575 49.603 135.371 49.9762C135.031 50.5994 132.395 56.457 132.659 56.7091C134.49 56.844 133.854 56.7964 134.416 55.8853C134.694 55.4367 137.082 55.4308 137.462 55.659C137.953 55.9568 137.812 57.2192 139.57 56.7091L136.303 49.0988ZM136.884 54.4244H135.157L135.925 51.9532C136.378 52.1358 137.056 54.2537 136.884 54.4244Z" fill="#2871BE"/>
<path d="M138.467 63.8414L141.493 67.7438C138.765 68.4167 138.343 65.3678 136.502 64.1292V67.7458H134.965V60.5147H136.502V63.7501C136.95 63.8652 136.822 63.6449 136.942 63.508C138.127 62.1403 138.941 60.0065 141.109 60.5167L138.467 63.8414Z" fill="#2871BE"/>
<path d="M145.33 53.4753V49.2891H146.867V56.7108C146.509 56.7604 146.301 56.7088 145.993 56.5301C144.744 55.8056 143.485 53.3086 142.068 52.5245V56.4269C142.068 56.7941 140.841 56.7286 140.531 56.7108V49.0985C140.853 49.0688 141.168 49.2792 141.396 49.4796C142.41 50.3709 143.573 51.9985 144.558 53.0049C144.778 53.2292 144.972 53.5329 145.33 53.4753Z" fill="#2871BE"/>
<path d="M145.348 60.2695C143.194 60.2695 141.449 62.0004 141.449 64.1342C141.449 66.268 143.194 68.0008 145.348 68.0008C147.501 68.0008 149.248 66.27 149.248 64.1342C149.248 61.9984 147.503 60.2695 145.348 60.2695ZM145.061 66.5935C142.368 66.2978 142.312 62.1155 144.897 61.7007C148.542 61.1131 148.624 66.9846 145.061 66.5935Z" fill="#2871BE"/>
<path d="M151.889 50.3044C151.743 50.0087 151.383 49.0103 150.995 49.1016C150.573 49.1988 148.067 55.8186 147.633 56.7118C148.077 56.6602 148.796 56.8468 149.172 56.6205C149.464 56.4439 149.452 55.7372 149.87 55.6003C150.118 55.5209 152.468 55.5268 152.592 55.6022C152.99 55.8484 152.612 57.2577 154.543 56.7118C154.795 56.4716 152.22 50.9773 151.889 50.3044ZM150.132 54.1453C150.126 54.0242 150.961 52.214 151.185 51.9559L152.048 54.4272C151.677 54.4093 150.156 54.5721 150.132 54.1453Z" fill="#2871BE"/>
<path d="M155.893 60.5176C156.237 62.4569 154.71 61.7363 153.397 61.8495V67.7487H151.86V61.8495H149.555V60.5176H155.893Z" fill="#2871BE"/>
<path d="M157.039 49.288V52.5234C158.704 51.394 159.184 48.7104 161.648 49.29L158.984 52.7735L162.03 56.7077L160.113 56.6144L157.039 53.0951V56.7096H155.504V49.288H157.039Z" fill="#2871BE"/>
<path d="M161.453 60.5176H162.988V67.7487H161.453V64.7038H158.189V67.6534C158.189 67.9174 156.652 67.8301 156.652 67.7487V60.5176H158.189V63.1814H161.453V60.5176Z" fill="#2871BE"/>
<path d="M164.328 29.5977C164.214 27.9006 164.498 26.263 164.534 24.6493C164.614 21.1776 164.672 17.7298 164.91 14.27H158.768L158.574 17.5055C156.609 15.5047 154.485 13.9564 151.566 13.7024C140.148 12.7139 135.145 26.0526 140.793 34.6573C144.675 40.5764 153.991 41.5212 158.48 35.7768C159.573 39.7566 164.692 40.3441 167.982 38.915V33.4922C164.916 33.8633 164.494 32.1364 164.328 29.5977ZM152.526 33.4902C142.824 34.4747 143.14 20.0383 151.247 19.8358C159.593 19.6254 159.723 32.7577 152.526 33.4902Z" fill="#2871BE"/>
<path d="M166.154 49.2956C166.066 49.0713 165.616 49.0276 165.498 49.107C165.154 49.3353 162.74 55.7664 162.418 56.7113C164.349 57.2571 163.971 55.8478 164.367 55.6017C164.491 55.5263 166.841 55.5203 167.089 55.5997C167.507 55.7367 167.495 56.4433 167.789 56.62C168.164 56.8462 168.884 56.6597 169.326 56.7113L166.154 49.2956ZM166.641 54.4266H164.914L165.682 51.9554C165.912 51.7728 166.821 54.246 166.641 54.4266Z" fill="#2871BE"/>
<path d="M170.096 61.8495H167.598V67.7487H166.063V61.8495H163.758L163.76 60.5176H170.094L170.096 61.8495Z" fill="#2871BE"/>
<path d="M173.178 60.4116C172.994 60.2945 172.807 60.3005 172.605 60.3322L169.523 67.746C169.944 67.6904 170.564 67.8532 170.938 67.7221C171.305 67.5951 171.212 67.0354 171.433 66.8805C171.619 66.7515 174.364 66.7297 174.489 66.819C174.633 66.9202 174.597 67.5455 174.751 67.7023C174.939 67.8909 176.472 68.2005 176.408 67.4939C175.605 66.4955 173.866 60.8523 173.178 60.4116ZM172.019 65.4613L172.789 63.1786C173.076 62.9583 173.804 65.239 173.938 65.4613H172.019Z" fill="#2871BE"/>
<path d="M176.045 56.7113V52.7156L173.838 55.1849C173.604 55.1849 172.471 53.5175 172.171 53.2277C172.001 53.063 172.013 52.8109 171.631 52.9062V56.7113C171.321 56.7291 170.094 56.7946 170.094 56.4274V49.3849C170.156 49.1685 170.412 49.0594 170.674 49.1904C171.401 49.5556 173.29 52.9081 174.028 52.9081C174.266 52.9081 176.454 49.5476 177 49.1884C177.176 48.9403 177.582 49.2936 177.582 49.3849V56.4274C177.582 56.7946 176.356 56.7291 176.045 56.7113Z" fill="#2871BE"/>
<path d="M182.58 67.7487H176.82L179.122 64.0389L176.82 60.5176H182.388C182.784 62.572 180.837 61.6728 179.51 61.8495C179.238 62.0837 180.859 63.5744 180.819 64.0071C180.779 64.4477 179.512 65.8511 179.316 66.4168H182.292C182.632 66.4168 182.612 67.4807 182.58 67.7487Z" fill="#2871BE"/>
<path d="M185.455 49.2902H186.99V52.8114C186.99 52.8769 186.595 53.7245 186.503 53.8515C185.677 54.9889 183.84 54.8956 183.728 55.0008C183.651 55.0723 183.78 56.4101 183.728 56.7138C181.178 57.079 182.669 55.9536 182.108 55.1775C181.928 54.9313 179.967 54.9849 179.145 53.5478C179.069 53.4149 178.734 52.4998 178.734 52.4303V49.2902H180.271V52.4303C180.271 53.1985 181.44 53.8853 182.191 53.6669V49.0996H183.728V53.6669C184.278 53.8853 185.455 53.0953 185.455 52.6209V49.2902Z" fill="#2871BE"/>
<path d="M193.135 49.2891H194.672V56.4269C194.672 56.7941 193.445 56.7286 193.135 56.7107V53.4753H189.871V56.4269C189.871 56.7941 188.646 56.7286 188.336 56.7107V49.2891H189.871V52.1434H193.135V49.2891Z" fill="#2871BE"/>
<path d="M201.198 55.3788V56.7107H195.629C195.917 55.2399 197.36 54.2276 197.866 52.8103C197.202 51.6114 196.037 50.6071 195.629 49.2891H201.004V50.621H198.124C198.249 51.2045 199.597 52.3637 199.597 52.8103C199.597 53.1597 197.998 55.0613 198.124 55.1863C199.133 55.4384 200.164 55.3888 201.198 55.3788Z" fill="#2871BE"/>
<path d="M194.286 33.1134H206.38V39.0126H181.998C182.046 38.4092 181.832 37.7164 182.18 37.1944C186.171 32.4266 190.946 28.1193 194.961 23.411C197.16 20.8306 199.679 17.6626 198.028 14.0838C196.59 10.9674 191.885 10.7074 189.979 13.524C189.793 13.798 189.293 14.8837 189.293 15.1299V19.0302H182.575C180.7 10.0802 188.238 3.78793 197.016 5.57041C203.758 6.942 207.234 13.7027 204.799 20.0307C202.795 25.2352 197.754 28.423 194.572 32.5417C194.424 32.7323 194.202 32.7819 194.286 33.1134Z" fill="#2871BE"/>
<path d="M218.911 34.9304C218.911 37.5148 216.797 39.6089 214.192 39.6089C211.586 39.6089 209.473 37.5148 209.473 34.9304C209.473 32.346 211.586 30.2539 214.192 30.2539C216.797 30.2539 218.911 32.348 218.911 34.9304Z" fill="#2871BE"/>
<path d="M233.219 5.38195C217.199 7.01952 218.094 38.0758 232.973 39.3878C241.056 40.1004 245.827 35.5807 247.408 28.0122C249.518 17.9128 246.238 4.05204 233.219 5.38195ZM239.878 29.6815C237.674 34.8721 231.608 34.3818 229.607 29.2131C228.006 25.0804 227.57 12.6647 233.592 11.6524C242.185 10.2073 241.983 24.7232 239.878 29.6815Z" fill="#2871BE"/>
<path d="M206.38 33.1134V39.0126H181.998C182.046 38.4092 181.832 37.7164 182.18 37.1944C186.171 32.4266 190.946 28.1193 194.961 23.411C197.16 20.8306 199.679 17.6626 198.028 14.0838C196.59 10.9674 191.885 10.7074 189.979 13.524C189.793 13.798 189.293 14.8837 189.293 15.1299V19.0302H182.575C180.7 10.0802 188.238 3.78793 197.016 5.57041C203.758 6.942 207.234 13.7027 204.799 20.0307C202.795 25.2352 197.754 28.423 194.572 32.5417C194.424 32.7323 194.202 32.7819 194.286 33.1134H206.38Z" fill="#03BBD8"/>
<path d="M218.911 34.9304C218.911 37.5148 216.797 39.6089 214.192 39.6089C211.586 39.6089 209.473 37.5148 209.473 34.9304C209.473 32.346 211.586 30.2539 214.192 30.2539C216.797 30.2539 218.911 32.348 218.911 34.9304Z" fill="#F8CE27"/>
<path d="M233.219 5.38195C217.199 7.01952 218.094 38.0758 232.973 39.3878C241.056 40.1004 245.827 35.5807 247.408 28.0122C249.518 17.9128 246.238 4.05204 233.219 5.38195ZM239.878 29.6815C237.674 34.8721 231.608 34.3818 229.607 29.2131C228.006 25.0804 227.57 12.6647 233.592 11.6524C242.185 10.2073 241.983 24.7232 239.878 29.6815Z" fill="#94CA3E"/>
<path d="M76.7929 33.2985L76.5787 38.9893C71.5856 40.1921 69.1661 38.6657 67.381 34.1599C65.7239 29.9737 64.7253 25.4977 63.0643 21.3095L56.352 38.8245C55.9618 39.2215 51.6731 39.0568 50.7865 39.3982C48.7493 39.5232 46.6479 39.2136 45.135 37.7507C42.4193 35.1226 40.7602 25.6307 38.9891 21.768C38.8871 21.5457 39.0812 21.4246 38.5889 21.5L31.9647 39.0091H25.1484C25.2365 38.36 25.5367 37.6752 25.7728 37.0579C28.4805 30.0035 31.8226 23.0344 34.4563 15.9799C35.4469 13.33 35.601 12.8457 34.3982 10.1442C32.8573 6.68248 30.3597 6.63087 26.8755 7.03778V1.32911C33.6798 0.0428699 37.6223 1.33109 40.2659 7.75236C43.4359 15.4479 45.6993 23.5604 48.7613 31.3036C49.1875 32.3219 50.8586 34.2512 51.7872 32.7784L59.6801 13.2228C58.9437 10.8508 58.3333 8.00841 55.6356 7.17077C54.0666 6.68446 52.8398 6.92464 51.2588 7.03778V1.32911C57.5028 0.0250055 61.9315 1.37873 64.4591 7.36728C67.8793 15.4718 69.9326 24.2253 73.5288 32.2524C74.4094 33.4176 75.426 33.358 76.7929 33.2985Z" fill="#2871BE"/>
<path d="M22.8464 32.9213V39.0111H0V5.89844H22.27V11.9882H6.72022V18.6477H18.2395V24.3583H7.0084C6.98839 24.3583 6.72022 24.6223 6.72022 24.6422V32.6355C6.72022 32.6554 6.98839 32.9213 7.0084 32.9213H22.8464Z" fill="#2871BE"/>
<path d="M96.0935 1.91149C95.7793 3.58479 94.3644 7.34029 93.688 9.04138C93.4979 9.51975 93.3498 10.0735 93.0115 10.4666H88.3086V0H96.1795C96.1915 0.645104 96.2136 1.27036 96.0935 1.91149Z" fill="#2871BE"/>
<path d="M107.319 33.4933C107.181 33.3564 104.585 33.9419 103.951 32.1694C103.102 29.8053 104.015 25.5178 103.663 22.9255L104.245 14.2732H98.1992C97.5848 14.2732 98.2352 17.5325 97.6228 17.5047C97.4927 17.4987 96.358 16.0199 95.8617 15.6388C92.2674 12.8698 86.752 13.1716 83.0676 15.6408C74.9866 21.0577 76.1973 36.167 86.0535 39.063C89.2395 39.9979 93.0679 39.7994 95.7816 37.7589C96.2599 37.4016 97.3046 36.1015 97.6248 35.9705C97.947 35.8375 97.885 36.0975 97.953 36.2107C98.1871 36.6057 98.3152 37.092 98.5934 37.4791C100.377 39.9503 104.597 39.994 107.233 39.0233C107.231 38.3246 107.515 33.6898 107.319 33.4933ZM92.0053 33.4457C82.4453 34.7359 82.5913 21.1351 89.2215 20.0275C98.7515 18.4376 99.3239 32.4572 92.0053 33.4457Z" fill="#2871BE"/>
<path d="M131.029 16.5534C128.337 13.3874 125.175 10.537 122.675 7.23211H133.81V1.52344H110.388C110.404 2.41864 110.182 3.28407 110.886 3.9788L119.986 13.8003C120.07 14.1972 119.826 14.0603 119.565 14.1357C114.08 15.7296 109.695 18.6594 109.067 24.8583C107.378 41.5576 130.963 44.7216 135.055 30.0668C136.578 24.6182 134.469 20.6006 131.029 16.5534ZM123.326 33.2824C113.822 34.386 113.3 20.5451 121.483 19.8484C130.428 19.0881 130.943 32.3991 123.326 33.2824Z" fill="#2871BE"/>
<path d="M164.328 29.5977C164.214 27.9006 164.498 26.263 164.534 24.6493C164.614 21.1776 164.672 17.7298 164.91 14.27H158.768L158.574 17.5055C156.609 15.5047 154.485 13.9564 151.566 13.7024C140.148 12.7139 135.145 26.0526 140.793 34.6573C144.675 40.5764 153.991 41.5212 158.48 35.7768C159.573 39.7566 164.692 40.3441 167.982 38.915V33.4922C164.916 33.8633 164.494 32.1364 164.328 29.5977ZM152.526 33.4902C142.824 34.4747 143.14 20.0383 151.247 19.8358C159.593 19.6254 159.723 32.7577 152.526 33.4902Z" fill="#2871BE"/>
<path d="M177.582 49.3849V56.4274C177.582 56.7946 176.356 56.7291 176.045 56.7113V52.7156L173.838 55.1849C173.604 55.1849 172.471 53.5175 172.171 53.2277C172.001 53.063 172.013 52.8109 171.631 52.9062V56.7113C171.321 56.7291 170.094 56.7946 170.094 56.4274V49.3849C170.156 49.1685 170.412 49.0594 170.674 49.1904C171.401 49.5556 173.29 52.9081 174.028 52.9081C174.266 52.9081 176.454 49.5476 177 49.1884C177.176 48.9403 177.582 49.2936 177.582 49.3849Z" fill="#2871BE"/>
<path d="M186.99 49.2902V52.8114C186.99 52.8769 186.595 53.7245 186.503 53.8515C185.677 54.9889 183.84 54.8956 183.728 55.0008C183.651 55.0723 183.78 56.4101 183.728 56.7138C181.178 57.079 182.669 55.9536 182.108 55.1775C181.928 54.9313 179.967 54.9849 179.145 53.5478C179.069 53.4149 178.734 52.4998 178.734 52.4303V49.2902H180.271V52.4303C180.271 53.1985 181.44 53.8853 182.191 53.6669V49.0996H183.728V53.6669C184.278 53.8853 185.455 53.0953 185.455 52.6209V49.2902H186.99Z" fill="#2871BE"/>
<path d="M146.867 49.2891V56.7108C146.509 56.7604 146.301 56.7088 145.993 56.5301C144.744 55.8056 143.485 53.3086 142.068 52.5245V56.4269C142.068 56.7941 140.841 56.7286 140.531 56.7108V49.0985C140.853 49.0688 141.168 49.2792 141.396 49.4796C142.41 50.3709 143.573 51.9985 144.558 53.0049C144.778 53.2292 144.972 53.5329 145.33 53.4753V49.2891H146.867Z" fill="#2871BE"/>
<path d="M70.0723 56.7138C69.716 56.7615 69.5059 56.7098 69.1997 56.5312C67.987 55.8266 66.6901 53.2838 65.2753 52.5256V56.428C65.2753 56.7952 64.0485 56.7297 63.7383 56.7118V49.0996C65.6595 49.9392 66.7502 52.2973 68.5373 53.4764V49.2902H69.8821L70.0723 56.7138Z" fill="#2871BE"/>
<path d="M194.672 49.2891V56.4269C194.672 56.7941 193.445 56.7286 193.135 56.7107V53.4753H189.871V56.4269C189.871 56.7941 188.646 56.7286 188.336 56.7107V49.2891H189.871V52.1434H193.135V49.2891H194.672Z" fill="#2871BE"/>
<path d="M162.03 56.7077L160.113 56.6144L157.039 53.0951V56.7096H155.504V49.288H157.039V52.5234C158.704 51.394 159.184 48.7104 161.648 49.29L158.984 52.7735L162.03 56.7077Z" fill="#2871BE"/>
<path d="M81.0216 56.611C78.6341 57.4486 77.8416 54.235 76.2206 53.0937V56.4244C76.2206 56.7916 74.9938 56.7261 74.6836 56.7082V49.2866C74.9938 49.2707 76.2206 49.2052 76.2206 49.5724V52.522C77.0071 52.129 78.3699 49.6419 78.9062 49.3798C79.3785 49.1496 80.111 49.3421 80.6333 49.2885L78.1378 52.8118L81.0216 56.611Z" fill="#2871BE"/>
<path d="M110.968 56.7107H106.073C106.053 56.7107 105.785 56.4467 105.785 56.4269V49.2891H110.776V50.621H107.32V52.1434H110.008C110.38 54.1442 108.641 53.3304 107.32 53.4753C107.4 53.9676 107.04 55.2955 107.712 55.2994C109.211 55.3094 111.455 54.3745 110.968 56.7107Z" fill="#2871BE"/>
<path d="M53.8541 56.7107H48.957V49.2891H53.9502V50.621H50.494V52.1454L52.9936 52.2526L52.9896 53.4773H50.492L50.494 55.1883H53.8541C54.2564 55.1883 54.2564 56.7107 53.8541 56.7107Z" fill="#2871BE"/>
<path d="M104.823 56.7112C102.824 57.1717 102.634 55.4766 101.655 54.242C100.599 55.4508 100.559 57.1797 98.4893 56.7112C98.1711 56.4274 100.637 53.4599 100.603 52.8267C100.577 52.3126 98.3212 49.4146 98.4873 49.2915C100.825 48.7953 100.483 50.3614 101.749 51.5722C102.464 50.2503 102.794 48.8727 104.631 49.2915L102.55 52.9676C102.812 53.3885 105.025 56.5286 104.823 56.7112Z" fill="#2871BE"/>
<path d="M97.9144 56.7107H92.3469C92.1928 55.7738 94.6183 53.388 94.5883 52.8123C94.5583 52.2764 92.2128 50.216 92.3469 49.2891H97.7223V50.621H94.8425C94.9645 51.147 96.2954 52.4511 96.3154 52.8123C96.3334 53.1101 95.0066 54.7258 94.8425 55.1883H97.6262C97.9964 55.1883 97.9304 56.4031 97.9144 56.7107Z" fill="#2871BE"/>
<path d="M201.198 55.3788V56.7107H195.629C195.917 55.2399 197.36 54.2276 197.866 52.8103C197.202 51.6114 196.037 50.6071 195.629 49.2891H201.004V50.621H198.124C198.249 51.2045 199.597 52.3637 199.597 52.8103C199.597 53.1597 197.998 55.0613 198.124 55.1863C199.133 55.4384 200.164 55.3888 201.198 55.3788Z" fill="#2871BE"/>
<path d="M120.949 49.2891V56.4269C120.949 56.7941 119.724 56.7286 119.414 56.7107V49.2891H120.949Z" fill="#2871BE"/>
<path d="M72.9701 56.6294C72.6779 56.8278 71.9875 56.6671 71.6133 56.7107V49.2891H72.9581C72.6739 50.3351 73.5385 56.2403 72.9701 56.6294Z" fill="#2871BE"/>
<path d="M84.9709 49.0781C82.8135 49.0781 81.0664 50.811 81.0664 52.9507C81.0664 55.0905 82.8135 56.8214 84.9709 56.8214C87.1282 56.8214 88.8773 55.0885 88.8773 52.9507C88.8773 50.813 87.1282 49.0781 84.9709 49.0781ZM84.4205 55.3346C81.8829 54.8186 82.075 50.7137 84.8168 50.4696C88.1989 50.1679 88.2689 56.1187 84.4205 55.3346Z" fill="#2871BE"/>
<path d="M125.937 49.0996C123.792 49.0996 122.055 50.8225 122.055 52.9464C122.055 55.0703 123.792 56.7952 125.937 56.7952C128.082 56.7952 129.82 55.0723 129.82 52.9464C129.82 50.8205 128.08 49.0996 125.937 49.0996ZM126.227 55.3859C122.793 55.6916 122.777 50.5843 125.873 50.497C128.877 50.4116 129.137 55.1279 126.227 55.3859Z" fill="#2871BE"/>
<path d="M115.487 49.8494C115.353 49.6131 115.045 49.0197 114.713 49.0991L111.543 56.7093H118.453C117.453 54.5675 116.646 51.876 115.487 49.8494ZM113.654 55.3774C113.446 55.1789 114.649 52.5647 114.901 52.1439C115.079 52.5568 116.346 54.9308 116.338 55.0936C116.31 55.5799 114.089 55.3159 113.654 55.3774Z" fill="#2871BE"/>
<path d="M151.889 50.3044C151.743 50.0087 151.383 49.0103 150.995 49.1016C150.573 49.1988 148.067 55.8186 147.633 56.7118C148.077 56.6602 148.796 56.8468 149.172 56.6205C149.464 56.4439 149.452 55.7372 149.87 55.6003C150.118 55.5209 152.468 55.5268 152.592 55.6022C152.99 55.8484 152.612 57.2577 154.543 56.7118C154.795 56.4716 152.22 50.9773 151.889 50.3044ZM150.132 54.1453C150.126 54.0242 150.961 52.214 151.185 51.9559L152.048 54.4272C151.677 54.4093 150.156 54.5721 150.132 54.1453Z" fill="#2871BE"/>
<path d="M136.303 49.0988C135.791 49.0492 135.575 49.603 135.371 49.9762C135.031 50.5994 132.395 56.457 132.659 56.7091C134.49 56.844 133.854 56.7964 134.416 55.8853C134.694 55.4367 137.082 55.4308 137.462 55.659C137.953 55.9568 137.812 57.2192 139.57 56.7091L136.303 49.0988ZM136.884 54.4244H135.157L135.925 51.9532C136.378 52.1358 137.056 54.2537 136.884 54.4244Z" fill="#2871BE"/>
<path d="M60.0868 52.334H57.207V53.4753H60.0868V52.334Z" fill="#2871BE"/>
<path d="M58.6192 49.0859C56.4659 49.0859 54.7188 50.8168 54.7188 52.9506C54.7188 55.0844 56.4659 56.8173 58.6192 56.8173C60.7726 56.8173 62.5176 55.0864 62.5176 52.9506C62.5176 50.8148 60.7726 49.0859 58.6192 49.0859ZM59.0154 55.3623C55.4652 55.803 55.4572 50.785 58.317 50.4655C61.2629 50.138 61.9833 54.9931 59.0154 55.3623Z" fill="#2871BE"/>
<path d="M60.0868 52.334H57.207V53.4753H60.0868V52.334Z" fill="#2871BE"/>
<path d="M60.0868 52.334H57.207V53.4753H60.0868V52.334Z" fill="#2871BE"/>
<path d="M166.154 49.2956C166.066 49.0713 165.616 49.0276 165.498 49.107C165.154 49.3353 162.74 55.7664 162.418 56.7113C164.349 57.2571 163.971 55.8478 164.367 55.6017C164.491 55.5263 166.841 55.5203 167.089 55.5997C167.507 55.7367 167.495 56.4433 167.789 56.62C168.164 56.8462 168.884 56.6597 169.326 56.7113L166.154 49.2956ZM166.641 54.4266H164.914L165.682 51.9554C165.912 51.7728 166.821 54.246 166.641 54.4266Z" fill="#2871BE"/>
<path d="M101.752 60.5147V67.9363L100.879 67.7557L96.9529 63.5596V67.7458H95.418V60.3241C95.7162 60.2725 95.8602 60.3539 96.0984 60.5047C97.4392 61.3642 98.688 63.8216 100.217 64.7009V60.5147H101.752Z" fill="#2871BE"/>
<path d="M162.988 60.5176V67.7487H161.453V64.7038H158.189V67.6534C158.189 67.9174 156.652 67.8301 156.652 67.7487V60.5176H158.189V63.1814H161.453V60.5176H162.988Z" fill="#2871BE"/>
<path d="M74.2995 67.7434C73.7132 67.6838 72.9207 67.8922 72.3823 67.6481C72.0621 67.5032 70.3791 65.1153 69.8808 64.6091C69.6966 64.4226 69.6306 64.2519 69.3084 64.3193V67.7453H67.7734V60.5142H69.3084V63.7497C69.7627 63.8688 69.6326 63.6326 69.7467 63.5055C70.9634 62.1558 71.7739 60.0061 73.9153 60.5162C73.6211 61.3697 71.3397 63.2931 71.4097 64.0256C71.4618 64.5655 73.9673 66.993 74.2995 67.7434Z" fill="#2871BE"/>
<path d="M113.269 66.4168H116.918V67.7487H111.734V60.5176H116.918C116.95 60.7875 116.968 61.8495 116.629 61.8495H113.461C113.391 61.8495 113.151 62.9908 113.351 63.1953C113.624 63.5764 115.421 63.2806 115.959 63.3699V64.7058C115.573 64.7693 113.55 64.6145 113.461 64.7038C113.385 64.7772 113.6 66.0833 113.269 66.4168Z" fill="#2871BE"/>
<path d="M141.493 67.7438C138.765 68.4167 138.343 65.3678 136.502 64.1292V67.7458H134.965V60.5147H136.502V63.7501C136.95 63.8652 136.822 63.6449 136.942 63.508C138.127 62.1403 138.941 60.0065 141.109 60.5167L138.467 63.8414L141.493 67.7438Z" fill="#2871BE"/>
<path d="M124.408 67.6516C121.981 68.4991 121.268 65.2478 119.607 64.1323V67.7488H118.07V60.5177H119.607V63.7532C119.97 63.5567 120.288 63.1954 120.562 62.8917C120.878 62.5384 122.203 60.6348 122.335 60.5594C122.669 60.3669 123.752 60.607 124.214 60.5197L121.575 63.8465L124.408 67.6516Z" fill="#2871BE"/>
<path d="M182.58 67.7487H176.82L179.122 64.0389L176.82 60.5176H182.388C182.784 62.572 180.837 61.6728 179.51 61.8495C179.238 62.0837 180.859 63.5744 180.819 64.0071C180.779 64.4477 179.512 65.8511 179.316 66.4168H182.292C182.632 66.4168 182.612 67.4807 182.58 67.7487Z" fill="#2871BE"/>
<path d="M131.127 60.5176V61.8495H128.631V67.7487H127.095V61.8495H124.789L124.791 60.5176H131.127Z" fill="#2871BE"/>
<path d="M170.096 61.8495H167.598V67.7487H166.063V61.8495H163.758L163.76 60.5176H170.094L170.096 61.8495Z" fill="#2871BE"/>
<path d="M153.397 61.8495V67.7487H151.86V61.8495H149.555V60.5176H155.893C156.237 62.4569 154.71 61.7363 153.397 61.8495Z" fill="#2871BE"/>
<path d="M84.0917 60.5176H82.5547V67.7487H84.0917V60.5176Z" fill="#2871BE"/>
<path d="M133.428 60.5176H131.891V67.7487H133.428V60.5176Z" fill="#2871BE"/>
<path d="M145.348 60.2695C143.194 60.2695 141.449 62.0004 141.449 64.1342C141.449 66.268 143.194 68.0008 145.348 68.0008C147.501 68.0008 149.248 66.27 149.248 64.1342C149.248 61.9984 147.503 60.2695 145.348 60.2695ZM145.061 66.5935C142.368 66.2978 142.312 62.1155 144.897 61.7007C148.542 61.1131 148.624 66.9846 145.061 66.5935Z" fill="#2871BE"/>
<path d="M81.5659 67.4947C80.8355 66.5062 78.9843 60.8253 78.3359 60.4125C78.1918 60.3212 77.8696 60.2616 77.7635 60.3311C77.4273 60.5534 75.1179 66.8496 74.6836 67.7468C75.1019 67.6912 75.7242 67.854 76.0985 67.723C76.4627 67.596 76.3727 67.0362 76.5928 66.8814C76.7669 66.7603 79.5066 66.7266 79.6487 66.8199C79.7948 66.9171 79.7688 67.594 79.9029 67.7111C80.047 67.8381 81.708 68.1795 81.5659 67.4947ZM77.1792 65.4622L77.9476 63.1795C78.1798 63.0008 79.0403 65.1624 79.0964 65.4622H77.1792Z" fill="#2871BE"/>
<path d="M173.178 60.4116C172.994 60.2945 172.807 60.3005 172.605 60.3322L169.523 67.746C169.944 67.6904 170.564 67.8532 170.938 67.7221C171.305 67.5951 171.212 67.0354 171.433 66.8805C171.619 66.7515 174.364 66.7297 174.489 66.819C174.633 66.9202 174.597 67.5455 174.751 67.7023C174.939 67.8909 176.472 68.2005 176.408 67.4939C175.605 66.4955 173.866 60.8523 173.178 60.4116ZM172.019 65.4613L172.789 63.1786C173.076 62.9583 173.804 65.239 173.938 65.4613H172.019Z" fill="#2871BE"/>
<path d="M91.2832 60.5222C91.1812 60.3078 90.915 60.2622 90.7169 60.3296C90.3306 60.4567 87.817 66.8343 87.5469 67.7473C87.9171 67.6739 88.8057 67.8744 89.0538 67.7176C89.1819 67.6382 89.1559 66.9692 89.5922 66.8263C89.8383 66.7469 92.4059 66.7211 92.516 66.8164C92.6061 66.8938 92.6061 67.6263 92.7541 67.7235C92.9903 67.8764 94.071 67.6679 94.4572 67.7454L91.2832 60.5222ZM90.0424 65.4627L90.8109 63.18C91.0791 62.9815 91.7655 65.2781 91.9616 65.4627H90.0424Z" fill="#2871BE"/>
<path d="M108.279 63.5625H105.207V64.7038H108.279V63.5625Z" fill="#2871BE"/>
<path d="M106.768 60.2676C104.614 60.2676 102.867 61.9984 102.867 64.1342C102.867 66.27 104.614 68.0009 106.768 68.0009C108.921 68.0009 110.668 66.27 110.668 64.1342C110.668 61.9984 108.923 60.2676 106.768 60.2676ZM107.21 66.5956C103.764 67.0958 103.512 62.187 106.309 61.7027C109.697 61.1171 109.988 66.1926 107.21 66.5956Z" fill="#2871BE"/>
<path d="M108.279 63.5625H105.207V64.7038H108.279V63.5625Z" fill="#2871BE"/>
<path d="M108.279 63.5625H105.207V64.7038H108.279V63.5625Z" fill="#2871BE"/>
<path d="M352.719 7.27262H272V60.87H352.719V7.27262Z" fill="#2871BE"/>
<path d="M364.055 32.5731H361.87V30.667H368.562V32.5731H366.377V39.3747H364.259C364.245 39.3747 364.055 39.1852 364.055 39.1714V32.5731Z" fill="#2871BE"/>
<path d="M369.517 50.3926H370.882V60.8677C370.354 60.8146 369.684 61.0618 369.306 60.602L364.055 52.8416V60.6644C364.055 60.9624 362.945 60.8585 362.69 60.8677V50.3926L364.166 50.4204L369.52 58.4164V50.3903L369.517 50.3926Z" fill="#2871BE"/>
<path d="M364.873 19.2424H362.688V7.27262H366.171L368.56 15.1624L370.611 7.27262H374.298V19.2424H371.976V10.2645L369.642 19.2286L367.274 19.2494L364.873 10.1282V19.2424Z" fill="#2871BE"/>
<path d="M372.553 33.488C372.525 33.6035 372.386 34.4814 372.386 34.5461V39.3747H370.268C370.254 39.3747 370.064 39.1852 370.064 39.1714V30.6693H372.249C372.305 30.6693 372.154 31.6281 372.317 31.7575C373.42 30.3182 376.036 29.8469 377.357 31.2261C377.507 31.3832 377.985 32.215 377.985 32.3698V42.6392H375.8C375.688 40.1117 375.948 37.4617 375.804 34.9481C375.779 34.4906 375.7 33.5111 375.598 33.1137C375.213 31.612 372.896 32.0555 372.553 33.488Z" fill="#2871BE"/>
<path d="M378.2 58.2732C378.115 58.2847 378.047 58.7607 377.913 58.9571C376.486 61.0317 373.906 59.5416 373.89 57.3306H379.626C379.734 51.5178 372.106 51.5802 372.655 57.8111C373.003 61.7502 378.689 62.1407 379.489 58.4187C379.081 58.5343 378.543 58.227 378.2 58.2732ZM378.122 56.3787H374.024C374.05 53.47 378.272 53.3753 378.122 56.3787Z" fill="#2871BE"/>
<path d="M377.438 14.8875C377.148 14.162 376.451 13.9841 376.374 13.0138C376.184 10.5926 378.96 10.2044 380.77 10.4147C381.046 10.447 382.678 10.9692 382.759 11.087C382.93 11.3342 381.744 12.5563 381.537 12.6488C381.415 12.7042 379.602 11.8332 378.933 12.5009C377.667 13.7647 380.752 13.8247 380.833 13.9564C380.967 14.1736 380.775 15.3449 380.854 15.7053C379.941 15.3981 377.528 16.0865 378.673 17.2648C379.73 18.353 381.415 16.7542 381.723 16.805C381.846 16.8258 383.296 18.2582 383.176 18.4223C381.401 19.3326 378.465 20.0464 376.826 18.5609C375.612 17.4589 375.839 15.4212 377.44 14.8875H377.438Z" fill="#2871BE"/>
<path d="M384.585 56.857L387.273 60.8677C386.87 60.8238 386.36 60.9416 385.977 60.8677C385.384 60.7522 384.385 58.4788 383.79 58.0167C383.544 58.0167 382.126 60.6112 381.809 60.803C381.482 60.9994 380.708 60.8076 380.307 60.87L382.895 56.857L380.441 53.2552C380.865 53.3245 381.741 53.1188 382.08 53.3222C382.351 53.4839 383.347 55.2929 383.586 55.7018C383.811 55.7526 383.862 55.6279 383.991 55.4962C384.358 55.1219 385.215 53.4908 385.495 53.3222C385.822 53.1258 386.596 53.3175 386.997 53.2552L384.585 56.8593V56.857Z" fill="#2871BE"/>
<path d="M387.28 39.0281C387.653 40.1348 387.444 41.3477 386.499 42.0731C386.269 42.2487 385.227 42.7755 385.02 42.7755H382.358C382.272 42.69 382.689 40.7978 382.773 40.7378C382.898 40.6477 385.59 41.4517 385.064 39.742C384.909 39.2407 382.545 38.8525 381.897 38.5406C379.584 37.4363 379.366 34.8418 380.61 32.8041C382.05 30.4476 385.213 29.93 387.688 30.8057L387.278 32.7094C385.514 32.1942 382.942 32.4067 382.156 34.3405C380.787 37.7135 386.476 36.6231 387.284 39.0258L387.28 39.0281Z" fill="#2871BE"/>
<path d="M391.226 60.8608C390.39 61.0895 388.844 61.0271 388.647 59.9759C388.582 59.6247 388.52 58.8785 388.496 58.4927C388.459 57.8804 388.652 54.4842 388.503 54.3364C388.45 54.2832 387.736 54.3918 387.683 54.3364C387.644 54.2971 387.644 53.2852 387.683 53.2482C387.727 53.2043 388.334 53.2782 388.503 53.2482V51.3445C389.016 51.2405 389.4 50.7392 389.868 50.6653V53.2505H391.099V54.2601C391.071 54.4473 389.866 54.2763 389.866 54.3387V59.3036C389.866 59.7426 390.948 59.5855 391.076 59.6617C391.203 59.7379 391.303 60.7799 391.222 60.8608H391.226Z" fill="#2871BE"/>
<path d="M390.686 12.4408H388.501V10.5371H395.194V12.4408H393.008V19.2424H390.686V12.4408Z" fill="#2871BE"/>
<path d="M397.379 55.5632H401.749V59.5069C399.509 60.9693 396.908 61.6001 394.471 60.1607C390.941 58.0768 391.523 51.6033 395.634 50.492C398.132 49.8174 401.175 50.4804 401.61 53.3799C401.362 53.3961 400.542 53.7519 400.398 53.6479C400.327 53.5971 400 52.5644 399.497 52.1624C397.727 50.7508 394.726 51.5594 393.94 53.701C392.568 57.4392 395.175 60.87 399.205 59.3544C400.709 58.7884 400.586 58.3009 400.521 56.7876H397.585C397.3 56.7876 397.381 55.7896 397.381 55.5632H397.379Z" fill="#2871BE"/>
<path d="M393.829 39.3747V27.2685H402.707V29.3086H396.287V32.0301H402.296V34.0702H396.287V37.3347H402.98C402.936 37.6673 403.124 39.3747 402.776 39.3747H393.829Z" fill="#2871BE"/>
<path d="M399.02 19.2424H396.698V10.5371H398.883C398.939 10.5371 398.788 11.4959 398.95 11.6253C400.081 10.2483 402.753 9.82785 404.011 11.2117C404.16 11.3735 404.621 12.2237 404.621 12.3738V22.5069H402.299V13.1894C402.299 11.9788 399.991 11.7292 399.309 13.0692C399.237 13.2102 399.02 14.0327 399.02 14.1412V19.2424Z" fill="#2871BE"/>
<path d="M408.794 58.2732C408.709 58.2847 408.641 58.7607 408.507 58.9571C407.079 61.0317 404.5 59.5416 404.484 57.3306H410.219C410.328 51.5178 402.7 51.5802 403.249 57.8111C403.596 61.7502 409.283 62.1407 410.083 58.4187C409.675 58.5343 409.137 58.227 408.794 58.2732ZM408.715 56.3787H404.618C404.644 53.47 408.866 53.3753 408.715 56.3787Z" fill="#2871BE"/>
<path d="M411.971 37.9261C410.537 40.1902 406.227 40.0424 405.184 37.5218C405.082 37.2792 404.755 36.228 404.755 36.0432V30.6693H407.077V36.0432C407.077 36.5607 407.608 37.3947 408.166 37.5426C410.115 38.0555 410.264 36.2165 410.354 34.8187C410.44 33.4649 410.291 32.0324 410.354 30.6693H412.539V36.4498C412.539 36.6346 412.108 37.7089 411.971 37.9238V37.9261Z" fill="#2871BE"/>
<path d="M417.257 53.7888C417.403 53.9436 417.867 54.8077 417.867 54.9509V60.8677H416.639V55.7665C416.639 55.6024 416.374 54.8331 416.233 54.6737C415.686 54.0615 414.576 54.1123 413.913 54.5489C413.7 54.6899 413.086 55.443 413.086 55.6302V60.6644C413.086 60.9601 411.721 60.9601 411.721 60.6644V53.2505C412.815 53.2759 413.098 52.9178 412.952 54.2024C413.874 53.0172 416.189 52.6522 417.26 53.7888H417.257Z" fill="#2871BE"/>
<path d="M410.627 22.5069L413.897 16.4539L410.901 10.5371C411.515 10.6549 412.776 10.3777 413.29 10.5371C413.587 10.6295 415.135 14.6865 415.406 14.4809L417.32 10.5371H419.779C418.896 12.6049 417.561 14.4901 416.773 16.5833L420.052 22.5093H417.32L415.339 18.5632L413.223 22.5093H410.627V22.5069Z" fill="#2871BE"/>
<path d="M422.923 33.0467C421.327 29.2554 415.137 29.5234 414.588 33.8668V42.6415H416.773V39.444C416.773 39.3423 417 39.0489 416.912 38.8318C420.903 41.1352 424.606 37.0366 422.923 33.0467ZM418.272 37.5426C416.3 37.0204 416.356 32.7024 418.516 32.3328C421.915 31.7506 421.667 38.4413 418.272 37.5426Z" fill="#2871BE"/>
<path d="M424.49 10.3985C423.252 10.5371 421.989 11.4613 421.526 12.6164C421.447 12.8128 421.144 13.8732 421.144 14.0026V22.5046H423.466V18.8312C431.055 22.2112 432.533 9.50209 424.49 10.3962V10.3985ZM424.698 17.4034C424.532 17.341 424.182 17.1424 424.059 17.0199C422.99 15.9548 423.201 12.6049 425.046 12.3138C428.763 11.7269 428.105 18.6533 424.698 17.4011V17.4034Z" fill="#2871BE"/>
<path d="M426.334 57.3306C426.71 51.4092 418.557 51.7534 419.406 57.9082C419.92 61.6509 425.125 62.1176 426.332 58.6221C426.323 58.4649 425.18 58.2547 425.055 58.2917C424.824 58.3633 424.564 59.7241 423.391 59.9043C421.804 60.1492 420.689 58.83 420.736 57.3283H426.334V57.3306ZM424.97 56.3787H420.872C420.78 53.47 425.016 53.4169 424.97 56.3787Z" fill="#2871BE"/>
<path d="M431.929 53.3938C431.813 55.2813 430.965 54.1492 430.024 54.5443C429.769 54.6506 429.201 55.5239 429.201 55.7642V60.6621C429.201 60.9578 427.836 60.9578 427.836 60.6621V53.2482C428.93 53.2736 429.213 52.9132 429.067 54.2001C429.352 53.9875 429.491 53.6086 429.817 53.3845C430.55 52.8832 431.157 53.135 431.929 53.3938Z" fill="#2871BE"/>
<path d="M432.082 39.0258L430.981 37.7436C429.966 40.2064 426.673 40.0239 425.324 37.8683C424.233 36.124 424.483 34.1002 425.104 32.2288C425.185 31.9862 425.702 30.6693 425.859 30.6693H427.977C427.285 32.0579 426.263 36.4059 427.706 37.4017C428.515 37.9584 429.889 37.4548 429.889 36.4521V32.848H432.211V36.4521C432.211 37.4548 433.586 37.9584 434.394 37.4017C435.852 36.3967 434.797 32.074 434.123 30.6693H436.241C436.723 30.6693 437.518 34.255 437.544 34.8118C437.683 37.9631 435.266 40.6546 432.086 39.0258H432.082Z" fill="#2871BE"/>
<path d="M438.753 54.6876C438.38 52.2825 432.559 52.6267 432.478 55.4246C432.703 55.4523 433.616 55.7087 433.715 55.6394C433.836 55.5586 433.912 55.0942 434.054 54.8862C434.909 53.6317 438.002 54.0684 437.539 56.0229C436.206 56.5797 432.784 56.2794 432.369 58.1068C431.639 61.3251 435.829 61.6856 437.599 59.9158C437.643 60.9601 438.297 60.9509 439.168 60.8677C438.501 58.9686 439.038 56.5566 438.751 54.6876H438.753ZM437.33 58.6937C436.538 60.4588 433.159 60.3271 433.738 58.3795C434.042 57.3606 436.709 57.5801 437.534 57.0603C437.557 57.6402 437.574 58.1554 437.333 58.6937H437.33Z" fill="#2871BE"/>
<path d="M433.984 19.2424H431.662V10.5371H433.847C433.91 10.5371 433.748 11.6114 433.915 11.7616C434.851 10.2091 437.68 9.85788 438.906 11.1447C439.092 11.3388 439.583 12.1775 439.583 12.3738V22.5069H437.398C437.312 20.1828 437.511 17.817 437.402 15.4951C437.374 14.8875 437.326 13.7623 437.228 13.2194C436.939 11.6114 434.596 11.9603 434.181 13.2471C433.65 14.8898 434.174 17.4843 433.984 19.2401V19.2424Z" fill="#2871BE"/>
<path d="M443.673 60.8608C442.836 61.0895 441.291 61.0271 441.094 59.9759C441.029 59.6247 440.966 58.8785 440.943 58.4927C440.906 57.8804 441.098 54.4842 440.95 54.3364C440.897 54.2832 440.183 54.3918 440.13 54.3364C440.09 54.2971 440.09 53.2852 440.13 53.2482C440.174 53.2043 440.781 53.2782 440.95 53.2482V51.3445C441.462 51.2405 441.847 50.7392 442.315 50.6653V53.2505H443.546V54.2601C443.518 54.4473 442.313 54.2763 442.313 54.3387V59.3036C442.313 59.7426 443.395 59.5855 443.522 59.6617C443.65 59.7379 443.749 60.7799 443.668 60.8608H443.673Z" fill="#2871BE"/>
<path d="M444.774 53.2505H446.139V60.6644C446.139 60.9601 444.774 60.9601 444.774 60.6644V53.2505Z" fill="#2871BE"/>
<path d="M446.141 50.3927H444.771V51.7581H446.141V50.3927Z" fill="#2871BE"/>
<path d="M444.227 22.5069H441.905V10.5371H444.227C444.382 12.0019 443.796 16.2852 444.92 17.2602C445.879 18.0942 447.207 17.3826 447.443 16.2575C447.55 15.7469 447.617 14.7096 447.647 14.1482C447.71 12.9514 447.592 11.7339 447.643 10.5371H449.828V19.2424H447.779C447.738 19.2424 447.81 18.5447 447.779 18.4269C446.635 19.7438 445.376 19.7415 444.229 18.4269V22.5069H444.227Z" fill="#2871BE"/>
<path d="M445.455 39.1714V32.5731H442.723V39.1714C442.723 39.1852 442.533 39.3747 442.519 39.3747H440.401V32.5731H438.079V30.667H450.097V32.5731H447.775V39.3747H445.657C445.643 39.3747 445.453 39.1852 445.453 39.1714H445.455Z" fill="#2871BE"/>
<path d="M450.474 53.1489C448.285 53.4423 447.406 55.3576 447.506 57.3976C447.735 62.0806 454.138 62.1291 454.59 57.7903C454.875 55.0364 453.517 52.7423 450.477 53.1489H450.474ZM450.396 59.8234C448.264 59.2043 448.245 54.6344 450.748 54.2347C454.287 53.6687 454.131 60.9116 450.396 59.8234Z" fill="#2871BE"/>
<path d="M457.749 30.6693C457.684 30.6693 457.556 31.8984 457.406 31.8961C456.46 31.1661 455.862 30.4129 454.539 30.3875C449.225 30.2812 449.582 39.5988 454.541 39.5225C455.651 39.5064 456.694 38.945 457.271 38.0185C457.501 38.0093 457.603 39.1413 457.883 39.31C458.226 39.5156 459.22 39.2984 459.661 39.3747C459.385 38.0301 458.676 36.4798 458.694 35.0913C458.71 33.7352 459.357 31.9539 459.8 30.6693H457.749ZM455.466 37.5772C452.458 38.2611 452.465 32.7833 454.43 32.3305C457.248 31.6836 457.241 37.1729 455.466 37.5772Z" fill="#2871BE"/>
<path d="M458.84 10.5371C458.768 10.5371 458.472 11.7339 458.43 11.8979C457.758 11.3966 457.373 10.7058 456.495 10.4955C452.111 9.44433 450.595 14.6056 452.502 17.7361C453.867 19.9771 456.896 19.9956 458.365 17.884C458.541 18.1335 458.62 19.0368 458.838 19.1801C459.141 19.3834 460.323 19.1639 460.754 19.2424C459.373 16.3407 459.654 13.4712 460.754 10.5371H458.84ZM456.386 17.5444C455.802 17.6968 455.216 17.5836 454.789 17.1539C453.666 16.0288 453.749 12.628 455.554 12.2237C458.069 11.6599 458.347 17.0315 456.386 17.5444Z" fill="#2871BE"/>
<path d="M459.934 27.1322H461.983C461.844 27.8276 462.376 29.0729 461.512 29.1792C459.466 29.431 459.966 28.798 459.934 27.1322Z" fill="#2871BE"/>
<path d="M462.013 54.512C462.057 54.6159 462.256 55.3137 462.256 55.3576V60.6621C462.256 60.9578 460.891 60.9578 460.891 60.6621V55.3576C460.891 54.1908 458.81 53.842 457.948 54.7384C457.753 54.9394 457.339 55.8104 457.339 56.0368V60.8654H456.11V53.2482C456.312 53.2829 457.155 53.1997 457.204 53.2482C457.278 53.3222 457.093 54.0476 457.271 54.2001C458.372 52.6937 461.269 52.6822 462.015 54.5097L462.013 54.512Z" fill="#2871BE"/>
<path d="M463.894 30.6693H461.572V39.3816H463.894V30.6693Z" fill="#2871BE"/>
<path d="M465.54 27.6012C465.792 29.6389 465.157 29.1399 463.484 29.1723V27.1322C464.184 27.2709 465.433 26.7395 465.54 27.6012Z" fill="#2871BE"/>
<path d="M464.031 12.4408H461.709V10.5371H468.538V12.4408H466.353V19.2424H464.031V12.4408Z" fill="#2871BE"/>
<path d="M472.225 59.6432C472.225 59.8696 472.304 60.8677 472.021 60.8677H464.441V50.3927H471.954V51.6171H465.809V54.8816H471.544V56.1061H465.809V59.6432H472.228H472.225Z" fill="#2871BE"/>
<path d="M468.538 33.5249C468.946 33.2454 470.999 30.667 471.201 30.667H473.864L470.603 34.3821L474.003 38.8941L474.135 39.3724H471.746C471.428 39.3724 469.442 36.2673 469.013 35.8376C468.063 36.1056 468.879 39.3724 468.33 39.3724H466.212V30.667H468.534V33.5249H468.538Z" fill="#2871BE"/>
<path d="M473.555 10.3292C471.025 10.3292 468.972 12.3738 468.972 14.8944C468.972 17.415 471.025 19.4596 473.555 19.4596C476.086 19.4596 478.139 17.415 478.139 14.8944C478.139 12.3738 476.086 10.3292 473.555 10.3292ZM473.648 17.5998C470.937 17.7222 470.707 12.8105 473.006 12.3346C476.503 11.6114 476.45 17.4727 473.648 17.5998Z" fill="#2871BE"/>
<path d="M478.234 29.5142L479.326 27.1322H481.921C480.837 28.1904 480.063 30.1172 478.234 29.5142Z" fill="#2871BE"/>
<path d="M482.195 50.3927V57.6702C482.195 57.7926 481.889 58.8762 481.81 59.0564C480.788 61.4314 476.169 61.5931 474.761 59.634C474.466 59.2227 474 58.0052 474 57.5339V50.3927H475.365V57.125C475.365 57.2174 475.576 58.0699 475.63 58.2224C476.322 60.1815 479.97 60.1977 480.626 58.1484C480.661 58.0422 480.827 57.3075 480.827 57.2613V50.3927H482.195Z" fill="#2871BE"/>
<path d="M483.567 33.7236C483.713 35.8283 483.805 40.1463 483.567 42.1702C483.55 42.3065 483.504 42.6392 483.356 42.6392H481.238V34.0008C481.238 33.8761 481.024 32.9265 480.95 32.7902C480.271 31.5727 478.311 32.2196 477.993 33.6243C477.595 35.3963 477.947 37.5518 477.824 39.3724H475.706C475.692 39.3724 475.502 39.1829 475.502 39.1691V30.667H477.687C477.743 30.667 477.646 31.605 477.687 31.7552C478.774 30.667 480.132 30.0825 481.678 30.57C483.2 31.0482 483.467 32.2843 483.567 33.7236Z" fill="#2871BE"/>
<path d="M488.169 14.1759C487.8 11.4936 485.126 10.8421 483.425 9.17633H487.522V7.27262H480.146C480.227 7.66769 480.019 8.73968 480.176 9.0123C480.297 9.22023 482.329 10.4285 482.329 10.6041C481.548 11.0177 480.948 11.1979 480.35 11.8956C478.225 14.3723 479.465 19.0669 482.941 19.3857C486.359 19.6999 488.651 17.6853 488.169 14.1782V14.1759ZM483.228 17.6021C480.906 17.2371 481.017 12.9376 483.251 12.4732C486.709 11.757 487.11 18.212 483.228 17.6021Z" fill="#2871BE"/>
<path d="M487.592 34.3428C486.259 37.7343 491.909 36.6231 492.718 39.0281C493.091 40.1348 492.882 41.3477 491.937 42.0731C491.707 42.2487 490.665 42.7755 490.458 42.7755H487.796C487.824 42.489 488.125 40.7978 488.211 40.7378C488.338 40.6477 491.028 41.4517 490.502 39.742C490.333 39.1922 488.092 38.8964 487.43 38.5822C485.115 37.4918 484.772 34.9897 485.997 32.8896C487.402 30.4799 490.63 29.9046 493.123 30.808L492.713 32.7094C490.996 32.1757 488.34 32.4414 487.594 34.3428H487.592Z" fill="#2871BE"/>
<path d="M492.713 9.44664L493.805 7H496.4L494.352 9.37964C493.83 9.53674 493.253 9.41199 492.713 9.44664Z" fill="#2871BE"/>
<path d="M493.995 10.3269C491.466 10.3269 489.416 12.3692 489.416 14.8875C489.416 17.4057 491.464 19.4481 493.995 19.4481C496.525 19.4481 498.574 17.408 498.574 14.8875C498.574 12.3669 496.523 10.3269 493.995 10.3269ZM493.26 17.4034C491.265 16.6295 491.524 12.7481 493.355 12.3322C497.313 11.4358 496.808 18.7781 493.26 17.4034Z" fill="#2871BE"/>
<path d="M501.725 27.2685C501.811 27.5897 501.642 27.4996 501.552 27.5804C501.22 27.8738 499.424 29.3478 499.167 29.4125C498.676 29.5373 497.994 29.4495 497.494 29.3802C497.73 29.1099 498.722 27.2708 498.928 27.2708H501.728L501.725 27.2685Z" fill="#2871BE"/>
<path d="M501.318 12.4408H498.996V10.5371H505.688V12.4408H503.637V19.2424H501.318V12.4408Z" fill="#2871BE"/>
<path d="M502.409 39.3747V27.2685H511.287V29.3086H504.868V32.0301H510.877V34.0702H504.868V37.3347H511.56C511.516 37.6673 511.704 39.3747 511.356 39.3747H502.409Z" fill="#2871BE"/>
<path d="M512.925 13.5983C512.925 12.1497 511.268 11.7246 510.26 12.5771C510.059 12.7481 509.646 13.3881 509.646 13.5983V19.2448H507.324V10.5371H509.373C509.435 10.5371 509.326 11.6091 509.373 11.7616C510.522 10.4586 512.617 9.83709 514.142 10.886C514.698 11.2672 515.243 12.2629 515.243 12.9168V22.5069H512.921V13.5983H512.925Z" fill="#2871BE"/>
<path d="M519.071 30.6693H521.53L518.105 39.1598C517.882 39.4694 516.378 39.4648 516.065 39.31C515.646 39.1021 512.979 31.6859 512.517 30.6693H514.976L516.89 36.3828L519.073 30.6693H519.071Z" fill="#2871BE"/>
<path d="M527.404 10.5371C525.97 10.5186 524.531 10.5602 523.096 10.544C522.35 10.5348 521.62 10.3199 520.781 10.4031C518.084 10.6734 516.774 13.1154 517.025 15.6383C517.484 20.2521 524.234 20.7996 525.733 16.5625C526.271 15.0469 525.988 13.9056 525.49 12.4431H527.402V10.5371H527.404ZM523.567 15.6268C523.372 17.0268 521.944 18.0226 520.612 17.3688C518.839 16.4978 518.978 12.7019 520.946 12.3392C523.145 11.9326 523.822 13.7716 523.564 15.6268H523.567Z" fill="#2871BE"/>
<path d="M534.815 32.4691C535.272 34.0378 535.501 36.1217 534.718 37.6142C533.48 39.9731 530.014 40.3127 528.839 37.7436C527.733 40.0354 524.746 40.0724 523.249 38.1387C521.585 35.9877 522.517 32.9335 523.441 30.6693H525.763C524.999 32.044 523.875 36.5769 525.576 37.4548C526.086 37.7182 526.966 37.7228 527.332 37.1983C527.427 37.0643 527.675 36.2973 527.675 36.1795V32.8457H529.997V36.7224C529.997 37.4063 531.321 37.8522 531.986 37.4779C533.735 36.4868 532.507 32.1803 531.909 30.6693H534.027C534.201 30.6693 534.736 32.1988 534.813 32.4714L534.815 32.4691Z" fill="#2871BE"/>
<path d="M531.365 19.2424H529.043V10.5371H531.228C531.283 10.5371 531.133 11.4959 531.295 11.6253C532.579 9.98495 535.846 9.80012 536.72 11.9349C536.764 12.0388 536.963 12.7366 536.963 12.7804V22.5069H534.641V13.3257C534.641 13.2887 534.398 12.7366 534.349 12.6649C533.557 11.4936 531.362 12.4339 531.362 13.7346V19.2448L531.365 19.2424Z" fill="#2871BE"/>
<path d="M546.935 30.6693C545.596 30.6208 544.24 30.734 542.9 30.674C542.117 30.6393 541.438 30.3482 540.585 30.399C535.946 30.6832 535.008 37.4363 539.056 39.1275C543.366 40.9272 547.079 36.5006 544.884 32.5731H546.933V30.667L546.935 30.6693ZM540.616 37.5726C538.298 37.1937 538.314 32.6955 540.616 32.3328C543.99 31.8014 543.98 38.1225 540.616 37.5726Z" fill="#2871BE"/>
<path d="M556.23 31.9539C556.274 32.0648 556.496 32.8642 556.496 32.9127V42.6392H554.174V33.5942C554.174 32.9658 553.535 32.2173 552.86 32.1711C549.934 31.9701 551.109 37.1545 550.902 38.9057C550.886 39.042 550.84 39.3747 550.691 39.3747H548.573V30.6693H550.622C550.671 30.6693 550.636 31.5149 550.826 31.6212C552.142 30.0733 555.393 29.8607 556.23 31.9539Z" fill="#2871BE"/>
<path d="M565.372 38.4921C566.285 39.6635 565.97 41.3962 564.735 42.2095C564.524 42.3481 563.578 42.7755 563.393 42.7755H560.73L561.14 40.7355C561.229 40.6477 562.888 41.3315 563.446 40.3751C564.116 39.2314 561.532 39.012 560.867 38.7624C556.388 37.0782 558.186 31.4687 562.202 30.5723C563.46 30.2905 564.786 30.3482 566 30.7987L565.645 32.7094C563.43 31.8892 559.836 33.0005 560.494 35.8722C560.781 37.1313 564.366 37.2007 565.374 38.4898L565.372 38.4921Z" fill="#2871BE"/>
<path d="M352.719 7.27262H272V60.87H352.719V7.27262Z" fill="#2871BE"/>
<path d="M327.042 24.4107C327.044 24.1704 327.434 22.6687 327.522 22.6409C327.802 22.5532 327.705 22.7957 327.761 22.9413C327.849 23.1723 328.171 24.4107 328.34 24.4107H330.321L328.699 25.716L329.227 27.6752C329.165 27.756 327.99 26.5362 327.529 26.5801C327.285 26.6032 326.013 27.7537 325.953 27.6752C325.881 27.1992 326.59 26.0764 326.484 25.7252C326.391 25.4133 325.026 24.8496 324.859 24.4107H327.044H327.042Z" fill="#FBED22"/>
<path d="M304.096 18.018H306.281C306.077 18.4454 304.749 18.986 304.661 19.3349C304.573 19.6837 305.347 21.0745 305.187 21.2825C304.89 21.13 303.674 20.0765 303.479 20.0926C303.349 20.1019 302.047 21.2963 301.91 21.1462C301.827 20.7211 302.506 19.6005 302.439 19.3233C302.371 19.0461 300.967 18.4338 300.816 18.018H302.798C303.166 17.5005 303.261 16.7357 303.414 16.1143C303.892 16.5301 303.968 17.415 304.096 18.018Z" fill="#FBED22"/>
<path d="M320.417 18.018C320.695 17.9302 320.978 16.2852 321.1 16.2483C321.383 16.1628 321.281 16.403 321.339 16.5486C321.429 16.7796 321.749 18.018 321.918 18.018H323.9C323.717 18.3992 322.354 19.0646 322.275 19.3326C322.171 19.6837 322.878 20.8089 322.806 21.2825C322.748 21.3587 321.589 20.2197 321.228 20.1897C320.757 20.1504 319.594 21.361 319.532 21.2825C319.46 20.8065 320.169 19.6837 320.062 19.3326C319.983 19.0646 318.621 18.3992 318.438 18.018C318.95 17.9186 319.995 18.152 320.419 18.018H320.417Z" fill="#FBED22"/>
<path d="M306.281 48.4889C306.051 48.8794 304.749 49.4061 304.673 49.7989C304.575 50.3002 305.236 51.0765 305.118 51.6194C304.698 51.5178 303.917 50.6006 303.593 50.5521C303.322 50.5105 302.311 51.5501 301.913 51.6171C301.755 51.4184 302.492 50.09 302.434 49.7966C302.376 49.5032 301.025 48.8309 300.819 48.4866H302.8C303.169 47.9691 303.264 47.2044 303.417 46.5829C303.838 46.7146 304.026 48.4866 304.302 48.4866H306.283L306.281 48.4889Z" fill="#FBED22"/>
<path d="M312.973 50.8016H315.022C314.897 51.1874 313.451 51.8643 313.416 52.0884C313.381 52.3125 314.032 53.5139 313.928 53.9298C313.84 54.0407 312.605 52.8878 312.359 52.8855C312.06 52.8855 311.145 53.8651 310.721 53.9298C310.728 53.3753 311.328 52.5135 311.205 51.9845C311.175 51.8574 309.787 51.1666 309.697 50.8016H311.745L312.359 48.8956L312.973 50.8016Z" fill="#FBED22"/>
<path d="M312.973 15.7053H315.022C314.862 16.0842 313.455 16.7265 313.425 16.9945C313.395 17.2625 313.988 18.4523 314.065 18.8335C313.886 19.0068 312.619 17.7892 312.334 17.7661C312.049 17.743 311.126 18.7873 310.721 18.8358C310.686 18.2929 311.31 17.3873 311.208 16.8882C311.173 16.7173 309.799 16.075 309.697 15.7053H311.745C311.894 15.1162 312.007 14.2336 312.427 13.8016L312.973 15.7053Z" fill="#FBED22"/>
<path d="M330.592 33.2546H332.641C332.423 33.6612 331.22 34.1533 331.065 34.4722C330.972 34.6639 331.6 36.0201 331.547 36.3828C331.489 36.459 330.184 35.3362 329.955 35.3177C329.619 35.29 328.743 36.2858 328.34 36.3851C328.222 35.7867 328.942 34.9989 328.824 34.4375C328.789 34.2665 327.415 33.6243 327.313 33.2569C327.749 33.1714 328.924 33.3979 329.232 33.1922C329.524 32.9982 329.573 31.5588 330.045 31.3509L330.592 33.2546Z" fill="#FBED22"/>
<path d="M320.486 48.4889L321.033 46.5852C321.504 46.7932 321.555 48.2325 321.847 48.4266C322.155 48.6322 323.33 48.4058 323.765 48.4912C323.68 48.847 322.275 49.5609 322.254 49.6718C322.141 50.2355 322.857 51.0211 322.741 51.6217C322.338 51.5224 321.462 50.5267 321.126 50.5544C320.878 50.5752 319.617 51.7257 319.534 51.6194C319.455 51.1643 320.12 50.1247 320.055 49.7989C319.99 49.4731 318.639 48.8678 318.44 48.4889H320.489H320.486Z" fill="#FBED22"/>
<path d="M295.354 33.2546H297.403C297.204 33.682 295.969 34.1787 295.827 34.4722C295.732 34.6685 296.362 36.0155 296.307 36.3828C296.223 36.4891 294.954 35.3339 294.715 35.3131C294.444 35.29 293.508 36.3343 293.102 36.3828C293.028 35.8283 293.688 34.9296 293.589 34.4329C293.565 34.322 292.161 33.6081 292.078 33.2523H294.126C294.275 32.6609 294.39 31.7806 294.808 31.3486L295.354 33.2523V33.2546Z" fill="#FBED22"/>
<path d="M296.448 42.0962L297.062 40.0539C297.264 40.0493 297.514 41.8537 297.811 42.0292C298.17 42.2418 299.259 42.0085 299.725 42.0962C299.535 42.4728 298.339 42.9649 298.237 43.2745C298.101 43.6881 298.884 45.0812 298.768 45.2221C298.311 45.132 297.408 44.1316 297.06 44.1316C296.789 44.1316 295.802 45.1274 295.424 45.2221C295.38 44.8386 296.075 43.5541 295.969 43.3115C295.809 42.9418 294.645 42.5006 294.397 42.0916H296.446L296.448 42.0962Z" fill="#FBED22"/>
<path d="M299.725 24.5493C299.535 24.9259 298.339 25.418 298.237 25.7275C298.098 26.1503 298.759 27.1877 298.768 27.6752C298.694 27.7676 297.34 26.5893 297.062 26.5893C296.708 26.5893 295.524 27.8415 295.354 27.6752C295.436 27.2824 296.022 26.1319 295.992 25.8361C295.959 25.515 294.618 24.8566 294.4 24.547C294.863 24.4592 295.957 24.6925 296.314 24.48C296.564 24.3298 296.928 22.872 296.995 22.5069C297.405 22.7749 297.528 24.2998 297.809 24.4846C298.117 24.6902 299.292 24.4638 299.727 24.5493H299.725Z" fill="#FBED22"/>
<path d="M330.319 42.0963C330.178 42.3596 328.685 43.1729 328.669 43.2722C328.616 43.6188 329.38 45.0234 329.225 45.2244C328.84 45.0997 327.964 44.1478 327.659 44.1386C327.223 44.1247 326.426 45.102 325.948 45.2244C325.823 45.072 326.551 43.5772 326.505 43.2722C326.491 43.1798 325.163 42.3781 324.994 42.1632C325.436 41.9391 326.562 42.2649 326.91 42.0339C327.028 41.9553 327.309 40.9804 327.387 40.7378C327.466 40.4952 327.457 39.7697 327.737 40.382C327.96 40.8695 328.08 41.5741 328.27 42.0939H330.319V42.0963Z" fill="#FBED22"/>
<path d="M393.829 39.3747V27.2685H402.707V29.3086H396.287V32.0301H402.296V34.0702H396.287V37.3347H402.98C402.936 37.6673 403.124 39.3747 402.776 39.3747H393.829Z" fill="#2871BE"/>
<path d="M432.082 39.0258L430.981 37.7436C429.966 40.2064 426.673 40.0239 425.324 37.8683C424.233 36.124 424.483 34.1002 425.104 32.2288C425.185 31.9862 425.702 30.6693 425.859 30.6693H427.977C427.285 32.0579 426.263 36.4059 427.706 37.4017C428.515 37.9584 429.889 37.4548 429.889 36.4521V32.848H432.211V36.4521C432.211 37.4548 433.586 37.9584 434.394 37.4017C435.852 36.3967 434.797 32.074 434.123 30.6693H436.241C436.723 30.6693 437.518 34.255 437.544 34.8118C437.683 37.9631 435.266 40.6546 432.086 39.0258H432.082Z" fill="#2871BE"/>
<path d="M450.099 30.6693V32.5754H447.777V39.377H445.659C445.645 39.377 445.455 39.1875 445.455 39.1737V32.5754H442.723V39.1737C442.723 39.1875 442.533 39.377 442.519 39.377H440.401V32.5754H438.079V30.6693H450.099Z" fill="#2871BE"/>
<path d="M483.569 42.1702C483.553 42.3065 483.506 42.6392 483.358 42.6392H481.24V34.0008C481.24 33.8761 481.027 32.9265 480.953 32.7902C480.274 31.5727 478.313 32.2196 477.996 33.6243C477.597 35.3963 477.949 37.5518 477.826 39.3724H475.708C475.694 39.3724 475.504 39.1829 475.504 39.1691V30.667H477.69C477.745 30.667 477.648 31.605 477.69 31.7552C478.777 30.667 480.135 30.0825 481.68 30.57C483.203 31.0482 483.469 32.2843 483.569 33.7236C483.715 35.8283 483.808 40.1463 483.569 42.1702Z" fill="#2871BE"/>
<path d="M377.985 32.3698V42.6392H375.8C375.688 40.1117 375.948 37.4617 375.804 34.9481C375.779 34.4906 375.7 33.5111 375.598 33.1137C375.213 31.612 372.896 32.0555 372.553 33.488C372.525 33.6035 372.386 34.4814 372.386 34.5461V39.3747H370.268C370.254 39.3747 370.064 39.1852 370.064 39.1714V30.6693H372.249C372.305 30.6693 372.154 31.6281 372.317 31.7575C373.42 30.3182 376.036 29.8469 377.357 31.2261C377.507 31.3832 377.985 32.215 377.985 32.3698Z" fill="#2871BE"/>
<path d="M387.28 39.0281C387.653 40.1348 387.444 41.3477 386.499 42.0731C386.269 42.2487 385.227 42.7755 385.02 42.7755H382.358C382.272 42.69 382.689 40.7978 382.773 40.7378C382.898 40.6477 385.59 41.4517 385.064 39.742C384.909 39.2407 382.545 38.8525 381.897 38.5406C379.584 37.4363 379.366 34.8418 380.61 32.8041C382.05 30.4476 385.213 29.93 387.688 30.8057L387.278 32.7094C385.514 32.1942 382.942 32.4067 382.156 34.3405C380.787 37.7135 386.476 36.6231 387.284 39.0258L387.28 39.0281Z" fill="#2871BE"/>
<path d="M492.718 39.0281C493.091 40.1348 492.882 41.3477 491.937 42.0731C491.707 42.2487 490.665 42.7755 490.458 42.7755H487.796C487.824 42.489 488.125 40.7978 488.211 40.7378C488.338 40.6477 491.028 41.4517 490.502 39.742C490.333 39.1922 488.092 38.8964 487.43 38.5822C485.115 37.4918 484.772 34.9897 485.997 32.8896C487.402 30.4799 490.63 29.9046 493.123 30.808L492.713 32.7094C490.996 32.1757 488.34 32.4414 487.594 34.3428C486.262 37.7343 491.911 36.6231 492.72 39.0281H492.718Z" fill="#2871BE"/>
<path d="M474.137 39.3747H471.748C471.43 39.3747 469.444 36.2696 469.016 35.8399C468.066 36.1079 468.881 39.3747 468.332 39.3747H466.214V30.6693H468.536V33.5272C468.944 33.2477 470.997 30.6693 471.199 30.6693H473.861L470.601 34.3844L474 38.8964L474.133 39.3747H474.137Z" fill="#2871BE"/>
<path d="M412.539 30.6693V36.4498C412.539 36.6346 412.108 37.7089 411.971 37.9238C410.537 40.1879 406.227 40.0401 405.184 37.5195C405.082 37.2769 404.755 36.2257 404.755 36.0409V30.667H407.077V36.0409C407.077 36.5584 407.608 37.3924 408.166 37.5403C410.115 38.0532 410.264 36.2141 410.354 34.8164C410.44 33.4625 410.291 32.0301 410.354 30.667H412.539V30.6693Z" fill="#2871BE"/>
<path d="M368.562 30.6693V32.5754H366.377V39.377H364.259C364.245 39.377 364.055 39.1875 364.055 39.1737V32.5754H361.87V30.6693H368.562Z" fill="#2871BE"/>
<path d="M463.894 30.6693H461.572V39.3816H463.894V30.6693Z" fill="#2871BE"/>
<path d="M481.921 27.1322C480.837 28.1904 480.063 30.1172 478.234 29.5142L479.326 27.1322H481.921Z" fill="#2871BE"/>
<path d="M463.484 29.1723V27.1322C464.184 27.2709 465.433 26.7395 465.54 27.6012C465.792 29.6389 465.157 29.1399 463.484 29.1723Z" fill="#2871BE"/>
<path d="M461.51 29.1792C459.464 29.431 459.964 28.798 459.932 27.1322H461.98C461.841 27.8276 462.374 29.0729 461.51 29.1792Z" fill="#2871BE"/>
<path d="M422.923 33.0467C421.327 29.2554 415.137 29.5234 414.588 33.8668V42.6415H416.773V39.444C416.773 39.3423 417 39.0489 416.912 38.8318C420.903 41.1352 424.606 37.0366 422.923 33.0467ZM418.272 37.5426C416.3 37.0204 416.356 32.7024 418.516 32.3328C421.915 31.7506 421.667 38.4413 418.272 37.5426Z" fill="#2871BE"/>
<path d="M534.718 37.6142C533.48 39.9731 530.014 40.3127 528.839 37.7436C527.733 40.0354 524.746 40.0724 523.249 38.1387C521.585 35.9877 522.517 32.9335 523.441 30.6693H525.763C524.999 32.044 523.875 36.5769 525.576 37.4548C526.086 37.7182 526.966 37.7228 527.332 37.1983C527.427 37.0643 527.675 36.2973 527.675 36.1795V32.8457H529.997V36.7224C529.997 37.4063 531.321 37.8522 531.986 37.4779C533.735 36.4868 532.507 32.1803 531.909 30.6693H534.027C534.201 30.6693 534.736 32.1988 534.813 32.4714C535.269 34.0401 535.499 36.124 534.715 37.6165L534.718 37.6142Z" fill="#2871BE"/>
<path d="M556.494 32.9127V42.6392H554.172V33.5942C554.172 32.9658 553.533 32.2173 552.858 32.1711C549.931 31.9701 551.106 37.1544 550.9 38.9057C550.884 39.042 550.837 39.3747 550.689 39.3747H548.571V30.6693H550.62C550.668 30.6693 550.633 31.5149 550.824 31.6212C552.14 30.0733 555.391 29.8607 556.228 31.9539C556.272 32.0648 556.494 32.8642 556.494 32.9127Z" fill="#2871BE"/>
<path d="M565.372 38.4921C566.285 39.6635 565.97 41.3962 564.735 42.2095C564.524 42.3481 563.578 42.7755 563.393 42.7755H560.73L561.14 40.7355C561.229 40.6477 562.888 41.3315 563.446 40.3751C564.116 39.2314 561.532 39.012 560.867 38.7624C556.388 37.0782 558.186 31.4687 562.202 30.5723C563.46 30.2905 564.786 30.3482 566 30.7987L565.645 32.7094C563.43 31.8892 559.836 33.0005 560.494 35.8722C560.781 37.1313 564.366 37.2007 565.374 38.4898L565.372 38.4921Z" fill="#2871BE"/>
<path d="M521.53 30.6693L518.105 39.1598C517.882 39.4694 516.378 39.4648 516.065 39.31C515.646 39.1021 512.979 31.6859 512.517 30.6693H514.976L516.89 36.3828L519.073 30.6693H521.532H521.53Z" fill="#2871BE"/>
<path d="M502.409 39.3747V27.2685H511.287V29.3086H504.868V32.0301H510.877V34.0702H504.868V37.3347H511.56C511.516 37.6673 511.704 39.3747 511.356 39.3747H502.409Z" fill="#2871BE"/>
<path d="M501.552 27.5781C501.22 27.8715 499.424 29.3455 499.167 29.4102C498.676 29.535 497.994 29.4472 497.494 29.3779C497.73 29.1076 498.722 27.2685 498.928 27.2685H501.728C501.813 27.5897 501.644 27.4996 501.554 27.5804L501.552 27.5781Z" fill="#2871BE"/>
<path d="M546.935 30.6693C545.596 30.6208 544.24 30.734 542.9 30.674C542.117 30.6393 541.438 30.3482 540.585 30.399C535.946 30.6832 535.008 37.4363 539.056 39.1275C543.366 40.9272 547.079 36.5006 544.884 32.5731H546.933V30.667L546.935 30.6693ZM540.616 37.5726C538.298 37.1937 538.314 32.6955 540.616 32.3328C543.99 31.8014 543.98 38.1225 540.616 37.5726Z" fill="#2871BE"/>
<path d="M457.749 30.6693C457.684 30.6693 457.556 31.8984 457.406 31.8961C456.46 31.1661 455.862 30.4129 454.539 30.3875C449.225 30.2812 449.582 39.5988 454.541 39.5225C455.651 39.5064 456.694 38.945 457.271 38.0185C457.501 38.0093 457.603 39.1413 457.883 39.31C458.226 39.5156 459.22 39.2984 459.661 39.3747C459.385 38.0301 458.676 36.4798 458.694 35.0913C458.71 33.7352 459.357 31.9539 459.8 30.6693H457.749ZM455.466 37.5772C452.458 38.2611 452.465 32.7833 454.43 32.3305C457.248 31.6836 457.241 37.1729 455.466 37.5772Z" fill="#2871BE"/>
<path d="M420.052 22.5069H417.32L415.339 18.5609L413.223 22.5069H410.627L413.897 16.4539L410.901 10.5371C411.515 10.6549 412.776 10.3777 413.29 10.5371C413.587 10.6295 415.135 14.6865 415.406 14.4809L417.32 10.5371H419.779C418.896 12.6049 417.561 14.4901 416.773 16.5833L420.052 22.5093V22.5069Z" fill="#2871BE"/>
<path d="M449.826 10.5371V19.2424H447.777C447.735 19.2424 447.807 18.5447 447.777 18.4269C446.632 19.7438 445.374 19.7415 444.227 18.4269V22.5069H441.905V10.5371H444.227C444.382 12.0019 443.796 16.2852 444.92 17.2602C445.879 18.0942 447.207 17.3826 447.443 16.2575C447.55 15.7469 447.617 14.7096 447.647 14.1482C447.71 12.9514 447.592 11.7339 447.643 10.5371H449.828H449.826Z" fill="#2871BE"/>
<path d="M404.618 12.3738V22.5069H402.296V13.1894C402.296 11.9788 399.988 11.7292 399.307 13.0692C399.235 13.2102 399.017 14.0327 399.017 14.1412V19.2424H396.695V10.5371H398.881C398.936 10.5371 398.786 11.4959 398.948 11.6253C400.079 10.2483 402.751 9.82785 404.009 11.2117C404.157 11.3735 404.618 12.2237 404.618 12.3738Z" fill="#2871BE"/>
<path d="M536.963 12.7804V22.5069H534.641V13.3257C534.641 13.2887 534.398 12.7366 534.349 12.6649C533.557 11.4936 531.362 12.4339 531.362 13.7346V19.2448H529.04V10.5371H531.226C531.281 10.5371 531.131 11.4959 531.293 11.6253C532.577 9.98495 535.844 9.80012 536.718 11.9349C536.762 12.0388 536.961 12.7366 536.961 12.7804H536.963Z" fill="#2871BE"/>
<path d="M515.247 12.9168V22.5069H512.925L512.925 13.5983C512.925 12.1497 511.268 11.7246 510.26 12.5771C510.059 12.7481 509.646 13.3881 509.646 13.5983V19.2448H507.324V10.5371H509.373C509.435 10.5371 509.326 11.6091 509.373 11.7616C510.522 10.4586 512.617 9.83709 514.142 10.886C514.698 11.2672 515.243 12.2629 515.243 12.9168H515.247Z" fill="#2871BE"/>
<path d="M439.583 12.3738V22.5069H437.398C437.312 20.1828 437.511 17.817 437.402 15.4951C437.374 14.8875 437.326 13.7623 437.228 13.2194C436.939 11.6114 434.596 11.9603 434.181 13.2471C433.65 14.8898 434.174 17.4843 433.984 19.2401H431.662L431.662 10.5371H433.847C433.91 10.5371 433.748 11.6114 433.915 11.7616C434.851 10.2091 437.68 9.85788 438.906 11.1447C439.092 11.3388 439.583 12.1775 439.583 12.3738Z" fill="#2871BE"/>
<path d="M374.298 7.27262V19.2424H371.976V10.2645L369.642 19.2286L367.274 19.2494L364.873 10.1282V19.2424H362.688V7.27262H366.171L368.56 15.1624L370.611 7.27262H374.298Z" fill="#2871BE"/>
<path d="M383.176 18.4246C381.401 19.3349 378.465 20.0488 376.826 18.5632C375.612 17.4612 375.839 15.4235 377.44 14.8898C377.151 14.1643 376.453 13.9864 376.377 13.0161C376.187 10.5949 378.963 10.2067 380.773 10.417C381.048 10.4493 382.68 10.9715 382.761 11.0893C382.932 11.3365 381.746 12.5587 381.54 12.6511C381.417 12.7065 379.605 11.8355 378.935 12.5032C377.67 13.767 380.754 13.827 380.835 13.9587C380.97 14.1759 380.777 15.3472 380.856 15.7076C379.943 15.4004 377.531 16.0888 378.675 17.2671C379.732 18.3553 381.417 16.7565 381.725 16.8074C381.848 16.8282 383.299 18.2606 383.178 18.4246H383.176Z" fill="#2871BE"/>
<path d="M468.538 10.5371V12.4408H466.353V19.2424H464.031V12.4408H461.709V10.5371H468.538Z" fill="#2871BE"/>
<path d="M395.194 10.5371V12.4408H393.008V19.2424H390.686V12.4408H388.501V10.5371H395.194Z" fill="#2871BE"/>
<path d="M505.688 10.5371V12.4408H503.637V19.2424H501.318V12.4408H498.996V10.5371H505.688Z" fill="#2871BE"/>
<path d="M496.4 7L494.352 9.37964C493.83 9.53674 493.253 9.41199 492.713 9.44664L493.805 7H496.4Z" fill="#2871BE"/>
<path d="M488.169 14.1759C487.8 11.4936 485.126 10.8421 483.425 9.17633H487.522V7.27262H480.146C480.227 7.66769 480.019 8.73968 480.176 9.0123C480.297 9.22023 482.329 10.4285 482.329 10.6041C481.548 11.0177 480.948 11.1979 480.35 11.8956C478.225 14.3723 479.465 19.0669 482.941 19.3857C486.359 19.6999 488.651 17.6853 488.169 14.1782V14.1759ZM483.228 17.6021C480.906 17.2371 481.017 12.9376 483.251 12.4732C486.709 11.757 487.11 18.212 483.228 17.6021Z" fill="#2871BE"/>
<path d="M424.49 10.3985C423.252 10.5371 421.989 11.4613 421.526 12.6164C421.447 12.8128 421.144 13.8732 421.144 14.0026V22.5046H423.466V18.8312C431.055 22.2112 432.533 9.50209 424.49 10.3962V10.3985ZM424.698 17.4034C424.532 17.341 424.182 17.1424 424.059 17.0199C422.99 15.9548 423.201 12.6049 425.046 12.3138C428.763 11.7269 428.105 18.6533 424.698 17.4011V17.4034Z" fill="#2871BE"/>
<path d="M527.404 10.5371C525.97 10.5186 524.531 10.5602 523.096 10.544C522.35 10.5348 521.62 10.3199 520.781 10.4031C518.084 10.6734 516.774 13.1154 517.025 15.6383C517.484 20.2521 524.234 20.7996 525.733 16.5625C526.271 15.0469 525.988 13.9056 525.49 12.4431H527.402V10.5371H527.404ZM523.567 15.6268C523.372 17.0268 521.944 18.0226 520.612 17.3688C518.839 16.4978 518.978 12.7019 520.946 12.3392C523.145 11.9326 523.822 13.7716 523.564 15.6268H523.567Z" fill="#2871BE"/>
<path d="M458.84 10.5371C458.768 10.5371 458.472 11.7339 458.43 11.8979C457.758 11.3966 457.373 10.7058 456.495 10.4955C452.111 9.44433 450.595 14.6056 452.502 17.7361C453.867 19.9771 456.896 19.9956 458.365 17.884C458.541 18.1335 458.62 19.0368 458.838 19.1801C459.141 19.3834 460.323 19.1639 460.754 19.2424C459.373 16.3407 459.654 13.4712 460.754 10.5371H458.84ZM456.386 17.5444C455.802 17.6968 455.216 17.5836 454.789 17.1539C453.666 16.0288 453.749 12.628 455.554 12.2237C458.069 11.6599 458.347 17.0315 456.386 17.5444Z" fill="#2871BE"/>
<path d="M473.555 10.3292C471.025 10.3292 468.972 12.3738 468.972 14.8944C468.972 17.415 471.025 19.4596 473.555 19.4596C476.086 19.4596 478.139 17.415 478.139 14.8944C478.139 12.3738 476.086 10.3292 473.555 10.3292ZM473.648 17.5998C470.937 17.7222 470.707 12.8105 473.006 12.3346C476.503 11.6114 476.45 17.4727 473.648 17.5998Z" fill="#2871BE"/>
<path d="M493.995 10.3269C491.466 10.3269 489.416 12.3692 489.416 14.8875C489.416 17.4057 491.464 19.4481 493.995 19.4481C496.525 19.4481 498.574 17.408 498.574 14.8875C498.574 12.3669 496.523 10.3269 493.995 10.3269ZM493.26 17.4034C491.265 16.6295 491.524 12.7481 493.355 12.3322C497.313 11.4358 496.808 18.7781 493.26 17.4034Z" fill="#2871BE"/>
<path d="M370.884 50.3926V60.8677C370.356 60.8146 369.686 61.0618 369.309 60.602L364.057 52.8416V60.6644C364.057 60.9624 362.947 60.8585 362.693 60.8677V50.3926L364.169 50.4204L369.522 58.4164V50.3903H370.887L370.884 50.3926Z" fill="#59595B"/>
<path d="M401.749 55.5632V59.5069C399.509 60.9693 396.908 61.6001 394.471 60.1607C390.941 58.0768 391.523 51.6033 395.634 50.492C398.132 49.8174 401.175 50.4804 401.61 53.3799C401.362 53.3961 400.542 53.7519 400.398 53.6479C400.327 53.5971 400 52.5644 399.497 52.1624C397.727 50.7508 394.726 51.5594 393.94 53.701C392.568 57.4392 395.175 60.87 399.205 59.3544C400.709 58.7884 400.586 58.3009 400.521 56.7876H397.585C397.3 56.7876 397.381 55.7896 397.381 55.5632L401.752 55.5632L401.749 55.5632Z" fill="#59595B"/>
<path d="M472.021 60.8677H464.441V50.3927H471.954V51.6171H465.809V54.8816H471.544V56.1061H465.809V59.6432H472.228C472.228 59.8696 472.306 60.8677 472.024 60.8677H472.021Z" fill="#59595B"/>
<path d="M482.195 50.3927V57.6702C482.195 57.7926 481.889 58.8762 481.81 59.0564C480.788 61.4314 476.169 61.5931 474.761 59.634C474.466 59.2227 474 58.0052 474 57.5339V50.3927H475.365V57.125C475.365 57.2174 475.576 58.0699 475.63 58.2224C476.322 60.1815 479.97 60.1977 480.626 58.1484C480.661 58.0422 480.827 57.3075 480.827 57.2613V50.3927H482.195Z" fill="#59595B"/>
<path d="M417.867 54.9509V60.8677H416.639V55.7665C416.639 55.6024 416.374 54.8331 416.233 54.6737C415.686 54.0615 414.576 54.1123 413.913 54.5489C413.7 54.6899 413.086 55.443 413.086 55.6302V60.6644C413.086 60.9601 411.721 60.9601 411.721 60.6644V53.2505C412.815 53.2759 413.098 52.9178 412.952 54.2024C413.874 53.0172 416.189 52.6522 417.26 53.7888C417.406 53.9436 417.869 54.8077 417.869 54.9509H417.867Z" fill="#59595B"/>
<path d="M462.256 55.3599V60.6644C462.256 60.9601 460.891 60.9601 460.891 60.6644V55.3599C460.891 54.1931 458.81 53.8443 457.948 54.7407C457.753 54.9417 457.339 55.8127 457.339 56.0391V60.8677H456.11V53.2505C456.312 53.2852 457.155 53.202 457.204 53.2505C457.278 53.3245 457.093 54.0499 457.271 54.2024C458.372 52.6961 461.269 52.6845 462.015 54.512C462.059 54.6159 462.258 55.3137 462.258 55.3576L462.256 55.3599Z" fill="#59595B"/>
<path d="M387.273 60.8677C386.87 60.8238 386.36 60.9416 385.977 60.8677C385.384 60.7522 384.385 58.4788 383.79 58.0167C383.544 58.0167 382.126 60.6112 381.809 60.803C381.482 60.9994 380.708 60.8076 380.307 60.87L382.895 56.857L380.441 53.2552C380.865 53.3245 381.741 53.1188 382.08 53.3222C382.351 53.4839 383.347 55.2929 383.586 55.7018C383.811 55.7526 383.862 55.6279 383.991 55.4962C384.358 55.1219 385.215 53.4908 385.495 53.3222C385.822 53.1258 386.596 53.3175 386.997 53.2552L384.585 56.8593L387.273 60.87V60.8677Z" fill="#59595B"/>
<path d="M391.226 60.8608C390.39 61.0895 388.844 61.0271 388.647 59.9759C388.582 59.6247 388.52 58.8785 388.496 58.4927C388.459 57.8804 388.652 54.4842 388.503 54.3364C388.45 54.2832 387.736 54.3918 387.683 54.3364C387.644 54.2971 387.644 53.2852 387.683 53.2482C387.727 53.2043 388.334 53.2782 388.503 53.2482V51.3445C389.016 51.2405 389.4 50.7392 389.868 50.6653V53.2505H391.099V54.2601C391.071 54.4473 389.866 54.2763 389.866 54.3387V59.3036C389.866 59.7426 390.948 59.5855 391.076 59.6617C391.203 59.7379 391.303 60.7799 391.222 60.8608H391.226Z" fill="#59595B"/>
<path d="M443.673 60.8608C442.836 61.0895 441.291 61.0271 441.094 59.9759C441.029 59.6247 440.966 58.8785 440.943 58.4927C440.906 57.8804 441.098 54.4842 440.95 54.3364C440.897 54.2832 440.183 54.3918 440.13 54.3364C440.09 54.2971 440.09 53.2852 440.13 53.2482C440.174 53.2043 440.781 53.2782 440.95 53.2482V51.3445C441.462 51.2405 441.847 50.7392 442.315 50.6653V53.2505H443.546V54.2601C443.518 54.4473 442.313 54.2763 442.313 54.3387V59.3036C442.313 59.7426 443.395 59.5855 443.522 59.6617C443.65 59.7379 443.749 60.7799 443.668 60.8608H443.673Z" fill="#59595B"/>
<path d="M431.929 53.3938C431.813 55.2813 430.965 54.1492 430.024 54.5443C429.769 54.6506 429.201 55.5239 429.201 55.7642V60.6621C429.201 60.9578 427.836 60.9578 427.836 60.6621V53.2482C428.93 53.2736 429.213 52.9132 429.067 54.2001C429.352 53.9875 429.491 53.6086 429.817 53.3845C430.55 52.8832 431.157 53.135 431.929 53.3938Z" fill="#59595B"/>
<path d="M446.139 53.2505V60.6644C446.139 60.9601 444.774 60.9601 444.774 60.6644V53.2505H446.139Z" fill="#59595B"/>
<path d="M446.141 50.3927H444.771V51.7581H446.141V50.3927Z" fill="#59595B"/>
<path d="M438.753 54.6876C438.38 52.2825 432.559 52.6267 432.478 55.4246C432.703 55.4523 433.616 55.7087 433.715 55.6394C433.836 55.5586 433.912 55.0942 434.054 54.8862C434.909 53.6317 438.002 54.0684 437.539 56.0229C436.206 56.5797 432.784 56.2794 432.369 58.1068C431.639 61.3251 435.829 61.6856 437.599 59.9158C437.643 60.9601 438.297 60.9509 439.168 60.8677C438.501 58.9686 439.038 56.5566 438.751 54.6876H438.753ZM437.33 58.6937C436.538 60.4588 433.159 60.3271 433.738 58.3795C434.042 57.3606 436.709 57.5801 437.534 57.0603C437.557 57.6402 437.574 58.1554 437.333 58.6937H437.33Z" fill="#59595B"/>
<path d="M426.334 57.3306C426.71 51.4092 418.557 51.7534 419.406 57.9082C419.92 61.6509 425.125 62.1176 426.332 58.6221C426.323 58.4649 425.18 58.2547 425.055 58.2917C424.824 58.3633 424.564 59.7241 423.391 59.9043C421.804 60.1492 420.689 58.83 420.736 57.3283H426.334V57.3306ZM424.97 56.3787H420.872C420.78 53.47 425.016 53.4169 424.97 56.3787Z" fill="#59595B"/>
<path d="M450.474 53.1489C448.285 53.4423 447.406 55.3576 447.506 57.3976C447.735 62.0806 454.138 62.1291 454.59 57.7903C454.875 55.0364 453.517 52.7423 450.477 53.1489H450.474ZM450.396 59.8234C448.264 59.2043 448.245 54.6344 450.748 54.2347C454.287 53.6687 454.131 60.9116 450.396 59.8234Z" fill="#59595B"/>
<path d="M408.794 58.2732C408.709 58.2847 408.641 58.7607 408.507 58.9571C407.079 61.0317 404.5 59.5416 404.484 57.3306H410.219C410.328 51.5178 402.7 51.5802 403.249 57.8111C403.596 61.7502 409.283 62.1407 410.083 58.4187C409.675 58.5343 409.137 58.227 408.794 58.2732ZM408.715 56.3787H404.618C404.644 53.47 408.866 53.3753 408.715 56.3787Z" fill="#59595B"/>
<path d="M378.2 58.2732C378.115 58.2847 378.047 58.7607 377.913 58.9571C376.486 61.0317 373.906 59.5416 373.89 57.3306H379.626C379.734 51.5178 372.106 51.5802 372.655 57.8111C373.003 61.7502 378.689 62.1407 379.489 58.4187C379.081 58.5343 378.543 58.227 378.2 58.2732ZM378.122 56.3787H374.024C374.05 53.47 378.272 53.3753 378.122 56.3787Z" fill="#59595B"/>
</svg>
