<svg width="281" height="54" viewBox="0 0 281 54" fill="none" xmlns="http://www.w3.org/2000/svg">
<path d="M70.5571 36.7794V40.5112H69.4134V36.7344L66.4222 30.9342H67.7858L69.5454 34.5762C69.7213 34.9359 69.8533 35.2956 70.0292 35.6553C70.0732 35.5654 70.2932 35.0708 70.5131 34.5762L72.3166 30.9342H73.5923L70.5571 36.7794Z" fill="#0F4C8D"/>
<path d="M80.1465 34.4413H79.4427V38.2631C79.4427 39.3872 79.4867 39.7019 79.9706 39.9717L79.4427 40.7361C79.0908 40.6012 78.7829 40.3764 78.6069 40.0167C78.475 39.7019 78.387 39.3872 78.387 38.9376V34.4863H75.8797V40.5562H74.8239V34.4413H73.9442V33.587H80.4984L80.1465 34.4413Z" fill="#0F4C8D"/>
<path d="M84.4574 40.6911C82.6099 40.6911 81.5102 39.2973 81.5102 37.0042C81.5102 34.756 82.6099 33.3622 84.4134 33.3622C85.5571 33.3622 86.2609 33.9017 86.7447 34.5762C87.1846 35.2057 87.3606 36.015 87.3606 37.1391C87.4046 39.4771 86.1729 40.6911 84.4574 40.6911ZM85.865 35.1607C85.6011 34.5312 84.9852 34.2615 84.4134 34.2615C83.7975 34.2615 83.2697 34.5762 83.0058 35.0258C82.7858 35.4754 82.6978 36.015 82.6978 36.8243C82.6978 37.8135 82.8738 38.6678 83.1377 39.1174C83.4016 39.5221 83.9295 39.8368 84.5014 39.8368C85.2052 39.8368 85.733 39.4771 85.997 38.8027C86.1289 38.353 86.2169 37.9933 86.2169 37.3189C86.1729 36.2398 86.0849 35.6103 85.865 35.1607Z" fill="#0F4C8D"/>
<path d="M91.6714 40.7361C89.9999 40.7361 89.2081 39.8818 89.2081 38.4879V33.632L90.2638 33.4072V38.2631C90.2638 39.2973 90.5277 39.8818 91.7154 39.8818C92.6832 39.8818 93.255 39.3872 93.255 38.2182V33.632L94.3107 33.4521V38.3081C94.3107 39.657 93.343 40.7361 91.6714 40.7361Z" fill="#0F4C8D"/>
<path d="M101.393 39.4321C100.909 40.2415 100.161 40.6911 99.2814 40.6911C98.5776 40.6911 97.8738 40.3764 97.4339 39.8818V43.209L96.3782 43.4338V36.5995C96.3782 34.6211 97.2579 33.4072 99.1934 33.4072C101.041 33.4072 101.965 34.756 101.965 37.0491C101.921 38.1282 101.745 38.7577 101.393 39.4321ZM99.0175 34.2165C98.0937 34.2165 97.4339 34.9808 97.4339 36.4197V38.8926C97.9178 39.4771 98.5336 39.7918 99.1054 39.7918C99.7213 39.7918 100.293 39.4321 100.557 38.9376C100.777 38.4879 100.821 37.9484 100.821 37.184C100.777 35.3406 100.293 34.2165 99.0175 34.2165Z" fill="#0F4C8D"/>
<path d="M106.627 40.5112V43.209L105.572 43.4338V40.5562L103.812 34.9809C103.68 34.5762 103.548 34.3963 103.372 34.3963C103.24 34.3963 103.152 34.4413 103.02 34.4863L102.712 33.7669C103.02 33.587 103.372 33.4521 103.636 33.4521C104.252 33.4521 104.56 33.8118 104.736 34.3963L105.836 38.0833C105.968 38.4879 106.012 38.7577 106.1 39.1174H106.144C106.232 38.7127 106.32 38.443 106.407 38.0833L107.903 33.542H109.003L106.627 40.5112Z" fill="#0F4C8D"/>
<path d="M112.654 40.6911C111.598 40.6911 110.058 40.3314 110.058 38.6678C110.058 37.6336 110.762 37.0491 111.686 36.8243C110.806 36.5995 110.322 36.015 110.322 35.2956C110.322 34.2165 111.378 33.3622 112.786 33.3622C113.797 33.3622 114.677 33.6769 115.337 34.3064L114.897 34.9359C114.325 34.4863 113.578 34.2165 112.83 34.2165C111.994 34.2165 111.466 34.6661 111.466 35.2956C111.466 36.1948 112.258 36.4646 112.962 36.4646H113.754V37.2739H113.006C112.17 37.2739 111.29 37.5437 111.29 38.5329C111.29 39.4771 112.17 39.7918 112.918 39.7918C113.841 39.7918 114.589 39.567 115.117 39.1174L115.513 39.8368C114.809 40.3764 113.841 40.6911 112.654 40.6911Z" fill="#0F4C8D"/>
<path d="M118.328 40.6461C118.02 40.6461 117.712 40.5562 117.537 40.3314C117.317 40.1515 117.229 39.8368 117.229 39.3422V35.0258C117.229 34.2165 117.097 33.7219 117.053 33.587L118.108 33.3622C118.152 33.4521 118.284 34.0816 118.284 35.0258V39.1174C118.284 39.657 118.372 39.8368 118.68 39.8368C118.724 39.8368 118.768 39.8368 118.812 39.7918L119.032 40.5112C118.724 40.6012 118.592 40.6461 118.328 40.6461ZM117.888 32.6428L117.405 32.418L118.372 29.4954L119.34 29.9001L117.888 32.6428Z" fill="#0F4C8D"/>
<path d="M123.079 40.6911C121.232 40.6911 120.132 39.2973 120.132 37.0042C120.132 34.756 121.232 33.3622 123.035 33.3622C124.179 33.3622 124.883 33.9017 125.366 34.5762C125.806 35.2057 125.982 36.015 125.982 37.1391C126.026 39.4771 124.795 40.6911 123.079 40.6911ZM124.487 35.1607C124.223 34.5312 123.607 34.2615 123.035 34.2615C122.419 34.2615 121.891 34.5762 121.627 35.0258C121.407 35.4754 121.319 36.015 121.319 36.8243C121.319 37.8135 121.495 38.6678 121.759 39.1174C122.023 39.5221 122.551 39.8368 123.123 39.8368C123.827 39.8368 124.355 39.4771 124.619 38.8027C124.751 38.353 124.839 37.9933 124.839 37.3189C124.795 36.2398 124.707 35.6103 124.487 35.1607Z" fill="#0F4C8D"/>
<path d="M135.572 38.353V40.5112H134.472V38.353C132.624 38.3081 130.865 37.4088 130.865 34.6211V30.9342H131.965V34.4413C131.965 35.97 132.361 37.3189 134.472 37.3639V30.9342H135.572V37.3639C137.111 37.3189 138.079 36.5096 138.079 34.846V30.9342H139.179V34.756C139.179 36.9592 137.727 38.353 135.572 38.353Z" fill="#0F4C8D"/>
<path d="M146.173 40.7361C145.821 40.6012 145.469 40.3764 145.293 40.0167C145.161 39.7019 145.073 39.3872 145.073 38.9376V35.8351C145.073 35.1157 145.029 34.8909 144.809 34.6661C144.677 34.4863 144.369 34.3514 144.061 34.3514C143.534 34.3514 142.654 34.801 142.17 35.3405V40.5112H141.114V35.1607C141.114 34.3064 140.894 33.8118 140.85 33.6769L141.906 33.3622C141.95 33.4521 142.17 33.9467 142.17 34.4413C142.874 33.7219 143.578 33.3622 144.325 33.3622C145.073 33.3622 145.733 33.7669 145.997 34.3963C146.085 34.6661 146.173 34.9359 146.173 35.2057V38.2182C146.173 39.3422 146.217 39.657 146.701 39.9267L146.173 40.7361Z" fill="#0F4C8D"/>
<path d="M152.551 40.6911V43.209L151.451 43.4338V40.6911C149.208 40.6911 148.02 39.2973 148.02 37.0042C148.02 35.0708 148.944 33.7669 150.528 33.4521V34.3963C149.516 34.7111 149.164 35.4305 149.164 36.8243C149.164 37.8135 149.384 38.6678 149.736 39.1174C150.044 39.5221 150.704 39.7918 151.451 39.8368V33.3622C151.715 33.3622 152.155 33.3172 152.419 33.3172C153.783 33.3172 154.619 33.8568 155.146 34.5312C155.63 35.1607 155.894 35.97 155.894 37.0941C155.938 39.4321 154.575 40.6461 152.551 40.6911ZM154.355 35.1607C154.003 34.5762 153.255 34.2615 152.595 34.2615V39.7918C153.519 39.7918 154.223 39.4321 154.487 38.7577C154.707 38.3081 154.751 37.9484 154.751 37.2739C154.751 36.2398 154.619 35.6103 154.355 35.1607Z" fill="#0F4C8D"/>
<path d="M158.929 40.6461C158.621 40.6461 158.314 40.5562 158.138 40.3314C157.918 40.1515 157.83 39.8368 157.83 39.3422V35.0258C157.83 34.2165 157.698 33.7219 157.654 33.587L158.709 33.3622C158.753 33.4521 158.885 34.0816 158.885 35.0258V39.1174C158.885 39.657 158.973 39.8368 159.281 39.8368C159.325 39.8368 159.369 39.8368 159.413 39.7918L159.633 40.5112C159.325 40.6012 159.237 40.6461 158.929 40.6461Z" fill="#0F4C8D"/>
<path d="M166.407 40.6911C165.968 40.5562 165.616 40.1515 165.484 39.657C164.824 40.3314 164.252 40.6461 163.46 40.6461C162.844 40.6461 162.36 40.4663 161.921 40.0616C161.261 39.4771 160.821 38.6228 160.821 37.229C160.821 35.8351 160.997 35.0708 161.481 34.4413C161.965 33.7219 162.712 33.3172 163.504 33.3172C164.252 33.3172 164.824 33.632 165.44 34.3064C165.44 34.1266 165.484 33.6769 165.572 33.542H166.627C166.583 33.6769 166.407 34.3064 166.407 35.3405V38.2182C166.407 39.3422 166.451 39.657 166.935 39.9267L166.407 40.6911ZM165.396 35.3405C165.044 34.756 164.296 34.3514 163.68 34.3514C163.108 34.3514 162.58 34.6661 162.316 35.2057C162.097 35.6553 162.009 36.1049 162.009 37.0042C162.009 38.5329 162.316 38.9825 162.668 39.3422C162.932 39.612 163.284 39.7469 163.812 39.7469C164.516 39.7469 165.132 39.3872 165.484 38.6678V35.3405H165.396Z" fill="#0F4C8D"/>
<path d="M172.874 40.5112L169.882 36.7794V40.5112H168.827V35.0258C168.827 34.2165 168.695 33.7669 168.651 33.6769L169.707 33.4072C169.75 33.4971 169.882 34.1266 169.882 35.0708V36.7794L172.61 33.587H173.973L171.114 36.7794L174.237 40.5112H172.874Z" fill="#0F4C8D"/>
<path d="M180.748 40.7361C180.396 40.6012 180.044 40.3764 179.868 40.0167C179.736 39.7019 179.648 39.3872 179.648 38.9376V35.8351C179.648 35.1157 179.604 34.8909 179.384 34.6661C179.252 34.4863 178.944 34.3514 178.636 34.3514C178.108 34.3514 177.228 34.801 176.745 35.3405V40.5112H175.689V35.1607C175.689 34.3064 175.469 33.8118 175.425 33.6769L176.481 33.3622C176.525 33.4521 176.745 33.9467 176.745 34.4413C177.448 33.7219 178.152 33.3622 178.9 33.3622C179.648 33.3622 180.308 33.7669 180.572 34.3963C180.66 34.6661 180.748 34.9359 180.748 35.2057V38.2182C180.748 39.3422 180.792 39.657 181.275 39.9267L180.748 40.7361ZM178.46 32.6428L177.976 32.418L178.944 29.4954L179.912 29.9001L178.46 32.6428Z" fill="#0F4C8D"/>
<path d="M186.51 43.3888L185.85 42.9392C186.29 42.3097 186.466 41.995 186.466 41.4105C186.466 40.6012 185.894 40.4213 185.234 40.3314C183.519 40.1066 182.639 39.2073 182.639 37.229C182.639 35.6553 183.079 34.801 183.651 34.2165C184.179 33.6769 184.75 33.4072 185.498 33.4072C186.378 33.4072 186.862 33.7219 187.346 34.1715L186.774 34.9359C186.29 34.5312 185.982 34.3963 185.454 34.3963C184.926 34.3963 184.399 34.7111 184.179 35.1607C183.915 35.6553 183.783 36.4197 183.783 37.2739C183.783 38.8027 184.531 39.2073 185.454 39.3872C186.686 39.657 187.478 39.8368 187.478 41.2306C187.522 42.04 187.126 42.5346 186.51 43.3888Z" fill="#0F4C8D"/>
<path d="M198.871 40.5112H191.393V39.7019L194.604 30.9342H196.011L199.135 39.5221L198.871 40.5112ZM195.22 31.9684L192.58 39.567H197.815L195.22 31.9684Z" fill="#0F4C8D"/>
<path d="M201.774 40.6461C201.466 40.6461 201.158 40.5562 200.982 40.3314C200.762 40.1515 200.674 39.8368 200.674 39.3422V35.0258C200.674 34.2165 200.542 33.7219 200.498 33.587L201.554 33.3622C201.598 33.4521 201.73 34.0816 201.73 35.0258V39.1174C201.73 39.657 201.818 39.8368 202.126 39.8368C202.17 39.8368 202.214 39.8368 202.258 39.7918L202.478 40.5112C202.17 40.6012 202.038 40.6461 201.774 40.6461Z" fill="#0F4C8D"/>
<path d="M209.252 40.6911C208.812 40.5562 208.46 40.1515 208.328 39.657C207.668 40.3314 207.096 40.6461 206.305 40.6461C205.689 40.6461 205.205 40.4663 204.765 40.0616C204.105 39.4771 203.665 38.6228 203.665 37.229C203.665 35.8351 203.841 35.0708 204.325 34.4413C204.809 33.7219 205.557 33.3172 206.349 33.3172C207.096 33.3172 207.668 33.632 208.284 34.3064C208.284 34.1266 208.328 33.6769 208.416 33.542H209.472C209.428 33.6769 209.252 34.3064 209.252 35.3405V38.2182C209.252 39.3422 209.296 39.657 209.78 39.9267L209.252 40.6911ZM208.196 35.3405C207.844 34.756 207.096 34.3514 206.481 34.3514C205.909 34.3514 205.381 34.6661 205.117 35.2057C204.897 35.6553 204.809 36.1049 204.809 37.0042C204.809 38.5329 205.117 38.9825 205.469 39.3422C205.733 39.612 206.085 39.7469 206.613 39.7469C207.316 39.7469 207.932 39.3872 208.284 38.6678V35.3405H208.196Z" fill="#0F4C8D"/>
<path d="M215.718 40.5112L212.727 36.7794V40.5112H211.671V35.0258C211.671 34.2165 211.539 33.7669 211.495 33.6769L212.551 33.4072C212.595 33.4971 212.727 34.1266 212.727 35.0708V36.7794L215.454 33.587H216.818L213.959 36.7794L217.082 40.5112H215.718Z" fill="#0F4C8D"/>
<path d="M220.821 40.7361C219.149 40.7361 218.401 39.8818 218.401 38.4879V33.632L219.457 33.4072V38.2631C219.457 39.2973 219.721 39.8818 220.909 39.8818C221.877 39.8818 222.448 39.3872 222.448 38.2182V33.632L223.504 33.4521V38.3081C223.46 39.657 222.492 40.7361 220.821 40.7361Z" fill="#0F4C8D"/>
<path d="M228.519 40.6911C227.947 40.6911 227.199 40.3764 226.759 39.8818V43.209L225.703 43.4338V33.7219C225.703 31.8335 226.407 30.7993 228.387 30.7993C229.882 30.7993 230.894 31.8335 230.894 33.1823C230.894 34.1715 230.454 34.9359 229.399 35.2057C230.762 35.5204 231.378 36.5096 231.378 37.6786C231.378 38.9825 230.454 40.6911 228.519 40.6911ZM227.903 35.7452H227.727L227.947 34.9359C229.091 34.9359 229.75 34.3963 229.75 33.2723C229.75 32.373 229.311 31.5637 228.255 31.5637C227.331 31.5637 226.759 32.1482 226.759 33.542V38.8476C227.287 39.4321 227.859 39.7469 228.431 39.7469C229.662 39.7469 230.19 38.6678 230.19 37.8135C230.19 36.3747 229.442 35.7452 227.903 35.7452Z" fill="#0F4C8D"/>
<path d="M235.557 40.6911C234.501 40.6911 232.962 40.3314 232.962 38.6678C232.962 37.6336 233.621 37.0491 234.589 36.8243C233.709 36.5995 233.225 36.015 233.225 35.2956C233.225 34.2165 234.281 33.3622 235.689 33.3622C236.701 33.3622 237.58 33.6769 238.24 34.3064L237.8 34.9359C237.228 34.4863 236.481 34.2165 235.733 34.2165C234.897 34.2165 234.369 34.6661 234.369 35.2956C234.369 36.1948 235.161 36.4646 235.821 36.4646H236.613V37.2739H235.865C235.029 37.2739 234.149 37.5437 234.149 38.5329C234.149 39.4771 235.029 39.7918 235.777 39.7918C236.701 39.7918 237.448 39.567 237.976 39.1174L238.372 39.8368C237.712 40.3764 236.745 40.6911 235.557 40.6911ZM235.953 32.6428L235.425 32.418L236.393 29.4954L237.36 29.9001L235.953 32.6428Z" fill="#0F4C8D"/>
<path d="M244.97 39.4321C244.486 40.2415 243.739 40.6911 242.859 40.6911C242.155 40.6911 241.451 40.3764 241.011 39.8818V43.209L239.956 43.4338V36.5995C239.956 34.6211 240.835 33.4072 242.771 33.4072C244.618 33.4072 245.542 34.756 245.542 37.0491C245.542 38.1282 245.366 38.7577 244.97 39.4321ZM242.595 34.2165C241.671 34.2165 241.011 34.9808 241.011 36.4197V38.8926C241.539 39.4771 242.111 39.7918 242.683 39.7918C243.299 39.7918 243.871 39.4321 244.135 38.9376C244.355 38.4879 244.442 37.9484 244.442 37.184C244.398 35.3406 243.915 34.2165 242.595 34.2165Z" fill="#0F4C8D"/>
<path d="M249.941 40.5562H248.885L246.466 33.587L247.566 33.3622L249.149 38.1282C249.325 38.6228 249.457 39.2073 249.457 39.2973H249.501C249.545 39.2073 249.633 38.6678 249.809 38.1282L251.349 33.4971H252.492L249.941 40.5562Z" fill="#0F4C8D"/>
<path d="M259.135 40.7361C258.783 40.6012 258.431 40.3764 258.255 40.0167C258.123 39.7019 258.035 39.3872 258.035 38.9376V35.8351C258.035 35.1157 257.991 34.8909 257.771 34.6661C257.639 34.4863 257.331 34.3514 257.023 34.3514C256.495 34.3514 255.615 34.801 255.132 35.3405V40.5112H254.076V35.1607C254.076 34.3064 253.856 33.8118 253.812 33.6769L254.868 33.3622C254.912 33.4521 255.132 33.9467 255.132 34.4413C255.835 33.7219 256.539 33.3622 257.287 33.3622C258.035 33.3622 258.695 33.7669 258.959 34.3963C259.047 34.6661 259.135 34.9359 259.135 35.2057V38.2182C259.135 39.3422 259.179 39.657 259.662 39.9267L259.135 40.7361Z" fill="#0F4C8D"/>
<path d="M267.228 34.4413H265.997C266.569 35.0258 266.92 35.8801 266.92 37.184C266.92 39.5221 265.689 40.7361 264.017 40.7361C262.17 40.7361 261.07 39.3422 261.07 37.0491C261.07 34.9809 262.17 33.632 263.973 33.632H267.58L267.228 34.4413ZM263.929 34.4413C262.434 34.4413 262.214 35.6103 262.214 36.8243C262.214 37.8135 262.39 38.6678 262.654 39.1174C262.918 39.5221 263.445 39.8368 264.017 39.8368C264.721 39.8368 265.249 39.4771 265.469 38.8027C265.601 38.353 265.689 37.9933 265.689 37.3189C265.689 35.97 265.557 34.4413 263.929 34.4413Z" fill="#0F4C8D"/>
<path d="M274.266 40.7361C273.915 40.6012 273.563 40.3764 273.387 40.0167C273.255 39.7019 273.167 39.3872 273.167 38.9376V35.8351C273.167 35.1157 273.123 34.8909 272.903 34.6661C272.771 34.4863 272.463 34.3514 272.155 34.3514C271.627 34.3514 270.747 34.801 270.264 35.3405V40.5112H269.208V35.1607C269.208 34.3064 268.988 33.8118 268.944 33.6769L270 33.3622C270.044 33.4521 270.264 33.9467 270.264 34.4413C270.967 33.7219 271.671 33.3622 272.419 33.3622C273.167 33.3622 273.827 33.7669 274.091 34.3963C274.179 34.6661 274.266 34.9359 274.266 35.2057V38.2182C274.266 39.3422 274.31 39.657 274.794 39.9267L274.266 40.7361Z" fill="#0F4C8D"/>
<path d="M280.029 43.3888L279.369 42.9392C279.809 42.3097 279.985 41.995 279.985 41.4105C279.985 40.6012 279.413 40.4213 278.753 40.3314C277.038 40.1066 276.158 39.2073 276.158 37.229C276.158 35.6553 276.598 34.801 277.17 34.2165C277.698 33.6769 278.269 33.4072 279.017 33.4072C279.897 33.4072 280.381 33.7219 280.865 34.1715L280.293 34.9359C279.809 34.5312 279.501 34.3963 278.973 34.3963C278.445 34.3963 277.918 34.7111 277.698 35.1607C277.434 35.6553 277.302 36.4197 277.302 37.2739C277.302 38.8027 278.049 39.2073 278.973 39.3872C280.205 39.657 280.997 39.8368 280.997 41.2306C281.041 42.04 280.645 42.5346 280.029 43.3888Z" fill="#0F4C8D"/>
<path d="M66.6861 21.9417V14.0283H71.7888L71.5248 15.3322H68.3577V17.1307H71.041V18.4346H68.4017V20.5479H71.9207V21.9417C71.8767 21.9417 66.6861 21.9417 66.6861 21.9417Z" fill="#0F4C8D"/>
<path d="M78.211 21.9417L76.8034 17.5354C76.7594 17.3555 76.6714 17.1307 76.6275 16.9059C76.5835 16.6811 76.4955 16.5013 76.4515 16.3214C76.4075 16.1416 76.3635 15.9617 76.2756 15.6919C76.1876 15.9167 76.1436 16.1416 76.0996 16.3214C76.0556 16.5013 75.9676 16.6811 75.9237 16.9059C75.8357 17.1307 75.7917 17.3106 75.7477 17.5354L74.3401 21.9417H72.6245L75.4398 13.9833H77.3313L80.1025 21.9417H78.211Z" fill="#0F4C8D"/>
<path d="M85.821 21.9417L84.4134 17.5354C84.3694 17.3555 84.2814 17.1307 84.2374 16.9059C84.1934 16.6811 84.1055 16.5013 84.0615 16.3214C84.0175 16.1416 83.9735 15.9617 83.8855 15.6919C83.7975 15.9167 83.7536 16.1416 83.7096 16.3214C83.6656 16.5013 83.5776 16.6811 83.5336 16.9059C83.4456 17.1307 83.4016 17.3106 83.3577 17.5354L81.95 21.9417H80.2345L83.0497 13.9833H84.9412L87.7125 21.9417H85.821Z" fill="#0F4C8D"/>
<path d="M93.5629 21.9417V18.4346H90.7477V21.9417H89.0321V14.0283H90.7477V17.0858H93.5629V14.0283H95.2785V21.9417H93.5629Z" fill="#0F4C8D"/>
<path d="M102.493 21.9417L100.557 18.2998C100.469 18.1199 100.337 17.8951 100.205 17.6253C100.073 17.4005 99.9852 17.1307 99.8532 16.9059C99.7213 16.6811 99.6333 16.4113 99.5013 16.0966C99.5013 16.4563 99.5453 16.7261 99.5453 16.9958C99.5453 17.2207 99.5893 17.4904 99.5893 17.7602C99.5893 18.03 99.5893 18.2548 99.5893 18.4796L99.6333 21.9417H98.0057V14.0283H99.8972L101.921 17.6253C102.009 17.8052 102.141 17.985 102.229 18.2098C102.317 18.4346 102.405 18.6145 102.493 18.8393C102.581 19.0192 102.668 19.199 102.712 19.3339C102.756 19.4688 102.8 19.5587 102.844 19.6037C102.844 19.6037 102.844 19.5137 102.8 19.3339C102.756 19.154 102.756 18.9742 102.756 18.7494C102.756 18.5246 102.712 18.2998 102.712 18.03C102.712 17.7602 102.668 17.5804 102.668 17.3555L102.624 13.9833H104.208V21.8968C104.208 21.9417 102.493 21.9417 102.493 21.9417Z" fill="#0F4C8D"/>
<path d="M106.935 21.9417V14.0283H108.695V21.9417H106.935Z" fill="#0F4C8D"/>
<path d="M111.378 21.9417V14.0283H113.094V21.9417H111.378ZM115.997 21.9417L113.138 17.7152L115.865 14.0283H117.976L115.029 17.6703L118.24 21.9417H115.997Z" fill="#0F4C8D"/>
<path d="M124.223 21.9417V18.4346H121.407V21.9417H119.692V14.0283H121.407V17.0858H124.223V14.0283H125.938V21.9417H124.223Z" fill="#0F4C8D"/>
<path d="M138.475 21.9417H131.349V20.8177L134.208 13.9833H135.924L138.695 20.7277L138.475 21.9417ZM135.704 17.5354C135.616 17.3555 135.528 17.1307 135.484 16.9509C135.396 16.7261 135.352 16.5462 135.264 16.3664C135.22 16.1865 135.132 15.9617 135.044 15.7369C134.956 16.0067 134.868 16.2315 134.824 16.4113C134.736 16.5912 134.692 16.816 134.604 16.9958C134.516 17.2207 134.472 17.4005 134.384 17.5354L133.152 20.6378H136.891L135.704 17.5354Z" fill="#0F4C8D"/>
<path d="M144.897 21.9417V18.4346H142.082V21.9417H140.366V14.0283H142.082V17.0858H144.897V14.0283H146.613V21.9417H144.897Z" fill="#0F4C8D"/>
<path d="M156.686 21.9417L156.334 17.3555C156.334 17.2207 156.334 17.0858 156.29 16.8609C156.29 16.6811 156.29 16.5013 156.29 16.3214C156.29 16.1416 156.29 16.0067 156.29 15.8718C156.29 15.7369 156.29 15.6919 156.29 15.6919C156.29 15.6919 156.29 15.7818 156.246 15.8718C156.202 15.9617 156.158 16.1416 156.114 16.3214C156.07 16.5013 156.026 16.6811 155.982 16.8609C155.938 17.0408 155.894 17.2206 155.85 17.3106L154.399 21.9417H152.947L151.583 17.4005C151.539 17.2656 151.495 17.1307 151.451 16.9509C151.407 16.771 151.363 16.5912 151.319 16.4113C151.275 16.2315 151.231 16.0516 151.187 15.9167C151.143 15.7818 151.143 15.6919 151.143 15.647C151.143 15.9167 151.143 16.1416 151.143 16.3214C151.143 16.5013 151.143 16.6811 151.143 16.9059C151.143 17.1307 151.143 17.2656 151.1 17.4455L150.748 21.9867H149.076L149.956 14.0733H152.155L153.387 18.2998C153.431 18.4346 153.475 18.6145 153.519 18.7943C153.563 18.9742 153.607 19.154 153.651 19.3339C153.695 19.5137 153.695 19.6486 153.739 19.7835C153.783 19.9184 153.783 19.9634 153.783 20.0083C153.783 20.0083 153.783 19.9184 153.827 19.7835C153.871 19.6486 153.871 19.5137 153.915 19.3339C153.959 19.154 154.003 18.9742 154.047 18.7943C154.091 18.6145 154.135 18.4346 154.179 18.2998L155.41 14.1182H157.61L158.446 22.0316L156.686 21.9417Z" fill="#0F4C8D"/>
<path d="M168.035 17.985C168.035 18.5695 167.947 19.154 167.815 19.6486C167.683 20.1432 167.419 20.5928 167.111 20.9525C166.803 21.3122 166.407 21.582 165.924 21.8068C165.44 21.9867 164.868 22.1216 164.208 22.1216C163.592 22.1216 163.02 22.0316 162.536 21.8068C162.053 21.627 161.657 21.3572 161.305 20.9975C160.953 20.6378 160.733 20.1882 160.557 19.7386C160.381 19.244 160.293 18.7044 160.293 18.0749C160.293 16.771 160.645 15.7818 161.305 15.0624C161.965 14.343 162.932 13.9833 164.12 13.9833C164.78 13.9833 165.308 14.0733 165.792 14.2981C166.275 14.4779 166.671 14.7927 167.023 15.1524C167.375 15.5121 167.595 15.9617 167.771 16.4113C167.947 16.816 168.035 17.4005 168.035 17.985ZM166.099 18.03C166.099 17.6703 166.099 17.3555 166.055 16.9958C166.012 16.6361 165.924 16.3214 165.792 16.0516C165.66 15.7818 165.44 15.557 165.176 15.3772C164.912 15.1973 164.56 15.1074 164.12 15.1074C163.68 15.1074 163.372 15.1973 163.108 15.3772C162.844 15.557 162.668 15.7818 162.536 16.0516C162.404 16.3214 162.316 16.6361 162.273 16.9509C162.229 17.2656 162.229 17.6253 162.229 17.9401C162.229 18.2998 162.229 18.6595 162.273 19.0192C162.316 19.3789 162.404 19.6936 162.536 19.9634C162.668 20.2331 162.888 20.458 163.152 20.6378C163.416 20.8177 163.768 20.8626 164.208 20.8626C164.648 20.8626 165 20.7727 165.22 20.5928C165.484 20.413 165.66 20.1882 165.792 19.9184C165.924 19.6486 166.012 19.3339 166.055 19.0192C166.055 18.7044 166.099 18.3447 166.099 18.03Z" fill="#0F4C8D"/>
<path d="M170.278 21.9417V14.0283H171.994V21.9417H170.278ZM174.897 21.9417L172.038 17.7152L174.765 14.0283H176.877L173.929 17.6703L177.141 21.9417H174.897Z" fill="#0F4C8D"/>
<path d="M184.75 16.5012C184.75 16.9958 184.619 17.4455 184.399 17.8052C184.179 18.1649 183.871 18.4346 183.519 18.6145C183.343 18.7044 183.167 18.7943 183.035 18.8393C182.859 18.8843 182.727 18.9292 182.551 18.9742C182.375 19.0192 182.199 19.0192 182.023 19.0641C181.847 19.1091 181.627 19.0641 181.407 19.0641H180.308V21.9417H178.592V14.0283H180.924C181.319 14.0283 181.627 14.0283 181.891 14.0733C182.155 14.0733 182.375 14.1182 182.551 14.1632C182.727 14.2082 182.903 14.2082 183.035 14.2981C183.167 14.388 183.299 14.388 183.431 14.4779C183.827 14.6578 184.179 14.9725 184.399 15.3322C184.619 15.647 184.75 16.0516 184.75 16.5012ZM182.903 16.5012C182.903 16.2764 182.859 16.0516 182.771 15.9167C182.683 15.7818 182.595 15.647 182.419 15.557C182.287 15.4671 182.111 15.4221 181.935 15.3772C181.759 15.3322 181.539 15.3322 181.319 15.3322H180.308V17.7602H181.407C181.891 17.7602 182.243 17.6703 182.507 17.4904C182.771 17.3106 182.903 16.9958 182.903 16.5012Z" fill="#0F4C8D"/>
<path d="M191.129 21.9417L190.425 20.0533H187.654L186.95 21.9417H185.19L188.226 13.9833H190.073L192.976 21.9417H191.129ZM189.061 15.4221L188.05 18.7943H190.073L189.061 15.4221Z" fill="#0F4C8D"/>
<path d="M199.267 15.3772H197.067V21.9867H195.352V15.3772H193.108V14.0733H199.531L199.267 15.3772Z" fill="#0F4C8D"/>
<path d="M200.982 21.9417V14.0283H202.742V21.9417H200.982Z" fill="#0F4C8D"/>
<path d="M210 21.9417L209.296 20.0533H206.525L205.821 21.9417H204.061L207.096 13.9833H208.944L211.847 21.9417H210ZM207.932 15.4221L206.921 18.7943H208.944L207.932 15.4221Z" fill="#0F4C8D"/>
<path fill-rule="evenodd" clip-rule="evenodd" d="M12.7566 5.89009C12.9325 5.89009 13.0205 5.84513 13.1525 5.7552C13.1965 5.71024 13.2405 5.62032 13.2405 5.53039C13.2405 5.48543 13.2405 5.44047 13.2405 5.3955C13.2405 5.21565 13.1965 5.12573 13.0645 5.0358C12.9765 4.94588 12.8446 4.85595 12.7126 4.85595C12.5806 4.85595 12.4487 4.90092 12.3607 5.0358C12.2727 5.12573 12.1847 5.21565 12.1847 5.3955C12.1847 5.53039 12.2287 5.66528 12.3607 5.7552C12.4927 5.84513 12.6246 5.89009 12.7566 5.89009Z" fill="#0F4C8D"/>
<path fill-rule="evenodd" clip-rule="evenodd" d="M4.0909 15.9617C4.22287 15.9617 4.35483 15.9167 4.44281 15.8268C4.4868 15.7369 4.57477 15.602 4.57477 15.5121C4.57477 15.3772 4.53079 15.2873 4.44281 15.1524C4.35483 15.0624 4.22287 15.0175 4.0909 15.0175C3.95894 15.0175 3.82697 15.1074 3.739 15.1524C3.65102 15.2423 3.60703 15.3772 3.60703 15.5121C3.60703 15.602 3.65102 15.7369 3.739 15.8268C3.82697 15.9167 3.95894 15.9617 4.0909 15.9617Z" fill="#0F4C8D"/>
<path fill-rule="evenodd" clip-rule="evenodd" d="M13.6363 8.76769C13.6803 8.76769 13.7243 8.76769 13.7683 8.76769C13.8563 8.76769 13.9443 8.72273 13.9883 8.67777C14.0322 8.63281 14.0762 8.54288 14.0762 8.45296C14.0762 8.40799 14.0762 8.36303 14.0762 8.31807C14.0762 8.18318 14.0322 8.04829 13.9003 7.95837C13.8123 7.86844 13.6803 7.77852 13.5484 7.77852C13.4164 7.77852 13.2844 7.82348 13.1965 7.95837C13.1085 8.04829 13.0205 8.18318 13.0205 8.31807C13.0205 8.45296 13.0645 8.58784 13.1965 8.67777C13.2405 8.72273 13.3284 8.76769 13.4164 8.76769C13.5484 8.76769 13.5924 8.76769 13.6363 8.76769Z" fill="#0F4C8D"/>
<path fill-rule="evenodd" clip-rule="evenodd" d="M6.29031 17.2656C6.20234 17.3555 6.11436 17.4904 6.11436 17.6253C6.11436 17.7602 6.15835 17.8951 6.29031 17.985C6.3343 18.03 6.42228 18.0749 6.51026 18.0749C6.55424 18.0749 6.59823 18.1199 6.64222 18.1199C6.68621 18.1199 6.7302 18.1199 6.77418 18.0749C6.86216 18.0749 6.95014 18.03 6.99413 17.985C7.12609 17.8951 7.12609 17.7602 7.12609 17.6253C7.12609 17.4904 7.0821 17.3555 6.95014 17.2656C6.86216 17.1757 6.7302 17.1307 6.59823 17.1307C6.51026 17.0858 6.37829 17.1757 6.29031 17.2656Z" fill="#0F4C8D"/>
<path fill-rule="evenodd" clip-rule="evenodd" d="M0.527859 28.3264C0.659823 28.3264 0.791788 28.2365 0.879764 28.1915C0.967741 28.1016 1.01173 27.9667 1.01173 27.8318C1.01173 27.6969 0.967741 27.562 0.835776 27.4721C0.791788 27.4271 0.703811 27.3822 0.615835 27.3822C0.571847 27.3822 0.527859 27.3822 0.48387 27.3822C0.439882 27.3822 0.395894 27.3822 0.351906 27.3822C0.263929 27.3822 0.219941 27.4271 0.131965 27.4721C0.0439882 27.5171 0 27.652 0 27.7868C0 27.9217 0.0439882 28.0566 0.131965 28.1465C0.263929 28.2365 0.395894 28.3264 0.527859 28.3264Z" fill="#0F4C8D"/>
<path fill-rule="evenodd" clip-rule="evenodd" d="M4.4868 41.0958C4.44281 41.0958 4.39882 41.0508 4.35483 41.0508C4.31084 41.0508 4.26686 41.0508 4.22287 41.0958C4.13489 41.1407 4.04692 41.1407 4.00293 41.1857C3.91495 41.2756 3.82697 41.4105 3.82697 41.5454C3.82697 41.6803 3.87096 41.8152 4.00293 41.9051C4.0909 41.995 4.22287 42.04 4.35483 42.04C4.4868 42.04 4.61876 41.95 4.70674 41.9051C4.79471 41.8152 4.88269 41.6803 4.88269 41.5454C4.88269 41.4105 4.8387 41.2756 4.70674 41.1857C4.61876 41.1407 4.57477 41.1407 4.4868 41.0958Z" fill="#0F4C8D"/>
<path fill-rule="evenodd" clip-rule="evenodd" d="M38.0938 8.00333C38.1818 7.91341 38.2258 7.77852 38.2258 7.64363C38.2258 7.50874 38.1378 7.37385 38.0938 7.28393C38.0058 7.194 37.8738 7.10408 37.6979 7.10408C37.5659 7.10408 37.434 7.194 37.346 7.28393C37.258 7.37385 37.214 7.50874 37.214 7.64363C37.214 7.77852 37.302 7.91341 37.346 8.00333C37.434 8.09326 37.5659 8.13822 37.6979 8.13822C37.8738 8.13822 38.0058 8.09326 38.0938 8.00333Z" fill="#0F4C8D"/>
<path fill-rule="evenodd" clip-rule="evenodd" d="M38.4017 4.58618C38.5337 4.58618 38.7096 4.54122 38.7976 4.45129C38.8856 4.36137 38.9296 4.22648 38.9296 4.09159C38.9296 3.91174 38.8416 3.82181 38.7976 3.73189C38.7096 3.64196 38.5777 3.55204 38.4017 3.55204C38.2697 3.55204 38.1378 3.64196 38.0498 3.73189C37.9618 3.82181 37.9178 3.91174 37.9178 4.09159C37.9178 4.22648 38.0058 4.36137 38.0498 4.45129C38.1378 4.54122 38.2697 4.58618 38.4017 4.58618Z" fill="#0F4C8D"/>
<path fill-rule="evenodd" clip-rule="evenodd" d="M46.9794 15.0175C47.0234 15.0175 47.0674 15.0175 47.1114 15.0175C47.1554 15.0175 47.1993 15.0175 47.2433 15.0175C47.3313 15.0175 47.4193 14.9725 47.4633 14.9276C47.5513 14.8376 47.5952 14.7027 47.5952 14.5679C47.5952 14.433 47.5073 14.2981 47.4633 14.2082C47.3753 14.1182 47.2433 14.0283 47.0674 14.0283C46.9354 14.0283 46.8035 14.0733 46.7155 14.2082C46.6275 14.2981 46.5835 14.433 46.5835 14.5679C46.5835 14.7027 46.6715 14.8376 46.7155 14.9276C46.8035 14.9725 46.8914 14.9725 46.9794 15.0175Z" fill="#0F4C8D"/>
<path fill-rule="evenodd" clip-rule="evenodd" d="M45.1759 17.7602C45.2199 17.7602 45.2639 17.7602 45.3079 17.7602C45.3958 17.7602 45.4838 17.7152 45.5278 17.6703C45.6158 17.5804 45.7038 17.4455 45.7038 17.3106C45.7038 17.1757 45.6158 17.0408 45.5278 16.9509C45.4398 16.8609 45.3079 16.816 45.1319 16.816C44.9999 16.816 44.868 16.9059 44.78 16.9509C44.692 17.0408 44.648 17.1757 44.648 17.3106C44.648 17.4455 44.736 17.5804 44.78 17.6703C44.824 17.7152 44.912 17.7602 44.9999 17.7602C45.0879 17.7602 45.1319 17.7602 45.1759 17.7602Z" fill="#0F4C8D"/>
<path fill-rule="evenodd" clip-rule="evenodd" d="M50.9383 26.348C50.7624 26.348 50.6304 26.438 50.5425 26.4829C50.4545 26.5729 50.4105 26.7077 50.4105 26.8426C50.4105 26.9775 50.4985 27.1124 50.5425 27.2023C50.6304 27.2923 50.7624 27.3822 50.8944 27.3822H50.9383C51.0703 27.3822 51.2023 27.2923 51.2903 27.2023C51.3782 27.1124 51.4222 26.9775 51.4222 26.8426C51.4222 26.7077 51.3342 26.5729 51.2903 26.4829C51.2023 26.438 51.1143 26.393 50.9383 26.348Z" fill="#0F4C8D"/>
<path fill-rule="evenodd" clip-rule="evenodd" d="M48.431 40.4663C48.387 40.4663 48.387 40.4663 48.343 40.4663C48.343 40.4663 48.2111 40.4663 48.1671 40.5112C48.0791 40.5112 47.9911 40.5562 47.9471 40.6012C47.8592 40.6911 47.8152 40.826 47.8152 40.9609C47.8152 41.0958 47.9032 41.2306 47.9471 41.3206C48.0351 41.4105 48.1671 41.5004 48.2991 41.5004C48.431 41.5004 48.607 41.4105 48.6949 41.3206C48.7829 41.2306 48.8269 41.0958 48.8269 40.9609C48.8269 40.826 48.7389 40.6911 48.6949 40.6012C48.607 40.5112 48.519 40.4663 48.431 40.4663Z" fill="#0F4C8D"/>
<path fill-rule="evenodd" clip-rule="evenodd" d="M33.9589 50.2231C33.8269 50.2231 33.695 50.2681 33.607 50.358C33.519 50.448 33.475 50.5379 33.475 50.6728C33.475 50.8077 33.563 50.9425 33.607 51.0325C33.651 51.0774 33.739 51.1224 33.8269 51.1224C33.8709 51.1224 33.9149 51.1674 33.9589 51.1674C34.0029 51.1674 34.0469 51.1674 34.0909 51.1224C34.1349 51.1224 34.1788 51.0774 34.1788 51.0774C34.2228 51.0774 34.2228 51.0325 34.2668 51.0325C34.3548 50.9425 34.3988 50.8526 34.3988 50.7177C34.3988 50.6278 34.3548 50.4929 34.2668 50.403C34.1788 50.2681 34.0469 50.2231 33.9589 50.2231Z" fill="#0F4C8D"/>
<path fill-rule="evenodd" clip-rule="evenodd" d="M18.9589 50.8526C18.9589 50.7177 18.8709 50.5828 18.827 50.4929C18.739 50.403 18.607 50.358 18.475 50.358C18.3431 50.358 18.2111 50.403 18.1231 50.4929C18.0352 50.5828 17.9912 50.7177 17.9912 50.8526C17.9912 50.9875 18.0792 51.1224 18.1231 51.2123C18.2111 51.3022 18.3431 51.3922 18.475 51.3922C18.607 51.3922 18.739 51.3022 18.827 51.2123C18.8709 51.1224 18.9589 50.9875 18.9589 50.8526Z" fill="#0F4C8D"/>
<path fill-rule="evenodd" clip-rule="evenodd" d="M15.4399 5.89009C15.8358 5.7552 16.2316 5.57535 16.6275 5.44047C16.8915 5.53039 17.1554 5.62032 17.3753 5.71024C17.6833 5.7552 17.9472 5.84513 18.2551 5.89009C18.3431 5.89009 18.475 5.84513 18.475 5.71024C18.475 5.62032 18.4311 5.53039 18.3431 5.48543C18.0352 5.44047 17.7712 5.3955 17.5073 5.30558C17.4193 5.26062 17.3314 5.26062 17.1994 5.21565C17.5513 5.08077 17.9472 4.90092 18.2991 4.72107C18.695 4.94588 19.0909 5.0358 19.5308 5.12573C19.6187 5.17069 19.7067 5.17069 19.7947 5.21565C19.8827 5.26062 20.0146 5.17069 20.0146 5.0358C20.0146 4.90092 19.9706 4.81099 19.8827 4.76603C19.7947 4.72107 19.7067 4.72107 19.6187 4.72107C19.3108 4.6761 19.0469 4.58618 18.783 4.49625C18.8709 4.45129 18.9589 4.40633 19.0029 4.40633C19.2668 4.27144 19.5748 4.13655 19.8387 3.9567C20.3665 4.09159 21.4662 4.13655 21.4662 4.13655C21.5542 4.18152 21.6862 4.09159 21.6862 3.9567C21.6862 3.82181 21.5542 3.73189 21.4662 3.73189C21.4223 3.73189 20.7184 3.68693 20.3665 3.64197C21.0704 3.2373 21.7742 2.83264 22.522 2.38301C22.6099 2.29309 22.6539 2.20316 22.6099 2.06828C22.566 1.97835 22.434 1.93339 22.346 1.97835C21.5542 2.47294 20.8064 2.92256 20.0586 3.32723C20.1026 3.19234 20.1466 3.01249 20.2346 2.83264C20.2786 2.78768 20.3226 2.74271 20.3226 2.69775C20.3226 2.65279 20.3665 2.60783 20.4105 2.56286C20.4545 2.47294 20.4105 2.33805 20.3226 2.29309C20.2346 2.20316 20.1026 2.24813 20.0586 2.38301C20.0586 2.38301 19.6187 3.37219 19.5748 3.64197C19.3108 3.77685 19.0909 3.91174 18.827 4.04663C18.739 4.09159 18.651 4.13655 18.563 4.18152C18.563 4.04663 18.607 3.91174 18.651 3.77685C18.695 3.50708 18.783 3.28227 18.9149 3.10241C19.0029 3.01249 18.9589 2.8776 18.8709 2.78768C18.783 2.69775 18.651 2.74271 18.563 2.83264C18.3871 3.10241 18.2551 3.37219 18.2111 3.64197C18.1671 3.86678 18.1231 4.09159 18.0792 4.3164C17.6393 4.49625 17.1994 4.72107 16.8035 4.90092C16.8475 4.72107 16.8915 4.54122 16.9794 4.36137C17.0674 4.09159 17.1994 3.77685 17.3753 3.46212C17.4193 3.37219 17.3753 3.28226 17.2874 3.19234C17.1994 3.14738 17.0674 3.14738 17.0234 3.28226C16.8475 3.597 16.7155 3.91174 16.5836 4.22648C16.4956 4.54122 16.4076 4.81099 16.3636 5.08077C16.0117 5.21565 15.6598 5.35054 15.2639 5.48543C15.1759 5.53039 15.1319 5.62032 15.1759 5.7552C15.2199 5.89009 15.3519 5.93505 15.4399 5.89009Z" fill="#0F4C8D"/>
<path fill-rule="evenodd" clip-rule="evenodd" d="M2.85923 26.9775C2.90322 26.4829 2.90322 25.9434 2.90322 25.3589C3.25513 25.0891 3.47507 24.6395 3.739 24.1898C3.739 24.1898 3.95894 23.7402 4.0909 23.5604C4.13489 23.4704 4.13489 23.3356 4.04692 23.2456C3.95894 23.2007 3.82697 23.2456 3.78299 23.3356C3.60703 23.5604 3.51906 23.7852 3.43108 24.01C3.29912 24.2798 3.12316 24.5945 2.94721 24.8193C2.94721 24.2798 2.90322 23.6953 2.85923 23.1557C3.21114 22.9759 3.38709 22.6162 3.56305 22.3014C3.65102 22.1216 3.78299 21.8968 3.91495 21.7619C3.95894 21.6719 3.95894 21.5371 3.87096 21.4921C3.78299 21.4471 3.69501 21.4022 3.60703 21.4921C3.47507 21.6719 3.3431 21.8968 3.21114 22.0766C3.07917 22.3014 2.94721 22.5262 2.81525 22.6611C2.77126 22.1665 2.77126 21.6719 2.72727 21.2223C3.07917 20.9525 3.3431 20.0083 3.47507 19.8285C3.51906 19.7386 3.51906 19.6037 3.43108 19.5587C3.3431 19.4688 3.21114 19.5137 3.12316 19.6037C2.9912 19.8285 2.72727 20.5029 2.63929 20.6378C2.63929 19.6037 2.63929 18.6145 2.77126 17.7152C2.77126 17.5804 2.68328 17.4904 2.5953 17.4904C2.50733 17.4904 2.41935 17.5804 2.37536 17.6703C2.28739 18.5246 2.28739 19.4688 2.33138 20.368C2.28739 20.2781 1.97947 19.7835 1.93548 19.6936C1.89149 19.6037 1.80352 19.5587 1.67155 19.6037C1.58358 19.6936 1.53959 19.7835 1.58358 19.8734C1.62756 19.9634 2.15542 20.7727 2.33138 20.9975C2.37536 21.4921 2.37536 21.9867 2.41935 22.4363C2.06745 22.2115 1.62756 21.5371 1.62756 21.5371C1.58358 21.4471 1.4956 21.4022 1.36363 21.4471C1.27566 21.4471 1.23167 21.582 1.27566 21.6719C1.4956 22.2115 2.02346 22.7061 2.46334 23.0208C2.50733 23.6053 2.55132 24.2348 2.55132 24.7744C2.41935 24.6395 2.2434 24.4596 2.11143 24.2348C1.89149 23.9201 1.71554 23.4704 1.62756 23.4255C1.4956 23.3805 1.31965 23.5154 1.31965 23.5154C1.23167 23.6503 1.45161 24.0999 1.75953 24.5046C2.02346 24.8643 2.33138 25.179 2.50733 25.3589C2.50733 25.8984 2.50733 26.438 2.46334 26.9326C2.46334 27.0225 2.55132 27.1574 2.63929 27.1574C2.77126 27.1574 2.85923 27.1124 2.85923 26.9775Z" fill="#0F4C8D"/>
<path fill-rule="evenodd" clip-rule="evenodd" d="M8.44574 13.5787C8.53371 13.5337 8.53371 13.3988 8.48972 13.3089C8.44574 13.219 8.31377 13.174 8.2258 13.219C8.00585 13.3089 7.8299 13.4438 7.69794 13.5787C7.52198 13.7136 7.39002 13.8035 7.21407 13.8485C7.43401 13.4888 7.60996 13.0841 7.8299 12.6345C8.22579 12.6794 8.5777 12.4546 8.92961 12.2298C9.10556 12.1399 9.28151 12.005 9.41348 11.96C9.50145 11.9151 9.58943 11.7802 9.54544 11.6903C9.50145 11.6003 9.36949 11.5104 9.28151 11.5554C9.06157 11.6003 8.88562 11.7352 8.70967 11.8701C8.48972 12.005 8.26978 12.1399 8.04984 12.1848C8.22579 11.8701 8.40175 11.5104 8.5777 11.1507C9.10556 11.1057 9.85336 10.5662 9.98532 10.4763C10.0733 10.4313 10.0733 10.2964 10.0293 10.2065C9.98532 10.1166 9.85336 10.1166 9.76538 10.1615C9.63342 10.2515 9.06157 10.6561 8.79764 10.746C9.3255 9.66694 10.6451 7.5537 10.6891 7.5537C10.7331 7.46378 10.6891 7.32889 10.6451 7.28393C10.5572 7.23897 10.4252 7.23897 10.3812 7.32889C9.72139 8.27311 9.14955 9.30724 8.62169 10.2964C8.5777 10.0716 8.53371 9.21732 8.53371 9.17236C8.53371 9.08243 8.48972 8.94754 8.35776 8.90258C8.2258 8.90258 8.13782 8.94754 8.13782 9.08243C8.13782 9.12739 8.26978 10.5212 8.35776 10.836C8.18181 11.1957 8.00585 11.5554 7.8299 11.9151C7.8299 11.8701 7.78591 11.8251 7.78591 11.7802C7.60996 11.4205 7.43401 11.1057 7.52198 10.791C7.52198 10.7011 7.478 10.5662 7.34603 10.5212C7.25805 10.5212 7.12609 10.5662 7.12609 10.7011C6.99413 11.1507 7.17008 11.5554 7.39002 11.96C7.478 12.0949 7.52198 12.2298 7.56597 12.3647C7.34603 12.8593 7.0821 13.3089 6.86216 13.7136C6.77418 13.4438 6.7302 13.1291 6.68621 12.8593C6.68621 12.7694 6.64222 12.6794 6.64222 12.5895C6.64222 12.5445 6.64222 12.4996 6.64222 12.4097C6.64222 12.3197 6.55424 12.1848 6.42228 12.1848C6.3343 12.1848 6.24633 12.2748 6.24633 12.4097V12.6794C6.29031 12.7694 6.29031 12.8593 6.29031 12.9042C6.3343 13.3539 6.46627 13.8934 6.59823 14.2082C6.42228 14.4779 6.29031 14.7477 6.11436 14.9725C6.07037 15.0624 6.07037 15.1973 6.15835 15.2423C6.24633 15.3322 6.37829 15.2873 6.42228 15.1973C6.59823 14.9725 6.77418 14.6578 6.95014 14.343C7.34603 14.2981 7.60996 14.1182 7.91788 13.9384C8.04984 13.8035 8.2258 13.7136 8.44574 13.5787Z" fill="#0F4C8D"/>
<path fill-rule="evenodd" clip-rule="evenodd" d="M36.8181 5.21565C36.4662 5.08077 36.1583 4.99084 35.8064 4.81099C35.8064 4.81099 35.7624 4.76603 35.7624 4.72107C35.6744 4.45129 35.5865 4.13655 35.4985 3.82182C35.4105 3.50708 35.2346 3.19234 35.0586 2.8776C35.0146 2.78768 34.8826 2.78768 34.7947 2.78768C34.7067 2.83264 34.6627 2.96753 34.7067 3.05745C34.8827 3.37219 35.0146 3.64196 35.1026 3.9567C35.1906 4.13655 35.2346 4.36137 35.2785 4.58618C34.8387 4.40633 34.3988 4.22648 34.0029 4.00167C33.9589 3.73189 33.9149 3.50708 33.8709 3.2373C33.7829 2.96753 33.695 2.69775 33.519 2.42798C33.431 2.33805 33.3431 2.33805 33.2111 2.38301C33.1231 2.47294 33.1231 2.56286 33.1671 2.69775C33.2991 2.92256 33.431 3.14738 33.475 3.37219C33.519 3.50708 33.563 3.64197 33.563 3.82182C33.475 3.77685 33.3871 3.73189 33.2551 3.68693C32.9032 3.50708 32.5073 3.32723 32.1114 3.10241C32.1114 2.96753 32.1554 2.8776 32.1554 2.78768C32.1994 2.56286 32.2434 2.33805 32.0674 2.06828C32.0234 1.97835 31.9354 1.97835 31.8035 1.97835C31.7155 2.06828 31.7155 2.1582 31.7155 2.24813C31.8035 2.42798 31.8035 2.56286 31.7595 2.69775C31.7595 2.74271 31.7595 2.83264 31.7155 2.8776C31.0557 2.5179 30.3959 2.11324 29.736 1.70858C29.6481 1.66361 29.5161 1.70858 29.4721 1.75354C29.3841 1.84346 29.4281 1.97835 29.5601 2.02331C30.1759 2.38301 30.7478 2.74271 31.3636 3.10241C31.3196 3.10241 31.3196 3.14738 31.2756 3.14738C31.0557 3.28226 30.8797 3.37219 30.6158 3.37219C30.5278 3.37219 30.4398 3.46211 30.4398 3.597C30.4398 3.68693 30.5278 3.82182 30.6158 3.82182C31.0117 3.77685 31.2316 3.68693 31.4516 3.55204C31.5395 3.50708 31.6715 3.46211 31.7595 3.41715C32.1994 3.64196 32.6393 3.91174 33.0351 4.13655C33.0791 4.18152 33.1671 4.18152 33.2111 4.22648C32.9472 4.3164 32.7272 4.36137 32.4633 4.40633C32.3753 4.45129 32.2873 4.45129 32.1554 4.45129C32.0674 4.49625 32.0234 4.54122 32.0234 4.6761C32.0674 4.76603 32.1114 4.85595 32.2434 4.85595L32.5073 4.81099C32.9032 4.72107 33.2991 4.63114 33.695 4.45129C34.0469 4.63114 34.3988 4.76603 34.7067 4.94588C34.6627 4.94588 34.6187 4.99084 34.5307 4.99084C34.2228 5.08077 33.9589 5.12573 33.695 5.17069C33.563 5.21565 33.519 5.26062 33.519 5.3955C33.563 5.48543 33.651 5.57535 33.739 5.57535C34.0469 5.53039 34.3548 5.48543 34.6187 5.35054C34.8387 5.30558 35.0146 5.21565 35.2346 5.17069C35.6744 5.35054 36.1143 5.53039 36.5542 5.66528C36.6422 5.71024 36.7741 5.62032 36.8181 5.57535C36.9501 5.3955 36.9061 5.26062 36.8181 5.21565Z" fill="#0F4C8D"/>
<path fill-rule="evenodd" clip-rule="evenodd" d="M44.4721 12.1848C44.4721 12.1399 44.5161 12.05 44.5161 12.005C44.5601 11.9151 44.5601 11.8251 44.604 11.7352C44.692 11.2856 44.692 10.836 44.692 10.3863C44.692 10.2964 44.604 10.1615 44.5161 10.1615C44.3841 10.1615 44.3401 10.2515 44.3401 10.3863C44.3401 10.836 44.2961 11.2406 44.2521 11.6453C44.0762 11.3306 43.9002 11.0158 43.7243 10.746C43.7243 10.7011 43.7683 10.5212 43.8123 10.4313C43.9002 10.0266 43.9002 9.62198 43.9002 9.17236C43.9002 9.08243 43.8123 8.99251 43.7243 8.99251C43.6363 8.99251 43.5043 9.08243 43.5483 9.21732C43.5923 9.57702 43.5483 9.93672 43.4604 10.2964C43.2404 9.98168 43.0205 9.62198 42.8005 9.30724C42.8885 9.08243 42.8885 8.85762 42.9325 8.63281C42.9325 8.36303 42.9765 8.04829 42.9325 7.77852C42.9325 7.64363 42.8445 7.5537 42.7565 7.5537C42.6246 7.5537 42.5806 7.64363 42.5806 7.77852C42.5806 8.04829 42.5806 8.31807 42.5366 8.58784C42.5366 8.67777 42.4926 8.76769 42.4926 8.85762C42.3606 8.67777 42.2287 8.45296 42.0527 8.27311C41.8328 7.95837 41.5689 7.64363 41.3489 7.37385C41.2609 7.28393 41.129 7.28393 41.041 7.37385C40.953 7.41882 40.953 7.55371 40.997 7.64363C41.2609 7.91341 41.4809 8.27311 41.7008 8.54288C41.8328 8.72273 41.9648 8.90258 42.0967 9.08243C41.8328 9.03747 41.5689 8.94754 41.3049 8.72273C41.217 8.67777 41.085 8.67777 40.997 8.72273C40.909 8.76769 40.909 8.94754 41.041 8.99251C41.4369 9.35221 41.8328 9.44213 42.2727 9.53206C42.3167 9.53206 42.3606 9.53206 42.4486 9.57702C42.7126 9.93672 42.9325 10.2964 43.1524 10.7011C43.0645 10.7011 42.9325 10.6561 42.8445 10.6561C42.6246 10.6112 42.4486 10.5212 42.2287 10.4313C42.1407 10.3863 42.0087 10.4313 41.9648 10.5212C41.8768 10.6112 41.9208 10.746 42.0527 10.791C42.2287 10.8809 42.4926 10.9709 42.7126 11.0608C42.9325 11.1057 43.1524 11.1507 43.3724 11.1507C43.5483 11.4654 43.7683 11.8251 43.9442 12.1399C43.8123 12.1399 43.7243 12.0949 43.5923 12.05C43.3284 12.005 43.1084 11.8701 42.8885 11.7352C42.7565 11.6903 42.6686 11.7352 42.6246 11.8251C42.5366 11.9151 42.5806 12.05 42.7126 12.0949C42.9765 12.2298 43.2404 12.3647 43.5043 12.4546C43.7243 12.5445 43.9442 12.5895 44.2082 12.5895C44.5601 13.219 44.868 13.8485 45.1319 14.4779C45.1759 14.5679 45.2639 14.6128 45.3958 14.5679C45.4838 14.5229 45.5278 14.433 45.4838 14.2981C45.1319 13.4888 44.824 12.8143 44.4721 12.1848Z" fill="#0F4C8D"/>
<path fill-rule="evenodd" clip-rule="evenodd" d="M47.6392 21.7619C47.5513 21.6719 47.4193 21.6719 47.3313 21.7169C47.2433 21.8068 47.2433 21.9417 47.2873 22.0316C47.5073 22.3464 47.7712 22.6611 48.0351 22.8859C48.2551 23.1107 48.519 23.3356 48.8269 23.5154L48.8709 24.6844C48.8709 24.7744 48.9589 24.9092 49.0469 24.8643C49.1348 24.8643 49.2228 24.7744 49.2228 24.6395L49.1788 23.5154C49.2228 23.4704 49.2668 23.4255 49.3108 23.3805C49.3988 23.2906 49.4427 23.2456 49.5307 23.1557C49.8826 22.751 50.2345 22.2115 50.5425 21.627C50.5864 21.5371 50.5864 21.4022 50.4545 21.3572C50.3665 21.2673 50.2785 21.3572 50.1905 21.4471C49.8826 22.0766 49.1788 23.0208 49.1348 23.0208L49.0469 21.2673C49.2668 21.0425 49.4867 20.7727 49.6627 20.458C49.8386 20.0983 50.0586 19.7386 50.1905 19.3339C50.2345 19.244 50.1466 19.1091 50.1026 19.0641C50.0146 19.0192 49.8826 19.0641 49.8386 19.154C49.7067 19.5587 49.5307 19.9184 49.3548 20.2331C49.2668 20.413 49.1788 20.5479 49.0469 20.6828L49.0029 19.3339C49.4427 18.9292 49.6187 18.2998 49.7947 17.6253C49.8386 17.5354 49.7507 17.4005 49.6627 17.3555C49.5747 17.3555 49.4427 17.4005 49.3988 17.4904C49.2668 17.9401 49.1348 18.3447 48.9589 18.7044L48.8709 16.4563C48.8269 16.3664 48.7829 16.2315 48.651 16.2315C48.563 16.2315 48.475 16.3214 48.475 16.4563L48.563 18.9292C48.563 18.9292 47.9911 18.5246 47.7272 18.2548C47.6392 18.1649 47.5073 18.1649 47.4193 18.2548C47.3313 18.3447 47.3313 18.4796 47.4193 18.5695C47.7272 18.8843 48.0351 19.154 48.2991 19.3339C48.387 19.3789 48.519 19.4688 48.563 19.4688L48.607 20.9525C48.563 20.9525 48.519 20.9076 48.519 20.9076C48.2111 20.7727 47.9032 20.458 47.5952 20.0533C47.5073 19.9634 47.3753 19.9634 47.3313 20.0533C47.2433 20.1432 47.2433 20.2781 47.2873 20.368C47.6392 20.7727 47.9911 21.1324 48.343 21.3122C48.431 21.3122 48.475 21.4022 48.563 21.4022C48.607 21.4022 48.607 21.4022 48.651 21.4471L48.7389 23.1107C48.563 22.9759 48.431 22.841 48.2551 22.7061C48.0791 22.3464 47.8592 22.0316 47.6392 21.7619Z" fill="#0F4C8D"/>
<path fill-rule="evenodd" clip-rule="evenodd" d="M51.2023 31.7885C50.8944 32.1032 50.1905 32.5529 50.1466 32.5529C50.4985 31.7435 50.8504 30.9342 51.2023 30.0799C51.2463 29.99 51.1583 29.8551 51.1143 29.8102C51.0263 29.7652 50.8944 29.8102 50.8504 29.9001C50.5425 30.6644 50.1905 31.4288 49.8826 32.2381C49.7947 31.8784 49.7507 31.5637 49.7067 31.204C49.7067 31.1141 49.6627 30.5296 49.6627 30.5296C49.6627 30.3947 49.5747 30.3047 49.4427 30.3047C49.3548 30.3047 49.2668 30.3947 49.2668 30.5296C49.2668 30.5745 49.2668 31.1141 49.3108 31.249C49.3548 31.7885 49.4427 32.3281 49.6187 32.8226C49.3988 33.3172 49.2228 33.7669 49.0029 34.2615C48.7829 33.9018 48.651 33.4971 48.563 33.0924C48.519 33.0025 48.519 32.9126 48.475 32.7777C48.475 32.6878 48.431 32.5529 48.431 32.4629C48.431 32.373 48.343 32.2831 48.2111 32.2831C48.1231 32.2831 48.0351 32.373 48.0351 32.4629V32.5079C48.0351 32.5978 48.0791 32.7327 48.0791 32.8676C48.0791 32.9575 48.1231 33.0475 48.1231 33.1823C48.2551 33.6769 48.475 34.2165 48.7829 34.6661C48.6949 34.9359 48.2551 35.8801 48.1671 36.1049C48.0791 35.8801 48.0351 35.6103 47.9471 35.3855C47.8592 34.9809 47.8152 34.5762 47.7272 34.2165C47.7272 34.1266 47.6392 34.0366 47.5073 34.0366C47.4193 34.0816 47.3313 34.1266 47.3753 34.2615C47.4193 34.6661 47.5073 35.0708 47.5952 35.4754C47.6832 35.8801 47.8152 36.2398 47.9471 36.5995C47.8152 36.9592 47.6392 37.3639 47.4633 37.7236C47.4193 37.8135 47.4633 37.9484 47.5513 37.9933C47.6392 38.0383 47.7712 37.9933 47.8152 37.9034C47.9911 37.5437 48.1231 37.184 48.2991 36.8243C48.563 36.6894 48.8269 36.5096 49.1348 36.3297C49.4427 36.1049 49.7507 35.9251 50.1026 35.6553C50.1905 35.6103 50.1905 35.4754 50.1466 35.3855C50.0586 35.2956 49.9706 35.2956 49.8826 35.3405C49.5307 35.6103 49.2228 35.8351 48.9589 36.015C48.8269 36.1049 48.6949 36.1499 48.563 36.2398C48.651 36.0599 49.0469 35.1157 49.1348 34.846C49.4427 34.7111 49.7507 34.5762 50.0146 34.3514C50.3665 34.1266 50.6744 33.8568 51.0263 33.542C51.1143 33.4521 51.1143 33.3622 51.0263 33.2273C50.9383 33.1374 50.8504 33.1374 50.7624 33.2273C50.4105 33.542 50.1026 33.8118 49.8386 33.9917C49.7067 34.0816 49.5307 34.1715 49.3988 34.2615C49.5747 33.8568 49.7507 33.4521 49.9266 33.0475C49.9706 33.0025 50.2785 32.9126 50.3665 32.8676C50.7624 32.6428 51.1583 32.373 51.4662 32.0583C51.5542 31.9684 51.5542 31.8335 51.5102 31.7885C51.4662 31.7435 51.3342 31.7435 51.2023 31.7885Z" fill="#0F4C8D"/>
<path fill-rule="evenodd" clip-rule="evenodd" d="M52.6099 27.607C52.6099 27.4721 52.4779 27.3822 52.346 27.4271C51.3782 27.8768 50.5425 28.4163 49.8386 29.0458C49.7507 28.4163 49.6627 27.7868 49.5307 27.2023C50.9383 25.224 51.5982 23.0658 51.4662 20.7727C51.3782 18.4346 50.5425 16.0067 49.0029 13.3988C48.9149 13.2639 48.6949 13.2639 48.651 13.3988L47.2873 16.6811C47.1554 16.9958 47.0674 17.3555 46.9794 17.6703C46.7155 16.9509 46.2756 15.7369 46.2756 15.4671C46.2756 15.3322 46.3196 15.1973 46.3196 15.0624C46.3636 13.9833 46.3636 13.0841 45.8357 10.5662H45.7917C45.0879 8.49792 43.0645 6.78934 41.3929 5.71024C41.085 5.48543 40.7771 5.30558 40.4692 5.12573C40.1612 4.94588 39.8973 4.81099 39.7214 4.72107C39.5894 4.6761 39.4134 4.76603 39.4134 4.90092C39.3694 5.53039 39.4134 6.06994 39.4574 6.60949C39.3694 6.56453 39.3255 6.51957 39.2375 6.4746C39.1055 6.38468 38.9296 6.24979 38.7096 6.06994C38.6656 6.02498 37.9178 5.35054 37.5219 4.90092C37.214 4.49625 36.9061 4.09159 36.7302 3.73189C36.6862 3.64196 36.6862 3.55204 36.6422 3.50708L36.5982 3.46212C36.1143 2.96753 35.6744 2.47294 35.0146 2.06828C34.3988 1.61865 33.607 1.25895 32.5513 0.899251C32.5513 0.899251 31.3636 0.629475 30.0879 0.53955C28.9882 0.449625 27.8885 0.3597 26.9208 0C26.8768 0 26.8768 0 26.8328 0C26.7448 0.0449625 26.7008 0.0449625 26.6569 0.0899251C26.6569 0.134888 26.6129 0.134888 26.6569 0.224813C26.7888 0.944213 27.0527 1.57369 27.4486 2.11324C26.7008 2.5179 26.041 2.92256 25.4692 3.37219C24.8533 3.86678 24.3695 4.36137 23.9296 4.90092C23.8416 4.99084 23.9296 5.17069 24.0616 5.21565C25.1173 5.44047 26.173 5.53039 27.2287 5.48543C28.2404 5.44047 29.2522 5.30558 30.3519 5.08077C30.3959 5.12573 30.9237 5.44047 31.1876 5.57535C32.3753 6.20483 33.739 6.56453 35.1026 6.56453C35.1026 6.56453 36.3343 6.4746 36.8181 6.42964C37.302 6.38468 38.2697 6.29475 38.3137 6.29475C38.3577 6.29475 39.2815 6.96919 39.5014 7.10408C39.8973 9.44213 41.085 11.1957 41.8768 12.1399C42.0527 12.4097 42.2287 12.5895 42.4046 12.7244C42.5366 12.8593 42.6246 12.9492 42.6686 12.9942C43.1964 13.3988 43.6803 13.8934 44.2082 14.433C44.736 14.9725 45.2199 15.647 45.7917 16.3214C45.9237 16.6361 46.0996 16.9958 46.2756 17.3555C46.4515 17.7152 46.6275 18.0749 46.7595 18.3447C46.6715 18.8393 46.5835 19.3339 46.5395 19.7835C46.4516 20.5479 46.4515 21.3122 46.4515 22.0766C46.2756 21.8518 46.0557 21.627 45.8797 21.4022C45.4398 20.9076 44.9999 20.413 44.604 19.9184C44.5161 19.8285 44.2961 19.8285 44.2521 19.9634C43.5483 21.9867 43.4164 23.7852 43.6803 25.3139C43.9442 26.8426 44.648 28.1915 45.5718 29.3156C45.5718 29.3156 46.3196 29.945 46.6715 30.2598C47.0234 30.5745 47.4633 30.8893 47.8152 31.249C47.5073 31.6986 47.2873 32.1932 47.0674 32.6878C46.8914 33.0924 46.7155 33.542 46.5835 33.9917C46.4955 34.2614 46.4515 34.5312 46.4076 34.801C46.2756 34.5312 46.1436 34.3064 46.0117 34.0366C45.7477 33.5421 45.3958 33.1374 44.9999 32.6878C44.912 32.5978 44.692 32.5978 44.648 32.7777C44.3401 33.8118 43.9882 34.756 43.5923 35.6553C43.5043 35.8351 43.4604 36.015 43.3284 36.1948C43.2404 36.3297 43.0645 36.6894 43.0645 36.6894C42.2727 37.8585 41.7448 38.9376 41.3929 39.9717C41.041 41.0058 40.909 41.995 40.909 42.9392C40.7771 42.9842 40.6891 43.0291 40.5571 43.0741C38.6216 43.9284 37.0381 45.1424 35.8504 46.851C35.4105 47.5254 34.9706 48.0649 34.4428 48.4696C33.9589 48.7843 33.431 48.9642 32.8152 49.0541C34.0029 47.7502 34.7947 46.1316 35.3225 44.3331C35.3665 44.1982 35.2346 44.0183 35.0586 44.0633C34.5307 44.2881 34.0469 44.4679 33.519 44.6028C32.9472 44.6928 32.4193 44.7827 31.8475 44.8276H31.8035L31.8475 44.9625V45.0075L31.8035 44.8276C30.4838 45.0525 29.2522 45.4122 28.1085 45.9967C27.4926 46.3114 26.9208 46.7161 26.3929 47.2107C25.997 46.761 25.3812 46.4013 24.5894 46.1316C23.7096 45.8168 21.3343 45.4571 21.3343 45.4571C20.6305 45.4122 19.9706 45.3672 19.2668 45.2323C18.563 45.1424 17.9032 45.0075 17.1994 44.8276C17.0674 44.7827 16.8915 44.9625 16.9794 45.1424C17.6393 46.4913 18.651 47.4804 19.8827 48.3797C20.3226 48.6944 20.8064 48.9642 21.2903 49.234C21.1583 49.189 21.0264 49.144 20.8944 49.0991C19.7947 48.7394 18.651 48.3797 17.5513 47.975C15.5718 46.1316 13.5484 44.7377 11.5249 43.8834C11.3929 43.8385 11.217 43.7485 11.085 43.7036C11.085 42.7594 10.9971 41.8601 10.7771 40.8709C10.5132 39.8818 10.0733 38.8476 9.36949 37.7685C9.36949 37.7685 8.53371 36.6894 8.18181 36.06C7.78591 35.4305 7.43401 34.756 7.17008 33.9917C7.12609 33.8568 6.86216 33.8568 6.81817 33.9467C6.46627 34.5312 6.24633 35.2057 6.11436 35.8801C5.5865 34.4863 4.8387 33.1824 3.78299 32.0133C5.49853 30.3497 6.7302 28.5962 7.34603 26.7077C8.00585 24.8193 8.04984 22.796 7.478 20.6378C7.478 20.5029 7.30204 20.458 7.21407 20.5029C6.7302 20.7277 6.29031 21.0425 5.85043 21.4471C5.54251 21.7169 5.2346 22.0766 4.97067 22.4363C4.92668 21.9417 4.88269 21.4921 4.79471 20.9975C4.75073 20.6828 4.70674 20.0533 4.70674 20.0533C4.61876 19.6486 4.53079 19.2889 4.39882 18.9742C4.57477 18.7044 4.70674 18.4796 4.79471 18.2998C4.88269 18.0749 5.19061 17.5354 5.19061 17.5354C6.95014 16.4113 8.53371 14.7477 9.72139 12.9042C9.94134 12.5445 10.1613 12.1848 10.3812 11.8251C10.6012 11.4205 10.7771 11.0608 10.9091 10.7011C10.9091 10.7011 11.4809 8.72273 11.6129 7.91341C11.9208 7.73356 12.2287 7.59867 12.4927 7.46378C12.8006 7.28393 13.1525 7.14904 13.4604 6.92423C13.9443 6.96919 14.3841 6.92423 14.868 6.92423C15.3519 6.87927 15.7918 6.87927 16.2756 6.87927C17.3314 6.92423 18.2991 6.8343 19.2668 6.56453C20.1906 6.29475 21.0704 5.89009 21.8621 5.21565C22.6539 4.49625 23.2698 3.82182 23.7096 3.10241C24.1495 2.33805 24.4574 1.57369 24.5014 0.674438C24.5014 0.53955 24.3695 0.404663 24.2375 0.449625C23.0058 0.944213 21.6862 1.25895 20.4105 1.52873C19.9706 1.61865 19.4868 1.75354 19.0469 1.84346C17.4633 2.1582 16.3196 2.83264 15.3959 3.64196C14.5161 4.49625 13.8563 5.48543 13.2844 6.60949C12.9765 6.78934 12.6686 6.92423 12.3607 7.10408C12.1407 7.194 11.9208 7.28393 11.7009 7.41882C11.7449 7.19401 11.7449 6.96919 11.7888 6.78934C11.8328 6.42964 11.8768 6.02498 11.9648 5.66528C12.0088 5.48543 11.8328 5.3955 11.7009 5.48543C10.2053 6.15987 9.36949 6.87927 8.35776 7.73355C8.09383 8.00333 7.34603 8.58784 7.34603 8.58784C4.88269 10.9709 4.8387 14.4779 4.79471 16.9509V17.4904C4.57477 17.8052 4.4868 18.03 4.35483 18.2098C4.31084 18.2998 4.26686 18.4346 4.22287 18.5695C4.0909 18.1649 3.95894 17.8052 3.87096 17.4455C3.56305 16.6811 3.29912 15.9617 2.90322 15.1973C2.81525 15.0624 2.63929 15.0624 2.55132 15.1973C1.75953 16.5013 1.36363 17.5804 0.967741 18.8393C0.835776 19.244 0.48387 20.1882 0.48387 20.1882C-0.395894 23.6053 1.09971 26.9326 2.15542 29.2256C2.19941 29.3605 2.28739 29.4954 2.28739 29.5853V30.0799C2.28739 30.1699 2.28739 30.2598 2.28739 30.4846C2.06745 30.2598 1.8475 30.0799 1.58358 29.9001C1.18768 29.5853 0.791788 29.3156 0.395894 29.0008C0.263929 28.9109 0.0879764 29.0008 0.0879764 29.1807C-0.0439882 31.4738 0.175953 33.542 0.7478 35.2506C1.31965 36.9592 2.28739 38.3081 3.65102 39.2973C4.75073 40.0616 5.63049 40.9159 6.37829 41.9051C6.51026 42.0849 6.64222 42.2648 6.77418 42.4896C6.81817 42.5346 6.81817 42.5795 6.86216 42.6245C6.90615 42.6694 6.90615 42.7594 6.90615 42.8043C6.3343 42.7594 5.71847 42.8043 5.10263 42.8493C4.92668 42.8493 4.8387 43.0741 4.97067 43.209C5.49853 43.7485 5.9824 44.378 6.46627 45.0525C6.99413 45.7269 7.96187 47.2107 7.96187 47.2107C9.10556 48.6045 10.5132 49.3689 12.0088 49.7735C13.5484 50.1332 15.1759 50.0433 16.9355 49.7286L22.478 51.2573C21.3783 51.8418 20.0586 52.3364 18.519 52.6961C18.4311 52.7411 18.3871 52.831 18.3871 52.8759C18.3871 53.0108 18.3871 53.2356 18.475 53.3705C18.519 53.5504 18.607 53.7302 18.827 53.9101C18.827 53.955 18.9589 54 18.9589 54C19.7067 53.8651 20.4105 53.6853 21.1143 53.4605C21.8621 53.2806 23.3138 52.6511 23.3138 52.6511C23.7096 52.4263 24.2815 52.3813 24.9853 52.3813C25.3372 52.3364 25.7331 52.3364 26.173 52.2914C26.4809 52.2465 26.7888 52.2015 27.0967 52.1565C27.0967 52.2015 29.2522 52.8759 30.3079 53.1007C31.3636 53.3705 32.4193 53.5054 33.519 53.5504C33.563 53.5504 33.651 53.5054 33.651 53.4605C33.8269 53.1907 33.9149 52.9209 33.9589 52.6961C33.9589 52.4263 33.9149 52.1565 33.7829 51.8868C33.739 51.8418 33.695 51.7968 33.651 51.7968C32.9912 51.7069 32.3313 51.6619 31.6715 51.5271C31.0997 51.4371 30.5718 51.3022 30.0439 51.1674C30.8357 50.7627 31.4956 50.3131 32.1114 49.7286C32.4633 49.7286 32.7272 49.6836 32.9912 49.6836C33.2991 49.6386 33.607 49.6386 33.9149 49.5937C35.7184 49.9534 37.39 49.9534 38.9296 49.5487C40.4692 49.144 41.9208 48.3797 43.1964 47.2107C44.4281 46.0416 45.3518 45.0525 46.0117 44.1982C46.6715 43.3439 47.0674 42.6245 47.2433 42.04C47.2873 41.9051 47.1554 41.7702 46.9794 41.7702C46.6275 41.8601 46.2316 41.9051 45.8797 41.95C46.1876 41.4555 46.4076 40.9609 46.6275 40.4213C47.5952 40.0167 48.519 39.567 49.3988 38.5779C50.2785 37.5887 51.8621 33.8568 51.9941 33.4072C52.126 32.9575 52.4339 30.5745 52.4779 29.1357C52.5219 28.821 52.5219 28.5512 52.5219 28.2814C52.6099 28.1016 52.6099 27.8318 52.6099 27.607ZM27.2727 5.0358C26.3489 5.08077 25.4692 4.99084 24.5454 4.85595C24.8973 4.45129 25.2932 4.04663 25.7771 3.68693C26.3049 3.28226 26.9648 2.8776 27.7126 2.47294C27.7566 2.5179 28.1964 3.05745 28.4604 3.32723C27.5806 3.55204 25.997 4.18152 25.997 4.18152C25.9091 4.22648 25.8651 4.36137 25.9091 4.45129C25.9091 4.54122 26.041 4.63114 26.173 4.54122C26.173 4.54122 28.1964 3.73189 28.8123 3.68693C29.1202 4.00167 29.956 4.72107 30.0439 4.76603C29.0322 4.90092 28.1525 5.0358 27.2727 5.0358ZM36.8621 6.02498C36.3343 6.06994 35.8504 6.1149 35.4105 6.15987C33.9589 6.20483 32.6393 5.89009 31.4516 5.21565C31.1876 5.12573 29.0762 3.77685 28.1085 2.33805C28.0645 2.29309 28.0205 2.20316 27.8445 1.97835C27.7126 1.75354 27.3607 1.39384 27.1407 0.494588C28.0645 0.764363 29.0322 0.899251 30.0439 0.944213C30.8797 1.03414 31.5835 1.03414 32.4193 1.25895C33.2551 1.48376 34.1788 1.97835 34.7947 2.38301C35.3665 2.78768 35.8504 3.2373 36.2903 3.73189C36.4662 4.18152 36.8181 4.72107 37.214 5.17069C37.478 5.44047 37.6979 5.71024 37.9178 5.93505C37.6099 5.93505 37.214 5.98002 36.8621 6.02498ZM44.5601 14.1632C44.0322 13.6236 42.9765 12.6794 42.9765 12.6794C42.9325 12.6794 42.4486 12.1399 42.2287 11.9151C41.2609 10.746 39.7214 8.36303 39.8093 5.21565C39.9413 5.30558 40.1172 5.3955 40.2932 5.48543C40.5571 5.62032 40.865 5.80017 41.173 6.02498C42.8005 7.05912 44.736 8.72273 45.3958 10.6561C45.9237 13.174 45.8797 14.0283 45.8797 15.0624V15.4671C45.8797 15.557 45.9237 15.647 45.9237 15.8268C45.4398 15.1973 44.9999 14.6578 44.5601 14.1632ZM15.7038 3.91174C16.5836 3.10241 17.6833 2.5179 19.1789 2.20316C19.6627 2.11324 20.1026 2.02331 20.5425 1.88843C21.7742 1.61865 22.9618 1.34888 24.1055 0.899251C24.0176 1.57369 23.7536 2.24813 23.4017 2.83264C22.9618 3.55204 22.346 4.22648 21.5982 4.90092C20.8504 5.53039 20.0586 5.93505 19.1789 6.15987C18.2991 6.42964 17.3314 6.51957 16.3196 6.4746C15.7918 6.42964 15.3519 6.42964 14.868 6.4746C14.5161 6.4746 14.1202 6.51957 13.7683 6.51957C14.3402 5.53039 14.912 4.63114 15.7038 3.91174ZM5.27859 16.816C5.32257 14.388 5.32257 10.9709 7.74193 8.67777C8.09383 8.40799 8.35776 8.13822 8.66568 7.91341C9.54544 7.10408 10.3372 6.4746 11.5689 5.84513C11.5249 6.1149 11.4809 6.38468 11.4809 6.60949C11.305 7.77852 11.173 8.90258 10.6012 10.4313C10.4692 10.791 10.2932 11.1507 10.0733 11.5104C9.89735 11.8701 9.67741 12.2298 9.45747 12.5895C8.35776 14.2981 6.90615 15.8718 5.27859 16.9509C5.27859 16.9059 5.27859 16.8609 5.27859 16.816ZM20.2346 47.9301C19.1789 47.2107 18.2991 46.3114 17.6833 45.2323C18.2551 45.3672 18.783 45.4571 19.3548 45.592C20.0146 45.6819 20.7184 45.7719 21.4223 45.8168C22.6539 45.9517 23.7096 46.1765 24.5894 46.4463C25.3372 46.7161 25.9091 47.0308 26.261 47.4355C25.953 47.7502 25.6891 48.0649 25.4692 48.4246C25.0733 48.2448 24.6774 48.0649 24.2815 47.9301C24.1495 47.6603 23.8856 47.3455 23.6217 47.0308C23.5777 46.9409 23.2698 46.6261 23.2698 46.6261C23.1818 46.5812 23.0938 46.5812 23.0058 46.6711C22.9618 46.761 22.9618 46.851 23.0058 46.9409C23.0058 46.9409 23.5777 47.5254 23.6657 47.6603C23.3577 47.5254 23.0058 47.3905 22.6979 47.2556C22.478 46.761 22.1701 46.4013 21.9061 46.1765C21.8182 46.1316 21.7742 46.0866 21.6862 46.0416C21.5982 45.9967 21.5542 45.9517 21.4662 45.9517C21.3783 45.9067 21.2463 46.0416 21.2463 46.1316C21.2463 46.2215 21.4662 46.3564 21.5102 46.4013C21.5542 46.4463 21.9061 46.761 22.0821 46.9858C21.2463 46.6261 20.4105 46.3114 19.5308 45.9517C19.4428 45.9067 19.3108 45.9517 19.2668 46.0416C19.2228 46.1316 19.2668 46.2664 19.3548 46.3114C20.1466 46.6711 21.0264 47.0308 21.9061 47.3905C21.8621 47.3905 21.7742 47.3905 21.7302 47.3905C21.5102 47.4355 21.2023 47.3905 20.9384 47.3455C20.8504 47.3455 20.7184 47.4355 20.7184 47.5254C20.7184 47.6153 20.8064 47.7502 20.8944 47.7502C21.2023 47.7952 21.4662 47.7952 21.7302 47.7952C21.9941 47.7502 22.302 47.7052 22.522 47.6603C22.8739 47.7952 23.2258 47.975 23.6217 48.1099C23.4897 48.1549 23.3577 48.1998 23.2258 48.2448C22.9179 48.2898 22.6099 48.3347 22.346 48.3347C22.258 48.3347 22.1261 48.4246 22.1701 48.5146C22.1701 48.6045 22.258 48.7394 22.39 48.7394C22.6979 48.6944 23.0498 48.6495 23.3577 48.6045C23.6657 48.5595 23.9296 48.4246 24.1935 48.2898C24.5454 48.4246 24.9413 48.6045 25.2932 48.7394C25.0733 49.189 24.7654 49.5487 24.4135 49.9534C24.2375 49.9084 24.0616 49.8634 23.8856 49.8185C22.478 49.2789 21.2903 48.6495 20.2346 47.9301ZM5.01466 23.0658C5.05864 23.0658 5.05864 23.0658 5.01466 23.0658C5.36656 22.4813 5.76246 22.0766 6.11436 21.7169C6.46627 21.4022 6.81817 21.1774 7.17008 20.9525C7.65395 22.9309 7.56597 24.7744 6.99413 26.5279C6.37829 28.3264 5.2346 30.035 3.51906 31.6536C3.38709 31.5187 3.29912 31.3838 3.16715 31.2939C3.47507 30.7993 3.78299 30.2598 4.04692 29.6753C4.31084 29.5404 4.31084 29.5404 4.31084 29.5404C4.61876 29.3156 4.92668 29.1357 5.19061 28.9559C5.27859 28.8659 5.32257 28.776 5.2346 28.6861C5.19061 28.5962 5.05864 28.5512 4.97067 28.5962C4.75073 28.7311 4.53079 28.8659 4.35483 29.0008C4.57477 28.5962 4.75073 28.1465 4.92668 27.7419C5.10263 27.607 5.32257 27.4721 5.49853 27.3372C5.67448 27.2473 5.89442 27.1574 6.07037 27.1124C6.15835 27.1124 6.24633 26.9775 6.24633 26.8876C6.20234 26.7977 6.11436 26.7077 5.9824 26.7527C5.76246 26.8426 5.54251 26.8876 5.32257 27.0225C5.27859 27.0225 5.27859 27.0674 5.2346 27.0674C5.36656 26.7527 5.49853 26.438 5.63049 26.1232C5.71847 25.9883 5.89442 25.8984 6.07037 25.7635C6.29031 25.6286 6.46627 25.5387 6.7302 25.4038C6.81817 25.3589 6.86216 25.224 6.81817 25.1341C6.77418 25.0441 6.64222 24.9992 6.55424 25.0441C6.29031 25.1341 6.07037 25.2689 5.89442 25.4038C5.9824 25.0891 6.11436 24.7744 6.20234 24.4147C6.20234 24.4147 6.24633 24.4147 6.24633 24.3697C6.3343 24.2348 6.46627 24.0999 6.59823 24.01C6.7302 23.9201 6.86216 23.7852 6.99413 23.6953C7.0821 23.6503 7.12609 23.5604 7.03811 23.4255C6.99413 23.3356 6.86216 23.3356 6.77418 23.3356C6.68621 23.3805 6.55424 23.4704 6.46627 23.5604C6.51025 23.3356 6.59823 23.1557 6.64222 22.9309C6.68621 22.841 6.59823 22.7061 6.46627 22.7061C6.37829 22.6611 6.29031 22.7061 6.20234 22.841C6.11436 23.3356 5.93841 23.7852 5.80644 24.1898C5.63049 24.6395 5.49853 25.0891 5.36656 25.4938C4.61876 27.652 3.69501 29.4505 2.81525 30.9792C2.77126 30.9342 2.72727 30.8893 2.63929 30.7993C2.63929 30.7993 2.63929 29.8102 2.68328 29.4055C2.9912 28.8659 3.29912 28.1465 3.60703 27.4271C3.78299 26.9775 4.22287 26.0333 4.22287 26.0333C4.88269 25.0441 5.05864 24.055 5.01466 23.0658ZM0.967741 20.1432C1.14369 19.6936 1.31965 19.244 1.45161 18.8393C1.8475 17.7152 2.19941 16.7261 2.85923 15.602C3.16715 16.2315 3.38709 16.816 3.60703 17.4455C3.87096 18.2098 4.13489 19.0641 4.39882 20.1432C4.44281 20.458 4.44281 20.7277 4.4868 21.0425C4.70674 22.7061 4.88269 24.2798 4.00293 25.9434C4.00293 25.9434 3.56304 26.8876 3.3431 27.3822C3.07917 27.9667 2.81525 28.5512 2.5953 29.0458C2.5953 28.9559 0.0879764 23.4704 0.967741 20.1432ZM3.95894 38.8926C2.63929 37.9933 1.75953 36.6894 1.18768 35.0708C0.703811 33.4971 0.48387 31.6536 0.571847 29.5404C0.879764 29.7652 1.14369 29.99 1.45161 30.1699C1.8475 30.4846 2.19941 30.7993 2.50733 31.0691C4.17888 32.6878 5.36656 34.5312 5.9824 36.5096C5.9824 36.5545 6.02638 36.5545 6.02638 36.5995C5.9824 37.0042 5.9824 37.4088 5.9824 37.8585C6.02638 38.9376 6.20234 40.0616 6.55424 41.3206C5.85043 40.4663 4.97067 39.612 3.95894 38.8926ZM6.37829 37.8585C6.3343 36.5995 6.55424 35.4754 6.99413 34.4863C7.25805 35.1157 7.56597 35.7002 7.87389 36.2398C8.26978 36.8693 8.66568 37.4538 9.10556 37.9484C9.76538 38.9825 10.2053 39.9717 10.4692 40.9159C10.6891 41.8152 10.7771 42.6694 10.7331 43.4788C10.3812 43.3439 10.0293 43.254 9.63342 43.164C9.58943 43.0291 9.50145 42.8493 9.45747 42.7144C9.54544 42.5346 9.45747 42.7594 9.45747 42.7144C9.67741 42.1749 9.89735 41.5903 10.1173 41.0958C10.1613 41.0058 10.1173 40.8709 10.0293 40.826C9.94134 40.781 9.80937 40.8709 9.76538 40.9159C9.58943 41.3655 9.45747 41.7702 9.28151 42.1749C9.10556 41.7702 8.9736 41.3655 8.84163 40.9609C8.92961 40.781 9.01758 40.6012 9.10556 40.3764C9.23752 40.1066 9.3255 39.7918 9.45747 39.567C9.50145 39.4771 9.45746 39.3422 9.36949 39.2973C9.28151 39.2523 9.14955 39.2973 9.10556 39.3872C9.01758 39.657 8.84163 39.9267 8.75365 40.1965C8.70967 40.2864 8.70967 40.3314 8.66568 40.4213C8.62169 40.2864 8.5777 40.1515 8.53371 40.0616C8.44574 39.8368 8.40175 39.612 8.31377 39.4321C8.31377 39.3872 8.35776 39.3872 8.35776 39.3422C8.35776 39.1624 8.40175 38.9825 8.48972 38.7577C8.5777 38.5779 8.66568 38.398 8.79764 38.2182C8.84163 38.1282 8.84163 37.9933 8.79764 37.9484C8.70967 37.8585 8.5777 37.8585 8.53371 37.9933C8.35776 38.2182 8.2258 38.443 8.13782 38.6678C8.13782 38.7127 8.13782 38.7127 8.09383 38.7577C7.91788 38.1732 7.78591 37.5887 7.65395 37.0042C7.65395 36.9142 7.52198 36.8243 7.43401 36.8693C7.34603 36.9142 7.25805 36.9592 7.25805 37.0941C7.39002 37.7236 7.56597 38.353 7.69794 38.9376C7.478 38.8027 7.21407 38.6678 6.99413 38.443C6.90615 38.353 6.81817 38.398 6.7302 38.4879C6.64222 38.5779 6.68621 38.6678 6.77418 38.7577C7.0821 39.0275 7.39002 39.2523 7.69794 39.3872C7.74192 39.4321 7.8299 39.4321 7.87389 39.4321C7.96187 39.7019 8.04984 39.9267 8.09383 40.1965C8.13782 40.3764 8.18181 40.5112 8.26978 40.6911C8.18181 40.6461 8.09383 40.6012 8.00585 40.5562C7.74193 40.4213 7.52198 40.2864 7.30204 40.1965C7.21407 40.1515 7.0821 40.1965 7.03811 40.2864C7.03811 40.3764 7.03811 40.5112 7.12609 40.5562C7.39002 40.6461 7.60996 40.781 7.8299 40.8709C8.00585 40.9609 8.2258 41.0958 8.44574 41.1857C8.66568 41.7702 8.88562 42.3997 9.14955 42.9842C8.5777 42.8493 8.00585 42.7594 7.43401 42.7144C7.34603 42.5795 7.25805 42.4446 7.21407 42.3097C6.7302 40.6911 6.42228 39.2073 6.37829 37.8585ZM17.0674 49.234C15.3519 49.5937 13.6803 49.6386 12.2287 49.2789C10.7771 48.9192 9.45747 48.1998 8.40175 46.8959C7.87389 46.1316 7.39002 45.4122 6.90615 44.7377C6.46627 44.1982 6.07037 43.6586 5.63049 43.164C7.65395 43.0291 9.58943 43.3888 11.4809 44.1982C13.5044 45.0525 15.4839 46.4013 17.4633 48.2448C17.4633 48.2448 19.7947 49.0991 20.9384 49.4138C21.8182 49.6836 22.6979 49.9084 23.5777 50.1782C23.7096 50.2231 23.7976 50.2681 23.9296 50.3131C23.6657 50.5379 23.4017 50.7177 23.1378 50.8976L17.0674 49.234ZM31.7595 51.8418C32.3753 51.9317 32.9912 52.0216 33.651 52.1116C33.739 52.2914 33.739 52.4263 33.739 52.5612C33.739 52.741 33.651 52.8759 33.563 53.0558C32.5513 53.0108 31.5395 52.8759 30.5278 52.6511C29.692 52.4713 28.8123 52.2015 27.9765 51.9317C28.5923 51.7968 29.1642 51.572 29.692 51.3472C29.736 51.3922 29.736 51.3922 29.78 51.4371C30.3959 51.617 31.0557 51.7519 31.7595 51.8418ZM32.1114 49.2789C30.7038 50.6278 28.8123 51.572 26.261 51.8868C25.8651 51.9317 25.4692 51.9317 25.1173 51.9767C24.3695 52.0216 23.7536 52.0666 23.2698 52.3364C22.566 52.6511 21.8621 52.8759 21.1583 53.1007C20.4985 53.2806 19.8387 53.4605 19.1789 53.5953C19.0909 53.5054 19.0469 53.3705 19.0469 53.2806C19.0029 53.1907 19.0029 53.1457 19.0029 53.0558C20.6305 52.6511 22.0381 52.1116 23.1818 51.4371C24.2815 50.7627 25.1613 49.9534 25.6891 48.9192C25.7331 48.9192 25.7771 48.8743 25.8211 48.7843C25.8211 48.7394 25.8211 48.7394 25.8211 48.6944C26.5689 47.6603 27.4926 46.8959 28.5044 46.3564C29.5601 45.7719 30.7917 45.4571 32.0674 45.2323C32.6393 45.1873 33.2111 45.1424 33.739 45.0075C34.1788 44.9176 34.5747 44.7827 34.9706 44.6028C34.3108 46.4013 33.431 48.02 32.1114 49.2789ZM46.9354 19.8285C47.0234 18.8393 47.2873 17.8501 47.6392 16.816L48.8269 13.9384C50.1905 16.3214 50.9383 18.6145 51.0263 20.7727C51.1143 22.8859 50.5864 24.8643 49.3548 26.7077C49.3108 26.5279 49.2228 26.348 49.1788 26.1682C48.7829 25.0891 48.1671 24.01 47.1994 22.9309C47.1114 22.841 47.0234 22.7061 46.8914 22.5712C46.8035 21.6719 46.8035 20.7727 46.9354 19.8285ZM46.9794 29.945C46.6275 29.6303 46.2756 29.3605 45.9237 29.0458C44.9999 27.9667 44.3841 26.7077 44.1202 25.224C43.9002 23.8301 43.9882 22.2115 44.5601 20.413C44.912 20.8177 45.2639 21.2223 45.6158 21.627C45.9237 21.9867 46.2316 22.3464 46.5395 22.7061C46.5395 22.751 46.5835 22.751 46.6275 22.796C46.7155 22.8859 46.8035 23.0208 46.9354 23.1557C47.8592 24.1898 48.431 25.224 48.8269 26.3031C49.1788 27.2923 49.3988 28.3264 49.4427 29.3605C49.2668 29.5404 49.0469 29.7202 48.8709 29.9001C48.563 29.4055 48.2551 28.9109 47.9911 28.3714C48.0791 28.0566 48.1671 27.562 48.2111 26.9775C48.2111 26.8426 48.2551 26.1232 48.2551 26.0783C48.2551 25.9883 48.1671 25.8535 48.0791 25.8535C47.9911 25.8535 47.9032 25.9434 47.9032 26.0783C47.9032 26.0783 47.8592 26.7977 47.8592 26.9326C47.8152 27.2923 47.7712 27.607 47.7272 27.8318C47.4633 27.3822 46.8914 26.2581 46.8035 26.1232C46.8914 25.9434 46.9354 25.6286 46.9794 25.3139C47.0674 24.9092 47.0674 24.4596 47.1114 24.055C47.1114 23.965 47.0234 23.8301 46.9354 23.8301C46.8474 23.8301 46.7595 23.9201 46.7155 24.01C46.6715 24.4596 46.6275 24.8643 46.6275 25.2689C46.5835 25.3589 46.5835 25.4938 46.5835 25.5837C46.1436 24.6844 45.7477 23.7852 45.3958 22.841C45.3518 22.751 45.2639 22.7061 45.1319 22.751C45.0439 22.796 44.9999 22.8859 45.0439 23.0208C45.3958 23.965 45.8357 24.9092 46.2756 25.8535C46.1436 25.8085 46.0117 25.7186 45.8357 25.6286C45.5718 25.4938 45.2639 25.224 44.9999 24.9992C44.912 24.9092 44.824 24.9092 44.736 24.9992C44.648 25.0891 44.648 25.224 44.78 25.2689C45.0879 25.4938 45.3958 25.7635 45.6598 25.9434C45.9677 26.1232 46.2316 26.2581 46.5395 26.3031C46.5835 26.393 47.1554 27.4721 47.3753 27.9217C47.1993 27.8318 46.2316 27.2923 45.8797 27.0225C45.7917 26.9775 45.6598 27.0225 45.6158 27.1124C45.5278 27.2023 45.5718 27.3372 45.6598 27.3822C46.0117 27.607 47.3313 28.3714 47.6832 28.5062C47.9911 29.0458 48.2991 29.5853 48.651 30.1249C48.475 30.3497 48.2991 30.5745 48.1231 30.7993C47.7272 30.5745 47.3313 30.2598 46.9794 29.945ZM46.8035 42.2198C46.6275 42.7144 46.2756 43.2989 45.7917 43.9284C45.1319 44.7377 44.2521 45.7269 43.0205 46.8959C41.7888 48.0649 40.4252 48.7843 38.9296 49.144C37.434 49.5037 35.8064 49.5037 34.0469 49.144C34.0469 49.144 34.4868 48.9192 34.7067 48.7394C35.3225 48.2898 35.8064 47.7052 36.2463 47.0308C37.39 45.4122 38.9296 44.2431 40.7771 43.4338C41.129 43.2989 41.5249 43.1191 41.9208 42.9842C42.3167 42.8943 42.7126 42.7594 43.1524 42.6694C43.1524 42.6694 45.7038 42.4446 46.8035 42.2198ZM45.4838 41.995L45.4398 42.04C44.868 42.1299 44.2961 42.1749 43.7683 42.2198C43.8562 42.04 43.9002 41.8601 43.9882 41.6803C44.0762 41.3655 44.3401 40.6911 44.3401 40.6461C44.5601 40.5562 44.824 40.4213 45.0439 40.1965C45.3079 39.9717 45.5718 39.7019 45.8357 39.3872C45.9237 39.2973 45.9237 39.2073 45.7917 39.1174C45.7037 39.0275 45.6158 39.0275 45.5278 39.1174C45.2639 39.4321 44.9999 39.657 44.78 39.8818C44.692 39.9717 44.604 40.0616 44.4721 40.1066C44.604 39.612 44.736 39.0724 44.824 38.5779C44.956 38.4879 45.1319 38.398 45.3079 38.2631C45.5278 38.0833 45.7038 37.9034 45.9237 37.6336C46.0117 37.5437 46.0117 37.4538 45.8797 37.3189C45.7917 37.229 45.6598 37.229 45.6158 37.3639C45.3958 37.5887 45.1759 37.8135 44.9999 37.9484C44.956 37.9933 44.912 38.0383 44.912 38.0383C45.0439 37.2739 45.1319 36.4646 45.2199 35.6553C45.2199 35.5654 45.1319 35.4754 45.0439 35.4754C44.956 35.4305 44.868 35.5654 44.824 35.6553C44.78 36.4646 44.692 37.2739 44.5601 38.0383C44.5161 37.9933 44.4721 37.9034 44.3841 37.8135C44.2961 37.5887 44.1642 37.3639 44.0322 37.1391C43.9882 37.0491 43.9002 36.9592 43.7683 37.0042C43.6803 37.0491 43.6363 37.1391 43.6803 37.2739C43.7683 37.5887 43.9002 37.8135 44.0762 38.0383C44.1642 38.2182 44.3401 38.353 44.4721 38.4879C44.3841 39.0275 44.2521 39.5221 44.1202 40.0167C44.0762 39.9267 44.0322 39.8818 43.9882 39.7918C43.8562 39.5221 43.7243 39.2073 43.5483 38.8027C43.5043 38.7127 43.3724 38.6678 43.2844 38.7127C43.1964 38.7577 43.1524 38.8476 43.1964 38.9825C43.3284 39.4321 43.5043 39.7469 43.6363 40.0167C43.7683 40.2415 43.8562 40.4213 43.9882 40.5562C43.9882 40.6012 43.6363 41.5903 43.6363 41.5903C43.4604 41.3655 43.3284 41.1407 43.1964 40.9159C43.1524 40.826 43.0645 40.6012 43.0645 40.5562C43.0205 40.4663 42.9325 40.4213 42.8005 40.4663C42.7126 40.5112 42.6686 40.6012 42.7126 40.7361C42.7565 40.781 42.8445 41.0508 42.8885 41.0958C43.0645 41.4105 43.2404 41.7252 43.5043 42.04C43.4604 42.1299 43.4164 42.1749 43.4164 42.2648C43.4164 42.2648 41.6128 42.7144 41.4809 42.7594C41.4809 41.9051 41.6128 41.0058 41.9208 40.0616C42.2727 39.0724 42.8005 37.9933 43.5483 36.8693C43.5483 36.8693 43.9882 35.97 44.0762 35.7902C44.4281 34.9808 44.78 34.1266 45.0439 33.2273C45.3079 33.542 45.5718 33.9018 45.7917 34.2615C46.0557 34.7111 46.2756 35.1607 46.4515 35.5654C47.1993 37.8585 46.7155 40.1515 45.4838 41.995ZM52.214 29.1357C52.126 30.5745 51.9061 32.2381 51.6861 33.3622C51.6861 33.3622 50.0586 37.3639 49.1788 38.353C48.431 39.2073 47.6392 39.612 46.8474 39.9717C47.2433 38.5779 47.2433 37.0491 46.7155 35.5654C46.7155 35.5654 46.8914 34.5762 46.9794 34.1266C47.1114 33.6769 47.2433 33.2723 47.4193 32.8676C47.9472 31.6536 48.651 30.6195 49.6627 29.6753C49.7507 29.6753 49.7947 29.6303 49.7947 29.5404C50.4985 28.9109 51.2903 28.3714 52.17 27.9217C52.17 28.0566 52.17 28.1915 52.17 28.3264C52.258 28.5962 52.214 28.8659 52.214 29.1357Z" fill="#0F4C8D"/>
<path fill-rule="evenodd" clip-rule="evenodd" d="M42.6246 44.2881C42.7126 43.9734 42.8005 43.7036 42.9765 43.4338C43.0645 43.3439 43.0205 43.254 42.8885 43.164C42.8005 43.1191 42.6686 43.1191 42.6246 43.254C42.4486 43.5687 42.3167 43.8385 42.2287 44.1532C42.1407 44.423 42.0967 44.6928 42.0967 44.9625C41.6568 45.2323 41.173 45.547 40.7331 45.8168C40.7771 45.4571 40.8211 45.0974 40.909 44.7377C40.953 44.6028 41.041 44.2881 41.085 44.1532C41.129 44.0183 41.041 43.9284 40.997 43.8834C40.909 43.8385 40.7771 43.8834 40.7331 43.9734C40.6891 44.0633 40.6011 44.4679 40.5571 44.5579C40.4252 45.0525 40.3812 45.5021 40.3372 45.9967C39.8533 46.2664 39.3255 46.5362 38.8416 46.806C38.8416 46.5812 38.8856 46.3564 38.9296 46.1316C39.0175 45.8168 39.1935 45.4571 39.4134 45.1424C39.5014 45.0525 39.4574 44.9176 39.3694 44.8726C39.2815 44.7827 39.1935 44.8276 39.1055 44.9176C38.8416 45.2773 38.6656 45.637 38.5337 45.9967C38.4457 46.3114 38.4017 46.6711 38.4017 46.9858C37.5659 47.3905 36.7302 47.7952 35.8504 48.1549C35.7624 48.1998 35.7184 48.2898 35.7624 48.4246C35.8064 48.5146 35.8944 48.5595 36.0263 48.5146C36.3343 48.3797 36.6422 48.2448 36.9941 48.1099L37.0381 48.1549C37.346 48.2898 37.6099 48.3797 37.9178 48.4246C38.2258 48.4696 38.5337 48.4696 38.7976 48.3797C38.8856 48.3347 39.0175 48.2898 38.9736 48.1549C38.9296 48.0649 38.8856 47.975 38.7536 47.975C38.4897 48.02 38.1818 48.02 37.9178 48.02C37.7859 48.02 37.6099 47.975 37.434 47.9301C37.8299 47.7502 38.2258 47.5704 38.6216 47.3455C38.9296 47.4355 39.2375 47.4804 39.5014 47.5254C39.8093 47.5704 40.0733 47.6153 40.3372 47.5704C40.4252 47.5704 40.5131 47.4804 40.5131 47.3905C40.4692 47.3006 40.4252 47.2107 40.2932 47.2107C40.0293 47.2556 39.8093 47.2556 39.5454 47.1657C39.4134 47.1657 39.2815 47.1207 39.1495 47.0758C39.6334 46.806 40.1172 46.5812 40.5571 46.3114C40.7771 46.3564 40.997 46.4013 41.217 46.4463C41.4809 46.4913 41.7448 46.4913 42.0087 46.4913C42.0967 46.5362 42.2287 46.4013 42.2287 46.3114C42.2287 46.2215 42.1407 46.1316 42.0087 46.1316C41.7448 46.1316 41.129 46.0416 41.041 46.0416C41.4369 45.7719 41.8768 45.547 42.2727 45.2773C42.4926 45.3222 42.6686 45.3672 42.8885 45.3672C43.1084 45.4122 43.3724 45.4122 43.5923 45.3672C43.6803 45.3672 43.7683 45.2773 43.7683 45.1424C43.7243 45.0525 43.6803 44.9625 43.5483 45.0075C43.3284 45.0525 42.8005 45.0075 42.7565 44.9625C43.4604 44.5129 44.1202 44.0633 44.824 43.5687C44.912 43.4788 44.912 43.3888 44.868 43.254C44.78 43.164 44.692 43.164 44.5601 43.209C43.8562 43.7036 43.1524 44.1982 42.4486 44.6478C42.5366 44.5579 42.5806 44.423 42.6246 44.2881Z" fill="#0F4C8D"/>
<path fill-rule="evenodd" clip-rule="evenodd" d="M5.01466 37.6786C5.05864 37.3639 5.10263 37.0042 5.05864 36.6894C5.05864 36.3297 5.01466 36.015 5.01466 35.7003C5.01466 35.6103 4.92668 35.5204 4.79471 35.5204C4.70674 35.5654 4.61876 35.6103 4.61876 35.7452C4.66275 36.06 4.66275 36.3747 4.66275 36.6894C4.66275 36.7793 4.66275 36.9142 4.66275 37.0042C4.4868 36.6445 4.31084 36.3297 4.13489 35.97C4.13489 35.3405 4.00293 34.5312 3.95894 33.9017V33.8568C3.91495 33.7669 3.82697 33.6769 3.739 33.6769C3.65102 33.7219 3.56305 33.7669 3.56305 33.9017V33.9467C3.60703 34.3064 3.65102 34.7111 3.69501 35.1157C3.69501 35.0708 3.65102 35.0258 3.65102 35.0258C3.51906 34.756 3.3431 34.4863 3.21114 34.2165C3.21114 34.2165 3.16715 33.542 3.12316 33.2273C3.07917 32.8676 3.03519 32.5529 3.03519 32.2381C3.03519 32.1482 2.94721 32.0583 2.85923 32.0583C2.77126 32.0583 2.63929 32.1932 2.63929 32.2831V32.3281C2.68328 32.6428 2.72727 33.0025 2.72727 33.3172V33.3622C2.37536 32.6878 1.97947 32.0133 1.62756 31.3389C1.53959 31.249 1.45161 31.204 1.36363 31.249C1.27566 31.3389 1.23167 31.4288 1.27566 31.5187C1.71554 32.2831 2.11143 33.0475 2.55132 33.8118C2.46334 33.7669 2.41935 33.7669 2.33138 33.7219C2.02346 33.632 1.75953 33.4971 1.4956 33.4072C1.40762 33.3622 1.27566 33.4072 1.23167 33.4971C1.18768 33.587 1.23167 33.7219 1.31965 33.7669C1.58358 33.8568 1.89149 33.9917 2.15542 34.1266C2.37536 34.2165 2.5953 34.3064 2.81525 34.3963C2.9912 34.7111 3.12316 34.9808 3.29912 35.2956C3.38709 35.4305 3.43108 35.6103 3.51906 35.7452C3.38709 35.7002 3.25513 35.6103 3.12316 35.5654C2.77126 35.3855 2.46334 35.2057 2.19941 35.1157C2.11143 35.0708 1.97947 35.1607 1.93548 35.2057C1.89149 35.3406 1.97947 35.4305 2.06745 35.4754C2.33138 35.5654 2.63929 35.7452 2.94721 35.8801C3.21114 36.06 3.51906 36.1948 3.78299 36.2848C3.95894 36.6445 4.13489 37.0042 4.31084 37.3189C4.31084 37.3189 4.31084 37.3189 4.26686 37.3189C3.82697 37.1391 3.38709 36.8693 2.90322 36.5545C2.81525 36.4646 2.68328 36.5096 2.63929 36.5995C2.55132 36.6894 2.5953 36.7794 2.68328 36.8693C3.16715 37.229 3.65102 37.4988 4.13489 37.6786C4.31084 37.6786 4.39882 37.7236 4.4868 37.7236C4.53079 37.7685 4.57477 37.7685 4.66275 37.7685C4.8387 38.1282 5.01466 38.4879 5.19061 38.8476C5.2346 38.9376 5.36656 38.9825 5.45454 38.9376C5.54251 38.8926 5.5865 38.7577 5.54251 38.6678C5.36656 38.353 5.19061 37.9933 5.01466 37.6786Z" fill="#0F4C8D"/>
<path fill-rule="evenodd" clip-rule="evenodd" d="M16.4956 48.3347C15.7918 48.02 15.088 47.7502 14.3841 47.3905L13.2405 45.547C13.1525 45.4571 13.0645 45.4122 12.9765 45.4571C12.8885 45.5021 12.8446 45.637 12.9325 45.7269L13.7683 47.0758C13.3724 46.8959 12.9765 46.7161 12.5806 46.5362C12.4487 46.2664 12.2287 45.9517 12.0528 45.6819C11.8328 45.3672 11.6569 45.0525 11.5249 44.7377C11.4809 44.6478 11.349 44.6028 11.261 44.6478C11.173 44.7377 11.129 44.8276 11.173 44.9176V44.9625C11.349 45.2773 11.5249 45.592 11.7009 45.9067C11.7888 46.0416 11.8328 46.1316 11.9208 46.2664C11.5249 46.0416 11.085 45.8618 10.6891 45.637C10.5572 45.4571 10.4252 45.2323 10.2053 44.8726C10.0293 44.6028 9.85336 44.3331 9.72139 44.1532C9.67741 44.0633 9.54544 44.0183 9.45747 44.0633C9.36949 44.1082 9.36949 44.2431 9.41348 44.3331C9.58943 44.6028 9.76538 44.8276 9.89735 45.0974C9.89735 45.1424 9.94134 45.1873 9.98532 45.2323C9.19354 44.7827 8.40175 44.3331 7.60996 43.8834C7.52198 43.8385 7.39002 43.8385 7.34603 43.9734C7.30204 44.0633 7.34603 44.1982 7.39002 44.2431C8.22579 44.7377 9.06157 45.2323 9.89735 45.6819C9.80937 45.6819 9.76538 45.6819 9.67741 45.6819C9.36949 45.7269 9.06157 45.7269 8.79764 45.7719C8.70967 45.7719 8.62169 45.8618 8.62169 45.9967C8.62169 46.1316 8.75365 46.1765 8.88562 46.1765C9.14955 46.1316 9.45747 46.0866 9.72139 46.0866C9.98532 46.0416 10.2493 46.0416 10.5132 45.9967C10.9091 46.2215 11.305 46.4013 11.7009 46.6261C11.5689 46.6261 11.4369 46.6261 11.305 46.6711C10.9091 46.7161 10.5132 46.7161 10.1613 46.761C10.0733 46.761 9.98532 46.851 9.98532 46.9858C9.98532 47.0758 10.0733 47.1657 10.2053 47.1207C10.5572 47.0758 10.9531 47.0308 11.349 47.0308C11.7009 47.0308 12.0968 46.9858 12.4047 46.9409C12.8446 47.1657 13.2844 47.3455 13.7243 47.5704L12.2287 47.9301C12.1407 47.975 12.0528 48.0649 12.0968 48.1549C12.0968 48.2448 12.2287 48.3347 12.3167 48.2898L14.2962 47.7952C14.6041 47.9301 14.956 48.0649 15.2639 48.1998C14.78 48.4246 13.8123 48.5595 13.7683 48.5595C13.6803 48.6045 13.5924 48.6944 13.5924 48.8293C13.5924 48.9192 13.6803 49.0092 13.8123 49.0092C13.8563 49.0092 15.044 48.8293 15.7478 48.4696C15.9677 48.5595 16.2316 48.6944 16.4956 48.7843C16.5836 48.8293 16.7155 48.7843 16.7155 48.6944C16.6715 48.5146 16.6275 48.3797 16.4956 48.3347Z" fill="#0F4C8D"/>
<path fill-rule="evenodd" clip-rule="evenodd" d="M33.3431 45.592C32.5073 46.1765 31.6275 46.761 30.7917 47.3006C30.8357 47.1657 30.8357 47.0308 30.8797 46.8959C30.9677 46.6711 31.0117 46.4013 31.1876 46.1765C31.2756 46.0866 31.2316 45.9967 31.0997 45.9067C31.0117 45.8618 30.8797 45.8618 30.8357 45.9967C30.7038 46.2664 30.5718 46.5362 30.4838 46.806C30.3959 47.0758 30.3519 47.3006 30.3519 47.5704C30.0439 47.7952 29.692 47.975 29.3841 48.1998C29.4281 47.975 29.5161 47.6603 29.6481 47.3455C29.692 47.2556 29.736 47.1657 29.78 47.0308C29.824 46.9409 29.868 46.806 29.912 46.7161C29.956 46.5812 29.912 46.4913 29.824 46.4463C29.736 46.3564 29.6041 46.4013 29.5601 46.5362V46.5812C29.4721 46.6711 29.4721 46.806 29.4281 46.8959C29.3841 46.9858 29.3401 47.0758 29.2961 47.2107C29.1202 47.7052 28.9882 48.1549 28.9882 48.4696C28.5923 48.6944 28.2404 48.9192 27.8445 49.144C27.8445 48.9642 27.8885 48.7843 27.9325 48.5595C28.0205 48.1998 28.2404 47.7502 28.5044 47.2107C28.5483 47.1207 28.5044 46.9858 28.4164 46.9409C28.3284 46.8959 28.2404 46.8959 28.1525 47.0308C27.8445 47.5704 27.6686 48.02 27.5366 48.4246C27.4486 48.7843 27.4047 49.0991 27.4486 49.3689C27.1847 49.5037 26.9208 49.6836 26.6569 49.8185C26.7008 49.5937 26.7448 49.3689 26.7888 49.144C26.8768 48.7843 27.0088 48.4696 27.1407 48.1099C27.1847 48.02 27.1407 47.8851 27.0527 47.8401C26.9648 47.7952 26.8328 47.8401 26.7888 47.9301C26.6569 48.3347 26.4809 48.6944 26.4369 49.0541C26.3489 49.3689 26.3049 49.7286 26.261 50.0883C25.7331 50.358 25.2492 50.6278 24.7654 50.8976C24.6774 50.9426 24.6334 51.0325 24.6774 51.1674C24.7214 51.2573 24.8094 51.3022 24.9413 51.2573C25.4692 50.9875 25.997 50.7177 26.4809 50.403C26.7888 50.4929 27.1407 50.5379 27.4926 50.5828C27.8445 50.6728 28.2404 50.6728 28.5923 50.6728C28.6803 50.6728 28.7683 50.5828 28.7683 50.4929C28.7683 50.403 28.6803 50.3131 28.5923 50.3131C28.2404 50.3131 27.8885 50.2681 27.5366 50.2231C27.3607 50.1782 27.1847 50.1782 27.0088 50.1332C27.2287 49.9983 27.4926 49.8634 27.7566 49.7286C28.0645 49.8185 28.4164 49.8634 28.7683 49.8634C29.1202 49.9084 29.5161 49.8634 29.912 49.8185C30 49.7735 30.0879 49.7286 30.0879 49.5937C30.0879 49.4588 29.912 49.4138 29.824 49.4138C29.4281 49.4588 29.0762 49.4588 28.7243 49.4588C28.5483 49.4588 28.4164 49.4588 28.2404 49.4138C28.5923 49.234 28.9003 49.0092 29.2522 48.7843C29.5601 48.8743 29.912 48.8743 30.2639 48.9192C30.6598 48.9642 31.0117 48.9192 31.3636 48.9192C31.4516 48.9192 31.5395 48.8293 31.5395 48.7394C31.5395 48.6495 31.4516 48.5595 31.3636 48.5595C31.0117 48.6045 30.6598 48.6045 30.3079 48.5595C30.1319 48.5595 29.956 48.5595 29.78 48.5146C30.0879 48.3347 30.3959 48.1549 30.7038 47.9301L32.1994 47.975C32.2873 47.975 32.4193 47.8851 32.4193 47.7952C32.4193 47.7052 32.3313 47.6153 32.2434 47.6153L31.3196 47.5704C32.1114 47.0758 32.8592 46.5362 33.651 45.9967C33.739 45.9067 33.739 45.8168 33.695 45.7269C33.563 45.547 33.431 45.547 33.3431 45.592Z" fill="#0F4C8D"/>
<path fill-rule="evenodd" clip-rule="evenodd" d="M11.8328 11.4205L10.8651 12.2298V35.5654C11.129 39.9717 13.5924 41.5454 17.2874 41.3655L22.6539 41.5004C24.5894 42.04 25.5572 43.164 26.129 44.3331C26.217 44.4679 26.261 44.6478 26.3489 44.8276C26.9648 43.254 28.0205 41.8601 30.0439 41.5004C31.9354 41.4555 33.9149 41.4105 35.8064 41.3655C38.8856 41.3206 40.6891 39.8818 40.8211 36.5096V11.4205H11.8328ZM36.2023 40.1965C34.1349 40.1965 32.0674 40.1965 30 40.3314C28.3284 40.5562 27.0967 41.1407 26.261 42.4896C26.173 42.3997 26.129 42.3547 26.085 42.2198C25.1173 41.0058 23.9296 40.4213 22.6099 40.3314C20.4105 40.1965 18.2991 40.1965 16.0997 40.1965C13.5924 40.0616 12.0088 38.7577 12.0088 35.5204V12.05H40.0733V35.5654C40.2492 38.398 39.0615 40.0167 36.2023 40.1965Z" fill="#0F4C8D"/>
<path fill-rule="evenodd" clip-rule="evenodd" d="M22.39 12.9942H13.0645V13.9384H21.5982V14.8376H13.1965V15.4671H21.5982V16.5012H13.1965V17.1307H21.5982V18.03H13.1965V18.7044H21.5982V19.4238H13.1965V20.0533H21.5982V20.9525H13.1965V21.5371H21.5982V22.3913H13.0645V23.0658H22.39V12.9942Z" fill="#0F4C8D"/>
<path fill-rule="evenodd" clip-rule="evenodd" d="M30.1319 13.9384H38.6656V14.8376H30.2199V15.4671H38.6656V16.5012H30.2199V17.1307H38.6656V18.03H30.2199V18.7044H38.6656V19.4238H30.2199V20.0533H38.6656V20.9525H30.2199V21.5371H38.6656V22.3913H30.1319V23.0658H39.4574V12.9942H30.1319V13.9384Z" fill="#0F4C8D"/>
<path fill-rule="evenodd" clip-rule="evenodd" d="M30.1319 29.99H38.5777V31.0241H30.1319V31.6087H38.5777V32.7327H30.1319V33.2723H38.5777L38.5337 34.3963H30.0879V34.9359H38.5337V35.8801L30.0879 35.9251V36.4646H38.5337C38.5337 36.8693 38.4017 37.3189 38.4017 37.4088H30.0879V37.9484L38.0498 37.9933C38.0498 38.443 36.7302 39.0275 35.7624 38.9825H30.0879V39.5221H35.7624C37.8739 39.7019 39.3694 38.398 39.4134 36.5545V29.0008H30.1319V29.99Z" fill="#0F4C8D"/>
<path fill-rule="evenodd" clip-rule="evenodd" d="M13.0645 29.99H21.5542V31.0241H13.0645V31.6087H21.5542V32.7327H13.0645V33.2723H21.5542V34.3963H13.0645V34.9359H21.5542V35.8801H13.0645C13.0645 36.015 13.0645 36.2848 13.1525 36.4646H21.5542V37.4088H13.4164C13.4604 37.5437 13.5924 37.8135 13.8123 37.9933H21.5542V38.9825H14.4281C14.824 39.3422 15.4399 39.567 16.0117 39.567H22.434V29.0008H13.0645V29.99Z" fill="#0F4C8D"/>
</svg>
