<svg width="1200" height="600" viewBox="0 0 1200 600" fill="none" xmlns="http://www.w3.org/2000/svg">
<path d="M102.186 418.991L102.112 241.425C102.112 240.323 102.137 239.809 102.749 239.515C103.41 238.977 104.389 239.246 105.124 239.001L162.019 219.661L162.338 180H341.52L341.594 358.962C340.933 359.917 340.125 359.721 339.415 359.819L284.159 378.621C282.984 379.037 281.931 379.037 281.931 380.335L281.882 409.076L281.784 419.04L102.186 418.991Z" fill="black"/>
<path d="M496.808 312.226C493.675 302.85 486.036 297.023 476.391 294.257C482.609 290.976 487.383 288.43 490.492 282.922C495.682 272.492 494.556 259.542 487.016 250.459C483.025 245.636 477.247 243.335 471.519 241.327C466.402 240.127 461.579 239.466 456.217 239.466H400.644L400.693 359.231L459.082 359.011C466.108 358.987 472.645 358.13 478.986 355.633C496.98 349.61 502.145 328.286 496.808 312.226ZM424.758 258.832L452.153 258.709C456.046 258.881 459.841 259.493 463.097 261.402C466.965 263.459 468.85 266.935 469.095 271.513C469.683 282.236 461.31 286.569 452.178 287.084H424.758V258.832ZM471.274 332.816C467.528 337.222 462.412 338.593 456.928 338.96L424.758 339.009V305.616L456.879 305.543C462.289 306.179 467.234 307.771 470.98 311.712C475.411 317.857 475.656 326.352 471.274 332.816Z" fill="black"/>
<path d="M583.425 351.764L583.18 295.407C583.131 284.072 576.937 275.504 566.19 272.027C553.998 268.086 540.704 268.208 528.463 272.296C517.177 276.067 510.224 286.104 510.665 297.782L532.111 298.639C532.16 294.55 533.213 290.413 537.007 288.528C542.761 285.664 549.542 285.517 555.589 287.549C562.126 289.728 562.052 295.823 561.416 301.822L533.531 307.33C519.674 310.047 507.507 316.364 505.818 332.106C504.422 345.277 512.403 356.514 525.036 359.843C537.522 363.149 551.501 360.823 561.808 352.401L563.325 359.182L584.061 359.109L583.425 351.764ZM535.343 342.657C531.401 341.409 528.806 338.324 528.365 334.823C527.362 326.646 535.808 323.733 542.638 322.362L561.661 318.592L561.734 332.791C561.783 339.744 546.507 346.158 535.343 342.657Z" fill="black"/>
<path d="M616.157 358.374L586.167 272.982L609.106 272.908L627.786 333.574L643.821 272.957H665.879L647.053 336.316L635.914 372.819C630.577 390.201 610.673 391.425 596.033 386.724L596.327 370.297C602.912 371.423 612.069 373.015 615.521 367.237C617.283 364.299 617.283 361.655 616.157 358.374Z" fill="black"/>
<path d="M683.677 326.769L666.148 239.54L689.822 239.491L695.453 272.297L705.931 329.535L723.583 240.47L747.061 240.568L764.198 329.51L780.087 239.491L803.785 239.54L779.352 359.158L751.639 359.182L744.392 324.835L734.869 277.462L718.001 359.158L690.435 359.207L683.677 326.769Z" fill="black"/>
<path d="M875.86 347.897L875.64 295.897C875.566 282.971 868.785 274.843 856.642 271.415C844.915 268.086 832.404 268.453 820.922 272.297C809.685 276.067 802.855 285.811 803.32 297.66L824.57 298.541C824.717 294.991 825.329 290.878 828.683 288.969C834.657 285.517 842.148 285.444 848.538 287.696C854.585 289.826 854.463 296.803 853.826 301.969L822.636 308.089C818.793 308.848 815.194 310.317 811.791 311.982C803.687 315.997 799.036 323.439 798.204 332.62C797.102 345.081 804.373 355.682 816.075 359.428C828.365 363.345 844.131 360.97 854.169 352.499C854.879 355.094 854.634 357.126 855.662 359.158H876.668C876.031 355.29 875.884 351.789 875.86 347.897ZM851.843 337.663C840.704 346.281 822.587 345.865 820.898 335.313C819.527 326.695 827.998 323.782 835.098 322.338L853.948 318.445L854.071 332.84C854.095 334.652 853.483 336.39 851.843 337.663Z" fill="black"/>
<path d="M920.441 359.158V273.031H942.157C942.548 276.042 941.765 278.417 942.597 281.428C948.889 272.394 961.693 268.746 972.245 269.481L972.171 290.07C967.642 289.85 963.75 289.605 959.686 290.143C947.224 291.784 942.426 302.409 942.377 314.38L942.23 359.035L920.441 359.158Z" fill="black"/>
<path d="M956.405 336.977L978.389 336.953V359.207H956.405V336.977Z" fill="black"/>
<path d="M1059.28 283.558C1049.26 269.187 1027.67 266.666 1011.81 271.268C1001.18 274.353 993.226 281.722 989.137 291.98C985.612 300.818 984.951 310.268 985.391 319.865C986.175 337.198 992.246 352.915 1009.78 359.011C1022.11 363.32 1035.63 362.83 1047.77 357.689C1056.56 353.992 1062.66 346.697 1065.28 337.516L1044.29 332.032C1043.14 336.561 1040.5 339.475 1036.46 341.458C1030.93 343.881 1024.88 344.102 1019.42 342.119C1010.68 338.985 1007.79 329.78 1007.62 321.309L1066.87 321.236C1067.11 308.75 1066.35 293.743 1059.28 283.558ZM1007.79 305.494C1007.79 299.594 1009.95 293.302 1015.06 289.703C1023.53 283.73 1038.62 285.101 1043.02 295.26C1044.2 298.37 1045.1 300.965 1045.35 305.371L1007.79 305.494Z" fill="black"/>
<path d="M1097.35 336.953H1075.14V359.182H1097.35V336.953Z" fill="black"/>
<path d="M803.785 239.54L779.352 359.158L751.639 359.182L744.392 324.835L734.869 277.462L718.001 359.158L690.435 359.207L683.677 326.769L666.148 239.54L689.822 239.491L695.453 272.297L705.931 329.535L723.583 240.47L747.061 240.568L764.198 329.51L780.087 239.491L803.785 239.54Z" fill="#FEFEFE"/>
<path d="M875.86 347.897L875.64 295.897C875.566 282.971 868.785 274.843 856.642 271.415C844.915 268.086 832.404 268.453 820.922 272.297C809.685 276.067 802.855 285.811 803.32 297.66L824.57 298.541C824.717 294.991 825.329 290.878 828.683 288.969C834.657 285.517 842.148 285.444 848.538 287.696C854.585 289.826 854.463 296.803 853.826 301.969L822.636 308.089C818.793 308.848 815.194 310.317 811.791 311.982C803.687 315.997 799.036 323.439 798.204 332.62C797.102 345.081 804.373 355.682 816.075 359.428C828.365 363.345 844.131 360.97 854.169 352.499C854.879 355.094 854.634 357.126 855.662 359.158H876.668C876.031 355.29 875.884 351.789 875.86 347.897ZM851.843 337.663C840.704 346.281 822.587 345.865 820.898 335.313C819.527 326.695 827.998 323.782 835.098 322.338L853.948 318.445L854.071 332.84C854.095 334.652 853.483 336.39 851.843 337.663Z" fill="#FEFEFE"/>
<path d="M665.879 272.982L647.053 336.316L635.914 372.819C630.577 390.201 610.673 391.425 596.033 386.724L596.327 370.297C602.912 371.423 612.069 373.015 615.521 367.237C617.283 364.299 617.283 361.655 616.157 358.374L586.167 272.982L609.106 272.908L627.786 333.574L643.821 272.957H665.879V272.982Z" fill="#FEFEFE"/>
<path d="M972.245 269.481L972.171 290.07C967.642 289.85 963.75 289.605 959.686 290.143C947.224 291.784 942.426 302.409 942.377 314.38L942.23 359.035L920.441 359.158V273.031H942.157C942.548 276.042 941.765 278.417 942.597 281.428C948.889 272.394 961.693 268.746 972.245 269.481Z" fill="#FEFEFE"/>
<path d="M1097.35 336.953H1075.14V359.182H1097.35V336.953Z" fill="#FDFDFD"/>
<path d="M978.389 336.953V359.207H956.405V336.977L978.389 336.953Z" fill="#FDFDFD"/>
<path d="M1059.28 283.558C1049.26 269.187 1027.67 266.666 1011.81 271.268C1001.18 274.353 993.226 281.722 989.137 291.98C985.612 300.818 984.951 310.268 985.391 319.865C986.175 337.198 992.246 352.915 1009.78 359.011C1022.11 363.32 1035.63 362.83 1047.77 357.689C1056.56 353.992 1062.66 346.697 1065.28 337.516L1044.29 332.032C1043.14 336.561 1040.5 339.475 1036.46 341.458C1030.93 343.881 1024.88 344.102 1019.42 342.119C1010.68 338.985 1007.79 329.78 1007.62 321.309L1066.87 321.236C1067.11 308.75 1066.35 293.743 1059.28 283.558ZM1007.79 305.494C1007.79 299.594 1009.95 293.302 1015.06 289.703C1023.53 283.73 1038.62 285.101 1043.02 295.26C1044.2 298.37 1045.1 300.965 1045.35 305.371L1007.79 305.494Z" fill="#FEFEFE"/>
<path d="M583.425 351.764L583.18 295.407C583.131 284.072 576.937 275.504 566.19 272.027C553.998 268.086 540.704 268.208 528.463 272.296C517.177 276.067 510.224 286.104 510.665 297.782L532.111 298.639C532.16 294.55 533.213 290.413 537.007 288.528C542.761 285.664 549.542 285.517 555.589 287.549C562.126 289.728 562.052 295.823 561.416 301.822L533.531 307.33C519.674 310.047 507.507 316.364 505.818 332.106C504.422 345.277 512.403 356.514 525.036 359.843C537.522 363.149 551.501 360.823 561.808 352.401L563.325 359.182L584.061 359.109L583.425 351.764ZM535.343 342.657C531.401 341.409 528.806 338.324 528.365 334.823C527.362 326.646 535.808 323.733 542.638 322.362L561.661 318.592L561.734 332.791C561.783 339.744 546.507 346.158 535.343 342.657Z" fill="#FEFEFE"/>
<path d="M496.808 312.226C493.675 302.85 486.036 297.023 476.391 294.257C482.609 290.976 487.383 288.43 490.492 282.922C495.682 272.492 494.556 259.542 487.016 250.459C483.025 245.636 477.247 243.335 471.519 241.327C466.402 240.127 461.579 239.466 456.217 239.466H400.644L400.693 359.231L459.082 359.011C466.108 358.987 472.645 358.13 478.986 355.633C496.98 349.61 502.145 328.286 496.808 312.226ZM424.758 258.832L452.153 258.709C456.046 258.881 459.841 259.493 463.097 261.402C466.965 263.459 468.85 266.935 469.095 271.513C469.683 282.236 461.31 286.569 452.178 287.084H424.758V258.832ZM471.274 332.816C467.528 337.222 462.412 338.593 456.928 338.96L424.758 339.009V305.616L456.879 305.543C462.289 306.179 467.234 307.771 470.98 311.712C475.411 317.857 475.656 326.352 471.274 332.816Z" fill="#FEFEFE"/>
<path d="M341.594 358.962C340.933 359.917 340.125 359.721 339.415 359.819C337.554 359.819 335.693 360.064 333.832 360.529H163.047C161.921 360.504 161.334 359.843 161.138 358.766C160.991 312.642 160.917 266.519 160.942 220.395L162.019 219.661L162.338 180H341.52L341.594 358.962Z" fill="#FEFEFE"/>
<path d="M336.33 359.354H162.313L162.019 219.661L105.124 239.001C104.487 239.27 104.046 239.564 103.728 239.882C103.483 239.638 103.092 239.442 102.749 239.515C102.137 239.809 102.112 240.323 102.112 241.425L102.186 418.991L281.784 419.04L281.882 409.076L280.683 409.762C280.389 412.381 280.046 414.903 279.654 417.302L171.714 417.229C207.898 405.061 244.303 393.016 280.927 381.093L281.931 380.335C281.931 379.037 282.984 379.037 284.159 378.621L339.415 359.819C338.803 358.84 337.774 359.354 336.33 359.354ZM102.994 241.988C102.994 242.208 102.994 242.453 103.018 242.722C103.018 242.796 102.92 242.477 102.994 241.988Z" fill="#E1E1E1"/>
<path d="M162.117 418.478L102.724 418.429V239.516C103.41 238.977 104.389 239.246 105.124 239.001C104.952 240.592 106.127 242.037 105.148 243.873L103.679 240.666L103.606 240.519C103.606 240.519 103.557 240.715 103.532 240.813C103.092 242.576 103.336 244.289 103.508 245.979C103.997 245.489 104.438 244.828 104.634 245.024C104.756 245.146 105.124 245.709 105.124 245.93C105.368 250.826 107.156 254.817 108.674 259.37L125.737 310.39L136.069 341.09L143.413 363.198L158.788 408.22L162.117 418.478Z" fill="#E9E9E9"/>
<path d="M281.882 409.076C281.882 411.867 280.683 415.099 281.27 418.453L166.622 418.404C169.193 416.005 172.302 416.152 175.117 415.172L191.765 409.346L277.769 380.579C279.459 380.016 280.609 379.38 281.931 380.335L281.882 409.076Z" fill="#E9E9E9"/>
</svg>
