<svg width="1200" height="600" viewBox="0 0 1200 600" fill="none" xmlns="http://www.w3.org/2000/svg">
<path d="M1079.16 339.128L1029.99 410.679L1004.82 410.797V448.449L1042.17 448.284L1042.36 435.371L1114.85 411.718L1142 402.535V339.128H1079.16ZM1078.88 352.772L1079.09 396.633L1019.25 435.277L1078.88 352.772ZM1009.28 415.329L1026.75 415.4L1009.64 439.644L1009.28 415.329ZM1037.4 443.846L1018.11 443.728L1037.35 437.095C1037.68 439.479 1037.59 441.226 1037.4 443.846ZM1035.94 431.878L1083.69 402.511L1116.53 402.936L1035.94 431.878ZM1087.56 393.824V347.862L1133.43 347.839V393.824H1087.56Z" fill="black"/>
<path d="M975.693 408.861C970.547 408.413 965.755 409.074 961.624 412.426L961.317 393.966C957.776 393.682 954.518 393.682 950.836 394.06L950.765 449.866C950.812 450.597 962.828 450.668 961.364 449.582L961.789 421.609C963.937 419.106 968.541 418.186 971.586 418.375C973.994 418.54 974.914 419.98 974.938 421.986L975.41 450.338C979.777 450.22 982.303 450.645 985.844 450.078L985.655 418.752C985.632 413.04 981.099 409.333 975.693 408.861Z" fill="black"/>
<path d="M1011.88 381.596C1013.53 381.714 1014.41 381.029 1014.48 379.448C1014.86 370.029 1013.98 360.751 1014.86 351.356C1017.26 348.193 1023.45 347.178 1026.9 348.523C1028.78 349.231 1028.71 351.38 1028.74 352.938L1028.83 376.993C1028.83 378.267 1028.19 380.935 1029.54 381.265C1032.51 381.856 1036.03 381.785 1039.01 381.289C1040.23 380.888 1039.76 378.315 1039.76 377.276L1039.69 349.09C1039.67 342.692 1034.99 338.585 1028.93 338.113C1023.59 337.712 1018.68 338.514 1014.5 341.748C1014.17 340.45 1014.17 338.679 1012.92 338.585C1009.73 338.373 1006.78 338.207 1003.36 338.797L1003.55 381.289C1006.64 381.856 1009.19 381.407 1011.88 381.596Z" fill="black"/>
<path d="M935.043 435.182C933.39 435.465 935.963 441.036 931.502 441.178C927.607 441.32 921.233 442.17 921.233 438.369V421.349C921.256 417.17 927.465 417.926 931.714 418.303C935.774 418.658 933.414 423.851 935.066 424.087C938.206 424.512 941.18 424.205 944.603 424.111C945.972 417.524 943.777 410.561 936.105 409.404C930.604 408.578 924.986 408.601 919.533 409.357C914.127 410.112 910.728 414.314 910.539 419.72C910.279 426.542 910.279 433.246 910.563 440.045C910.822 445.876 914.953 450.054 920.713 450.361C925.482 450.621 930.109 450.715 934.901 450.337C937.993 450.101 941.109 448.779 942.832 446.277C945.099 443.019 945.476 438.841 944.579 435.111C941.156 434.97 938.182 434.639 935.043 435.182Z" fill="black"/>
<path d="M878.789 381.171C880.04 380.793 879.45 378.291 879.45 377.252L879.403 338.585L870.291 338.443C869.512 338.419 868.544 338.915 868.544 339.93L868.497 368.824C866.065 371.114 854.522 374.75 854.546 368.234L854.593 340.52C854.593 339.387 853.885 338.419 852.752 338.467C849.683 338.608 846.874 338.16 843.592 338.773V370.43C843.639 376.52 847.629 380.887 853.436 381.643C858.818 382.351 864.012 381.69 868.45 378.125C869.087 379.4 868.78 381.312 870.102 381.383C872.935 381.548 876.122 381.973 878.789 381.171Z" fill="black"/>
<path d="M856.811 438.912V418.28L865.804 417.95C866.206 415.093 866.631 411.907 865.498 409.381L856.787 408.956L856.575 398.852C853.175 398.168 849.634 398.38 846.211 398.876L845.999 409.121L840.215 409.451C839.719 412.261 839.696 415.235 840.215 417.95C842.316 418.422 843.945 418.115 845.975 418.209L846.117 441.108C846.164 447.033 850.862 451.022 856.787 450.314C859.997 449.913 862.948 450.881 866.253 450.102C866.536 447.458 867.268 443.87 865.875 441.603C863.42 440.211 856.811 442.902 856.811 438.912Z" fill="black"/>
<path d="M748.93 389.952L742.273 410.655L735.734 389.952C732.925 389.527 730.021 389.244 727.33 389.952C726.669 390.4 727.188 392.076 727.448 392.785L737.929 422.245C741.045 422.529 743.689 422.505 746.805 422.245L757.334 391.817C758.585 388.181 751.55 389.834 748.93 389.952Z" fill="black"/>
<path d="M913.112 338.585C907.801 337.31 902.56 338.372 898.523 342.031C898.146 341.252 898.382 338.939 897.249 338.726C894.109 338.136 891.04 338.467 887.452 338.608L887.357 381.123C889.293 381.454 898.122 382.681 898.193 380.108C898.382 370.595 897.39 361.2 898.665 351.781C901.451 347.343 909.406 349.396 913.159 348.476C913.513 345.029 913.561 341.842 913.112 338.585Z" fill="black"/>
<path d="M760.403 389.929L760.45 417.43C760.45 418.799 759.742 421.16 760.852 422.057C763.401 422.671 766.399 422.718 769.09 421.844L768.996 389.976C766.022 389.386 763.425 389.48 760.403 389.929Z" fill="black"/>
<path d="M760.261 378.149C759.789 381.053 759.741 383.697 760.261 386.6C763.282 387.049 766.186 387.072 769.16 386.553C769.514 383.72 769.562 381.1 769.113 378.243C766.139 377.63 763.235 377.771 760.261 378.149Z" fill="black"/>
<path d="M894.723 282.826C903.764 266.585 898.358 250.249 886.39 237.407C861.438 210.661 810.472 192.626 775.534 182.971C746.451 174.945 717.274 168.902 687.388 164.062C585.196 147.491 473.278 144.87 370.141 152.495C313.769 156.674 250.858 165.219 196.138 179.029C173.642 184.694 152.065 191.422 130.654 200.133C117.553 205.444 105.395 211.488 93.4742 218.9C80.6087 226.879 66.6336 238.021 60.4723 252.091C52.5169 270.22 61.3694 286.367 74.7307 298.737C104.357 326.12 161.885 344.203 200.978 353.669C364.546 393.304 602.287 393.233 765.478 351.143C803.413 341.346 874.752 318.684 894.723 282.826ZM606.559 205.94H629.883L621.998 223.787H598.415L606.559 205.94ZM214.811 256.057L190.709 308.132L132.637 308.014L175.861 214.344C179.307 205.822 186.578 200.652 195.808 199.944H301.069L292.996 217.696L203.905 217.767C199.679 217.767 196.256 220.741 194.509 224.471L164.223 289.837L175.601 290.003L196.044 246.142C199.538 238.635 206.974 235.141 215.448 234.055H285.205L277.085 251.902H221.492C218.47 251.996 216.204 253.389 214.811 256.057ZM312.4 256.67L288.581 308.085L265.329 307.991L292.948 247.96C296.725 239.65 304.397 234.126 313.769 234.103L363.012 234.008L354.726 251.878H319.671C316.153 251.973 313.698 253.672 312.4 256.67ZM421.107 307.967L361.454 308.061C357.37 308.061 353.711 305.772 351.893 303.033C349.674 299.634 349.108 295.385 350.878 291.608L372.644 244.962C375.83 238.163 384.376 234.221 391.836 234.197L450.167 234.079C454.204 234.079 457.697 236.392 459.586 238.942C461.947 242.129 462.631 246.52 460.955 250.179L440.37 294.913C436.829 302.585 429.582 307.943 421.107 307.967ZM519.121 308.085L543.176 255.608C543.554 254.451 543.53 253.672 543.176 253.059C542.917 252.61 542.185 251.902 541.24 251.902L500.826 251.949L474.765 308.061L451.536 308.014L485.6 234.055L558.261 234.103C562.321 234.103 565.721 236.133 567.751 238.729C570.3 241.963 570.347 245.835 569.403 250.013L542.586 308.038L519.121 308.085ZM559.819 308.038L593.741 234.244H617.111L583.024 307.967L559.819 308.038ZM677.143 307.991L618.528 308.085C614.468 308.085 610.809 306.197 608.826 303.317C606.441 299.894 606.205 295.881 607.645 291.82L634.179 234.079L657.715 234.126L633.329 286.934C633.14 287.713 633.164 288.492 633.4 289.011C633.636 289.507 634.415 290.168 635.383 290.168H671.572C674.499 290.191 676.694 288.657 677.78 285.989L701.859 234.079H725.441L697.137 295.267C693.266 302.844 685.877 307.967 677.143 307.991ZM715.81 290.309L780.822 290.144C785.307 290.121 787.621 283.393 788.683 279.663L737.882 279.592C734.105 279.592 731.06 277.727 729.195 275.201C727.07 272.321 726.291 268.285 727.707 264.744C730.635 257.473 733.751 250.391 737.622 243.498C741.045 237.384 747.915 234.646 754.878 233.985L833.771 234.032L825.462 251.878H761.677C755.799 251.878 753.698 257.402 752.424 262.572L802.87 262.666C806.813 262.666 810.259 264.508 812.148 267.34C814.201 270.409 814.957 274.493 813.422 278.105C810.661 284.644 807.828 291.018 804.428 297.297C800.698 304.143 793.735 308.085 785.945 308.085H707.619L715.81 290.309Z" fill="black"/>
<path d="M432.603 251.902H397.524C394.62 251.878 392.189 253.318 390.985 255.915L376.585 286.815C376.184 287.689 376.585 288.916 376.987 289.365C377.293 289.719 378.025 290.191 378.875 290.191L414.733 290.144C417.873 290.144 419.927 288.232 421.06 285.8L435.106 255.348C435.53 254.404 435.176 253.318 434.704 252.751C434.303 252.256 433.524 251.902 432.603 251.902Z" fill="black"/>
<path d="M987.094 338.679C981.523 337.829 975.905 337.9 970.31 338.656C963.323 339.6 960.679 345.596 961.859 352.064C965.282 352.442 968.493 352.371 971.821 352.088C972.293 350.577 972.152 349.491 973.001 347.957C976.471 347.579 981.004 346.399 984.073 348.382C985.773 349.467 984.993 353.126 984.781 354.543C979.493 354.826 974.819 354.425 969.885 355.676C960.561 358.06 959.947 363.395 960.443 371.563C960.797 377.417 964.952 381.194 970.617 381.761C975.834 382.304 980.815 381.549 985.041 378.267C985.489 379.353 985.182 381.147 986.174 381.312C989.314 381.832 992.335 381.619 995.923 381.312V348.476C995.923 343.353 992.004 339.458 987.094 338.679ZM984.923 369.863C981.547 371.799 977.439 372.838 973.237 372.106C971.207 371.752 971.349 369.627 971.231 368.282C970.712 361.578 979.8 363.372 984.899 362.876C985.3 365.284 985.348 367.385 984.923 369.863Z" fill="black"/>
<path d="M927.796 381.383C928.882 381.289 928.811 379.4 929.378 378.338C933.532 381.761 938.679 382.115 943.943 381.808C949.939 381.43 954.849 377.63 955.038 371.35C955.227 363.82 955.439 356.219 955.014 348.759C954.636 342.456 949.963 338.561 943.966 338.136C938.773 337.782 933.91 338.089 929.236 341.394L929.071 323.595C929.047 320.998 921.139 322.249 918.165 322.367V381.289C921.658 381.808 924.633 381.714 927.796 381.383ZM929.189 350.907C932.305 347.862 941.275 347.248 943.14 348.948C943.848 349.585 944.061 350.671 944.061 351.828L944.155 367.951C944.202 375.057 929.59 370.926 929.543 368.683C928.41 362.899 929.685 356.715 929.189 350.907Z" fill="black"/>
<path d="M904.189 436.528C901.167 435.796 897.981 436.386 894.935 436.315L893.66 441.202C889.553 441.603 885.209 442.264 881.574 440.777C880.323 438.747 880.889 435.206 880.984 432.987C888.703 432.467 895.738 432.656 903.198 432.892C904.213 432.939 905.062 431.995 905.039 430.98L904.803 419.177C904.708 413.818 900.813 409.852 895.478 409.262C890.096 408.672 884.69 408.601 879.308 409.38C874.067 410.112 870.29 414.267 870.29 419.72V439.974C870.314 445.71 874.468 449.818 879.992 450.29C885.138 450.739 890.19 450.715 895.289 450.361C900.79 450.007 904.685 446.159 904.897 440.612C904.944 439.502 905.558 436.858 904.189 436.528ZM882.046 418.492C885.351 417.241 889.907 417.383 893.141 418.492C895.077 419.366 894.416 423.001 894.062 424.866C890.072 425.031 885.587 425.196 881.503 424.842C880.323 423.898 880.323 419.153 882.046 418.492Z" fill="black"/>
<path d="M781.459 389.739C776.195 390.4 773.315 395.263 774.707 400.22C777.446 400.527 779.783 400.645 782.309 400.291C782.781 399.158 782.805 398.285 783.395 397.246C785.803 396.916 788.47 396.349 790.901 397.293C792.105 397.765 792.365 400.74 791.562 401.566C787.951 401.897 783.772 401.779 780.255 402.605C775.652 403.667 773.079 406.996 773.244 412.118C773.338 415.565 773.692 419.247 776.714 421.041C781.364 423.803 787.195 423.048 791.751 420.428C792.058 423.473 797.37 422.363 800.486 422.127V397.695C800.509 388.134 787.88 388.913 781.459 389.739ZM791.917 413.228C789.32 414.55 785.873 415.895 782.946 414.597C781.6 413.983 781.789 410.253 783.088 409.569C785.803 408.129 788.706 408.554 791.775 408.27C792.176 409.852 792.011 411.032 791.917 413.228Z" fill="black"/>
</svg>
