<svg width="1200" height="600" viewBox="0 0 1200 600" fill="none" xmlns="http://www.w3.org/2000/svg">
<path d="M373.352 468.583L373.514 491.947H291.47L291.497 369.287L317.349 369.26L317.322 468.583H373.352Z" fill="white"/>
<path d="M408.749 533.861C408.317 524.613 401.854 518.15 392.741 518.231L379.193 518.367L379.301 551.384C384.709 551.249 389.955 551.709 395.336 551.195C404.017 550.384 409.128 542.434 408.749 533.861ZM397.96 543.029C394.39 545.841 389.793 544.894 386.116 544.543L386.223 524.803C390.09 524.721 394.255 523.748 397.554 526.046C402.8 529.697 403.206 538.945 397.96 543.029Z" fill="white"/>
<path d="M445.228 545.165C445.634 547.22 445.661 549.194 445.201 551.384H422.594V518.285H444.579C445.093 520.557 445.012 522.477 444.579 524.478H429.761C429.247 526.722 429.22 528.967 429.706 531.428L442.659 531.563C443.173 533.402 443.038 535.186 442.821 537.431L429.706 537.728C429.247 540.189 429.247 542.515 429.733 545.002L445.228 545.165Z" fill="white"/>
<path d="M487.278 518.475L475.055 551.222C472.648 551.628 470.566 551.493 467.916 551.303L455.585 518.691C457.992 517.88 460.615 517.934 463.13 518.691L471.648 541.136L480.355 518.691C482.735 517.88 484.952 518.069 487.278 518.502V518.475Z" fill="white"/>
<path d="M457.965 369.368L432.33 369.26L382.952 491.839H409.182L419.269 465.717L470.539 465.825L480.41 491.893H507.1L457.965 369.368ZM427.327 443.813L444.931 397.356L462.481 443.786H427.327V443.813Z" fill="white"/>
<path d="M521.648 545.165C521.891 547.247 521.891 549.113 521.675 551.411L498.933 551.222L498.987 518.312L520.701 518.231C521.566 520.016 521.296 522.017 521.026 524.316L505.99 524.586C505.639 526.804 505.72 528.94 505.936 531.374L519.105 531.59C519.484 533.375 519.484 535.132 519.214 537.485L505.936 537.755C505.72 540.378 505.531 542.785 506.126 545.084L521.648 545.165Z" fill="white"/>
<path d="M557.099 544.976C557.477 547.328 557.477 549.41 557.044 551.438L535.844 551.33L535.709 518.475C537.953 518.096 540.116 517.988 542.685 518.421L542.766 544.867L557.099 544.976Z" fill="white"/>
<path d="M510.372 124.561L363.636 271.297L432.912 340.574L579.649 193.837L510.372 124.561Z" fill="white"/>
<path d="M596.282 523.64C592.253 518.177 585.276 516.528 578.949 518.502C573.324 520.233 569.16 525.398 568.294 531.806C567.456 538.026 569.105 544.354 574.135 548.464C580.301 553.548 589.927 553.358 595.525 546.95C601.339 540.324 601.285 530.481 596.282 523.64ZM590.225 542.272C588.062 544.867 585.06 545.516 581.977 544.895C575.704 543.597 572.972 534.375 577.056 528.102C579.706 524.018 585.439 522.883 589.17 526.236C593.659 530.319 594.2 537.458 590.225 542.272Z" fill="white"/>
<path d="M628.11 518.367C623.27 518.096 618.402 518.15 613.589 518.502L613.67 551.33C616.347 551.438 618.429 551.709 620.539 551.06L620.836 542.136L628.516 541.839C635.087 541.622 638.711 536.43 638.927 530.535C639.197 523.991 634.979 518.718 628.11 518.367ZM628.759 534.97C626.109 536.052 623.351 535.592 620.728 535.457L620.62 524.803C623.486 524.343 626.461 524.018 629.219 525.181C631.166 525.992 631.761 528.102 631.815 529.778C631.896 531.752 631.139 534.024 628.759 534.97Z" fill="white"/>
<path d="M643.469 369.314V491.866L619.429 492.001L619.105 418.719L587.007 478.48C582.734 478.616 579.003 478.697 574.757 478.372L542.659 419.476L542.496 491.893H518.402V369.476L540.225 369.233L581.139 444.841L621.674 369.422L643.469 369.314Z" fill="white"/>
<path d="M587.756 201.767L518.443 271.007L587.549 340.185L656.862 270.946L587.756 201.767Z" fill="white"/>
<path d="M587.791 47.1836L518.541 116.409L587.805 185.698L657.055 116.472L587.791 47.1836Z" fill="white"/>
<path d="M685.627 518.502V551.249C683.761 551.547 682.112 551.466 679.326 551.357L678.705 532.293L672.025 545.408C671.512 546.436 671.268 547.463 670.051 547.734C669.078 547.95 667.699 548.194 666.996 546.923L659.37 532.888L658.91 551.357C656.422 551.439 654.53 551.601 652.474 551.141L652.555 518.745C653.907 518.123 657.693 517.366 658.613 518.989L669.24 537.891L679.516 518.61C681.679 518.123 683.572 518.15 685.627 518.502Z" fill="white"/>
<path d="M723.864 545.165C724.189 547.22 724.135 549.113 723.837 551.303L701.312 551.384V518.313H723.297C723.648 520.368 723.621 522.098 723.377 524.262L708.424 524.64C708.207 526.831 708.045 529.048 708.558 531.401L721.484 531.59C721.917 533.429 721.782 535.186 721.62 537.377L708.558 537.728C708.099 540.162 708.072 542.515 708.586 544.975L723.864 545.165Z" fill="white"/>
<path d="M764.967 518.448L765.048 551.141C763.047 551.763 761.262 551.385 759.072 551.358L745.307 532.239L745.01 551.33C742.603 551.493 740.737 551.601 738.249 551.249V518.854C739.358 517.961 743.333 517.556 744.307 518.854L757.909 537.377L758.233 518.394C760.424 518.151 762.56 518.097 764.967 518.448Z" fill="white"/>
<path d="M777.677 407.794C773.107 393.597 763.345 382.537 750.122 375.777C740.495 371.153 730.408 369.179 719.565 369.206L669.484 369.341V491.92L722.16 491.839C731.895 491.812 740.873 489.649 749.418 485.484C778.407 471.206 787.006 436.729 777.677 407.794ZM753.204 443.516C749.256 458.037 737.06 468.259 722.188 468.367L695.363 468.583V392.353L722.782 392.516C736.898 392.597 748.445 402.061 752.636 415.366C755.449 424.587 755.719 433.808 753.204 443.516Z" fill="white"/>
<path d="M803.096 518.285C803.447 520.611 803.365 522.504 803.122 524.559L793.955 524.694L793.847 551.168C791.278 551.736 789.331 551.465 786.951 551.222L786.871 524.802L777.757 524.478C777.46 522.45 777.541 520.584 777.676 518.312H803.096V518.285Z" fill="white"/>
<path d="M596.093 193.842L665.4 124.615L811.992 271.18L742.658 340.434L596.093 193.842Z" fill="white"/>
<path d="M859.045 369.314H833.355L784.059 491.812L810.018 491.866L820.186 465.717H871.484L881.489 491.893L907.99 491.812L859.045 369.314ZM828.352 443.867L845.821 397.383L863.425 443.732L828.352 443.867Z" fill="white"/>
<path d="M685.654 551.249C683.761 551.547 682.112 551.466 679.326 551.357L678.705 532.293L672.025 545.408C671.512 546.436 671.268 547.463 670.051 547.734C669.078 547.95 667.699 548.194 666.996 546.923L659.37 532.888L658.91 551.357C656.422 551.439 654.53 551.601 652.474 551.141L652.555 518.745C653.907 518.123 657.693 517.366 658.613 518.989L669.24 537.891L679.516 518.61C681.679 518.123 683.572 518.15 685.627 518.502V551.249H685.654Z" fill="white"/>
<path d="M765.048 551.141C763.047 551.763 761.262 551.385 759.072 551.358L745.307 532.239L745.01 551.33C742.603 551.493 740.737 551.601 738.249 551.249V518.854C739.358 517.961 743.333 517.556 744.307 518.854L757.909 537.377L758.233 518.394C760.424 518.151 762.56 518.097 764.967 518.448L765.048 551.141Z" fill="white"/>
<path d="M445.201 551.384H422.594V518.285H444.579C445.093 520.557 445.012 522.477 444.579 524.478H429.761C429.247 526.722 429.22 528.967 429.706 531.428L442.659 531.563C443.173 533.402 443.038 535.186 442.821 537.431L429.706 537.728C429.247 540.189 429.247 542.515 429.733 545.002L445.228 545.165C445.634 547.22 445.661 549.194 445.201 551.384Z" fill="white"/>
<path d="M723.837 551.303L701.312 551.384V518.313H723.297C723.648 520.368 723.621 522.098 723.377 524.262L708.424 524.64C708.207 526.831 708.045 529.048 708.558 531.401L721.484 531.59C721.917 533.429 721.782 535.186 721.62 537.377L708.558 537.728C708.099 540.162 708.072 542.515 708.586 544.975L723.864 545.165C724.189 547.22 724.135 549.113 723.837 551.303Z" fill="white"/>
<path d="M521.675 551.411L498.933 551.222L498.987 518.312L520.701 518.231C521.566 520.016 521.296 522.017 521.026 524.316L505.99 524.586C505.639 526.804 505.72 528.94 505.936 531.374L519.105 531.59C519.484 533.375 519.484 535.132 519.214 537.485L505.936 537.755C505.72 540.378 505.531 542.785 506.126 545.084L521.648 545.165C521.891 547.247 521.891 549.113 521.675 551.411Z" fill="white"/>
<path d="M487.278 518.475L475.055 551.222C472.648 551.628 470.566 551.493 467.916 551.303L455.585 518.691C457.992 517.88 460.615 517.934 463.13 518.691L471.648 541.136L480.355 518.691C482.735 517.88 484.952 518.069 487.278 518.502V518.475Z" fill="white"/>
<path d="M803.122 524.559L793.955 524.694L793.847 551.168C791.278 551.736 789.331 551.465 786.951 551.222L786.871 524.802L777.757 524.478C777.46 522.45 777.541 520.584 777.676 518.312H803.096C803.447 520.611 803.365 522.504 803.122 524.559Z" fill="white"/>
<path d="M557.044 551.438L535.844 551.33L535.709 518.475C537.953 518.096 540.116 517.988 542.685 518.421L542.766 544.867L557.099 544.976C557.477 547.328 557.477 549.41 557.044 551.438Z" fill="white"/>
<path d="M408.749 533.861C408.317 524.613 401.854 518.15 392.741 518.231L379.193 518.367L379.301 551.384C384.709 551.249 389.955 551.709 395.336 551.195C404.017 550.384 409.128 542.434 408.749 533.861ZM397.96 543.029C394.39 545.841 389.793 544.894 386.116 544.543L386.223 524.803C390.09 524.721 394.255 523.748 397.554 526.046C402.8 529.697 403.206 538.945 397.96 543.029Z" fill="white"/>
<path d="M596.282 523.64C592.253 518.177 585.276 516.528 578.949 518.502C573.324 520.233 569.16 525.398 568.294 531.806C567.456 538.026 569.105 544.354 574.135 548.464C580.301 553.548 589.927 553.358 595.525 546.95C601.339 540.324 601.285 530.481 596.282 523.64ZM590.225 542.272C588.062 544.867 585.06 545.516 581.977 544.895C575.704 543.597 572.972 534.375 577.056 528.102C579.706 524.018 585.439 522.883 589.17 526.236C593.659 530.319 594.2 537.458 590.225 542.272Z" fill="white"/>
<path d="M628.11 518.367C623.27 518.096 618.402 518.15 613.589 518.502L613.67 551.33C616.347 551.438 618.429 551.709 620.539 551.06L620.836 542.136L628.516 541.839C635.087 541.622 638.711 536.43 638.927 530.535C639.197 523.991 634.979 518.718 628.11 518.367ZM628.759 534.97C626.109 536.052 623.351 535.592 620.728 535.457L620.62 524.803C623.486 524.343 626.461 524.018 629.219 525.181C631.166 525.992 631.761 528.102 631.815 529.778C631.896 531.752 631.139 534.024 628.759 534.97Z" fill="white"/>
<path d="M643.497 491.866L619.429 492.001L619.105 418.719L587.007 478.48C582.734 478.616 579.003 478.697 574.757 478.372L542.659 419.476L542.496 491.893H518.402V369.476L540.225 369.233L581.139 444.841L621.674 369.422L643.469 369.314V491.866L643.497 491.866Z" fill="white"/>
<path d="M373.514 491.947H291.47L291.497 369.287L317.349 369.26L317.322 468.583H373.352L373.514 491.947Z" fill="white"/>
<path d="M457.965 369.368L432.33 369.26L382.952 491.839H409.182L419.269 465.717L470.539 465.825L480.41 491.893H507.1L457.965 369.368ZM427.327 443.813L444.931 397.356L462.481 443.786H427.327V443.813Z" fill="white"/>
<path d="M859.045 369.314H833.355L784.059 491.812L810.018 491.866L820.186 465.717H871.484L881.489 491.893L907.99 491.812L859.045 369.314ZM828.352 443.867L845.821 397.383L863.425 443.732L828.352 443.867Z" fill="white"/>
<path d="M777.677 407.794C773.107 393.597 763.345 382.537 750.122 375.777C740.495 371.153 730.408 369.179 719.565 369.206L669.484 369.341V491.92L722.16 491.839C731.895 491.812 740.873 489.649 749.418 485.484C778.407 471.206 787.006 436.729 777.677 407.794ZM753.204 443.516C749.256 458.037 737.06 468.259 722.188 468.367L695.363 468.583V392.353L722.782 392.516C736.898 392.597 748.445 402.061 752.636 415.366C755.449 424.587 755.719 433.808 753.204 443.516Z" fill="white"/>
<path d="M510.332 124.468L363.518 271.127L432.758 340.44L579.572 193.78L510.332 124.468Z" fill="white"/>
<path d="M811.992 271.18L742.658 340.434L596.093 193.842L665.4 124.615L811.992 271.18Z" fill="white"/>
<path d="M588.209 202.361L518.86 271.564L587.93 340.779L657.279 271.576L588.209 202.361Z" fill="white"/>
<path d="M587.673 47.0001L518.398 116.202L587.638 185.514L656.913 116.313L587.673 47.0001Z" fill="white"/>
</svg>
