<svg width="1200" height="600" viewBox="0 0 1200 600" fill="none" xmlns="http://www.w3.org/2000/svg">
<path d="M103.916 259.084L103.931 259.099V259.084H103.916Z" fill="black"/>
<path d="M135.215 307.718L135.324 306.342C135.324 306.79 135.138 307.285 135.215 307.718Z" fill="black"/>
<path d="M143.984 326.399V326.384H143.969L143.984 326.399Z" fill="black"/>
<path d="M115.22 323.553L115.205 323.538L115.22 323.553Z" fill="black"/>
<path d="M420.469 266.475C415.396 287.136 429.562 343.209 404.819 350.245C398.216 352.116 391.937 351.065 386.988 347.477C378.035 340.951 375.576 330.899 375.437 320.245C375.189 301.919 376.983 283.78 374.571 265.872C370.21 256.516 341.199 258.604 341.091 268.532L340.349 331.131C340.271 338.492 336.359 344.616 331.503 348.127C325.92 352.178 318.343 354.42 311.74 351.312C303.064 347.214 299.121 337.379 299.167 327.884C299.229 307.703 300.946 288.218 299.507 268.053C298.796 258.001 272.182 257.027 268.146 265.47C266.847 289.424 267.388 312.837 267.713 337.132C268.13 368.431 296.43 391.318 326.864 385.395C340.596 382.736 350.849 373.998 358.998 362.663C369.638 384.885 401.293 392.323 421.242 381.947C436.428 374.045 448.83 357.977 449.371 340.302L451.428 272.599C451.536 269.089 450.949 265.811 449.015 263.707C443.82 258.078 423.886 258.109 420.469 266.475Z" fill="black"/>
<path d="M696.83 319.951C682.077 311.167 666.103 305.012 649.309 300.28C645.829 299.291 643.943 296.677 644.391 293.414C644.654 291.543 646.262 288.667 648.953 287.955C663.505 284.167 676.603 289.61 688.603 297.358C695.392 301.734 705.382 296.6 708.166 291.033C718.913 269.615 671.886 251.63 639.721 261.697C629.205 264.991 620.112 270.651 614.591 279.574C604.648 295.641 610.571 313.889 626.901 322.657C638.731 328.998 651.257 333.235 664.324 337.348C671.407 339.591 681.969 345.467 679.232 352.534C675.551 362.06 650.113 365.168 632.638 349.039C626.422 343.317 617.653 343.132 611.189 348.08C605.9 352.117 602.514 362.045 608.607 368.153C637.154 396.824 693.552 393.731 709.867 364.411C719.191 347.678 713.098 329.647 696.83 319.951Z" fill="black"/>
<path d="M530.358 259.966C492.192 257.708 464.202 284.291 462.903 321.9C461.666 358.164 486.702 386.695 524.296 387.87C546.069 388.551 569.389 383.2 583.153 365.231C587.869 359.076 582.596 350.741 577.601 347.632C560.683 337.117 555.162 360.669 530.806 361.658C515.404 362.277 501.888 352.782 497.094 339.251L576.317 338.215C583.385 338.122 587.22 327.931 587.73 321.946C590.715 287.399 563.529 261.945 530.358 259.966ZM497.311 310.936C499.275 293.925 514.893 284.832 531.131 287.167C543.549 288.946 553.724 296.368 554.343 310.797L497.311 310.936Z" fill="black"/>
<path d="M909.525 270.094C890.597 255.372 865.174 254.985 844.854 266.615C840.879 259.532 834.616 256.516 827.549 257.614C822.74 258.357 815.348 262.578 815.348 269.491L815.487 375.622C815.503 383.447 824.178 387.174 830.503 387.251C835.575 387.313 844.668 383.818 844.73 376.905L845.302 312.605C845.441 297.234 857.488 287.105 873.262 287.646C881.009 287.909 893.906 290.971 894.03 301.131L894.973 373.983C895.081 382.117 902.334 387.066 909.711 387.313C916.036 387.529 925.036 383.4 925.051 375.313L925.19 300.311C925.221 288.265 918.85 277.347 909.525 270.094Z" fill="black"/>
<path d="M792.987 274.176C792.956 266.893 789.739 260.939 781.713 260.429C775.79 260.057 769.744 260.908 763.698 260.088L763.218 235.902C763.079 228.526 756.151 226.407 749.207 226.299C743.532 226.222 734.176 228.124 734.207 235.841L734.578 348.961C734.64 367.008 747.027 382.565 763.806 387.22C770.285 389.014 776.966 387.637 783.275 387.668C790.28 387.699 793.311 381.838 792.863 375.622C792.523 371.06 792.847 367.039 789.677 363.993C787.311 361.704 783.198 360.018 778.899 360.25C769.605 360.745 764.146 354.343 764.053 345.358L763.466 289.702L783.074 289.269C791.177 289.084 793.018 281.243 792.987 274.176Z" fill="black"/>
<path d="M215.104 229.578C215.166 230.815 216.387 231.913 216.774 233.026C216.913 233.026 217.037 233.073 217.145 233.088C217.161 233.088 217.176 233.088 217.192 233.088H217.253C217.253 233.088 217.253 233.088 217.284 233.088C218.382 233.227 220.145 233.336 220.563 234.666C221.692 238.377 220.13 241.702 219.171 244.671C219.171 244.671 219.171 244.671 219.171 244.686C222.542 242.537 211.64 264.001 211.949 260.661C211.81 261.14 211.949 261.728 211.764 262.176C209.212 268.347 204.31 274.61 198.093 277.208L195.047 280.625C199.237 277.44 206.707 288.218 206.799 287.754L204.217 300.048C205.918 299.832 206.459 298.285 207.511 297.296C207.681 296.383 207.743 293.693 208.98 292.935C217.717 287.553 217.996 278.027 222.434 270.403C224.831 266.29 232.609 264.666 231.542 258.511C224.722 255.31 219.449 248.63 222.96 241.578C222.991 241.424 223.006 241.269 223.022 241.114C223.501 237.697 223.346 233.367 223.454 229.918C223.655 222.805 214.686 214.995 219.418 214.469C217.856 214.083 216.217 213.279 214.748 212.645C208.098 215.521 221.46 223.841 215.119 229.547L215.104 229.578Z" fill="#181818"/>
<path d="M152.381 385.133C153.68 378.839 152.566 371.911 148.453 365.88C151.484 365.632 152.505 368.4 154.824 368.803L151.701 361.689C146.149 356.354 144.2 348.637 141.123 341.663C139.886 342.297 140.04 344.261 138.602 345.111C128.659 327.992 131.365 329.322 115.282 318.621C115.236 319.704 115.035 320.771 114.942 321.853C114.896 322.333 115.499 323.199 115.22 323.57C119.566 326.322 124.963 329.601 127.762 334.627C131.427 341.199 148.855 373.163 142.252 377.416L142.499 379.89C147.788 382.504 150.927 389.37 157.809 389.231C159.371 386.463 154.933 386.231 152.396 385.148L152.381 385.133Z" fill="#1B1B1B"/>
<path d="M69.9566 241.918L71.8741 242.104C75.1062 237.712 80.6578 237.743 85.6527 237.403C88.0651 237.233 90.6322 234.666 94.1735 236.289C100.452 239.166 128.21 245.135 133.375 239.042L119.365 234.604C109.189 231.372 97.9932 232.655 87.2456 232.856C80.163 232.98 74.3639 237.975 68.4102 240.372C68.9669 240.82 69.4927 241.346 69.9566 241.903V241.918Z" fill="#131313"/>
<path d="M207.959 335.678C203.552 340.116 210.264 334.163 196.593 324.173C195.557 325.766 194.521 326.941 193.902 328.023C193.717 328.518 193.516 329.044 193.268 329.616L191.846 338.756C196.299 336.328 202.872 341.4 202.933 346.256C205.392 346.782 207.697 347.895 210.202 347.988L212.908 335.972C211.362 336.869 209.599 336.034 207.959 335.678Z" fill="#0A0A0A"/>
<path d="M188.861 217.346C195.866 215.505 203.073 220.964 204.418 227.877L205.934 229.671C206.985 230.707 208.856 232.346 210.016 231.155C215.274 225.681 200.444 209.907 188.846 210.773C190.438 208.624 192.294 209.985 193.485 209.66V208.083C185.382 207.835 177.665 207.959 170.196 211.129L185.938 214.005C188.335 214.438 189.294 215.846 188.861 217.346Z" fill="#141414"/>
<path d="M68.6884 295.564C67.2657 288.559 65.2708 280.115 71.5802 275.801C72.8018 274.131 73.5751 270.651 76.1267 269.708C69.8018 261.79 62.6728 283.641 59.085 277.146C57.4149 282.327 61.4047 287.492 59.2706 292.44L64.0181 300.064C66.1058 299.136 68.41 298.054 68.6884 295.564Z" fill="#212121"/>
<path d="M119.365 234.619C121.097 234.619 122.256 234.139 122.148 233.583C122.102 233.196 121.468 232.778 120.045 232.454C118.761 232.825 117.772 232.701 117.153 232.33C116.983 232.16 116.813 232.021 116.643 231.882C116.349 231.479 116.256 230.985 116.395 230.49C117.447 226.67 127.684 226.778 130.189 226.438C131.272 222.526 85.0494 226.562 87.2453 232.871C97.9929 232.67 109.189 231.387 119.365 234.619Z" fill="black"/>
<path d="M231.527 258.542C232.594 264.697 224.815 266.32 222.418 270.434C217.98 278.058 217.702 287.584 208.964 292.965C207.727 293.723 207.665 296.414 207.495 297.326C212.645 292.439 218.258 287.537 222.712 281.939C227.088 276.465 228.882 268.779 233.924 263.676C232.903 260.506 234.372 257.274 235.192 254.212C233.661 254.753 231.187 256.609 231.527 258.542Z" fill="#1B1B1B"/>
<path d="M142.236 377.401C139.221 376.689 137.288 374.014 136.437 371.153C131.597 369.282 126.509 345.993 120.525 337.039C120.231 337.147 120.03 337.302 119.86 337.457C119.798 338.446 119.519 339.42 119.04 340.364C120.138 342.714 119.612 345.854 120.942 348.22C123.061 351.962 124.081 356.184 125.597 360.143C127.082 364.024 131.551 366.514 131.582 370.921C135.525 373.658 138.231 377.787 142.484 379.875L142.236 377.401Z" fill="#252525"/>
<path d="M223.439 229.949C228.418 232.825 229.671 239.104 233.228 243.557C234.821 238.33 232.439 233.212 232.315 227.877C228.728 222.51 226.516 216.325 219.403 214.5C214.671 215.026 223.64 222.835 223.439 229.949Z" fill="#0C0C0C"/>
<path d="M160.283 377.848C163.453 377.709 165.263 380.276 169.484 382.24C170.892 379.735 167.69 378.9 167.629 376.951C166.36 377.926 165 376.055 164.149 375.575C161.737 374.199 157.608 372.266 156.587 369.158C156.154 369.281 155.273 368.895 154.824 368.817C152.505 368.415 151.484 365.647 148.453 365.895C152.566 371.926 153.68 378.854 152.381 385.148C154.917 386.23 159.355 386.462 157.793 389.23C158.366 389.215 158.938 389.648 159.51 389.725C159.989 386.044 162.417 382.395 160.283 377.864V377.848Z" fill="#161616"/>
<path d="M207.851 301.826L204.294 303.373C204.078 303.465 203.862 303.605 203.66 303.759C202.331 304.873 201.464 307.331 200.227 307.888C203.305 308.878 204.944 311.136 206.088 313.888C208.934 320.693 207.495 328.378 207.959 335.677C209.599 336.033 211.362 336.868 212.908 335.971C213.635 332.693 213.48 329.724 213.619 326.399C212.583 326.244 210.975 326.523 210.186 325.904C209.784 325.595 205.454 310.053 213.233 308.167C213.094 307.641 213.449 306.991 213.357 306.434C211.068 305.46 209.784 303.249 207.851 301.826Z" fill="#0E0E0E"/>
<path d="M157.824 221.985C161.056 222.789 161.706 226.547 165.417 226.114C165 225.062 163.005 223.871 163.252 222.897C163.515 221.846 164.861 220.516 165.696 220.407C167.211 220.237 168.804 220.098 170.196 219.418C173.675 217.701 177.325 217.005 181.129 216.851C183.433 216.773 185.753 216.062 187.995 216.913C187.995 216.928 188.011 216.928 188.026 216.928C188.305 217.052 188.583 217.191 188.861 217.345C189.294 215.845 188.335 214.438 185.938 214.005L170.196 211.129C167.49 212.273 163.562 213.603 160.917 214.438C162.711 214.577 164.876 214.16 166.902 216.479L157.824 221.985Z" fill="#212121"/>
<path d="M170.196 219.418C170.103 219.526 170.072 219.634 170.103 219.743L170.196 219.418Z" fill="#212121"/>
<path d="M116.395 230.49C116.256 230.985 116.349 231.48 116.643 231.882C116.813 232.021 116.983 232.161 117.153 232.331C117.772 232.702 118.761 232.826 120.045 232.454C121.468 232.779 122.102 233.197 122.148 233.583C122.256 234.14 121.096 234.619 119.364 234.619L133.375 239.058C136.452 240.032 138.494 240.279 140.999 242.274C142.916 243.805 147.339 242.754 149.164 245.135L150.246 243.465C150.246 243.465 150.246 243.465 150.246 243.449C146.922 243.156 145.035 239.614 142.499 238.486C139.653 237.217 136.081 237.418 133.282 235.594C131.303 234.31 127.761 235.192 125.89 233.119C128.334 228.789 133.05 229.346 136.391 227.011C134.38 226.748 132.262 226.161 130.205 226.454C127.7 226.795 117.462 226.686 116.411 230.506L116.395 230.49Z" fill="#060606"/>
<path d="M140.628 228.496C141.417 228.542 142.205 228.774 142.994 228.712C143.69 228.666 144.912 229.068 145.499 228.65C146.953 227.63 148.901 227.429 150.401 226.779C151.267 226.408 152.829 225.31 153.556 224.8C154.267 222.882 156.463 222.82 157.824 222.001L166.902 216.495C164.876 214.176 162.711 214.593 160.917 214.454C152.551 217.083 145.02 221.583 137.922 226.887C138.478 227.862 139.514 228.449 140.628 228.511V228.496Z" fill="#2F2F2F"/>
<path d="M153.541 224.985C153.541 224.985 153.556 224.862 153.556 224.784C153.51 224.846 153.495 224.908 153.541 224.985Z" fill="#2F2F2F"/>
<path d="M227.537 281.152C226.253 280.409 223.052 283.904 222.712 282.543C222.681 282.389 222.681 282.203 222.712 281.94C218.258 287.538 212.645 292.441 207.495 297.327C206.444 298.317 205.903 299.863 204.202 300.08C203.614 300.296 203.212 301.332 202.64 301.688C203.15 302.291 203.707 302.848 204.294 303.374L207.851 301.827C209.769 298.858 211.98 295.286 215.707 293.693C217.593 293.368 219.836 295.874 221.027 296.941C225.743 293.26 226.516 288.497 228.882 283.301C228.62 282.59 228.31 281.6 227.537 281.152Z" fill="#040404"/>
<path d="M195.078 371.246C189.897 376.287 181.933 377.107 174.959 375.174C174.386 375.375 173.629 375.452 172.654 375.591C171.263 375.792 172.484 377.741 173.953 378.266C178.175 379.766 182.582 377.339 187.469 379.395C188.783 380.462 171.866 381.235 172.5 380.571C171.634 381.158 172.376 382.952 171.835 383.431C176.01 383.091 180.186 383.292 184.345 383.555C190.964 382.009 195.727 374.756 199.315 369.251C197.985 367.457 196.485 371.137 195.078 371.246Z" fill="#131313"/>
<path d="M167.134 387.452C168.278 385.72 170.35 384.793 171.835 383.432C172.376 382.952 171.634 381.159 172.5 380.571C171.866 381.236 188.783 380.463 187.469 379.396C182.582 377.339 178.175 379.767 173.953 378.267C172.484 377.741 171.263 375.792 172.654 375.591C173.629 375.452 174.386 375.375 174.959 375.174C174.866 375.127 174.773 375.097 174.68 375.066C174.665 375.066 174.649 375.05 174.634 375.05C173.613 374.509 172.778 372.978 171.031 373.365C169.268 373.751 168.433 375.313 167.628 376.952C167.69 378.901 170.892 379.736 169.484 382.241C165.263 380.277 163.453 377.71 160.283 377.849C162.417 382.38 159.989 386.03 159.51 389.71C159.989 389.788 160.639 389.525 161.056 389.71C161.69 387.514 165.077 386.911 167.134 387.452Z" fill="#121212"/>
<path d="M120.262 349.441C120.54 349.085 120.772 348.667 120.942 348.219C119.612 345.853 120.138 342.713 119.04 340.363C119.519 339.42 119.782 338.445 119.86 337.456C119.009 338.229 119.396 339.435 119.04 340.363C117.416 336.868 116.38 333.621 116.705 329.739C116.844 328.038 113.628 325.703 115.205 323.553C115.483 323.182 114.88 322.316 114.927 321.837C114.354 321.852 113.767 321.759 113.195 321.821C113.241 324.852 113.272 327.883 112.963 330.914C115.638 333.868 116.055 338.09 116.04 343.007C112.561 341.152 110.133 339.28 107.318 337.44C106.576 341.786 111.138 344.693 112.019 348.188C113.256 349.178 114.679 350.229 115.839 350.631C117.71 351.25 119.303 350.678 120.262 349.456V349.441Z" fill="#070707"/>
<path d="M228.032 244.223L225.882 241.269C225.62 240.913 225.125 240.867 224.553 240.975C224.553 240.975 224.542 240.981 224.522 240.991C224.011 241.099 223.439 241.331 222.944 241.609C219.434 248.661 224.707 255.342 231.527 258.543C231.187 256.61 233.661 254.754 235.192 254.213L234.527 250.718C231.31 250.687 230.058 246.991 228.032 244.223Z" fill="#131313"/>
<path d="M195.078 359.694C194.413 360.344 193.933 361.21 193.238 361.828C191.799 363.096 190.315 364.334 189.201 365.911C190.949 367.921 192.804 369.854 195.078 371.246C196.485 371.138 197.985 367.457 199.315 369.251C201.604 365.725 204.001 362.895 205.686 358.89C203.305 357.993 200.305 358.952 198.31 357.065C197.073 357.73 196.067 358.72 195.078 359.694Z" fill="#040404"/>
<path d="M81.8949 314.338C80.766 312.915 79.0804 310.997 80.8743 309.637C80.2712 308.43 79.5907 307.286 78.8793 306.173C76.4514 304.827 74.1473 303.033 73.1112 300.42C72.57 300.59 71.9978 300.606 71.4565 300.435C71.0235 302.616 69.4616 304.286 68.3792 306.173C70.0184 311.477 76.869 315.065 80.8124 318.482C80.9825 317.059 81.0753 315.559 81.8794 314.338H81.8949Z" fill="#292929"/>
<path d="M215.104 229.578C221.444 223.872 208.083 215.552 214.732 212.676C207.851 209.645 200.892 208.3 193.485 208.083V209.66C204.851 210.542 214.547 218.073 215.104 229.578Z" fill="#212121"/>
<path d="M112.962 330.9C111.926 335.91 106.189 322.858 103.854 326.492C104.179 329.013 104.318 331.549 104.179 334.085C105.601 334.735 106.096 336.637 107.318 337.425C110.132 339.266 112.56 341.137 116.04 342.993C116.055 338.075 115.638 333.853 112.962 330.9Z" fill="#0D0D0D"/>
<path d="M207.851 301.827C209.784 303.25 211.068 305.461 213.356 306.435C218.212 305.894 218.32 299.044 221.027 296.94C219.836 295.873 217.593 293.368 215.707 293.693C211.98 295.286 209.769 298.858 207.851 301.827Z" fill="#080808"/>
<path d="M103.854 326.492C103.328 325.967 102.834 325.41 102.385 324.807C102.385 324.807 102.385 324.807 102.37 324.807C99.7562 325.116 98.2407 323.121 96.4159 321.899C94.3901 320.539 90.5705 321.018 88.7302 319.085C88.6065 321.126 88.9467 323.152 89.9982 324.899C94.653 327.776 98.983 331.688 104.194 334.085C104.334 331.549 104.194 329.013 103.87 326.492H103.854Z" fill="#353535"/>
<path d="M222.712 282.543C223.052 283.904 226.253 280.409 227.537 281.151C228.31 281.6 228.619 282.59 228.882 283.301C231.666 277.115 236.181 270.728 233.923 263.677C228.882 268.78 227.088 276.466 222.712 281.94C222.681 282.203 222.681 282.388 222.712 282.543Z" fill="black"/>
<path d="M223.439 229.949C223.331 233.398 223.485 237.728 223.006 241.145C222.991 241.3 222.975 241.455 222.944 241.609C223.439 241.331 224.011 241.099 224.521 240.991C224.521 240.991 224.532 240.986 224.552 240.975C225.125 240.867 225.619 240.913 225.882 241.269L228.032 244.223C230.058 246.991 231.31 250.687 234.527 250.718C234.449 250.316 234.62 249.867 234.589 249.465C232.934 248.089 234.063 245.011 233.228 243.558C229.671 239.104 228.418 232.826 223.439 229.949Z" fill="#0F0F0F"/>
<path d="M57.7089 274.346C58.946 272.429 58.7603 269.599 60.7088 267.929C59.9201 267.032 59.379 265.965 58.9615 264.867C58.6367 266.49 55.5284 268.037 55.25 271.192C54.8634 266.676 54.2912 261.635 56.0387 257.305H54.4923C51.0437 265.099 49.4973 272.537 54.7551 280.517C54.2603 277.717 56.4562 276.264 57.6934 274.362L57.7089 274.346Z" fill="#161616"/>
<path d="M199.439 354.05C198.897 354.421 198.619 355.148 198.093 355.55L198.31 357.065C200.304 358.952 203.305 357.993 205.686 358.89C207.279 355.117 209.274 352.132 210.202 347.988C207.696 347.895 205.392 346.782 202.933 346.256C202.377 349.132 202.021 352.318 199.439 354.05Z" fill="#060606"/>
<path d="M125.597 360.142C124.081 356.183 123.06 351.962 120.942 348.219C120.772 348.668 120.54 349.085 120.261 349.441C119.303 350.663 117.71 351.235 115.839 350.616C114.679 350.214 113.256 349.163 112.019 348.173C112.854 351.482 115.035 353.013 116.334 355.58C119.194 357.9 121.607 361.379 125.597 360.142Z" fill="#050505"/>
<path d="M210.186 325.904C210.975 326.523 212.583 326.245 213.619 326.399C213.867 320.306 214.856 314.214 213.233 308.167C205.454 310.054 209.784 325.595 210.186 325.904Z" fill="#141414"/>
<path d="M125.875 233.103C127.746 235.175 131.288 234.294 133.267 235.577C135.664 232.887 142.113 232.253 140.628 228.495C139.515 228.433 138.478 227.845 137.922 226.871C137.489 227.041 136.762 226.732 136.375 226.995C133.035 229.33 128.318 228.773 125.875 233.103Z" fill="#090909"/>
<path d="M59.0851 277.146C59.0851 277.146 59.1315 277.007 59.1315 276.929C59.2862 275.97 58.4202 274.826 57.7089 274.347C56.4717 276.249 54.2758 277.702 54.7706 280.502C56.5335 283.888 56.8737 288.589 59.2707 292.44C61.4047 287.491 57.415 282.326 59.0851 277.146Z" fill="#262626"/>
<path d="M116.334 355.58C119.736 362.369 124.375 368.524 131.582 370.921C131.551 366.513 127.081 364.024 125.597 360.142C121.607 361.379 119.195 357.9 116.334 355.58Z" fill="black"/>
<path d="M233.228 243.558C234.063 245.011 232.934 248.089 234.589 249.465C238.826 249.419 237.62 235.81 232.315 227.877C232.439 233.212 234.821 238.331 233.228 243.558Z" fill="#131313"/>
<path d="M88.7148 319.084C86.7663 317.028 84.9106 314.909 81.9105 314.337C81.1064 315.559 81.0136 317.059 80.8435 318.481C83.9209 321.141 86.5034 322.734 89.9983 324.899C88.9467 323.136 88.6066 321.11 88.7303 319.084H88.7148Z" fill="#2E2E2E"/>
<path d="M56.0542 257.289C58.745 250.624 63.5389 245.134 69.9566 241.933C69.4926 241.377 68.9669 240.851 68.4101 240.402C60.0904 243.727 57.8172 249.82 54.5078 257.305H56.0542V257.289Z" fill="#171717"/>
<path d="M171.835 383.432C170.35 384.792 168.278 385.72 167.134 387.452C171.526 388.628 175.469 386.401 179.845 386.571C180.928 385.597 183.201 384.406 184.345 383.555C180.186 383.292 176.01 383.091 171.835 383.432Z" fill="#0C0C0C"/>
<path d="M167.134 387.452C165.077 386.911 161.69 387.514 161.056 389.71C166.948 392.401 175.098 390.839 179.845 386.571C175.469 386.401 171.526 388.628 167.134 387.452Z" fill="#151515"/>
<path d="M68.9821 296.259C68.9821 296.259 68.9666 296.244 68.9666 296.228C68.8893 296.012 68.7965 295.78 68.6883 295.563C68.4099 298.053 66.1057 299.136 64.0181 300.064C65.0078 301.656 66.5078 305.12 68.3945 306.172C69.477 304.285 71.0388 302.615 71.4718 300.435C71.7502 298.734 69.7863 297.543 68.9821 296.259Z" fill="#252525"/>
<path d="M167.598 283.455C169.438 283.223 168.603 284.584 168.093 285.079C167.551 285.589 166.577 286.502 166.206 287.244C167.381 289.007 170.072 287.352 171.912 287.476C173.149 287.491 175.191 286.115 176.397 286.424C176.397 286.424 176.397 286.424 176.412 286.424C186.155 280.115 194.799 271.811 202.903 263.677C203.227 261.96 204.82 259.919 206.011 258.774C207.743 252.187 212.862 245.553 213.697 238.671C213.82 237.588 213.264 236.32 213.728 235.161C214.238 233.892 215.676 234.093 216.82 234.372C216.774 233.954 216.882 233.429 216.743 233.042C216.851 233.073 216.975 233.088 217.114 233.104C217.006 233.073 216.882 233.042 216.743 233.042C216.356 231.928 215.135 230.831 215.073 229.593C214.516 218.088 204.82 210.557 193.454 209.675C192.263 210 190.408 208.639 188.815 210.789C200.413 209.923 215.243 225.696 209.985 231.171C208.825 232.361 206.954 230.722 205.903 229.686C205.918 229.949 205.949 230.212 205.949 230.475C207.557 255.094 186.155 271.733 167.567 283.471L167.598 283.455Z" fill="#0D0D0D"/>
<path d="M195.031 280.672C194.211 281.6 192.789 281.971 192.309 283.27C198.882 288.064 202.284 295.487 199.609 303.358C200.629 302.832 201.65 302.306 202.624 301.703C203.196 301.347 203.583 300.311 204.186 300.095L206.769 287.801C206.676 288.265 199.206 277.486 195.016 280.672H195.031Z" fill="#141414"/>
<path d="M213.727 238.655C212.892 245.537 207.758 252.171 206.042 258.759C208.439 259.949 206.088 262.702 205.593 265.687C208.671 266.321 209.382 262.841 211.763 262.207C211.949 261.759 211.81 261.156 211.949 260.692C205.779 257.382 221.32 252.418 213.743 238.64L213.727 238.655Z" fill="#1B1B1B"/>
<path d="M205.593 265.702C206.088 262.718 208.439 259.965 206.042 258.774C204.851 259.919 203.258 261.96 202.933 263.677C204.99 265.47 201.681 267.543 201.495 269.522C201.217 272.445 200.135 274.981 198.093 277.254C204.31 274.656 209.212 268.393 211.764 262.223C209.382 262.857 208.671 266.336 205.593 265.702Z" fill="#212121"/>
<path d="M216.851 234.372C215.707 234.094 214.269 233.893 213.758 235.161C213.294 236.32 213.867 237.589 213.727 238.671C221.305 252.45 205.763 257.414 211.934 260.723C211.624 264.063 222.527 242.599 219.155 244.748C216.449 242.12 217.299 237.898 216.851 234.387V234.372Z" fill="#121212"/>
<path d="M190.33 283.193C190.887 283.285 191.83 282.899 192.325 283.254C192.804 281.955 194.212 281.584 195.047 280.656L198.093 277.239C200.134 274.95 201.217 272.414 201.495 269.507C197.567 274.796 185.969 280.131 190.33 283.193Z" fill="#262626"/>
<path d="M216.851 234.371C217.3 237.882 216.449 242.103 219.155 244.732C219.155 244.732 219.155 244.732 219.155 244.717C220.114 241.748 221.691 238.423 220.547 234.711C220.13 233.366 218.367 233.273 217.269 233.134C217.238 233.134 217.207 233.134 217.191 233.134C217.176 233.134 217.161 233.134 217.145 233.134C217.006 233.119 216.882 233.088 216.774 233.072C216.913 233.459 216.805 233.985 216.851 234.402V234.371Z" fill="black"/>
<path d="M115.205 323.554C113.643 325.719 116.859 328.038 116.705 329.739C126.122 334.425 137.705 361.859 136.422 371.153C137.272 374.014 139.221 376.689 142.221 377.4C148.824 373.148 131.396 341.183 127.731 334.611C124.932 329.585 119.55 326.322 115.189 323.554H115.205Z" fill="#202020"/>
<path d="M115.53 312.714C114.432 314.77 114.973 315.961 114.957 317.136C115.158 317.446 115.282 318.219 115.267 318.606C131.349 329.307 128.643 327.977 138.587 345.096C140.025 344.261 139.87 342.297 141.107 341.647C140.736 340.797 140.875 339.745 140.767 338.833C137.334 326.817 126.71 320.075 115.514 312.698L115.53 312.714Z" fill="#181818"/>
<path d="M156.201 358.72C152.845 352.148 148.901 345.962 147.123 338.941C146.195 335.199 146.071 331.178 144.015 327.838C145.577 332.091 143.149 335.338 140.783 338.848C140.876 339.745 140.736 340.797 141.123 341.663C144.185 348.653 146.149 356.354 151.701 361.689C153.572 360.87 156.247 361.318 156.216 358.72H156.201Z" fill="#080808"/>
<path d="M114.648 316.641C112.839 313.904 113.009 309.621 115.313 306.11L136.205 320.353C136.144 318.312 136.236 316.27 136.484 314.245C136.097 313.982 135.463 314.028 135.077 313.781L115.081 300.806C112.839 299.352 113.566 296.476 112.793 294.172C111.849 295.208 110.705 296.909 111.061 298.425C111.463 300.172 111.091 301.935 111.339 303.651C111.633 305.77 110.999 307.889 111.107 309.961C111.277 312.945 112.112 315.899 111.246 318.868C110.999 319.734 111.555 320.786 111.401 321.652C111.865 321.42 112.653 321.853 113.179 321.791C113.751 321.729 114.339 321.822 114.911 321.806C115.004 320.739 115.22 319.657 115.251 318.574C115.251 318.188 115.128 317.415 114.942 317.105C114.818 316.951 114.741 316.781 114.633 316.626L114.648 316.641Z" fill="#101010"/>
<path d="M167.443 372.189C166.02 367.24 160.314 364.488 157.237 360.359C157.206 360.359 157.237 360.343 157.237 360.343C156.835 359.833 156.494 359.292 156.2 358.72C156.231 361.318 153.556 360.869 151.685 361.689L154.809 368.802C155.257 368.88 156.139 369.266 156.572 369.143C160.53 367.38 163.438 372.282 167.428 372.174L167.443 372.189Z" fill="#060606"/>
<path d="M79.1886 251.305C80.0236 253.052 80.8278 254.305 80.7505 255.805C84.9258 248.691 115.143 254.351 119.488 257.212C123.834 257.769 128.334 259.238 131.69 261.944C132.587 262.656 134.04 262.671 135.03 263.181C135.246 257.413 131.999 250.145 131.984 250.315C132.509 245.537 138.633 243.99 140.968 242.274C138.463 240.279 136.422 240.031 133.344 239.057C128.179 245.15 100.421 239.181 94.1426 236.305C90.6013 234.681 88.0496 237.248 85.6218 237.418C88.529 239.815 91.2507 242.243 95.9054 244.779C91.2661 250.408 85.6682 251.011 79.1577 251.305H79.1886Z" fill="#101010"/>
<path d="M60.7245 267.929C63.338 265.702 66.8639 264.449 69.3691 261.759C69.8175 261.295 68.2866 259.887 68.5186 259.47C68.766 259.021 69.7557 258.48 70.266 259.207C70.6217 259.702 71.2711 259.98 71.9206 260.691C73.8227 258.898 74.9671 255.697 77.6734 255.743L80.7507 255.789C80.8126 254.289 80.0239 253.052 79.1888 251.289C85.6993 250.995 91.2973 250.377 95.9366 244.763C91.2819 242.243 88.5601 239.799 85.6529 237.402C80.6579 237.743 75.1063 237.712 71.8743 242.103C73.8692 244.918 74.4259 250.98 71.1938 253.423C66.2453 257.166 60.1215 259.099 58.9617 264.836C59.3792 265.949 59.9204 267.001 60.709 267.898L60.7245 267.929Z" fill="#0E0E0E"/>
<path d="M71.1936 253.439C74.4256 250.996 73.8689 244.934 71.874 242.119L69.9565 241.934C63.5388 245.135 58.7604 250.624 56.0541 257.29C54.3067 261.62 54.8788 266.661 55.2655 271.176C55.5438 268.037 58.6521 266.475 58.9768 264.852C60.1212 259.114 66.2605 257.181 71.2091 253.439H71.1936Z" fill="#0A0A0A"/>
<path d="M76.1268 269.707C73.5752 270.65 72.802 274.13 71.5803 275.8C75.5701 276.681 77.998 273.063 76.1268 269.707Z" fill="black"/>
<path d="M191.846 338.756L193.268 329.616C188.799 329.694 187.268 338.029 191.846 338.756Z" fill="black"/>
<path d="M193.315 327.219L193.268 329.616C193.407 328.827 193.438 327.992 193.315 327.219Z" fill="black"/>
<path d="M193.902 328.023C193.578 328.565 193.346 329.075 193.268 329.616C193.516 329.044 193.717 328.518 193.902 328.023Z" fill="black"/>
<path d="M205.934 229.671L204.418 227.877C202.717 230.413 203.444 231.341 205.934 229.671Z" fill="black"/>
<path d="M168.185 279.435L167.597 283.455C186.185 271.718 207.588 255.079 205.98 230.46C205.98 230.197 205.949 229.934 205.933 229.671L202.98 232.671C202.98 254.089 184.763 268.718 168.185 279.435Z" fill="black"/>
<path d="M200.181 318.11C198.109 319.641 196.299 321.342 193.608 321.652C192.433 322.054 191.521 323.77 190.485 324.466C192.248 324.559 193.052 325.75 193.315 327.188V327.219C193.438 327.992 193.407 328.827 193.268 329.616C193.345 329.075 193.577 328.564 193.902 328.023C194.521 326.941 195.557 325.765 196.593 324.172C210.263 334.162 203.552 340.116 207.959 335.678C207.495 328.379 208.933 320.693 206.088 313.889C204.387 315.652 202.114 316.688 200.181 318.11Z" fill="#070707"/>
<path d="M192.541 345.436C193.949 345.606 195.186 347.106 196.191 347.74C197.815 348.745 199.006 349.719 199.531 350.864C199.949 351.776 199.964 352.797 199.439 354.049C202.021 352.317 202.377 349.132 202.933 346.255C202.872 341.399 196.299 336.327 191.846 338.755L190.423 346.363C191.165 345.59 191.876 345.358 192.541 345.436Z" fill="#0F0F0F"/>
<path d="M198.248 226.965C200.335 226.934 202.408 227.475 204.418 227.877C203.072 220.964 195.866 215.506 188.861 217.346C188.582 217.191 188.304 217.052 188.026 216.928C188.01 216.928 187.995 216.928 187.995 216.913C185.753 216.062 183.433 216.774 181.129 216.851C185.49 222.062 193.036 222.882 198.248 226.965Z" fill="#333333"/>
<path d="M107.024 266.661L98.6735 262.083C91.2197 257.985 80.5339 260.351 72.2915 262.501C71.5183 262.037 71.9667 261.063 71.9203 260.692C71.2708 259.98 70.6214 259.702 70.2657 259.207C69.7554 258.48 68.7656 259.021 68.5182 259.47C68.2863 259.887 69.8172 261.295 69.3687 261.759C66.8481 264.45 63.3222 265.702 60.7242 267.929C58.7757 269.599 58.9613 272.429 57.7241 274.347C58.4355 274.826 59.3015 275.97 59.1469 276.929C59.1469 277.006 59.1159 277.068 59.1005 277.146C62.6882 283.641 69.8172 261.79 76.1421 269.707C85.9464 265.455 96.493 265.64 107.04 266.661H107.024Z" fill="#1D1D1D"/>
<path d="M71.58 275.8C65.2706 280.114 67.2655 288.558 68.6882 295.563C68.7965 295.78 68.8893 296.012 68.9666 296.228L68.9821 296.259C69.7862 297.543 71.7501 298.733 71.4718 300.434C72.013 300.605 72.5852 300.589 73.1265 300.419C75.1832 296.893 76.6523 293.073 79.0028 289.733C76.5131 285.094 73.4821 280.717 71.58 275.8Z" fill="#383838"/>
<path d="M116.705 329.739C116.38 333.621 117.401 336.868 119.04 340.363C119.396 339.435 118.994 338.229 119.86 337.456C120.03 337.301 120.231 337.162 120.525 337.038C126.509 345.977 131.597 369.281 136.437 371.153C137.721 361.859 126.123 334.409 116.72 329.739H116.705Z" fill="#232323"/>
<path d="M179.582 365.029C176.072 364.72 172.453 364.921 168.726 361.457C160.437 353.771 154.747 343.256 152.01 332.431C152.087 332.926 151.87 333.683 151.577 334.441C151.484 334.688 151.236 334.797 150.912 334.843C150.417 334.92 149.721 334.889 149.025 335.09C147.339 335.616 147.386 337.719 147.123 338.926C148.901 345.946 152.845 352.132 156.2 358.704C156.494 359.277 156.834 359.818 157.236 360.328C157.236 360.328 157.221 360.344 157.236 360.344C160.314 364.473 166.02 367.225 167.443 372.174C167.443 372.174 167.443 372.174 167.458 372.174C167.644 372.839 167.628 373.89 167.288 374.834C166.917 375.839 165.216 375.808 164.149 375.576C164.999 376.055 166.36 377.926 167.628 376.952C168.433 375.313 169.268 373.751 171.031 373.364C172.778 372.978 173.613 374.509 174.634 375.05C174.634 375.05 174.665 375.065 174.68 375.065C174.773 375.096 174.866 375.127 174.958 375.174C181.933 377.107 189.897 376.287 195.077 371.246C192.804 369.854 190.949 367.921 189.201 365.911C185.644 368.215 182.273 365.261 179.582 365.029Z" fill="black"/>
<path d="M164.149 375.576C165.216 375.808 166.917 375.839 167.288 374.833C167.629 373.89 167.66 372.854 167.459 372.174C167.459 372.174 167.459 372.174 167.443 372.174C163.438 372.266 160.531 367.38 156.587 369.143C157.608 372.251 161.737 374.184 164.149 375.56V375.576Z" fill="black"/>
<path d="M199.624 303.342C199.145 306.698 195.696 306.744 193.655 308.167C190.686 310.255 187.98 312.992 183.758 313.688L189.603 307.827C191.691 305.739 191.629 300.497 189.093 298.455C185.954 295.95 182.149 294.868 180.232 292.007C176.706 292.177 174.572 295.78 171.742 296.955C174.928 298.394 181.191 301.378 182.954 304.935C180.046 317.183 164.66 313.502 162.51 320.353C162.232 321.203 162.17 322.224 162.371 323.477L162.85 326.894C163.02 328.038 164.644 327.652 165.665 328.069C165.556 327.343 164.489 326.554 164.644 325.208C170.953 323.214 176.907 319.873 182.722 318.822L186.17 316.92C186.433 314.708 189.82 315.404 190.593 314.198C191.722 312.481 193.748 312.327 195.016 311.105C196.655 309.512 197.892 308.615 200.212 307.889C201.449 307.332 202.315 304.873 203.645 303.76C203.846 303.605 204.062 303.466 204.279 303.373C203.691 302.847 203.134 302.291 202.624 301.687C201.65 302.291 200.629 302.816 199.609 303.342H199.624Z" fill="#080808"/>
<path d="M195.031 311.105C197.567 312.714 198.681 315.621 200.181 318.111C202.129 316.688 204.387 315.652 206.088 313.889C204.944 311.136 203.304 308.878 200.227 307.889C197.907 308.615 196.67 309.512 195.031 311.105Z" fill="#161616"/>
<path d="M170.18 219.882C171.371 221.397 186.17 221.382 185.598 227.676C189.789 227.119 194.026 227.011 198.248 226.964C193.036 222.882 185.49 222.062 181.129 216.851C177.325 217.005 173.675 217.701 170.196 219.418L170.103 219.742C170.103 219.742 170.134 219.835 170.18 219.882Z" fill="#303030"/>
<path d="M178.144 229.238C180.588 228.604 183.093 228.001 185.598 227.676C186.17 221.382 171.371 221.397 170.18 219.882C170.134 219.835 170.103 219.789 170.103 219.743C170.072 219.634 170.103 219.526 170.196 219.418C168.804 220.098 167.211 220.238 165.696 220.408C167.768 224.923 178.098 223.346 178.144 229.238Z" fill="#2B2B2B"/>
<path d="M153.711 225.171C155.613 226.81 170.876 231.264 172.005 231.264H172.02C173.18 231.248 173.984 230.398 174.959 229.949C171.773 229.006 168.943 225.697 165.417 226.114C161.706 226.547 161.056 222.789 157.824 221.985C156.464 222.805 154.268 222.867 153.556 224.784C153.556 224.862 153.541 224.924 153.541 224.985C153.556 225.032 153.618 225.109 153.711 225.171Z" fill="#1C1C1C"/>
<path d="M178.144 229.237C178.098 223.345 167.768 224.923 165.696 220.407C164.861 220.515 163.515 221.845 163.252 222.897C163.005 223.871 165 225.062 165.417 226.114C168.943 225.696 171.773 229.005 174.959 229.949C175.902 229.531 177.139 229.5 178.144 229.237Z" fill="#262626"/>
<path d="M132.014 250.315C132.03 250.145 135.262 257.413 135.061 263.181C136.747 264.063 139.36 264.109 140.999 264.758C145.685 260.769 141.958 256.315 149.18 245.134C147.355 242.753 142.932 243.804 141.015 242.273C138.664 243.99 132.54 245.536 132.03 250.315H132.014Z" fill="#0C0C0C"/>
<path d="M154.747 246.124L156.819 245.861C159.046 243.65 161.072 240.913 164.335 240.464C163.592 240.078 163.02 238.933 162.262 238.562L149.303 232.222C147.556 231.387 145.499 230.969 145.391 229.485C145.36 229.237 145.406 228.974 145.499 228.665C144.912 229.083 143.69 228.68 142.994 228.727C143.102 232.021 143.891 235.423 142.499 238.516C142.499 238.516 142.499 238.516 142.484 238.516C145.02 239.645 146.906 243.186 150.231 243.48C150.231 243.48 150.231 243.48 150.231 243.495C151.963 243.65 153.401 245.227 154.731 246.155L154.747 246.124Z" fill="#141414"/>
<path d="M140.984 264.775C141.587 267.45 146.056 266.569 147.03 268.038C150.417 265.131 148.669 260.259 150.417 256.099C151.963 252.403 155.907 250.068 154.747 246.156C153.417 245.228 151.979 243.651 150.247 243.496L149.164 245.166C141.927 256.347 145.669 260.801 140.984 264.79V264.775Z" fill="#080808"/>
<path d="M142.994 228.712C142.205 228.773 141.417 228.542 140.628 228.495C142.128 232.253 135.68 232.887 133.267 235.578C136.066 237.403 139.654 237.201 142.484 238.47C142.484 238.47 142.484 238.47 142.499 238.47C143.891 235.392 143.102 231.975 142.994 228.681V228.712Z" fill="#0D0D0D"/>
<path d="M165.804 234.063C167.907 233.197 170.428 233.15 172.02 231.264H172.005C170.876 231.264 155.613 226.81 153.711 225.171C153.618 225.109 153.556 225.032 153.541 224.985C153.494 224.908 153.51 224.846 153.556 224.784C152.829 225.294 151.267 226.393 150.401 226.764C153.293 232.331 160.02 232.841 165.804 234.063Z" fill="#141414"/>
<path d="M145.391 229.47C145.499 230.954 147.556 231.372 149.304 232.207L162.263 238.547C162.85 237.233 163.809 235.377 165.139 234.434C165.371 234.341 165.603 234.202 165.804 234.063C160.02 232.841 153.293 232.331 150.402 226.764C148.901 227.413 146.953 227.614 145.499 228.635C145.407 228.944 145.36 229.207 145.391 229.454V229.47Z" fill="#0D0D0D"/>
<path d="M111.401 321.667C108.091 323.291 106.746 317.94 103.282 316.518C103.282 319.069 102.818 322.023 102.385 324.806H102.369C102.369 324.806 102.369 324.806 102.385 324.806C102.833 325.394 103.328 325.966 103.854 326.492C106.189 322.873 111.926 335.91 112.962 330.899C113.256 327.884 113.241 324.837 113.194 321.806C112.669 321.868 111.88 321.435 111.416 321.667H111.401Z" fill="#171717"/>
<path d="M191.907 361.673C190.005 361.256 188.258 360.019 186.448 359.756C185.845 359.663 185.242 359.678 184.608 359.864C183.356 361.782 180.68 362.895 179.582 365.029C182.273 365.261 185.644 368.215 189.201 365.91C190.315 364.333 191.799 363.096 193.237 361.828C192.789 361.828 192.356 361.781 191.923 361.673H191.907Z" fill="#232323"/>
<path d="M187.547 354.25L195.078 359.693C196.067 358.719 197.073 357.729 198.31 357.064L198.093 355.549L189.031 350.863C188.969 351.791 187.902 353.461 187.547 354.25Z" fill="#1A1A1A"/>
<path d="M184.979 359.138C184.886 359.401 184.747 359.633 184.608 359.865C185.242 359.679 185.845 359.663 186.448 359.756C188.258 360.019 190.005 361.256 191.907 361.674H191.923C192.356 361.782 192.789 361.828 193.237 361.828C193.933 361.21 194.413 360.344 195.077 359.694L187.546 354.251C185.907 355.303 185.722 357.483 184.979 359.138Z" fill="#1F1F1F"/>
<path d="M96.4004 321.9C97.019 321.683 97.5912 321.42 98.1169 321.111C98.1324 321.111 98.1479 321.111 98.1634 321.096C100.081 319.982 101.287 318.327 101.38 316.425C101.535 313.178 101.535 310.688 99.0603 309.312C90.8797 309.188 88.2199 317.755 83.6116 310.766L80.8899 309.637C79.096 310.997 80.7816 312.915 81.9105 314.338C84.926 314.894 86.7663 317.029 88.7148 319.085C90.555 321.018 94.3746 320.539 96.4004 321.9Z" fill="#262626"/>
<path d="M83.6114 310.766C84.0908 306.807 88.2506 304.966 90.1063 301.564C88.6217 299.075 86.3794 297.141 83.8588 295.719C81.0907 298.456 78.6009 301.58 78.8329 305.539C78.8484 305.74 78.8638 305.956 78.8947 306.173C79.6061 307.286 80.2866 308.43 80.8897 309.637L83.6114 310.766Z" fill="#2E2E2E"/>
<path d="M83.8589 295.719C83.2712 293.291 80.5495 292.07 79.266 290.152C79.1577 290.013 79.0804 289.874 79.0031 289.734C76.6525 293.075 75.1835 296.894 73.1267 300.42C74.1628 303.034 76.467 304.827 78.8948 306.173C78.8639 305.956 78.8485 305.74 78.833 305.539C78.6011 301.58 81.0908 298.456 83.8589 295.719Z" fill="#343434"/>
<path d="M102.385 324.806C102.818 322.023 103.282 319.069 103.282 316.517C106.746 317.94 108.091 323.291 111.401 321.667C111.555 320.785 110.999 319.734 111.246 318.883C108.725 315.187 104.442 312.605 104.241 308.027C104.086 304.362 103.885 300.713 104.38 297.032C104.426 296.584 104.133 296.089 104.133 295.641C99.6943 298.826 105.246 307.981 99.1839 307.718C99.0448 308.244 98.9984 308.785 99.0603 309.327C101.535 310.703 101.535 313.193 101.38 316.44C101.287 318.342 100.081 319.997 98.1633 321.11C98.1479 321.126 98.1324 321.126 98.1169 321.126C97.5911 321.435 97.019 321.698 96.4004 321.914C98.2406 323.136 99.7562 325.131 102.354 324.822H102.37L102.385 324.806Z" fill="#202020"/>
<path d="M199.531 350.864C199.005 349.72 197.815 348.745 196.191 347.74C195.186 347.106 193.949 345.606 192.541 345.436C191.876 345.359 191.165 345.591 190.423 346.364C190.16 347.817 189.108 349.348 189.031 350.864L198.093 355.55C198.619 355.147 198.897 354.421 199.439 354.05C199.964 352.797 199.949 351.776 199.531 350.864Z" fill="#151515"/>
<path d="M182.737 289.532C182.49 287.012 178.608 286.996 176.412 286.424C176.412 286.424 176.412 286.424 176.397 286.424C175.191 286.115 173.149 287.491 171.912 287.476C167.567 291.172 161.087 292.533 155.52 293.893C155.953 296.6 157.283 298.687 159.433 300.528C163.361 300.357 167.907 298.564 171.742 296.955C174.572 295.78 176.706 292.177 180.232 292.007C180.897 291.017 181.871 290.337 182.722 289.517L182.737 289.532Z" fill="#2F2F2F"/>
<path d="M182.737 289.533C183.588 288.729 185.273 289.007 186.062 288.327C187.763 286.888 189.186 285.079 190.33 283.192C185.969 280.131 197.567 274.795 201.495 269.507C201.681 267.543 204.99 265.455 202.933 263.661C194.83 271.795 186.17 280.1 176.443 286.409C178.639 286.981 182.521 286.981 182.768 289.517L182.737 289.533Z" fill="#292929"/>
<path d="M166.206 287.244C166.577 286.502 167.551 285.589 168.093 285.079C168.603 284.584 169.438 283.223 167.598 283.455C162.726 286.532 154.221 285.883 155.52 293.893C161.087 292.533 167.567 291.172 171.912 287.476C170.072 287.352 167.381 289.007 166.206 287.244Z" fill="#151515"/>
<path d="M190.33 283.192C189.201 285.079 187.763 286.888 186.062 288.326C188.15 291.171 191.66 292.393 195.557 293.568C197.707 298.826 196.206 303.945 193.655 308.182C195.681 306.759 199.129 306.728 199.624 303.357C202.299 295.486 198.897 288.063 192.325 283.269C191.846 282.914 190.887 283.285 190.33 283.207V283.192Z" fill="#0F0F0F"/>
<path d="M144.014 327.822L143.983 326.4C143.21 325.92 142.731 325.116 142.05 324.575C140.164 323.121 138.185 321.698 136.236 320.368L115.344 306.126C113.04 309.636 112.854 313.92 114.679 316.657C114.787 316.812 114.864 316.997 114.988 317.137C115.004 315.961 114.462 314.77 115.56 312.714C126.756 320.09 137.38 326.833 140.813 338.848C143.179 335.338 145.623 332.09 144.045 327.838L144.014 327.822Z" fill="#131313"/>
<path d="M148.7 311.044C148.577 313.394 149.025 315.513 148.453 319.054L144.68 316.286C144.711 319.611 143.891 322.997 143.984 326.369L144.015 327.807C146.071 331.147 146.195 335.168 147.123 338.91C147.386 337.704 147.339 335.601 149.025 335.075C149.721 334.874 150.417 334.905 150.912 334.828C151.237 334.781 151.484 334.673 151.577 334.425C151.87 333.668 152.087 332.91 152.01 332.415C149.504 322.534 150.154 311.817 150.324 301.703C147.587 303.868 148.87 307.904 148.7 311.028V311.044Z" fill="#040404"/>
<path d="M135.216 307.719L113.133 291.126L112.792 294.172C113.566 296.477 112.839 299.353 115.081 300.807L135.076 313.781C135.757 311.817 135.649 309.729 135.216 307.719Z" fill="#0C0C0C"/>
<path d="M112.793 294.157L113.133 291.111C113.241 290.074 113.086 288.976 113.303 287.971C113.566 286.719 113.968 285.59 114.014 283.997C114.014 283.858 114.014 283.719 113.999 283.595C113.875 282.543 113.164 281.817 111.617 282.234C108.432 285.311 104.581 287.971 104.071 292.58C106.22 294.729 108.602 296.616 111.061 298.41C110.705 296.894 111.849 295.193 112.793 294.157Z" fill="#343434"/>
<path d="M139.778 315.358C140.922 314.677 141.448 313.332 142.221 312.466L142.639 305.353C140.381 306.481 137.814 306.512 135.324 306.327L135.216 307.703C135.633 309.713 135.757 311.801 135.077 313.765C135.463 314.013 136.097 313.966 136.484 314.229C137.412 314.848 138.664 316.007 139.778 315.342V315.358Z" fill="#1E1E1E"/>
<path d="M109.947 304.379H109.931C107.859 304.178 106.081 298.564 104.38 297.018C103.885 300.698 104.086 304.332 104.241 308.013C106.947 307.641 108.54 311.925 111.107 309.946C110.983 307.873 111.633 305.755 111.339 303.636C110.859 304.208 110.395 304.425 109.947 304.379Z" fill="#292929"/>
<path d="M142.221 312.481C141.448 313.332 140.922 314.693 139.778 315.373C138.664 316.038 137.411 314.878 136.484 314.26C136.236 316.286 136.159 318.327 136.205 320.368C138.169 321.698 140.133 323.136 142.02 324.574C142.608 320.569 142.468 316.533 142.206 312.497L142.221 312.481Z" fill="#191919"/>
<path d="M104.38 297.033C106.081 298.579 107.86 304.193 109.932 304.394H109.947C110.396 304.44 110.86 304.224 111.339 303.652C111.092 301.935 111.463 300.172 111.061 298.425C108.602 296.631 106.22 294.744 104.071 292.595C103.947 293.6 104.194 294.636 104.133 295.641C104.133 296.09 104.426 296.584 104.38 297.033Z" fill="#313131"/>
<path d="M104.24 308.012C104.442 312.605 108.741 315.172 111.246 318.868C112.112 315.884 111.277 312.945 111.107 309.961C108.54 311.94 106.947 307.641 104.24 308.028V308.012Z" fill="#262626"/>
<path d="M156.958 278.197C156.479 275.537 153.958 273.187 151.747 270.929C150.587 269.754 148.206 269.769 147.03 268.022C146.056 266.553 141.587 267.434 140.984 264.759C139.345 264.109 136.731 264.063 135.046 263.181C134.056 262.671 132.602 262.656 131.705 261.944L127.113 264.882C127.113 264.882 127.113 264.898 127.113 264.913C127.004 265.439 127.422 266.166 127.205 266.661C132.896 265.609 135.958 272.135 139.592 274.285L154.902 283.331C155.211 282.914 156.185 282.419 156.247 281.893C156.355 281.058 156.603 280.47 156.974 280.022C157.098 279.403 157.082 278.8 156.974 278.213L156.958 278.197Z" fill="#383838"/>
<path d="M156.231 281.878C157.19 280.981 157.886 280.038 158.366 279.063C157.809 279.249 157.329 279.543 156.958 280.007C156.85 280.61 156.618 281.244 156.231 281.878Z" fill="#383838"/>
<path d="M78.2298 257.63C79.003 258.759 80.5958 258.45 82.2041 258.496L103.916 259.084C102.431 255.512 118.421 257.074 119.488 257.213C115.127 254.352 84.9103 248.692 80.7505 255.806L77.6731 255.759C77.6731 255.898 77.704 256.053 77.7349 256.192C77.8277 256.749 77.9824 257.29 78.2298 257.646V257.63Z" fill="#2F2F2F"/>
<path d="M103.931 259.084L127.097 264.883C127.097 264.883 127.097 264.883 127.097 264.898C127.097 264.898 127.097 264.883 127.097 264.867L131.69 261.929C128.318 259.207 123.818 257.738 119.488 257.182C118.421 257.042 102.431 255.496 103.916 259.053L103.931 259.084Z" fill="#343434"/>
<path d="M127.189 266.646C127.406 266.151 126.988 265.424 127.097 264.898C127.097 264.898 127.097 264.898 127.097 264.883L103.931 259.084L82.2194 258.496C80.6111 258.45 79.0183 258.759 78.2451 257.63C77.9976 257.275 77.843 256.733 77.7502 256.177C77.7193 256.037 77.7038 255.883 77.6884 255.744C74.9821 255.697 73.8377 258.898 71.9356 260.692C71.982 261.063 71.5336 262.038 72.3068 262.502C80.5492 260.352 91.2351 257.986 98.6888 262.084L107.039 266.661C115.668 268.857 124.05 271.579 132.03 275.553C136.267 271.239 125.55 270.466 127.205 266.646H127.189Z" fill="#212121"/>
<path d="M156.231 281.878C156.618 281.244 156.85 280.61 156.958 280.007C156.587 280.455 156.34 281.043 156.231 281.878Z" fill="#050505"/>
<path d="M177.294 261.558C173.799 258.357 169.793 256.223 167.211 252.496C166.097 251.599 163.901 251.46 162.572 250.98C146.35 262.548 160.283 267.419 151.747 270.929C153.958 273.187 156.479 275.538 156.958 278.198C157.066 278.785 157.082 279.388 156.958 280.007C157.329 279.543 157.809 279.249 158.365 279.064C159.865 278.507 161.814 278.646 163.051 277.811C169.082 273.713 173.041 267.249 178.577 262.826C181.716 260.336 178.685 257.661 177.943 255.867C177.912 255.79 177.881 255.713 177.866 255.635C177.788 257.336 178.623 259.006 177.294 261.558Z" fill="#050505"/>
<path d="M162.371 323.477C162.17 322.225 162.232 321.204 162.51 320.353C164.659 313.503 180.046 317.183 182.954 304.936C181.191 301.379 174.928 298.394 171.742 296.956C167.907 298.564 163.36 300.358 159.433 300.528C152.52 302.631 162.386 323.616 162.371 323.477Z" fill="#060606"/>
<path d="M113.999 283.594C114.014 283.718 114.014 283.857 114.014 283.996C113.968 285.589 113.566 286.718 113.303 287.97C120.215 290.692 127.499 294.527 132.989 300.435C134.148 301.672 132.417 306.574 135.262 305.043C135.278 305.043 135.293 305.027 135.308 305.012C136.267 300.311 135.942 295.362 137.752 290.893C136.499 287.939 134.489 286.254 130.947 285.326C121.344 282.821 115.174 278.816 111.617 282.233C113.164 281.816 113.875 282.542 113.999 283.594Z" fill="#070707"/>
<path d="M135.262 305.043C135.262 305.043 135.293 305.043 135.308 305.028C135.231 305.446 135.324 305.909 135.324 306.327C137.813 306.513 140.38 306.482 142.638 305.353C143.984 300.25 144.51 294.976 145.298 289.78L137.752 290.894C135.942 295.363 136.267 300.311 135.308 305.013C135.293 305.013 135.277 305.028 135.262 305.043Z" fill="#262626"/>
<path d="M181.191 328.132C181.995 325.472 182.119 322.627 182.536 319.92C182.598 319.549 182.66 319.193 182.722 318.822C176.907 319.874 170.954 323.214 164.644 325.209C164.49 326.554 165.556 327.343 165.665 328.07C170.783 330.173 176.211 330.652 181.191 328.132Z" fill="#353535"/>
<path d="M142.221 312.466V312.482C142.484 316.518 142.623 320.554 142.035 324.559C142.731 325.101 143.211 325.905 143.968 326.384C143.876 323.013 144.695 319.626 144.664 316.302C144.618 311.894 142.979 307.008 146.644 303.281C146.876 306.575 145.546 310.178 148.685 311.059C148.855 307.935 147.572 303.899 150.309 301.734C150.402 296.832 151.175 292.286 145.283 289.796C144.494 294.992 143.968 300.265 142.623 305.368L142.205 312.482L142.221 312.466Z" fill="#090909"/>
<path d="M99.0603 309.311C98.9985 308.77 99.0448 308.229 99.184 307.703C96.3076 305.429 93.5859 302.862 90.1065 301.563C88.2508 304.966 84.091 306.806 83.6116 310.765C88.2199 317.755 90.8797 309.187 99.0603 309.311Z" fill="#292929"/>
<path d="M127.19 266.646C125.535 270.466 136.252 271.239 132.014 275.553C135.587 277.332 138.479 280.177 142.314 281.523C141.943 278.925 140.705 276.605 139.576 274.27C135.942 272.12 132.88 265.594 127.19 266.646Z" fill="#262626"/>
<path d="M177.294 261.558C178.624 259.007 177.788 257.336 177.866 255.635C177.139 253.254 175.732 249.357 173.319 248.089C171.325 249.604 168.974 250.671 167.211 252.496C169.793 256.223 173.799 258.357 177.294 261.558Z" fill="#292929"/>
<path d="M142.314 281.522C144.37 282.249 145.097 286.27 147.912 285.837C150.525 285.435 153.309 285.512 154.886 283.316L139.576 274.27C140.705 276.605 141.942 278.924 142.314 281.522Z" fill="#292929"/>
<path d="M156.819 245.846C158.304 247.563 160.221 248.877 162.448 249.372C164.072 247.377 166.113 245.645 168.572 245.197C169.175 245.073 169.794 245.042 170.443 245.104C168.603 243.279 166.639 241.686 164.319 240.434C161.056 240.882 159.03 243.619 156.803 245.831L156.819 245.846Z" fill="#1B1B1B"/>
<path d="M187.376 324.869L190.485 324.467C191.521 323.771 192.433 322.054 193.608 321.652C192.402 319.255 192.325 316.301 190.608 314.198C189.835 315.404 186.448 314.709 186.186 316.92C187.562 318.142 188.211 320.09 188.134 321.992C188.103 323.013 187.856 324.003 187.392 324.869H187.376Z" fill="#282828"/>
<path d="M181.191 328.131C183.263 327.095 185.985 327.08 187.376 324.869C187.84 324.003 188.088 323.013 188.119 321.992C188.196 320.09 187.546 318.142 186.17 316.92L182.722 318.822C182.66 319.193 182.598 319.549 182.536 319.92C182.119 322.626 181.995 325.472 181.191 328.131Z" fill="#2F2F2F"/>
<path d="M168.587 245.213C166.129 245.661 164.087 247.393 162.464 249.388L162.587 250.981C163.917 251.46 166.113 251.599 167.227 252.496C168.989 250.671 171.34 249.604 173.335 248.089C172.484 247.517 171.278 245.893 170.474 245.12C169.824 245.058 169.206 245.089 168.603 245.213H168.587Z" fill="#232323"/>
<path d="M193.609 321.652C196.299 321.343 198.093 319.642 200.181 318.111C198.681 315.606 197.567 312.714 195.031 311.105C193.779 312.327 191.737 312.482 190.608 314.198C192.34 316.301 192.418 319.255 193.609 321.652Z" fill="#1F1F1F"/>
<path d="M195.557 293.569C191.66 292.409 188.15 291.187 186.062 288.326C185.258 289.007 183.588 288.728 182.737 289.532C181.887 290.336 180.913 291.032 180.248 292.022C182.165 294.883 185.969 295.965 189.109 298.471C191.66 300.512 191.706 305.754 189.619 307.842L183.773 313.703C188.011 313.007 190.717 310.254 193.67 308.182C196.222 303.945 197.722 298.842 195.573 293.569H195.557Z" fill="#0B0B0B"/>
<path d="M151.747 270.93C160.283 267.404 146.35 262.548 162.572 250.981L162.448 249.388C160.206 248.878 158.288 247.563 156.819 245.847L154.747 246.11C155.907 250.022 151.979 252.373 150.417 256.053C148.669 260.213 150.417 265.1 147.03 267.991C148.206 269.754 150.587 269.723 151.747 270.899V270.93Z" fill="#060606"/>
<path d="M148.7 311.059C145.561 310.177 146.907 306.574 146.659 303.28C142.994 307.023 144.633 311.894 144.68 316.301L148.453 319.069C149.025 315.528 148.577 313.409 148.7 311.059Z" fill="#050505"/>
<path d="M135.324 306.327C135.324 305.894 135.215 305.43 135.308 305.028C135.293 305.028 135.277 305.028 135.262 305.043C132.417 306.574 134.148 301.672 132.989 300.435C127.499 294.528 120.215 290.692 113.303 287.971C113.086 288.991 113.241 290.074 113.133 291.11L135.216 307.703C135.123 307.27 135.308 306.76 135.324 306.327Z" fill="#080808"/>
<path d="M1118.49 345.482L1118.28 289.733C1125.56 288.527 1131.95 290.491 1138.43 289.022C1145.48 287.429 1148.11 280.826 1148.03 274.95C1147.97 269.444 1146.17 263.181 1139.56 261.125C1133.01 259.099 1125.89 261.388 1118.59 260.135C1116.7 250.099 1121.32 236.475 1114.49 229.609C1109.06 224.15 1088.63 224.722 1088.65 235.732L1088.8 347.848C1088.83 366.622 1100.88 382.704 1118.71 387.266C1125.11 388.906 1132.16 387.947 1138.43 387.56C1145.18 387.143 1147.86 381.359 1148.09 375.668C1149.13 349.905 1118.59 370.596 1118.49 345.482Z" fill="black"/>
<path d="M1009.08 259.981C972.294 258.094 943.67 283.394 942.325 320.43C941.613 339.977 947.165 359.199 962.521 372.375C990.527 396.406 1042.81 391.891 1062.65 364.797C1067.32 358.411 1060.95 350.075 1056.61 347.508C1040.26 337.828 1034.69 359.045 1012.44 361.472C996.14 363.251 981.418 353.524 976.099 339.08L1055.12 338.307C1062.22 338.245 1066.67 327.884 1067.14 321.59C1069.67 287.229 1042.55 261.697 1009.08 259.981ZM976.315 310.533C979.454 293.631 993.248 285.559 1008.76 286.966C1021.69 288.141 1032.82 295.626 1033.66 310.796L976.315 310.533Z" fill="black"/>
</svg>
