<svg width="1200" height="600" viewBox="0 0 1200 600" fill="none" xmlns="http://www.w3.org/2000/svg">
<path d="M672.808 161.049C669.106 160.706 666.228 163.197 665.679 167.173V395.864L609.338 395.933L565.06 335.315L520.393 273.853C518.382 271.408 515.458 270.699 512.67 271.728C509.952 272.756 508.444 275.566 508.604 278.994V395.91H459.985L459.916 225.802L545.913 225.665L598.279 297.684C600.13 300.243 602.849 301.294 605.659 300.494C608.287 299.763 610.457 297.455 610.434 294.096V167.287C610.434 163.38 607.053 160.843 603.832 161.026C600.267 161.209 597.64 163.882 597.64 167.789L597.548 274.858L555.783 217.188C554.23 215.04 552.882 213.304 550.094 212.915L459.893 212.641L459.985 173.89L514.704 173.821C518.359 173.821 521.101 171.217 521.512 167.721V116.266C521.49 112.29 518.839 109 514.681 109H453.953C449.749 109.137 447.053 112.199 447.053 116.312L446.961 161.003H271.539C267.29 161.026 264.754 164.294 264.754 168.384V401.987C264.754 406.123 267.678 408.705 271.174 408.751C274.761 408.819 277.571 406.054 277.571 401.987L277.64 173.936L447.03 173.89L446.847 212.71L344.011 212.938C340.516 212.938 338.048 216.343 338.025 219.633L337.98 259.481C338.482 262.954 340.812 265.376 344.377 265.604L392.882 265.673V301.225L344.857 301.271C341.064 301.339 338.391 303.876 337.98 307.646L338.048 402.81C338.071 406.557 341.498 408.865 344.56 408.819C347.781 408.773 350.683 406.192 350.683 402.467L350.751 314.18H399.096C402.98 314.18 405.562 311.141 405.631 307.326L405.493 258.772C405.47 255.3 402.363 252.809 399.119 252.763H350.774V225.688L446.824 225.756L447.19 403.29C447.213 406.923 450.983 408.796 453.884 408.796H515.823C518.794 408.339 521.444 405.94 521.444 402.559L521.558 297.295L577.877 374.546L601.296 406.489C602.575 407.882 604.151 408.819 606.253 408.819L673.082 408.728C676.12 408.728 678.428 405.575 678.428 402.49L678.474 167.835C678.474 164.019 675.938 161.323 672.808 161.049ZM459.939 121.864H508.649V161.003H459.939V121.864Z" fill="white"/>
<path d="M580.139 115.809C579.934 112.496 582.47 109.046 586.582 109.023H721.222C725.152 109 728.51 111.536 728.51 115.809V402.216C728.533 406.58 725.243 408.774 722.136 408.796C718.754 408.796 715.761 406.032 715.761 401.942L715.67 121.91H587.153C583.155 121.887 580.391 119.579 580.139 115.809Z" fill="white"/>
<path d="M455.37 445.034C453.199 444.326 450.891 444.646 448.607 444.851C448.332 447.707 448.424 450.106 448.561 453.145C450.663 453.397 453.016 453.648 455.37 453.054C457.403 452.528 457.929 450.495 457.951 448.941C457.997 447.365 457.22 445.651 455.37 445.034ZM455.37 445.034C453.199 444.326 450.891 444.646 448.607 444.851C448.332 447.707 448.424 450.106 448.561 453.145C450.663 453.397 453.016 453.648 455.37 453.054C457.403 452.528 457.929 450.495 457.951 448.941C457.997 447.365 457.22 445.651 455.37 445.034ZM455.37 445.034C453.199 444.326 450.891 444.646 448.607 444.851C448.332 447.707 448.424 450.106 448.561 453.145C450.663 453.397 453.016 453.648 455.37 453.054C457.403 452.528 457.929 450.495 457.951 448.941C457.997 447.365 457.22 445.651 455.37 445.034ZM455.37 445.034C453.199 444.326 450.891 444.646 448.607 444.851C448.332 447.707 448.424 450.106 448.561 453.145C450.663 453.397 453.016 453.648 455.37 453.054C457.403 452.528 457.929 450.495 457.951 448.941C457.997 447.365 457.22 445.651 455.37 445.034ZM455.37 445.034C453.199 444.326 450.891 444.646 448.607 444.851C448.332 447.707 448.424 450.106 448.561 453.145C450.663 453.397 453.016 453.648 455.37 453.054C457.403 452.528 457.929 450.495 457.951 448.941C457.997 447.365 457.22 445.651 455.37 445.034ZM455.37 445.034C453.199 444.326 450.891 444.646 448.607 444.851C448.332 447.707 448.424 450.106 448.561 453.145C450.663 453.397 453.016 453.648 455.37 453.054C457.403 452.528 457.929 450.495 457.951 448.941C457.997 447.365 457.22 445.651 455.37 445.034ZM455.37 445.034C453.199 444.326 450.891 444.646 448.607 444.851C448.332 447.707 448.424 450.106 448.561 453.145C450.663 453.397 453.016 453.648 455.37 453.054C457.403 452.528 457.929 450.495 457.951 448.941C457.997 447.365 457.22 445.651 455.37 445.034ZM455.37 445.034C453.199 444.326 450.891 444.646 448.607 444.851C448.332 447.707 448.424 450.106 448.561 453.145C450.663 453.397 453.016 453.648 455.37 453.054C457.403 452.528 457.929 450.495 457.951 448.941C457.997 447.365 457.22 445.651 455.37 445.034ZM455.37 445.034C453.199 444.326 450.891 444.646 448.607 444.851C448.332 447.707 448.424 450.106 448.561 453.145C450.663 453.397 453.016 453.648 455.37 453.054C457.403 452.528 457.929 450.495 457.951 448.941C457.997 447.365 457.22 445.651 455.37 445.034ZM455.37 445.034C453.199 444.326 450.891 444.646 448.607 444.851C448.332 447.707 448.424 450.106 448.561 453.145C450.663 453.397 453.016 453.648 455.37 453.054C457.403 452.528 457.929 450.495 457.951 448.941C457.997 447.365 457.22 445.651 455.37 445.034ZM455.37 445.034C453.199 444.326 450.891 444.646 448.607 444.851C448.332 447.707 448.424 450.106 448.561 453.145C450.663 453.397 453.016 453.648 455.37 453.054C457.403 452.528 457.929 450.495 457.951 448.941C457.997 447.365 457.22 445.651 455.37 445.034ZM455.37 445.034C453.199 444.326 450.891 444.646 448.607 444.851C448.332 447.707 448.424 450.106 448.561 453.145C450.663 453.397 453.016 453.648 455.37 453.054C457.403 452.528 457.929 450.495 457.951 448.941C457.997 447.365 457.22 445.651 455.37 445.034ZM455.37 445.034C453.199 444.326 450.891 444.646 448.607 444.851C448.332 447.707 448.424 450.106 448.561 453.145C450.663 453.397 453.016 453.648 455.37 453.054C457.403 452.528 457.929 450.495 457.951 448.941C457.997 447.365 457.22 445.651 455.37 445.034ZM455.37 445.034C453.199 444.326 450.891 444.646 448.607 444.851C448.332 447.707 448.424 450.106 448.561 453.145C450.663 453.397 453.016 453.648 455.37 453.054C457.403 452.528 457.929 450.495 457.951 448.941C457.997 447.365 457.22 445.651 455.37 445.034ZM455.37 445.034C453.199 444.326 450.891 444.646 448.607 444.851C448.332 447.707 448.424 450.106 448.561 453.145C450.663 453.397 453.016 453.648 455.37 453.054C457.403 452.528 457.929 450.495 457.951 448.941C457.997 447.365 457.22 445.651 455.37 445.034ZM455.37 445.034C453.199 444.326 450.891 444.646 448.607 444.851C448.332 447.707 448.424 450.106 448.561 453.145C450.663 453.397 453.016 453.648 455.37 453.054C457.403 452.528 457.929 450.495 457.951 448.941C457.997 447.365 457.22 445.651 455.37 445.034ZM455.37 445.034C453.199 444.326 450.891 444.646 448.607 444.851C448.332 447.707 448.424 450.106 448.561 453.145C450.663 453.397 453.016 453.648 455.37 453.054C457.403 452.528 457.929 450.495 457.951 448.941C457.997 447.365 457.22 445.651 455.37 445.034ZM455.37 445.034C453.199 444.326 450.891 444.646 448.607 444.851C448.332 447.707 448.424 450.106 448.561 453.145C450.663 453.397 453.016 453.648 455.37 453.054C457.403 452.528 457.929 450.495 457.951 448.941C457.997 447.365 457.22 445.651 455.37 445.034ZM455.37 445.034C453.199 444.326 450.891 444.646 448.607 444.851C448.332 447.707 448.424 450.106 448.561 453.145C450.663 453.397 453.016 453.648 455.37 453.054C457.403 452.528 457.929 450.495 457.951 448.941C457.997 447.365 457.22 445.651 455.37 445.034ZM455.37 445.034C453.199 444.326 450.891 444.646 448.607 444.851C448.332 447.707 448.424 450.106 448.561 453.145C450.663 453.397 453.016 453.648 455.37 453.054C457.403 452.528 457.929 450.495 457.951 448.941C457.997 447.365 457.22 445.651 455.37 445.034ZM932.606 422.46H264V490H932.628L932.606 422.46ZM314.173 444.805L305.651 444.897L305.696 451.683C308.918 452.368 316.023 450.335 316.48 454.425C316.686 456.253 315.772 457.921 313.624 458.058C310.928 458.241 308.324 457.898 305.674 458.218L305.559 468.934C305.536 471.081 303.64 471.95 301.858 471.858C300.19 471.767 298.705 470.487 298.682 468.385V442.087C298.682 440.053 300.099 438.682 302.109 438.682H314.196C316.298 438.682 317.76 439.939 317.691 441.79C317.646 443.617 316.298 444.783 314.173 444.805ZM356.532 458.994C356.532 467.334 349.586 472.498 341.612 472.087C334.256 471.698 328.452 466.694 328.452 458.994V442.109C328.43 439.893 329.663 438.545 331.491 438.454C333.661 438.339 335.238 439.665 335.238 442.064V458.378C335.261 462.742 338.414 465.872 342.389 465.826C346.822 465.781 349.723 462.559 349.723 457.966L349.678 442.041C349.678 439.756 350.957 438.499 352.876 438.362C354.727 438.248 356.6 439.23 356.578 441.812L356.532 458.994ZM388.016 444.76L382.235 445.011L382.075 468.659C382.052 470.784 380.43 471.653 379.082 471.813C377.574 471.995 375.244 471.401 375.244 469.413L375.038 444.92C372.022 444.417 366.607 446.154 366.607 441.812C366.607 439.87 367.887 438.659 370.057 438.659H387.056C389.089 438.659 390.597 439.413 390.734 441.287C390.871 442.886 390.049 444.691 388.016 444.76ZM428.821 459.543C428.752 467.54 422.058 472.315 414.496 472.132C406.613 471.927 400.65 466.603 400.81 458.469C400.924 452.528 400.582 446.565 401.016 440.624C401.13 438.933 403.095 438.362 404.306 438.408C405.402 438.454 407.527 438.911 407.55 440.601L407.733 458.492C407.778 462.833 410.589 465.872 414.77 465.963C418.425 466.032 422.012 463.267 422.081 459.017L422.309 441.035C422.332 439.139 424.389 438.362 425.714 438.431C427.633 438.545 428.958 439.939 428.958 442.064L428.821 459.543ZM464.348 470.944C463.229 471.835 460.83 472.521 459.619 471.081L448.584 457.943L448.401 468.956C448.378 470.807 446.756 471.653 445.362 471.767C443.695 471.881 441.684 471.036 441.684 468.934L441.593 442.064C441.593 440.259 442.758 438.819 444.608 438.728C448.447 438.568 452.262 438.476 456.055 438.774C461.538 439.185 465.194 443.298 465.148 448.69C465.08 453.511 461.812 456.801 456.946 457.784L464.737 466.763C465.879 468.088 465.377 470.122 464.348 470.944ZM492.794 471.561L479.748 471.47C478.034 471.447 476.8 470.122 476.8 468.385V442.064C476.8 440.122 478.286 438.728 480.205 438.705L492.268 438.636C494.438 438.614 495.764 439.779 495.718 441.79C495.695 443.572 494.438 444.737 492.268 444.76L483.86 444.874C483.609 447.067 483.655 449.33 483.792 451.683L491.72 451.889C493.593 451.934 494.827 453.328 494.804 454.95C494.804 456.618 493.684 458.035 491.742 458.058L483.883 458.149C483.677 460.662 483.655 462.902 483.86 465.369L493.388 465.484C495.353 465.484 496.106 466.991 496.061 468.614C496.038 470.236 494.781 471.584 492.794 471.561ZM533.051 471.767C531.177 472.041 529.007 471.196 529.007 468.934L528.938 442.109C528.938 439.893 530.217 438.499 532.045 438.362C534.147 438.202 535.838 439.482 535.838 441.881L535.884 467.997C535.884 470.259 534.604 471.538 533.051 471.767ZM577.306 469.185C577.306 470.853 575.912 471.698 574.998 471.881C573.902 472.064 572.142 472.018 571.274 470.899L555.875 450.952L555.624 469.413C555.601 471.196 553.567 471.813 552.242 471.835C550.986 471.858 548.929 471.059 548.929 469.276L548.884 441.195C548.884 439.665 550.232 438.545 551.306 438.454C552.471 438.316 554.185 438.408 555.076 439.596L570.315 459.543L570.52 442.064C570.543 439.847 571.754 438.476 573.673 438.362C575.729 438.248 577.329 439.71 577.329 442.087V469.185H577.306ZM608.858 444.737L603.055 444.897V468.111C603.032 470.67 601.41 471.904 599.399 471.858C597.526 471.835 596.018 470.602 595.995 468.362L595.927 444.988C592.614 444.417 587.45 446.199 587.359 441.812C587.336 439.824 588.707 438.636 590.9 438.636H608.447C610.298 438.659 611.508 439.756 611.668 441.31C611.874 443 610.869 444.691 608.858 444.737ZM637.486 471.561L624.966 471.515C623.161 471.515 621.744 470.122 621.744 468.271V442.087C621.767 440.259 623.001 438.728 624.92 438.705L637.486 438.659C639.474 438.659 640.616 440.122 640.57 441.79C640.479 446.519 632.597 444.12 628.895 444.851C628.758 447.296 628.69 449.421 628.941 451.729L636.366 451.843C638.423 451.866 639.679 453.191 639.656 454.95C639.611 456.664 638.423 458.058 636.389 458.058L628.918 458.103C628.667 460.617 628.69 462.924 628.964 465.392H637.486C639.656 465.369 640.936 466.603 640.959 468.614C640.959 470.327 639.588 471.584 637.486 471.561ZM668.124 471.561L655.649 471.493C653.867 471.493 652.451 470.213 652.451 468.362L652.565 441.333C652.565 439.185 654.599 438.225 656.221 438.408C658.094 438.614 659.396 439.962 659.396 442.087L659.511 465.141C663.441 466.192 671.254 463.427 671.506 468.111C671.62 470.053 670.363 471.561 668.124 471.561ZM697.483 471.584H685.168C682.907 471.561 681.467 470.007 681.467 467.791L681.513 442.132C681.513 439.71 682.884 438.362 684.871 438.362C687.385 438.362 688.504 440.053 688.504 442.589L688.573 465.278C693.462 466.146 699.973 463.564 700.545 468.111C700.75 469.71 699.859 471.584 697.483 471.584ZM714.459 471.79C712.037 471.927 710.62 470.373 710.62 467.814V442.087C710.643 439.825 711.945 438.476 713.933 438.339C716.012 438.202 717.566 439.619 717.566 442.064L717.612 467.54C717.612 470.19 716.423 471.653 714.459 471.79ZM756.269 468.02C753.162 471.127 748.867 472.315 744.366 472.064C738.38 471.744 733.331 468.637 730.886 463.039C727.802 455.933 728.853 447.227 734.907 441.949C741.19 436.443 751.106 436.786 757.206 442.132C758.6 443.343 758.349 445.674 757.503 446.725C756.407 448.073 754.259 447.981 752.683 446.771C748.913 443.869 743.155 442.932 739.591 446.725C735.478 451.066 735.547 458.469 739.134 463.062C741.35 465.895 744.731 466.489 747.976 465.758C750.877 465.118 753.254 462.582 753.642 458.972C751.38 457.761 745.6 460.228 745.417 455.476C745.348 453.397 746.971 452.231 749.255 452.254L756.955 452.3C758.074 452.3 759.08 452.528 759.765 453.214C761.593 455.11 760.679 463.656 756.269 468.02ZM788.141 471.561H775.553C773.816 471.516 772.24 470.167 772.24 468.294L772.194 442.041C772.171 440.122 773.656 438.728 775.553 438.705C779.802 438.659 783.915 438.545 788.141 438.705C790.106 438.796 791.135 440.259 791.135 441.79C791.135 443.709 789.718 444.874 787.616 444.851H779.345C778.98 447.182 779.117 449.33 779.185 451.66C782.658 452.505 790.312 450.061 790.266 454.95C790.243 456.687 789.124 458.081 787.068 458.081H779.391C778.911 460.411 779.14 462.65 779.254 465.232C783.412 466.192 791.5 463.313 791.454 468.705C791.432 470.259 790.175 471.561 788.141 471.561ZM828.741 471.881C827.485 472.132 825.817 471.744 824.88 470.487L809.984 450.997C809.412 456.847 809.938 462.513 809.709 468.385C809.641 470.556 808.453 471.79 806.511 471.881C804.957 471.95 802.878 471.059 802.901 468.911L802.992 440.556C803.015 439.025 805.071 438.385 806.008 438.362C807.288 438.294 808.75 439.048 809.687 440.304L824.309 459.794L824.514 441.63C824.537 439.55 826.068 438.339 827.896 438.294C829.564 438.271 831.255 439.55 831.255 441.652L831.3 469.025C831.3 470.739 829.769 471.698 828.741 471.881ZM867.97 469.985C862.258 473.046 854.467 473.069 849.121 468.774C840.896 462.148 840.645 449.238 848.344 442.132C853.668 437.243 861.596 436.923 867.696 440.259C869.478 441.218 869.455 443.503 868.77 444.714C867.833 446.336 865.8 446.359 864.063 445.582C860.065 443.777 855.153 443.937 852.366 447.73C849.487 451.66 849.235 457.555 851.977 461.851C854.879 466.42 860.431 466.557 864.612 464.318C866.302 463.427 868.313 463.747 869.25 465.369C869.912 466.512 869.889 468.956 867.97 469.985ZM897.215 471.607L884.694 471.47C882.547 471.447 881.382 469.893 881.382 467.837V442.109C881.359 440.213 882.661 438.728 884.58 438.728L896.666 438.614C898.791 438.591 900.254 439.802 900.231 441.79C900.231 443.503 898.746 444.874 896.689 444.874H888.51C888.122 447.227 888.167 449.444 888.441 451.729L896.141 451.889C898.174 451.934 899.363 453.282 899.363 454.95C899.385 456.71 898.083 458.035 896.095 458.058L888.464 458.103C888.144 460.48 888.259 462.696 888.373 465.278C892.76 466.26 900.642 463.153 900.596 468.637C900.574 470.419 899.226 471.63 897.215 471.607ZM455.37 445.034C453.199 444.326 450.891 444.646 448.607 444.851C448.332 447.707 448.424 450.106 448.561 453.145C450.663 453.397 453.016 453.648 455.37 453.054C457.403 452.528 457.929 450.495 457.951 448.941C457.997 447.365 457.22 445.651 455.37 445.034ZM455.37 445.034C453.199 444.326 450.891 444.646 448.607 444.851C448.332 447.707 448.424 450.106 448.561 453.145C450.663 453.397 453.016 453.648 455.37 453.054C457.403 452.528 457.929 450.495 457.951 448.941C457.997 447.365 457.22 445.651 455.37 445.034ZM455.37 445.034C453.199 444.326 450.891 444.646 448.607 444.851C448.332 447.707 448.424 450.106 448.561 453.145C450.663 453.397 453.016 453.648 455.37 453.054C457.403 452.528 457.929 450.495 457.951 448.941C457.997 447.365 457.22 445.651 455.37 445.034ZM455.37 445.034C453.199 444.326 450.891 444.646 448.607 444.851C448.332 447.707 448.424 450.106 448.561 453.145C450.663 453.397 453.016 453.648 455.37 453.054C457.403 452.528 457.929 450.495 457.951 448.941C457.997 447.365 457.22 445.651 455.37 445.034ZM455.37 445.034C453.199 444.326 450.891 444.646 448.607 444.851C448.332 447.707 448.424 450.106 448.561 453.145C450.663 453.397 453.016 453.648 455.37 453.054C457.403 452.528 457.929 450.495 457.951 448.941C457.997 447.365 457.22 445.651 455.37 445.034ZM455.37 445.034C453.199 444.326 450.891 444.646 448.607 444.851C448.332 447.707 448.424 450.106 448.561 453.145C450.663 453.397 453.016 453.648 455.37 453.054C457.403 452.528 457.929 450.495 457.951 448.941C457.997 447.365 457.22 445.651 455.37 445.034ZM455.37 445.034C453.199 444.326 450.891 444.646 448.607 444.851C448.332 447.707 448.424 450.106 448.561 453.145C450.663 453.397 453.016 453.648 455.37 453.054C457.403 452.528 457.929 450.495 457.951 448.941C457.997 447.365 457.22 445.651 455.37 445.034ZM455.37 445.034C453.199 444.326 450.891 444.646 448.607 444.851C448.332 447.707 448.424 450.106 448.561 453.145C450.663 453.397 453.016 453.648 455.37 453.054C457.403 452.528 457.929 450.495 457.951 448.941C457.997 447.365 457.22 445.651 455.37 445.034ZM455.37 445.034C453.199 444.326 450.891 444.646 448.607 444.851C448.332 447.707 448.424 450.106 448.561 453.145C450.663 453.397 453.016 453.648 455.37 453.054C457.403 452.528 457.929 450.495 457.951 448.941C457.997 447.365 457.22 445.651 455.37 445.034ZM455.37 445.034C453.199 444.326 450.891 444.646 448.607 444.851C448.332 447.707 448.424 450.106 448.561 453.145C450.663 453.397 453.016 453.648 455.37 453.054C457.403 452.528 457.929 450.495 457.951 448.941C457.997 447.365 457.22 445.651 455.37 445.034ZM455.37 445.034C453.199 444.326 450.891 444.646 448.607 444.851C448.332 447.707 448.424 450.106 448.561 453.145C450.663 453.397 453.016 453.648 455.37 453.054C457.403 452.528 457.929 450.495 457.951 448.941C457.997 447.365 457.22 445.651 455.37 445.034ZM455.37 445.034C453.199 444.326 450.891 444.646 448.607 444.851C448.332 447.707 448.424 450.106 448.561 453.145C450.663 453.397 453.016 453.648 455.37 453.054C457.403 452.528 457.929 450.495 457.951 448.941C457.997 447.365 457.22 445.651 455.37 445.034ZM455.37 445.034C453.199 444.326 450.891 444.646 448.607 444.851C448.332 447.707 448.424 450.106 448.561 453.145C450.663 453.397 453.016 453.648 455.37 453.054C457.403 452.528 457.929 450.495 457.951 448.941C457.997 447.365 457.22 445.651 455.37 445.034ZM455.37 445.034C453.199 444.326 450.891 444.646 448.607 444.851C448.332 447.707 448.424 450.106 448.561 453.145C450.663 453.397 453.016 453.648 455.37 453.054C457.403 452.528 457.929 450.495 457.951 448.941C457.997 447.365 457.22 445.651 455.37 445.034ZM455.37 445.034C453.199 444.326 450.891 444.646 448.607 444.851C448.332 447.707 448.424 450.106 448.561 453.145C450.663 453.397 453.016 453.648 455.37 453.054C457.403 452.528 457.929 450.495 457.951 448.941C457.997 447.365 457.22 445.651 455.37 445.034ZM455.37 445.034C453.199 444.326 450.891 444.646 448.607 444.851C448.332 447.707 448.424 450.106 448.561 453.145C450.663 453.397 453.016 453.648 455.37 453.054C457.403 452.528 457.929 450.495 457.951 448.941C457.997 447.365 457.22 445.651 455.37 445.034ZM455.37 445.034C453.199 444.326 450.891 444.646 448.607 444.851C448.332 447.707 448.424 450.106 448.561 453.145C450.663 453.397 453.016 453.648 455.37 453.054C457.403 452.528 457.929 450.495 457.951 448.941C457.997 447.365 457.22 445.651 455.37 445.034ZM455.37 445.034C453.199 444.326 450.891 444.646 448.607 444.851C448.332 447.707 448.424 450.106 448.561 453.145C450.663 453.397 453.016 453.648 455.37 453.054C457.403 452.528 457.929 450.495 457.951 448.941C457.997 447.365 457.22 445.651 455.37 445.034ZM455.37 445.034C453.199 444.326 450.891 444.646 448.607 444.851C448.332 447.707 448.424 450.106 448.561 453.145C450.663 453.397 453.016 453.648 455.37 453.054C457.403 452.528 457.929 450.495 457.951 448.941C457.997 447.365 457.22 445.651 455.37 445.034ZM455.37 445.034C453.199 444.326 450.891 444.646 448.607 444.851C448.332 447.707 448.424 450.106 448.561 453.145C450.663 453.397 453.016 453.648 455.37 453.054C457.403 452.528 457.929 450.495 457.951 448.941C457.997 447.365 457.22 445.651 455.37 445.034ZM455.37 445.034C453.199 444.326 450.891 444.646 448.607 444.851C448.332 447.707 448.424 450.106 448.561 453.145C450.663 453.397 453.016 453.648 455.37 453.054C457.403 452.528 457.929 450.495 457.951 448.941C457.997 447.365 457.22 445.651 455.37 445.034Z" fill="white"/>
<path d="M934.982 166.944C935.233 170.257 932.903 173.844 928.927 173.844L799.862 173.936V401.965C799.862 406.214 797.075 408.819 793.374 408.773C789.741 408.705 787.068 406.26 787.068 401.987V167.858C787.09 163.585 790.175 161.003 794.242 161.003H928.356C932.126 161.003 934.73 163.7 934.982 166.944Z" fill="white"/>
<path d="M678.474 167.835L678.428 402.49C678.428 405.575 676.12 408.728 673.082 408.728L606.253 408.819C604.151 408.819 602.575 407.882 601.296 406.489L577.877 374.546L521.558 297.295L521.444 402.559C521.444 405.94 518.794 408.339 515.824 408.773H453.884C450.983 408.796 447.213 406.923 447.19 403.29L446.824 225.756C447.19 225.254 447.624 224.728 448.241 224.568C449.658 224.157 456.535 224.431 458.294 224.705L459.916 225.802L459.985 395.91H508.604V278.994C508.444 275.566 509.952 272.756 512.67 271.728C515.458 270.699 518.382 271.408 520.393 273.853L565.06 335.315L609.338 395.933L665.657 395.864V167.172C666.228 163.197 669.106 160.706 672.808 161.049C675.938 161.323 678.474 164.019 678.474 167.835Z" fill="white"/>
<path d="M610.434 167.287V294.096C610.457 297.455 608.287 299.763 605.659 300.494C602.849 301.294 600.13 300.243 598.279 297.684L545.913 225.665L459.916 225.802C455.255 225.802 451.028 225.345 446.824 225.756L350.774 225.688L350.775 252.741H399.12C402.364 252.809 405.47 255.3 405.493 258.772L405.631 307.326C405.562 311.141 402.981 314.158 399.097 314.158H350.752L350.683 402.467C350.683 406.192 347.781 408.773 344.56 408.819C341.498 408.865 338.071 406.557 338.048 402.81L337.98 307.646C338.391 303.876 341.064 301.339 344.857 301.271L392.905 301.225V265.673L344.377 265.604C340.812 265.376 338.482 262.954 337.98 259.481L338.025 219.633C338.048 216.343 340.516 212.938 344.011 212.938L446.847 212.71C450.457 211.202 456.215 211.293 459.893 212.641L550.094 212.915C552.882 213.304 554.23 215.04 555.783 217.188L597.548 274.858L597.64 167.789C597.64 163.882 600.267 161.209 603.832 161.026C607.053 160.843 610.434 163.38 610.434 167.287Z" fill="white"/>
<path d="M728.533 402.216C728.533 406.58 725.243 408.774 722.136 408.796C718.754 408.796 715.761 406.032 715.761 401.942L715.67 121.91H587.153C583.155 121.887 580.391 119.579 580.139 115.809C579.934 112.496 582.47 109.046 586.582 109.023H721.222C725.152 109 728.51 111.536 728.51 115.809V402.216H728.533Z" fill="white"/>
<path d="M934.982 166.944C935.233 170.257 932.903 173.844 928.927 173.844L799.862 173.936V401.965C799.862 406.214 797.075 408.819 793.374 408.773C789.741 408.705 787.068 406.26 787.068 401.987V167.858C787.09 163.585 790.175 161.003 794.242 161.003H928.356C932.126 161.003 934.73 163.7 934.982 166.944Z" fill="white"/>
<path d="M521.49 116.266C521.49 112.29 518.839 109 514.681 109H453.953C449.749 109.137 447.053 112.199 447.053 116.312L446.961 161.003H271.539C267.29 161.026 264.754 164.294 264.754 168.384V401.987C264.754 406.123 267.678 408.705 271.174 408.751C274.761 408.819 277.571 406.054 277.571 401.987L277.64 173.936L447.03 173.89L446.847 212.71C451.188 212.915 455.575 213.052 459.893 212.641L459.985 173.89L514.704 173.821C518.359 173.821 521.101 171.217 521.512 167.721V116.266H521.49ZM508.649 161.003H459.939V121.864H508.649V161.003Z" fill="white"/>
<path d="M455.37 445.034C453.199 444.326 450.891 444.646 448.607 444.851C448.332 447.707 448.424 450.106 448.561 453.145C450.663 453.397 453.016 453.648 455.37 453.054C457.403 452.528 457.929 450.495 457.951 448.941C457.997 447.365 457.22 445.651 455.37 445.034ZM455.37 445.034C453.199 444.326 450.891 444.646 448.607 444.851C448.332 447.707 448.424 450.106 448.561 453.145C450.663 453.397 453.016 453.648 455.37 453.054C457.403 452.528 457.929 450.495 457.951 448.941C457.997 447.365 457.22 445.651 455.37 445.034ZM455.37 445.034C453.199 444.326 450.891 444.646 448.607 444.851C448.332 447.707 448.424 450.106 448.561 453.145C450.663 453.397 453.016 453.648 455.37 453.054C457.403 452.528 457.929 450.495 457.951 448.941C457.997 447.365 457.22 445.651 455.37 445.034ZM455.37 445.034C453.199 444.326 450.891 444.646 448.607 444.851C448.332 447.707 448.424 450.106 448.561 453.145C450.663 453.397 453.016 453.648 455.37 453.054C457.403 452.528 457.929 450.495 457.951 448.941C457.997 447.365 457.22 445.651 455.37 445.034ZM455.37 445.034C453.199 444.326 450.891 444.646 448.607 444.851C448.332 447.707 448.424 450.106 448.561 453.145C450.663 453.397 453.016 453.648 455.37 453.054C457.403 452.528 457.929 450.495 457.951 448.941C457.997 447.365 457.22 445.651 455.37 445.034ZM455.37 445.034C453.199 444.326 450.891 444.646 448.607 444.851C448.332 447.707 448.424 450.106 448.561 453.145C450.663 453.397 453.016 453.648 455.37 453.054C457.403 452.528 457.929 450.495 457.951 448.941C457.997 447.365 457.22 445.651 455.37 445.034ZM455.37 445.034C453.199 444.326 450.891 444.646 448.607 444.851C448.332 447.707 448.424 450.106 448.561 453.145C450.663 453.397 453.016 453.648 455.37 453.054C457.403 452.528 457.929 450.495 457.951 448.941C457.997 447.365 457.22 445.651 455.37 445.034ZM455.37 445.034C453.199 444.326 450.891 444.646 448.607 444.851C448.332 447.707 448.424 450.106 448.561 453.145C450.663 453.397 453.016 453.648 455.37 453.054C457.403 452.528 457.929 450.495 457.951 448.941C457.997 447.365 457.22 445.651 455.37 445.034ZM455.37 445.034C453.199 444.326 450.891 444.646 448.607 444.851C448.332 447.707 448.424 450.106 448.561 453.145C450.663 453.397 453.016 453.648 455.37 453.054C457.403 452.528 457.929 450.495 457.951 448.941C457.997 447.365 457.22 445.651 455.37 445.034ZM455.37 445.034C453.199 444.326 450.891 444.646 448.607 444.851C448.332 447.707 448.424 450.106 448.561 453.145C450.663 453.397 453.016 453.648 455.37 453.054C457.403 452.528 457.929 450.495 457.951 448.941C457.997 447.365 457.22 445.651 455.37 445.034ZM455.37 445.034C453.199 444.326 450.891 444.646 448.607 444.851C448.332 447.707 448.424 450.106 448.561 453.145C450.663 453.397 453.016 453.648 455.37 453.054C457.403 452.528 457.929 450.495 457.951 448.941C457.997 447.365 457.22 445.651 455.37 445.034ZM455.37 445.034C453.199 444.326 450.891 444.646 448.607 444.851C448.332 447.707 448.424 450.106 448.561 453.145C450.663 453.397 453.016 453.648 455.37 453.054C457.403 452.528 457.929 450.495 457.951 448.941C457.997 447.365 457.22 445.651 455.37 445.034ZM455.37 445.034C453.199 444.326 450.891 444.646 448.607 444.851C448.332 447.707 448.424 450.106 448.561 453.145C450.663 453.397 453.016 453.648 455.37 453.054C457.403 452.528 457.929 450.495 457.951 448.941C457.997 447.365 457.22 445.651 455.37 445.034ZM455.37 445.034C453.199 444.326 450.891 444.646 448.607 444.851C448.332 447.707 448.424 450.106 448.561 453.145C450.663 453.397 453.016 453.648 455.37 453.054C457.403 452.528 457.929 450.495 457.951 448.941C457.997 447.365 457.22 445.651 455.37 445.034ZM455.37 445.034C453.199 444.326 450.891 444.646 448.607 444.851C448.332 447.707 448.424 450.106 448.561 453.145C450.663 453.397 453.016 453.648 455.37 453.054C457.403 452.528 457.929 450.495 457.951 448.941C457.997 447.365 457.22 445.651 455.37 445.034ZM455.37 445.034C453.199 444.326 450.891 444.646 448.607 444.851C448.332 447.707 448.424 450.106 448.561 453.145C450.663 453.397 453.016 453.648 455.37 453.054C457.403 452.528 457.929 450.495 457.951 448.941C457.997 447.365 457.22 445.651 455.37 445.034ZM455.37 445.034C453.199 444.326 450.891 444.646 448.607 444.851C448.332 447.707 448.424 450.106 448.561 453.145C450.663 453.397 453.016 453.648 455.37 453.054C457.403 452.528 457.929 450.495 457.951 448.941C457.997 447.365 457.22 445.651 455.37 445.034ZM455.37 445.034C453.199 444.326 450.891 444.646 448.607 444.851C448.332 447.707 448.424 450.106 448.561 453.145C450.663 453.397 453.016 453.648 455.37 453.054C457.403 452.528 457.929 450.495 457.951 448.941C457.997 447.365 457.22 445.651 455.37 445.034ZM455.37 445.034C453.199 444.326 450.891 444.646 448.607 444.851C448.332 447.707 448.424 450.106 448.561 453.145C450.663 453.397 453.016 453.648 455.37 453.054C457.403 452.528 457.929 450.495 457.951 448.941C457.997 447.365 457.22 445.651 455.37 445.034ZM455.37 445.034C453.199 444.326 450.891 444.646 448.607 444.851C448.332 447.707 448.424 450.106 448.561 453.145C450.663 453.397 453.016 453.648 455.37 453.054C457.403 452.528 457.929 450.495 457.951 448.941C457.997 447.365 457.22 445.651 455.37 445.034ZM932.606 422.46H264V490H932.628L932.606 422.46ZM314.173 444.805L305.651 444.897L305.696 451.683C308.918 452.368 316.023 450.335 316.48 454.425C316.686 456.253 315.772 457.921 313.624 458.058C310.928 458.241 308.324 457.898 305.674 458.218L305.559 468.934C305.536 471.081 303.64 471.95 301.858 471.858C300.19 471.767 298.705 470.487 298.682 468.385V442.087C298.682 440.053 300.099 438.682 302.109 438.682H314.196C316.298 438.682 317.76 439.939 317.691 441.79C317.646 443.617 316.298 444.783 314.173 444.805ZM356.532 458.994C356.532 467.334 349.586 472.498 341.612 472.087C334.256 471.698 328.452 466.694 328.452 458.994V442.109C328.43 439.893 329.663 438.545 331.491 438.454C333.661 438.339 335.238 439.665 335.238 442.064V458.378C335.261 462.742 338.414 465.872 342.389 465.826C346.822 465.781 349.723 462.559 349.723 457.966L349.678 442.041C349.678 439.756 350.957 438.499 352.876 438.362C354.727 438.248 356.6 439.23 356.578 441.812L356.532 458.994ZM388.016 444.76L382.235 445.011L382.075 468.659C382.052 470.784 380.43 471.653 379.082 471.813C377.574 471.995 375.244 471.401 375.244 469.413L375.038 444.92C372.022 444.417 366.607 446.154 366.607 441.812C366.607 439.87 367.887 438.659 370.057 438.659H387.056C389.089 438.659 390.597 439.413 390.734 441.287C390.871 442.886 390.049 444.691 388.016 444.76ZM428.821 459.543C428.752 467.54 422.058 472.315 414.496 472.132C406.613 471.927 400.65 466.603 400.81 458.469C400.924 452.528 400.582 446.565 401.016 440.624C401.13 438.933 403.095 438.362 404.306 438.408C405.402 438.454 407.527 438.911 407.55 440.601L407.733 458.492C407.778 462.833 410.589 465.872 414.77 465.963C418.425 466.032 422.012 463.267 422.081 459.017L422.309 441.035C422.332 439.139 424.389 438.362 425.714 438.431C427.633 438.545 428.958 439.939 428.958 442.064L428.821 459.543ZM464.348 470.944C463.229 471.835 460.83 472.521 459.619 471.081L448.584 457.943L448.401 468.956C448.378 470.807 446.756 471.653 445.362 471.767C443.695 471.881 441.684 471.036 441.684 468.934L441.593 442.064C441.593 440.259 442.758 438.819 444.608 438.728C448.447 438.568 452.262 438.476 456.055 438.774C461.538 439.185 465.194 443.298 465.148 448.69C465.08 453.511 461.812 456.801 456.946 457.784L464.737 466.763C465.879 468.088 465.377 470.122 464.348 470.944ZM492.794 471.561L479.748 471.47C478.034 471.447 476.8 470.122 476.8 468.385V442.064C476.8 440.122 478.286 438.728 480.205 438.705L492.268 438.636C494.438 438.614 495.764 439.779 495.718 441.79C495.695 443.572 494.438 444.737 492.268 444.76L483.86 444.874C483.609 447.067 483.655 449.33 483.792 451.683L491.72 451.889C493.593 451.934 494.827 453.328 494.804 454.95C494.804 456.618 493.684 458.035 491.742 458.058L483.883 458.149C483.677 460.662 483.655 462.902 483.86 465.369L493.388 465.484C495.353 465.484 496.106 466.991 496.061 468.614C496.038 470.236 494.781 471.584 492.794 471.561ZM533.051 471.767C531.177 472.041 529.007 471.196 529.007 468.934L528.938 442.109C528.938 439.893 530.217 438.499 532.045 438.362C534.147 438.202 535.838 439.482 535.838 441.881L535.884 467.997C535.884 470.259 534.604 471.538 533.051 471.767ZM577.306 469.185C577.306 470.853 575.912 471.698 574.998 471.881C573.902 472.064 572.142 472.018 571.274 470.899L555.875 450.952L555.624 469.413C555.601 471.196 553.567 471.813 552.242 471.835C550.986 471.858 548.929 471.059 548.929 469.276L548.884 441.195C548.884 439.665 550.232 438.545 551.306 438.454C552.471 438.316 554.185 438.408 555.076 439.596L570.315 459.543L570.52 442.064C570.543 439.847 571.754 438.476 573.673 438.362C575.729 438.248 577.329 439.71 577.329 442.087V469.185H577.306ZM608.858 444.737L603.055 444.897V468.111C603.032 470.67 601.41 471.904 599.399 471.858C597.526 471.835 596.018 470.602 595.995 468.362L595.927 444.988C592.614 444.417 587.45 446.199 587.359 441.812C587.336 439.824 588.707 438.636 590.9 438.636H608.447C610.298 438.659 611.508 439.756 611.668 441.31C611.874 443 610.869 444.691 608.858 444.737ZM637.486 471.561L624.966 471.515C623.161 471.515 621.744 470.122 621.744 468.271V442.087C621.767 440.259 623.001 438.728 624.92 438.705L637.486 438.659C639.474 438.659 640.616 440.122 640.57 441.79C640.479 446.519 632.597 444.12 628.895 444.851C628.758 447.296 628.69 449.421 628.941 451.729L636.366 451.843C638.423 451.866 639.679 453.191 639.656 454.95C639.611 456.664 638.423 458.058 636.389 458.058L628.918 458.103C628.667 460.617 628.69 462.924 628.964 465.392H637.486C639.656 465.369 640.936 466.603 640.959 468.614C640.959 470.327 639.588 471.584 637.486 471.561ZM668.124 471.561L655.649 471.493C653.867 471.493 652.451 470.213 652.451 468.362L652.565 441.333C652.565 439.185 654.599 438.225 656.221 438.408C658.094 438.614 659.396 439.962 659.396 442.087L659.511 465.141C663.441 466.192 671.254 463.427 671.506 468.111C671.62 470.053 670.363 471.561 668.124 471.561ZM697.483 471.584H685.168C682.907 471.561 681.467 470.007 681.467 467.791L681.513 442.132C681.513 439.71 682.884 438.362 684.871 438.362C687.385 438.362 688.504 440.053 688.504 442.589L688.573 465.278C693.462 466.146 699.973 463.564 700.545 468.111C700.75 469.71 699.859 471.584 697.483 471.584ZM714.459 471.79C712.037 471.927 710.62 470.373 710.62 467.814V442.087C710.643 439.825 711.945 438.476 713.933 438.339C716.012 438.202 717.566 439.619 717.566 442.064L717.612 467.54C717.612 470.19 716.423 471.653 714.459 471.79ZM756.269 468.02C753.162 471.127 748.867 472.315 744.366 472.064C738.38 471.744 733.331 468.637 730.886 463.039C727.802 455.933 728.853 447.227 734.907 441.949C741.19 436.443 751.106 436.786 757.206 442.132C758.6 443.343 758.349 445.674 757.503 446.725C756.407 448.073 754.259 447.981 752.683 446.771C748.913 443.869 743.155 442.932 739.591 446.725C735.478 451.066 735.547 458.469 739.134 463.062C741.35 465.895 744.731 466.489 747.976 465.758C750.877 465.118 753.254 462.582 753.642 458.972C751.38 457.761 745.6 460.228 745.417 455.476C745.348 453.397 746.971 452.231 749.255 452.254L756.955 452.3C758.074 452.3 759.08 452.528 759.765 453.214C761.593 455.11 760.679 463.656 756.269 468.02ZM788.141 471.561H775.553C773.816 471.516 772.24 470.167 772.24 468.294L772.194 442.041C772.171 440.122 773.656 438.728 775.553 438.705C779.802 438.659 783.915 438.545 788.141 438.705C790.106 438.796 791.135 440.259 791.135 441.79C791.135 443.709 789.718 444.874 787.616 444.851H779.345C778.98 447.182 779.117 449.33 779.185 451.66C782.658 452.505 790.312 450.061 790.266 454.95C790.243 456.687 789.124 458.081 787.068 458.081H779.391C778.911 460.411 779.14 462.65 779.254 465.232C783.412 466.192 791.5 463.313 791.454 468.705C791.432 470.259 790.175 471.561 788.141 471.561ZM828.741 471.881C827.485 472.132 825.817 471.744 824.88 470.487L809.984 450.997C809.412 456.847 809.938 462.513 809.709 468.385C809.641 470.556 808.453 471.79 806.511 471.881C804.957 471.95 802.878 471.059 802.901 468.911L802.992 440.556C803.015 439.025 805.071 438.385 806.008 438.362C807.288 438.294 808.75 439.048 809.687 440.304L824.309 459.794L824.514 441.63C824.537 439.55 826.068 438.339 827.896 438.294C829.564 438.271 831.255 439.55 831.255 441.652L831.3 469.025C831.3 470.739 829.769 471.698 828.741 471.881ZM867.97 469.985C862.258 473.046 854.467 473.069 849.121 468.774C840.896 462.148 840.645 449.238 848.344 442.132C853.668 437.243 861.596 436.923 867.696 440.259C869.478 441.218 869.455 443.503 868.77 444.714C867.833 446.336 865.8 446.359 864.063 445.582C860.065 443.777 855.153 443.937 852.366 447.73C849.487 451.66 849.235 457.555 851.977 461.851C854.879 466.42 860.431 466.557 864.612 464.318C866.302 463.427 868.313 463.747 869.25 465.369C869.912 466.512 869.889 468.956 867.97 469.985ZM897.215 471.607L884.694 471.47C882.547 471.447 881.382 469.893 881.382 467.837V442.109C881.359 440.213 882.661 438.728 884.58 438.728L896.666 438.614C898.791 438.591 900.254 439.802 900.231 441.79C900.231 443.503 898.746 444.874 896.689 444.874H888.51C888.122 447.227 888.167 449.444 888.441 451.729L896.141 451.889C898.174 451.934 899.363 453.282 899.363 454.95C899.385 456.71 898.083 458.035 896.095 458.058L888.464 458.103C888.144 460.48 888.259 462.696 888.373 465.278C892.76 466.26 900.642 463.153 900.596 468.637C900.574 470.419 899.226 471.63 897.215 471.607ZM455.37 445.034C453.199 444.326 450.891 444.646 448.607 444.851C448.332 447.707 448.424 450.106 448.561 453.145C450.663 453.397 453.016 453.648 455.37 453.054C457.403 452.528 457.929 450.495 457.951 448.941C457.997 447.365 457.22 445.651 455.37 445.034ZM455.37 445.034C453.199 444.326 450.891 444.646 448.607 444.851C448.332 447.707 448.424 450.106 448.561 453.145C450.663 453.397 453.016 453.648 455.37 453.054C457.403 452.528 457.929 450.495 457.951 448.941C457.997 447.365 457.22 445.651 455.37 445.034ZM455.37 445.034C453.199 444.326 450.891 444.646 448.607 444.851C448.332 447.707 448.424 450.106 448.561 453.145C450.663 453.397 453.016 453.648 455.37 453.054C457.403 452.528 457.929 450.495 457.951 448.941C457.997 447.365 457.22 445.651 455.37 445.034ZM455.37 445.034C453.199 444.326 450.891 444.646 448.607 444.851C448.332 447.707 448.424 450.106 448.561 453.145C450.663 453.397 453.016 453.648 455.37 453.054C457.403 452.528 457.929 450.495 457.951 448.941C457.997 447.365 457.22 445.651 455.37 445.034ZM455.37 445.034C453.199 444.326 450.891 444.646 448.607 444.851C448.332 447.707 448.424 450.106 448.561 453.145C450.663 453.397 453.016 453.648 455.37 453.054C457.403 452.528 457.929 450.495 457.951 448.941C457.997 447.365 457.22 445.651 455.37 445.034ZM455.37 445.034C453.199 444.326 450.891 444.646 448.607 444.851C448.332 447.707 448.424 450.106 448.561 453.145C450.663 453.397 453.016 453.648 455.37 453.054C457.403 452.528 457.929 450.495 457.951 448.941C457.997 447.365 457.22 445.651 455.37 445.034ZM455.37 445.034C453.199 444.326 450.891 444.646 448.607 444.851C448.332 447.707 448.424 450.106 448.561 453.145C450.663 453.397 453.016 453.648 455.37 453.054C457.403 452.528 457.929 450.495 457.951 448.941C457.997 447.365 457.22 445.651 455.37 445.034ZM455.37 445.034C453.199 444.326 450.891 444.646 448.607 444.851C448.332 447.707 448.424 450.106 448.561 453.145C450.663 453.397 453.016 453.648 455.37 453.054C457.403 452.528 457.929 450.495 457.951 448.941C457.997 447.365 457.22 445.651 455.37 445.034ZM455.37 445.034C453.199 444.326 450.891 444.646 448.607 444.851C448.332 447.707 448.424 450.106 448.561 453.145C450.663 453.397 453.016 453.648 455.37 453.054C457.403 452.528 457.929 450.495 457.951 448.941C457.997 447.365 457.22 445.651 455.37 445.034ZM455.37 445.034C453.199 444.326 450.891 444.646 448.607 444.851C448.332 447.707 448.424 450.106 448.561 453.145C450.663 453.397 453.016 453.648 455.37 453.054C457.403 452.528 457.929 450.495 457.951 448.941C457.997 447.365 457.22 445.651 455.37 445.034ZM455.37 445.034C453.199 444.326 450.891 444.646 448.607 444.851C448.332 447.707 448.424 450.106 448.561 453.145C450.663 453.397 453.016 453.648 455.37 453.054C457.403 452.528 457.929 450.495 457.951 448.941C457.997 447.365 457.22 445.651 455.37 445.034ZM455.37 445.034C453.199 444.326 450.891 444.646 448.607 444.851C448.332 447.707 448.424 450.106 448.561 453.145C450.663 453.397 453.016 453.648 455.37 453.054C457.403 452.528 457.929 450.495 457.951 448.941C457.997 447.365 457.22 445.651 455.37 445.034ZM455.37 445.034C453.199 444.326 450.891 444.646 448.607 444.851C448.332 447.707 448.424 450.106 448.561 453.145C450.663 453.397 453.016 453.648 455.37 453.054C457.403 452.528 457.929 450.495 457.951 448.941C457.997 447.365 457.22 445.651 455.37 445.034ZM455.37 445.034C453.199 444.326 450.891 444.646 448.607 444.851C448.332 447.707 448.424 450.106 448.561 453.145C450.663 453.397 453.016 453.648 455.37 453.054C457.403 452.528 457.929 450.495 457.951 448.941C457.997 447.365 457.22 445.651 455.37 445.034ZM455.37 445.034C453.199 444.326 450.891 444.646 448.607 444.851C448.332 447.707 448.424 450.106 448.561 453.145C450.663 453.397 453.016 453.648 455.37 453.054C457.403 452.528 457.929 450.495 457.951 448.941C457.997 447.365 457.22 445.651 455.37 445.034ZM455.37 445.034C453.199 444.326 450.891 444.646 448.607 444.851C448.332 447.707 448.424 450.106 448.561 453.145C450.663 453.397 453.016 453.648 455.37 453.054C457.403 452.528 457.929 450.495 457.951 448.941C457.997 447.365 457.22 445.651 455.37 445.034ZM455.37 445.034C453.199 444.326 450.891 444.646 448.607 444.851C448.332 447.707 448.424 450.106 448.561 453.145C450.663 453.397 453.016 453.648 455.37 453.054C457.403 452.528 457.929 450.495 457.951 448.941C457.997 447.365 457.22 445.651 455.37 445.034ZM455.37 445.034C453.199 444.326 450.891 444.646 448.607 444.851C448.332 447.707 448.424 450.106 448.561 453.145C450.663 453.397 453.016 453.648 455.37 453.054C457.403 452.528 457.929 450.495 457.951 448.941C457.997 447.365 457.22 445.651 455.37 445.034ZM455.37 445.034C453.199 444.326 450.891 444.646 448.607 444.851C448.332 447.707 448.424 450.106 448.561 453.145C450.663 453.397 453.016 453.648 455.37 453.054C457.403 452.528 457.929 450.495 457.951 448.941C457.997 447.365 457.22 445.651 455.37 445.034ZM455.37 445.034C453.199 444.326 450.891 444.646 448.607 444.851C448.332 447.707 448.424 450.106 448.561 453.145C450.663 453.397 453.016 453.648 455.37 453.054C457.403 452.528 457.929 450.495 457.951 448.941C457.997 447.365 457.22 445.651 455.37 445.034ZM455.37 445.034C453.199 444.326 450.891 444.646 448.607 444.851C448.332 447.707 448.424 450.106 448.561 453.145C450.663 453.397 453.016 453.648 455.37 453.054C457.403 452.528 457.929 450.495 457.951 448.941C457.997 447.365 457.22 445.651 455.37 445.034Z" fill="white"/>
<path d="M457.951 448.941C457.929 450.495 457.403 452.528 455.37 453.054C453.016 453.648 450.663 453.397 448.561 453.145C448.424 450.106 448.332 447.707 448.607 444.851C450.891 444.646 453.199 444.326 455.37 445.034C457.22 445.651 457.997 447.365 457.951 448.941Z" fill="white"/>
<path d="M457.951 448.941C457.929 450.495 457.403 452.528 455.37 453.054C453.016 453.648 450.663 453.397 448.561 453.145C448.424 450.106 448.332 447.707 448.607 444.851C450.891 444.646 453.199 444.326 455.37 445.034C457.22 445.651 457.997 447.365 457.951 448.941Z" fill="white"/>
</svg>
