<svg width="1200" height="600" viewBox="0 0 1200 600" fill="none" xmlns="http://www.w3.org/2000/svg">
<path d="M1137.27 363.462L1086.82 363.413L1086.72 275.885L1043.05 275.935V398.394H1137.35L1137.27 363.462ZM1026.46 275.86H982.867V398.443H1026.48V275.885L1026.46 275.86ZM970.303 319.4C964.978 296.361 947.189 279.169 924.051 274.343C911.561 271.73 898.698 271.855 886.358 274.79C863.742 280.165 846.799 297.083 841.5 319.574C838.887 330.696 838.688 341.792 840.977 353.038C845.729 376.649 863.717 394.637 887.279 399.936C900.987 403.022 914.92 402.673 928.853 398.767C949.055 393.069 963.884 378.042 969.631 358.088C973.239 345.524 973.263 332.188 970.303 319.4ZM925.195 351.047C921.911 359.233 914.821 364.159 906.884 364.458C898.3 364.781 890.861 360.004 887.229 352.018C882.974 342.663 883.099 331.915 887.254 322.535C890.612 314.971 897.255 310.344 905.192 310.045C913.228 309.772 920.618 314.076 924.225 321.689C928.554 330.82 929.052 341.419 925.195 351.047ZM767.731 354.904C775.394 348.883 780.245 340.672 782.062 331.168C783.131 325.098 783.43 319.151 782.559 313.056C781.041 299.645 773.204 288.673 761.237 282.478C752.803 278.124 743.846 275.985 734.093 275.96H673.66V398.294L717.274 398.344L717.374 365.926C720.036 365.851 722.151 365.776 724.564 366.124L742.03 398.418L793.531 398.344L767.756 354.904H767.731ZM729.167 331.367C725.286 331.865 721.504 331.915 717.324 331.641V309.921C721.156 309.672 724.888 309.647 728.769 310.045C734.516 310.617 738.596 315.046 738.373 321.142C738.149 326.765 734.417 330.745 729.167 331.367ZM660.424 316.514C656.443 302.606 648.034 290.863 635.917 283.1C620.218 272.999 602.28 270.984 583.968 273.497C569.911 275.412 556.923 281.657 547.146 291.933C529.605 310.369 526.346 340.473 535.104 363.487C542.195 382.122 558.292 395.284 577.623 399.837C612.032 407.923 649.949 394.512 660.548 358.138C664.504 344.504 664.305 330.173 660.424 316.514ZM615.69 351.819C612.157 359.656 605.414 364.259 597.727 364.482C589.516 364.706 582.102 360.502 578.42 352.764C573.693 342.812 573.792 330.745 578.942 320.968C582.649 313.927 589.641 309.946 597.179 309.996C604.593 310.02 611.41 314.275 614.943 321.316C619.67 330.72 620.118 341.991 615.69 351.819ZM419.985 275.91L419.935 311.016L451.607 311.115L451.657 398.394L495.595 398.319V311.065H527.292L527.366 275.91H419.985ZM415.332 319.823C410.082 296.71 392.268 279.194 368.981 274.318C357.287 271.855 345.37 271.904 333.651 274.268C319.495 277.104 307.179 284.369 298.073 295.366C295.287 298.775 293.346 302.382 291.356 305.94C290.982 305.691 290.485 305.368 290.261 304.696C281.478 279.543 266.177 258.718 249.881 237.794L220.299 199.852C204.55 178.978 190.592 157.482 180.267 133C172.057 151.784 162.304 169.026 150.56 185.671C137.946 203.534 124.461 220.03 110.976 237.197C100.95 249.911 91.6696 262.475 83.3846 276.333C71.094 296.909 63.3314 319.475 62.2367 343.409C59.7985 396.403 93.4113 444.372 143.992 460.494C163.946 466.863 185.342 467.684 206.067 463.28C234.132 457.309 258.663 440.839 275.582 417.85C285.011 405.037 291.405 390.756 295.361 375.679C308.398 393.617 328.029 401.952 350.42 402.001C362.363 402.001 373.559 399.936 384.207 394.637C412.595 380.555 422.05 349.256 415.332 319.823ZM225.573 398.344L212.287 345.773L207.013 368.488L199.698 398.369L160.537 398.319L148.023 346.046L134.488 398.418L86.5693 398.319L120.257 274.641H164.045L180.192 336.841L196.389 274.965H213.855C216.019 275.014 217.562 275.014 218.532 275.014C219.453 276.831 220.274 278.473 220.946 280.364L224.056 289.246C227.016 297.755 230.151 301.661 234.978 308.602L239.655 315.32C240.7 316.813 242.417 318.231 243.736 319.549C246.323 322.137 250.155 322.187 253.09 323.729L260.206 349.579L273.467 398.369H225.573V398.344ZM370.15 350.798C366.816 359.357 359.676 364.259 351.291 364.482C342.782 364.706 335.492 359.755 331.984 351.595C327.705 341.692 328.103 330.148 333.278 320.52C336.985 313.653 343.852 309.921 351.316 310.02C358.83 310.145 365.523 314.399 369.031 321.565C373.459 330.596 373.857 341.22 370.15 350.798Z" fill="black"/>
<path d="M527.366 275.91L527.291 311.04L495.595 311.065V398.319L451.657 398.394L451.607 311.115L419.935 311.016L419.985 275.91H527.366Z" fill="black"/>
<path d="M1137.35 398.394H1043.05V275.935L1086.72 275.885L1086.82 363.413L1137.27 363.462L1137.35 398.394Z" fill="black"/>
<path d="M1026.48 398.418L982.892 398.443L982.867 275.86H1026.46L1026.48 398.418Z" fill="black"/>
<path d="M660.424 316.514C656.443 302.606 648.034 290.863 635.917 283.1C620.218 272.999 602.28 270.984 583.968 273.497C569.911 275.412 556.923 281.657 547.146 291.933C529.605 310.369 526.346 340.473 535.104 363.487C542.195 382.122 558.292 395.284 577.623 399.837C612.032 407.923 649.949 394.512 660.548 358.138C664.504 344.504 664.305 330.173 660.424 316.514ZM615.69 351.819C612.157 359.656 605.414 364.259 597.727 364.482C589.516 364.706 582.102 360.502 578.42 352.764C573.693 342.812 573.792 330.745 578.942 320.968C582.649 313.927 589.641 309.946 597.179 309.996C604.593 310.02 611.41 314.275 614.943 321.316C619.67 330.72 620.118 341.991 615.69 351.819Z" fill="black"/>
<path d="M767.731 354.904C775.394 348.883 780.245 340.672 782.062 331.168C783.131 325.098 783.43 319.151 782.559 313.056C781.041 299.645 773.204 288.673 761.237 282.478C752.803 278.124 743.846 275.985 734.093 275.96H673.66V398.294L717.274 398.344L717.374 365.926C720.036 365.851 722.151 365.776 724.564 366.124L742.03 398.418L793.531 398.344L767.756 354.904H767.731ZM729.167 331.367C725.286 331.865 721.504 331.915 717.324 331.641V309.921C721.156 309.672 724.888 309.647 728.769 310.045C734.516 310.617 738.596 315.046 738.373 321.142C738.149 326.765 734.417 330.745 729.167 331.367Z" fill="black"/>
<path d="M415.332 319.823C410.082 296.71 392.268 279.194 368.981 274.318C357.287 271.855 345.37 271.904 333.651 274.268C319.495 277.104 307.179 284.369 298.073 295.366C295.287 298.775 293.346 302.382 291.356 305.94C290.684 307.109 291.729 308.727 292.103 310.045C295.038 320.893 297.601 331.392 297.825 342.937C298.024 353.784 298.048 365.304 295.361 375.679C308.398 393.617 328.029 401.952 350.42 402.001C362.363 402.001 373.559 399.936 384.207 394.637C412.595 380.555 422.05 349.256 415.332 319.823ZM370.15 350.798C366.816 359.357 359.676 364.259 351.291 364.482C342.782 364.706 335.492 359.755 331.984 351.595C327.705 341.692 328.103 330.148 333.278 320.52C336.985 313.653 343.852 309.921 351.316 310.02C358.83 310.145 365.523 314.399 369.031 321.565C373.459 330.596 373.857 341.22 370.15 350.798Z" fill="black"/>
<path d="M292.326 306.736L291.356 305.94C290.982 305.691 290.485 305.368 290.261 304.696C281.478 279.543 266.177 258.718 249.881 237.794L220.299 199.852C204.55 178.978 190.592 157.482 180.267 133C172.057 151.784 162.304 169.026 150.56 185.671C137.946 203.534 124.461 220.03 110.976 237.197C100.95 249.911 91.6696 262.475 83.3846 276.333C71.094 296.909 63.3314 319.475 62.2367 343.409C59.7985 396.403 93.4113 444.372 143.992 460.494C163.946 466.863 185.342 467.684 206.067 463.28C234.132 457.309 258.663 440.839 275.582 417.85C285.011 405.037 291.405 390.756 295.361 375.679C295.734 375.405 296.108 375.106 296.406 374.758C296.705 374.41 296.978 374.061 297.053 373.713C301.482 351.769 299.019 327.809 292.326 306.736ZM225.573 398.344L212.287 345.773L207.013 368.488L199.698 398.369L160.537 398.319L148.023 346.046L134.488 398.418L86.5693 398.319L120.257 274.641H164.045L180.192 336.841L196.389 274.965H213.855C216.019 275.014 217.562 275.014 218.532 275.014C219.453 276.831 220.274 278.473 220.946 280.364L224.056 289.246C227.016 297.755 230.151 301.661 234.978 308.602L239.655 315.32C240.7 316.813 242.417 318.231 243.736 319.549C246.323 322.137 250.155 322.187 253.09 323.729L260.206 349.579L273.467 398.369H225.573V398.344Z" fill="black"/>
<path d="M253.09 323.729C250.155 322.187 246.323 322.137 243.736 319.549C242.417 318.231 240.7 316.813 239.655 315.32L234.978 308.602C230.151 301.661 227.016 297.755 224.056 289.246L220.946 280.364C220.274 278.473 219.453 276.831 218.532 275.014L219.702 275.014L221.593 278.672C225.35 291.833 232.043 304.024 240.626 314.623C243.935 318.703 246.971 320.918 252.17 322.012C252.743 322.41 253.065 323.057 253.09 323.729Z" fill="black"/>
<path d="M252.519 320.221C249.459 318.28 247.717 311.762 248.986 308.403C247.369 307.284 246.001 304.373 247.867 303.154L248.091 302.332C253.091 301.86 255.181 299.77 254.36 296.063C255.878 289.718 254.087 282.528 252.071 276.457C249.509 268.745 245.229 260.733 239.88 254.538C238.412 252.846 236.447 250.582 234.407 249.662C223.833 244.86 228.212 268.272 230.078 272.576L229.281 274.343C229.132 275.562 228.236 276.059 226.569 275.761C225.773 274.89 224.48 274.467 222.688 274.467C222.265 276.233 220.996 276.059 220.35 274.392C220.101 267.078 219.902 266.68 217.911 260.136C216.319 254.862 216.219 250.06 215.647 245.158C215.299 242.123 218.384 236.575 217.439 232.918C219.504 232.718 221.793 227.245 224.803 229.36C231.297 233.913 230.202 228.464 236.447 233.415C236.521 236.077 239.084 237.371 240.701 239.038C242.468 240.879 243.115 243.541 245.553 244.959C247.742 246.228 249.882 252.15 250.479 253.17L255.853 262.599C255.132 261.33 257.495 268.521 259.461 271.058C261.227 273.323 261.451 276.308 262.322 278.995C264.71 286.26 266.825 293.45 266.85 301.238C266.85 303.104 266.203 304.721 266.9 306.537C267.771 308.751 266.253 310.468 265.606 312.21C264.959 313.951 264.511 315.369 263.715 317.012C261.625 321.316 256.6 322.261 252.544 320.221H252.519Z" fill="black"/>
<path d="M253.09 323.729C250.155 322.187 246.323 322.137 243.736 319.549C242.417 318.231 240.7 316.813 239.655 315.32L234.978 308.602C230.151 301.661 227.016 297.755 224.056 289.246L220.946 280.364C220.274 278.473 219.453 276.831 218.532 275.014L213.856 274.989H196.39C204.351 273.546 212.437 274.79 220.374 274.417C221.469 274.541 222.091 274.492 222.713 274.492C223.509 274.541 224.305 274.666 225.052 274.79C225.076 274.79 225.101 274.79 225.126 274.79C225.897 274.964 226.619 275.188 227.316 275.437C227.365 275.562 227.39 275.686 227.44 275.81C230.525 285.165 236.845 299.123 244.632 305.019C245.702 305.368 246.622 305.84 247.369 306.437C248.041 306.985 248.588 307.632 248.986 308.403C249.907 312.732 250.952 316.564 252.519 320.196C253.066 321.515 253.464 322.908 253.091 323.704L253.09 323.729Z" fill="black"/>
<path d="M247.867 303.154C245.976 302.855 243.861 297.755 245.503 296.436C243.637 294.993 241.87 290.365 243.662 288.723C243.994 288.093 243.994 288.093 243.662 288.723L242.542 289.544C237.765 286.683 235.228 281.16 233.436 276.109C232.142 275.786 230.948 275.238 229.878 274.442C229.63 274.94 229.455 274.89 229.306 274.368C227.614 267.526 225.624 260.36 226.544 253.071C227.042 249.09 232.068 246.9 235.178 248.741C239.407 251.229 241.92 255.16 244.582 259.042C245.727 260.709 247.618 262.376 248.265 264.217C252.544 276.308 251.822 269.267 255.405 284.544C256.301 288.4 256.599 292.206 255.529 296.038C256.475 298.053 255.604 299.944 254.037 301.512C252.469 303.079 249.932 302.98 247.891 303.154L247.867 303.154Z" fill="black"/>
<path d="M229.306 274.343L229.878 274.417C230.899 274.542 231.695 274.89 232.292 275.487C234.307 282.653 238.213 290.042 244.234 294.57L245.503 296.411C246.125 298.974 247.419 300.989 247.867 303.129L248.986 308.378C241.149 304.92 242.916 305.293 239.656 301.437C234.158 294.918 228.012 283.648 226.072 275.213C225.077 274.641 223.136 275.413 222.713 274.442C225.251 274.417 227.291 274.766 229.306 274.318V274.343Z" fill="black"/>
<path d="M243.661 288.698C242.99 285.837 241.795 282.652 240.452 279.891C239.258 277.452 231.719 271.033 234.506 263.37C234.854 262.375 235.575 261.529 236.272 261.281C239.133 260.26 242.193 264.689 243.487 267.973C245.876 274.019 247.418 272.053 248.637 280.786C249.06 283.797 249.309 287.031 246.299 288.972C245.726 288.872 244.657 289.022 243.686 288.673L243.661 288.698Z" fill="black"/>
<path d="M243.661 288.698L245.503 296.411C239.283 294.371 233.386 283.349 231.471 277.129C231.097 275.91 231.297 274.815 229.878 274.417C231.744 274.691 234.133 274.168 234.68 275.985C235.974 280.189 239.731 287.33 243.662 288.723L243.661 288.698Z" fill="black"/>
<path d="M970.303 319.4C964.978 296.361 947.189 279.169 924.051 274.343C911.561 271.73 898.698 271.855 886.358 274.79C863.742 280.165 846.799 297.083 841.5 319.574C838.887 330.696 838.688 341.792 840.977 353.038C845.729 376.649 863.717 394.637 887.279 399.936C900.987 403.022 914.92 402.673 928.853 398.767C949.055 393.069 963.884 378.042 969.631 358.088C973.239 345.524 973.263 332.188 970.303 319.4ZM925.195 351.047C921.911 359.233 914.821 364.159 906.884 364.458C898.3 364.781 890.861 360.004 887.229 352.018C882.974 342.663 883.099 331.915 887.254 322.535C890.612 314.971 897.255 310.344 905.192 310.045C913.228 309.772 920.618 314.076 924.225 321.689C928.554 330.82 929.052 341.419 925.195 351.047Z" fill="black"/>
</svg>
