<svg width="1200" height="600" viewBox="0 0 1200 600" fill="none" xmlns="http://www.w3.org/2000/svg">
<path d="M439.969 443.89C431.63 442.782 423.354 443.973 416.039 448.153C405.339 454.276 399.55 465.457 399.446 477.746C399.299 493.337 409.101 506.858 424.294 510.745C442.226 515.301 461.411 507.443 466.782 488.948H456.249C454.243 493.128 451.923 496.869 447.639 499.502C437.983 505.395 425.736 504.392 417.335 497.078C412.466 492.856 410 486.837 409.561 480.484L467.827 480.442C469.771 462.239 457.942 446.293 439.969 443.89ZM409.874 472.103C411.4 461.466 419.989 453.566 430.69 452.27C438.903 451.267 446.845 453.838 452.425 459.898C455.288 463.305 457.106 467.213 457.858 472.061L409.874 472.103Z" fill="white"/>
<path d="M538.215 472.751L538.173 510.495L528.246 510.432L528.204 473.754C528.183 462.824 522.582 453.399 510.586 452.207C498.131 450.974 487.263 459.731 487.138 472.166L486.803 510.39L477.043 510.599L477.002 445.018L486.741 444.893L486.95 454.82C492.383 447.108 500.597 443.597 509.855 443.43C526.992 443.116 538.236 455.551 538.215 472.751Z" fill="white"/>
<path d="M538.612 350.534V404.767L513.616 404.725V353.585C513.574 344.16 509.917 335.445 499.301 335.257C488.161 335.048 482.832 343.407 482.519 354.045V404.746H457.9L457.879 353.543C457.607 344.452 454.389 335.946 444.211 335.278C432.716 334.504 426.99 343.951 426.948 354.547V404.725H401.891L401.911 316.803H426.154L426.342 325.434C430.104 321.631 434.138 318.6 439.195 316.887C452.633 312.414 469.582 315.34 477.231 328.694C487.012 315.57 504.358 312.122 519.155 317.158C533.763 322.989 538.173 335.654 538.612 350.534Z" fill="white"/>
<path d="M598.006 447.213C586.846 441.612 573.158 442.259 562.541 448.801C552.718 454.862 547.452 465.332 547.055 476.722C546.637 488.781 551.903 500.129 562.207 506.566C572.928 513.274 586.7 513.797 597.965 508.258C606.053 504.288 611.591 497.37 614.099 488.969H603.649C601.977 492.689 599.95 495.97 596.418 498.52C587.285 505.103 575.039 504.873 566.24 498.164C560.577 493.838 557.295 487.485 557.065 480.484L615.144 480.442C616.586 466.69 610.316 453.42 598.006 447.213ZM557.463 472.103C558.57 465.081 562.541 459 568.79 455.426C576.627 450.953 586.115 450.933 593.994 455.238C600.159 458.811 604.234 464.58 605.133 472.061L557.463 472.103Z" fill="white"/>
<path d="M592.824 314.859C567.473 314.859 546.93 335.403 546.93 360.754C546.93 386.104 567.473 406.669 592.824 406.669C618.174 406.669 638.718 386.104 638.718 360.754C638.718 335.403 618.174 314.859 592.824 314.859ZM592.845 383.304C580.389 383.304 570.274 373.188 570.274 360.733C570.274 348.277 580.389 338.162 592.845 338.162C605.3 338.162 615.416 348.256 615.416 360.733C615.416 373.209 605.321 383.304 592.845 383.304Z" fill="white"/>
<path d="M659.888 453.775C655.729 453.42 652.156 453.315 648.436 454.005C637.317 456.115 633.974 465.854 633.953 476.513L633.89 510.495C630.316 510.557 627.349 510.704 623.942 510.411V445.06C627.223 444.684 630.462 444.851 633.785 444.976L633.932 454.506C639.428 445.98 649.48 442.866 659.93 444.015L659.888 453.775Z" fill="white"/>
<path d="M671.926 404.746H646.973L646.994 316.824H671.236L671.508 330.45C678.823 317.952 691.78 314.734 705.636 316.594L705.532 340.231C694.622 339.708 679.554 336.991 674.288 349.176C672.762 352.707 671.989 356.469 671.989 360.774L671.926 404.746Z" fill="white"/>
<path d="M717.089 444.956L716.754 455.907C710.965 447.84 702.083 443.639 692.24 443.472C677.82 443.2 665.113 451.748 660.39 465.416C656.879 475.635 657.568 486.942 663.19 496.221C669.732 507.088 681.728 512.334 694.225 511.477C703.504 510.85 711.425 506.796 716.817 499.084C717.131 504.956 717.172 510.307 716.19 515.615C714.017 527.277 704.299 534.34 692.72 533.881C683.065 533.504 674.873 528.196 672.407 518.457C668.875 518.478 665.573 518.206 662.166 518.624C666.221 539.607 688.394 546.901 706.388 540.631C720.767 535.636 726.848 522.407 726.869 507.736V444.914L717.089 444.956ZM707.956 497.788C699.91 503.974 688.938 504.559 680.348 499.669C671.738 494.758 667.642 485.479 668.289 475.781C668.937 466.252 674.413 457.955 682.459 454.36C691.592 450.285 702 451.706 709.147 458.226C719.952 468.091 720.642 487.987 707.956 497.788Z" fill="white"/>
<path d="M796.505 445.039L754.958 541.216C751.468 541.592 748.166 541.383 744.174 541.3L759.242 507.381L731.112 444.976L741.854 444.914L764.529 495.97L786.118 444.955C789.692 444.893 792.931 444.705 796.505 445.039Z" fill="white"/>
<path d="M754.373 315.089C743.046 315.236 732.596 318.788 724.069 326.27C707.914 340.419 703.484 364.223 713.703 383.199C721.833 398.309 737.863 406.752 754.853 406.585C770.778 406.439 785.073 399.166 793.746 385.853C795.648 382.739 797.32 379.772 798.24 375.717L773.182 375.634C769.42 382.196 762.795 385.79 755.418 386.02C747.999 386.271 741.206 383.554 736.253 378.1C734.038 375.299 732.304 372.185 731.718 368.486L799.828 368.444C803.59 340.126 783.276 314.713 754.373 315.089ZM733.16 349.635C737.006 339.98 746.515 334.964 756.505 335.717C764.634 336.448 772.262 340.92 775.146 349.531L733.16 349.635Z" fill="white"/>
<path d="M815.962 177.909C814.499 182.046 812.012 185.453 810.465 189.173C803.13 206.749 794.248 223.615 784.404 240.125C780.287 247.021 775.564 252.706 770.402 258.265C765.261 263.782 759.974 268.798 752.826 272.455C736.128 281.003 715.877 277.45 703.505 263.072C692.282 250.031 689.69 232.685 689.711 216.195V201.671C689.711 199.142 689.335 196.55 690.108 194.147C690.296 193.583 690.171 192.747 690.213 192.141C690.401 189.466 689.983 186.728 690.61 184.136C690.819 183.238 690.464 181.984 690.422 181.127L680.453 202.841C676.963 210.427 673.514 217.763 669.167 224.597C667.349 229.048 664.507 233.144 661.916 237.429L660.223 240.229C659.847 240.856 659.366 241.671 658.864 242.131C658.363 243.949 656.795 245.14 655.813 246.833C654.058 249.78 651.947 252.225 649.773 254.879C644.089 261.776 637.61 267.628 629.794 271.975C612.322 281.672 590.922 277.262 578.445 261.86C575.31 257.993 573.429 254.043 571.549 249.759C567.39 240.271 566.198 230.03 565.739 219.372C565.237 207.042 565.927 195.025 566.533 182.653C566.533 182.255 566.595 181.712 566.428 181.545C566.428 181.545 566.282 181.545 566.198 181.524C557.253 202.381 547.849 221.546 535.811 241.149C528.413 253.187 518.131 265.162 505.696 272.017C489.165 281.108 468.976 277.785 456.27 263.803C450.355 257.262 446.74 249.446 444.65 241.149C440.157 223.259 441.557 201.065 442.79 182.151C442.832 181.629 442.874 180.834 442.435 181.022C439.237 187.459 433.803 192.914 427.011 195.819C408.16 203.886 386.676 192.747 382.246 172.893C380.971 167.166 381.201 161.419 383.604 156.048C390.166 141.314 404.942 109.026 413.239 96.9041C413.908 95.9219 413.97 94.2499 415.245 93.6648C416.541 90.4881 418.882 87.834 420.762 84.9708C425.047 78.4085 430.042 72.5568 436.207 67.3112C447.597 57.6141 462.999 53.6433 477.503 57.9902C487.702 61.0415 495.999 68.168 500.952 77.0292C503.334 81.2717 505.675 85.3052 506.908 90.5299C511.088 107.96 509.98 125.87 509.374 143.551C509.29 146.163 509.29 148.754 509.499 151.659C511.589 146.915 513.596 142.401 515.915 137.95C517.128 135.63 517.692 132.871 519.447 130.886C520.074 127.458 522.499 124.679 523.899 121.586C528.559 111.324 534.098 101.46 540.179 91.6794C547.891 79.2863 558.048 66.6006 571.444 60.31C579.532 56.5273 588.477 55.2734 597.087 57.0707C599.637 57.6141 601.852 58.3037 604.067 58.9725C609.689 60.6862 614.642 64.1972 618.905 68.6069C624.924 74.8348 628.623 82.4002 630.755 90.8643C633.388 101.272 634.245 111.68 633.932 122.505L633.096 151.597C636.314 146.142 638.634 140.269 641.497 134.292C647.161 122.443 652.825 111.053 659.345 99.6419C664.591 90.4254 670.359 81.9405 677.276 74.4377C682.919 68.2725 689.021 62.5253 697.318 59.4741C706.639 56.0257 716.462 55.0017 726.034 58.1574C737.235 61.8565 745.971 70.0698 750.987 80.7074C756.191 91.7003 758.03 107.374 757.737 119.496L756.943 151.597C763.401 140.792 774.875 133.916 787.623 134.689C799.807 135.442 810.842 142.777 815.69 154.46C818.783 161.963 818.658 170.322 815.983 177.909H815.962Z" fill="#FDFDFD"/>
<path d="M538.215 472.751L538.173 510.495L528.246 510.432L528.204 473.754C528.183 462.824 522.582 453.399 510.586 452.207C498.131 450.974 487.263 459.731 487.138 472.166L486.803 510.39L477.043 510.599L477.002 445.018L486.741 444.893L486.95 454.82C492.383 447.108 500.597 443.597 509.855 443.43C526.992 443.116 538.236 455.551 538.215 472.751Z" fill="white"/>
<path d="M796.505 445.039L754.958 541.216C751.468 541.592 748.166 541.383 744.174 541.3L759.242 507.381L731.112 444.976L741.854 444.914L764.529 495.97L786.118 444.955C789.692 444.893 792.931 444.705 796.505 445.039Z" fill="white"/>
<path d="M659.93 444.015L659.888 453.775C655.729 453.42 652.156 453.315 648.436 454.005C637.317 456.115 633.974 465.854 633.953 476.513L633.89 510.495C630.316 510.557 627.349 510.704 623.942 510.411V445.06C627.223 444.684 630.462 444.851 633.785 444.976L633.932 454.506C639.428 445.98 649.48 442.866 659.93 444.015Z" fill="white"/>
<path d="M757.716 119.496L756.922 151.597C757.507 152.453 757.382 153.561 756.483 154.94C756.212 156.926 755.501 158.117 754.373 158.556C752.513 163.802 750.276 168.88 747.622 173.812L746.389 174.021C744.675 174.293 743.693 172.997 743.421 170.134C741.269 168.943 738.928 167.898 736.379 166.999C736.755 169.34 736.065 171.012 734.33 172.036C737.883 175.296 734.602 176.048 731.237 175.526C726.41 173.081 722.46 173.854 717.381 175.087C713.139 176.195 711.634 168.483 715.73 168.107C716.148 164.596 721.185 165.557 721.833 168.922C724.424 165.766 725.929 165.683 726.389 168.692C727.726 169.214 726.723 163.091 726.556 162.819C724.8 159.935 714.56 162.297 712.387 164.491L707.81 165.306C705.887 168.128 703.651 170.552 701.101 172.558C696.608 173.708 696.294 176.717 700.181 181.524C700.976 182.861 696.232 186.456 695.354 186.686C694.121 187.02 693.138 186.665 692.114 185.975C690.442 188.316 690.401 185.662 690.61 184.136C690.819 183.238 690.464 181.984 690.422 181.127L689.502 179.768C691.425 160.311 692.365 140.917 692.323 121.586C692.323 121.586 692.052 120.98 691.508 119.768C689.502 119.057 688.227 117.866 687.684 116.215C684.403 115.023 682.041 112.599 680.62 108.942C677.799 106.518 676.169 103.257 675.688 99.1611C675.667 96.8204 675.186 94.5007 674.246 92.2227L675.813 79.5997L677.422 76.5484C676.775 75.7752 676.733 75.0646 677.255 74.4377C682.898 68.2725 689 62.5252 697.297 59.474C706.618 56.0257 716.441 55.0016 726.012 58.1574C737.214 61.8565 745.95 70.0698 750.966 80.7073C756.17 91.7002 758.009 107.374 757.716 119.496Z" fill="#959595"/>
<path d="M690.422 181.127L680.453 202.841C676.963 210.427 673.514 217.763 669.167 224.597C665.698 226.854 665.489 221.19 667.036 218.766L666.576 218.39C663.985 219.706 661.414 220.835 658.426 219.936C654.538 221.817 646.868 220.312 653.473 216.613L654.016 213.29L650.588 212.684C649.042 211.556 648.729 210.887 650.651 209.947C647.203 209.215 643.901 208.149 640.724 206.707C640.808 209.382 637.589 210.678 637.109 207.627C635.876 207.689 634.664 207.209 633.451 206.143L632.093 206.289C624.925 209.967 624.59 202.235 630.379 199.602C628.122 199.204 627.119 197.93 628.603 195.861C628.206 194.314 627.391 193.018 625.593 193.165C624.089 192.663 623.796 191.179 624.339 189.821C622.793 189.403 622.5 188.212 623.483 186.226C622.521 185.662 621.894 184.722 621.623 183.363C622.166 182.13 621.748 181.336 620.41 180.96C620.306 180.939 620.201 180.897 620.076 180.876C620.18 180.604 620.306 180.333 620.39 180.061C620.473 179.873 620.557 179.664 620.619 179.455C620.661 179.35 620.703 179.225 620.745 179.1C621.037 178.264 621.288 177.428 621.476 176.571C624.925 169.841 628.916 163.196 631.508 155.923L633.075 151.597C636.294 146.142 638.613 140.269 641.477 134.292C647.14 122.443 652.804 111.053 659.324 99.6418C664.57 90.4254 670.338 81.9404 677.255 74.4377C677.882 75.2109 678.698 76.4231 678.363 76.9873L676.879 79.4534C676.628 79.8505 675.73 90.091 675.312 91.4494C674.81 93.0586 676.838 95.1903 676.608 96.9249C676.294 99.1402 677.339 100.833 677.653 102.693C678.092 105.41 679.575 106.601 681.393 108.294C682.02 108.9 684.487 115.65 688.228 114.982L689.502 117.782C691.697 118.012 693.285 119.642 693.348 121.962L693.494 127.521C693.808 140.499 691.195 167.355 690.422 181.127Z" fill="#8A8A8A"/>
<path d="M810.465 189.173C803.13 206.749 794.248 223.615 784.404 240.125C780.287 247.021 775.564 252.706 770.402 258.265C768.96 258.495 768.124 257.701 767.226 256.489C766.745 255.841 765.616 255.945 765.449 255.402C765.24 254.712 765.721 253.249 765.366 252.789C763.965 250.992 761.228 251.87 759.389 252.309C758.866 252.434 758.406 251.285 758.03 251.118C757.131 250.7 753.934 252.852 753.014 253.918C752.429 253.207 752.262 252.309 751.635 251.849C747.769 252.037 743.359 254.169 741.833 250.658C740.872 250.114 739.534 250.323 738.552 249.634C738.803 248.108 739.305 246.123 737.988 245.349C737.675 245.161 737.006 245.349 736.734 245.412C736.379 245.454 736.86 245.914 736.88 246.415C736.839 248.213 735.146 249.216 733.286 249.425C733.913 249.843 734.853 251.535 734.247 251.933C731.656 252.727 729.942 250.72 728.855 248.651C728.375 247.732 726.786 247.397 726.18 246.248L722.272 238.808C720.37 235.172 721.979 233.249 720.412 232.288C719.973 232.016 719.346 232.476 718.719 232.497C715.145 232.643 720.099 222.883 720.746 221.734C722.063 219.414 722.021 214.482 726.305 212.684C726.473 211.744 726.41 210.887 726.849 210.197L732.011 202.298C736.65 195.15 739.973 187.292 743.61 179.706C742.669 178.64 743.296 177.428 744.697 177.198C745.491 176.216 745.846 175.15 746.389 174.021L752.952 160.667C753.39 159.789 753.641 158.953 754.373 158.556L755.041 160.228C749.879 192.162 785.805 209.424 808.898 188.525C809.755 187.794 810.298 188.044 810.465 189.173Z" fill="#A5A5A5"/>
<path d="M815.962 177.909C814.499 182.046 812.012 185.453 810.465 189.173C810.361 189.027 809.775 188.943 809.608 189.194C808.313 191.263 806.286 191.702 804.321 192.977C791.719 201.232 775.481 200.835 764.111 190.469C755.083 182.255 751.697 170.176 754.373 158.556C754.832 156.466 755.835 153.415 756.922 151.597C763.38 140.792 774.854 133.916 787.602 134.689C799.786 135.442 810.821 142.777 815.669 154.46C818.762 161.962 818.637 170.322 815.962 177.909Z" fill="#AEAEAE"/>
<path d="M660.223 240.229C659.847 240.856 659.366 241.671 658.864 242.131C658.593 241.755 658.3 241.337 658.195 240.94C658.049 240.271 658.446 239.623 659.282 239.247C659.658 239.31 659.93 240.041 660.223 240.229Z" fill="#8A8A8A"/>
<path d="M689.732 201.67C689.732 199.142 689.335 196.55 690.108 194.147C690.171 194.335 690.631 202.715 689.732 201.67Z" fill="#9D9D9D"/>
<path d="M617.066 185.578L618.592 182.193C620.201 181.461 622.124 185.369 622.438 187.208C622.5 187.564 621.643 188.107 621.309 188.065C620.87 188.003 620.703 186.561 620.181 186.435C619.094 186.143 617.756 186.602 617.046 185.599L617.066 185.578Z" fill="#8A8A8A"/>
<path d="M770.402 258.265C765.261 263.782 759.974 268.798 752.826 272.455C736.128 281.003 715.877 277.45 703.505 263.072C692.282 250.031 689.69 232.685 689.711 216.195C690.045 213.27 690.129 210.26 690.004 207.209C691.446 204.22 693.536 198.369 690.756 195.986L690.213 192.141C690.401 189.466 689.983 186.728 690.61 184.136C690.861 184.91 690.422 185.766 691.091 186.602C691.07 182.527 692.574 186.184 694.936 185.829C694.539 185.829 699.973 182.423 699.408 181.963C698.28 181.294 696.148 176.257 696.441 174.941C697.214 171.555 700.432 173.896 704.738 167.543C706.807 164.491 707.162 164.032 709.628 163.948C714.915 163.739 713.599 160.604 722.314 160.458C724.09 160.437 726.264 161.461 727.726 162.318C727.1 165.432 729.022 168.023 727.726 169.256C727.225 169.758 725.699 169.946 725.428 169.11C725.24 168.504 725.511 167.752 725.03 167.543C723.505 166.874 723.881 170.259 721.728 169.904C720.558 169.716 720.683 168.19 720.056 167.522C719.158 166.581 717.235 167.145 716.274 167.271L719.283 169.34C718.51 170.03 717.528 171.033 716.838 170.197C716.316 169.549 715.877 168.859 714.978 169.089C713.933 169.382 714.539 172.934 714.999 173.582C716.065 175.045 721.561 173.102 722.669 172.976C730.59 172.099 728.082 175.547 735.417 174.397C734.665 173.75 732.951 172.934 733.411 171.618C733.704 170.74 735.271 170.594 735.313 169.758C735.376 168.483 735.605 167.292 734.54 166.059C736.462 165.181 737.946 167.041 739.576 167.375C747.225 168.964 742.857 171.242 746.389 174.021C747.643 175.003 746.243 177.867 744.697 177.198C743.61 177.783 743.255 178.598 743.61 179.706C743.693 180.145 743.735 180.584 743.714 181.022C743.714 181.461 743.693 181.858 743.526 182.214C738.886 192.266 733.933 201.9 727.664 210.783C727.476 212.977 726.619 213.625 724.947 214.753C722.836 218.599 720.579 223.635 719.137 227.815C718.803 228.797 718.238 230.469 718.468 231.452C719.952 231.013 721.039 231.284 721.749 232.225C722.46 237.533 724.905 244.075 729.168 247.46C730.151 249.55 734.31 253.604 732.742 249.111C733.683 248.547 734.623 247.962 735.543 247.356C735.793 244.409 736.901 243.552 738.907 244.806C739.764 245.935 740.099 247.377 739.869 249.111C741.415 249.425 742.899 250.24 744.299 251.556C746.87 251.41 749.42 251.222 751.99 250.971L753.39 252.204C755.794 249.947 757.863 249.613 759.597 251.222C763.004 250.135 767.163 250.491 766.41 254.921C767.957 255.82 769.273 256.927 770.402 258.265Z" fill="#9D9D9D"/>
<path d="M692.908 200.187C692.678 202.883 692.783 205.537 690.296 207.334L690.212 215.673C690.212 216.028 689.941 216.258 689.711 216.195V201.671C689.941 199.184 690.067 196.697 690.108 194.147C690.296 193.583 690.171 192.747 690.213 192.141C691.132 192.914 690.63 194.46 691.257 195.526C693.723 196.571 693.055 198.222 692.908 200.187Z" fill="#959595"/>
<path d="M760.83 259.77C757.633 259.059 758.845 255.109 758.97 255.005C759.806 254.357 762.858 254.378 763.756 255.256C764.571 256.05 765.449 257.387 764.509 258.516C763.903 259.268 761.875 260 760.809 259.77H760.83Z" fill="#A5A5A5"/>
<path d="M713.347 174.795C709.899 175.045 705.218 177.073 707.684 173.52C708.499 172.349 709.167 171.555 710.4 171.743C711.989 171.994 713.18 171.994 713.326 174.795H713.347Z" fill="#959595"/>
<path d="M738.614 255.736C737.549 255.778 736.148 255.13 735.751 254.42C735.229 253.437 736.42 253.124 736.963 252.915C737.674 252.643 738.949 252.706 739.116 253.312C739.367 254.169 739.785 255.715 738.593 255.757L738.614 255.736Z" fill="#A5A5A5"/>
<path d="M744.697 177.198C744.237 177.762 743.944 178.995 743.63 179.685C742.69 179.413 742.105 178.368 742.732 177.281L744.717 177.198L744.697 177.198Z" fill="#959595"/>
<path d="M633.911 122.505L633.075 151.597C633.472 151.68 633.995 151.973 633.911 152.224C631.152 159.998 627.621 167.94 623.315 175.192L621.476 176.571C621.497 177.449 621.246 178.306 620.745 179.1C620.619 179.309 620.452 179.539 620.285 179.748C620.327 179.852 620.369 179.957 620.39 180.061C620.494 180.375 620.494 180.688 620.41 180.96C620.264 181.524 619.784 181.984 619.136 182.13C618.948 182.088 618.759 182.109 618.592 182.193C618.968 182.318 619.156 182.611 619.156 183.008C619.219 183.718 618.759 184.722 618.132 185.244C617.798 185.537 617.443 185.683 617.066 185.578C617.401 185.662 617.756 185.913 617.798 186.122C617.84 186.184 617.819 186.247 617.798 186.289C616.711 188.421 615.395 190.761 613.556 192.329C614.036 197.491 610.044 198.494 606.136 195.505C603.064 194.398 594.914 194.022 592.259 196.404C588.038 196.467 586.282 197.365 583.315 200.103C580.932 200.688 579.114 201.984 577.902 203.949C578.09 206.059 577.484 207.355 576.105 207.878C578.759 209.466 577.902 210.678 573.492 211.556C575.77 211.639 576.23 213.917 575.436 215.777C574.349 218.348 572.656 217.178 571.026 215.777L567.515 215.652C567.891 222.904 568.079 226.519 568.079 226.519C570.357 228.86 572.071 231.431 573.2 234.231C572.74 236.196 572.51 237.157 572.51 237.157C573.074 238.933 573.513 240.94 571.005 240.919C571.946 241.546 571.987 242.528 571.151 243.845C571.862 244.242 573.032 249.487 572.823 249.759C572.552 250.114 571.987 250.01 571.549 249.759C567.39 240.271 566.198 230.03 565.739 219.372C565.237 207.042 565.927 195.025 566.533 182.653C566.533 182.255 566.595 181.712 566.428 181.545C566.428 181.545 566.303 181.482 566.198 181.524C566.491 180.834 566.846 180.207 566.888 179.142L567.118 173.102C567.285 172.6 567.348 171.91 567.222 171.263C567.222 171.242 567.222 171.221 567.222 171.2C567.118 170.489 566.826 169.8 566.324 169.424C566.324 169.34 566.345 169.235 566.345 169.152C567.578 153.436 568.309 137.762 568.539 122.087C569.333 120.708 569.375 119.433 568.686 118.305C568.456 115.149 568.435 111.993 568.623 108.858C567.285 104.867 567.975 103.174 570.692 103.78L570.963 103.111C570.086 101.711 570.023 100.06 570.817 98.158C567.64 94.6052 571.841 92.4317 573.492 96.5697C573.555 95.6293 573.116 94.5843 572.155 93.3931C572.155 92.8288 573.931 84.6782 574.224 84.302C574.328 84.1766 574.474 84.0721 574.642 83.9676C577.4 83.4661 581.517 81.0836 579.03 78.4294L578.613 76.862C575.937 75.9842 576 74.2705 578.842 71.7417C580.41 70.6341 581.789 69.3175 583.001 67.7709C587.495 66.8514 591.653 64.9287 595.499 62.0028C597.338 62.0028 599.177 61.9192 601.037 61.7729C599.846 59.0352 601.852 58.8471 604.067 58.9725C609.689 60.6862 614.642 64.1972 618.905 68.6069C624.924 74.8348 628.623 82.4002 630.755 90.8643C633.388 101.272 634.245 111.68 633.932 122.505L633.911 122.505Z" fill="#7B7B7B"/>
<path d="M669.167 224.597C667.349 229.048 664.507 233.144 661.916 237.429L660.223 240.229C659.261 240.208 658.801 240.835 658.864 242.131C658.363 243.949 656.795 245.14 655.813 246.833C654.058 249.78 651.947 252.225 649.773 254.879C644.089 261.776 637.61 267.628 629.794 271.975C612.322 281.672 590.922 277.262 578.445 261.86C575.31 257.993 573.429 254.043 571.549 249.759C572.928 248.693 571.131 249.571 571.068 245.287C571.047 244.806 569.96 244.43 570.023 243.949C570.128 243.26 570.483 242.8 571.005 242.047C570.065 241.546 568.999 241.065 569.166 239.435C570.232 239.184 570.838 240.041 571.883 239.978C572.301 239.038 571.34 237.7 571.549 236.823C572.844 234.649 572.092 233.061 570.734 231.389L567.285 227.209C566.637 226.394 566.136 216.509 566.596 214.126C568.163 214.9 569.417 215.464 570.984 214.649C572.176 215.067 572.531 216.174 574.244 216.467C574.558 215.318 574.683 214.105 574.788 212.872C573.659 212.538 572.468 212.643 571.841 211.765C573.179 209.863 575.08 210.281 577.108 209.549C576.188 209.111 574.579 208.505 575.227 207.397C575.54 206.854 576.501 206.686 576.836 206.185C577.797 204.805 574.453 205.579 579.574 200.438C582.52 199.894 584.13 198.389 585.948 196.634C587.411 195.275 590.587 196.174 592.28 195.317C593.2 194.858 593.701 193.729 595.018 193.917C596.544 194.168 598.028 193.478 599.511 193.666L605.656 194.398C607.495 194.628 608.393 195.589 609.856 196.383C610.985 196.989 613.367 193.959 612.74 192.83C611.277 190.866 606.512 193.395 605.906 192.245C605.802 192.036 605.906 191.576 606.241 191.367C607.892 190.385 606.199 188.755 606.387 187.668C606.659 186.101 609.292 186.435 610.295 186.999C611.842 187.898 613.012 188.964 612.448 191.2C613.075 193.039 616.586 186.393 617.066 185.578C617.401 185.39 617.756 185.286 618.132 185.244C619.052 185.119 620.055 185.369 620.912 185.704C620.369 184.763 619.804 183.865 619.156 183.008C618.989 182.736 618.801 182.464 618.592 182.193L621.476 176.571C621.706 177.093 621.727 177.679 621.831 178.347C621.915 178.974 620.724 179.037 620.619 179.455C620.348 180.751 621.894 180.479 622.333 180.834C623.524 181.817 621.957 184.345 622.814 184.784L624.444 185.578C625.886 186.289 623.148 187.459 623.963 188.588C624.569 189.403 625.343 188.086 625.886 189.11C626.304 189.904 624.862 189.612 625.113 191.305C625.154 191.597 625.301 192.245 625.823 192.203C629.355 191.953 629.69 196.613 629.773 196.362C629.669 196.655 629 197.073 628.749 197.407C628.854 198.452 630.316 198.619 631.696 198.578C631.988 201.315 627.203 201.817 627.412 203.907C627.495 204.659 627.349 206.331 628.268 206.436C629.961 206.645 633.012 203.635 635.186 206.101C636.022 207.042 637.088 206.812 638.175 206.038V208.734C638.843 208.233 639.554 208.045 639.888 207.397C639.491 206.833 639.219 206.164 639.47 205.683C640.223 204.367 641.205 206.874 647.057 207.898C646.973 207.878 656.085 209.967 652.219 210.699C645.552 211.932 656.336 211.807 655.103 213.019L654.35 216.969C654.183 217.825 651.654 217.909 651.821 219.309C651.926 220.083 657.673 219.623 658.196 218.85C663.504 220.292 664.904 217.24 666.785 217.428C667.203 217.47 668.248 218.39 668.06 218.85C667.412 220.438 666.409 222.695 667.663 224.221C667.935 224.555 669.502 223.761 669.167 224.597Z" fill="#838383"/>
<path d="M567.849 179.476C567.724 180.604 567.598 181.566 566.428 181.545C566.428 181.545 566.282 181.545 566.198 181.524C557.253 202.381 547.849 221.546 535.811 241.149C528.413 253.187 518.131 265.162 505.696 272.017C489.165 281.108 468.976 277.785 456.27 263.803C450.355 257.262 446.74 249.446 444.65 241.149L444.901 237.93C446.384 235.151 447.158 232.267 447.241 229.257C445.59 227.146 446.656 225.663 450.418 224.848L450.773 223.573C450.313 221.065 450 218.557 453.365 218.641C455.183 216.948 457.127 215.422 459.237 214.105C460.136 211.138 461.599 209.905 464.567 208.923C466.301 207.564 468.099 206.624 469.938 206.059C469.854 203.781 470.356 203.175 472.654 203.154C472.111 201.796 472.257 200.793 473.135 200.187C479.53 197.742 481.537 198.431 479.112 202.214C480.68 204.011 482.393 203.259 484.253 199.915C492.383 184.262 500.325 168.42 508.057 152.391L507.828 147.041C507.535 144.261 507.995 143.07 509.228 143.509C509.269 143.509 509.332 143.53 509.374 143.551C509.29 146.163 509.29 148.754 509.499 151.659C511.589 146.915 513.596 142.401 515.915 137.95C518.507 135.379 520.68 138.033 520.952 141.105L527.222 155.923C529.291 157.678 531.213 159.559 532.99 161.586C534.076 162.234 535.226 162.694 536.48 162.966C537.734 165.578 539.845 165.933 542.499 166.017L543.983 167.355C548.455 168.817 553.136 169.319 558.048 168.859C559.928 169.862 561.977 170.448 564.192 170.615C565.132 169.361 565.843 168.985 566.345 169.152C566.867 169.319 567.181 170.134 567.222 171.2C567.222 171.221 567.222 171.242 567.222 171.263C567.264 171.827 567.223 172.454 567.118 173.102C568.539 173.353 568.184 178.222 567.87 179.476H567.849Z" fill="#6A6A6A"/>
<path d="M509.353 143.551C509.353 143.551 509.248 143.488 509.207 143.509C508.392 143.655 509.081 151.597 508.977 152.663L490.147 190.887C488.809 193.583 483.438 205.997 479.969 204.137C478.611 203.405 477.984 202.068 476.207 202.026C476.939 201.378 477.67 201.629 478.631 201.274C479.028 201.127 479.342 200.208 479.175 199.873C478.548 198.598 475.58 201.357 473.219 200.939C473.323 202.36 473.971 203.113 473.511 204.325L470.773 204.199C471.108 205.161 471.003 205.913 470.794 206.456C470.439 207.334 469.373 206.916 468.809 207.313C466.615 208.943 464.441 210.365 461.724 211.18L459.906 214.795C457.67 216.154 455.935 217.763 453.971 219.435C453.386 219.915 451.839 219.351 451.567 220.229C451.045 221.817 452.529 223.51 451.149 225.475C450.543 226.373 446.823 226.624 447.283 227.439L448.161 228.944C448.412 229.383 448.014 232.894 447.513 234.148L444.629 241.149C440.136 223.259 441.536 201.065 442.769 182.151C442.811 181.629 442.852 180.834 442.414 181.022C441.745 179.831 441.682 178.326 442.205 176.487C442.581 165.578 443.312 154.146 444.148 142.924C444.253 141.398 444.775 139.956 445.298 138.535C445.36 138.221 445.423 137.929 445.444 137.657C445.527 136.779 445.548 135.714 445.193 135.087C445.172 135.045 445.151 135.024 445.11 134.982C444.984 134.794 444.817 134.648 444.587 134.585V134.355C444.524 127.208 444.524 120.018 444.629 112.829C445.34 109.172 446.949 105.87 449.477 102.923C450.125 100.687 450.627 99.6628 452.717 98.5551C460.136 89.903 471.359 88.2728 482.08 88.6281C484.211 88.3355 485.8 86.7263 486.803 83.7587C487.472 83.0063 488.287 82.5047 489.29 82.2539C485.173 76.6948 491.317 76.6321 495.183 78.8892C496.834 78.4503 497.963 77.6771 498.569 76.6112C499.175 75.9425 499.969 76.0888 500.931 77.0292C503.313 81.2717 505.654 85.3052 506.887 90.5299C511.067 107.96 509.959 125.87 509.353 143.551Z" fill="#5E5E5E"/>
<path d="M445.444 137.657C445.423 137.929 445.36 138.221 445.298 138.535C445.005 148.148 444.42 157.678 443.501 167.584C443.103 172.057 443.73 176.968 442.414 181.022C439.216 187.459 433.782 192.914 426.99 195.819C408.139 203.886 386.655 192.747 382.225 172.893C380.95 167.166 381.18 161.419 383.583 156.048C390.145 141.314 404.921 109.026 413.218 96.9041L413.866 96.5697C414.869 97.4057 415.496 98.8268 415.705 100.833C419.467 101.962 420.303 103.404 418.213 105.201C418.861 106.706 418.505 107.939 418.004 109.381C419.696 110.865 420.177 112.202 419.467 113.373C420.762 123.091 431.442 128.942 439.384 133.185C440.846 133.206 441.975 133.603 442.748 134.376C443.521 134.167 444.127 134.146 444.587 134.355C445.444 134.71 445.736 135.818 445.444 137.657Z" fill="#505050"/>
<path d="M500.931 77.0292C500.513 77.5726 499.907 76.8411 499.531 77.0501C499.029 77.3427 498.966 78.4085 498.465 78.4921C497.211 78.6802 495.873 80.1849 494.849 79.8296L490.795 78.3667C490.001 78.0741 489.207 78.5548 488.914 79.2445C488.245 80.7701 490.44 80.9582 490.294 82.1912C489.98 84.8036 488.329 81.2508 486.051 87.3115C485.09 89.8193 481.892 89.7566 479.865 89.5686C478.339 89.4432 472.362 89.9447 470.92 90.2373L466.302 91.136C463.501 91.7003 460.617 93.414 458.13 95.0023C455.831 96.4861 453.825 99.7046 451.066 100.687C451.233 104.156 447.43 105.786 445.967 111.115C445.152 114.146 445.549 117.385 445.549 120.478L445.591 136.027C445.591 136.967 446.092 138.096 445.298 138.535C445.319 137.511 445.109 136.424 445.193 135.087L445.193 134.961C445.193 134.961 445.131 134.982 445.11 134.982C441.369 136.278 441.933 134.188 441.097 134.334C439.049 134.71 437.962 133.352 436.562 132.788C433.866 131.701 432.027 130.531 429.895 128.754L423.981 123.822C421.933 122.108 420.825 121.189 420.01 118.43C419.383 116.361 417.335 114.041 419.153 111.826C417.983 111.157 417.461 110.593 417.189 110.05C416.646 108.984 417.607 108.064 417.607 106.977C417.607 106.225 417.084 105.577 417.251 104.825C417.356 104.407 418.067 104.072 418.61 103.362C417.711 102.171 415.559 102.651 414.827 101.272C414.033 99.809 414.514 97.8446 413.218 96.9041C413.887 95.9219 413.95 94.2499 415.224 93.6647L417.21 90.9061C419.864 90.4463 421.034 88.4609 420.742 84.9708C425.026 78.4085 430.021 72.5568 436.186 67.3112C447.576 57.614 462.979 53.6432 477.482 57.9902C487.681 61.0415 495.978 68.168 500.931 77.0292Z" fill="#565656"/>
<path d="M421.076 89.4432C420.47 90.9897 419.007 91.8048 417.022 91.6376C416.395 92.6199 416.019 93.3095 415.224 93.6647C416.52 90.4881 418.861 87.8339 420.742 84.9708C421.808 86.2247 421.703 87.834 421.076 89.4432Z" fill="#505050"/>
<path d="M601.371 60.4564C601.81 61.0624 602.792 61.5849 602.458 62.4418C595.269 64.3227 598.341 60.6235 592.677 65.0541C591.695 65.8274 590.065 65.8692 589.083 66.9559C587.62 68.5861 584.401 67.7083 582.959 68.9622C582.019 69.7773 582.019 71.2611 580.347 71.8881C579.177 72.3061 578.633 74.0825 577.086 75.0647C581.162 76.2769 578.717 77.4054 580.472 78.5967C581.496 79.2863 581.476 77.5935 584.652 77.4472C585.175 77.4263 584.945 78.2205 584.882 78.5967C584.61 79.9551 581.204 78.743 580.012 81.8987C579.176 84.114 576.648 84.1976 574.934 84.8246C574.558 87.4996 574.203 90.927 573.074 93.3722C573.45 94.2291 574.641 94.9814 574.579 95.7338C574.474 96.7997 574.349 98.0745 573.241 98.597C572.154 96.9877 572.531 95.7338 571.235 95.2531C570.733 95.0859 570.127 95.9219 570.566 96.2772C573.555 98.6179 569.96 100.185 571.611 102.233C572.238 103.028 571.841 103.864 571.339 104.574C570.88 105.18 569.772 104.344 569.103 104.532C568.476 105.995 569.855 107.897 569.542 109.381C569.04 111.951 569.521 114.02 569.793 116.445C569.918 117.531 568.999 118.764 570.629 119.517C570.441 120.541 569.542 121.21 569.521 122.171L569.229 138.827L567.243 170.594C567.18 171.534 567.975 172.663 567.097 173.102C567.139 172.036 567.139 170.782 566.345 169.674L564.861 171.325C564.129 172.12 562.729 170.886 562.018 171.116C560.096 171.743 559.197 170.113 557.901 169.821C557.922 169.842 543.607 170.719 542.039 166.79C539.719 167.166 536.814 166.268 535.916 163.697C532.76 163.363 530.858 161.398 529.374 159.016C528.685 157.887 526.908 157.532 526.281 156.299C524.985 153.687 524.108 150.949 523 148.316L521.37 144.407C520.576 142.506 519.614 141.419 519.489 139.078C519.426 137.72 516.856 137.992 515.895 137.95C517.107 135.63 517.671 132.871 519.426 130.886C519.928 129.674 520.597 129.277 521.453 129.736L523.084 128.859C524.003 126.727 524.275 124.303 523.878 121.586C528.538 111.324 534.077 101.46 540.158 91.6794C547.87 79.2863 558.027 66.6007 571.423 60.3101C579.511 56.5274 588.456 55.2734 597.066 57.0707C599.616 57.6141 601.831 58.3038 604.046 58.9725C603.294 59.5577 602.249 59.5577 601.371 60.4564Z" fill="#737373"/>
<path d="M523.439 129.841C520.283 131.722 521.913 129.82 519.426 130.886C520.053 127.458 522.478 124.679 523.878 121.586C525.299 123.216 525.571 128.545 523.439 129.841Z" fill="#6A6A6A"/>
<path d="M572.259 85.2425C572.405 86.4128 569.103 85.9531 569.312 84.9917C570.483 83.7796 570.796 82.8391 571.528 81.0209C571.59 82.7137 572.05 83.696 572.259 85.2425Z" fill="#7B7B7B"/>
<path d="M593.325 57.5514C593.617 57.217 594.683 57.2797 595.122 57.3633C595.874 57.5096 595.561 58.7845 595.248 59.3278C594.955 59.8085 593.973 59.8712 593.45 59.5995C592.802 59.2442 592.886 58.0948 593.325 57.5514Z" fill="#7B7B7B"/>
<path d="M717.089 444.956L716.754 455.907C710.965 447.84 702.083 443.639 692.24 443.472C677.82 443.2 665.113 451.748 660.39 465.416C656.879 475.635 657.568 486.942 663.19 496.221C669.732 507.088 681.728 512.334 694.225 511.477C703.504 510.85 711.425 506.796 716.817 499.084C717.131 504.956 717.172 510.307 716.19 515.615C714.017 527.277 704.299 534.34 692.72 533.881C683.065 533.504 674.873 528.196 672.407 518.457C668.875 518.478 665.573 518.206 662.166 518.624C666.221 539.607 688.394 546.901 706.388 540.631C720.767 535.636 726.848 522.407 726.869 507.736V444.914L717.089 444.956ZM707.956 497.788C699.91 503.974 688.938 504.559 680.348 499.669C671.738 494.758 667.642 485.479 668.289 475.781C668.937 466.252 674.413 457.955 682.459 454.36C691.592 450.285 702 451.706 709.147 458.226C719.952 468.091 720.642 487.987 707.956 497.788Z" fill="white"/>
<path d="M439.969 443.89C431.63 442.782 423.354 443.973 416.039 448.153C405.339 454.276 399.55 465.457 399.446 477.746C399.299 493.337 409.101 506.858 424.294 510.745C442.226 515.301 461.411 507.443 466.782 488.948H456.249C454.243 493.128 451.923 496.869 447.639 499.502C437.983 505.395 425.736 504.392 417.335 497.078C412.466 492.856 410 486.837 409.561 480.484L467.827 480.442C469.771 462.239 457.942 446.293 439.969 443.89ZM409.874 472.103C411.4 461.466 419.989 453.566 430.69 452.27C438.903 451.267 446.845 453.838 452.425 459.898C455.288 463.305 457.106 467.213 457.858 472.061L409.874 472.103Z" fill="white"/>
<path d="M598.006 447.213C586.846 441.612 573.158 442.259 562.541 448.801C552.718 454.862 547.452 465.332 547.055 476.722C546.637 488.781 551.903 500.129 562.207 506.566C572.928 513.274 586.7 513.797 597.965 508.258C606.053 504.288 611.591 497.37 614.099 488.969H603.649C601.977 492.689 599.95 495.97 596.418 498.52C587.285 505.103 575.039 504.873 566.24 498.164C560.577 493.838 557.295 487.485 557.065 480.484L615.144 480.442C616.586 466.69 610.316 453.42 598.006 447.213ZM557.463 472.103C558.57 465.081 562.541 459 568.79 455.426C576.627 450.953 586.115 450.933 593.994 455.238C600.159 458.811 604.234 464.58 605.133 472.061L557.463 472.103Z" fill="white"/>
<path d="M705.636 316.594L705.532 340.231C694.622 339.708 679.554 336.991 674.288 349.176C672.762 352.707 671.989 356.469 671.989 360.774L671.926 404.746H646.973L646.994 316.824H671.236L671.508 330.45C678.823 317.952 691.78 314.734 705.636 316.594Z" fill="white"/>
<path d="M754.373 315.089C743.046 315.236 732.596 318.788 724.069 326.27C707.914 340.419 703.484 364.223 713.703 383.199C721.833 398.309 737.863 406.752 754.853 406.585C770.778 406.439 785.073 399.166 793.746 385.853C795.648 382.739 797.32 379.772 798.24 375.717L773.182 375.634C769.42 382.196 762.795 385.79 755.418 386.02C747.999 386.271 741.206 383.554 736.253 378.1C734.038 375.299 732.304 372.185 731.718 368.486L799.828 368.444C803.59 340.126 783.276 314.713 754.373 315.089ZM733.16 349.635C737.006 339.98 746.515 334.964 756.505 335.717C764.634 336.448 772.262 340.92 775.146 349.531L733.16 349.635Z" fill="white"/>
<path d="M538.612 350.534V404.767L513.616 404.725V353.585C513.574 344.16 509.917 335.445 499.301 335.257C488.161 335.048 482.832 343.407 482.519 354.045V404.746H457.9L457.879 353.543C457.607 344.452 454.389 335.946 444.211 335.278C432.716 334.504 426.99 343.951 426.948 354.547V404.725H401.891L401.911 316.803H426.154L426.342 325.434C430.104 321.631 434.138 318.6 439.195 316.887C452.633 312.414 469.582 315.34 477.231 328.694C487.012 315.57 504.358 312.122 519.155 317.158C533.763 322.989 538.173 335.654 538.612 350.534Z" fill="white"/>
<path d="M592.824 314.859C567.473 314.859 546.93 335.403 546.93 360.754C546.93 386.104 567.473 406.669 592.824 406.669C618.174 406.669 638.718 386.104 638.718 360.754C638.718 335.403 618.174 314.859 592.824 314.859ZM592.845 383.304C580.389 383.304 570.274 373.188 570.274 360.733C570.274 348.277 580.389 338.162 592.845 338.162C605.3 338.162 615.416 348.256 615.416 360.733C615.416 373.209 605.321 383.304 592.845 383.304Z" fill="white"/>
</svg>
