<svg width="748" height="181" viewBox="0 0 748 181" fill="none" xmlns="http://www.w3.org/2000/svg">
<path d="M87.0898 18.7299H114L160.79 132.97H162.51L209.3 18.7299H236.21V165.69H215.11V59.34H213.75L170.41 165.47H152.9L109.56 59.2599H108.2V165.68H87.0998V18.7299H87.0898Z" fill="black"/>
<path d="M266.78 55.47V165.69H288.24V55.47H266.78ZM287.19 16.61C284.53 14.1 281.34 12.84 277.61 12.84C273.88 12.84 270.68 14.1 268.03 16.61C265.38 19.12 264.05 22.2 264.05 25.69C264.05 29.18 265.37 32.18 268.03 34.69C270.69 37.2 273.88 38.46 277.61 38.46C281.34 38.47 284.53 37.21 287.19 34.7C289.84 32.19 291.17 29.12 291.17 25.62C291.17 22.12 289.85 19.12 287.19 16.61Z" fill="black"/>
<path d="M338.53 100.25V165.7H317.07V55.4799H337.66V73.42H339.02C341.56 67.58 345.54 62.9 350.97 59.36C356.4 55.82 363.25 54.05 371.53 54.05C379.04 54.05 385.62 55.62 391.26 58.75C396.9 61.88 401.28 66.54 404.39 72.71C407.5 78.88 409.05 86.51 409.05 95.6V165.71H387.59V98.18C387.59 90.19 385.51 83.94 381.35 79.42C377.19 74.9 371.47 72.64 364.2 72.64C359.22 72.64 354.81 73.72 350.96 75.87C347.11 78.02 344.07 81.17 341.85 85.31C339.63 89.45 338.51 94.44 338.51 100.27L338.53 100.25Z" fill="black"/>
<path d="M512.19 18.72V73.33H510.9C509.61 71.03 507.8 68.37 505.48 65.36C503.16 62.35 499.91 59.7 495.72 57.43C491.53 55.16 486.02 54.02 479.18 54.02C470.33 54.02 462.41 56.27 455.43 60.77C448.44 65.27 442.95 71.75 438.96 80.22C434.97 88.69 432.97 98.8699 432.97 110.79C432.97 122.71 434.94 132.91 438.89 141.4C442.84 149.89 448.29 156.42 455.25 160.99C462.21 165.56 470.14 167.84 479.04 167.84H479.05C485.75 167.83 491.2 166.71 495.41 164.46C499.62 162.22 502.94 159.59 505.35 156.57C507.76 153.55 509.62 150.87 510.91 148.53H512.7V165.68H533.65V18.72H512.19ZM509.21 130.96C506.99 136.8 503.73 141.35 499.45 144.63C495.17 147.91 489.94 149.55 483.77 149.55H483.76C477.39 149.55 472.05 147.84 467.72 144.42C463.39 141 460.13 136.34 457.93 130.46C455.73 124.57 454.63 117.85 454.63 110.58C454.63 103.31 455.72 96.78 457.9 90.99C460.07 85.2 463.31 80.63 467.62 77.28C471.93 73.94 477.5 72.2599 483.77 72.2599C490.04 72.2599 495.3 73.8599 499.56 77.0699C503.82 80.2799 507.05 84.75 509.25 90.49C511.45 96.23 512.55 102.83 512.55 110.58C512.55 118.33 511.43 125.12 509.21 130.96Z" fill="black"/>
<path d="M72.1 99.5899V81.0799H45.31V54.2899H26.79V81.0799H0V99.5899H26.79V126.39H45.31V99.5899H72.1Z" fill="black"/>
<path d="M567.11 0V180.67H747.78V0H567.11ZM630.91 144.91L630.79 111.15L596.89 111.13L596.82 88.06L632.75 88.21C638.64 88.23 644.92 91.43 649.24 95.07C654.63 99.6 656.15 106.47 656.92 113.13L656.96 144.85L630.91 144.91ZM687.75 92.81C672.85 92.08 661.55 83.12 661.48 67.68L661.33 35.77H686.67L686.73 69.64L719.93 69.7L720 92.79L687.75 92.81Z" fill="black"/>
</svg>
