<svg width="1501" height="181" viewBox="0 0 1501 181" fill="none" xmlns="http://www.w3.org/2000/svg">
<path d="M182.34 94.07C178.13 90.86 173.56 88.28 168.63 86.32C163.7 84.36 158.89 82.8 154.21 81.65L139.86 77.92C136.99 77.2 134 76.28 130.89 75.16C127.78 74.04 124.87 72.62 122.17 70.93C119.47 69.23 117.29 67.12 115.64 64.58C113.99 62.04 113.16 59.03 113.16 55.54C113.16 51.38 114.37 47.66 116.78 44.38C119.2 41.1 122.6 38.52 127.01 36.63C131.42 34.74 136.63 33.8 142.65 33.8C151.07 33.8 158.05 35.68 163.6 39.43C169.15 43.19 172.31 48.46 173.07 55.25H194.45C194.26 47.36 191.96 40.36 187.56 34.26C183.16 28.16 177.14 23.36 169.51 19.87C161.88 16.38 153.09 14.63 143.14 14.63C133.19 14.63 124.43 16.39 116.59 19.9C108.74 23.42 102.53 28.33 97.9298 34.65C93.3398 40.96 91.0398 48.36 91.0398 56.82C91.0398 67.06 94.4698 75.29 101.34 81.51C108.2 87.73 117.52 92.44 129.29 95.65L146.66 100.39C151.92 101.78 156.65 103.38 160.83 105.2C165.02 107.02 168.34 109.31 170.8 112.09C173.26 114.87 174.5 118.43 174.5 122.78C174.5 127.56 173.09 131.74 170.27 135.3C167.45 138.86 163.58 141.64 158.68 143.62C153.77 145.61 148.19 146.6 141.92 146.6C136.23 146.6 131 145.75 126.24 144.05C121.48 142.35 117.58 139.74 114.54 136.23C111.5 132.71 109.77 128.3 109.34 122.99H87.0898C87.5698 131.84 90.0798 139.48 94.6298 145.92C99.1698 152.35 105.47 157.32 113.5 160.81C121.54 164.3 131.06 166.05 142.06 166.05C153.06 166.05 163.34 164.18 171.45 160.45C179.56 156.72 185.75 151.62 190.04 145.16C194.32 138.7 196.46 131.31 196.46 122.99C196.46 116.39 195.16 110.72 192.55 105.98C189.94 101.24 186.53 97.27 182.32 94.07H182.34Z" fill="black"/>
<path d="M312.66 79C308.4 70.44 302.42 63.79 294.72 59.05C287.02 54.31 278 51.95 267.67 51.95C257.34 51.95 248.32 54.32 240.62 59.05C232.92 63.79 226.94 70.44 222.68 79C218.42 87.56 216.29 97.56 216.29 109C216.29 120.44 218.42 130.34 222.68 138.85C226.94 147.37 232.92 153.99 240.62 158.73C248.32 163.47 257.34 165.83 267.67 165.83C278 165.83 287.02 163.46 294.72 158.73C302.42 153.99 308.4 147.37 312.66 138.85C316.92 130.34 319.05 120.38 319.05 109C319.05 97.62 316.92 87.57 312.66 79ZM294.18 128.37C292.05 134.25 288.79 138.97 284.39 142.51C279.99 146.05 274.44 147.82 267.74 147.82C261.04 147.82 255.41 146.05 250.98 142.51C246.55 138.97 243.28 134.26 241.15 128.37C239.02 122.49 237.96 116 237.96 108.92C237.96 101.84 239.02 95.42 241.15 89.51C243.28 83.6 246.56 78.85 250.98 75.27C255.4 71.68 260.99 69.89 267.74 69.89C274.49 69.89 279.99 71.68 284.39 75.27C288.79 78.86 292.06 83.61 294.18 89.51C296.31 95.42 297.37 101.89 297.37 108.92C297.37 115.95 296.3 122.48 294.18 128.37Z" fill="black"/>
<path d="M364.4 16.64H342.94V163.6H364.4V16.64Z" fill="black"/>
<path d="M475.54 70.79C472.76 65.74 469.21 61.86 464.88 59.13H464.89C460.56 56.39 455.92 54.52 450.97 53.49C446.02 52.46 441.34 51.95 436.94 51.95C430.29 51.95 423.95 52.9 417.92 54.78C411.89 56.67 406.57 59.68 401.95 63.82C397.33 67.96 393.83 73.38 391.44 80.07L411.61 84.66C413.19 80.78 416.05 77.26 420.19 74.08C424.33 70.9 430.01 69.31 437.23 69.31C444.45 69.31 449.39 71.03 452.91 74.48C456.43 77.92 458.18 82.78 458.18 89.05V89.55C458.18 92.13 457.25 94 455.38 95.15C453.51 96.3 450.52 97.12 446.41 97.63C442.3 98.13 436.94 98.77 430.34 99.53C425.13 100.15 420.01 101.06 414.98 102.26C409.96 103.46 405.41 105.23 401.35 107.57C397.28 109.91 394.05 113.1 391.66 117.11C389.27 121.13 388.07 126.25 388.07 132.47C388.07 139.69 389.71 145.79 392.99 150.77C396.27 155.75 400.73 159.54 406.37 162.14C412.01 164.75 418.33 166.05 425.32 166.05C431.39 166.05 436.61 165.16 440.96 163.4C445.31 161.63 448.88 159.41 451.65 156.73C454.42 154.05 456.5 151.32 457.89 148.55H458.75V163.62H479.7V90.42C479.7 82.38 478.31 75.84 475.54 70.79ZM454.91 136.09C452.69 139.89 449.46 142.97 445.22 145.31C440.99 147.65 435.9 148.83 429.97 148.83C424.04 148.83 418.89 147.48 414.97 144.78C411.05 142.08 409.09 138.07 409.09 132.76C409.09 128.93 410.11 125.86 412.14 123.54C414.17 121.22 416.9 119.44 420.32 118.19C423.74 116.95 427.53 116.06 431.69 115.53C433.46 115.29 435.66 114.99 438.29 114.63C440.92 114.27 443.62 113.87 446.4 113.41C449.17 112.96 451.65 112.41 453.83 111.76C456.01 111.11 457.48 110.41 458.24 109.64V123.85C458.24 128.2 457.13 132.28 454.9 136.09H454.91Z" fill="black"/>
<path d="M558.14 51.73C551.68 51.73 545.9 53.44 540.81 56.86C535.72 60.28 532.16 64.96 530.15 70.89H529V53.38H508.26V163.6H529.72V96.29C529.72 91.51 530.87 87.24 533.16 83.48C535.46 79.73 538.58 76.78 542.53 74.65C546.48 72.52 550.99 71.46 556.06 71.46C558.26 71.46 560.46 71.62 562.66 71.93C564.86 72.24 566.39 72.52 567.25 72.76V52.24C566.2 52.1 564.75 51.98 562.91 51.88C561.07 51.79 559.48 51.74 558.14 51.74V51.73Z" fill="black"/>
<path d="M626.49 41.25C633.16 36.99 640.73 34.86 649.2 34.86C653.89 34.86 658.32 35.51 662.51 36.8C666.7 38.09 670.49 40.01 673.88 42.54C677.28 45.08 680.15 48.16 682.49 51.8C684.83 55.44 686.44 59.65 687.3 64.43H709.69C708.45 56.54 706.05 49.52 702.51 43.37C698.97 37.22 694.5 32.01 689.09 27.73C683.68 23.45 677.6 20.19 670.83 17.97C664.06 15.75 656.78 14.63 648.98 14.63C636.3 14.63 624.99 17.66 615.04 23.71C605.09 29.76 597.24 38.42 591.5 49.69C585.76 60.96 582.89 74.44 582.89 90.13C582.89 105.82 585.75 119.24 591.47 130.53C597.19 141.82 605.02 150.49 614.97 156.54C624.92 162.59 636.26 165.62 648.98 165.62C657.06 165.62 664.53 164.42 671.37 162.03C678.21 159.64 684.3 156.25 689.63 151.88C694.96 147.5 699.34 142.29 702.76 136.24C706.18 130.19 708.49 123.55 709.69 116.33L687.3 116.26C686.39 120.95 684.75 125.1 682.38 128.71C680.01 132.32 677.13 135.37 673.73 137.86C670.33 140.35 666.54 142.23 662.35 143.49C658.16 144.76 653.75 145.39 649.11 145.39C640.74 145.39 633.2 143.28 626.5 139.07C619.8 134.86 614.53 128.64 610.68 120.41C606.83 112.18 604.9 102.09 604.9 90.13C604.9 78.17 606.83 68.22 610.68 59.99C614.53 51.76 619.79 45.52 626.47 41.26H626.49V41.25Z" fill="black"/>
<path d="M825.95 79C821.69 70.44 815.71 63.79 808.01 59.05C800.31 54.31 791.29 51.95 780.96 51.95C770.63 51.95 761.61 54.32 753.91 59.05C746.21 63.79 740.23 70.44 735.97 79C731.71 87.56 729.58 97.56 729.58 109C729.58 120.44 731.71 130.34 735.97 138.85C740.23 147.37 746.21 153.99 753.91 158.73C761.61 163.47 770.63 165.83 780.96 165.83C791.29 165.83 800.31 163.46 808.01 158.73C815.71 153.99 821.69 147.37 825.95 138.85C830.21 130.34 832.34 120.38 832.34 109C832.34 97.62 830.21 87.57 825.95 79ZM807.47 128.37C805.34 134.25 802.08 138.97 797.68 142.51C793.28 146.05 787.73 147.82 781.03 147.82C774.33 147.82 768.7 146.05 764.27 142.51C759.84 138.97 756.57 134.26 754.44 128.37C752.31 122.49 751.25 116 751.25 108.92C751.25 101.84 752.31 95.42 754.44 89.51C756.57 83.6 759.85 78.85 764.27 75.27C768.69 71.68 774.28 69.89 781.03 69.89C787.78 69.89 793.28 71.68 797.68 75.27C802.08 78.86 805.35 83.61 807.47 89.51C809.6 95.42 810.66 101.89 810.66 108.92C810.66 115.95 809.6 122.48 807.47 128.37Z" fill="black"/>
<path d="M930.43 56.65C924.78 53.52 918.21 51.95 910.7 51.95C902.42 51.95 895.57 53.72 890.14 57.26C884.71 60.8 880.73 65.49 878.19 71.32H876.83V53.38H856.24V163.6H877.7V98.15C877.7 92.31 878.81 87.33 881.04 83.19C883.26 79.05 886.3 75.91 890.15 73.75C894 71.6 898.41 70.52 903.39 70.52C910.66 70.52 916.38 72.78 920.54 77.3C924.7 81.82 926.78 88.08 926.78 96.06V163.59H948.24V93.48C948.24 84.39 946.68 76.76 943.58 70.59C940.47 64.42 936.09 59.77 930.45 56.63L930.43 56.65Z" fill="black"/>
<path d="M1023.5 145.59C1022.21 145.83 1020.7 145.95 1018.98 145.95C1016.64 145.95 1014.47 145.58 1012.49 144.84C1010.5 144.1 1008.89 142.69 1007.65 140.61C1006.41 138.53 1005.78 135.41 1005.78 131.25V70.61H1028.38V53.39H1005.78V26.98H984.32V53.39H968.17V70.61H984.32V135.7C984.32 142.35 985.83 147.88 988.84 152.28C991.85 156.68 995.8 159.93 1000.68 162.04C1005.56 164.14 1010.82 165.15 1016.47 165.05C1019.91 165 1022.78 164.73 1025.08 164.22C1027.38 163.72 1029.15 163.23 1030.39 162.75L1026.51 145.03C1025.79 145.17 1024.79 145.36 1023.5 145.6V145.59Z" fill="black"/>
<path d="M1101.93 51.73C1095.47 51.73 1089.69 53.44 1084.6 56.86C1079.51 60.28 1075.95 64.96 1073.94 70.89H1072.79V53.38H1052.05V163.6H1073.51V96.29C1073.51 91.51 1074.66 87.24 1076.95 83.48C1079.25 79.73 1082.37 76.78 1086.32 74.65C1090.27 72.52 1094.78 71.46 1099.85 71.46C1102.05 71.46 1104.25 71.62 1106.45 71.93C1108.65 72.24 1110.18 72.52 1111.04 72.76V52.24C1109.99 52.1 1108.54 51.98 1106.7 51.88C1104.86 51.79 1103.27 51.74 1101.93 51.74V51.73Z" fill="black"/>
<path d="M1221.12 79C1216.86 70.44 1210.88 63.79 1203.18 59.05C1195.48 54.31 1186.46 51.95 1176.13 51.95C1165.8 51.95 1156.78 54.32 1149.08 59.05C1141.38 63.79 1135.4 70.44 1131.14 79C1126.88 87.56 1124.75 97.56 1124.75 109C1124.75 120.44 1126.88 130.34 1131.14 138.85C1135.4 147.37 1141.38 153.99 1149.08 158.73C1156.78 163.47 1165.8 165.83 1176.13 165.83C1186.46 165.83 1195.48 163.46 1203.18 158.73C1210.88 153.99 1216.86 147.37 1221.12 138.85C1225.38 130.34 1227.51 120.38 1227.51 109C1227.51 97.62 1225.38 87.57 1221.12 79ZM1202.65 128.37C1200.52 134.25 1197.26 138.97 1192.86 142.51C1188.46 146.05 1182.91 147.82 1176.21 147.82C1169.51 147.82 1163.88 146.05 1159.45 142.51C1155.02 138.97 1151.75 134.26 1149.62 128.37C1147.49 122.49 1146.43 116 1146.43 108.92C1146.43 101.84 1147.49 95.42 1149.62 89.51C1151.75 83.6 1155.03 78.85 1159.45 75.27C1163.87 71.68 1169.46 69.89 1176.21 69.89C1182.96 69.89 1188.46 71.68 1192.86 75.27C1197.26 78.86 1200.53 83.61 1202.65 89.51C1204.78 95.42 1205.84 101.89 1205.84 108.92C1205.84 115.95 1204.78 122.48 1202.65 128.37Z" fill="black"/>
<path d="M1272.86 16.64H1251.4V163.6H1272.86V16.64Z" fill="black"/>
<path d="M72.1 99.59V81.08H45.31V54.29H26.79V81.08H0V99.59H26.79V126.39H45.31V99.59H72.1Z" fill="black"/>
<path d="M1319.71 0V180.67H1500.38V0H1319.71ZM1383.51 144.91L1383.39 111.16L1349.49 111.13L1349.41 88.06L1385.35 88.21C1391.24 88.24 1397.52 91.43 1401.84 95.07C1407.23 99.6 1408.75 106.47 1409.52 113.13L1409.56 144.86L1383.51 144.91ZM1440.35 92.81C1425.44 92.08 1414.15 83.12 1414.08 67.68L1413.92 35.77H1439.27L1439.33 69.64L1472.53 69.71L1472.6 92.79L1440.35 92.81Z" fill="black"/>
</svg>
