<svg width="120" height="120" viewBox="0 0 120 120" fill="none" xmlns="http://www.w3.org/2000/svg">
<path d="M99.0273 62.8502V94.9998H82.8718V68.9679C82.8718 64.1191 82.5928 57.3342 76.8108 56.1046C74.9533 55.7078 73.0826 55.7775 71.2425 56.2485C68.7265 56.8938 66.8385 58.6773 65.9315 61.1322C65.151 63.2339 64.7934 65.4054 64.7891 67.7426L64.7629 94.9998H48.6074V42.9098L64.1045 42.9055L64.1699 50.1526C67.6757 44.2572 73.6233 41.4447 80.2861 41.6104C82.8718 41.6758 85.305 41.9724 87.7381 42.766C95.7439 45.3735 98.177 52.8212 98.7962 60.4781C98.8572 61.2543 99.0317 62.1743 99.0317 62.8502H99.0273Z" fill="#1a1a2e"/>
<path d="M38.4766 42.9189H22.2949V95.0002H38.4766V42.9189Z" fill="#1a1a2e"/>
<path d="M39.7596 26.3837C39.7596 31.5639 35.5561 35.7674 30.3759 35.7674C25.1957 35.7674 20.9922 31.5639 20.9922 26.3837C20.9922 21.2035 25.1957 17 30.3759 17C35.5561 17 39.7596 21.2035 39.7596 26.3837Z" fill="#1a1a2e"/>
</svg>
