<svg width="120" height="120" viewBox="0 0 120 120" fill="none" xmlns="http://www.w3.org/2000/svg">
<path d="M114.614 32.4914C113.968 30.0772 112.702 27.8732 110.93 26.096C109.158 24.3252 106.958 23.0448 104.534 22.3887C95.6494 20 59.9968 20 59.9968 20C59.9968 20 24.3506 20 15.4598 22.3887C13.0421 23.0448 10.8354 24.3252 9.07002 26.1024C7.30466 27.8732 6.0318 30.0772 5.38578 32.4978C2.99999 41.4093 3 60.0032 3 60.0032C3 60.0032 2.99999 78.5907 5.38578 87.5086C6.0318 89.9228 7.29826 92.1268 9.07002 93.904C10.8418 95.6748 13.0421 96.9552 15.4662 97.6113C24.3506 100 60.0032 100 60.0032 100C60.0032 100 95.6494 100 104.54 97.6113C106.964 96.9552 109.171 95.6748 110.936 93.904C112.702 92.1331 113.975 89.9228 114.621 87.5086C117 78.597 117 60.0032 117 60.0032C117 60.0032 117 41.4157 114.614 32.4978V32.4914ZM48.3429 76.8771V43.1229L78.1365 60.0032L48.3429 76.8835V76.8771Z" fill="#1a1a2e"/>
</svg>
