<svg width="189" height="53" viewBox="0 0 189 53" fill="none" xmlns="http://www.w3.org/2000/svg">
<path d="M6.18358 37.9055C6.18358 39.3427 5.01464 40.5099 3.57308 40.5099C2.13152 40.5099 0.964642 39.3427 0.964642 37.9055C0.964642 36.4682 2.13359 35.301 3.57308 35.301C5.01257 35.301 6.18358 36.4682 6.18358 37.9055Z" fill="#58CEE5"/>
<path d="M3.56482 53C5.5244 53 7.11295 51.4148 7.11295 49.4594C7.11295 47.504 5.5244 45.9188 3.56482 45.9188C1.60524 45.9188 0.0166819 47.504 0.0166819 49.4594C0.0166819 51.4148 1.60524 53 3.56482 53Z" fill="#58CEE5"/>
<path d="M1.39835 22.615C3.71145 17.1051 3.39547 11.4941 1.25378 6.00689C0.908879 5.12225 0.303755 4.53661 0.349191 3.4272C0.404953 2.0621 1.58422 0.705237 2.93491 0.476344C4.70485 0.179402 6.49337 1.43728 6.61935 3.26636C6.73088 4.92222 5.86966 5.7017 5.33682 7.0833C3.37275 12.1808 3.74656 17.965 5.81596 22.947C6.06999 23.5595 6.4975 24.0564 6.72468 24.6565C8.38929 29.0364 2.81306 31.5212 0.522673 27.9393C-0.774317 25.9123 0.661047 24.3699 1.39835 22.615Z" fill="#58CEE5"/>
<path d="M14.9094 5.54085C16.0158 5.54085 16.9127 4.64532 16.9127 3.54062C16.9127 2.43592 16.0158 1.54039 14.9094 1.54039C13.803 1.54039 12.906 2.43592 12.906 3.54062C12.906 4.64532 13.803 5.54085 14.9094 5.54085Z" fill="#58CEE5"/>
<path d="M14.9383 28.7786C16.3948 28.7786 17.5756 27.6006 17.5756 26.1474C17.5756 24.6942 16.3948 23.5161 14.9383 23.5161C13.4817 23.5161 12.3009 24.6942 12.3009 26.1474C12.3009 27.6006 13.4817 28.7786 14.9383 28.7786Z" fill="#58CEE5"/>
<path d="M17.5859 49.4078C17.5859 50.8596 16.4087 52.0349 14.9548 52.0349C13.5008 52.0349 12.3236 50.8596 12.3236 49.4078C12.3236 47.9561 13.5008 46.7828 14.9548 46.7828C16.4087 46.7828 17.5859 47.9582 17.5859 49.4078Z" fill="#58CEE5"/>
<path d="M18.1147 37.858C18.1147 39.5758 16.7185 40.9697 14.9961 40.9697C13.2737 40.9697 11.8796 39.5758 11.8796 37.858C11.8796 36.1403 13.2757 34.7484 14.9961 34.7484C16.7165 34.7484 18.1147 36.1403 18.1147 37.858Z" fill="#58CEE5"/>
<path d="M28.3068 14.9729C28.3068 16.072 27.4125 16.9628 26.3117 16.9628C25.2109 16.9628 24.3146 16.072 24.3146 14.9729C24.3146 13.8738 25.2089 12.9809 26.3117 12.9809C27.4146 12.9809 28.3068 13.8738 28.3068 14.9729Z" fill="#58CEE5"/>
<path d="M39.6658 49.4078C39.6658 50.476 38.7984 51.34 37.7285 51.34C36.6587 51.34 35.7934 50.476 35.7934 49.4078C35.7934 48.3397 36.6587 47.4756 37.7285 47.4756C38.7984 47.4756 39.6658 48.3397 39.6658 49.4078Z" fill="#58CEE5"/>
<path d="M40.8678 15.0141C40.8678 16.705 39.4923 18.0763 37.7988 18.0763C36.1052 18.0763 34.7298 16.705 34.7298 15.0141C34.7298 13.3232 36.1052 11.9519 37.7988 11.9519C39.4923 11.9519 40.8678 13.3232 40.8678 15.0141Z" fill="#58CEE5"/>
<path d="M41.0371 37.8972C41.0371 39.6067 39.6472 40.9945 37.933 40.9945C36.2188 40.9945 34.831 39.6087 34.831 37.8972C34.831 36.1857 36.2209 34.7999 37.933 34.7999C39.6451 34.7999 41.0371 36.1877 41.0371 37.8972Z" fill="#58CEE5"/>
<path d="M34.1804 3.51794C34.1804 1.57544 35.7583 0 37.7038 0C39.6492 0 41.2271 1.57544 41.2271 3.51794C41.2271 5.46043 39.6492 7.03381 37.7038 7.03381C35.7583 7.03381 34.1804 5.46043 34.1804 3.51794Z" fill="#58CEE5"/>
<path d="M48.7881 0.909384C52.6543 0.523772 52.8174 6.80286 48.4638 6.09762C45.7108 5.65221 45.8347 1.20426 48.7881 0.909384Z" fill="#58CEE5"/>
<path d="M51.1094 14.977C51.1094 16.0761 50.2172 16.9669 49.1164 16.9669C48.0157 16.9669 47.1235 16.0761 47.1235 14.977C47.1235 13.8779 48.0157 12.9871 49.1164 12.9871C50.2172 12.9871 51.1094 13.8779 51.1094 14.977Z" fill="#58CEE5"/>
<path d="M51.3676 46.1889C52.1028 48.018 53.2842 48.9067 52.1937 51.0823C51.1425 53.1773 48.1251 53.5712 46.5596 51.8555C44.4365 49.5295 46.6732 46.9581 47.4023 44.5578C48.4886 40.9759 49.5006 32.1007 48.0157 28.7642C47.1834 26.8959 45.5146 26.7042 43.6517 26.5845C40.4981 26.3825 32.6583 26.1886 30.0891 27.7166C25.0065 30.7397 26.5761 40.846 28.3357 45.4981C29.0647 47.4303 30.4691 48.9459 29.3993 51.1338C28.1952 53.5959 24.1804 53.5423 23.1312 50.9792C22.2411 48.8016 23.4203 47.7643 24.1473 45.894C25.5331 42.3348 27.0201 32.7523 24.7793 29.5828C24.3208 28.9353 23.5835 28.5353 23.2221 27.7971C22.7656 26.8629 22.8297 25.4421 22.4806 24.3245C21.6566 21.6809 19.3249 19.5033 16.7309 18.5898C14.6822 17.8681 11.6338 18.099 11.6958 14.8904C11.7516 11.9127 14.707 11.9993 16.7061 11.1663C19.1473 10.1476 21.6711 8.06486 22.8462 5.67283C23.7425 3.852 23.3398 1.18983 25.9379 0.909384C28.4018 0.641312 29.738 3.50763 28.156 5.30784C27.3196 6.26053 26.4377 6.04607 25.3472 6.42549C22.303 7.48747 19.2051 11.0405 18.3604 14.1212C18.032 15.3193 18.0713 15.7957 18.5215 16.9484C19.5913 19.6992 21.702 21.8129 24.6285 22.4707C26.0329 22.7882 27.3526 22.5614 28.5753 23.4687C29.769 24.3554 29.9094 24.8421 31.5534 25.2896C34.6038 26.1247 43.3089 26.2113 46.3139 25.3143C47.7203 24.8957 49.3374 23.0625 50.7108 24.906C51.8364 26.4175 50.399 27.5228 49.9901 28.9807C48.8087 33.1791 49.7216 42.0833 51.3676 46.1807V46.1889Z" fill="#58CEE5"/>
<path d="M81.4194 52.7257H79.3809V43.5742H74.2859V52.6515C74.2859 53.1114 72.7225 52.5958 72.3941 52.7237V42.0482C72.3941 42.0338 72.5965 41.8296 72.613 41.8296H81.2004C81.2149 41.8296 81.4194 42.0317 81.4194 42.0482V52.7257Z" fill="#58CEE5"/>
<path d="M77.074 31.3294L81.5639 36.8229C81.5722 37.161 79.5689 37.0765 79.2405 36.9651L75.6717 32.8306C75.4321 33.375 74.5069 33.9215 74.3541 34.4185C74.1661 35.0288 74.4449 36.5898 74.226 36.9033C74.0525 37.1549 72.3982 37.1116 72.3982 36.8208V26.1453H74.29V31.5191C74.573 31.5851 74.5709 31.416 74.699 31.2738C76.1116 29.7272 77.3322 28.0033 78.8068 26.5062C78.9286 26.3825 78.9286 26.1433 78.9472 26.1433H81.4214L77.074 31.3253V31.3294Z" fill="#58CEE5"/>
<path d="M87.7164 25.9371C84.6309 25.9371 82.1277 28.4322 82.1277 31.5109C82.1277 34.5896 84.6288 37.0847 87.7164 37.0847C90.8039 37.0847 93.3029 34.5896 93.3029 31.5109C93.3029 28.4322 90.8019 25.9371 87.7164 25.9371ZM87.7081 35.1691C85.6759 35.1691 84.0278 33.5235 84.0278 31.4965C84.0278 29.4694 85.6759 27.8239 87.7081 27.8239C89.7403 27.8239 91.3884 29.4674 91.3884 31.4965C91.3884 33.5256 89.7403 35.1691 87.7081 35.1691Z" fill="#58CEE5"/>
<path d="M88.6251 41.976L93.4991 52.7257H91.3884L88.1108 45.0279L84.6949 52.7278C84.2281 53.1402 83.3091 52.6041 82.7267 52.7257C82.7019 52.4123 82.8423 52.1401 82.9477 51.8597C83.9741 49.1563 85.6759 45.5765 86.9687 42.9452C87.3611 42.1451 87.516 41.4378 88.623 41.9781L88.6251 41.976Z" fill="#58CEE5"/>
<path d="M97.4293 26.1474H95.5376V37.0476H97.4293V26.1474Z" fill="#58CEE5"/>
<path d="M103.54 42.0503V52.7257H101.649V48.6593H96.7003V52.7257H94.8064V42.0503C94.8064 41.7245 96.7003 41.7245 96.7003 42.0503V46.9168H101.649V42.0503C101.649 41.7245 103.54 41.7245 103.54 42.0503Z" fill="#58CEE5"/>
<path d="M100.048 36.895V26.1474C100.463 26.1742 100.932 26.036 101.293 26.2855L107.471 33.1193V26.1474H109.362V37.0394L108.408 36.9012L102.087 29.9231V36.895C102.087 37.0744 100.048 37.0744 100.048 36.895Z" fill="#58CEE5"/>
<path d="M111.812 42.0771C111.657 42.0317 110.821 41.8338 110.746 41.8338H106.017V52.7257H107.909V49.8203H110.164C110.488 49.8203 111.618 49.5749 111.979 49.4532C115.341 48.3252 115.24 43.0875 111.812 42.0771ZM110.967 47.8633C110.866 47.8984 110.067 48.0778 110.017 48.0778H107.906V43.5742H110.6C110.659 43.5742 111.279 43.869 111.393 43.9433C112.778 44.8424 112.599 47.3066 110.967 47.8613V47.8633Z" fill="#58CEE5"/>
<path d="M112.94 34.27C110.323 31.4305 112.343 26.6072 116.019 26.036C121.994 25.1081 125.302 31.5728 120.424 35.2969H122.754V37.0394H118.241C118.179 36.5403 117.913 35.4206 118.167 35.0041C118.258 34.8536 119.416 34.3628 119.776 33.9937C121.473 32.2409 120.899 28.4982 118.361 27.8424C113.658 26.6299 112.151 32.9482 115.814 34.7463C115.998 34.8371 116.349 34.8329 116.349 34.8597V37.0373H111.837V35.2948H114.02C114.108 34.9546 113.939 35.0515 113.834 34.9608C113.545 34.7133 113.204 34.5546 112.94 34.2679V34.27Z" fill="#58CEE5"/>
<path d="M121.147 41.7636C118.057 41.7636 115.552 44.2629 115.552 47.3457C115.552 50.4286 118.057 52.9278 121.147 52.9278C124.237 52.9278 126.74 50.4286 126.74 47.3457C126.74 44.2629 124.235 41.7636 121.147 41.7636ZM121.149 51.0183C119.117 51.0183 117.471 49.3748 117.471 47.3499C117.471 45.3249 119.117 43.6793 121.149 43.6793C123.181 43.6793 124.825 45.3228 124.825 47.3499C124.825 49.3769 123.179 51.0183 121.149 51.0183Z" fill="#58CEE5"/>
<path d="M133.441 36.9012C131.248 34.7071 129.34 32.2244 127.12 30.0674V36.6744C127.12 37.1652 125.081 37.1672 125.081 36.8208V26.2196C125.081 25.9144 126.05 25.9453 126.238 26.2278C128.311 28.5374 130.321 30.915 132.504 33.1173V26.1453H134.396V36.8208C134.396 37.0579 133.629 37.1487 133.441 36.9012Z" fill="#58CEE5"/>
<path d="M136.61 42.7473C136.269 42.6586 135.178 42.6112 135.125 42.5596C135.071 42.506 135.178 41.8874 135.125 41.8317C135.059 41.7657 133.297 41.7636 133.231 41.8317C133.173 41.8915 133.301 42.4689 133.223 42.5534C133.163 42.6153 131.843 42.7431 131.533 42.8277C127.229 44.0113 126.837 50.01 131.007 51.5318C131.438 51.6885 133.142 51.9277 133.214 52.0143C133.313 52.1339 133.165 52.8041 133.229 52.8722C133.295 52.9402 135.054 52.9381 135.123 52.8722C135.18 52.8124 135.059 52.0638 135.123 52.0019C135.193 51.9339 136.645 51.7957 137.045 51.6679C141.688 50.1976 141.403 43.999 136.608 42.7493L136.61 42.7473ZM133.231 50.2574C128.941 50.0491 129.082 44.5702 133.231 44.1577V50.2574ZM135.123 50.2574V44.3021C139.373 44.1701 139.427 50.3172 135.123 50.2574Z" fill="#58CEE5"/>
<path d="M139.206 26.1453H137.161V37.0476H139.206V26.1453Z" fill="#58CEE5"/>
<path d="M147.275 41.7595C144.183 41.7595 141.676 44.2608 141.676 47.3478C141.676 50.4348 144.183 52.934 147.275 52.934C150.366 52.934 152.874 50.4327 152.874 47.3478C152.874 44.2629 150.366 41.7595 147.275 41.7595ZM147.264 51.039C145.226 51.039 143.574 49.3893 143.574 47.354C143.574 45.3187 145.226 43.669 147.264 43.669C149.303 43.669 150.957 45.3187 150.957 47.354C150.957 49.3893 149.303 51.039 147.264 51.039Z" fill="#58CEE5"/>
<path d="M146.888 26.1721C146.48 26.1453 145.874 25.9989 145.616 26.3804C144.299 29.5911 142.487 32.7172 141.209 35.9258C141.124 36.1362 140.734 36.86 140.94 36.9734C141.217 37.1239 142.508 37.1012 142.774 36.9074C143.229 36.5795 143.493 35.1196 143.84 34.6618C143.925 34.5504 143.943 34.5752 144.067 34.5607C144.565 34.5009 148.272 34.4948 148.561 34.5958C149.03 34.7566 149.4 36.6682 149.774 36.9074C150.071 37.0971 151.597 37.1837 151.709 36.8084C151.874 36.2496 147.229 27.5311 146.888 26.1721ZM144.8 32.975C144.784 32.975 144.518 32.7667 144.646 32.678L146.186 29.0529C146.395 29.0673 146.409 29.2776 146.482 29.4117C147.039 30.4819 147.518 31.8511 147.931 32.975H144.8Z" fill="#58CEE5"/>
<path d="M161.18 42.3348C160.823 42.1658 159.842 41.8317 159.501 41.8317H154.772C154.443 45.3001 154.712 48.8573 154.629 52.3566C154.803 53.266 155.998 52.5257 156.663 52.7257V49.8203H158.919C159.243 49.8203 160.373 49.5749 160.734 49.4532C163.766 48.4366 163.985 43.6649 161.18 42.3348ZM160.715 47.1127C160.009 48.2696 157.853 48.0407 156.663 48.0798V43.5762H159.21C159.315 43.5762 160.007 43.8567 160.15 43.9453C161.164 44.5743 161.302 46.1518 160.713 47.1127H160.715Z" fill="#58CEE5"/>
<path d="M166.705 41.8255H164.813V52.7257H166.705V41.8255Z" fill="#58CEE5"/>
<path d="M167.434 26.1474V27.7455H164.086V36.8229C164.086 37.0951 162.355 37.225 162.215 36.8022L162.048 27.7455H158.7V26.1474H167.434Z" fill="#58CEE5"/>
<path d="M169.398 36.7507L169.346 26.3866C169.497 25.9288 170.936 26.2319 171.364 26.1474V31.2304H176.312V26.1474C176.649 26.2938 178.204 25.7886 178.204 26.2196V36.8208C178.204 37.1466 176.312 37.1466 176.312 36.8208V32.9729H171.364V36.893C171.364 36.9981 169.551 37.26 169.398 36.7486V36.7507Z" fill="#58CEE5"/>
<path d="M174.262 42.0626C174.092 41.7451 173.369 41.7451 173.109 41.9039L168.163 52.7237C168.654 52.635 169.827 52.8804 170.201 52.6556C170.674 52.369 170.649 50.5007 171.573 50.3935C172.903 50.2389 174.557 50.5049 175.924 50.4244C176.339 50.5647 176.711 52.4597 177.035 52.6536C177.411 52.8804 178.582 52.635 179.076 52.7237L174.26 42.0626H174.262ZM171.944 48.6593L173.619 44.8815L175.292 48.6593H171.944Z" fill="#58CEE5"/>
<path d="M183.597 31.5872C183.611 31.4593 183.586 31.3439 183.514 31.2366L180.464 27.3042L180.385 26.1474H188.826V27.7455H183.15L185.891 31.4717C185.924 31.8511 183.756 34.1916 183.44 34.7855C183.345 34.9608 183.243 35.0598 183.297 35.2969H188.972C188.9 35.6908 189.177 36.8744 188.735 37.0188C187.737 36.9363 180.546 37.2497 180.307 36.9033C180.115 36.627 180.263 36.1114 180.408 35.8227C180.827 34.9876 183.543 32.1151 183.597 31.5851V31.5872Z" fill="#58CEE5"/>
<path d="M188.973 52.5072C188.871 53.0887 188.46 52.7278 188.033 52.7196C185.418 52.6639 182.849 53.0536 180.238 52.7278L180.406 51.6576C180.775 50.9791 183.555 47.8448 183.595 47.4179C183.607 47.2921 183.584 47.1746 183.512 47.0674L180.462 43.1349C180.356 42.8689 180.298 42.1843 180.447 41.9699C180.678 41.6358 187.622 41.9265 188.586 41.8523C189.03 41.9987 188.754 43.1803 188.824 43.5742H183.148L185.889 47.3024C185.788 47.8283 183.045 50.9008 183.295 51.1256C184.132 51.0823 188.413 50.7523 188.834 51.0451C189.03 51.1812 189.018 52.235 188.97 52.5051L188.973 52.5072Z" fill="#58CEE5"/>
<path d="M41.2292 3.51794C41.2292 5.46043 39.6513 7.03381 37.7058 7.03381C35.7603 7.03381 34.1825 5.46043 34.1825 3.51794C34.1825 1.57544 35.7583 0 37.7058 0C39.6534 0 41.2292 1.57544 41.2292 3.51794Z" fill="#58CEE5"/>
<path d="M48.4638 6.09762C45.7108 5.65221 45.8347 1.20426 48.7881 0.909384C52.6543 0.523772 52.8174 6.80286 48.4638 6.09762Z" fill="#58CEE5"/>
<path d="M0.522673 27.9393C-0.774317 25.9123 0.661047 24.3699 1.39835 22.615C3.71145 17.1051 3.39547 11.4941 1.25378 6.00689C0.908879 5.12225 0.303755 4.53661 0.349191 3.4272C0.404953 2.0621 1.58422 0.705237 2.93491 0.476344C4.70485 0.179402 6.49337 1.43728 6.61935 3.26636C6.73088 4.92222 5.86966 5.7017 5.33682 7.0833C3.37275 12.1808 3.74656 17.965 5.81596 22.947C6.06999 23.5595 6.4975 24.0564 6.72468 24.6565C8.38929 29.0364 2.81306 31.5212 0.522673 27.9393Z" fill="#58CEE5"/>
<path d="M3.56482 53C5.5244 53 7.11295 51.4148 7.11295 49.4594C7.11295 47.504 5.5244 45.9188 3.56482 45.9188C1.60524 45.9188 0.0166819 47.504 0.0166819 49.4594C0.0166819 51.4148 1.60524 53 3.56482 53Z" fill="#58CEE5"/>
<path d="M18.1147 37.858C18.1147 39.5758 16.7185 40.9697 14.9961 40.9697C13.2737 40.9697 11.8796 39.5758 11.8796 37.858C11.8796 36.1403 13.2757 34.7484 14.9961 34.7484C16.7165 34.7484 18.1147 36.1403 18.1147 37.858Z" fill="#58CEE5"/>
<path d="M41.0371 37.8972C41.0371 39.6067 39.6472 40.9945 37.933 40.9945C36.2188 40.9945 34.831 39.6087 34.831 37.8972C34.831 36.1857 36.2209 34.7999 37.933 34.7999C39.6451 34.7999 41.0371 36.1877 41.0371 37.8972Z" fill="#58CEE5"/>
<path d="M40.8678 15.0141C40.8678 16.705 39.4923 18.0763 37.7988 18.0763C36.1052 18.0763 34.7298 16.705 34.7298 15.0141C34.7298 13.3232 36.1052 11.9519 37.7988 11.9519C39.4923 11.9519 40.8678 13.3232 40.8678 15.0141Z" fill="#58CEE5"/>
<path d="M14.9383 28.7786C16.3948 28.7786 17.5756 27.6006 17.5756 26.1474C17.5756 24.6942 16.3948 23.5161 14.9383 23.5161C13.4817 23.5161 12.3009 24.6942 12.3009 26.1474C12.3009 27.6006 13.4817 28.7786 14.9383 28.7786Z" fill="#58CEE5"/>
<path d="M17.5859 49.4078C17.5859 50.8596 16.4087 52.0349 14.9548 52.0349C13.5008 52.0349 12.3236 50.8596 12.3236 49.4078C12.3236 47.9561 13.5008 46.7828 14.9548 46.7828C16.4087 46.7828 17.5859 47.9582 17.5859 49.4078Z" fill="#58CEE5"/>
<path d="M6.18358 37.9055C6.18358 39.3427 5.01464 40.5099 3.57308 40.5099C2.13152 40.5099 0.964642 39.3427 0.964642 37.9055C0.964642 36.4682 2.13359 35.301 3.57308 35.301C5.01257 35.301 6.18358 36.4682 6.18358 37.9055Z" fill="#58CEE5"/>
<path d="M28.3068 14.9729C28.3068 16.072 27.4125 16.9628 26.3117 16.9628C25.2109 16.9628 24.3146 16.072 24.3146 14.9729C24.3146 13.8738 25.2089 12.9809 26.3117 12.9809C27.4146 12.9809 28.3068 13.8738 28.3068 14.9729Z" fill="#58CEE5"/>
<path d="M39.6658 49.4078C39.6658 50.476 38.7984 51.34 37.7285 51.34C36.6587 51.34 35.7934 50.476 35.7934 49.4078C35.7934 48.3397 36.6587 47.4756 37.7285 47.4756C38.7984 47.4756 39.6658 48.3397 39.6658 49.4078Z" fill="#58CEE5"/>
<path d="M52.1937 51.0823C51.1425 53.1773 48.1251 53.5712 46.5596 51.8555C44.4365 49.5295 46.6732 46.9581 47.4023 44.5578C48.4886 40.9759 49.5006 32.1007 48.0157 28.7642C47.1834 26.8959 45.5146 26.7042 43.6517 26.5845C40.4981 26.3825 32.6583 26.1886 30.0891 27.7166C25.0065 30.7397 26.5761 40.846 28.3357 45.4981C29.0647 47.4303 30.4691 48.9459 29.3993 51.1338C28.1952 53.5959 24.1804 53.5423 23.1312 50.9792C22.2411 48.8016 23.4203 47.7643 24.1473 45.894C25.5331 42.3348 27.0201 32.7523 24.7793 29.5828C24.3208 28.9353 23.5835 28.5353 23.2221 27.7971C22.7656 26.8629 22.8297 25.4421 22.4806 24.3245C21.6566 21.6809 19.3249 19.5033 16.7309 18.5898C14.6822 17.8681 11.6338 18.099 11.6958 14.8904C11.7516 11.9127 14.707 11.9993 16.7061 11.1663C19.1473 10.1476 21.6711 8.06486 22.8462 5.67283C23.7425 3.852 23.3398 1.18983 25.9379 0.909384C28.4018 0.641312 29.738 3.50763 28.156 5.30784C27.3196 6.26053 26.4377 6.04607 25.3472 6.42549C22.303 7.48747 19.2051 11.0405 18.3604 14.1212C18.032 15.3193 18.0713 15.7957 18.5215 16.9484C19.5913 19.6992 21.702 21.8129 24.6285 22.4707C26.0329 22.7882 27.3526 22.5614 28.5753 23.4687C29.769 24.3554 29.9094 24.8421 31.5534 25.2896C34.6038 26.1247 43.3089 26.2113 46.3139 25.3143C47.7203 24.8957 49.3374 23.0625 50.7108 24.906C51.8364 26.4175 50.399 27.5228 49.9901 28.9807C48.8087 33.1791 49.7216 42.0833 51.3676 46.1807C52.1028 48.0097 53.2842 48.8985 52.1937 51.074V51.0823Z" fill="#58CEE5"/>
<path d="M14.9094 5.54085C16.0158 5.54085 16.9127 4.64532 16.9127 3.54062C16.9127 2.43592 16.0158 1.54039 14.9094 1.54039C13.803 1.54039 12.906 2.43592 12.906 3.54062C12.906 4.64532 13.803 5.54085 14.9094 5.54085Z" fill="#58CEE5"/>
<path d="M51.1094 14.977C51.1094 16.0761 50.2172 16.9669 49.1164 16.9669C48.0157 16.9669 47.1235 16.0761 47.1235 14.977C47.1235 13.8779 48.0157 12.9871 49.1164 12.9871C50.2172 12.9871 51.1094 13.8779 51.1094 14.977Z" fill="#58CEE5"/>
<path d="M120.424 35.299H122.754V37.0414H118.241C118.179 36.5424 117.913 35.4227 118.167 35.0061C118.258 34.8556 119.416 34.3648 119.776 33.9957C121.473 32.2429 120.899 28.5002 118.361 27.8445C113.658 26.632 112.151 32.9502 115.814 34.7484C115.998 34.8391 116.349 34.835 116.349 34.8618V37.0394H111.837V35.2969H114.02C114.108 34.9567 113.939 35.0536 113.834 34.9628C113.545 34.7154 113.204 34.5566 112.94 34.27C110.323 31.4305 112.343 26.6072 116.019 26.036C121.994 25.1081 125.302 31.5728 120.424 35.2969V35.299Z" fill="#58CEE5"/>
<path d="M134.396 26.1474V36.8229C134.396 37.06 133.629 37.1507 133.441 36.9033C131.248 34.7092 129.34 32.2264 127.12 30.0695V36.6764C127.12 37.1672 125.081 37.1693 125.081 36.8229V26.2216C125.081 25.9164 126.05 25.9474 126.238 26.2299C128.311 28.5394 130.321 30.917 132.504 33.1193V26.1474H134.396Z" fill="#58CEE5"/>
<path d="M109.362 26.1474V37.0394L108.408 36.9012L102.087 29.9231V36.895C102.087 37.0744 100.048 37.0744 100.048 36.895V26.1474C100.463 26.1742 100.932 26.036 101.293 26.2855L107.471 33.1193V26.1474H109.362Z" fill="#58CEE5"/>
<path d="M178.202 36.8208C178.202 37.1466 176.31 37.1466 176.31 36.8208V32.9729H171.362V36.893C171.362 36.9981 169.549 37.26 169.396 36.7486L169.344 26.3845C169.495 25.9267 170.934 26.2299 171.362 26.1453V31.2284H176.31V26.1453C176.647 26.2917 178.202 25.7865 178.202 26.2175V36.8208Z" fill="#58CEE5"/>
<path d="M81.5619 36.8229C81.5701 37.161 79.5668 37.0765 79.2384 36.9651L75.6696 32.8306C75.4301 33.375 74.5048 33.9215 74.352 34.4185C74.1641 35.0288 74.4429 36.5898 74.224 36.9033C74.0505 37.1549 72.3962 37.1116 72.3962 36.8208V26.1453H74.288V31.5191C74.5709 31.5851 74.5688 31.416 74.6969 31.2738C76.1095 29.7272 77.3301 28.0033 78.8047 26.5062C78.9266 26.3825 78.9266 26.1433 78.9452 26.1433H81.4194L77.072 31.3253L81.5619 36.8187V36.8229Z" fill="#58CEE5"/>
<path d="M188.735 37.0208C187.737 36.9383 180.546 37.2518 180.307 36.9053C180.115 36.629 180.263 36.1135 180.408 35.8248C180.827 34.9897 183.543 32.1172 183.597 31.5872C183.611 31.4593 183.586 31.3439 183.514 31.2366L180.464 27.3042L180.385 26.1474H188.826V27.7455H183.15L185.891 31.4717C185.924 31.8511 183.756 34.1916 183.44 34.7855C183.345 34.9608 183.243 35.0598 183.297 35.2969H188.972C188.9 35.6908 189.177 36.8744 188.735 37.0188L188.735 37.0208Z" fill="#58CEE5"/>
<path d="M167.434 26.1474V27.7455H164.086V36.8229C164.086 37.0951 162.355 37.225 162.215 36.8022L162.048 27.7455H158.7V26.1474H167.434Z" fill="#58CEE5"/>
<path d="M139.206 26.1453H137.161V37.0476H139.206V26.1453Z" fill="#58CEE5"/>
<path d="M97.4293 26.1474H95.5376V37.0476H97.4293V26.1474Z" fill="#58CEE5"/>
<path d="M87.7164 25.9371C84.6309 25.9371 82.1277 28.4322 82.1277 31.5109C82.1277 34.5896 84.6288 37.0847 87.7164 37.0847C90.8039 37.0847 93.3029 34.5896 93.3029 31.5109C93.3029 28.4322 90.8019 25.9371 87.7164 25.9371ZM87.7081 35.1691C85.6759 35.1691 84.0278 33.5235 84.0278 31.4965C84.0278 29.4694 85.6759 27.8239 87.7081 27.8239C89.7403 27.8239 91.3884 29.4674 91.3884 31.4965C91.3884 33.5256 89.7403 35.1691 87.7081 35.1691Z" fill="#58CEE5"/>
<path d="M146.888 26.1721C146.48 26.1453 145.874 25.9989 145.616 26.3804C144.299 29.5911 142.487 32.7172 141.209 35.9258C141.124 36.1362 140.734 36.86 140.94 36.9734C141.217 37.1239 142.508 37.1012 142.774 36.9074C143.229 36.5795 143.493 35.1196 143.84 34.6618C143.925 34.5504 143.943 34.5752 144.067 34.5607C144.565 34.5009 148.272 34.4948 148.561 34.5958C149.03 34.7566 149.4 36.6682 149.774 36.9074C150.071 37.0971 151.597 37.1837 151.709 36.8084C151.874 36.2496 147.229 27.5311 146.888 26.1721ZM144.8 32.975C144.784 32.975 144.518 32.7667 144.646 32.678L146.186 29.0529C146.395 29.0673 146.409 29.2776 146.482 29.4117C147.039 30.4819 147.518 31.8511 147.931 32.975H144.8Z" fill="#58CEE5"/>
<path d="M81.4194 52.7257H79.3809V43.5742H74.2859V52.6515C74.2859 53.1114 72.7225 52.5958 72.3941 52.7237V42.0482C72.3941 42.0338 72.5965 41.8296 72.613 41.8296H81.2004C81.2149 41.8296 81.4194 42.0317 81.4194 42.0482V52.7257Z" fill="#58CEE5"/>
<path d="M103.54 42.0503V52.7257H101.649V48.6593H96.7003V52.7257H94.8064V42.0503C94.8064 41.7245 96.7003 41.7245 96.7003 42.0503V46.9168H101.649V42.0503C101.649 41.7245 103.54 41.7245 103.54 42.0503Z" fill="#58CEE5"/>
<path d="M188.973 52.5072C188.871 53.0887 188.46 52.7278 188.033 52.7196C185.418 52.6639 182.849 53.0536 180.238 52.7278L180.406 51.6576C180.775 50.9791 183.555 47.8448 183.595 47.4179C183.607 47.2921 183.584 47.1746 183.512 47.0674L180.462 43.1349C180.356 42.8689 180.298 42.1843 180.447 41.9699C180.678 41.6358 187.622 41.9265 188.586 41.8523C189.03 41.9987 188.754 43.1803 188.824 43.5742H183.148L185.889 47.3024C185.788 47.8283 183.045 50.9008 183.295 51.1256C184.132 51.0823 188.413 50.7523 188.834 51.0451C189.03 51.1812 189.018 52.235 188.97 52.5051L188.973 52.5072Z" fill="#58CEE5"/>
<path d="M93.4991 52.7257H91.3884L88.1108 45.0279L84.6949 52.7278C84.2281 53.1402 83.3091 52.6041 82.7267 52.7257C82.7019 52.4123 82.8423 52.1401 82.9477 51.8597C83.9741 49.1563 85.6759 45.5765 86.9687 42.9452C87.3611 42.1451 87.516 41.4378 88.623 41.9781L93.4971 52.7278L93.4991 52.7257Z" fill="#58CEE5"/>
<path d="M166.705 41.8255H164.813V52.7257H166.705V41.8255Z" fill="#58CEE5"/>
<path d="M136.61 42.7473C136.269 42.6586 135.178 42.6112 135.125 42.5596C135.071 42.506 135.178 41.8874 135.125 41.8317C135.059 41.7657 133.297 41.7636 133.231 41.8317C133.173 41.8915 133.301 42.4689 133.223 42.5534C133.163 42.6153 131.843 42.7431 131.533 42.8277C127.229 44.0113 126.837 50.01 131.007 51.5318C131.438 51.6885 133.142 51.9277 133.214 52.0143C133.313 52.1339 133.165 52.8041 133.229 52.8722C133.295 52.9402 135.054 52.9381 135.123 52.8722C135.18 52.8124 135.059 52.0638 135.123 52.0019C135.193 51.9339 136.645 51.7957 137.045 51.6679C141.688 50.1976 141.403 43.999 136.608 42.7493L136.61 42.7473ZM133.231 50.2574C128.941 50.0491 129.082 44.5702 133.231 44.1577V50.2574ZM135.123 50.2574V44.3021C139.373 44.1701 139.427 50.3172 135.123 50.2574Z" fill="#58CEE5"/>
<path d="M111.812 42.0771C111.657 42.0317 110.821 41.8338 110.746 41.8338H106.017V52.7257H107.909V49.8203H110.164C110.488 49.8203 111.618 49.5749 111.979 49.4532C115.341 48.3252 115.24 43.0875 111.812 42.0771ZM110.967 47.8633C110.866 47.8984 110.067 48.0778 110.017 48.0778H107.906V43.5742H110.6C110.659 43.5742 111.279 43.869 111.393 43.9433C112.778 44.8424 112.599 47.3066 110.967 47.8613V47.8633Z" fill="#58CEE5"/>
<path d="M121.147 41.7636C118.057 41.7636 115.552 44.2629 115.552 47.3457C115.552 50.4286 118.057 52.9278 121.147 52.9278C124.237 52.9278 126.74 50.4286 126.74 47.3457C126.74 44.2629 124.235 41.7636 121.147 41.7636ZM121.149 51.0183C119.117 51.0183 117.471 49.3748 117.471 47.3499C117.471 45.3249 119.117 43.6793 121.149 43.6793C123.181 43.6793 124.825 45.3228 124.825 47.3499C124.825 49.3769 123.179 51.0183 121.149 51.0183Z" fill="#58CEE5"/>
<path d="M174.262 42.0626C174.092 41.7451 173.369 41.7451 173.109 41.9039L168.163 52.7237C168.654 52.635 169.827 52.8804 170.201 52.6556C170.674 52.369 170.649 50.5007 171.573 50.3935C172.903 50.2389 174.557 50.5049 175.924 50.4244C176.339 50.5647 176.711 52.4597 177.035 52.6536C177.411 52.8804 178.582 52.635 179.076 52.7237L174.26 42.0626H174.262ZM171.944 48.6593L173.619 44.8815L175.292 48.6593H171.944Z" fill="#58CEE5"/>
<path d="M147.275 41.7595C144.183 41.7595 141.676 44.2608 141.676 47.3478C141.676 50.4348 144.183 52.934 147.275 52.934C150.366 52.934 152.874 50.4327 152.874 47.3478C152.874 44.2629 150.366 41.7595 147.275 41.7595ZM147.264 51.039C145.226 51.039 143.574 49.3893 143.574 47.354C143.574 45.3187 145.226 43.669 147.264 43.669C149.303 43.669 150.957 45.3187 150.957 47.354C150.957 49.3893 149.303 51.039 147.264 51.039Z" fill="#58CEE5"/>
<path d="M161.18 42.3348C160.823 42.1658 159.842 41.8317 159.501 41.8317H154.772C154.443 45.3001 154.712 48.8573 154.629 52.3566C154.803 53.266 155.998 52.5257 156.663 52.7257V49.8203H158.919C159.243 49.8203 160.373 49.5749 160.734 49.4532C163.766 48.4366 163.985 43.6649 161.18 42.3348ZM160.715 47.1127C160.009 48.2696 157.853 48.0407 156.663 48.0798V43.5762H159.21C159.315 43.5762 160.007 43.8567 160.15 43.9453C161.164 44.5743 161.302 46.1518 160.713 47.1127H160.715Z" fill="#58CEE5"/>
</svg>
