<svg width="120" height="120" viewBox="0 0 120 120" fill="none" xmlns="http://www.w3.org/2000/svg">
<path d="M79.3511 62.0025H65.7017V95H47.4018V62.0025H37V46.6479H47.4018V40.0323C47.4018 22.9248 55.171 15 72.0311 15C73.7175 15 76.0446 15.176 78.2023 15.4327C79.8187 15.5978 81.4204 15.8691 83 16.2468V30.1712C82.0868 30.0869 81.17 30.0355 80.2532 30.0209C79.2259 29.9952 78.1986 29.9805 77.1713 29.9842C74.1999 29.9842 71.8802 30.3839 70.1312 31.275C68.9529 31.8655 67.9661 32.7676 67.2739 33.8824C66.1914 35.639 65.7017 38.0484 65.7017 41.2168V46.6479H82.1789L80.5551 55.4566L79.3511 62.0025Z" fill="#1a1a2e"/>
</svg>
