<svg width="1160" height="384" viewBox="0 0 1160 384" fill="none" xmlns="http://www.w3.org/2000/svg">
<g clip-path="url(#clip0_10_1596)">
<path d="M385.348 192C385.348 298.041 299.389 384 193.348 384C87.3074 384 1.34814 298.028 1.34814 192C1.34814 85.9719 87.3074 0 193.348 0C299.389 0 385.348 85.9591 385.348 192ZM380.737 192.013C380.737 88.6085 296.911 4.78688 193.501 4.78688C90.0923 4.78688 6.26631 88.6085 6.26631 192.013C6.26631 295.417 90.0923 379.239 193.501 379.239C296.911 379.239 380.737 295.417 380.737 192.013Z" fill="white"/>
<path d="M375.219 191.987C375.219 292.409 293.807 373.812 193.387 373.812C92.9672 373.812 11.5557 292.409 11.5557 191.987C11.5557 91.5651 92.9672 10.1625 193.387 10.1625C293.807 10.1625 375.219 91.5651 375.219 191.987ZM111.056 251.593C120.394 247.535 119.653 241.801 121.697 250.441C123.089 249.289 122.923 247.574 123.83 247.011C125.006 246.281 127.445 245.782 128.276 247.062C129.668 249.212 130.409 251.311 132.76 251.58C133.373 251.657 134.063 252.118 134.127 252.758C134.254 254.754 131.674 255.471 130.997 257.506L129.86 260.847C129.285 262.536 126.922 261.128 124.993 262.472C130.626 264.149 135.723 266.376 140.258 270.983C141.919 264.827 128.595 264.123 133.296 258.146C134.024 257.224 135.877 257.276 138.125 257.724C138.623 256.034 137.754 254.434 137.869 252.847C138.291 252.604 138.713 252.182 139.147 251.99C139.747 251.772 140.514 251.772 141.012 251.618C141.587 251.452 142.264 249.558 141.612 248.867C134.931 241.597 134.612 246.089 124.75 244.656C123.281 240.688 122.463 236.592 120.126 233.392C117.839 233.546 118.197 236.413 118.069 237.475C117.89 238.934 123.856 242.288 121.965 243.952C117.533 247.83 121.403 241.942 111.771 246.384C109.523 247.42 111.516 249.417 111.069 251.554C110.136 251.964 109.012 253.154 108.067 252.553C104.145 250.044 85.9924 226.673 83.182 219.672C74.3165 197.619 71.9149 203.161 69.194 177.946C70.3437 177.332 73.0902 175.655 73.3968 176.308C73.8056 177.166 73.6395 178.51 74.6104 180.238C74.9936 178.817 76.7948 177.089 76.8587 175.86C75.8239 174.401 75.3002 173.108 75.2108 171.79C75.0702 169.678 76.5265 169.345 78.3788 169.947L82.0068 171.099C78.1617 161.282 82.8243 163.88 79.9118 154.486C77.8934 157.212 76.7948 156.47 75.6579 156.111C73.665 155.484 73.5373 153.846 74.1122 152.655C75.9133 148.931 82.275 153.193 80.3078 147.382C79.0559 147.753 75.9133 147.536 74.4571 147.613C72.6175 149.814 71.3145 156.226 73.8694 158.146C75.3129 159.234 78.0211 158.287 78.6599 159.593C79.2475 160.796 79.4136 162.485 79.0559 164.136C78.7876 165.352 76.782 164.507 74.7892 164.93C73.2563 163.445 75.7856 160.284 71.9277 159.132L74.3804 172.968C72.196 174.286 69.3601 173.864 66.3964 173.339C66.7668 172.34 69.1812 169.985 68.5169 169.077C65.004 164.546 66.4347 160.335 67.1245 155.548L70.0882 135.095C71.1868 127.569 71.8128 120.939 75.3896 114.245C79.6307 106.31 81.7129 96.5439 88.0746 89.5172C98.077 78.4843 91.2299 79.713 112.832 63.2789C113.905 62.4598 113.394 59.5928 115.297 60.1815C115.91 60.3735 116.689 61.0647 117.418 61.4103C117.801 66.9139 113.291 67.6306 113.7 68.3986C113.981 68.9362 114.965 70.2929 115.552 70.2033C115.105 70.2673 120.126 63.8677 119.87 64.4565C120.509 62.9078 118.644 61.9734 117.405 61.3975C117.226 58.8504 119.666 57.2633 121.531 55.3051C128.225 48.3039 137.32 45.2449 145.815 41.2516C152.432 38.1542 158.13 34.9928 165.769 34.2377C169.333 33.8793 174.149 29.886 177.547 31.8826C180.536 33.7513 181.2 38.4742 183.346 40.714C184.509 38.5382 184.969 37.2711 185.748 37.1687C186.719 37.0407 188.852 36.9383 188.814 37.7958C188.776 38.5638 189.299 41.7636 188.533 41.8788C184.918 42.4035 181.762 42.5187 178.645 43.5298C177.56 41.8148 177.56 39.8821 177.138 36.9767C174.098 38.039 171.964 38.5382 168.388 38.6278C169.997 40.5732 170.84 42.8003 172.705 43.837C174.111 44.6178 176.985 44.0674 178.645 43.5298C187.294 57.1481 165.117 42.6339 162.729 52.7708L164.9 56.9562C166.05 59.1832 157.044 61.9734 154.285 62.8182C155.69 59.0424 152.483 56.4186 152.458 53.718C152.432 50.3646 152.305 50.0318 150.031 48.3423C148.459 47.1776 145.304 47.216 145.726 50.0318C146.186 53.142 150.848 55.1899 149.264 58.6968C146.403 58.4281 145.624 55.0875 142.583 53.9996C140.782 54.9211 139.198 55.9834 137.448 57.3017C139.939 59.5416 140.386 61.5639 140.833 63.7397C144.691 62.3702 148.076 62.2678 149.264 58.6968C150.337 58.9656 151.602 59.3496 152.522 60.0792C154.042 61.3079 152.675 62.3318 151.947 63.4197C151.117 64.6484 149.98 64.2773 148.344 64.7124C144.41 65.762 139.862 72.3791 138.879 71.2528L136.937 69.013C136.26 70.4593 136.809 72.4175 135.915 73.659C135.43 74.3374 134.293 73.6206 132.836 74.3886C132.479 76.9484 130.665 78.7659 128.301 77.9212C124.673 76.6285 128.557 67.2211 123.728 68.4114C122.055 68.821 120.918 72.2767 118.503 72.1999C120.586 73.5311 122.527 72.5967 122.604 74.6958C122.642 75.7965 122.297 76.3469 121.288 77.3708C120.228 78.4587 118.593 78.2923 118.082 76.6284L116.894 72.7631C115.706 74.0686 115.131 75.6685 113.649 76.2829C111.26 77.2684 98.6519 69.3713 108.667 76.8588C113.509 80.481 102.305 82.0809 103.353 86.919C98.9712 90.106 99.8782 82.6824 94.9601 88.2629C93.9892 89.3636 98.4603 97.0943 99.5205 95.8528L101.283 100.166C101.628 101.024 104.669 99.4109 104.63 100.396C104.566 102.022 104.886 103.558 104.464 105.516C103.085 106.476 101.449 103.302 99.7249 101.856C97.6427 102.982 99.5716 105.03 100.057 106.271C100.568 107.59 102.459 107.142 104.081 108.652C96.7357 113.848 102.701 121.912 96.4291 120.107C95.4583 119.826 94.3852 118.853 93.6187 117.394C91.8303 119.582 92.1752 121.976 90.9361 122.449C89.8247 122.872 81.4319 123.345 80.972 121.438L79.7201 116.178C78.9026 119.058 78.1233 121.528 77.8167 125.38C76.7181 122.488 89.7609 127.185 88.0874 125.764C89.1349 126.66 89.7992 127.825 89.301 129.476C89.0327 130.359 87.9213 131.639 86.7844 131.588C84.0251 128.119 79.388 133.508 77.1908 126.392C75.9133 128.695 76.7437 131.23 76.6287 133.93C80.6271 133.61 83.297 131.422 86.7716 131.575C88.3173 133.508 92.2263 132.215 93.0822 135.057C93.7337 137.22 92.9928 138.999 91.9453 139.92C91.0127 140.739 89.1605 141.008 88.0108 139.946C86.9632 138.986 87.2315 137.322 86.1074 135.351C85.3026 136.9 84.485 142.058 86.5161 142.851C88.905 143.798 92.2519 141.853 91.8814 144.899C91.677 146.563 92.8906 149.66 90.0291 149.532C88.7261 149.468 87.2954 149.046 85.673 148.06C85.4303 150.966 85.0471 153.078 85.9541 155.958C87.1932 154.166 90.7956 151.695 91.6515 154.14C92.3157 156.034 92.0858 158.748 91.2938 159.554C90.3868 160.488 87.2826 159.349 85.7369 157.289C83.6291 159.004 85.2898 162.626 86.1457 164.315C86.9505 165.096 89.697 162.357 91.2427 163.496C90.6806 163.087 95.8287 175.745 90.7573 176.052C86.2223 176.321 88.4706 170.011 84.9577 168.155C84.4722 172.968 88.5728 177.601 86.2223 182.247C85.392 183.885 81.8535 181.812 81.7896 180.43C81.7257 178.804 82.1345 177.23 81.1125 174.836C79.0559 178.279 80.691 181.901 82.8882 185.319C84.3828 190.016 77.4335 186.202 76.6287 188.365C76.2838 189.287 76.3349 191.347 77.2419 191.232L89.3648 185.639C88.2279 183.015 87.8575 181.607 89.7353 181.005C91.6132 180.404 92.1369 179.406 93.2866 180.673C96.1353 183.809 93.0694 185.46 93.4527 188.135C92.7118 182.81 100.581 200.499 99.5589 200.473C98.2686 200.742 96.4802 200.025 95.0878 200.575C93.9125 201.036 94.3086 203.737 94.5768 204.837C94.8068 205.836 96.212 207.461 98.3581 206.617C96.889 204.748 97.3233 202.854 99.5589 200.473C100.824 200.563 102.267 200.921 102.804 201.727C103.596 202.918 104.145 209.023 102.548 209.215L98.0515 209.752C100.53 211.339 100.108 213.695 102.012 216.779C104.158 213.439 104.694 211.647 107.824 211.659C110.698 211.659 109.932 215.486 111.043 217.048C108.731 216.933 106.546 217.521 104.285 219.237C107.134 221.246 106.393 224.663 109.421 224.945C110.609 222.564 108.45 221.566 108.539 220.171C108.616 218.981 110.162 218.315 111.043 217.048C116.511 220.696 118.874 227.466 123.843 232.228C124.546 232.906 127.612 230.807 128.467 232.1C128.902 232.752 129.311 234.455 129.962 235.031L136.707 240.906C137.818 241.878 140.756 239.907 141.881 241.622C142.43 242.454 143.056 244.502 143.746 245.219L149.584 251.247C152.56 254.319 157.861 252.821 162.128 254.114C169.461 248.815 147.016 214.091 143.299 208.908C141.293 206.105 135.749 206.105 136.119 200.627C136.464 195.622 132.696 191.603 130.754 187.315C129.081 183.629 130.997 179.009 129.822 175.297C129.093 173.019 125.031 168.59 126.436 166.504C130.588 160.412 127.829 155.586 128.008 149.264C128.199 142.429 132.108 134.954 129.988 127.889C128.161 121.784 133.948 120.619 135.493 117.931C140.641 108.946 147.821 102.943 155.69 96.9663C161.093 92.8706 163.763 90.8867 170.942 89.6068C176.704 88.5829 183.257 82.5289 190.845 86.5094C194.166 88.2629 198.497 85.8438 201.959 85.895C232.579 86.3942 263.212 117.867 256.953 139.69C254.743 147.421 258.831 157.519 255.445 164.827C252.469 171.278 254.487 197.491 246.695 203.199L238.519 209.202C238.417 209.279 216.701 239.933 227.469 251.682C226.039 250.377 241.815 246.32 239.362 246.256C238.724 246.243 246.912 252.873 246.095 251.132C246.708 252.45 246.503 254.114 246.325 255.317C243.591 255.164 243.016 256.277 243.016 258.799C243.016 261.32 243.655 262.011 246.797 262.421C246.018 265.032 243.833 264.929 243.885 266.939C247.346 266.683 248.1 263.842 250.17 262.306C246.107 261.064 245.877 258.172 246.325 255.33C248.317 255.445 250.067 256.047 252.443 256.764C253.006 254.895 252.635 253.82 252.712 252.77C254.219 251.951 255.88 251.401 257.349 250.134C257.988 251.734 258.677 252.22 259.099 252.77C259.15 253.244 259.035 255.586 259.865 255.164C268.82 250.556 277.699 246.204 283.498 238.819C283.856 238.358 284.265 237.808 284.712 237.45C287.663 235.031 289.553 231.37 291.163 227.185C287.918 229.092 286.628 231.869 283.345 231.089C282.974 230.461 283.294 229.578 282.54 229.399C281.889 229.258 280.049 230.116 279.602 229.732C276.74 227.274 274.224 226.404 271.018 225.239C267.901 226.007 275.77 215.141 278.963 217.585C280.598 218.827 281.659 219.275 283.115 218.865C284.865 218.366 285.555 217.137 285.798 215.768C290.601 215.333 290.511 206.975 294.139 208.127C295.315 208.498 295.902 211.211 296.924 211.979C299.76 212.363 300.769 211.25 298.035 209.957C297.831 207.973 300.118 207.141 300.68 205.106C298.534 204.326 296.796 204.71 295.711 203.993C294.229 202.994 295.187 201.241 294.497 199.116C292.07 201.689 291.546 204.518 290.384 207.692C289.758 209.42 286.411 207.333 285.849 206.169C284.814 204.018 287.624 203.097 288.378 201.484C289.655 198.771 289.323 195.161 291.84 192.282C297.473 185.844 292.76 175.719 298.713 181.825C299.709 182.836 298.968 184.743 301.025 186.65C301.957 182.554 303.209 177.755 303.196 173.352C302.059 170.805 301.063 170.677 301.101 173.454C301.216 175.105 301.663 177.025 300.552 177.435C294.752 179.534 298.15 166.491 297.576 159.887C299.479 158.901 302.673 160.552 303.822 158.863C301.996 157.749 300.373 158.517 299.313 158.377C298.457 158.261 298.125 155.138 298.994 154.946C301.651 154.332 304.078 153.193 306.301 151.964C306.901 152.86 309.711 152.873 309.954 154.601C310.606 159.26 310.031 164.84 307.821 168.437C307.297 169.294 303.592 168.642 303.72 167.797C303.886 166.734 303.797 165.019 303.567 162.447C301.382 163.266 301.753 165.928 302.034 167.579C302.43 169.87 306.582 169.845 308.306 170.293C310.759 172.968 306.927 178.458 308.894 182.042C311.755 175.297 310.248 168.526 312.062 162.165C314.208 162.204 316.073 162.152 316.392 161.372C316.852 160.232 316.367 158.671 316.533 156.38C315.536 155.343 314.336 156.981 312.19 157.34C309.443 154.754 310.299 133.137 310.797 132.868C311.781 132.33 313.518 133.687 315.192 134.148C315.294 130.961 314.31 128.657 313.25 126.251C310.567 127.607 309.034 127.518 305.981 128.055C309.571 130.513 307.936 133.405 307.885 136.759C307.846 138.947 309.558 151.196 308.204 151.849C307.757 152.067 306.773 151.708 306.313 151.951C301.778 145.257 306.032 146.781 303.426 142.595C302.583 141.239 299.096 142.134 298.419 140.867C296.656 137.578 296.847 133.239 296.63 129.515C296.183 121.809 288.659 120.824 289.796 118.43C290.281 117.419 291.712 115.41 292.926 115.243C295.033 114.949 298.393 127.889 300.59 119.301C302.494 118.61 305.1 119.045 305.151 116.971C305.189 115.077 304.384 113.029 302.519 112.364C302.111 112.069 301.804 111.276 301.216 111.122C301.612 110.457 301.983 109.765 302.111 109.036C302.328 107.858 300.846 107.526 300.182 107.103C300.437 104.556 297.282 102.969 296.298 101.062C294.982 98.515 297.371 98.067 299.236 98.2718C300.782 98.4382 302.149 98.6302 301.523 101.676C301.178 103.366 306.007 101.241 304.729 99.5005C303.707 98.0926 301.446 96.6335 301.753 94.3169C299.3 95.0976 297.307 98.7966 295.225 97.9006C292.376 96.6847 293.283 93.3569 292.249 90.3619C290.562 91.8466 289.681 94.816 290.32 96.4287C290.971 97.7214 293.181 98.131 293.501 99.1677C293.82 100.204 293.603 102.995 291.738 103.007C289.515 103.007 288.787 99.2573 287.522 97.1455C285.734 98.6942 283.856 99.3725 283.345 100.921C281.084 100.678 279.921 99.1677 278.682 96.4159C274.786 87.7893 265.167 82.2345 260.261 75.7581C272.091 70.3313 254.104 73.7358 275.246 62.6262C271.784 60.5911 269.421 59.8232 266.764 58.812C265.052 53.59 264.324 57.6729 256.084 50.6974C254.768 52.4125 256.761 53.526 256.557 54.9851C254.155 56.2394 250.17 55.5995 250.17 58.812C248.458 60.3735 245.686 60.7959 244.894 63.6373C246.874 64.3541 249.467 63.5093 250.029 64.61C250.502 65.5316 250.54 68.373 249.556 68.949C248.292 69.6785 236.935 63.2149 235.211 61.7046C232.809 59.6056 226.345 62.447 223.624 58.2617C222.232 56.1242 226.652 54.2683 228.223 53.3212C223.624 47.3696 212.651 54.7035 217.493 47.28C218.578 45.6161 220.367 46.6784 222.717 46.6912C225.068 46.704 226.077 40.7396 223.101 39.2037C221.248 41.1492 224.455 43.5427 223.241 44.2082C221.363 45.2321 217.608 45.3473 217.045 44.0034C216.292 42.1987 217.774 39.6261 219.677 38.9478C217.135 37.4119 214.861 39.1269 213.149 38.3846C208.602 36.4135 203.492 35.7992 197.73 35.8504C198.599 37.3863 199.161 37.847 199.506 39.7541C200.247 38.8198 200.669 38.0006 201.473 37.5143C201.78 37.3223 209.815 37.591 209.355 40.1893C209.189 41.1364 208.704 42.8259 207.337 43.4275C206.34 43.8626 204.782 42.2755 203.786 41.034C199.353 44.4386 199.238 50.5182 196.849 54.7035C196.031 56.137 191.522 54.8827 192.519 53.014C193.196 51.7469 192.25 49.4943 196.031 49.891C198.561 44.1314 192.02 49.7758 189.529 48.5087C188.52 47.9968 188.546 45.0913 189.031 44.1186C189.606 43.0051 192.327 43.4659 194.358 43.7602L196.428 36.2215C193.732 35.2488 191.088 36.1575 187.741 35.7608C187.549 33.8921 187.396 32.7914 187.881 30.2699C193.668 32.689 199.353 30.6923 205.306 31.1915C208.857 31.4859 211.719 33.2649 215.615 32.241C219.703 31.1787 223.727 35.9784 226.843 35.9656C237.14 35.9144 252.661 44.0674 262.561 48.7263C276.907 55.4715 276.574 58.3385 284.443 66.6323C287.471 69.8193 291.086 71.4448 293.807 75.1949C306.556 92.7426 314.246 104.159 319.445 126.008C319.778 127.403 321.311 128.286 321.17 129.63C321.081 130.513 319.216 131.46 319.42 132.19L322.269 134.122C323.125 134.698 322.358 136.413 322.307 137.898L321.323 173.684C321.119 181.236 307.693 217.79 304.691 220.465C302.021 222.833 301.216 225.073 299.198 227.902L292.875 236.784C285.785 246.729 275.68 253.077 265.307 258.76L250.182 270.548L353.592 270.676C378.898 216.6 377.991 155.983 348.073 103.635C329.116 70.4593 299.645 43.3891 263.877 28.3629C182.695 -5.75966 89.8886 22.2961 43.0319 96.6335C9.81834 149.417 6.20317 214.232 33.6427 270.779L128.736 270.459C126.091 268.616 124.712 268.705 123.37 267.95C122.527 267.477 123.307 266.056 123.447 264.366C122.106 264.533 120.969 265.288 119.909 264.891C118.554 264.379 118.082 262.024 116.868 261.192C112.959 258.53 110.123 255.983 111.056 251.58V251.593ZM156.367 50.1854C159.267 47.5232 160.863 48.3807 164.555 47.9072C162.281 46.2049 160.595 43.2099 158.526 42.8259C156.175 42.3907 153.608 43.773 151.819 44.221C153.723 45.2961 155.92 44.7842 156.737 46.7424C157.082 47.5616 155.345 48.6111 156.367 50.1982V50.1854ZM248.905 54.4347C249.263 53.9228 248.854 52.3485 248.151 52.758C245.532 54.2811 243.91 52.6684 242.582 50.211C241.547 48.2911 244.229 48.1887 246.171 45.5393C242.198 45.1169 239.132 45.3089 236.258 43.5554C235.16 44.3234 235.862 45.7569 236.552 46.3201C236.91 46.6144 237.893 46.2561 238.736 46.3841C240.793 46.704 241.905 48.5855 241.01 50.1982L238.8 54.1915C242.326 53.142 246.976 57.1737 248.892 54.4219L248.905 54.4347ZM137.295 66.1971C137.831 63.8933 136.873 60.7831 135.327 57.9929L130 65.0452C129.962 67.1443 136.528 69.4609 137.295 66.1971ZM288.633 90.0676C290.371 87.2261 291.738 85.6006 295.021 83.9112C292.798 82.9512 290.818 78.8043 288.902 79.9306L285.261 82.0681C283.92 82.8616 277.89 71.0352 275.616 72.072C274.326 76.1933 278.644 76.3981 279.5 78.8555C277.622 81.5945 275.144 83.156 274.147 86.1638C283.409 87.5717 274.786 93.6769 281.263 90.5027C286.04 88.1605 276.664 86.791 278.325 82.4905C279.64 79.0859 285.989 83.796 288.646 90.0803L288.633 90.0676ZM211.425 130.538C212.383 126.712 209.611 126.315 209.406 124.318C215.155 120.005 215.96 113.836 214.976 107.474C214.414 103.814 218.004 99.3469 213.967 95.8272C209.317 97.1455 214.733 110.687 208.435 111.532C207.554 109.151 209.138 106.041 207.247 105.145L202.828 103.071C205.204 100.524 208.972 97.6191 207.771 93.7281C207.477 92.7938 204.437 93.1777 204.233 93.9585C204.092 94.5089 204.322 95.9168 203.824 96.6463C196.504 107.41 210.39 108.319 206.162 115.115C203.492 111.941 201.243 110.226 198.075 108.639C197.692 110.623 197.743 111.839 197.986 113.708C202.023 113.08 204.475 115.192 205.881 118.2C214.938 115.192 202.891 127.505 211.437 130.538H211.425ZM189.184 97.0431C193.081 99.0909 192.404 103.379 194.78 107.487C195.125 104.889 196.696 99.3981 194.256 97.1071C191.458 94.4705 185.288 93.5361 182.235 95.5456C179.948 97.0559 182.12 102.252 184.011 102.611C186.119 103.007 187.511 102.879 188.495 105.017L189.197 97.0303L189.184 97.0431ZM172.437 106.066C174.698 104.991 176.372 104.467 176.193 102.828C175.963 100.793 176.742 99.3341 175.669 97.1327C172.974 99.2445 171.939 102.201 172.437 106.066ZM90.3996 110.316C97.004 105.145 88.9177 106.028 87.5125 98.3358C85.3153 101.74 86.0179 104.607 84.4339 108.242L90.3868 110.329L90.3996 110.316ZM166.05 118.162C160.697 106.182 163.904 105.427 170.01 98.5918C164.21 96.0447 157.465 109.778 160.467 114.527C161.502 116.152 163.278 120.171 166.05 118.162ZM228.057 112.658C230.42 108.767 230.395 106.348 232.196 104.108C229.386 103.148 228.274 100.422 225.694 99.7949C221.887 98.8734 219.434 102.508 218.54 105.734C217.825 108.281 218.693 112.837 222.27 113.452C220.354 107.526 220.546 102.649 225.949 100.998C225.834 105.516 225.413 109.369 228.057 112.658ZM181.073 127.735C172.271 113.324 189.785 112.748 181.533 107.346C180.74 110.482 179.208 111.775 176.154 112.901C178.083 116.677 175.746 119.301 175.03 123.128C174.647 125.227 178.927 127.799 181.073 127.723V127.735ZM236.552 130.27L237.893 119.326C238.417 115.039 239.03 109.727 235.377 107.705C234.687 107.321 232.605 110.393 233.921 110.585C234.419 110.661 235.862 110.316 235.952 111.084C236.756 117.995 235.39 124.126 236.552 130.27ZM148.855 116.331C151.295 113.72 152.305 112.504 152.407 110.303C150.478 109.676 149.469 111.749 148.651 112.568C147.552 113.669 147.655 115.832 148.855 116.331ZM87.1804 114.706C84.0379 114.514 83.3736 113.17 82.4539 111.135C81.2275 112.031 81.598 113.938 81.8279 115.602C81.9429 116.434 83.9996 116.127 85.4175 117.01C87.7297 118.738 89.2882 116.421 87.1932 114.706H87.1804ZM201.639 120.76L199.519 131.038C195.354 128.606 195.457 124.523 195.022 120.67C192.161 118.315 192.404 114.936 190.283 112.325L194.32 136.157C197.283 134.468 198.74 131.601 199.608 132.868L202.023 136.336C202.789 137.437 204.693 133.905 204.245 132.394C203.926 131.332 202.508 130.257 201.869 128.811C200.643 126.008 204.999 123.55 201.639 120.786V120.76ZM173.089 133.239C170.636 129.809 170.559 126.724 171.862 123.486C172.245 120.632 173.127 118.046 171.671 114.898C167.212 126.289 169.014 114.642 166.816 130.743C171.888 132.228 175.247 135.978 180.281 138.128C182.197 137.412 181.136 133.981 179.45 132.714C177.866 131.524 176.142 132.036 173.076 133.226L173.089 133.239ZM239.299 137.796C241.687 139.613 248.228 114.847 243.208 114.732C241.266 120.722 241.432 127.172 240.832 133.341C239.49 133.738 238.328 132.945 237.868 133.201C237.28 133.533 237.101 134.583 237.446 134.826C237.855 135.108 238.698 135.914 239.311 137.808L239.299 137.796ZM220.801 134.212C220.047 129.655 218.54 127.543 220.15 124.433C221.568 121.489 220.06 118.878 217.058 117.586C217.033 121.489 217.173 124.408 215.883 127.915C216.803 130.628 217.991 132.906 220.801 134.212ZM188.06 134.071C190.858 132.074 185.135 118.776 185.71 118.917C184.611 118.661 182.644 118.661 182.606 119.493C182.171 128.145 185.914 118.917 188.073 134.071H188.06ZM153.889 124.587C154.119 126.699 152.343 128.171 153.493 130.462C156.303 128.593 157.593 125.15 156.035 122.961C154.246 120.44 151.155 119.621 148.638 120.12C145.994 120.645 144.55 124.305 146.071 126.545C147.386 124.254 148.6 123.192 150.184 122.821C151.474 122.513 153.633 122.437 153.876 124.587H153.889ZM231.749 129.028C232.694 124.907 232.49 123 231.966 119.979C229.271 122.974 229.462 126.2 231.749 129.028ZM164.044 124.152C164.287 123.269 153.007 116.511 165.628 137.066C165.641 131.908 162.767 128.785 164.044 124.152ZM145.521 127.799H144.244V139.92H145.521V127.799ZM140.629 135.325C140.82 132.01 139.517 131.652 138.368 129.092C137.742 131.716 135.519 133.226 135.225 136.81C137.026 135.62 138.355 135.287 140.629 135.325ZM234.815 143.798C237.893 140.253 235.198 137.706 233.997 135.325C233.614 138.576 232.477 141.111 234.815 143.798ZM232.937 145.475C231.57 146.781 231.263 148.79 230.408 149.276C229.718 149.66 228.53 146.87 227.431 147.241C217.199 150.748 219.664 140.291 212.178 140.778C211.782 141.443 212.702 142.736 212.383 143.197C211.642 144.259 211.118 144.643 210.467 143.837C206.698 139.178 200.234 145.718 197.028 145.552C196.057 144.387 195.342 138.768 192.57 140.765C190.296 142.39 190.424 147.305 186.374 148.188C186.591 144.733 185.761 141.981 182.746 140.547C182.184 142.16 182.899 145.168 181.251 145.501C177.304 146.307 174.468 143.21 171.581 141.981C170.687 143.299 170.048 145.539 169.141 145.36C164.402 143.325 160.595 141.328 158.717 136.26C151.972 156.022 139.262 137.476 142.519 167.95C139.964 170.152 136.822 170.485 132.517 171.547C139.121 182.298 128.455 174.696 139.658 197.632C144.576 188.736 129.528 176.897 145.342 176.539L145.7 195.417C145.956 209.202 165.897 246.896 187.766 248.803C217.71 251.414 232.554 216.523 240.193 193.152C242.173 187.098 241.342 181.133 240.154 174.926C238.072 164.034 244.689 160.028 232.937 145.501V145.475ZM250.808 137.501C248.42 131.665 245.379 144.579 245.213 142.467C245.264 143.094 246.414 144.067 247.474 144.413C247.372 141.379 248.803 140.215 250.808 137.488V137.501ZM82.8499 142.429C80.0139 141.29 78.4299 139.587 75.0702 140.445C77.2163 143.133 79.8223 145.091 82.8499 142.429ZM135.481 164.226C137.678 156.111 137.192 149.379 137.882 141.738C136.119 130.769 132.619 172.34 135.481 164.226ZM246.887 172.609C248.33 168.654 250.425 165.557 251.536 160.872C247.168 163.291 245.251 167.579 246.887 172.609ZM245.251 177.806C244.983 186.036 242.76 194.304 240.295 202.418C248.445 200.166 252.737 175.31 245.251 177.806ZM83.3992 207.564C84.4978 203.622 83.1437 202.086 80.8954 199.283C80.0139 201.702 80.1034 205.157 83.3992 207.564ZM99.9804 228.401C98.6519 229.591 97.7449 232.023 99.3289 233.802C99.1628 236.579 99.8271 237.207 102.701 238.563C103.506 238.947 103.992 235.082 105.103 235.171C108.488 235.466 111.069 236.899 113.176 233.085C113.509 232.484 114.939 232.317 114.901 231.754C114.837 230.653 115.297 228.926 114.237 228.631C111.094 227.761 110.634 230.794 107.837 231.268C106.623 231.473 97.5533 220.491 97.4766 216.114C95.6371 217.995 93.2483 221.067 91.166 219.262C89.2115 217.56 90.0036 213.874 86.6694 213.298C88.7134 222.68 92.3285 221.374 93.7465 227.454C94.9856 225.534 94.4363 223.691 96.1736 223.409C97.1317 223.255 98.8818 223.307 100.159 224.574C101.002 225.406 100.964 226.89 99.9676 228.401H99.9804ZM299.786 215.947C297.767 216.971 296.055 216.894 294.471 214.872C293.769 215.461 291.878 215.384 291.329 216.28C289.924 218.597 292.632 222.155 295.187 221.988C296.988 221.873 299.734 220.094 299.786 215.947ZM111.746 238.806C108.399 236.093 105.831 244.374 106.099 241.968C106.036 242.569 107.326 243.747 107.926 243.785C106.955 243.721 112.998 239.818 111.758 238.806H111.746ZM211.169 256.597C205.715 256.175 199.94 267.182 194.895 263.586C187.14 258.069 180.932 250.722 170.917 248.598C174.174 260.002 171.709 270.702 166.752 280.916L227.533 280.864C216.598 271.38 217.109 257.058 211.182 256.597H211.169ZM239.35 255.1C240.448 255.509 240.512 250.594 238.762 250.454C237.753 250.377 236.565 250.953 234.342 251.67C235.543 252.924 237.548 253.679 239.35 255.1ZM160.531 280.596C166.229 272.775 168.771 263.189 166.51 254.025C165.347 264.661 160.812 272.916 154.323 280.57C156.15 281.044 159.203 281.568 160.531 280.608V280.596ZM240.474 275.041C230.574 270.369 227.891 262.446 223.727 255.215C221.542 262.843 228.415 276.193 235.543 277.101C237.14 277.306 240.052 276.282 240.461 275.054L240.474 275.041ZM153.109 270.228C150.286 269.166 149.073 267.886 148.511 265.019C145.853 266.069 146.416 267.643 145.304 270.139C147.693 271.124 150.082 271.111 153.109 270.228ZM40.8603 277.114C40.2215 277.114 39.4295 277.025 38.9824 277.242C37.8838 277.805 37.9605 279.329 38.7141 280.493L47.3752 293.74C53.0215 302.393 60.0858 309.509 66.9585 318.033C70.5736 314.04 74.2399 310.75 79.2603 307.397C77.9062 305.951 75.4407 303.442 76.8714 301.906C79.3369 299.27 82.4666 303.25 84.3062 303.327C87.8702 302.777 92.8523 299.91 95.6371 297.708C95.7776 294.944 95.5605 293.036 98.0259 291.539C102.331 288.941 94.6662 300.153 117.673 289.824C116.447 287.981 113.917 286.419 115.399 284.858C116.293 283.911 118.529 282.17 119.896 282.784C122.093 283.757 122.157 285.946 121.25 288.506C128.301 285.869 134.344 283.603 140.36 280.34C138.457 279.469 137.371 279.124 137.908 277.242C140.488 276.41 143.247 278.522 145.598 275.988L40.8603 277.127V277.114ZM329.039 300.434C330.163 300.358 331.773 303.34 333.089 302.047C338.594 296.607 330.125 297.811 333.689 293.676C336.563 290.336 340.153 295.635 340.766 293.024C341.622 289.427 336.972 287.238 338.812 284.819C339.655 283.719 340.958 281.812 342.848 282.503C343.857 282.874 344.637 284.871 345.275 284.576C346.093 284.205 346.936 283.309 347.179 282.682C348.469 279.393 337.215 279.623 346.974 276.052L259.01 276.09C266.661 278.087 274.53 277.153 281.825 277.281C283.281 285.255 269.944 276.014 271.567 281.338C272.448 284.218 277.136 282.528 279.04 284.051C283.703 287.802 288.48 293.075 294.241 294.252C295.302 293.804 296.732 292.102 297.972 292.192C299.338 292.294 300.322 293.164 301.089 294.368C301.6 295.174 299.185 297.836 300.028 298.642C306.147 304.492 313.288 310.93 320.442 315.384C334.43 309.445 322.128 300.895 329.052 300.422L329.039 300.434ZM271.963 315.397C273.534 314.744 275.041 313.259 276.574 313.144C280.892 312.824 286.321 322.41 287.177 316.51C287.318 315.525 284.954 315.102 284.801 314.373C284.61 313.477 284.252 311.774 285.287 311.557C289.553 310.661 291.853 316.651 291.84 317.291C291.814 318.814 290.537 320.03 289.694 321.335C291.457 323.025 294.139 320.529 296.119 321.745C300.616 324.535 305.917 323.921 311.742 325.713C313.85 324.049 314.911 321.681 316.303 319.646C298.789 300.754 275.131 289.888 250.974 279.495C251.434 283.309 254.206 287.392 257.042 289.337C259.163 288.634 261.564 286.189 264.349 287.699C267.134 289.209 268.667 290.758 268.079 294.214C266.776 301.932 257.566 299.334 258.307 303.417C258.55 304.735 261.041 305.836 260.338 307.013C259.38 308.626 257.502 309.842 255.612 308.587C253.58 307.231 253.363 305.144 252.239 302.495C248.407 308.613 250.949 307.947 252.214 310.853C254.628 316.433 249.569 320.183 246.082 324.202C245.865 325.546 248.432 325.93 248.867 325.137C249.212 324.522 250.285 322.59 251.588 323.102C254.04 324.062 252.776 328.298 250.757 329.322C248.215 330.615 245.532 331.267 243.297 329.168C241.368 327.351 240.321 324.062 242.02 321.131C243.719 318.2 247.806 317.444 249.033 313.822C248.611 312.798 246.171 312.197 245.532 311.518C244.127 310.021 247.027 309.419 247.704 307.755C242.914 307.218 240.001 310.264 235.913 311.07L236.284 344.95C253.478 328.912 259.891 325.009 281.991 321.233C280.688 319.595 279.704 318.507 278.631 317.956C276.779 316.996 276.051 319.966 274.275 320.26C272.499 320.555 271.477 317.598 271.937 315.358L271.963 315.397ZM201.065 288.403C209.879 288.826 217.94 289.145 224.953 284.935H156.814C163.291 288.237 170.253 286.778 177.509 287.456C185.148 288.16 192.493 289.337 201.065 288.403ZM142.443 291.859L145.445 285.703L123.613 294.521C130.396 295.059 135.838 292.422 142.443 291.859ZM245.545 293.817C246.784 292.307 243.514 288.045 241.649 287.546C240.001 287.11 235.811 288.134 235.964 289.76C237.191 292.998 242.543 297.452 245.532 293.804L245.545 293.817ZM163.38 330.704C164.772 331.114 166.305 333.277 168.043 332.995C169.512 332.752 172.539 330.461 172.871 328.874C173.204 327.287 170.291 325.009 170.444 322.935L169.218 329.463C168.899 331.165 165.347 330.832 163.38 330.692C159.152 326.66 167.34 327.082 170.24 318.417C170.968 316.267 173.204 312.146 175.49 314.539C179.361 318.609 177.151 325.124 175.235 329.002C176.41 330.666 178.837 332.368 178.863 333.968C178.927 337.001 177.598 338.166 175.426 338.448C172.475 338.832 170.329 338.115 169.192 334.467C167.966 336.157 166.19 336.758 164.453 337.795C166.395 339.805 169.065 339.139 169.499 340.585C170.048 342.39 170.15 344.527 169.754 346.012C169.243 346.268 168.247 346.972 167.608 347.113C166.267 344.668 163.278 343.439 162.46 341.136C162.115 340.176 163.584 339.229 163.265 338.87C156.942 331.536 161.834 357.647 160.008 349.954L160.71 352.936C160.876 353.628 158.896 355.573 158.487 354.216C155.626 344.681 154.119 336.413 150.989 328.298C151.602 334.416 151.742 357.301 146.671 357.838C147.297 349.916 146.492 343.222 145.509 335.85C144.832 330.756 146.901 325.649 143.311 321.681L138.84 348.969C134.459 340.675 137.039 332.253 137.742 322.769C132.057 331.139 130.064 340.521 122.821 348.854C123.243 339.613 126.104 330.653 130.652 322.295C132.606 318.712 135.698 315.755 135.659 311.096C128.851 315.115 129.464 322.462 123.077 327.748C124.635 306.911 137.448 309.189 133.437 298.937C115.463 306.232 106.687 321.463 89.1477 329.604C85.8008 326.801 83.0543 324.1 79.6435 319.991L95.7265 315.422C103.174 313.31 111.145 310.443 115.846 303.929C107.479 304.696 103.263 311.838 95.1389 309.88L120.036 296.07C107.172 299.679 95.1644 304.389 84.4722 311.851L71.1485 321.143C111.733 361.102 170.444 376.551 225.553 367.412C227.342 356.136 231.838 354.383 230.982 342.185C231.34 341.328 232.886 339.83 231.838 338.448C231.2 337.603 229.973 337.142 228.338 337.539L224.672 333.418C223.228 331.792 228.517 331.216 229.718 330.039L224.531 328.848C222.756 328.439 223.88 325.444 222.858 322.871C221.683 324.561 221.338 326.634 221.159 328.695C223.535 330.538 224.263 333.277 222.73 335.709C221.695 337.347 219.089 338.294 217.224 337.462C214.35 336.17 213.022 332.906 215.423 330.372C216.202 329.54 218.962 328.81 218.106 327.62C217.25 326.429 217.058 325.085 216.036 324.177C215.359 326.788 215.436 328.9 213.558 329.245C211.68 329.591 209.726 329.552 208.014 329.399C205.076 324.087 209.125 329.655 212.089 321.399C212.498 320.273 214.848 321.783 215.283 320.913C217.263 316.843 215.525 313.515 214.567 310.226C212.792 307.986 224.033 305.58 224.838 309.522C225.272 311.672 222.705 311.416 221.9 312.849C219.077 317.905 227.176 319.159 227.201 324.906C227.201 325.764 230.535 326.058 230.625 325.252C231.072 321.489 231.774 316.932 230.331 313.323C229.641 312.171 226.269 312.274 225.783 310.891C225.144 309.099 227.75 307.717 228.453 306.181C226.307 303.583 223.331 300.626 222.053 297.491C221.695 296.62 222.475 295.161 221.925 294.419C221.274 293.536 219.703 293.126 218.361 293.638C213.584 295.468 209.1 294.79 204.156 294.931C185.799 295.468 168.183 294.432 150.312 290.016C149.328 289.773 148.536 291.347 147.961 292.012C154.489 295.596 150.899 301.548 151.934 304.479C152.522 306.156 156.456 304.248 159.535 305.733C160.493 306.194 161.247 307.947 160.774 309.509C159.407 314.053 149.929 307.755 148.792 309.291C152.305 316.779 156.622 322.564 157.197 330.436C159.599 331.447 161.604 330.167 163.367 330.692L163.38 330.704ZM262.382 294.892C267.441 290.592 255.407 293.996 255.318 294.329C255.164 294.867 254.896 296.953 255.599 297.247C257.809 298.194 260.185 296.761 262.382 294.892ZM139.364 296.838C137.001 298.054 137.129 303.314 138.661 304.927C140.578 306.949 144.436 306.77 146.582 305.503C149.315 303.903 148.178 299.794 147.041 297.708C145.828 295.481 141.906 295.532 139.364 296.838ZM91.7281 323.908C94.398 321.335 97.0934 320.951 98.3836 317.88C94.7301 318.75 91.4726 319.223 88.3429 321.067C87.091 321.809 89.9014 325.661 91.7281 323.895V323.908ZM280.534 335.965C280.892 332.035 282.336 329.668 284.878 326.993C280.215 326.865 277.111 327.94 273.521 328.784L280.534 335.965ZM302.57 328.541C297.435 328.068 293.539 326.25 288.289 327.082L291.75 329.45C293.066 330.346 292.083 332.739 292.364 335.21C300.105 333.738 292.223 331.165 302.583 328.541H302.57ZM266.457 339.613C266.891 335.21 266.521 333.29 268.016 330.781C264.822 330.346 261.309 332.125 260.006 334.326C260.709 336.771 264.298 338.243 266.47 339.625L266.457 339.613ZM290.92 339.229C288.621 336.502 287.79 335.005 286.59 331.882L282.016 340.752C285.465 341.276 287.65 340.112 290.933 339.229H290.92ZM260.044 350.095C266.904 344.822 272.589 343.939 279.717 341.622C276.255 340.56 274.812 338.013 272.768 334.314C270.66 336.221 273.726 344.092 266.125 344.719C263.608 344.924 262.74 342.774 259.993 340.099C258.601 343.606 258.358 347.318 260.031 350.095H260.044ZM253.44 345.859C254.398 341.865 253.031 339.945 253.925 337.014C249.94 339.6 246.388 340.649 243.616 344.745C247.41 343.171 250.744 345.718 253.44 345.859ZM244.74 356.226C243.041 351.861 242.824 349.263 242.02 346.012C239.733 350.569 235.926 352.399 234.891 357.391C238.57 356.917 241.33 355.637 244.728 356.213L244.74 356.226ZM280.586 347.522C273.176 347.394 267.172 352.092 261.909 356.149C269.561 354.472 274.237 350.479 280.586 347.522ZM257.936 351.388L247.436 349.89C249.16 351.746 250.016 354.498 251.894 355.829C253.849 355.842 256.531 353.32 257.936 351.388ZM245.494 362.689C238.2 356.482 237.216 367.195 232.886 360.091C232.388 361.64 231.251 362.817 231.008 365.249C235.939 364.929 239.605 364.622 245.494 362.689Z" fill="white"/>
<path d="M259.098 252.86C258.676 252.31 257.999 251.823 257.348 250.223C255.879 251.49 254.218 252.041 252.71 252.86C251.203 253.679 249.951 254.69 248.712 253.602C247.652 252.668 248.188 249.942 247.422 249.43C245.033 247.83 244.241 246.563 245.263 244.438C246.285 242.313 249.491 241.61 250.092 243.645C250.564 245.206 248.699 246.627 250.641 248.022C252.021 245.424 254.754 243.235 256.53 241.392C257.807 240.816 260.26 240.688 261.895 239.152C263.237 237.885 265.459 238.947 266.635 240.611C267.248 241.482 264.961 242.109 264.629 243.747C266.75 244.681 268.768 245.808 269.087 247.19C269.087 247.177 261.359 254.396 259.085 252.886L259.098 252.86Z" fill="white"/>
<path d="M231.02 342.198C223.7 340.764 221.567 360.885 216.559 351.375C214.656 347.753 215.307 341.507 219.574 339.702C221.26 338.985 221.771 343.03 222.934 343.478C223.393 341.635 223.176 338.806 224.952 338.371L228.388 337.539C230.023 337.142 231.237 337.603 231.889 338.448C232.936 339.83 231.39 341.328 231.033 342.185L231.02 342.198Z" fill="white"/>
<path d="M300.181 107.193C300.832 107.615 302.314 107.948 302.11 109.126C301.982 109.855 301.612 110.546 301.216 111.212C301.292 114.424 301.152 114.501 298.661 112.492C294.42 108.87 287.368 118.495 287.636 113.349C287.879 108.818 285.401 104.569 283.344 101.011C285.375 98.7582 287.483 99.5646 289.655 103.417C292.35 103.84 293.436 104.3 292.9 104.787C295.084 102.112 297.511 102.918 300.181 107.206V107.193Z" fill="white"/>
<path d="M283.344 231.165C287.113 231.101 287.56 233.226 284.698 237.539C284.251 237.911 283.842 238.461 283.485 238.909C282.246 238.167 280.904 237.642 279.512 237.309C277.877 239.152 277.123 238.525 278.234 236.272C278.209 234.749 278.209 232.676 279.486 231.754C280.508 231.025 282.22 230.897 283.331 231.165H283.344Z" fill="white"/>
<path d="M139.133 252.002C138.699 252.194 138.278 252.604 137.856 252.86C136.681 253.551 135.276 253.525 134.126 252.77C134.062 252.13 133.372 251.657 132.759 251.593C132.848 250.146 132.503 248.483 132.938 246.55C137.051 245.424 138.163 249.135 139.146 252.015L139.133 252.002Z" fill="white"/>
<path d="M99.3281 233.802C97.744 232.01 98.651 229.591 99.9796 228.401C102.394 227.812 105.294 230.807 104.348 233.239C103.326 235.901 100.682 234.659 99.3281 233.802Z" fill="white"/>
<path d="M301.216 111.212C301.816 111.365 302.11 112.159 302.519 112.453C302.199 113.823 303.349 117.023 301.637 117.471C299.223 118.111 297.051 117.739 297.307 115.807C297.434 114.834 297.881 113.477 298.661 112.479C299.338 111.762 300.258 111.391 301.216 111.199V111.212Z" fill="white"/>
<path d="M355.353 239.587C357.627 236.439 353.207 232.727 352.377 229.668C351.853 227.748 353.923 225.163 352.977 223.742C352.147 222.5 349.924 219.441 348.609 220.414C345.964 222.347 344.534 222.935 342.605 221.067C341.289 219.8 340.254 218.597 338.811 215.512C338.134 219.211 333.151 218.597 331.452 220.452C326.317 226.02 332.181 245.283 327.352 248.252C324.056 250.274 318.486 248.956 314.45 248.367C317.222 244.4 321.348 246.14 324.12 243.811C325.397 235.133 320.262 213.349 333.113 215.589C332.462 212.799 328.949 214.142 327.262 212.747C325.563 210.84 327.671 207.141 326.368 204.684C324.963 202.034 321.335 202.905 319.419 204.466C318.193 191.514 333.995 202.79 340.344 197.708C341.033 199.398 341.008 201.433 340.701 202.316C339.973 204.377 331.81 202.956 331.721 206.22C331.657 208.511 332.091 209.637 335.004 210.367C335.809 210.572 337.98 212.824 338.478 211.288C339.628 207.717 340.407 206.399 343.435 204.927C345.964 203.698 347.612 206.617 350.384 206.412C352.952 206.22 355.124 202.943 357.461 204.927C359.62 206.757 361.294 209.624 359.02 212.568L354.996 209.394C354.906 212.645 354.332 215.422 355.187 218.136C356.529 219.185 359.735 218.046 360.578 217.086C364.13 221.592 358.049 224.356 357.985 227.172C357.908 230.769 361.907 235.031 359.658 239.024C358.253 241.52 355.353 245.641 351.163 245.398C349.886 242.045 353.744 241.853 355.366 239.6L355.353 239.587ZM344.406 216.856C348.391 216.664 347.932 209.74 346.054 209.599C342.63 209.317 342.272 216.958 344.406 216.856Z" fill="white"/>
<path d="M46.4424 205.03C45.3311 204.684 44.8328 207.897 43.9897 208.14C45.7654 207.641 35.8524 205.247 36.8999 206.348C35.367 204.761 35.8269 202.726 35.6608 199.564C34.1534 197.478 28.1366 210.955 25.9394 206.617C24.3299 203.417 26.5782 199.935 26.6293 196.672C26.7315 189.978 29.8484 185.485 34.4089 181.21C36.274 179.457 31.8412 176.475 32.0456 175.003C32.7865 169.806 43.3893 178.433 38.1901 169.192C35.6991 167.861 33.3869 170.997 30.3083 171.137C26.6676 171.304 25.5179 166.875 25.7734 164.456C26.1566 160.706 30.7299 157.557 33.1698 160.885C33.8085 161.756 31.6624 163.266 31.0875 163.573C30.4744 163.893 30.2955 166.555 31.8029 166.107C34.6644 165.275 35.6225 161.999 38.5606 160.463C42.2396 163.56 40.7706 168.027 40.5023 172.865C44.0792 174.58 48.0903 174.772 52.4081 175.233C50.4025 179.252 46.5574 179.508 41.2049 178.471C40.6301 184.538 40.5406 190.336 41.2432 196.851C43.5299 193.766 41.0261 190.195 42.5207 186.816C42.8784 186.01 45.8804 186.33 45.9825 187.175C46.1614 188.493 45.1267 190.234 46.7618 191.578C46.749 189.607 50.658 184.602 53.2129 187.047C57.85 191.475 57.6073 201.126 54.4137 206.22C52.6253 209.061 48.282 205.605 46.4297 205.042L46.4424 205.03ZM34.2556 195.366C34.6388 191.795 34.6005 190.17 34.3067 187.712C31.854 188.711 31.8029 190.349 31.8923 192.243C31.969 194.009 31.3941 196.134 34.2556 195.366ZM52.357 192.883H49.8021V201.817H52.357V192.883Z" fill="white"/>
<path d="M63.2531 258.095C68.4523 261.986 75.4654 264.482 81.1628 261.243C82.4786 260.501 82.0954 256.38 80.9457 255.689C79.6299 254.908 77.4327 254.69 74.3541 253.871C75.1333 250.556 79.5022 251.145 82.0571 251.964C85.008 252.924 86.9241 255.906 86.9241 258.556C86.9241 262.37 84.8547 264.917 81.4439 266.657C73.1405 270.907 62.7165 262.242 55.7161 257.365C53.4423 256.713 49.1501 259.528 46.1992 257.468C43.7976 255.791 43.887 250.403 45.9181 248.508C48.4092 246.192 52.8163 245.603 55.8183 247.766C56.4443 246.217 56.6359 244.515 55.499 244.029C54.1577 243.44 47.796 242.851 47.2978 241.955C46.5952 240.662 47.9109 238.576 48.2686 236.938C41.6004 233.623 38.7006 226.097 40.885 218.584C42.3924 213.4 45.7776 207.449 52.2798 208.46C55.7289 208.997 58.3604 214.565 56.9553 217.074C54.5281 215.422 52.6886 211.634 49.6227 211.762C45.8798 216.882 44.8068 224.459 49.0862 230.129C50.7341 227.287 48.9712 222.552 52.1904 221.003C54.0299 220.12 55.4606 221.63 54.9497 223.563C54.6303 224.74 54.7964 225.841 55.0263 226.622C55.6267 228.708 62.0267 226.161 62.4866 228.004C64.3644 235.466 55.4096 234.66 52.8036 239.267C55.9078 240.778 58.7692 239.728 59.9828 242.109C63.9301 249.852 55.6139 252.399 63.2531 258.12V258.095ZM50.4403 249.033L47.2467 252.22L51.079 256.047L54.2726 252.86L50.4403 249.033Z" fill="white"/>
<path d="M347.6 148.176C342.197 145.565 349.274 155.561 347.677 158.236C346.527 160.156 345.595 164.175 342.644 163.228C340.792 162.626 340.319 160.028 338.109 159.618C336.27 161.359 331.926 163.752 329.972 161.858C326.868 158.85 331.045 155.996 332.348 154.012C334.341 150.966 333.255 146.281 337.611 144.976C345.442 142.621 336.448 137.258 340.217 134.404C341.213 133.649 343.589 132.074 344.765 133.636C347.396 137.105 347.089 140.509 345.608 144.592C350.36 144.49 349.887 140.189 351.113 136.644C356.76 135.978 355.38 160.847 353.004 163.765C347.358 158.441 351.905 150.275 347.562 148.176H347.6Z" fill="white"/>
<path d="M334.723 190.925C333.458 187.213 335.643 184.295 333.624 181.364C332.372 185.907 334.403 190.694 330.763 194.854C326.47 196.62 327.595 171.79 329.702 171.022C332.794 171.508 334.582 174.324 336.179 177.614L343.537 170.561C345.964 173.467 345.939 176.526 345.913 179.93C347.344 180.263 348.34 180.314 349.707 179.828C349.937 176.628 348.966 171.713 352.185 169.985C356.542 167.656 354.625 191.949 354.549 192.537C354.447 193.382 351.572 192.883 350.997 192.384C348.481 190.157 352.479 188.698 350.448 185.203C349.937 184.307 347.484 182.823 347.255 184.973C347.012 187.251 347.331 188.851 346.603 190.349C346.105 191.373 343.294 192.448 342.387 191.181C341.072 188.032 343.805 184.039 340.165 181.223C338.274 182.554 341.148 188.211 338.261 191.053C337.597 191.718 335.208 192.307 334.736 190.912L334.723 190.925Z" fill="white"/>
<path d="M45.2666 134.058C52.7013 134.148 52.663 158.466 45.2666 158.556C36.861 158.658 37.0271 144.822 40.0163 137.271C41.0127 134.762 43.2482 134.02 45.2666 134.045V134.058ZM45.7392 146.87C46.1225 143.299 46.0842 141.674 45.7903 139.216C43.3376 140.215 43.2866 141.853 43.376 143.747C43.4526 145.513 42.8778 147.638 45.7392 146.87Z" fill="white"/>
<path d="M99.5707 95.8912C98.587 95.0464 97.4118 92.3842 98.7148 91.3603C99.8262 90.4771 101.372 90.8355 102.317 90.3491C103.403 89.786 103.697 88.2885 103.403 86.9574C104.182 86.3814 106.29 86.8678 107.465 87.239C108.347 87.5205 108.538 89.1588 109.599 90.3619C111.387 88.8772 111.336 86.599 111.949 84.8583C109.586 83.9624 107.465 84.3463 109.126 83.1304C109.343 82.9768 112.166 80.1354 112.332 79.8922C115.705 75.131 115.794 99.3214 107.861 99.8461C105.524 99.9997 104.859 97.5935 104.399 94.8673C102.483 94.8673 101.155 96.1088 99.5707 95.904V95.8912Z" fill="white"/>
<path d="M213.149 38.4614C214.72 40.3941 216.112 41.6996 215.461 42.6595L213.762 45.1298C215.001 46.7169 215.078 47.3952 214.643 48.4064C213.915 50.1342 212.625 50.3774 210.734 49.7119C209.559 49.2895 208.46 48.7775 207.477 48.8287C205.343 48.9311 205.535 54.8187 203.478 54.9595C201.69 55.0875 199.991 55.8043 198.535 53.7948C201.677 51.3886 201.754 48.4832 201.869 44.9762L210.402 44.6434C210.773 41.8788 210.594 38.871 213.136 38.4614H213.149Z" fill="white"/>
<path d="M179.424 55.7531C178.491 56.5338 176.652 56.585 175.527 56.2522C174.48 55.9451 174.659 53.2572 174.978 51.8877C175.566 49.3791 181.276 53.4108 182.515 51.9389C185.313 48.5728 178.836 48.6879 181.825 44.7842C182.758 43.5555 186.641 42.6084 186.335 44.6306L185.607 49.5839C186.948 50.1087 188.557 50.0575 188.762 50.8254C188.992 51.6573 189.171 53.718 188.838 54.4604C187.702 57.033 183.397 52.4125 179.436 55.7531H179.424Z" fill="white"/>
<path d="M262.931 65.2629C262.676 67.8611 263.634 70.4849 262.241 73.3903C259.789 72.2384 259.009 70.8177 257.591 70.3697C256.339 70.6641 255.995 70.2417 256.557 69.0898C252.367 66.9523 250.208 62.7542 250.169 58.8761C251.6 57.1866 253.708 58.2617 255.343 59.5288C257.157 60.9239 255.088 65.8004 257.221 66.5428C257.86 66.7604 258.882 66.274 259.341 65.634C260.849 63.5734 261.82 65.0837 262.931 65.2501V65.2629Z" fill="white"/>
<path d="M49.3798 123.908C49.2776 127.774 45.343 129.809 41.0636 128.964C38.7514 128.503 36.9885 127.607 36.9502 125.854C36.9119 123.908 36.7714 121.745 38.2788 120.696C39.5051 119.838 42.7115 119.646 43.1841 120.721L40.8336 125.073C43.5802 125.79 44.8448 124.548 49.3925 123.921L49.3798 123.908Z" fill="white"/>
<path d="M337.061 232.944C336.806 236.349 334.059 235.171 333.076 234.403C331.594 233.252 329.793 220.708 335.094 221.617C338.3 222.167 337.368 228.951 337.061 232.944Z" fill="white"/>
<path d="M275.118 232.317C274.849 237.373 267.555 234.698 264.809 231.242C263.723 229.886 266.725 226.097 268.411 226.596C270.327 227.159 273.879 230.359 275.118 232.317Z" fill="white"/>
<path d="M218.744 54.1915C219.178 55.2027 218.207 57.5577 217.492 57.5449C217.083 57.5449 211.335 55.8426 210.619 55.6634C209.495 55.3947 208.371 52.3357 209.738 51.6829C212.459 50.3774 217.581 51.4397 218.744 54.1915Z" fill="white"/>
<path d="M302.468 143.76C302.761 146.397 302.953 150.659 301.305 152.732C300.756 153.423 299.057 153.628 298.827 152.758C296.694 144.976 300.181 152.144 298.763 143.402C299.836 142.762 302.365 142.826 302.48 143.76H302.468Z" fill="white"/>
<path d="M123.025 83.7191C122.271 84.8455 121.786 86.4582 120.572 86.9317C119.116 87.4949 118.107 85.5878 116.765 84.4231C115.756 83.5527 120.508 77.9595 122.59 79.8794C123.74 80.9417 124.277 81.8633 123.025 83.7191Z" fill="white"/>
<path d="M278.248 236.272L279.525 237.309C279.589 238.806 279.793 240.649 278.35 242.083C277.315 243.12 275.539 242.121 274.147 241.456C272.397 243.491 271.579 242.685 273.048 240.253C273.151 239.05 273.457 237.616 274.466 236.938C275.59 236.183 276.996 236.221 278.235 236.272H278.248Z" fill="white"/>
<path d="M273.049 240.253C273.074 240.918 273.624 241.213 274.147 241.456C274.467 243.03 274.62 245.168 272.499 246.422C271.171 247.216 270.277 245.245 268.654 244.08C267.479 243.235 268.373 241.482 269.612 240.227C270.443 239.383 271.695 239.306 273.049 240.24V240.253Z" fill="white"/>
<path d="M285.81 215.857C284.073 217.342 282.259 217.624 280.79 216.587C278.835 215.205 279.781 214.117 280.458 212.376C281.224 210.379 282.859 210.098 284.673 211.327C286.117 212.299 285.887 214.13 285.81 215.857Z" fill="white"/>
<path d="M262.931 65.2629C263.033 64.1621 262.509 62.5367 263.161 61.1927C263.684 60.1304 265.371 59.2985 266.763 58.8761C267.338 60.732 270.123 62.0119 269.254 63.3686C267.977 65.3653 265.626 65.6724 262.943 65.2501L262.931 65.2629Z" fill="white"/>
<path d="M256.544 69.0898C256.812 69.2306 256.952 69.8706 257.578 70.3697C257.949 72.4048 256.748 74.4911 254.627 74.2735C252.941 74.0943 251.804 72.8784 250.22 71.0097C251.536 68.7826 254.142 68.8978 256.531 69.1026L256.544 69.0898Z" fill="white"/>
<path d="M359.493 162.6C361.18 164.507 359.097 166.248 358.088 167.426C357.079 168.603 354.601 169.435 353.796 168.091L355.52 163.548C356.006 162.255 358.484 161.461 359.493 162.6Z" fill="white"/>
<path d="M170.009 51.875C171.248 51.3758 173.65 52.4381 173.599 53.4621C173.535 54.742 173.995 57.6474 172.883 57.5962C171.069 57.5066 168.629 58.0954 168.553 56.9306C168.451 55.3947 167.595 52.8605 169.996 51.875H170.009Z" fill="white"/>
<path d="M259.098 236.272C259.06 235.223 258.6 232.829 259.762 232.561C260.925 232.292 263.288 231.908 264.093 233.06C264.77 234.02 264.31 235.94 263.007 236.848C262.177 237.437 260.848 237.539 259.098 236.26V236.272Z" fill="white"/>
<path d="M259.098 236.272C259.175 238.333 257.323 239.498 256.544 241.379C254.947 241.136 253.938 239.613 253.874 238.192C253.823 236.989 254.73 235.709 255.956 235.095C256.748 234.698 258.332 235.722 259.098 236.272Z" fill="white"/>
<path d="M183.793 36.3752C185.295 36.3752 186.514 35.1604 186.514 33.6618C186.514 32.1632 185.295 30.9484 183.793 30.9484C182.29 30.9484 181.072 32.1632 181.072 33.6618C181.072 35.1604 182.29 36.3752 183.793 36.3752Z" fill="white"/>
<path d="M93.4524 122.475L97.0165 124.612L93.9762 129.681L90.4121 127.531L93.4524 122.475Z" fill="white"/>
<path d="M218.335 189.645C219.791 191.386 222.359 189.299 224.786 190.95C217.211 198.169 207.03 186.227 197.845 183.591C199.007 180.813 198.445 177.204 200.119 174.811C203.683 169.704 209.712 168.923 215.844 168.411C221.976 167.899 229.819 171.918 229.002 178.407C228.746 180.429 225.782 181.735 226.255 185.05C226.626 187.571 220.443 188.186 218.335 189.658V189.645ZM214.579 183.527C211.462 182.004 209.01 180.212 207.694 176.257C207.106 176.59 205.216 177.895 205.42 178.817C207.247 182.029 210.504 184.756 214.579 183.527Z" fill="white"/>
<path d="M202.904 237.296C195.904 235.082 186.489 237.949 185.326 234.455C186.821 233.52 186.795 230.653 186.68 228.977C189.631 227.21 194.665 230.794 197.411 226.89C195.137 223.742 178.467 230.794 177.47 225.367C176.474 219.94 177.764 224.651 188.788 220.747C187.204 216.817 187.473 216.587 190.283 213.733C186.361 211.698 183.244 212.427 178.965 211.288C178.965 207.666 180.638 202.406 183.104 200.921C186.463 200.908 183.832 205.055 184.394 206.181C187.37 212.21 200.745 208.14 202.891 203.494C205.318 202.508 205.906 207.282 205.663 208.831C204.897 213.797 194.256 210.495 191.267 215.64C191.113 218.264 192.34 219.198 193.413 216.613C194.716 215.205 195.559 216.677 196.057 217.253C196.67 217.957 196.989 219.851 196.44 220.465C195.635 221.361 193.068 220.222 191.42 221.668C196.287 224.19 200.962 219.237 206.749 221.54C207.694 221.912 208.576 223.921 207.976 225.342C207.656 226.11 202.47 226.404 200.502 230.845C199.647 232.791 201.754 233.29 202.904 237.334V237.296Z" fill="white"/>
<path d="M168.668 193.613L177.508 186.522C171.964 187.469 164.708 189.965 160.697 185.255C158.461 182.618 158.589 178.126 153.492 176.347C159.828 170.446 167.774 166.786 175.72 169.397C177.853 170.101 180.74 173.416 182.631 175.003C185.658 177.55 183.257 183.079 182.49 186.33C180.651 192.115 176.001 195.712 168.655 193.613H168.668Z" fill="white"/>
<path d="M187.217 197.67C183.32 188.723 191.815 175.374 184.061 169.717C169.588 159.132 155.306 174.26 151.218 167.208L168.821 158.735C174.902 160.066 184.227 161.436 188.737 167.195C193.029 172.686 191.432 191.872 187.217 197.657V197.67Z" fill="white"/>
<path d="M234.993 173.748C207.898 150.761 202.878 179.674 195.29 167.886C199.48 164.507 204.819 162.715 210.376 160.744C221.043 156.981 232.157 162.523 234.98 173.748H234.993Z" fill="white"/>
<path d="M120.84 325.149L111.643 343.785C106.073 340.675 100.682 337.795 94.9722 333.418C103.978 324.087 112.729 316.024 124.251 309.342C126.218 315.089 123.204 320.362 120.84 325.149ZM110.033 335.913C113.15 328.989 118.119 325.085 118.95 317.777C112.665 321.975 108.015 326.34 102.867 332.023C105.409 333.686 106.584 335.478 110.033 335.913Z" fill="white"/>
<path d="M207.336 355.804C204.27 359.349 202.086 358.671 200.642 357.851C198.113 356.418 199.723 353.896 198.726 351.042C197.27 352.22 197.845 353.935 197.117 354.933C196.388 355.932 194.064 357.032 193.22 355.932C190.768 352.719 190.346 343.299 193.425 342.236C198.535 340.483 199.582 353.244 207.336 355.804Z" fill="white"/>
<path d="M193.591 334.39C194.153 337.526 189.184 338.857 187.076 338.486C184.764 338.077 180.88 337.616 180.139 334.723C179.769 333.29 182.196 332.074 182.464 331.306C177.367 330.704 177.623 321.502 180.446 321.067C181.762 324.497 182.388 327.121 186.501 327.057C186.335 329.156 184.38 329.079 183.831 330.653C187.242 330.768 192.748 329.693 193.604 334.39H193.591Z" fill="white"/>
<path d="M208.052 329.437C208.946 331.063 212.753 330.82 213.225 333.098C213.672 335.261 210.479 335.709 210.99 337.322C212.931 338.243 214.975 338.077 215.601 339.178C216.342 340.496 214.835 342.121 214.566 344.054C214.63 346.857 211.846 346.819 211.577 343.977C210.772 342.416 208.958 342.121 208.371 341.149C207.604 339.907 209.38 338.768 208.958 336.963C205.573 337.616 199.595 337.142 199.735 333.827C199.914 329.629 205.331 329.194 208.064 329.45L208.052 329.437Z" fill="white"/>
<path d="M179.08 303.852C171.53 299.909 174.647 304.888 171.07 299.41C169.895 297.618 167.391 302.879 166.535 302.431C165.807 302.06 164.721 301.202 164.632 300.537C164.53 299.807 165.258 298.156 165.896 297.452C169.294 293.612 173.842 297.798 177.087 297.836C179.718 297.874 182.133 295.442 184.892 297.337C186.949 298.745 187.677 304.133 184.509 303.698C183.231 303.519 183.065 300.933 182.503 300.498C181.635 299.807 179.706 299.525 179.08 303.852Z" fill="white"/>
<path d="M169.767 346.025C171.389 344.502 171.466 341.456 174.34 339.74C177.661 342.185 179.756 352.808 175.247 354.344C170.737 355.88 169.064 348.661 169.779 346.025H169.767Z" fill="white"/>
<path d="M188.878 361.23C189.491 365.134 184.381 366.452 181.877 366.516C179.629 366.567 173.817 364.904 175.081 361.333C177.049 357.224 186.233 358.363 188.878 361.23Z" fill="white"/>
<path d="M214.055 361.025C215.856 364.212 210.491 366.542 208.524 366.35C206.058 366.107 201.677 365.851 200.054 362.344C202.711 358.811 211.347 356.239 214.055 361.013V361.025Z" fill="white"/>
<path d="M191.84 358.338C193.603 356.507 197.487 357.173 198.483 358.722C199.658 360.565 199.786 364.392 197.908 365.812C196.414 366.939 193.335 366.926 191.432 365.838C189.528 364.75 189.515 360.757 191.84 358.338Z" fill="white"/>
<path d="M222.09 297.529C222.09 301.599 222.218 303.993 219.88 305.311C218.973 303.161 218.526 301.049 216.559 301.407C215.627 301.573 214.681 303.954 213.021 303.89C211.207 303.826 211.462 299.001 212.369 297.926C215.282 296.761 219.203 297.9 222.103 297.529H222.09Z" fill="white"/>
<path d="M208.46 304.543C207.451 304.645 206.991 302.572 206.595 301.97C206.174 301.317 204.436 300.921 203.631 301.42C202.827 301.919 203.427 304.044 202.303 304.978C200.872 306.168 199.761 303.25 199.531 301.957C199.237 300.396 201.498 298.438 203.287 297.913C205.829 297.17 208.435 296.748 209.661 299.039C210.427 300.46 211.922 304.172 208.46 304.53V304.543Z" fill="white"/>
<path d="M211.769 311.083C211.08 315.128 202.508 315.397 201.678 311.736C200.949 308.523 204.731 307.973 206.225 307.819C207.72 307.666 212.306 308.011 211.769 311.07V311.083Z" fill="white"/>
<path d="M162.638 302.034C159.764 300.716 160.301 298.54 158.295 297.158C157.554 298.783 154.463 301.356 153.684 299.794C151.742 295.916 156.009 293.74 158.346 294.124C163.175 294.931 165.015 296.211 162.638 302.034Z" fill="white"/>
<path d="M196.529 303.89C195.367 303.967 194.881 301.906 194.255 301.574C192.837 300.831 191.381 301.433 190.908 303.685C189.797 305.656 188.545 305.298 188.916 302.853C187.907 301.19 187.37 299.615 188.188 298.719C189.989 296.748 196.031 297.03 197.296 298.745C198.088 299.82 198.778 303.724 196.529 303.89Z" fill="white"/>
<path d="M173.164 308.626C174.033 309.944 173.688 311.531 173.522 312.184C173.254 313.259 166.841 313.464 165.206 311.621C164.133 310.418 164.12 307.781 166.368 306.808C168.425 305.925 171.708 306.424 173.152 308.626H173.164Z" fill="white"/>
<path d="M186.437 310.392C186.974 313.131 183.486 313.886 181.928 313.95C180.254 314.027 176.55 312.568 176.614 310.776C176.703 308.523 179.041 307.32 180.612 307.525C182.592 307.794 185.837 307.372 186.437 310.392Z" fill="white"/>
<path d="M199.94 311.032C197.372 315.665 192.467 314.833 189.03 312.043C188.072 310.648 191.355 308.715 192.735 308.254C194.868 307.538 197.87 307.691 199.94 311.032Z" fill="white"/>
<path d="M186.156 340.995C185.224 342.531 182.069 345.039 180.433 347.138C177.994 347.945 178.006 342.096 179.399 339.881C180.459 338.192 185.722 338.192 186.169 341.008L186.156 340.995Z" fill="white"/>
<path d="M190.308 353.077C190.832 356.623 188.864 358.376 186.833 358.479C185.351 358.555 181.545 357.467 182.784 355.42C183.41 354.396 185.671 355.01 186.348 354.357C188.366 352.412 186.795 348.764 189.541 349.839C190.448 350.197 190.014 351.17 190.308 353.077Z" fill="white"/>
<path d="M57.6582 293.216C59.2933 291.449 61.7588 292.204 63.2151 293.535C64.5436 294.751 63.2917 296.134 62.4869 298.028C62.0015 299.18 59.025 299.359 57.7221 298.258C56.7895 297.465 55.7165 295.315 57.6582 293.228V293.216Z" fill="white"/>
<path d="M74.4055 297.836C72.9748 299.103 71.493 299.193 70.2155 298.271C68.5548 297.068 68.7848 295.775 70.1261 293.51C71.1225 291.833 74.8399 291.475 76.5516 294.393C77.2287 295.545 75.5425 296.838 74.4055 297.836Z" fill="white"/>
<path d="M92.1491 282.861C93.3499 282.183 95.7131 283.885 96.4413 284.832C97.5143 286.227 95.0616 288.096 94.1036 288.954C92.5195 290.361 91.6636 289.03 90.5267 287.994C88.6872 286.33 89.3131 284.474 92.1618 282.861H92.1491Z" fill="white"/>
<path d="M70.8538 285.293C71.0965 287.405 68.9632 288.877 67.8263 289.389C66.8043 289.849 64.2111 288.851 63.8662 287.507C63.2658 285.165 64.952 283.923 65.974 283.629C67.4941 283.207 70.5855 282.925 70.8538 285.28V285.293Z" fill="white"/>
<path d="M78.072 283.911C79.1195 283.309 82.0321 283.117 82.7219 283.988C83.4501 284.909 83.7822 287.738 81.5467 288.774C80.282 289.363 79.6688 290.208 77.7782 288.07C76.7307 286.88 75.9642 285.127 78.0592 283.911H78.072Z" fill="white"/>
<path d="M52.6764 283.77C53.545 283.245 56.4576 283.258 57.1985 283.962C58.0544 284.755 58.0416 287.712 56.1127 288.723C55.0779 289.261 53.7366 290.515 52.5742 287.904C52.0887 286.816 50.147 285.28 52.6636 283.77H52.6764Z" fill="white"/>
<path d="M105.92 289.465C107.642 289.465 109.037 288.067 109.037 286.342C109.037 284.618 107.642 283.219 105.92 283.219C104.199 283.219 102.803 284.618 102.803 286.342C102.803 288.067 104.199 289.465 105.92 289.465Z" fill="white"/>
<path d="M83.0415 298.374C82.6966 295.251 82.8754 294.086 84.204 292.998C85.0598 292.307 87.7552 291.654 88.0107 293.395C88.3173 295.379 88.2407 296.671 87.4998 297.567C86.5672 298.706 84.9321 299.577 83.0287 298.374H83.0415Z" fill="white"/>
<path d="M64.1731 302.124C64.9651 300.524 67.5328 301.292 68.8613 301.829C70.3943 302.444 69.96 303.928 68.8613 305.541C68.3504 306.283 67.5328 308.408 66.4214 307.128C65.3101 305.848 62.8318 304.876 64.1859 302.124H64.1731Z" fill="white"/>
<path d="M62.5637 277.114H56.5342V280.941H62.5637V277.114Z" fill="white"/>
<path d="M70.0622 277.191C70.8287 279.495 68.7976 281.005 67.0347 281.005C65.2718 281.005 63.4834 279.649 63.8538 277.255C65.77 276.974 66.8942 277.089 70.0622 277.191Z" fill="white"/>
<path d="M54.7453 277.191C55.5118 279.495 53.4807 281.005 51.7178 281.005C49.9549 281.005 48.1665 279.649 48.5369 277.255C50.4531 276.974 51.5773 277.089 54.7453 277.191Z" fill="white"/>
<path d="M40.8599 277.114C42.8399 277.434 45.6119 276.436 46.9022 277.485C48.1157 279.623 45.0754 281.722 42.9165 280.864C41.6774 280.378 40.4 278.842 40.8471 277.114H40.8599Z" fill="white"/>
<path d="M99.4177 277.191C100.184 279.495 98.153 281.005 96.3901 281.005C94.6273 281.005 92.8389 279.649 93.2093 277.255C95.1255 276.974 96.2496 277.089 99.4177 277.191Z" fill="white"/>
<path d="M114.402 277.626C115.961 278.317 113.815 280.532 112.895 280.903C111.592 281.428 108.437 280.66 108.756 278.343C108.973 276.794 112.065 276.59 114.402 277.626Z" fill="white"/>
<path d="M122.309 277.972C123.306 279.649 117.212 282.439 116.241 280.097C115.616 278.573 116.318 277.012 116.867 277.127C117.889 277.345 120.24 276.334 122.309 277.972Z" fill="white"/>
<path d="M85.5317 278.381C87.4479 277.537 90.105 276.193 91.574 277.575C92.9026 278.817 90.3733 281.274 88.7637 281.031C87.5246 280.852 85.9533 280.007 85.5317 278.381Z" fill="white"/>
<path d="M107.044 278.164C107.772 279.444 104.566 280.288 103.838 280.839C103.033 281.44 101.028 280.007 100.517 277.818C102.343 276.961 105.23 276.013 107.044 278.164Z" fill="white"/>
<path d="M130.14 279.175C126.116 281.671 123.944 281.261 123.842 280.288C123.715 279.008 123.357 277.255 124.89 277.089C127.687 276.781 129.374 277.332 130.14 279.175Z" fill="white"/>
<path d="M135.965 277.562C137.639 278.407 135.786 279.981 135.186 280.468C134.547 280.98 132.644 281.312 132.031 280.852C131.328 280.327 131.124 278.292 131.584 277.665C132.069 276.986 134.023 276.59 135.978 277.575L135.965 277.562Z" fill="white"/>
<path d="M75.9893 277.562C77.6499 278.407 75.8232 279.981 75.2228 280.455C74.4819 281.031 72.6935 281.3 72.0675 280.852C71.2755 280.276 71.1861 278.305 71.6076 277.678C72.0675 276.961 74.0603 276.577 76.002 277.575L75.9893 277.562Z" fill="white"/>
<path d="M85.5318 278.381C83.935 279.252 83.1302 280.314 82.1976 280.877C81.3418 281.389 78.7358 279.738 79.2723 278.113C79.9749 275.962 84.3182 277.012 85.5446 278.381H85.5318Z" fill="white"/>
<path d="M273.137 307.743C273.175 311.07 272.409 313.195 271.962 315.397C267.631 317.534 263.824 318.302 259.047 317.931C259.123 320.503 260.759 321.719 260.363 324.292C257.935 324.612 255.994 322.846 255.202 321.284C254.652 320.196 253.886 318.2 255.163 316.689C258.28 312.978 263.467 312.709 267.631 312.683C268.423 311.851 268.385 309.24 267.274 308.997C265.69 310.303 263.403 310.879 262.994 309.624C262.624 308.498 262.713 306.821 263.876 306.028C267.069 303.852 270.748 305.516 273.137 307.73V307.743Z" fill="white"/>
<path d="M296.106 321.77C292.261 317.406 293.512 312.952 294.611 308.715L290.472 307.615C289.144 307.256 289.565 305.861 290.332 305.119C291.175 304.312 291.954 303.66 293.653 303.736C296.936 303.89 297.83 306.732 298.443 308.741C299.133 311.032 298.648 313.08 296.974 315.576C297.83 317.15 299.759 317.163 299.938 315.729C300.219 313.477 300.194 312.683 301.841 312.722C303.489 312.76 303.898 313.195 303.885 315.435C303.885 318.136 303.093 320.196 301.19 321.156C299.619 321.95 297.83 321.898 296.118 321.77H296.106Z" fill="white"/>
<path d="M273.138 307.743C273.138 306.885 274.39 305.336 275.22 305.247C276.204 305.144 277.685 306.412 278.72 307.589C282.834 302.444 273.751 304.85 272.499 298.937C272.116 297.145 273.304 292.742 275.437 292.576C279.717 292.243 276.689 297.004 277.468 298.335C278.886 300.742 282.936 301.305 283.255 303.609C283.741 306.962 283.204 310.635 279.333 311.467C276.689 312.043 275.067 309.547 273.112 307.743H273.138Z" fill="white"/>
<path d="M334.225 277.102C333.433 285.421 330.865 276.82 316.289 280.711C314.986 281.057 313.339 278.689 314.105 277.166L334.225 277.114V277.102Z" fill="white"/>
<path d="M315.497 282.9C317.567 282.08 319.329 284.282 319.266 285.549C319.189 287.392 318.512 289.453 317.068 289.837C315.063 290.374 313.249 289.235 312.763 287.84C312.24 286.342 313.159 283.808 315.484 282.9H315.497Z" fill="white"/>
<path d="M312.623 297.798C309.902 299.09 308.203 299.641 307.296 297.145C306.772 295.711 306.07 295.033 308.599 293.267C309.979 292.307 311.486 291.936 312.751 292.985C314.015 294.035 315.114 296.62 312.623 297.798Z" fill="white"/>
<path d="M328.847 289.696C327.365 290.067 325.998 289.12 325.538 287.866C324.925 286.214 326.011 284.32 327.902 282.925C329 282.119 331.504 283.271 331.836 284.397C332.462 286.509 331.657 288.992 328.847 289.683V289.696Z" fill="white"/>
<path d="M289.616 281.76L294.688 284.807L290.97 291.001L285.899 287.955L289.616 281.76Z" fill="white"/>
<path d="M302.915 282.656C304.729 282.682 306.786 283.872 306.454 285.459C306.058 287.341 304.665 288.608 303.695 289.338C301.778 290.758 300.322 288.787 299.952 287.558C299.39 285.69 300.079 282.605 302.915 282.656Z" fill="white"/>
<path d="M319.215 305.708C316.469 307.871 315.332 307.474 313.825 305.912C312.24 304.261 313.454 302.917 315.23 301.215C316.801 299.692 317.785 300.806 318.743 301.049C321.119 301.663 321.08 304.236 319.215 305.708Z" fill="white"/>
<path d="M323.213 298.399C325.062 298.399 326.56 296.898 326.56 295.046C326.56 293.194 325.062 291.693 323.213 291.693C321.365 291.693 319.866 293.194 319.866 295.046C319.866 296.898 321.365 298.399 323.213 298.399Z" fill="white"/>
<path d="M289.566 277.191C290.332 279.495 288.301 281.005 286.538 281.005C284.775 281.005 282.987 279.649 283.357 277.255C285.273 276.974 286.398 277.089 289.566 277.191Z" fill="white"/>
<path d="M312.534 277.178C313.313 279.508 311.282 280.954 309.506 281.018C307.948 281.082 305.508 279.38 306.619 277.434C307.641 276.577 309.66 277.255 312.534 277.178Z" fill="white"/>
<path d="M304.882 277.178C305.661 279.508 303.63 280.954 301.854 281.018C300.296 281.082 297.856 279.38 298.967 277.434C299.976 276.577 302.007 277.255 304.869 277.178H304.882Z" fill="white"/>
<path d="M297.218 277.14C297.614 279.521 295.991 281.018 294.203 281.031C292.644 281.044 290.153 279.367 291.354 277.447C292.287 276.526 294.331 277.306 297.218 277.14Z" fill="white"/>
<path d="M341.89 277.178C342.669 279.508 340.638 280.941 338.862 281.018C337.317 281.082 334.826 279.354 336.001 277.46C336.934 276.538 339.041 277.281 341.877 277.178H341.89Z" fill="white"/>
<path d="M256.542 55.0619C260.043 54.7547 262.291 56.521 261.614 59.1704C261.09 61.1926 258.063 60.2455 257.117 58.9784C256.3 57.8777 256.517 56.5082 256.542 55.0746V55.0619Z" fill="white"/>
<path d="M142.288 304.133C139.005 304.274 138.533 302.841 139.21 300.767C139.58 299.654 141.049 298.694 142.965 298.655C144.715 298.617 146.299 299.577 146.708 300.78C147.334 302.649 145.073 304.005 142.288 304.121V304.133Z" fill="white"/>
<path d="M502.783 93.9995L478.895 93.6455C476.353 98.7941 476.171 104.147 473.286 108.834C472.202 110.593 467.032 109.939 465.348 108.866L486.297 54.4088C488.817 53.6258 491.896 53.6472 494.545 54.4303L516.866 109.338C514.56 110.035 511.836 109.445 508.232 109.81C506.151 104.897 504.338 100.489 502.772 93.9995H502.783ZM499.779 86.8558L490.276 62.6788L481.234 86.77C487.873 87.5208 493.977 87.3385 499.779 86.8665V86.8558Z" fill="white"/>
<path d="M595.438 109.725C591.009 103.751 583.232 86.1595 575.938 86.1595H564.128V109.511C561.436 109.8 559.312 109.854 556.609 109.478V54.0128L586.31 54.2917C594.72 54.3668 600.405 61.1458 600.759 68.4718C601.166 76.8705 596.2 83.4028 587.115 84.3896C588.885 87.7148 591.309 88.4549 592.811 90.6752L605.328 109.296C601.778 110.09 599.332 109.5 595.449 109.714L595.438 109.725ZM593.089 69.5552C593.089 65.6615 589.947 61.6285 585.56 61.607L564.139 61.4998V78.7154C572.634 77.7715 593.122 82.4053 593.089 69.5445V69.5552Z" fill="white"/>
<path d="M652.568 54.0704H645.07V109.686H652.568V54.0704Z" fill="white"/>
<path d="M737.083 94.8286C735.807 105.984 724.758 110.95 714.922 110.693C703.134 110.382 692.923 103.334 692.312 91.2782C695.068 91.3211 697.385 91.3854 699.992 90.1626C700.828 98.69 706.47 103.613 714.901 103.088C719.202 102.82 723.643 103.528 727.183 99.9879C729.435 97.7461 730.186 90.9671 727 88.972C716.456 82.3754 695.154 84.8746 694.564 68.7208C694.403 64.323 697.396 59.3246 700.775 57.1472C707.854 52.5885 715.169 52.0951 722.806 54.4012C730.433 56.6967 736.021 62.521 735.184 70.8232C733.028 70.6515 729.768 71.8958 728.298 70.3834C726.55 68.5921 727 64.8808 724.694 63.229C716.896 57.6298 703.714 60.1612 703.102 66.2538C702.094 76.4437 708.841 74.0518 724.769 79.2862C731.248 81.41 738.016 86.7624 737.094 94.85L737.083 94.8286Z" fill="white"/>
<path d="M803.962 109.343C800.969 110.105 798.416 109.708 795.338 109.536V61.6218C789.46 61.107 784.183 62.2225 778.38 61.1713C776.46 60.8173 776.395 54.4352 778.423 54.4138L821.993 53.9633C822.315 56.8486 822.261 58.8223 822.036 61.536L803.908 61.5896L803.962 109.343Z" fill="white"/>
<path d="M912.008 96.9797C907.803 105.368 899.04 109.916 891.21 110.527C881.974 111.235 872.449 107.545 867.408 99.8651C857.358 84.5694 861.509 62.8273 877.459 55.705C886.887 51.4896 897.635 52.3155 905.915 59.3949C916.331 68.2977 918.433 84.2047 912.019 96.9904L912.008 96.9797ZM901.035 99.3824C906.902 93.7189 908.361 85.6635 907.524 77.9513C906.269 66.3669 896.991 58.998 886.115 60.3817C874.444 61.8619 869.811 71.419 870.004 82.7567C870.165 92.8072 875.185 102.557 886.533 103.115C891.542 103.362 897.291 102.997 901.035 99.3824Z" fill="white"/>
<path d="M982.313 109.329C979.321 110.101 976.778 109.694 973.689 109.544L973.711 61.5972L955.615 61.5436C955.347 58.8513 955.283 56.8455 955.658 53.9708L999.207 54.4213C1001.21 54.4428 1001.16 60.8356 999.239 61.1789C993.436 62.2301 988.17 61.1145 982.26 61.6187L982.313 109.34V109.329Z" fill="white"/>
<path d="M1075.42 103.258C1076.25 105.478 1075.89 107.43 1075.63 109.758L1040.44 109.736V54.3567C1043.36 53.8419 1045.77 53.799 1048.87 54.7858L1049.04 103.301L1075.42 103.258Z" fill="white"/>
<path d="M1154.16 85.1015H1124.29V103.283H1158.39C1158.73 105.61 1158.74 107.38 1158.39 109.718H1115.68L1115.85 54.2742L1156.27 54.0382C1156.62 56.8056 1156.6 58.8758 1156.29 61.5895H1124.32V77.6253H1154.16C1154.45 80.0065 1154.45 81.7013 1154.19 85.1122L1154.16 85.1015Z" fill="white"/>
<path d="M501.968 129.729C504.392 128.956 506.676 129.321 509.497 129.546L509.133 167.528C509.036 177.697 500.938 184.111 491.552 185.452C479.442 187.179 466.067 181.472 465.884 168.322L465.348 129.568C468.234 129.182 470.314 129.203 472.889 129.536L473.307 164.418C473.339 167.475 474.069 171.99 476.321 174.221C481.963 179.81 492.067 179.928 498.074 174.801C500.723 172.548 501.506 167.721 501.549 164.428L501.957 129.718L501.968 129.729Z" fill="white"/>
<path d="M587.664 184.93C585.186 185.605 581.625 185.777 579.298 185.048L551.356 143.462L551.195 185.176C548.535 185.498 546.39 185.53 543.697 185.155L543.729 129.904C546.218 129.85 549.876 128.874 551.763 130.129L578.944 170.514L579.105 129.818C582.129 129.582 584.618 129.561 587.664 129.818V184.908V184.93Z" fill="white"/>
<path d="M629.362 129.699H621.864V185.314H629.362V129.699Z" fill="white"/>
<path d="M706.296 130.135C709.256 129.116 711.831 129.631 714.716 129.867L692.899 184.849C690.732 185.815 687.536 185.568 684.876 184.882L663.562 130.049C665.804 129.298 668.615 129.459 671.811 129.92L688.587 177.341L706.296 130.135Z" fill="white"/>
<path d="M787.402 159.711H757.551V177.827L790.555 178.235C792.411 178.257 792.443 183.802 790.909 185.078L749.141 185.25L748.916 129.763H789.504C789.869 132.091 789.858 133.861 789.515 136.188H757.561V153.297H787.38C787.692 155.302 787.691 156.675 787.402 159.711Z" fill="white"/>
<path d="M866.506 184.993C861.668 179.876 859.18 173.569 855.018 168.249C847.595 158.756 848.539 160.784 834.842 160.655L834.52 184.607C831.592 185.529 829.114 185.486 826.207 185.014V129.602L857.474 129.645C865.358 129.645 871.343 137.626 871.161 144.994C870.957 153.114 864.157 159.228 856.283 159.872C864.553 164.86 870.507 177.27 875.526 185.057C872.866 185.003 869.284 185.915 866.516 185.003L866.506 184.993ZM855.533 152.921C861.003 152.846 863.02 148.03 862.923 144.04C862.623 132.155 844.034 137.089 834.82 135.984V153.189L855.533 152.921Z" fill="white"/>
<path d="M948.255 181.489C943.053 186.08 935.609 186.691 929.323 186.144C918.372 185.189 909.845 178.013 909.727 167.083C911.636 166.054 915.401 165.635 916.892 167.212C918.715 169.143 918.19 172.768 920.324 174.592C926.631 179.987 935.856 180.942 943.107 176.705C945.938 175.042 946.893 171.191 946.271 168.628C943.986 159.382 927.65 161.913 918.211 155.445C914.425 152.85 911.614 148.366 911.668 144.504C911.732 140.085 913.663 135.677 917.6 132.995C926.202 127.139 938.087 127.267 946.325 133.424C950.561 136.589 952.664 140.858 951.999 145.92C949.414 146.242 947.29 146.285 944.608 145.877C944.276 139.141 939.192 135.848 932.767 136.363C929.463 136.631 926.224 135.859 923.499 137.79C920.775 139.721 919.616 141.523 919.713 144.462C920.088 155.756 950.99 148.988 954.144 167.137C955.109 172.672 952.793 177.499 948.266 181.499L948.255 181.489Z" fill="white"/>
<path d="M997.195 183.81C994.868 186.159 991.682 185.397 988.561 185V129.781C991.628 129.502 994.095 129.502 997.152 129.781L997.195 183.81Z" fill="white"/>
<path d="M1058.32 183.794C1055.96 186.122 1052.83 185.36 1049.69 184.974L1049.71 136.073L1031.63 136.019C1031.34 133.724 1031.28 131.933 1031.67 129.605H1076.3C1076.68 131.933 1076.63 133.724 1076.34 136.019L1058.26 136.073L1058.32 183.794Z" fill="white"/>
<path d="M1161.11 130.047L1138.77 161.85L1138.82 185.169C1136.2 185.437 1133.73 185.588 1131.6 185.051L1130.78 161.872L1110.77 130.015C1113.72 129.232 1116.35 129.8 1119.67 129.8L1135.26 154.342L1151.9 129.865C1154.82 129.618 1157.23 129.35 1161.12 130.047H1161.11Z" fill="white"/>
<path d="M465.484 236.551C463.96 218.649 475.416 203.707 493.286 204.33C508.936 204.866 518.664 217.351 518.976 232.937C519.276 247.953 509.268 260.675 494.487 261.855C479.32 263.067 466.803 252.061 465.484 236.541V236.551ZM491.795 254.593C499.014 254.668 505.224 252.104 508.635 245.132C512.347 237.538 512.218 227.691 507.895 220.151C504.795 214.755 499.486 211.816 494.316 211.473C488.599 211.087 482.302 212.642 478.13 217.48C472.531 223.969 472.423 235.039 474.998 242.966C477.572 250.903 484.147 254.507 491.795 254.593Z" fill="white"/>
<path d="M560.783 228.746C563.11 230.805 562.928 234.077 561.04 236.233L535.512 236.319V260.753C532.809 261.043 530.674 261.107 527.982 260.721V205.288L565.363 205.266C565.653 207.98 565.642 210.071 565.374 212.775H535.523V228.81L560.783 228.746Z" fill="white"/>
<path d="M618.31 260.579C615.318 261.351 612.775 260.944 609.686 260.794L609.708 212.847L591.613 212.793C591.344 210.101 591.28 208.095 591.655 205.221L635.204 205.671C637.21 205.693 637.156 212.086 635.236 212.429C629.433 213.48 624.167 212.364 618.257 212.869L618.31 260.59V260.579Z" fill="white"/>
<path d="M688.792 260.519C686.218 261.442 683.933 260.916 681.252 260.809L681.23 235.259H653.395L653.374 260.841C650.306 261.045 647.861 261.109 644.793 260.809V205.558C647.678 205.043 650.199 205.011 653.084 205.965L653.417 227.793H681.219L681.241 205.472C683.922 205.193 686.068 205.129 688.749 205.504L688.781 260.53L688.792 260.519Z" fill="white"/>
<path d="M735.356 236.341H705.483V254.522H738.52C738.863 256.849 738.874 258.619 738.51 260.958H696.892V205.32L737.458 205.299C737.812 208.002 737.791 210.104 737.469 212.807H705.505V228.843H735.345C735.635 231.224 735.635 232.919 735.367 236.33L735.356 236.341Z" fill="white"/>
<path d="M785.055 257.487C776.924 263.226 766.08 263.022 757.22 259.161C751.074 256.479 747.481 250.247 746.88 243.189C749.175 242.095 751.567 242.278 754.281 241.645C755.236 251.009 762.143 255.278 770.832 254.345C774.189 253.98 777.31 254.613 780.088 252.317C782.094 250.666 784.926 247.383 783.414 243.575C779.745 234.351 762.015 238.041 752.436 228.612C748.575 224.815 748.349 218.54 750.613 213.596C752.694 209.048 757.799 206.184 763.237 204.961C774.8 202.365 789.56 207.524 789.656 220.868C788.959 222.702 783.446 223.013 782.373 221.318C780.496 218.358 780.442 214.55 776.699 212.931C771.025 210.463 763.945 210.775 758.829 214.464C756.684 216.009 756.673 219.13 756.973 221.318C757.306 223.753 759.773 225.287 762.626 226.07L780.989 231.133C786.696 232.71 790.407 237.419 791.072 242.213C791.866 247.973 790.396 253.712 785.055 257.487Z" fill="white"/>
<path d="M838.009 257.029C831.337 262.521 823.142 262.553 815.227 261.051C805.841 259.282 799.652 252.299 799.373 242.667C802.076 242.591 803.996 242.077 806.678 241.701C807.664 250.572 813.521 255.034 821.984 254.433C826.468 254.122 831.241 254.573 834.437 250.647C836.132 248.566 836.357 245.327 835.435 242.559C832.603 234.032 803.706 238.333 801.593 221.461C800.95 216.344 803.363 211.174 807.9 208.096C812.438 205.017 818.906 203.923 824.515 204.513C833.504 205.457 842.3 211.357 841.871 220.914C841.785 222.769 835.617 222.984 834.78 221.332C833.611 219.015 833.311 215.679 830.983 214.135C825.674 210.606 817.897 210.241 812.652 213.834C810.41 215.368 808.812 218.232 809.273 220.324C811.805 231.758 840.433 224.453 843.855 242.763C844.831 247.987 842.675 253.178 837.998 257.04L838.009 257.029Z" fill="white"/>
<path d="M889.202 244.857L866.323 244.964C863.952 250.177 862.107 255.154 860.638 260.818C857.785 261.139 855.35 261.236 852.186 260.678L873.424 206.189C875.065 204.784 880.128 204.698 881.715 206.114L903.961 260.657C901.044 260.957 896.785 261.815 895.016 260.26L889.191 244.857H889.202ZM886.778 237.938L877.532 212.71C875.065 221.559 871.922 229.54 868.103 238.453C874.925 238.217 880.9 239.226 886.778 237.928V237.938Z" fill="white"/>
<path d="M947.04 254.485C947.887 256.705 947.512 258.657 947.254 260.985L912.062 260.964V205.509C914.775 205.187 916.856 205.198 919.581 205.509L919.559 254.549L947.029 254.506L947.04 254.485Z" fill="white"/>
<path d="M1004.23 250.792C997.465 261.207 984.014 264.06 973.234 260.274C962.111 256.369 955.557 245.225 955.664 232.868C955.772 220.908 961.757 210.171 972.558 206.127C983.36 202.084 996.489 205.066 1003.77 215.17C1011.09 225.328 1011.45 239.69 1004.23 250.792ZM985.365 254.331C996.371 253.291 1001.61 243.723 1001.1 233.984C1000.75 227.194 1000.39 219.964 994.665 215.674C988.937 211.383 982.641 210.225 976.162 212.66C959.987 218.752 961.489 239.164 968.203 248.593C971.775 253.613 978.576 254.975 985.365 254.342V254.331Z" fill="white"/>
<path d="M1062.69 260.696C1059.64 261.619 1057.13 260.868 1053.74 261.158L1026.44 220.012L1026.14 260.965C1023.14 261.136 1020.69 261.34 1017.56 260.836L1017.76 206.797C1019.1 204.995 1025.15 204.308 1026.45 206.25L1053.81 247.192L1054.08 205.66C1056.92 205.167 1059.39 205.134 1062.48 206.1L1062.7 260.696H1062.69Z" fill="white"/>
<path d="M1079.47 260.571C1076.45 261.386 1073.87 260.957 1070.8 260.796V205.545C1073.71 205.052 1076.15 205.009 1079.25 205.974L1079.47 260.571Z" fill="white"/>
<path d="M1109.5 227.88L1133.51 260.713C1130.38 261.218 1126.99 261.11 1123.24 260.842L1103.92 233.651C1101.04 236.751 1097.27 239.046 1095.58 242.211C1094.07 248.271 1095.76 254.546 1094.97 260.831C1092.49 261.153 1090.23 261.196 1087.57 260.81V205.527C1090.26 205.194 1092.41 205.248 1095.07 205.495L1095.24 232.364L1122.24 205.72C1124.86 204.754 1128.57 205.237 1132.03 205.827C1125.09 215.073 1118.82 217.798 1109.5 227.87V227.88Z" fill="white"/>
<path d="M1150.28 260.571C1147.25 261.386 1144.68 260.957 1141.61 260.796V205.545C1144.52 205.052 1146.95 205.009 1150.05 205.974L1150.28 260.571Z" fill="white"/>
<path d="M468.022 320.946V290.182H480.159C482.492 290.182 484.48 290.628 486.123 291.519C487.765 292.4 489.017 293.627 489.878 295.199C490.749 296.761 491.185 298.564 491.185 300.607C491.185 302.65 490.744 304.452 489.863 306.015C488.982 307.577 487.705 308.794 486.032 309.665C484.37 310.536 482.357 310.972 479.994 310.972H472.258V305.759H478.942C480.194 305.759 481.226 305.544 482.037 305.113C482.858 304.673 483.469 304.067 483.869 303.296C484.28 302.515 484.485 301.618 484.485 300.607C484.485 299.586 484.28 298.694 483.869 297.933C483.469 297.162 482.858 296.566 482.037 296.146C481.216 295.715 480.174 295.5 478.912 295.5H474.526V320.946H468.022ZM524.526 305.564C524.526 308.919 523.89 311.773 522.618 314.126C521.356 316.479 519.634 318.277 517.451 319.519C515.278 320.751 512.834 321.366 510.12 321.366C507.386 321.366 504.933 320.746 502.76 319.504C500.587 318.262 498.869 316.464 497.607 314.111C496.346 311.758 495.715 308.909 495.715 305.564C495.715 302.209 496.346 299.355 497.607 297.002C498.869 294.648 500.587 292.856 502.76 291.624C504.933 290.382 507.386 289.762 510.12 289.762C512.834 289.762 515.278 290.382 517.451 291.624C519.634 292.856 521.356 294.648 522.618 297.002C523.89 299.355 524.526 302.209 524.526 305.564ZM517.931 305.564C517.931 303.391 517.606 301.558 516.955 300.066C516.314 298.574 515.408 297.442 514.236 296.671C513.064 295.9 511.692 295.515 510.12 295.515C508.548 295.515 507.176 295.9 506.004 296.671C504.833 297.442 503.921 298.574 503.27 300.066C502.63 301.558 502.309 303.391 502.309 305.564C502.309 307.737 502.63 309.57 503.27 311.062C503.921 312.554 504.833 313.686 506.004 314.457C507.176 315.228 508.548 315.613 510.12 315.613C511.692 315.613 513.064 315.228 514.236 314.457C515.408 313.686 516.314 312.554 516.955 311.062C517.606 309.57 517.931 307.737 517.931 305.564ZM535.958 320.946L527.155 290.182H534.26L539.353 311.557H539.608L545.226 290.182H551.31L556.913 311.603H557.183L562.275 290.182H569.38L560.578 320.946H554.239L548.381 300.832H548.14L542.297 320.946H535.958ZM573.707 320.946V290.182H594.437V295.545H580.212V302.875H593.37V308.238H580.212V315.583H594.497V320.946H573.707ZM600.454 320.946V290.182H612.591C614.915 290.182 616.897 290.598 618.54 291.429C620.192 292.25 621.449 293.417 622.31 294.929C623.181 296.431 623.617 298.199 623.617 300.231C623.617 302.274 623.176 304.032 622.295 305.504C621.414 306.966 620.137 308.088 618.465 308.869C616.802 309.65 614.789 310.04 612.426 310.04H604.299V304.813H611.374C612.616 304.813 613.648 304.643 614.469 304.302C615.29 303.962 615.901 303.451 616.301 302.77C616.712 302.089 616.917 301.243 616.917 300.231C616.917 299.21 616.712 298.349 616.301 297.648C615.901 296.947 615.285 296.416 614.454 296.055C613.633 295.685 612.596 295.5 611.344 295.5H606.958V320.946H600.454ZM617.068 306.946L624.713 320.946H617.533L610.053 306.946H617.068ZM656.384 299.03C656.264 297.818 655.748 296.877 654.837 296.206C653.926 295.535 652.689 295.199 651.127 295.199C650.065 295.199 649.169 295.349 648.438 295.65C647.707 295.94 647.146 296.346 646.756 296.867C646.375 297.387 646.185 297.978 646.185 298.639C646.165 299.19 646.28 299.671 646.53 300.081C646.791 300.492 647.146 300.847 647.597 301.148C648.047 301.438 648.568 301.693 649.159 301.914C649.75 302.124 650.381 302.304 651.052 302.455L653.816 303.116C655.157 303.416 656.389 303.817 657.511 304.317C658.632 304.818 659.604 305.434 660.425 306.165C661.246 306.896 661.882 307.757 662.333 308.748C662.793 309.74 663.029 310.877 663.039 312.158C663.029 314.041 662.548 315.673 661.597 317.055C660.655 318.427 659.293 319.494 657.511 320.255C655.738 321.006 653.6 321.381 651.097 321.381C648.613 321.381 646.45 321.001 644.607 320.24C642.775 319.479 641.343 318.352 640.311 316.86C639.29 315.358 638.754 313.5 638.704 311.287H644.998C645.068 312.319 645.364 313.18 645.884 313.871C646.415 314.552 647.121 315.067 648.002 315.418C648.894 315.758 649.9 315.929 651.022 315.929C652.123 315.929 653.079 315.768 653.891 315.448C654.712 315.128 655.348 314.682 655.798 314.111C656.249 313.54 656.474 312.884 656.474 312.143C656.474 311.452 656.269 310.872 655.858 310.401C655.458 309.93 654.867 309.53 654.086 309.199C653.315 308.869 652.368 308.568 651.247 308.298L647.897 307.457C645.303 306.826 643.256 305.839 641.753 304.497C640.251 303.156 639.505 301.348 639.515 299.075C639.505 297.212 640.001 295.585 641.002 294.193C642.014 292.801 643.401 291.714 645.163 290.933C646.926 290.152 648.929 289.762 651.172 289.762C653.455 289.762 655.448 290.152 657.15 290.933C658.863 291.714 660.195 292.801 661.146 294.193C662.097 295.585 662.588 297.197 662.618 299.03H656.384ZM666.457 290.182H673.742L680.757 303.431H681.058L688.073 290.182H695.358L684.137 310.07V320.946H677.678V310.07L666.457 290.182ZM716.445 299.03C716.325 297.818 715.809 296.877 714.898 296.206C713.987 295.535 712.75 295.199 711.188 295.199C710.126 295.199 709.23 295.349 708.499 295.65C707.768 295.94 707.207 296.346 706.817 296.867C706.436 297.387 706.246 297.978 706.246 298.639C706.226 299.19 706.341 299.671 706.591 300.081C706.852 300.492 707.207 300.847 707.658 301.148C708.108 301.438 708.629 301.693 709.22 301.914C709.811 302.124 710.442 302.304 711.113 302.455L713.877 303.116C715.218 303.416 716.45 303.817 717.572 304.317C718.693 304.818 719.665 305.434 720.486 306.165C721.307 306.896 721.943 307.757 722.394 308.748C722.854 309.74 723.09 310.877 723.1 312.158C723.09 314.041 722.609 315.673 721.658 317.055C720.716 318.427 719.354 319.494 717.572 320.255C715.799 321.006 713.661 321.381 711.158 321.381C708.674 321.381 706.511 321.001 704.669 320.24C702.836 319.479 701.404 318.352 700.372 316.86C699.351 315.358 698.815 313.5 698.765 311.287H705.059C705.129 312.319 705.425 313.18 705.945 313.871C706.476 314.552 707.182 315.067 708.063 315.418C708.955 315.758 709.961 315.929 711.083 315.929C712.184 315.929 713.141 315.768 713.952 315.448C714.773 315.128 715.409 314.682 715.859 314.111C716.31 313.54 716.535 312.884 716.535 312.143C716.535 311.452 716.33 310.872 715.919 310.401C715.519 309.93 714.928 309.53 714.147 309.199C713.376 308.869 712.43 308.568 711.308 308.298L707.958 307.457C705.364 306.826 703.317 305.839 701.814 304.497C700.312 303.156 699.566 301.348 699.576 299.075C699.566 297.212 700.062 295.585 701.063 294.193C702.075 292.801 703.462 291.714 705.224 290.933C706.987 290.152 708.99 289.762 711.233 289.762C713.516 289.762 715.509 290.152 717.211 290.933C718.924 291.714 720.256 292.801 721.207 294.193C722.158 295.585 722.649 297.197 722.679 299.03H716.445ZM727.149 295.545V290.182H752.415V295.545H742.996V320.946H736.567V295.545H727.149ZM757.422 320.946V290.182H778.151V295.545H763.926V302.875H777.085V308.238H763.926V315.583H778.211V320.946H757.422ZM784.168 290.182H792.19L800.662 310.851H801.022L809.494 290.182H817.515V320.946H811.207V300.922H810.951L802.99 320.796H798.694L790.732 300.847H790.477V320.946H784.168V290.182ZM840.409 299.03C840.289 297.818 839.773 296.877 838.862 296.206C837.95 295.535 836.714 295.199 835.152 295.199C834.09 295.199 833.194 295.349 832.463 295.65C831.732 295.94 831.171 296.346 830.78 296.867C830.4 297.387 830.21 297.978 830.21 298.639C830.189 299.19 830.305 299.671 830.555 300.081C830.815 300.492 831.171 300.847 831.622 301.148C832.072 301.438 832.593 301.693 833.184 301.914C833.775 302.124 834.405 302.304 835.076 302.455L837.84 303.116C839.182 303.416 840.414 303.817 841.536 304.317C842.657 304.818 843.629 305.434 844.45 306.165C845.271 306.896 845.907 307.757 846.357 308.748C846.818 309.74 847.053 310.877 847.063 312.158C847.053 314.041 846.573 315.673 845.621 317.055C844.68 318.427 843.318 319.494 841.536 320.255C839.763 321.006 837.625 321.381 835.121 321.381C832.638 321.381 830.475 321.001 828.632 320.24C826.8 319.479 825.368 318.352 824.336 316.86C823.315 315.358 822.779 313.5 822.729 311.287H829.023C829.093 312.319 829.388 313.18 829.909 313.871C830.44 314.552 831.146 315.067 832.027 315.418C832.918 315.758 833.925 315.929 835.046 315.929C836.148 315.929 837.104 315.768 837.915 315.448C838.737 315.128 839.373 314.682 839.823 314.111C840.274 313.54 840.499 312.884 840.499 312.143C840.499 311.452 840.294 310.872 839.883 310.401C839.483 309.93 838.892 309.53 838.111 309.199C837.34 308.869 836.393 308.568 835.272 308.298L831.922 307.457C829.328 306.826 827.28 305.839 825.778 304.497C824.276 303.156 823.53 301.348 823.54 299.075C823.53 297.212 824.026 295.585 825.027 294.193C826.039 292.801 827.426 291.714 829.188 290.933C830.951 290.152 832.953 289.762 835.197 289.762C837.48 289.762 839.473 290.152 841.175 290.933C842.887 291.714 844.219 292.801 845.171 294.193C846.122 295.585 846.613 297.197 846.643 299.03H840.409ZM862.921 320.946V290.182H869.425V315.583H882.613V320.946H862.921ZM893.854 320.946H886.884L897.504 290.182H905.886L916.491 320.946H909.521L901.815 297.212H901.575L893.854 320.946ZM893.419 308.854H909.882V313.931H893.419V308.854ZM921.04 320.946V290.182H933.358C935.621 290.182 937.508 290.518 939.021 291.189C940.533 291.86 941.669 292.791 942.43 293.983C943.191 295.164 943.572 296.526 943.572 298.068C943.572 299.27 943.332 300.327 942.851 301.238C942.37 302.139 941.709 302.88 940.868 303.461C940.037 304.032 939.086 304.437 938.014 304.678V304.978C939.186 305.028 940.282 305.359 941.304 305.97C942.335 306.58 943.171 307.437 943.812 308.538C944.453 309.63 944.774 310.932 944.774 312.444C944.774 314.076 944.368 315.533 943.557 316.815C942.756 318.087 941.569 319.093 939.997 319.834C938.425 320.575 936.487 320.946 934.184 320.946H921.04ZM927.544 315.628H932.847C934.659 315.628 935.981 315.283 936.812 314.592C937.644 313.891 938.059 312.959 938.059 311.798C938.059 310.947 937.854 310.196 937.443 309.545C937.033 308.894 936.447 308.383 935.686 308.012C934.935 307.642 934.039 307.457 932.997 307.457H927.544V315.628ZM927.544 303.055H932.366C933.257 303.055 934.049 302.9 934.739 302.59C935.44 302.269 935.991 301.819 936.392 301.238C936.802 300.657 937.008 299.961 937.008 299.15C937.008 298.038 936.612 297.142 935.821 296.461C935.04 295.78 933.928 295.44 932.486 295.44H927.544V303.055ZM978.122 305.564C978.122 308.919 977.486 311.773 976.214 314.126C974.953 316.479 973.23 318.277 971.047 319.519C968.874 320.751 966.431 321.366 963.717 321.366C960.983 321.366 958.529 320.746 956.356 319.504C954.183 318.262 952.466 316.464 951.204 314.111C949.942 311.758 949.311 308.909 949.311 305.564C949.311 302.209 949.942 299.355 951.204 297.002C952.466 294.648 954.183 292.856 956.356 291.624C958.529 290.382 960.983 289.762 963.717 289.762C966.431 289.762 968.874 290.382 971.047 291.624C973.23 292.856 974.953 294.648 976.214 297.002C977.486 299.355 978.122 302.209 978.122 305.564ZM971.528 305.564C971.528 303.391 971.202 301.558 970.551 300.066C969.91 298.574 969.004 297.442 967.832 296.671C966.661 295.9 965.289 295.515 963.717 295.515C962.144 295.515 960.772 295.9 959.601 296.671C958.429 297.442 957.518 298.574 956.867 300.066C956.226 301.558 955.906 303.391 955.906 305.564C955.906 307.737 956.226 309.57 956.867 311.062C957.518 312.554 958.429 313.686 959.601 314.457C960.772 315.228 962.144 315.613 963.717 315.613C965.289 315.613 966.661 315.228 967.832 314.457C969.004 313.686 969.91 312.554 970.551 311.062C971.202 309.57 971.528 307.737 971.528 305.564ZM983.786 320.946V290.182H995.923C998.247 290.182 1000.23 290.598 1001.87 291.429C1003.52 292.25 1004.78 293.417 1005.64 294.929C1006.51 296.431 1006.95 298.199 1006.95 300.231C1006.95 302.274 1006.51 304.032 1005.63 305.504C1004.75 306.966 1003.47 308.088 1001.8 308.869C1000.13 309.65 998.121 310.04 995.758 310.04H987.632V304.813H994.707C995.948 304.813 996.98 304.643 997.801 304.302C998.622 303.962 999.233 303.451 999.634 302.77C1000.04 302.089 1000.25 301.243 1000.25 300.231C1000.25 299.21 1000.04 298.349 999.634 297.648C999.233 296.947 998.617 296.416 997.786 296.055C996.965 295.685 995.928 295.5 994.677 295.5H990.29V320.946H983.786ZM1000.4 306.946L1008.05 320.946H1000.87L993.385 306.946H1000.4ZM1017.69 320.946H1010.72L1021.34 290.182H1029.73L1040.33 320.946H1033.36L1025.66 297.212H1025.41L1017.69 320.946ZM1017.26 308.854H1033.72V313.931H1017.26V308.854ZM1039.95 295.545V290.182H1065.21V295.545H1055.8V320.946H1049.37V295.545H1039.95ZM1097.09 305.564C1097.09 308.919 1096.45 311.773 1095.18 314.126C1093.92 316.479 1092.2 318.277 1090.01 319.519C1087.84 320.751 1085.4 321.366 1082.68 321.366C1079.95 321.366 1077.49 320.746 1075.32 319.504C1073.15 318.262 1071.43 316.464 1070.17 314.111C1068.91 311.758 1068.28 308.909 1068.28 305.564C1068.28 302.209 1068.91 299.355 1070.17 297.002C1071.43 294.648 1073.15 292.856 1075.32 291.624C1077.49 290.382 1079.95 289.762 1082.68 289.762C1085.4 289.762 1087.84 290.382 1090.01 291.624C1092.2 292.856 1093.92 294.648 1095.18 297.002C1096.45 299.355 1097.09 302.209 1097.09 305.564ZM1090.49 305.564C1090.49 303.391 1090.17 301.558 1089.52 300.066C1088.88 298.574 1087.97 297.442 1086.8 296.671C1085.63 295.9 1084.25 295.515 1082.68 295.515C1081.11 295.515 1079.74 295.9 1078.57 296.671C1077.39 297.442 1076.48 298.574 1075.83 300.066C1075.19 301.558 1074.87 303.391 1074.87 305.564C1074.87 307.737 1075.19 309.57 1075.83 311.062C1076.48 312.554 1077.39 313.686 1078.57 314.457C1079.74 315.228 1081.11 315.613 1082.68 315.613C1084.25 315.613 1085.63 315.228 1086.8 314.457C1087.97 313.686 1088.88 312.554 1089.52 311.062C1090.17 309.57 1090.49 307.737 1090.49 305.564ZM1102.75 320.946V290.182H1114.89C1117.21 290.182 1119.19 290.598 1120.84 291.429C1122.49 292.25 1123.75 293.417 1124.61 294.929C1125.48 296.431 1125.91 298.199 1125.91 300.231C1125.91 302.274 1125.47 304.032 1124.59 305.504C1123.71 306.966 1122.43 308.088 1120.76 308.869C1119.1 309.65 1117.09 310.04 1114.72 310.04H1106.6V304.813H1113.67C1114.91 304.813 1115.95 304.643 1116.77 304.302C1117.59 303.962 1118.2 303.451 1118.6 302.77C1119.01 302.089 1119.21 301.243 1119.21 300.231C1119.21 299.21 1119.01 298.349 1118.6 297.648C1118.2 296.947 1117.58 296.416 1116.75 296.055C1115.93 295.685 1114.89 295.5 1113.64 295.5H1109.26V320.946H1102.75ZM1119.37 306.946L1127.01 320.946H1119.83L1112.35 306.946H1119.37ZM1128.27 290.182H1135.56L1142.57 303.431H1142.87L1149.89 290.182H1157.17L1145.95 310.07V320.946H1139.49V310.07L1128.27 290.182Z" fill="white"/>
</g>
<defs>
<clipPath id="clip0_10_1596">
<rect width="1160" height="384" fill="white"/>
</clipPath>
</defs>
</svg>
