<svg width="384" height="384" viewBox="0 0 384 384" fill="none" xmlns="http://www.w3.org/2000/svg">
<path d="M384 0H0V384H384V0Z" fill="#314199"/>
<path d="M191.859 301.85L196.914 316.748L212.312 316.734L201.383 324.97L204.388 340.965L191.859 331.891L179.29 340.721L182.331 324.97L171.516 316.683H186.899L191.859 301.85Z" fill="#F8EC26"/>
<path d="M191.859 43.0344L196.914 57.9364L212.312 57.9182L201.383 66.1546L204.388 82.1499L191.859 73.0753L179.29 81.9058L182.331 66.1546L171.516 57.8672H186.899L191.859 43.0344Z" fill="#F8EC26"/>
<path d="M254.465 59.6785L259.519 74.5768L274.921 74.5623L263.992 82.7986L266.993 98.7903L254.465 89.7194L241.896 98.5498L244.941 82.7986L234.125 74.5112H249.509L254.465 59.6785Z" fill="#F8EC26"/>
<path d="M126.222 59.6785L131.277 74.5768L146.679 74.5623L135.75 82.7986L138.751 98.7903L126.222 89.7194L113.653 98.5498L116.699 82.7986L105.883 74.5112H121.263L126.222 59.6785Z" fill="#F8EC26"/>
<path d="M254.465 284.364L259.519 299.266L274.921 299.251L263.992 307.488L266.993 323.48L254.465 314.409L241.896 323.239L244.941 307.488L234.125 299.197H249.509L254.465 284.364Z" fill="#F8EC26"/>
<path d="M126.222 284.364L131.277 299.266L146.679 299.251L135.75 307.488L138.751 323.48L126.222 314.409L113.653 323.239L116.699 307.488L105.883 299.197H121.263L126.222 284.364Z" fill="#F8EC26"/>
<path d="M78.2729 108.521L83.3276 123.423L98.726 123.405L87.7967 131.645L90.8017 147.637L78.2729 138.566L65.7039 147.392L68.7455 131.645L57.9297 123.354H73.3134L78.2729 108.521Z" fill="#F8EC26"/>
<path d="M303.992 108.521L309.046 123.423L324.448 123.405L313.519 131.645L316.52 147.637L303.992 138.566L291.423 147.392L294.464 131.645L283.648 123.354H299.032L303.992 108.521Z" fill="#F8EC26"/>
<path d="M78.2729 237.701L83.3276 252.603L98.726 252.585L87.7967 260.825L90.8017 276.816L78.2729 267.742L65.7039 276.572L68.7455 260.825L57.9297 252.534H73.3134L78.2729 237.701Z" fill="#F8EC26"/>
<path d="M303.992 237.701L309.046 252.603L324.448 252.585L313.519 260.825L316.52 276.816L303.992 267.742L291.423 276.572L294.464 260.825L283.648 252.534H299.032L303.992 237.701Z" fill="#F8EC26"/>
<path d="M63.3745 172.626L68.4292 187.528L83.8276 187.51L72.8983 195.75L75.9033 211.742L63.3745 202.667L50.8055 211.498L53.8471 195.75L43.0312 187.459H58.415L63.3745 172.626Z" fill="#F8EC26"/>
<path d="M320.504 172.626L325.558 187.528L340.96 187.51L330.031 195.75L333.032 211.742L320.504 202.667L307.935 211.498L310.976 195.75L300.164 187.459H315.544L320.504 172.626Z" fill="#F8EC26"/>
</svg>
