<svg width="480" height="480" viewBox="0 0 480 480" fill="none" xmlns="http://www.w3.org/2000/svg">
<path d="M104.686 299.399L103.352 300.259C103.328 298.953 103.856 298.345 104.531 297.988L104.686 299.399Z" fill="#0A9494"/>
<path d="M105.406 297.818L104.533 297.988C104.038 296.318 105.41 296.227 105.406 297.818Z" fill="#0A9494"/>
<path d="M103.355 300.258C103.501 301.045 103.605 301.45 103.592 301.734C102.832 301.995 102.459 301.843 102.063 301.485C101.831 301.273 101.928 300.667 102.291 300.449C102.543 300.302 102.946 300.318 103.341 300.26L103.355 300.258Z" fill="#0A9494"/>
<path d="M105.408 297.818C104.872 298.352 105.249 299.352 104.675 299.4L104.52 297.989L105.408 297.818Z" fill="#0A9494"/>
<path d="M104.674 299.4C104.536 300.59 104.518 301.781 103.591 301.734C103.605 301.45 103.501 301.045 103.355 300.258L104.674 299.4Z" fill="#0A9494"/>
<path d="M422.494 62.5589C418.266 60.6137 396.749 73.0524 391.987 75.8639L362.569 93.272C360.517 94.493 360.392 96.7369 360.323 99.0935C360.248 101.258 363.144 101.639 364.894 102.682C370.366 105.947 375.671 109.306 381.613 112.252L373.16 124.924L341.014 178.611L326.547 203.702C321.912 211.733 317.642 219.575 313.605 228.046C309.393 227.467 305.632 228.147 301.451 229.884L283.891 212.094L275.753 204.72L265.454 196.215C267.351 190.595 266.424 184.987 264.071 179.938C260.902 173.134 254.748 170.433 247.427 171.325C238.598 172.427 230.672 178.246 229.971 187.586C229.552 193.118 232.167 198.124 236.078 202.2L209.594 249.899C200.196 266.837 192.348 283.68 185.365 301.766C172.995 303.657 175.698 305.665 168.309 298.476L140.191 271.184C138.76 269.795 124.996 256.941 123.858 259.98C122.902 262.523 130.4 263.917 132.656 269.036C130.454 269.159 129.793 266.525 127.411 267.307C141.621 280.974 155.636 294.082 171.085 306.304C170.055 308.172 168.943 309.557 167.135 310.826C160.084 304.418 153.993 297.681 146.751 291.83C143.733 289.395 127.128 273.538 125.04 273.752C124.394 273.822 123.75 274.324 123.303 275.131C116.856 286.706 110.52 297.942 103.149 309.231L103.591 301.734C102.831 301.996 102.46 301.858 102.062 301.485C101.83 301.273 101.928 300.668 102.29 300.449C102.542 300.303 102.945 300.318 103.355 300.258C103.316 298.954 103.859 298.345 104.518 297.99C104.023 296.32 105.411 296.227 105.407 297.818C110.457 292.894 112.121 283.523 111.687 284.18C114.711 277.173 118.697 270.819 122.283 264.063C122.714 263.243 122.924 262.313 122.417 261.625C120.184 258.614 114.57 270.736 113.861 272.003L99.3245 297.667L76.6886 337.882C74.9589 340.956 54.8901 376.786 57.556 377.371C57.8154 377.432 58.5304 377.309 58.7776 376.851L74.1533 348.255L83.3405 333.733L101.854 302.029C101.78 305.56 100.561 307.998 99.5432 310.92L96.3142 320.254C95.2947 323.161 93.5982 324.774 92.2026 327.098C88.4429 333.353 86.0403 340.054 82.4289 346.441L67.9914 371.93C65.8102 375.767 62.7757 379.415 63.0603 384.454C72.7704 370.633 79.9438 355.916 87.9511 341.346C98.3427 322.485 110.797 305.761 119.974 288.03C121.74 284.61 123.185 281.24 126.021 278.223L144.273 296.487L152.604 303.721L165.341 314.264C163.645 320.768 164.493 327.277 169.163 331.909C175.969 338.656 185.381 339.617 192.956 333.85C199.871 328.573 201.836 318.693 196.785 310.862C195.728 309.223 195.667 307.446 196.601 305.797L204.356 292.042L218.103 267.714C229.132 248.158 238.895 228.578 247.182 207.614C250.771 207.666 253.515 206.652 256.986 205.498C268.686 217.968 280.441 229.585 293.232 240.761C290.497 251.884 294.571 260.834 305.366 263.694C312.089 265.485 318.863 263.806 323.703 258.458C329.603 251.924 328.781 242.663 324.217 235.342C323.262 233.812 326.305 228.617 327.567 228.062C328.105 227.81 328.948 228.862 330.084 229.05C331.793 224.566 335.36 220.755 337.499 216.402C346.834 197.39 357.654 179.998 369.565 162.517C378.938 148.748 386.957 134.964 394.491 119.865C400.949 124.257 407.761 127.539 414.532 131.124C415.827 131.814 415.307 134.265 416.831 133.786C419.171 133.024 419.087 132.527 419.16 130.349L420.917 79.3684C421.374 66.1755 415.741 67.4173 422.494 62.5589ZM134.027 271.235C133.836 271.256 133.656 271.112 133.635 270.921C133.613 270.716 133.758 270.551 133.949 270.53C134.155 270.508 134.318 270.638 134.341 270.844C134.362 271.035 134.232 271.213 134.027 271.235ZM99.4252 315.676C99.4878 313.126 101.232 311.686 102.128 309.819C101.891 312.536 100.195 313.748 99.4252 315.676ZM170.171 326.862C167.358 324.257 167.552 320.325 167.928 316.567C167.844 315.536 169.316 315.672 169.607 316.695C168.238 320.622 169.584 323.135 170.171 326.862ZM371.343 94.7783C371.548 94.7558 371.713 94.9013 371.734 95.0923C371.756 95.2979 371.626 95.461 371.42 95.4835C371.229 95.5044 371.051 95.3752 371.029 95.1696C371.008 94.9786 371.152 94.7993 371.343 94.7783ZM234.741 195.433C230.443 189.184 234.883 175.569 243.747 175.326C235.086 183.115 233.65 183.718 234.741 195.433ZM219.746 238.349C218.863 240.468 218.908 242.916 216.34 244.446C216.71 241.848 218.542 240.384 219.746 238.349ZM219.536 247.961C219.557 248.152 219.411 248.317 219.22 248.338C219.014 248.361 218.851 248.23 218.831 248.039C218.808 247.833 218.939 247.67 219.144 247.647C219.335 247.627 219.513 247.756 219.536 247.961ZM201.184 272.735C205.938 263.204 209.91 253.462 216.301 244.763L202.052 273.056C201.67 273.782 201.75 274.368 201.397 274.54C200.988 274.749 200.517 274.652 200.313 274.288C199.952 273.703 200.513 273.121 201.184 272.735ZM200.078 275.399C200.269 275.378 200.449 275.522 200.47 275.713C200.491 275.904 200.347 276.083 200.156 276.104C199.965 276.125 199.785 275.981 199.764 275.79C199.744 275.599 199.887 275.42 200.078 275.399ZM192.49 324.178C190.924 327.383 188.279 330.111 184.997 330.961C181.887 331.748 177.296 331.508 174.873 328.384C170.059 322.176 173.216 311.78 176.237 310.988C177.032 310.782 177.716 311.465 178.835 312.041C179.413 310.937 178.958 310.184 178.41 308.847C182.746 307.167 187.641 307.746 190.747 311.122C194.035 314.672 194.751 319.574 192.49 324.178ZM192.992 305.286C191.242 305.195 188.749 304.012 188.159 302.292C191.148 296.88 193.643 290.748 197.41 285.504C200.041 281.84 202.944 278.891 203.243 274.427C203.378 272.405 205.478 271.893 206.338 270.52L213.813 258.55C214.369 257.656 215.665 257.678 216.336 257.158C219.745 254.48 219.494 249.349 224.066 247.108L192.992 305.286ZM223.989 246.403C223.798 246.424 223.618 246.28 223.597 246.089C223.575 245.883 223.72 245.719 223.911 245.698C224.102 245.677 224.28 245.806 224.303 246.012C224.323 246.203 224.18 246.382 223.989 246.403ZM219.463 247.167L233.782 216.115L238.41 204.219C240.474 204.736 242.177 205.62 243.989 207.235C238.132 219.177 229.179 237.062 219.463 247.167ZM255.207 198.899C254.265 198.987 254.084 197.743 252.649 196.994C252.958 198.045 253.647 199.04 253.001 199.661C251.687 200.965 250.509 200.93 248.693 200.237C247.219 199.67 245.581 201.143 244.158 200.363C242.89 199.654 240.928 198.977 241.044 196.779C241.072 196.494 241.401 195.699 241.578 195.546C241.74 195.394 241.499 194.826 241.158 194.7C240.847 194.571 240.446 196.072 239.762 196.206C236.278 191.414 237.416 183.751 243.036 180.504C245.344 179.18 247.725 179.871 250.561 179.159C249.079 177.582 247.365 179.435 245.251 178.061C249.626 176.332 254.566 176.504 258.041 179.989C261.163 183.111 262.769 188.54 260.159 193.078C259.644 193.67 258.422 192.153 257.695 192.159C258.117 193.168 259.037 193.558 259.178 194.435C259.427 196.028 256.826 198.751 255.207 198.899ZM294.592 236.211C288.578 230.581 283.476 224.584 277.091 219.916C274.167 217.784 271.845 216.002 269.609 213.095C266.87 209.544 262.64 207.436 259.587 203.994C260.359 202.363 261.822 201.192 263.591 200.24L281.263 217.824C286.6 223.111 292.067 227.686 298.476 231.905C298.027 233.634 296.918 234.915 294.592 236.211ZM315.467 254.395C311.491 257.18 305.612 257.393 301.714 254.119C296.783 249.961 297.063 243.151 300.871 238.422C305.165 233.104 311.191 234.51 311.102 234.372C311.323 234.764 310.694 235.531 310.361 236.698C311.566 236.982 311.793 234.98 313.396 234.819C314.876 235.028 317.904 236.614 318.099 238.258C318.32 240.137 319.511 240.423 319.968 241.473C322.195 246.596 319.374 251.648 315.467 254.395ZM330.989 224.148C329.687 223.934 330.224 222.731 330.544 221.848C332.179 219.543 333.1 216.959 335.46 214.886C334.738 218.34 332.531 220.991 330.989 224.148ZM335.96 214.163C335.755 214.185 335.59 214.04 335.569 213.849C335.548 213.658 335.677 213.48 335.883 213.457C336.074 213.436 336.253 213.58 336.274 213.771C336.295 213.962 336.151 214.142 335.96 214.163ZM414.839 85.9073C414.839 85.0896 415.187 84.7392 415.664 85.4303C415.95 87.2276 415.137 87.5398 414.839 85.9073ZM415.868 80.6503C414.025 79.7075 415.559 78.0973 414.21 76.5056L413.377 81.3843L412.636 95.6491C412.434 99.6408 412.359 103.292 412.008 107.285L410.622 123.256C405.189 119.674 400.176 116.938 394.493 114.052C391.551 117.734 389.998 121.74 387.513 125.522C383.677 131.354 380.233 137.098 376.813 143.197L367.671 159.483C366.889 160.892 365.098 160.969 364.632 161.734C357.893 172.954 350.972 183.466 344.128 194.683L321.266 232.157C319.632 231.489 318.23 230.364 317.111 228.97C320.596 222.24 324.564 216.259 328.672 209.788C335.251 199.417 340.565 188.487 347.914 178.494C353.944 170.295 358.624 161.991 363.949 153.335C371.871 140.424 378.948 127.68 384.914 113.749C385.825 111.612 387.362 109.764 386.365 107.45C384.878 108.534 383.854 108.141 382.748 107.549L365.599 98.1286C366.589 96.7118 368.05 96.2097 369.799 95.6166C371.044 98.0224 373.832 97.8209 376.299 96.1827C377.254 95.5428 375.754 94.7408 374.68 94.026C376.784 92.7398 378.698 90.8054 381.052 89.4918L404.166 76.5658C405.652 75.7487 407.086 76.6175 408.536 74.6595C410.196 72.4407 413.533 71.5546 416.312 69.5105C417.031 73.3567 416.498 76.7604 415.868 80.6503Z" fill="#0A9494"/>
<path d="M126.529 266.17L123.566 263.967C124.643 264.295 126.016 263.937 126.529 266.17Z" fill="#0A9494"/>
<path d="M294.591 236.211C288.563 230.583 283.475 224.584 277.074 219.904C274.15 217.771 271.828 215.989 269.592 213.082C266.852 209.517 262.621 207.409 259.57 203.982C260.357 202.349 261.805 201.179 263.574 200.227L281.246 217.811C286.568 223.101 292.05 227.674 298.459 231.892C297.995 233.623 296.901 234.903 294.575 236.198L294.591 236.211Z" fill="#0A9494"/>
<path d="M243.99 207.233C238.133 219.175 229.181 237.06 219.465 247.165L233.798 216.111L238.428 204.23C240.492 204.748 242.193 205.617 244.005 207.232L243.99 207.233Z" fill="#0A9494"/>
<path d="M202.053 273.058C201.672 273.784 201.765 274.368 201.413 274.54C201.004 274.749 200.531 274.637 200.315 274.289C199.968 273.703 200.514 273.122 201.185 272.737C205.939 263.206 209.911 253.464 216.302 244.764L202.038 273.059L202.053 273.058Z" fill="#0A9494"/>
<path d="M243.746 175.326C235.083 183.1 233.664 183.716 234.74 195.433C230.442 189.184 234.897 175.568 243.746 175.326Z" fill="#0A9494"/>
<path d="M169.608 316.694C168.239 320.621 169.6 323.133 170.187 326.86C167.374 324.254 167.567 320.323 167.943 316.565C167.858 315.518 169.332 315.669 169.621 316.678L169.608 316.694Z" fill="#0A9494"/>
<path d="M335.46 214.887C334.737 218.327 332.544 220.976 331.002 224.133C329.702 223.934 330.239 222.73 330.557 221.833C332.178 219.529 333.114 216.944 335.46 214.887Z" fill="#0A9494"/>
<path d="M216.34 244.447C216.725 241.848 218.556 240.383 219.76 238.348C218.865 240.483 218.925 242.93 216.34 244.447Z" fill="#0A9494"/>
<path d="M415.665 85.431C415.966 87.2267 415.138 87.5404 414.84 85.9079C414.84 85.0903 415.188 84.7399 415.665 85.431Z" fill="#0A9494"/>
<path d="M99.4258 315.675C99.472 313.113 101.234 311.686 102.129 309.818C101.892 312.535 100.196 313.747 99.4258 315.675Z" fill="#0A9494"/>
<path d="M134.026 271.221C134.221 271.2 134.361 271.025 134.34 270.83C134.318 270.635 134.143 270.495 133.949 270.516C133.754 270.537 133.613 270.713 133.635 270.907C133.656 271.102 133.831 271.243 134.026 271.221Z" fill="#0A9494"/>
<path d="M200.155 276.104C200.35 276.083 200.491 275.908 200.469 275.713C200.448 275.518 200.273 275.378 200.078 275.399C199.883 275.42 199.743 275.595 199.764 275.79C199.786 275.985 199.961 276.125 200.155 276.104Z" fill="#0A9494"/>
<path d="M371.432 95.4826C371.626 95.4613 371.767 95.2861 371.746 95.0914C371.724 94.8967 371.549 94.7561 371.354 94.7775C371.16 94.7988 371.019 94.974 371.041 95.1687C371.062 95.3634 371.237 95.504 371.432 95.4826Z" fill="#0A9494"/>
<path d="M223.987 246.389C224.181 246.368 224.322 246.193 224.301 245.998C224.279 245.803 224.104 245.663 223.909 245.684C223.715 245.705 223.574 245.881 223.596 246.075C223.617 246.27 223.792 246.411 223.987 246.389Z" fill="#0A9494"/>
<path d="M335.96 214.163C336.154 214.141 336.295 213.966 336.274 213.771C336.252 213.577 336.077 213.436 335.882 213.457C335.688 213.479 335.547 213.654 335.568 213.849C335.59 214.043 335.765 214.184 335.96 214.163Z" fill="#0A9494"/>
<path d="M219.221 248.338C219.416 248.317 219.557 248.141 219.535 247.947C219.514 247.752 219.339 247.611 219.144 247.633C218.949 247.654 218.809 247.829 218.83 248.024C218.852 248.219 219.027 248.359 219.221 248.338Z" fill="#0A9494"/>
<path d="M310.4 238.002C310.421 238.193 310.29 238.356 310.099 238.376C309.893 238.399 309.73 238.268 309.71 238.077C309.687 237.872 309.818 237.709 310.023 237.686C310.214 237.665 310.377 237.796 310.4 238.002Z" fill="#0A9494"/>
</svg>
