<svg width="480" height="480" viewBox="0 0 480 480" fill="none" xmlns="http://www.w3.org/2000/svg">
<path d="M402.175 91.7569L313.487 81.2298L284.533 78.2487L195.093 70.121C193.659 69.9821 192.512 70.677 191.749 71.9279L137.192 161.42L78.0221 266.391C76.9648 268.283 76.1188 270.673 76.7996 272.528C77.2989 273.86 79.7939 274.471 81.4735 274.756L230.229 300.674C237.591 301.947 288.135 311.171 290.485 308.899C294.523 305.001 296.981 300.35 299.437 295.588L319.018 257.548L362.328 176.868L396.702 112.738L404.438 96.5926C405.328 94.7393 404.619 92.0482 402.175 91.7569ZM347.209 89.1253L326.727 126.314L276.035 120.449L296.342 83.2438L347.209 89.1253ZM246.592 163.845L225.302 201.898L178.626 195.33C177.479 195.178 176.359 194.905 175.674 193.938L196.704 157.157L246.592 163.845ZM198.928 153.657L219.537 117.56L259.62 122.261L269.306 123.922L248.887 160.038L198.928 153.657ZM222.903 205.654L202.195 243.627L151.694 236.074L172.907 198.245L222.903 205.654ZM227.79 206.25L278.444 213.777L257.587 252.569L206.532 244.539L227.79 206.25ZM246.657 205.072C241.066 204.271 235.7 203.97 229.996 202.366L251.184 164.386L301.876 171.233L280.823 209.938L246.657 205.072ZM253.33 160.837L273.856 124.049L324.456 130.301L304.153 167.179L253.33 160.837ZM292.687 83.0402L271.93 119.683L234.273 115.463C230.165 114.997 226.307 114.787 221.799 113.804L241.445 77.6414L292.687 83.0402ZM185.429 88.9625C188.823 83.5274 191.734 78.2913 194.794 72.3594C209.332 74.9827 223.388 75.811 238.221 77.3701L217.405 113.338L173.559 108.573L185.429 88.9625ZM171.738 111.443L215.258 117.036L194.643 152.915L150.243 147.523L171.738 111.443ZM148.333 150.602L192.199 156.571L170.812 193.931L126.855 187.913L148.333 150.602ZM125.086 190.951L168.49 197.463L147.224 235.122L103.876 228.739L125.086 190.951ZM79.107 271.126C87.4357 258.179 94.4505 245.541 101.822 232.037L144.913 238.955L123.413 277.766L79.107 271.126ZM127.534 278.506L149.6 239.641L199.87 247.609L178.328 287.413L127.534 278.506ZM182.717 288.07L204.482 248.219L255.312 256.46L234.003 296.969L182.717 288.07ZM289.362 305.553C271.478 303.207 256.457 301.056 238.244 297.599L259.943 257.017L310.141 265.156L289.362 305.553ZM312.494 261.027L262.122 253.268L283.029 214.385L333.01 221.806L312.494 261.027ZM335.073 218.127L285.048 210.743L306.389 171.739L356.48 178.583L335.073 218.127ZM358.827 174.658L308.318 168.033L328.75 130.662L379.23 136.888L358.827 174.658ZM381.37 132.984L355.452 129.819L330.802 126.968L350.891 89.4682L401.405 95.056L381.37 132.984Z" fill="#FC5855"/>
<path d="M433.852 98.2257C432.114 93.0448 430.206 88.0661 427.731 83.1553C427.113 81.9208 426.102 80.7984 424.51 80.5897L392.044 76.5036L353.166 72.0562L305.744 66.8362L254.565 61.2112C239.659 59.5631 225.244 58.0716 210.329 56.9416L187.402 55.1996C185.733 55.079 184.269 57.505 183.474 58.8075L159.209 98.2387L107.355 187.46L56.8918 277.554C55.5075 280.001 55.5628 282.11 56.485 284.576C57.9187 288.389 63.3279 301.219 68.5424 300.686L128.965 312.409L163.956 318.638C152.267 344.85 155.03 375.275 176.164 395.392C204.373 421.725 253.475 423.133 289.67 418.047C291.25 417.817 291.568 420.457 292.268 421.126C295.303 424.056 299.684 425.354 304.05 425.271C312.437 425.114 320.501 424.774 328.951 425.388C330.714 425.518 332.327 424.8 332.707 423.129C333.612 419.147 340.701 423.234 345.793 420.722L347.598 416.048C353.121 414.862 365.99 419.769 366.719 412.805C367.193 408.33 367.46 404.026 363.155 403.35C357.88 402.525 352.825 402.964 347.115 403.258C346.537 401.468 347.162 399.384 345.705 398.778C342.038 397.29 338.07 398.353 334.141 398.027C332.651 397.897 332.527 395.508 331.362 394.986C328.112 393.565 305.122 393.742 299.942 394.06C295.338 394.352 291.991 396.76 290.621 401.462L276.959 401.915C252.323 402.725 229.497 403.178 206.004 393.173C196.941 389.304 189.234 383.696 183.125 375.975C171.75 360.013 173.685 339.604 181.013 321.902L240.367 332.115L304.74 343.238C307.735 343.76 309.583 342.027 310.668 339.714C313.613 333.416 316.324 327.71 319.638 321.407L389.701 188.439L432.846 105.367C434.138 102.884 434.719 100.837 433.852 98.2257ZM347.433 406.745L362.544 407.402C362.762 408.953 362.675 410.133 362.245 412.044L347.135 412.357C346.728 410.501 346.669 408.569 347.433 406.745ZM342.719 401.972L342.562 417.131C339.173 417.295 336.459 417.674 333.407 417.174L333.33 401.746L342.719 401.972ZM294.925 403.272C295.46 400.428 297.356 398.618 300.215 398.58L328.654 398.835L328.677 420.745L302.298 420.226C299.053 420.171 296.438 418.825 295.037 416.367C294.506 411.973 294.123 407.606 294.925 403.272ZM86.3901 234.709L151.726 121.362L173.722 83.9097C178.713 75.3921 183.547 67.3646 187.852 58.7261L254.278 66.715L320.571 73.9536L421.671 84.6582L340.088 238.145L297.315 321.321L199.498 303.368L147.005 294.529L60.4464 280.056L86.3901 234.709ZM180.1 313.413C165.864 339.556 165.045 371.001 190.657 390.157C199.586 396.827 209.4 400.7 220.522 403.197C243.288 408.297 266.314 408.464 289.451 405.501C290.183 408.522 290.008 410.608 289.566 413.762C255.686 416.381 215.714 417.168 186.977 397.272C158.317 377.438 156.608 341.201 171.727 312.289C172.665 310.508 174.574 310.393 175.987 310.338C177.29 310.273 180.498 311.704 180.1 313.413ZM186.702 317.454C184.488 317.048 183.937 316.243 184.083 314.741C184.458 310.871 182.529 307.653 178.844 306.64C173.426 305.187 168.27 307.651 166.471 313.541L145.442 310.098L68.3535 297.417C66.1858 292.44 63.1659 288.788 60.6628 283.888L79.6277 287.623L190.376 307.156L297.075 325.068L302.038 338.278L186.702 317.454ZM325.002 300.851L307.264 335.656L300.41 323.916L317.299 292.389L384.72 164.833L424.749 87.4284L429.681 101.237L325.002 300.851Z" fill="#FC5855"/>
</svg>
