<svg width="480" height="480" viewBox="0 0 480 480" fill="none" xmlns="http://www.w3.org/2000/svg">
<path d="M402.175 91.7569L313.487 81.2298L284.533 78.2487L195.093 70.121C193.659 69.9821 192.512 70.677 191.749 71.9279L137.192 161.42L78.0221 266.391C76.9648 268.283 76.1188 270.673 76.7996 272.528C77.2989 273.86 79.7939 274.471 81.4735 274.756L230.229 300.674C237.591 301.947 288.135 311.171 290.485 308.899C294.523 305.001 296.981 300.35 299.437 295.588L319.018 257.548L362.328 176.868L396.702 112.738L404.438 96.5926C405.328 94.7393 404.619 92.0482 402.175 91.7569ZM347.209 89.1253L326.727 126.314L276.035 120.449L296.342 83.2438L347.209 89.1253ZM246.592 163.845L225.302 201.898L178.626 195.33C177.479 195.178 176.359 194.905 175.674 193.938L196.704 157.157L246.592 163.845ZM198.928 153.657L219.537 117.56L259.62 122.261L269.306 123.922L248.887 160.038L198.928 153.657ZM222.903 205.654L202.195 243.627L151.694 236.074L172.907 198.245L222.903 205.654ZM227.79 206.25L278.444 213.777L257.587 252.569L206.532 244.539L227.79 206.25ZM246.657 205.072C241.066 204.271 235.7 203.97 229.996 202.366L251.184 164.386L301.876 171.233L280.823 209.938L246.657 205.072ZM253.33 160.837L273.856 124.049L324.456 130.301L304.153 167.179L253.33 160.837ZM292.687 83.0402L271.93 119.683L234.273 115.463C230.165 114.997 226.307 114.787 221.799 113.804L241.445 77.6414L292.687 83.0402ZM185.429 88.9625C188.823 83.5274 191.734 78.2913 194.794 72.3594C209.332 74.9827 223.388 75.811 238.221 77.3701L217.405 113.338L173.559 108.573L185.429 88.9625ZM171.738 111.443L215.258 117.036L194.643 152.915L150.243 147.523L171.738 111.443ZM148.333 150.602L192.199 156.571L170.812 193.931L126.855 187.913L148.333 150.602ZM125.086 190.951L168.49 197.463L147.224 235.122L103.876 228.739L125.086 190.951ZM79.107 271.126C87.4357 258.179 94.4505 245.541 101.822 232.037L144.913 238.955L123.413 277.766L79.107 271.126ZM127.534 278.506L149.6 239.641L199.87 247.609L178.328 287.413L127.534 278.506ZM182.717 288.07L204.482 248.219L255.312 256.46L234.003 296.969L182.717 288.07ZM289.362 305.553C271.478 303.207 256.457 301.056 238.244 297.599L259.943 257.017L310.141 265.156L289.362 305.553ZM312.494 261.027L262.122 253.268L283.029 214.385L333.01 221.806L312.494 261.027ZM335.073 218.127L285.048 210.743L306.389 171.739L356.48 178.583L335.073 218.127ZM358.827 174.658L308.318 168.033L328.75 130.662L379.23 136.888L358.827 174.658ZM381.37 132.984L355.452 129.819L330.802 126.968L350.891 89.4682L401.405 95.056L381.37 132.984Z" fill="#0A9494"/>
<path d="M433.85 98.2257C432.112 93.0448 430.204 88.0661 427.729 83.1553C427.111 81.9208 426.1 80.7984 424.508 80.5897L392.042 76.5036L353.164 72.0562L305.742 66.8362L254.563 61.2112C239.657 59.5631 225.242 58.0716 210.327 56.9416L187.4 55.1996C185.731 55.079 184.267 57.505 183.472 58.8075L159.207 98.2387L107.353 187.46L56.8898 277.554C55.5055 280.001 55.5608 282.11 56.483 284.576C57.9167 288.389 63.326 301.219 68.5405 300.686L128.963 312.409L163.954 318.638C152.265 344.85 155.028 375.275 176.162 395.392C204.371 421.725 253.473 423.133 289.668 418.047C291.248 417.817 291.566 420.457 292.266 421.126C295.301 424.056 299.682 425.354 304.048 425.271C312.435 425.114 320.499 424.774 328.949 425.388C330.712 425.518 332.325 424.8 332.705 423.129C333.61 419.147 340.699 423.234 345.791 420.722L347.596 416.048C353.119 414.862 365.988 419.769 366.717 412.805C367.191 408.33 367.458 404.026 363.153 403.35C357.878 402.525 352.823 402.964 347.113 403.258C346.535 401.468 347.16 399.384 345.703 398.778C342.036 397.29 338.068 398.353 334.139 398.027C332.649 397.897 332.525 395.508 331.36 394.986C328.11 393.565 305.12 393.742 299.94 394.06C295.336 394.352 291.989 396.76 290.619 401.462L276.957 401.915C252.321 402.725 229.495 403.178 206.002 393.173C196.939 389.304 189.232 383.696 183.123 375.975C171.748 360.013 173.683 339.604 181.011 321.902L240.365 332.115L304.738 343.238C307.733 343.76 309.581 342.027 310.666 339.714C313.611 333.416 316.322 327.71 319.636 321.407L389.699 188.439L432.844 105.367C434.136 102.884 434.717 100.837 433.85 98.2257ZM347.431 406.745L362.542 407.402C362.76 408.953 362.673 410.133 362.243 412.044L347.133 412.357C346.726 410.501 346.667 408.569 347.431 406.745ZM342.717 401.972L342.56 417.131C339.171 417.295 336.457 417.674 333.405 417.174L333.328 401.746L342.717 401.972ZM294.923 403.272C295.458 400.428 297.354 398.618 300.213 398.58L328.652 398.835L328.675 420.745L302.296 420.226C299.051 420.171 296.436 418.825 295.035 416.367C294.504 411.973 294.121 407.606 294.923 403.272ZM86.3882 234.709L151.724 121.362L173.72 83.9097C178.711 75.3921 183.545 67.3646 187.85 58.7261L254.276 66.715L320.569 73.9536L421.669 84.6582L340.086 238.145L297.313 321.321L199.496 303.368L147.003 294.529L60.4445 280.056L86.3882 234.709ZM180.098 313.413C165.862 339.556 165.043 371.001 190.655 390.157C199.584 396.827 209.398 400.7 220.52 403.197C243.286 408.297 266.312 408.464 289.449 405.501C290.181 408.522 290.006 410.608 289.564 413.762C255.684 416.381 215.712 417.168 186.975 397.272C158.315 377.438 156.606 341.201 171.725 312.289C172.663 310.508 174.572 310.393 175.985 310.338C177.288 310.273 180.496 311.704 180.098 313.413ZM186.7 317.454C184.486 317.048 183.935 316.243 184.081 314.741C184.456 310.871 182.527 307.653 178.842 306.64C173.424 305.187 168.268 307.651 166.469 313.541L145.44 310.098L68.3516 297.417C66.1838 292.44 63.1639 288.788 60.6608 283.888L79.6257 287.623L190.374 307.156L297.073 325.068L302.036 338.278L186.7 317.454ZM325 300.851L307.262 335.656L300.408 323.916L317.297 292.389L384.718 164.833L424.747 87.4284L429.679 101.237L325 300.851Z" fill="#0A9494"/>
</svg>
