<svg width="480" height="480" viewBox="0 0 480 480" fill="none" xmlns="http://www.w3.org/2000/svg">
<path d="M434.308 321.901C426.657 308.643 410.633 303.276 396.82 309.428C394.7 310.375 393.471 312.455 393.976 314.374C394.378 315.962 396.727 317.83 398.784 317.224C403.851 315.711 409.119 314.254 414.35 315.98C418.365 317.31 422.403 319.991 425.124 323.424C430.767 330.551 431.383 341.148 426.808 348.63C423.117 354.634 417.988 358.27 411.428 359.577C399.88 361.888 389.315 356.225 385.245 344.939C381.929 335.785 385.065 325.533 392.083 318.62C392.763 317.944 394.141 315.65 393.033 315.239C383.882 314.436 378.1 327.699 376.814 335.48C346.003 337.01 312.869 326.512 289.092 307.155C284.69 303.557 279.872 300.736 276.317 295.984C286.903 288.694 294.467 285.671 291.203 270.775C289.477 262.904 288.389 255.442 287.383 247.485C285.77 234.707 277.991 229.593 265.702 226.521C273.191 195.177 271.378 167.377 258.669 137.761C254.459 127.945 249.253 119.112 242.552 110.848C255.643 98.1631 255.449 77.6677 242.253 65.5607C236.591 60.3709 229.501 58.2974 222.016 57.7443C217.712 57.4083 208.193 59.6003 207.178 64.87C191.962 69.7961 187.255 88.7539 193.847 102.837C197.321 110.269 202.707 115.262 210.465 117.864C219.297 120.826 228.186 120.45 237.054 115.392C258.662 144.216 267.876 188.322 257.306 222.82C251.893 220.291 246.817 217.796 241.144 219.131C230.721 221.574 228.58 224.832 219.9 231.329C214.083 235.669 200.053 244.616 200.996 252.32L202.84 267.539C189.567 271.143 177.838 277.183 166.342 284.586C159.483 288.989 153.811 294.069 147.938 299.785C136.615 310.785 127.742 323.79 121.589 338.349C120.073 341.92 119.328 345.383 117.424 348.953C112.522 347.498 94.3064 349.363 97.2557 356.398C100.26 363.536 109.338 351.801 122.002 359.809C128.096 363.653 132.038 369.291 132.88 376.18C133.678 382.757 131.578 388.966 126.784 394.296C117.677 404.446 100.786 404.424 92.0251 393.492C84.6182 384.235 85.7873 371.191 93.3748 362.622C94.9238 360.857 96.0911 359.228 96.9411 356.815C93.2114 356.039 90.212 358.105 87.7394 360.773C79.2854 369.864 77.8647 382.888 83.5363 394.158C88.5761 404.175 99.2458 410.583 111.401 410.246C122.179 409.937 131.816 403.665 136.94 394.875C145.901 379.549 141.079 359.455 123.611 350.987C133.826 325.977 148.347 307.039 170.733 291.654C178.675 286.2 186.601 281.717 195.85 278.692C198.347 277.871 200.585 275.996 203.6 276.499C204.184 286.575 204.784 296.565 215.698 300.382C223.795 303.227 231.376 306.337 239.132 310.1C248.917 314.836 255.89 314.203 263.752 307.296C266.189 305.157 267.736 302.688 270.437 300.567C284.863 317.201 306.469 329.455 326.822 336.522C342.992 342.145 359.871 343.951 377.403 343.62C379.993 359.025 393.368 369.352 408.943 368.563C419.607 368.035 429.332 361.599 434.227 352.855C439.732 343.031 439.827 331.491 434.308 321.901ZM228.97 109.685C221.253 112.702 212.879 111.721 206.574 106.774C193.36 96.4107 196.034 77.5445 208.119 66.9492C210.17 68.6654 212.537 68.5959 215.358 67.4262C222.738 64.3733 230.766 66.9233 236.287 71.7043C242.435 77.0057 245.136 85.0294 243.137 93.2424C241.171 101.298 235.584 107.085 228.97 109.685ZM258.832 300.689C255.745 304.204 250.82 306.138 246.293 304.01C240.199 301.161 234.554 298.746 228.319 296.857C222.226 295.003 211.895 292.486 211.554 285.223C211.081 275.353 209.72 265.745 207.267 256.139C204.804 246.562 214.78 244.872 223.193 237.169L238.49 223.166L249.388 227.953C256.84 231.219 263.872 234.558 271.55 237.171C276.208 238.757 278.951 243.14 279.321 247.939C280.016 257.031 281.512 265.431 283.179 274.263C283.748 277.334 283.124 281.554 280.381 283.086C271.933 287.781 265.132 293.489 258.832 300.689Z" fill="#FC5855"/>
<path d="M227.137 279.761C227.434 281.778 225.595 283.252 224.122 283.39C222.403 283.548 220.694 282.599 220.334 280.522C219.25 274.178 218.233 267.909 217.655 261.522C217.199 256.5 218.893 252.324 222.552 248.95C228.229 243.704 234.213 238.677 241.603 236.092C242.643 235.725 243.916 236.127 244.247 236.716C244.868 237.79 244.147 238.665 243.309 239.584C231.081 253.005 221.575 252.625 224.636 263.611C226.115 268.931 226.349 274.343 227.137 279.761Z" fill="#FC5855"/>
</svg>
