<svg width="480" height="480" viewBox="0 0 480 480" fill="none" xmlns="http://www.w3.org/2000/svg">
<path d="M397.594 347.329C397.128 346.657 398.129 346.042 398.063 345.469C397.766 342.669 397.906 340.058 397.738 337.246L396.919 323.076C396.836 321.522 396.634 320.248 396.977 318.602L385.774 195.302C385.074 191.73 384.731 188.571 384.404 184.965L377.761 114.282C376.593 110.658 376.728 107.186 376.108 103.54C375.912 102.333 376.347 101.378 376.435 100.279L376.762 96.3728L376.838 89.5403C376.851 88.0852 376.87 86.2122 376.399 84.8413C375.667 82.6727 375.797 80.5877 375.169 78.4501L374.078 74.712C372.157 68.195 366.107 60.6785 358.079 60.0991C356.273 59.9665 354.488 60.7203 352.686 59.9949C351.965 59.7101 350.469 59.6437 349.699 59.619L344.07 59.4689C339.805 59.3568 335.59 59.321 331.318 59.9365L325.146 60.8316L315.889 62.0061L306.315 63.5323C302.791 64.0935 299.338 65.1196 295.744 64.9064C294.051 61.7208 294.934 58.8407 293.153 55.6362C291.422 52.4946 287.849 50.9198 284.126 51.0413C281.457 51.1348 278.878 51.1124 276.26 51.4437L261.577 53.2842C258.944 53.6167 256.419 54.3434 253.814 54.1887C251.733 43.6742 242.907 35.5474 231.986 33.3722C228.831 32.7422 222.076 33.2594 219.139 34.0771C211.796 36.1015 205.239 40.5722 201.466 46.8508C199.694 49.8248 198.751 53.1547 198.354 56.6101C198.269 57.4255 198.907 59.1987 197.893 59.5059C195.892 60.1044 193.693 59.4821 191.624 59.6425C186.566 60.0465 181.613 60.3332 176.597 61.043C174.697 61.3226 173.035 62.1462 171.019 62.0998C171.019 62.0998 163.435 63.7016 162.151 64.7064C160.787 65.7857 160.453 68.0104 160.234 69.5918L159.713 73.1123L159.902 77.9149C156.769 78.1581 153.676 78.0476 150.54 78.2641L136.645 79.2121C129.54 79.7071 123.533 80.8162 116.506 81.0617C114.097 81.1452 111.996 81.443 109.575 81.716C100.533 82.7229 92.1386 87.3599 88.0767 95.0916C85.4324 100.097 84.6476 105.337 85.1299 110.827L87.2759 135.336C87.4572 137.339 87.3142 139.278 87.6678 141.265C87.9203 142.615 87.5254 143.849 87.6295 145.159L89.5626 168.436L90.2852 180.097C90.3676 181.328 90.2632 182.414 90.3805 183.709L92.695 210.721L93.9156 227.883L98.684 281.208L100.085 291.892L101.414 303.053L102.371 309.792L103.563 319.606C103.885 322.202 104.404 324.579 104.66 327.248L108.894 372.907C109.062 374.763 109.404 376.146 109.834 377.857C111.77 385.49 113.97 389.653 120.437 394.574C124.619 397.763 129.781 399.153 135.126 399.679C141.01 400.251 145.748 399.66 151.51 398.56L157.685 397.382L161.779 396.405C166.851 395.192 172.111 395.268 177.324 394.971L186.828 394.434L241.175 389.637L349.524 379.736L361.55 378.445C362.08 378.384 362.547 377.951 362.961 378.21C363.975 378.859 363.517 380.354 365.29 380.274C372.457 379.976 377.561 378.962 383.907 375.843C387.08 374.277 389.739 372.474 392.229 370.082C396.423 366.054 400.576 358.206 400.671 353.176L400.728 349.967C400.791 347.147 398.858 349.14 397.594 347.329ZM165.788 77.0591L165.985 67.8866C167.257 67.0714 168.848 67.062 170.455 66.9031L191.297 64.8283C194.653 64.4842 197.877 64.125 201.092 63.1878C203.376 62.5233 203.691 56.0866 205.949 51.7761C210.062 43.9591 218.798 38.7796 228.481 39.9091C233.001 40.4289 237.326 42.1645 240.619 45.1245C244.448 48.5743 246.248 53.1099 247.35 57.9241C247.654 59.2024 249.823 59.8273 251.148 59.7478C255.261 59.4563 259.088 59.5272 263.194 59.3172L269.808 59.0012L284.739 57.973C285.343 57.9318 285.912 57.9879 286.325 58.2332C286.77 58.5027 286.661 59.0645 286.784 59.6188C287.966 64.843 288.567 69.8909 289.065 75.2309L290.83 94.2554C290.869 94.6827 291.304 95.0068 291.037 95.4214C290.783 95.8079 290.26 95.6263 289.7 95.677L270.902 97.1495L224.984 101.211L200.185 104.506L169.608 107.435L168.768 100.08L167.315 91.3797C166.521 86.605 165.68 81.9423 165.788 77.0591ZM162.43 110.804C163.436 112.961 165.978 113.7 168.404 113.319C170.044 113.05 171.626 113.418 173.243 113.379L181.734 113.163C187.107 113.04 192.387 112.535 197.729 111.742L201.883 111.11L212.816 109.73L220.741 108.542L234.317 107.098C238.502 106.652 242.578 106.269 246.777 105.97L263.216 104.819L275.086 104.041C280.15 103.703 295.449 102.265 299.206 100.444C300.164 99.9938 300.356 98.7514 300.305 98.029C300.234 97.093 298.987 96.7481 298.26 96.2216C298.222 94.6903 298.317 92.5411 298.829 91.0004C299.099 90.3029 300.426 90.8963 300.911 90.812C304.962 90.3241 308.808 90.5954 312.881 90.3478L333.972 89.0986C337.153 88.905 340.112 88.0179 343.302 88.0792C343.793 89.1925 343.313 90.4475 343.364 91.6412L343.625 98.0526L343.6 101.932L344.039 110.293L344.088 114.839L344.772 126.072L344.848 130.912C344.916 135.82 345.184 140.534 345.511 145.432L346.175 155.805C346.353 158.414 346.323 160.962 346.534 163.608L348.575 188.72L352.265 227.252C352.505 229.735 353.015 232.017 353.294 234.456L354.792 247.487C355.563 254.094 356.245 260.508 357.19 267.114L358.029 272.867L359.986 289.047L362.179 305.919L363.208 313.607L364.766 327.791L365.462 331.955L366.73 342.449C366.836 343.301 367.517 344.114 367.159 345.116C364.487 345.331 361.793 344.996 359.05 345.069L348.478 345.312L339.153 345.752L334.954 345.89L325.182 346.505C322.937 346.641 320.778 346.621 318.492 346.788C309.069 347.412 299.773 348.172 290.398 349.33L281.396 350.455L268.574 351.911L264.028 352.538L251.287 354.082L232.931 356.443L225.699 357.448L210.48 359.122C202.627 359.994 195.15 360.698 187.439 361.207L174.029 362.084C171.929 362.234 169.903 362.39 167.798 362.325L156.732 363.03C151.826 363.353 147.039 363.719 142.08 364.411C141.318 357.438 141.258 350.699 140.732 343.76L139.304 324.785C139.558 323.914 139.185 323.154 139.094 322.314L136.89 301.471L133.675 273.625L129.812 230.948L125.299 181.411L123.449 164.642L121.372 145.538L120.453 139.065L119.219 128.46L118.591 124.882L117.453 116.625L116.22 110.678C116.017 109.714 115.259 108.854 115.49 107.729C120.908 106.983 126.213 107.068 131.642 106.765L138.684 106.383L162.288 104.436C162.639 106.073 162.849 107.602 162.807 109.208C162.795 109.721 162.181 110.288 162.429 110.791L162.43 110.804ZM371.702 121.696L372.339 126.498L374.548 151.379L377.14 183.697L379.71 215.614L386.103 286.562C386.592 291.97 387.16 296.967 387.545 302.344L389.102 323.865L389.668 333.789L390.036 342.978L390.105 346.62L390.384 352.895C390.45 354.424 390.296 355.919 390.637 357.45C391.363 357.317 391.397 356.735 391.813 356.374C391.951 356.133 392.061 356.23 392.082 356.309C392.877 359.172 386.987 368.456 378.527 369.329L347.542 372.551L316.634 375.672L287.852 378.613L263.904 381.063L210.791 386.234L196.852 387.819L186.946 389.025L178.014 390.13L163.38 391.71L161.916 391.048L154.133 391.726C149.036 392.174 144.16 393.476 138.93 393.411C127.249 393.244 118.75 387.133 116.914 376.287C116.064 371.208 115.901 366.214 115.617 360.99C115.145 352.416 114.26 344.082 113.257 335.557L111.656 321.862L110.593 313.8L109.486 305.244L108.366 296.554L106.736 282.216L104.184 257.864L102.514 239.41L100.116 209.713L94.6405 149.223L91.2015 122.42C90.7244 118.748 90.2642 115.262 89.488 111.644C89.2861 110.693 89.2698 109.712 89.3597 108.626C89.5325 107.817 89.9505 108.438 89.8458 109.04C89.8675 109.281 89.9601 109.663 89.9865 109.795C90.0249 109.899 90.2521 109.852 90.4316 109.916C90.5956 109.969 90.8776 109.566 90.8523 109.286C90.5186 104.16 91.7093 99.4074 94.9692 95.1274C98.0607 91.0646 102.837 87.8724 108.37 87.2774L132.236 84.7134L151.036 82.783L160.135 81.2864L160.43 87.7486C160.583 91.3562 160.895 94.8014 161.841 98.3776L137.64 100.756C133.651 101.144 113.086 103.235 111.541 106.161C111.297 106.816 112.482 107.274 112.581 107.736C112.896 109.135 112.267 110.498 112.421 111.884C112.715 114.334 112.71 116.677 112.872 119.099L113.756 133.034L121.504 219.907L123.459 243.586L127.118 284.02L129.489 306.22L130.723 316.65C131.353 321.857 131.787 326.974 132.132 332.22L132.969 344.826L134.507 365.971C134.613 367.631 134.811 369.659 136.775 370.249C137.236 370.382 138.14 369.816 138.47 370.742C138.685 371.355 139.349 371.335 139.781 371.471C140.481 371.69 140.342 370.155 140.789 370.141L165.742 369.189L178.879 368.659L194.327 367.598C199.347 367.251 204.196 366.772 209.214 366.25L228.284 364.268L238.143 363.013L248.663 361.71L253.819 360.948L263.705 359.676L272.095 358.674L285.457 357.101L320.736 353.827L330.826 353.21C333.143 353.068 335.377 353.283 337.688 352.751C338.046 352.867 338.173 353.151 337.764 353.269C337.337 353.187 336.743 353.348 336.452 353.482C336.23 353.596 336.206 353.962 336.379 354.283C336.974 355.414 343.292 354.061 344.755 353.915C350.793 353.301 356.594 352.628 362.553 351.631C364.978 351.237 374.428 350.422 373.179 346.698C373.066 346.412 372.557 346.229 372.089 346.016C370.866 345.453 371.304 344.216 371.344 343.216L371.535 337.49L371.563 329.801L371.125 320.484L370.917 314.996C370.802 312.126 370.42 309.347 370.094 306.535L368.671 294.332L367.261 282.909L365.68 271.838L363.44 256.047L361.6 243.397L360.582 235.667L359.223 224.172L357.924 214.139L352.859 158.176C352.605 155.371 352.663 152.808 352.517 150.075L352.033 141.368L351.129 119.869C350.791 111.661 350.339 103.624 348.971 95.5494L347.43 86.5208C347.216 85.2747 347.86 84.0721 346.776 82.972C346.059 82.2426 344.904 81.4721 343.356 81.6392L335.23 82.5361L312.018 84.9602L298.286 86.755L297.146 74.8091C296.946 72.754 296.243 70.9059 296.319 68.7046C301.605 68.7378 306.586 68.4485 311.714 68.1729L320.038 67.7156L333.735 66.974C334.699 66.9137 335.781 66.8697 336.593 67.3616C342.096 66.2846 347.52 65.9283 353.122 66.8887C357.488 67.6379 361.197 70.237 363.152 74.0854C368.78 85.1 367.248 100.317 368.241 101.21L369.469 102.31C373.489 105.945 370.837 115.178 371.702 121.696ZM368.983 70.8652C366.965 65.9993 362.668 62.9822 357.281 61.1945C362.38 61.4061 366.425 64.5134 369.08 68.5812C369.7 69.5212 369.653 70.2794 368.983 70.8652ZM371.714 74.4952C374.655 78.0524 375.188 89.2185 375.102 93.8575C373.979 90.8896 373.908 88.0285 373.165 85.0936L371.714 74.4952Z" fill="#FC5855"/>
<path d="M375.102 93.8567C373.981 90.9022 373.91 88.0411 373.165 85.0928L371.715 74.5078C374.657 78.065 375.19 89.2311 375.103 93.8701L375.102 93.8567Z" fill="#FC5855"/>
<path d="M369.078 68.5803C369.7 69.5337 369.652 70.2785 368.981 70.8643C366.949 65.9998 362.666 62.9813 357.281 61.207C362.38 61.4186 366.423 64.5126 369.078 68.5803Z" fill="#FC5855"/>
<path d="M199.917 204.045L197.404 206.184C197.156 205.843 196.449 204.911 195.929 205.241C192.38 207.447 189.879 210.675 187.542 213.956C181.24 214.527 173.828 214.511 167.663 215.635L160.003 217.041C158.138 217.385 156.68 218.217 155.958 219.844C155.351 218.728 154.669 218.547 153.763 218.616C152.801 218.703 152.435 219.45 152.469 220.47L153.066 237.782C153.201 241.674 154.18 245.288 154.854 249.064C155.373 251.911 158.256 252.902 160.578 252.813C170.369 252.412 177.664 250.661 186.653 250.346C188.124 250.293 189.337 250.264 190.862 249.843C192.317 249.443 194.032 248.089 193.455 246.512C192.93 245.025 193.175 243.738 193.124 242.207C192.915 235.105 191.717 228.266 190.688 221.211L197.335 211.495C198.32 210.073 198.52 208.439 199.92 207.115C200.814 206.28 201.053 204.764 199.917 204.045ZM160.31 247.937C160.107 238.976 158.407 230.11 156.239 220.869C158.179 221.353 160.048 221.372 162.052 221.285L182.585 220.598L175.394 229.892C174.383 231.195 173.772 232.758 172.285 233.606C169.641 231.261 166.988 228.647 163.923 226.932C162.125 227.525 161.772 230.182 162.884 231.603C165.238 234.581 167.33 237.541 170.077 240.228C171.079 241.227 173.749 240.501 174.761 239.858C175.032 239.806 175.142 240.388 175.382 240.475C177.641 241.293 182.791 231.026 185.101 229.363L186.596 243.808C177.547 244.25 169.15 245.656 160.31 247.937Z" fill="#FC5855"/>
<path d="M193.889 139.701C193.827 139.491 193.276 139.164 192.957 139.314C187.685 141.676 185.221 144.996 181.544 149.138C180.579 149.831 178.883 149.325 177.777 149.412C172.878 149.815 168.127 149.935 163.312 150.788L153.924 152.446C152.371 152.721 151.312 153.329 150.372 154.612C150.171 153.674 147.007 153.422 146.899 154.468C146.175 161.333 147.002 168.07 147.521 174.929C147.761 178.058 148.32 180.875 148.998 183.896C149.407 185.69 150.386 187.069 152.64 187.511C157.738 188.504 165.148 187.066 170.254 186.55L182.945 185.253C184.536 185.082 187.733 184.254 187.608 182.556L187.289 178.075C187.169 176.591 187.446 174.856 187.234 173.314L184.839 156.123L189.946 147.623C191.331 145.33 192.363 142.989 193.838 140.729C194.039 140.401 193.967 139.923 193.889 139.701ZM154.336 183.063C154.353 179.252 153.985 175.987 153.457 172.548C152.597 167.052 151.804 161.806 150.561 156.062C153.111 156.572 155.43 156.456 157.957 156.389L170.882 156.067C172.7 156.01 174.446 155.475 176.182 156.099C173.135 160.494 170.194 164.463 166.618 168.448L159.865 163.392C159.028 162.781 158.061 162.492 157.315 163.044C156.54 163.599 156.05 164.424 156.36 165.446C157.078 167.939 162.212 173.815 164.743 175.551C168.03 177.812 172.098 174.94 173.459 172.07L179.081 164.466L180.727 178.817C171.695 179.446 162.867 180.729 154.336 183.063Z" fill="#FC5855"/>
<path d="M244.556 295.214L233.417 295.913L226.899 296.18C224.26 296.284 221.814 296.451 219.133 296.25C217.952 296.155 216.268 295.297 216.657 293.997C216.968 292.959 218.552 292.546 219.597 292.425L229.114 291.227L240.526 289.871L255.498 288.179L263.313 287.216L277.264 285.603L327.571 280.942C330.916 280.64 335.158 282.571 334.011 284.291C332.774 286.139 330.446 287.117 328.185 287.403L320.573 288.374L285.654 291.791L276.262 292.762C273.251 293.075 270.39 293.293 267.357 293.514L244.558 295.241L244.556 295.214Z" fill="#FC5855"/>
<path d="M195.34 280.578C195.063 279.284 193.695 279.044 192.411 279.08C183.087 279.372 173.963 280.426 164.842 282.154C163.577 282.403 162.669 283.091 162.116 284.016C161.35 283.385 160.523 283.043 159.851 283.292C158.927 283.645 158.501 284.37 158.469 285.302C158.376 287.626 158.418 289.857 158.502 292.219L158.781 299.625C158.871 302.054 158.877 304.355 159.383 306.746C159.929 309.268 160.618 316.395 163.054 316.767C164.83 317.037 166.598 317.55 168.455 317.436C173.017 317.144 177.452 316.729 181.948 316.039C186.459 315.348 190.713 315.179 195.359 314.691C196.892 314.525 199.529 313.438 199.335 311.773C199.151 310.215 199.028 308.853 198.97 307.256C198.629 298.213 197.153 289.421 195.34 280.578ZM191.153 293.491C191.332 298.51 191.918 303.223 192.319 308.289C183.358 308.911 174.871 310.124 166.18 312.606C166.08 307.5 165.403 302.58 164.508 297.491L162.382 285.352C163.249 285.825 163.895 286.238 164.907 286.227C173.6 286.167 182.068 285.859 190.844 285.118L191.153 293.491Z" fill="#FC5855"/>
<path d="M262.136 163.412C257.214 163.884 252.942 164.338 248.268 164.667L231.589 165.881L213.395 166.827C211.047 166.946 208.817 167.094 206.487 166.779C205.637 166.668 205.219 166.046 205.112 165.342C204.807 163.256 210.293 162.773 212.755 162.47L255.706 157.29L277.642 154.995L309.407 152.066C311.962 151.834 314.381 151.696 316.86 151.741C318.905 151.785 322.041 152.699 322.198 154.435C322.395 156.612 316.597 158.106 314.178 158.244C312.493 158.343 311.08 158.726 309.345 158.897L262.135 163.399L262.136 163.412Z" fill="#FC5855"/>
<path d="M237.304 230.617L226.867 231.238L213.829 231.745C212.935 231.785 212.184 231.477 211.694 231.023C211.204 230.569 210.886 229.292 211.758 228.849C214.289 227.557 217.19 227.469 220.023 227.105L230.139 225.813L240.19 224.607L255.506 222.884L269.06 221.361L287.234 219.393C295.346 218.511 303.269 217.78 311.378 217.181L321.902 216.403C323.944 216.259 325.887 216.77 327.412 217.951C328.176 218.555 328.217 219.494 327.572 220.198C326.493 221.386 325.011 222.288 323.266 222.513L311.435 224.042L266.416 228.291C261.136 228.796 256.262 229.318 251.056 229.681L237.333 230.614L237.304 230.617Z" fill="#FC5855"/>
<path d="M238.322 57.1653C237.835 54.5034 236.963 52.0648 234.797 50.201C232.396 48.1298 228.73 46.9672 225.641 48.3373C224.571 48.8246 224.087 48.5991 222.883 48.7349C219 49.1672 215.359 52.1085 213.943 55.4946C212.233 59.6343 213.311 64.1814 216.425 67.0901C219.301 69.7647 222.649 70.7676 226.867 70.5204C234.482 70.0601 239.578 63.9984 238.322 57.1653ZM231.314 61.1249C230.029 63.3952 227.498 64.2167 224.933 64.018C222.747 63.8524 220.54 62.9751 219.668 61.0212C218.255 57.8777 219.901 54.4841 222.837 52.6972C223.811 52.1109 224.207 51.8462 225.3 52.4069C226.514 53.0241 228.15 52.7144 229.515 53.2371C230.647 55.679 231.159 58.2983 231.314 61.1249Z" fill="#FC5855"/>
<path d="M231.316 61.1383C230.03 63.4087 227.5 64.2301 224.934 64.0315C222.748 63.8659 220.541 62.9886 219.654 61.0226C218.241 57.8791 219.889 54.4989 222.837 52.6973C223.812 52.111 224.208 51.8463 225.301 52.407C226.514 53.0242 228.151 52.7145 229.501 53.2385C230.634 55.6804 231.16 58.2984 231.3 61.1263L231.316 61.1383Z" fill="#FC5855"/>
</svg>
